G04 #@! TF.GenerationSoftware,KiCad,Pcbnew,(5.0.2-5)-5*
G04 #@! TF.CreationDate,2021-05-21T23:49:56+01:00*
G04 #@! TF.ProjectId,VCA_Kicad_Project-20210521,5643415f-4b69-4636-9164-5f50726f6a65,rev?*
G04 #@! TF.SameCoordinates,Original*
G04 #@! TF.FileFunction,Copper,L2,Bot*
G04 #@! TF.FilePolarity,Positive*
%FSLAX46Y46*%
G04 Gerber Fmt 4.6, Leading zero omitted, Abs format (unit mm)*
G04 Created by KiCad (PCBNEW (5.0.2-5)-5) date Friday, 21 May 2021 at 23:49:56*
%MOMM*%
%LPD*%
G01*
G04 APERTURE LIST*
G04 #@! TA.AperFunction,ComponentPad*
%ADD10C,4.000000*%
G04 #@! TD*
G04 #@! TA.AperFunction,Conductor*
%ADD11C,0.254000*%
G04 #@! TD*
G04 APERTURE END LIST*
D10*
G04 #@! TO.P,H1,1*
G04 #@! TO.N,GND*
X163869480Y-82707520D03*
G04 #@! TD*
G04 #@! TO.P,H2,1*
G04 #@! TO.N,GND*
X125769480Y-82707520D03*
G04 #@! TD*
G04 #@! TO.P,H3,1*
G04 #@! TO.N,GND*
X144819480Y-38657520D03*
G04 #@! TD*
D11*
G04 #@! TO.N,GND*
G36*
X190992481Y-201980520D02*
X115646480Y-201980520D01*
X115646480Y-197315466D01*
X118792480Y-197315466D01*
X118792480Y-197499573D01*
X118799046Y-197532583D01*
X118876047Y-198018744D01*
X118876047Y-198018745D01*
X118917330Y-198145801D01*
X119144593Y-198591830D01*
X119223118Y-198699911D01*
X119577090Y-199053882D01*
X119685170Y-199132407D01*
X120131199Y-199359670D01*
X120258255Y-199400953D01*
X120744412Y-199477953D01*
X120777426Y-199484520D01*
X124661534Y-199484520D01*
X124694548Y-199477953D01*
X125180705Y-199400953D01*
X125307761Y-199359670D01*
X125753790Y-199132407D01*
X125764924Y-199124318D01*
X125861871Y-199053882D01*
X126215842Y-198699910D01*
X126294367Y-198591830D01*
X126521630Y-198145801D01*
X126562913Y-198018745D01*
X126562913Y-198018744D01*
X126639914Y-197532584D01*
X126646480Y-197499573D01*
X126646480Y-197315466D01*
X179752480Y-197315466D01*
X179752480Y-197499573D01*
X179759046Y-197532583D01*
X179836047Y-198018744D01*
X179836047Y-198018745D01*
X179877330Y-198145801D01*
X180104593Y-198591830D01*
X180183118Y-198699911D01*
X180537090Y-199053882D01*
X180645170Y-199132407D01*
X181091199Y-199359670D01*
X181218255Y-199400953D01*
X181704412Y-199477953D01*
X181737426Y-199484520D01*
X185621534Y-199484520D01*
X185654548Y-199477953D01*
X186140705Y-199400953D01*
X186267761Y-199359670D01*
X186713790Y-199132407D01*
X186724924Y-199124318D01*
X186821871Y-199053882D01*
X187175842Y-198699910D01*
X187254367Y-198591830D01*
X187481630Y-198145801D01*
X187522913Y-198018745D01*
X187522913Y-198018744D01*
X187599914Y-197532584D01*
X187606480Y-197499573D01*
X187606480Y-197315466D01*
X187599913Y-197282452D01*
X187522913Y-196796295D01*
X187481630Y-196669239D01*
X187254367Y-196223210D01*
X187175842Y-196115130D01*
X187175841Y-196115129D01*
X186821871Y-195761158D01*
X186713790Y-195682633D01*
X186267761Y-195455370D01*
X186140705Y-195414087D01*
X185654548Y-195337087D01*
X185621534Y-195330520D01*
X181737426Y-195330520D01*
X181704412Y-195337087D01*
X181218255Y-195414087D01*
X181091199Y-195455370D01*
X180645170Y-195682633D01*
X180537090Y-195761158D01*
X180183118Y-196115129D01*
X180166516Y-196137980D01*
X180104593Y-196223210D01*
X179877330Y-196669239D01*
X179836047Y-196796295D01*
X179759047Y-197282452D01*
X179752480Y-197315466D01*
X126646480Y-197315466D01*
X126639913Y-197282452D01*
X126562913Y-196796295D01*
X126521630Y-196669239D01*
X126294367Y-196223210D01*
X126215842Y-196115130D01*
X126215841Y-196115129D01*
X125861871Y-195761158D01*
X125753790Y-195682633D01*
X125307761Y-195455370D01*
X125180705Y-195414087D01*
X124694548Y-195337087D01*
X124661534Y-195330520D01*
X120777426Y-195330520D01*
X120744412Y-195337087D01*
X120258255Y-195414087D01*
X120131199Y-195455370D01*
X119685170Y-195682633D01*
X119577090Y-195761158D01*
X119223118Y-196115129D01*
X119206516Y-196137980D01*
X119144593Y-196223210D01*
X118917330Y-196669239D01*
X118876047Y-196796295D01*
X118799047Y-197282452D01*
X118792480Y-197315466D01*
X115646480Y-197315466D01*
X115646480Y-178115500D01*
X122483228Y-178115500D01*
X122508579Y-179083583D01*
X122704961Y-180031876D01*
X123066167Y-180930406D01*
X123580782Y-181750771D01*
X124232537Y-182467041D01*
X125000831Y-183056574D01*
X125861381Y-183500737D01*
X126786985Y-183785490D01*
X127748386Y-183901832D01*
X128715194Y-183846086D01*
X129656851Y-183620015D01*
X130543592Y-183230762D01*
X131347388Y-182690634D01*
X132042832Y-182016702D01*
X132607942Y-181230269D01*
X133024855Y-180356192D01*
X133280393Y-179422101D01*
X133366480Y-178457520D01*
X133359015Y-178172446D01*
X133350911Y-178115500D01*
X147883228Y-178115500D01*
X147908579Y-179083583D01*
X148104961Y-180031876D01*
X148466167Y-180930406D01*
X148980782Y-181750771D01*
X149632537Y-182467041D01*
X150400831Y-183056574D01*
X151261381Y-183500737D01*
X152186985Y-183785490D01*
X153148386Y-183901832D01*
X154115194Y-183846086D01*
X155056851Y-183620015D01*
X155943592Y-183230762D01*
X156747388Y-182690634D01*
X157442832Y-182016702D01*
X158007942Y-181230269D01*
X158424855Y-180356192D01*
X158680393Y-179422101D01*
X158766480Y-178457520D01*
X158759015Y-178172446D01*
X158750911Y-178115500D01*
X173283228Y-178115500D01*
X173308579Y-179083583D01*
X173504961Y-180031876D01*
X173866167Y-180930406D01*
X174380782Y-181750771D01*
X175032537Y-182467041D01*
X175800831Y-183056574D01*
X176661381Y-183500737D01*
X177586985Y-183785490D01*
X178548386Y-183901832D01*
X179515194Y-183846086D01*
X180456851Y-183620015D01*
X181343592Y-183230762D01*
X182147388Y-182690634D01*
X182842832Y-182016702D01*
X183407942Y-181230269D01*
X183824855Y-180356192D01*
X184080393Y-179422101D01*
X184166480Y-178457520D01*
X184159015Y-178172446D01*
X184022564Y-177213693D01*
X183718489Y-176294255D01*
X183256402Y-175443196D01*
X182650908Y-174687416D01*
X181921146Y-174050804D01*
X181090184Y-173553484D01*
X180184286Y-173211173D01*
X179232088Y-173034694D01*
X178263687Y-173029623D01*
X177309693Y-173196122D01*
X176400260Y-173528927D01*
X175564135Y-174017519D01*
X174827747Y-174646454D01*
X174214372Y-175395852D01*
X173743398Y-176242026D01*
X173429712Y-177158228D01*
X173283228Y-178115500D01*
X158750911Y-178115500D01*
X158622564Y-177213693D01*
X158318489Y-176294255D01*
X157856402Y-175443196D01*
X157250908Y-174687416D01*
X156521146Y-174050804D01*
X155690184Y-173553484D01*
X154784286Y-173211173D01*
X153832088Y-173034694D01*
X152863687Y-173029623D01*
X151909693Y-173196122D01*
X151000260Y-173528927D01*
X150164135Y-174017519D01*
X149427747Y-174646454D01*
X148814372Y-175395852D01*
X148343398Y-176242026D01*
X148029712Y-177158228D01*
X147883228Y-178115500D01*
X133350911Y-178115500D01*
X133222564Y-177213693D01*
X132918489Y-176294255D01*
X132456402Y-175443196D01*
X131850908Y-174687416D01*
X131121146Y-174050804D01*
X130290184Y-173553484D01*
X129384286Y-173211173D01*
X128432088Y-173034694D01*
X127463687Y-173029623D01*
X126509693Y-173196122D01*
X125600260Y-173528927D01*
X124764135Y-174017519D01*
X124027747Y-174646454D01*
X123414372Y-175395852D01*
X122943398Y-176242026D01*
X122629712Y-177158228D01*
X122483228Y-178115500D01*
X115646480Y-178115500D01*
X115646480Y-82402942D01*
X123846451Y-82402942D01*
X123851472Y-83042266D01*
X124063311Y-83645494D01*
X124459125Y-84147582D01*
X124996233Y-84494388D01*
X125616720Y-84648518D01*
X126253679Y-84593351D01*
X126838427Y-84334837D01*
X127307912Y-83900850D01*
X127611508Y-83338187D01*
X127716480Y-82707520D01*
X127716240Y-82676938D01*
X127646476Y-82294946D01*
X130344102Y-82294946D01*
X130347078Y-83147488D01*
X130533055Y-83979503D01*
X130893357Y-84752173D01*
X131411174Y-85429448D01*
X132062346Y-85979731D01*
X132816492Y-86377348D01*
X133638429Y-86603747D01*
X134489807Y-86648366D01*
X135330907Y-86509123D01*
X136122484Y-86192514D01*
X136827609Y-85713312D01*
X137413384Y-85093873D01*
X137852478Y-84363097D01*
X138124405Y-83555080D01*
X138216480Y-82707520D01*
X138216384Y-82679965D01*
X138171836Y-82294946D01*
X168444102Y-82294946D01*
X168447078Y-83147488D01*
X168633055Y-83979503D01*
X168993357Y-84752173D01*
X169511174Y-85429448D01*
X170162346Y-85979731D01*
X170916492Y-86377348D01*
X171738429Y-86603747D01*
X172589807Y-86648366D01*
X173430907Y-86509123D01*
X174222484Y-86192514D01*
X174927609Y-85713312D01*
X175513384Y-85093873D01*
X175952478Y-84363097D01*
X176224405Y-83555080D01*
X176316480Y-82707520D01*
X176316384Y-82679965D01*
X176218395Y-81833068D01*
X175940832Y-81026969D01*
X175496647Y-80299277D01*
X174906563Y-79683943D01*
X174198109Y-79209674D01*
X173404341Y-78898600D01*
X172562290Y-78765232D01*
X171711244Y-78815794D01*
X170890908Y-79047925D01*
X170139555Y-79450797D01*
X169492241Y-80005613D01*
X168979165Y-80686487D01*
X168624266Y-81461653D01*
X168444102Y-82294946D01*
X138171836Y-82294946D01*
X138118395Y-81833068D01*
X137840832Y-81026969D01*
X137396647Y-80299277D01*
X136806563Y-79683943D01*
X136098109Y-79209674D01*
X135304341Y-78898600D01*
X134462290Y-78765232D01*
X133611244Y-78815794D01*
X132790908Y-79047925D01*
X132039555Y-79450797D01*
X131392241Y-80005613D01*
X130879165Y-80686487D01*
X130524266Y-81461653D01*
X130344102Y-82294946D01*
X127646476Y-82294946D01*
X127601375Y-82047997D01*
X127288978Y-81490173D01*
X126812735Y-81063614D01*
X126223998Y-80814316D01*
X125586251Y-80769161D01*
X124968262Y-80933018D01*
X124436667Y-81288218D01*
X124048788Y-81796461D01*
X123846451Y-82402942D01*
X115646480Y-82402942D01*
X115646480Y-38244946D01*
X149394102Y-38244946D01*
X149397078Y-39097488D01*
X149583055Y-39929503D01*
X149943357Y-40702173D01*
X150461174Y-41379448D01*
X151112346Y-41929731D01*
X151866492Y-42327348D01*
X152688429Y-42553747D01*
X153539807Y-42598366D01*
X154380907Y-42459123D01*
X155172484Y-42142514D01*
X155877609Y-41663312D01*
X156463384Y-41043873D01*
X156902478Y-40313097D01*
X157174405Y-39505080D01*
X157266480Y-38657520D01*
X157266384Y-38629965D01*
X157168395Y-37783068D01*
X156890832Y-36976969D01*
X156446647Y-36249277D01*
X155856563Y-35633943D01*
X155148109Y-35159674D01*
X154354341Y-34848600D01*
X153512290Y-34715232D01*
X152661244Y-34765794D01*
X151840908Y-34997925D01*
X151089555Y-35400797D01*
X150442241Y-35955613D01*
X149929165Y-36636487D01*
X149574266Y-37411653D01*
X149394102Y-38244946D01*
X115646480Y-38244946D01*
X115646480Y-7315467D01*
X118792480Y-7315467D01*
X118792480Y-7499574D01*
X118799047Y-7532588D01*
X118876047Y-8018744D01*
X118876047Y-8018745D01*
X118917330Y-8145801D01*
X119144593Y-8591830D01*
X119223118Y-8699911D01*
X119577090Y-9053882D01*
X119685170Y-9132407D01*
X120131199Y-9359670D01*
X120258255Y-9400953D01*
X120744412Y-9477953D01*
X120777426Y-9484520D01*
X124661534Y-9484520D01*
X124694548Y-9477953D01*
X125180705Y-9400953D01*
X125307761Y-9359670D01*
X125753790Y-9132407D01*
X125764924Y-9124318D01*
X125861871Y-9053882D01*
X126215842Y-8699910D01*
X126294367Y-8591830D01*
X126521630Y-8145801D01*
X126562913Y-8018745D01*
X126562913Y-8018744D01*
X126639913Y-7532588D01*
X126646480Y-7499574D01*
X126646480Y-7315467D01*
X126646480Y-7315466D01*
X179752480Y-7315466D01*
X179752480Y-7499573D01*
X179759046Y-7532583D01*
X179836047Y-8018744D01*
X179836047Y-8018745D01*
X179877330Y-8145801D01*
X180104593Y-8591830D01*
X180183118Y-8699911D01*
X180537090Y-9053882D01*
X180645170Y-9132407D01*
X181091199Y-9359670D01*
X181218255Y-9400953D01*
X181704412Y-9477953D01*
X181737426Y-9484520D01*
X185621534Y-9484520D01*
X185654548Y-9477953D01*
X186140705Y-9400953D01*
X186267761Y-9359670D01*
X186713790Y-9132407D01*
X186724924Y-9124318D01*
X186821871Y-9053882D01*
X187175842Y-8699910D01*
X187254367Y-8591830D01*
X187481630Y-8145801D01*
X187522913Y-8018745D01*
X187522913Y-8018744D01*
X187599914Y-7532584D01*
X187606480Y-7499573D01*
X187606480Y-7315466D01*
X187599913Y-7282452D01*
X187522913Y-6796295D01*
X187481630Y-6669239D01*
X187254367Y-6223210D01*
X187175842Y-6115130D01*
X187175841Y-6115129D01*
X186821871Y-5761158D01*
X186713790Y-5682633D01*
X186267761Y-5455370D01*
X186140705Y-5414087D01*
X185654548Y-5337087D01*
X185621534Y-5330520D01*
X181737426Y-5330520D01*
X181704412Y-5337087D01*
X181218255Y-5414087D01*
X181091199Y-5455370D01*
X180645170Y-5682633D01*
X180537090Y-5761158D01*
X180183118Y-6115129D01*
X180166516Y-6137980D01*
X180104593Y-6223210D01*
X179877330Y-6669239D01*
X179836047Y-6796295D01*
X179759047Y-7282452D01*
X179752480Y-7315466D01*
X126646480Y-7315466D01*
X126639914Y-7282456D01*
X126562913Y-6796295D01*
X126521630Y-6669239D01*
X126294367Y-6223210D01*
X126215842Y-6115130D01*
X126215841Y-6115129D01*
X125861871Y-5761158D01*
X125753790Y-5682633D01*
X125307761Y-5455370D01*
X125180705Y-5414087D01*
X124694548Y-5337087D01*
X124661534Y-5330520D01*
X120777426Y-5330520D01*
X120744412Y-5337087D01*
X120258255Y-5414087D01*
X120131199Y-5455370D01*
X119685170Y-5682633D01*
X119577090Y-5761158D01*
X119223118Y-6115129D01*
X119206516Y-6137980D01*
X119144593Y-6223210D01*
X118917330Y-6669239D01*
X118876047Y-6796295D01*
X118799046Y-7282457D01*
X118792480Y-7315467D01*
X115646480Y-7315467D01*
X115646480Y-2834520D01*
X190992480Y-2834520D01*
X190992481Y-201980520D01*
X190992481Y-201980520D01*
G37*
X190992481Y-201980520D02*
X115646480Y-201980520D01*
X115646480Y-197315466D01*
X118792480Y-197315466D01*
X118792480Y-197499573D01*
X118799046Y-197532583D01*
X118876047Y-198018744D01*
X118876047Y-198018745D01*
X118917330Y-198145801D01*
X119144593Y-198591830D01*
X119223118Y-198699911D01*
X119577090Y-199053882D01*
X119685170Y-199132407D01*
X120131199Y-199359670D01*
X120258255Y-199400953D01*
X120744412Y-199477953D01*
X120777426Y-199484520D01*
X124661534Y-199484520D01*
X124694548Y-199477953D01*
X125180705Y-199400953D01*
X125307761Y-199359670D01*
X125753790Y-199132407D01*
X125764924Y-199124318D01*
X125861871Y-199053882D01*
X126215842Y-198699910D01*
X126294367Y-198591830D01*
X126521630Y-198145801D01*
X126562913Y-198018745D01*
X126562913Y-198018744D01*
X126639914Y-197532584D01*
X126646480Y-197499573D01*
X126646480Y-197315466D01*
X179752480Y-197315466D01*
X179752480Y-197499573D01*
X179759046Y-197532583D01*
X179836047Y-198018744D01*
X179836047Y-198018745D01*
X179877330Y-198145801D01*
X180104593Y-198591830D01*
X180183118Y-198699911D01*
X180537090Y-199053882D01*
X180645170Y-199132407D01*
X181091199Y-199359670D01*
X181218255Y-199400953D01*
X181704412Y-199477953D01*
X181737426Y-199484520D01*
X185621534Y-199484520D01*
X185654548Y-199477953D01*
X186140705Y-199400953D01*
X186267761Y-199359670D01*
X186713790Y-199132407D01*
X186724924Y-199124318D01*
X186821871Y-199053882D01*
X187175842Y-198699910D01*
X187254367Y-198591830D01*
X187481630Y-198145801D01*
X187522913Y-198018745D01*
X187522913Y-198018744D01*
X187599914Y-197532584D01*
X187606480Y-197499573D01*
X187606480Y-197315466D01*
X187599913Y-197282452D01*
X187522913Y-196796295D01*
X187481630Y-196669239D01*
X187254367Y-196223210D01*
X187175842Y-196115130D01*
X187175841Y-196115129D01*
X186821871Y-195761158D01*
X186713790Y-195682633D01*
X186267761Y-195455370D01*
X186140705Y-195414087D01*
X185654548Y-195337087D01*
X185621534Y-195330520D01*
X181737426Y-195330520D01*
X181704412Y-195337087D01*
X181218255Y-195414087D01*
X181091199Y-195455370D01*
X180645170Y-195682633D01*
X180537090Y-195761158D01*
X180183118Y-196115129D01*
X180166516Y-196137980D01*
X180104593Y-196223210D01*
X179877330Y-196669239D01*
X179836047Y-196796295D01*
X179759047Y-197282452D01*
X179752480Y-197315466D01*
X126646480Y-197315466D01*
X126639913Y-197282452D01*
X126562913Y-196796295D01*
X126521630Y-196669239D01*
X126294367Y-196223210D01*
X126215842Y-196115130D01*
X126215841Y-196115129D01*
X125861871Y-195761158D01*
X125753790Y-195682633D01*
X125307761Y-195455370D01*
X125180705Y-195414087D01*
X124694548Y-195337087D01*
X124661534Y-195330520D01*
X120777426Y-195330520D01*
X120744412Y-195337087D01*
X120258255Y-195414087D01*
X120131199Y-195455370D01*
X119685170Y-195682633D01*
X119577090Y-195761158D01*
X119223118Y-196115129D01*
X119206516Y-196137980D01*
X119144593Y-196223210D01*
X118917330Y-196669239D01*
X118876047Y-196796295D01*
X118799047Y-197282452D01*
X118792480Y-197315466D01*
X115646480Y-197315466D01*
X115646480Y-178115500D01*
X122483228Y-178115500D01*
X122508579Y-179083583D01*
X122704961Y-180031876D01*
X123066167Y-180930406D01*
X123580782Y-181750771D01*
X124232537Y-182467041D01*
X125000831Y-183056574D01*
X125861381Y-183500737D01*
X126786985Y-183785490D01*
X127748386Y-183901832D01*
X128715194Y-183846086D01*
X129656851Y-183620015D01*
X130543592Y-183230762D01*
X131347388Y-182690634D01*
X132042832Y-182016702D01*
X132607942Y-181230269D01*
X133024855Y-180356192D01*
X133280393Y-179422101D01*
X133366480Y-178457520D01*
X133359015Y-178172446D01*
X133350911Y-178115500D01*
X147883228Y-178115500D01*
X147908579Y-179083583D01*
X148104961Y-180031876D01*
X148466167Y-180930406D01*
X148980782Y-181750771D01*
X149632537Y-182467041D01*
X150400831Y-183056574D01*
X151261381Y-183500737D01*
X152186985Y-183785490D01*
X153148386Y-183901832D01*
X154115194Y-183846086D01*
X155056851Y-183620015D01*
X155943592Y-183230762D01*
X156747388Y-182690634D01*
X157442832Y-182016702D01*
X158007942Y-181230269D01*
X158424855Y-180356192D01*
X158680393Y-179422101D01*
X158766480Y-178457520D01*
X158759015Y-178172446D01*
X158750911Y-178115500D01*
X173283228Y-178115500D01*
X173308579Y-179083583D01*
X173504961Y-180031876D01*
X173866167Y-180930406D01*
X174380782Y-181750771D01*
X175032537Y-182467041D01*
X175800831Y-183056574D01*
X176661381Y-183500737D01*
X177586985Y-183785490D01*
X178548386Y-183901832D01*
X179515194Y-183846086D01*
X180456851Y-183620015D01*
X181343592Y-183230762D01*
X182147388Y-182690634D01*
X182842832Y-182016702D01*
X183407942Y-181230269D01*
X183824855Y-180356192D01*
X184080393Y-179422101D01*
X184166480Y-178457520D01*
X184159015Y-178172446D01*
X184022564Y-177213693D01*
X183718489Y-176294255D01*
X183256402Y-175443196D01*
X182650908Y-174687416D01*
X181921146Y-174050804D01*
X181090184Y-173553484D01*
X180184286Y-173211173D01*
X179232088Y-173034694D01*
X178263687Y-173029623D01*
X177309693Y-173196122D01*
X176400260Y-173528927D01*
X175564135Y-174017519D01*
X174827747Y-174646454D01*
X174214372Y-175395852D01*
X173743398Y-176242026D01*
X173429712Y-177158228D01*
X173283228Y-178115500D01*
X158750911Y-178115500D01*
X158622564Y-177213693D01*
X158318489Y-176294255D01*
X157856402Y-175443196D01*
X157250908Y-174687416D01*
X156521146Y-174050804D01*
X155690184Y-173553484D01*
X154784286Y-173211173D01*
X153832088Y-173034694D01*
X152863687Y-173029623D01*
X151909693Y-173196122D01*
X151000260Y-173528927D01*
X150164135Y-174017519D01*
X149427747Y-174646454D01*
X148814372Y-175395852D01*
X148343398Y-176242026D01*
X148029712Y-177158228D01*
X147883228Y-178115500D01*
X133350911Y-178115500D01*
X133222564Y-177213693D01*
X132918489Y-176294255D01*
X132456402Y-175443196D01*
X131850908Y-174687416D01*
X131121146Y-174050804D01*
X130290184Y-173553484D01*
X129384286Y-173211173D01*
X128432088Y-173034694D01*
X127463687Y-173029623D01*
X126509693Y-173196122D01*
X125600260Y-173528927D01*
X124764135Y-174017519D01*
X124027747Y-174646454D01*
X123414372Y-175395852D01*
X122943398Y-176242026D01*
X122629712Y-177158228D01*
X122483228Y-178115500D01*
X115646480Y-178115500D01*
X115646480Y-82402942D01*
X123846451Y-82402942D01*
X123851472Y-83042266D01*
X124063311Y-83645494D01*
X124459125Y-84147582D01*
X124996233Y-84494388D01*
X125616720Y-84648518D01*
X126253679Y-84593351D01*
X126838427Y-84334837D01*
X127307912Y-83900850D01*
X127611508Y-83338187D01*
X127716480Y-82707520D01*
X127716240Y-82676938D01*
X127646476Y-82294946D01*
X130344102Y-82294946D01*
X130347078Y-83147488D01*
X130533055Y-83979503D01*
X130893357Y-84752173D01*
X131411174Y-85429448D01*
X132062346Y-85979731D01*
X132816492Y-86377348D01*
X133638429Y-86603747D01*
X134489807Y-86648366D01*
X135330907Y-86509123D01*
X136122484Y-86192514D01*
X136827609Y-85713312D01*
X137413384Y-85093873D01*
X137852478Y-84363097D01*
X138124405Y-83555080D01*
X138216480Y-82707520D01*
X138216384Y-82679965D01*
X138171836Y-82294946D01*
X168444102Y-82294946D01*
X168447078Y-83147488D01*
X168633055Y-83979503D01*
X168993357Y-84752173D01*
X169511174Y-85429448D01*
X170162346Y-85979731D01*
X170916492Y-86377348D01*
X171738429Y-86603747D01*
X172589807Y-86648366D01*
X173430907Y-86509123D01*
X174222484Y-86192514D01*
X174927609Y-85713312D01*
X175513384Y-85093873D01*
X175952478Y-84363097D01*
X176224405Y-83555080D01*
X176316480Y-82707520D01*
X176316384Y-82679965D01*
X176218395Y-81833068D01*
X175940832Y-81026969D01*
X175496647Y-80299277D01*
X174906563Y-79683943D01*
X174198109Y-79209674D01*
X173404341Y-78898600D01*
X172562290Y-78765232D01*
X171711244Y-78815794D01*
X170890908Y-79047925D01*
X170139555Y-79450797D01*
X169492241Y-80005613D01*
X168979165Y-80686487D01*
X168624266Y-81461653D01*
X168444102Y-82294946D01*
X138171836Y-82294946D01*
X138118395Y-81833068D01*
X137840832Y-81026969D01*
X137396647Y-80299277D01*
X136806563Y-79683943D01*
X136098109Y-79209674D01*
X135304341Y-78898600D01*
X134462290Y-78765232D01*
X133611244Y-78815794D01*
X132790908Y-79047925D01*
X132039555Y-79450797D01*
X131392241Y-80005613D01*
X130879165Y-80686487D01*
X130524266Y-81461653D01*
X130344102Y-82294946D01*
X127646476Y-82294946D01*
X127601375Y-82047997D01*
X127288978Y-81490173D01*
X126812735Y-81063614D01*
X126223998Y-80814316D01*
X125586251Y-80769161D01*
X124968262Y-80933018D01*
X124436667Y-81288218D01*
X124048788Y-81796461D01*
X123846451Y-82402942D01*
X115646480Y-82402942D01*
X115646480Y-38244946D01*
X149394102Y-38244946D01*
X149397078Y-39097488D01*
X149583055Y-39929503D01*
X149943357Y-40702173D01*
X150461174Y-41379448D01*
X151112346Y-41929731D01*
X151866492Y-42327348D01*
X152688429Y-42553747D01*
X153539807Y-42598366D01*
X154380907Y-42459123D01*
X155172484Y-42142514D01*
X155877609Y-41663312D01*
X156463384Y-41043873D01*
X156902478Y-40313097D01*
X157174405Y-39505080D01*
X157266480Y-38657520D01*
X157266384Y-38629965D01*
X157168395Y-37783068D01*
X156890832Y-36976969D01*
X156446647Y-36249277D01*
X155856563Y-35633943D01*
X155148109Y-35159674D01*
X154354341Y-34848600D01*
X153512290Y-34715232D01*
X152661244Y-34765794D01*
X151840908Y-34997925D01*
X151089555Y-35400797D01*
X150442241Y-35955613D01*
X149929165Y-36636487D01*
X149574266Y-37411653D01*
X149394102Y-38244946D01*
X115646480Y-38244946D01*
X115646480Y-7315467D01*
X118792480Y-7315467D01*
X118792480Y-7499574D01*
X118799047Y-7532588D01*
X118876047Y-8018744D01*
X118876047Y-8018745D01*
X118917330Y-8145801D01*
X119144593Y-8591830D01*
X119223118Y-8699911D01*
X119577090Y-9053882D01*
X119685170Y-9132407D01*
X120131199Y-9359670D01*
X120258255Y-9400953D01*
X120744412Y-9477953D01*
X120777426Y-9484520D01*
X124661534Y-9484520D01*
X124694548Y-9477953D01*
X125180705Y-9400953D01*
X125307761Y-9359670D01*
X125753790Y-9132407D01*
X125764924Y-9124318D01*
X125861871Y-9053882D01*
X126215842Y-8699910D01*
X126294367Y-8591830D01*
X126521630Y-8145801D01*
X126562913Y-8018745D01*
X126562913Y-8018744D01*
X126639913Y-7532588D01*
X126646480Y-7499574D01*
X126646480Y-7315467D01*
X126646480Y-7315466D01*
X179752480Y-7315466D01*
X179752480Y-7499573D01*
X179759046Y-7532583D01*
X179836047Y-8018744D01*
X179836047Y-8018745D01*
X179877330Y-8145801D01*
X180104593Y-8591830D01*
X180183118Y-8699911D01*
X180537090Y-9053882D01*
X180645170Y-9132407D01*
X181091199Y-9359670D01*
X181218255Y-9400953D01*
X181704412Y-9477953D01*
X181737426Y-9484520D01*
X185621534Y-9484520D01*
X185654548Y-9477953D01*
X186140705Y-9400953D01*
X186267761Y-9359670D01*
X186713790Y-9132407D01*
X186724924Y-9124318D01*
X186821871Y-9053882D01*
X187175842Y-8699910D01*
X187254367Y-8591830D01*
X187481630Y-8145801D01*
X187522913Y-8018745D01*
X187522913Y-8018744D01*
X187599914Y-7532584D01*
X187606480Y-7499573D01*
X187606480Y-7315466D01*
X187599913Y-7282452D01*
X187522913Y-6796295D01*
X187481630Y-6669239D01*
X187254367Y-6223210D01*
X187175842Y-6115130D01*
X187175841Y-6115129D01*
X186821871Y-5761158D01*
X186713790Y-5682633D01*
X186267761Y-5455370D01*
X186140705Y-5414087D01*
X185654548Y-5337087D01*
X185621534Y-5330520D01*
X181737426Y-5330520D01*
X181704412Y-5337087D01*
X181218255Y-5414087D01*
X181091199Y-5455370D01*
X180645170Y-5682633D01*
X180537090Y-5761158D01*
X180183118Y-6115129D01*
X180166516Y-6137980D01*
X180104593Y-6223210D01*
X179877330Y-6669239D01*
X179836047Y-6796295D01*
X179759047Y-7282452D01*
X179752480Y-7315466D01*
X126646480Y-7315466D01*
X126639914Y-7282456D01*
X126562913Y-6796295D01*
X126521630Y-6669239D01*
X126294367Y-6223210D01*
X126215842Y-6115130D01*
X126215841Y-6115129D01*
X125861871Y-5761158D01*
X125753790Y-5682633D01*
X125307761Y-5455370D01*
X125180705Y-5414087D01*
X124694548Y-5337087D01*
X124661534Y-5330520D01*
X120777426Y-5330520D01*
X120744412Y-5337087D01*
X120258255Y-5414087D01*
X120131199Y-5455370D01*
X119685170Y-5682633D01*
X119577090Y-5761158D01*
X119223118Y-6115129D01*
X119206516Y-6137980D01*
X119144593Y-6223210D01*
X118917330Y-6669239D01*
X118876047Y-6796295D01*
X118799046Y-7282457D01*
X118792480Y-7315467D01*
X115646480Y-7315467D01*
X115646480Y-2834520D01*
X190992480Y-2834520D01*
X190992481Y-201980520D01*
G36*
X126036324Y-81668230D02*
X126358581Y-81810699D01*
X126617316Y-82049871D01*
X126784630Y-82359957D01*
X126842480Y-82707520D01*
X126842348Y-82724374D01*
X126779045Y-83070986D01*
X126606882Y-83378405D01*
X126344422Y-83613484D01*
X126019967Y-83750873D01*
X125668502Y-83775758D01*
X125327925Y-83685456D01*
X125034961Y-83489703D01*
X124821199Y-83209609D01*
X124709690Y-82875374D01*
X124712458Y-82523040D01*
X124829203Y-82190598D01*
X125047338Y-81913896D01*
X125343340Y-81722769D01*
X125685293Y-81637828D01*
X126036324Y-81668230D01*
X126036324Y-81668230D01*
G37*
X126036324Y-81668230D02*
X126358581Y-81810699D01*
X126617316Y-82049871D01*
X126784630Y-82359957D01*
X126842480Y-82707520D01*
X126842348Y-82724374D01*
X126779045Y-83070986D01*
X126606882Y-83378405D01*
X126344422Y-83613484D01*
X126019967Y-83750873D01*
X125668502Y-83775758D01*
X125327925Y-83685456D01*
X125034961Y-83489703D01*
X124821199Y-83209609D01*
X124709690Y-82875374D01*
X124712458Y-82523040D01*
X124829203Y-82190598D01*
X125047338Y-81913896D01*
X125343340Y-81722769D01*
X125685293Y-81637828D01*
X126036324Y-81668230D01*
G04 #@! TD*
M02*
