G04 #@! TF.GenerationSoftware,KiCad,Pcbnew,(5.0.2-5)-5*
G04 #@! TF.CreationDate,2021-05-21T23:49:56+01:00*
G04 #@! TF.ProjectId,VCA_Kicad_Project-20210521,5643415f-4b69-4636-9164-5f50726f6a65,rev?*
G04 #@! TF.SameCoordinates,Original*
G04 #@! TF.FileFunction,Soldermask,Bot*
G04 #@! TF.FilePolarity,Negative*
%FSLAX46Y46*%
G04 Gerber Fmt 4.6, Leading zero omitted, Abs format (unit mm)*
G04 Created by KiCad (PCBNEW (5.0.2-5)-5) date Friday, 21 May 2021 at 23:49:56*
%MOMM*%
%LPD*%
G01*
G04 APERTURE LIST*
%ADD10C,0.100000*%
G04 APERTURE END LIST*
D10*
G36*
X164467732Y-80735338D02*
X164467734Y-80735339D01*
X164467735Y-80735339D01*
X164840993Y-80889947D01*
X164840994Y-80889948D01*
X165176919Y-81114406D01*
X165462594Y-81400081D01*
X165462596Y-81400084D01*
X165687053Y-81736007D01*
X165841661Y-82109265D01*
X165920480Y-82505514D01*
X165920480Y-82909526D01*
X165841661Y-83305775D01*
X165687053Y-83679033D01*
X165687052Y-83679034D01*
X165462594Y-84014959D01*
X165176919Y-84300634D01*
X165176916Y-84300636D01*
X164840993Y-84525093D01*
X164467735Y-84679701D01*
X164467734Y-84679701D01*
X164467732Y-84679702D01*
X164071487Y-84758520D01*
X163667473Y-84758520D01*
X163271228Y-84679702D01*
X163271226Y-84679701D01*
X163271225Y-84679701D01*
X162897967Y-84525093D01*
X162562044Y-84300636D01*
X162562041Y-84300634D01*
X162276366Y-84014959D01*
X162051908Y-83679034D01*
X162051907Y-83679033D01*
X161897299Y-83305775D01*
X161818480Y-82909526D01*
X161818480Y-82505514D01*
X161897299Y-82109265D01*
X162051907Y-81736007D01*
X162276364Y-81400084D01*
X162276366Y-81400081D01*
X162562041Y-81114406D01*
X162897966Y-80889948D01*
X162897967Y-80889947D01*
X163271225Y-80735339D01*
X163271226Y-80735339D01*
X163271228Y-80735338D01*
X163667473Y-80656520D01*
X164071487Y-80656520D01*
X164467732Y-80735338D01*
X164467732Y-80735338D01*
G37*
G36*
X126367732Y-80735338D02*
X126367734Y-80735339D01*
X126367735Y-80735339D01*
X126740993Y-80889947D01*
X126740994Y-80889948D01*
X127076919Y-81114406D01*
X127362594Y-81400081D01*
X127362596Y-81400084D01*
X127587053Y-81736007D01*
X127741661Y-82109265D01*
X127820480Y-82505514D01*
X127820480Y-82909526D01*
X127741661Y-83305775D01*
X127587053Y-83679033D01*
X127587052Y-83679034D01*
X127362594Y-84014959D01*
X127076919Y-84300634D01*
X127076916Y-84300636D01*
X126740993Y-84525093D01*
X126367735Y-84679701D01*
X126367734Y-84679701D01*
X126367732Y-84679702D01*
X125971487Y-84758520D01*
X125567473Y-84758520D01*
X125171228Y-84679702D01*
X125171226Y-84679701D01*
X125171225Y-84679701D01*
X124797967Y-84525093D01*
X124462044Y-84300636D01*
X124462041Y-84300634D01*
X124176366Y-84014959D01*
X123951908Y-83679034D01*
X123951907Y-83679033D01*
X123797299Y-83305775D01*
X123718480Y-82909526D01*
X123718480Y-82505514D01*
X123797299Y-82109265D01*
X123951907Y-81736007D01*
X124176364Y-81400084D01*
X124176366Y-81400081D01*
X124462041Y-81114406D01*
X124797966Y-80889948D01*
X124797967Y-80889947D01*
X125171225Y-80735339D01*
X125171226Y-80735339D01*
X125171228Y-80735338D01*
X125567473Y-80656520D01*
X125971487Y-80656520D01*
X126367732Y-80735338D01*
X126367732Y-80735338D01*
G37*
G36*
X145417732Y-36685338D02*
X145417734Y-36685339D01*
X145417735Y-36685339D01*
X145790993Y-36839947D01*
X145790994Y-36839948D01*
X146126919Y-37064406D01*
X146412594Y-37350081D01*
X146412596Y-37350084D01*
X146637053Y-37686007D01*
X146791661Y-38059265D01*
X146870480Y-38455514D01*
X146870480Y-38859526D01*
X146791661Y-39255775D01*
X146637053Y-39629033D01*
X146637052Y-39629034D01*
X146412594Y-39964959D01*
X146126919Y-40250634D01*
X146126916Y-40250636D01*
X145790993Y-40475093D01*
X145417735Y-40629701D01*
X145417734Y-40629701D01*
X145417732Y-40629702D01*
X145021487Y-40708520D01*
X144617473Y-40708520D01*
X144221228Y-40629702D01*
X144221226Y-40629701D01*
X144221225Y-40629701D01*
X143847967Y-40475093D01*
X143512044Y-40250636D01*
X143512041Y-40250634D01*
X143226366Y-39964959D01*
X143001908Y-39629034D01*
X143001907Y-39629033D01*
X142847299Y-39255775D01*
X142768480Y-38859526D01*
X142768480Y-38455514D01*
X142847299Y-38059265D01*
X143001907Y-37686007D01*
X143226364Y-37350084D01*
X143226366Y-37350081D01*
X143512041Y-37064406D01*
X143847966Y-36839948D01*
X143847967Y-36839947D01*
X144221225Y-36685339D01*
X144221226Y-36685339D01*
X144221228Y-36685338D01*
X144617473Y-36606520D01*
X145021487Y-36606520D01*
X145417732Y-36685338D01*
X145417732Y-36685338D01*
G37*
M02*
