G04*
G04 #@! TF.GenerationSoftware,Altium Limited,Altium Designer,20.0.2 (26)*
G04*
G04 Layer_Color=32896*
%FSLAX43Y43*%
%MOMM*%
G71*
G01*
G75*
%ADD11C,0.254*%
%ADD12C,0.127*%
%ADD14C,0.150*%
D11*
X86677Y121602D02*
X86424Y121856D01*
X85916D01*
X85662Y121602D01*
Y121348D01*
X85916Y121094D01*
X86170D01*
X85916D01*
X85662Y120840D01*
Y120586D01*
X85916Y120332D01*
X86424D01*
X86677Y120586D01*
X85662Y125730D02*
X86677D01*
X85662Y126746D01*
Y127000D01*
X85916Y127254D01*
X86424D01*
X86677Y127000D01*
Y131128D02*
X86170D01*
X86424D01*
Y132651D01*
X86677Y132397D01*
X9208Y133985D02*
X8954Y134239D01*
X8446D01*
X8192Y133985D01*
Y133731D01*
X8446Y133477D01*
X8700D01*
X8446D01*
X8192Y133223D01*
Y132969D01*
X8446Y132715D01*
X8954D01*
X9208Y132969D01*
X8509Y127635D02*
X9525D01*
X8509Y128651D01*
Y128905D01*
X8763Y129159D01*
X9271D01*
X9525Y128905D01*
X9208Y122238D02*
X8700D01*
X8954D01*
Y123761D01*
X9208Y123507D01*
X10033Y87948D02*
X9779Y87694D01*
X9271D01*
X9017Y87948D01*
Y88202D01*
X9271Y88456D01*
X9525D01*
X9271D01*
X9017Y88710D01*
Y88964D01*
X9271Y89217D01*
X9779D01*
X10033Y88964D01*
X9017Y93027D02*
X10033D01*
X9017Y94043D01*
Y94297D01*
X9271Y94551D01*
X9779D01*
X10033Y94297D01*
X9525Y97790D02*
X9017D01*
X9271D01*
Y99314D01*
X9525Y99060D01*
X10033Y72390D02*
X9779Y72136D01*
X9271D01*
X9017Y72390D01*
Y72644D01*
X9271Y72898D01*
X9525D01*
X9271D01*
X9017Y73152D01*
Y73406D01*
X9271Y73660D01*
X9779D01*
X10033Y73406D01*
X9017Y77152D02*
X10033D01*
X9017Y78168D01*
Y78422D01*
X9271Y78676D01*
X9779D01*
X10033Y78422D01*
X9525Y82232D02*
X9017D01*
X9271D01*
Y83756D01*
X9525Y83502D01*
X86677Y99377D02*
X86424Y99631D01*
X85916D01*
X85662Y99377D01*
Y99123D01*
X85916Y98869D01*
X86170D01*
X85916D01*
X85662Y98615D01*
Y98361D01*
X85916Y98107D01*
X86424D01*
X86677Y98361D01*
X85662Y93027D02*
X86677D01*
X85662Y94043D01*
Y94297D01*
X85916Y94551D01*
X86424D01*
X86677Y94297D01*
X86170Y87948D02*
X85662D01*
X85916D01*
Y89471D01*
X86170Y89217D01*
X86677Y83820D02*
X86424Y84074D01*
X85916D01*
X85662Y83820D01*
Y83566D01*
X85916Y83312D01*
X86170D01*
X85916D01*
X85662Y83058D01*
Y82804D01*
X85916Y82550D01*
X86424D01*
X86677Y82804D01*
X85662Y77470D02*
X86677D01*
X85662Y78486D01*
Y78740D01*
X85916Y78994D01*
X86424D01*
X86677Y78740D01*
X86170Y72390D02*
X85662D01*
X85916D01*
Y73914D01*
X86170Y73660D01*
X84772Y127952D02*
X83249D01*
Y127191D01*
X83503Y126937D01*
X84011D01*
X84265Y127191D01*
Y127952D01*
X83249Y126429D02*
X84772D01*
X84265Y125921D01*
X84772Y125413D01*
X83249D01*
X84772Y124905D02*
X83249D01*
X83757Y124398D01*
X83249Y123890D01*
X84772D01*
X13623Y96289D02*
Y97155D01*
X14273D01*
Y96722D01*
Y97155D01*
X14922D01*
Y95855D02*
X13623D01*
X14056Y95422D01*
X13623Y94989D01*
X14922D01*
X13623Y93256D02*
X14922D01*
Y92390D01*
Y91307D02*
Y91740D01*
X14706Y91957D01*
X14273D01*
X14056Y91740D01*
Y91307D01*
X14273Y91090D01*
X14489D01*
Y91957D01*
X14056Y90657D02*
X14922Y90224D01*
X14056Y89791D01*
X14922Y88708D02*
Y89141D01*
X14706Y89358D01*
X14273D01*
X14056Y89141D01*
Y88708D01*
X14273Y88491D01*
X14489D01*
Y89358D01*
X14922Y88058D02*
Y87625D01*
Y87841D01*
X13623D01*
Y88058D01*
X13653Y82487D02*
X13399Y82741D01*
Y83249D01*
X13653Y83503D01*
X14669D01*
X14922Y83249D01*
Y82741D01*
X14669Y82487D01*
X13399Y81979D02*
X14415D01*
X14922Y81471D01*
X14415Y80963D01*
X13399D01*
X14922Y79440D02*
Y80455D01*
X13907Y79440D01*
X13653D01*
X13399Y79694D01*
Y80202D01*
X13653Y80455D01*
X13399Y77408D02*
X14922D01*
Y76393D01*
Y75123D02*
Y75631D01*
X14669Y75885D01*
X14161D01*
X13907Y75631D01*
Y75123D01*
X14161Y74869D01*
X14415D01*
Y75885D01*
X13907Y74361D02*
X14922Y73854D01*
X13907Y73346D01*
X14922Y72076D02*
Y72584D01*
X14669Y72838D01*
X14161D01*
X13907Y72584D01*
Y72076D01*
X14161Y71822D01*
X14415D01*
Y72838D01*
X14922Y71314D02*
Y70807D01*
Y71061D01*
X13399D01*
Y71314D01*
X41910Y52959D02*
X40894D01*
X41402D01*
Y51435D01*
X40386D02*
Y52959D01*
X39625D01*
X39371Y52705D01*
Y52197D01*
X39625Y51943D01*
X40386D01*
X39879D02*
X39371Y51435D01*
X38863Y52959D02*
X38355D01*
X38609D01*
Y51435D01*
X38863D01*
X38355D01*
X37593D02*
Y52451D01*
X37086Y52959D01*
X36578Y52451D01*
Y51435D01*
Y52197D01*
X37593D01*
X36070Y51435D02*
Y52959D01*
X35054Y51435D01*
Y52959D01*
X33531Y52705D02*
X33785Y52959D01*
X34292D01*
X34546Y52705D01*
Y51689D01*
X34292Y51435D01*
X33785D01*
X33531Y51689D01*
Y52197D01*
X34039D01*
X33023Y52959D02*
Y51435D01*
X32007D01*
X30484Y52959D02*
X31499D01*
Y51435D01*
X30484D01*
X31499Y52197D02*
X30992D01*
X90742Y52813D02*
X90996Y53066D01*
X91504D01*
X91757Y52813D01*
Y52559D01*
X91504Y52305D01*
X90996D01*
X90742Y52051D01*
Y51797D01*
X90996Y51543D01*
X91504D01*
X91757Y51797D01*
X89218D02*
Y52813D01*
X89472Y53066D01*
X89980D01*
X90234Y52813D01*
Y51797D01*
X89980Y51543D01*
X89472D01*
X89726Y52051D02*
X89218Y51543D01*
X89472D02*
X89218Y51797D01*
X88710Y53066D02*
Y51797D01*
X88457Y51543D01*
X87949D01*
X87695Y51797D01*
Y53066D01*
X87187Y51543D02*
Y52559D01*
X86679Y53066D01*
X86171Y52559D01*
Y51543D01*
Y52305D01*
X87187D01*
X85663Y51543D02*
Y53066D01*
X84902D01*
X84648Y52813D01*
Y52305D01*
X84902Y52051D01*
X85663D01*
X85156D02*
X84648Y51543D01*
X83124Y53066D02*
X84140D01*
Y51543D01*
X83124D01*
X84140Y52305D02*
X83632D01*
X63754Y1905D02*
X64008Y2159D01*
X64516D01*
X64770Y1905D01*
Y1651D01*
X64516Y1397D01*
X64008D01*
X63754Y1143D01*
Y889D01*
X64008Y635D01*
X64516D01*
X64770Y889D01*
X62485Y2159D02*
X62993D01*
X63246Y1905D01*
Y889D01*
X62993Y635D01*
X62485D01*
X62231Y889D01*
Y1905D01*
X62485Y2159D01*
X60707D02*
X61723D01*
Y1397D01*
X61215D01*
X61723D01*
Y635D01*
X60199Y2159D02*
X59184D01*
X59692D01*
Y635D01*
X63119Y52705D02*
X63373Y52959D01*
X63881D01*
X64135Y52705D01*
Y52451D01*
X63881Y52197D01*
X63373D01*
X63119Y51943D01*
Y51689D01*
X63373Y51435D01*
X63881D01*
X64135Y51689D01*
X62611Y51435D02*
Y52451D01*
X62104Y52959D01*
X61596Y52451D01*
Y51435D01*
Y52197D01*
X62611D01*
X61088Y52959D02*
Y51435D01*
X60580Y51943D01*
X60072Y51435D01*
Y52959D01*
X65723Y26035D02*
Y27559D01*
X64961D01*
X64707Y27305D01*
Y26797D01*
X64961Y26543D01*
X65723D01*
X64199Y27559D02*
Y26035D01*
X63691Y26543D01*
X63183Y26035D01*
Y27559D01*
X62675Y26035D02*
Y27559D01*
X62168Y27051D01*
X61660Y27559D01*
Y26035D01*
X61152Y25781D02*
X60136D01*
X59628Y27559D02*
X59121D01*
X59375D01*
Y26035D01*
X59628D01*
X59121D01*
X58359D02*
Y27559D01*
X57343Y26035D01*
Y27559D01*
X91313Y2159D02*
X91821D01*
X92075Y1905D01*
Y889D01*
X91821Y635D01*
X91313D01*
X91059Y889D01*
Y1905D01*
X91313Y2159D01*
X89536Y1905D02*
X89790Y2159D01*
X90298D01*
X90551Y1905D01*
Y889D01*
X90298Y635D01*
X89790D01*
X89536Y889D01*
X89028Y2159D02*
X88012D01*
X88520D01*
Y635D01*
X87504Y381D02*
X86489D01*
X85219Y2159D02*
X85727D01*
X85981Y1905D01*
Y889D01*
X85727Y635D01*
X85219D01*
X84965Y889D01*
Y1905D01*
X85219Y2159D01*
X84457D02*
Y889D01*
X84204Y635D01*
X83696D01*
X83442Y889D01*
Y2159D01*
X82934D02*
X81918D01*
X82426D01*
Y635D01*
X90678Y27559D02*
X91186D01*
X91440Y27305D01*
Y26289D01*
X91186Y26035D01*
X90678D01*
X90424Y26289D01*
Y27305D01*
X90678Y27559D01*
X88901Y27305D02*
X89155Y27559D01*
X89663D01*
X89916Y27305D01*
Y26289D01*
X89663Y26035D01*
X89155D01*
X88901Y26289D01*
X88393Y27559D02*
X87377D01*
X87885D01*
Y26035D01*
X86869Y25781D02*
X85854D01*
X85346Y27559D02*
X84838D01*
X85092D01*
Y26035D01*
X85346D01*
X84838D01*
X84076D02*
Y27559D01*
X83061Y26035D01*
Y27559D01*
X13335Y2159D02*
Y635D01*
Y1397D01*
X12319D01*
Y2159D01*
Y635D01*
X11811D02*
Y1651D01*
X11304Y2159D01*
X10796Y1651D01*
Y635D01*
Y1397D01*
X11811D01*
X10288Y635D02*
Y2159D01*
X9526D01*
X9272Y1905D01*
Y1397D01*
X9526Y1143D01*
X10288D01*
X9780D02*
X9272Y635D01*
X8764Y2159D02*
Y635D01*
X8003D01*
X7749Y889D01*
Y1905D01*
X8003Y2159D01*
X8764D01*
X7241Y1397D02*
X6225D01*
X39688Y2159D02*
Y635D01*
Y1397D01*
X38672D01*
Y2159D01*
Y635D01*
X38164D02*
Y1651D01*
X37656Y2159D01*
X37148Y1651D01*
Y635D01*
Y1397D01*
X38164D01*
X36640Y635D02*
Y2159D01*
X35879D01*
X35625Y1905D01*
Y1397D01*
X35879Y1143D01*
X36640D01*
X36133D02*
X35625Y635D01*
X35117Y2159D02*
Y635D01*
X34355D01*
X34101Y889D01*
Y1905D01*
X34355Y2159D01*
X35117D01*
X33593Y1397D02*
X32578D01*
X33086Y1905D02*
Y889D01*
X38989Y27559D02*
X40005D01*
Y26797D01*
X39497D01*
X40005D01*
Y26035D01*
X38481D02*
Y27559D01*
X37974Y27051D01*
X37466Y27559D01*
Y26035D01*
X36958Y25781D02*
X35942D01*
X35434Y27559D02*
X34927D01*
X35181D01*
Y26035D01*
X35434D01*
X34927D01*
X34165D02*
Y27559D01*
X33149Y26035D01*
Y27559D01*
X14542Y27305D02*
X14796Y27559D01*
X15304D01*
X15557Y27305D01*
Y26289D01*
X15304Y26035D01*
X14796D01*
X14542Y26289D01*
X14034Y27559D02*
Y26543D01*
X13526Y26035D01*
X13018Y26543D01*
Y27559D01*
X11495Y26035D02*
X12510D01*
X11495Y27051D01*
Y27305D01*
X11749Y27559D01*
X12257D01*
X12510Y27305D01*
X10987Y25781D02*
X9971D01*
X9463Y27559D02*
X8956D01*
X9210D01*
Y26035D01*
X9463D01*
X8956D01*
X8194D02*
Y27559D01*
X7178Y26035D01*
Y27559D01*
X82233Y81534D02*
X81979Y81788D01*
Y82296D01*
X82233Y82550D01*
X82487D01*
X82741Y82296D01*
Y81788D01*
X82995Y81534D01*
X83249D01*
X83503Y81788D01*
Y82296D01*
X83249Y82550D01*
X82487Y81026D02*
X83249D01*
X83503Y80773D01*
X83249Y80519D01*
X83503Y80265D01*
X83249Y80011D01*
X82487D01*
X83503Y79503D02*
Y78995D01*
Y79249D01*
X82487D01*
Y79503D01*
X82233Y77979D02*
X82487D01*
Y78233D01*
Y77726D01*
Y77979D01*
X83249D01*
X83503Y77726D01*
X82487Y75948D02*
Y76710D01*
X82741Y76964D01*
X83249D01*
X83503Y76710D01*
Y75948D01*
X81979Y75440D02*
X83503D01*
X82741D01*
X82487Y75186D01*
Y74679D01*
X82741Y74425D01*
X83503D01*
X82296Y97981D02*
Y98489D01*
X82550Y98743D01*
X83566D01*
X83820Y98489D01*
Y97981D01*
X83566Y97727D01*
X82550D01*
X82296Y97981D01*
X82804Y96203D02*
Y96965D01*
X83058Y97219D01*
X83566D01*
X83820Y96965D01*
Y96203D01*
X82550Y95442D02*
X82804D01*
Y95695D01*
Y95188D01*
Y95442D01*
X83566D01*
X83820Y95188D01*
X82804Y94172D02*
Y93664D01*
X83058Y93410D01*
X83820D01*
Y94172D01*
X83566Y94426D01*
X83312Y94172D01*
Y93410D01*
X82804Y92902D02*
X83820Y92395D01*
X82804Y91887D01*
X83820Y90617D02*
Y91125D01*
X83566Y91379D01*
X83058D01*
X82804Y91125D01*
Y90617D01*
X83058Y90363D01*
X83312D01*
Y91379D01*
X83820Y89855D02*
Y89094D01*
X83566Y88840D01*
X83312Y89094D01*
Y89601D01*
X83058Y89855D01*
X82804Y89601D01*
Y88840D01*
X11494Y130429D02*
Y131445D01*
X12256D01*
Y130937D01*
Y131445D01*
X13017D01*
Y129921D02*
Y129414D01*
Y129668D01*
X12002D01*
Y129921D01*
X13017Y128652D02*
X12002D01*
Y127890D01*
X12256Y127636D01*
X13017D01*
Y126367D02*
Y126874D01*
X12764Y127128D01*
X12256D01*
X12002Y126874D01*
Y126367D01*
X12256Y126113D01*
X12510D01*
Y127128D01*
D12*
X44012Y64822D02*
G03*
X43640Y65720I-1270J0D01*
G01*
X40574Y68786D02*
G03*
X39676Y69158I-898J-898D01*
G01*
X29534D02*
G03*
X28264Y67888I0J-1270D01*
G01*
Y54680D02*
G03*
X29534Y53410I1270J0D01*
G01*
X42742D02*
G03*
X44012Y54680I0J1270D01*
G01*
X94869Y64822D02*
G03*
X94497Y65720I-1270J0D01*
G01*
X91431Y68786D02*
G03*
X90533Y69158I-898J-898D01*
G01*
X80391D02*
G03*
X79121Y67888I0J-1270D01*
G01*
Y54680D02*
G03*
X80391Y53410I1270J0D01*
G01*
X93599D02*
G03*
X94869Y54680I0J1270D01*
G01*
X69412Y14022D02*
G03*
X69040Y14920I-1270J0D01*
G01*
X65974Y17986D02*
G03*
X65076Y18358I-898J-898D01*
G01*
X54934D02*
G03*
X53664Y17088I0J-1270D01*
G01*
Y3880D02*
G03*
X54934Y2610I1270J0D01*
G01*
X68142D02*
G03*
X69412Y3880I0J1270D01*
G01*
X69412Y64822D02*
G03*
X69040Y65720I-1270J0D01*
G01*
X65974Y68786D02*
G03*
X65076Y69158I-898J-898D01*
G01*
X54934D02*
G03*
X53664Y67888I0J-1270D01*
G01*
Y54680D02*
G03*
X54934Y53410I1270J0D01*
G01*
X68142D02*
G03*
X69412Y54680I0J1270D01*
G01*
X69412Y39422D02*
G03*
X69040Y40320I-1270J0D01*
G01*
X65974Y43386D02*
G03*
X65076Y43758I-898J-898D01*
G01*
X54934D02*
G03*
X53664Y42488I0J-1270D01*
G01*
Y29280D02*
G03*
X54934Y28010I1270J0D01*
G01*
X68142D02*
G03*
X69412Y29280I0J1270D01*
G01*
X94812Y14022D02*
G03*
X94440Y14920I-1270J0D01*
G01*
X91374Y17986D02*
G03*
X90476Y18358I-898J-898D01*
G01*
X80334D02*
G03*
X79064Y17088I0J-1270D01*
G01*
Y3880D02*
G03*
X80334Y2610I1270J0D01*
G01*
X93542D02*
G03*
X94812Y3880I0J1270D01*
G01*
X94812Y39422D02*
G03*
X94440Y40320I-1270J0D01*
G01*
X91374Y43386D02*
G03*
X90476Y43758I-898J-898D01*
G01*
X80334D02*
G03*
X79064Y42488I0J-1270D01*
G01*
Y29280D02*
G03*
X80334Y28010I1270J0D01*
G01*
X93542D02*
G03*
X94812Y29280I0J1270D01*
G01*
X18612Y14022D02*
G03*
X18240Y14920I-1270J0D01*
G01*
X15174Y17986D02*
G03*
X14276Y18358I-898J-898D01*
G01*
X4134D02*
G03*
X2864Y17088I0J-1270D01*
G01*
Y3880D02*
G03*
X4134Y2610I1270J0D01*
G01*
X17342D02*
G03*
X18612Y3880I0J1270D01*
G01*
X44012Y14022D02*
G03*
X43640Y14920I-1270J0D01*
G01*
X40574Y17986D02*
G03*
X39676Y18358I-898J-898D01*
G01*
X29534D02*
G03*
X28264Y17088I0J-1270D01*
G01*
Y3880D02*
G03*
X29534Y2610I1270J0D01*
G01*
X42742D02*
G03*
X44012Y3880I0J1270D01*
G01*
X44012Y39422D02*
G03*
X43640Y40320I-1270J0D01*
G01*
X40574Y43386D02*
G03*
X39676Y43758I-898J-898D01*
G01*
X29534D02*
G03*
X28264Y42488I0J-1270D01*
G01*
Y29280D02*
G03*
X29534Y28010I1270J0D01*
G01*
X42742D02*
G03*
X44012Y29280I0J1270D01*
G01*
X18612Y39422D02*
G03*
X18240Y40320I-1270J0D01*
G01*
X15174Y43386D02*
G03*
X14276Y43758I-898J-898D01*
G01*
X4134D02*
G03*
X2864Y42488I0J-1270D01*
G01*
Y29280D02*
G03*
X4134Y28010I1270J0D01*
G01*
X17342D02*
G03*
X18612Y29280I0J1270D01*
G01*
X175Y120968D02*
X7675D01*
Y136208D01*
X175Y120968D02*
Y136208D01*
X7675D01*
X87893Y134303D02*
X95392D01*
X87893Y119062D02*
Y134303D01*
X95392Y119062D02*
Y134303D01*
X87893Y119062D02*
X95392D01*
X88123Y70433D02*
X95622D01*
Y85673D01*
X88123Y70433D02*
Y85673D01*
X95622D01*
X88123Y86131D02*
X95623D01*
Y101371D01*
X88123Y86131D02*
Y101371D01*
X95623D01*
X263Y101283D02*
X7762D01*
X263Y86043D02*
Y101283D01*
X7762Y86043D02*
Y101283D01*
X263Y86043D02*
X7762D01*
X263Y85407D02*
X7762D01*
X263Y70167D02*
Y85407D01*
X7762Y70167D02*
Y85407D01*
X263Y70167D02*
X7762D01*
X44012Y54680D02*
Y57634D01*
Y60134D02*
Y64822D01*
X34738Y69158D02*
X39676D01*
X29534D02*
X32638D01*
X28264Y62934D02*
Y67888D01*
Y54680D02*
Y60734D01*
X29534Y53410D02*
X35438D01*
X37938D02*
X42742D01*
X40573Y68784D02*
X41363Y67994D01*
X42823Y66539D02*
X43638Y65724D01*
X94869Y54680D02*
Y57634D01*
Y60134D02*
Y64822D01*
X85595Y69158D02*
X90533D01*
X80391D02*
X83495D01*
X79121Y62934D02*
Y67888D01*
Y54680D02*
Y60734D01*
X80391Y53410D02*
X86295D01*
X88795D02*
X93599D01*
X91430Y68784D02*
X92220Y67994D01*
X93680Y66539D02*
X94495Y65724D01*
X69412Y3880D02*
Y6834D01*
Y9334D02*
Y14022D01*
X60138Y18358D02*
X65076D01*
X54934D02*
X58038D01*
X53664Y12134D02*
Y17088D01*
Y3880D02*
Y9934D01*
X54934Y2610D02*
X60838D01*
X63338D02*
X68142D01*
X65973Y17984D02*
X66763Y17194D01*
X68223Y15739D02*
X69038Y14924D01*
X69412Y54680D02*
Y57634D01*
Y60134D02*
Y64822D01*
X60138Y69158D02*
X65076D01*
X54934D02*
X58038D01*
X53664Y62934D02*
Y67888D01*
Y54680D02*
Y60734D01*
X54934Y53410D02*
X60838D01*
X63338D02*
X68142D01*
X65973Y68784D02*
X66763Y67994D01*
X68223Y66539D02*
X69038Y65724D01*
X69412Y29280D02*
Y32234D01*
Y34734D02*
Y39422D01*
X60138Y43758D02*
X65076D01*
X54934D02*
X58038D01*
X53664Y37534D02*
Y42488D01*
Y29280D02*
Y35334D01*
X54934Y28010D02*
X60838D01*
X63338D02*
X68142D01*
X65973Y43384D02*
X66763Y42594D01*
X68223Y41139D02*
X69038Y40324D01*
X94812Y3880D02*
Y6834D01*
Y9334D02*
Y14022D01*
X85538Y18358D02*
X90476D01*
X80334D02*
X83438D01*
X79064Y12134D02*
Y17088D01*
Y3880D02*
Y9934D01*
X80334Y2610D02*
X86238D01*
X88738D02*
X93542D01*
X91373Y17984D02*
X92163Y17194D01*
X93623Y15739D02*
X94438Y14924D01*
X94812Y29280D02*
Y32234D01*
Y34734D02*
Y39422D01*
X85538Y43758D02*
X90476D01*
X80334D02*
X83438D01*
X79064Y37534D02*
Y42488D01*
Y29280D02*
Y35334D01*
X80334Y28010D02*
X86238D01*
X88738D02*
X93542D01*
X91373Y43384D02*
X92163Y42594D01*
X93623Y41139D02*
X94438Y40324D01*
X18612Y3880D02*
Y6834D01*
Y9334D02*
Y14022D01*
X9338Y18358D02*
X14276D01*
X4134D02*
X7238D01*
X2864Y12134D02*
Y17088D01*
Y3880D02*
Y9934D01*
X4134Y2610D02*
X10038D01*
X12538D02*
X17342D01*
X15173Y17984D02*
X15963Y17194D01*
X17423Y15739D02*
X18238Y14924D01*
X44012Y3880D02*
Y6834D01*
Y9334D02*
Y14022D01*
X34738Y18358D02*
X39676D01*
X29534D02*
X32638D01*
X28264Y12134D02*
Y17088D01*
Y3880D02*
Y9934D01*
X29534Y2610D02*
X35438D01*
X37938D02*
X42742D01*
X40573Y17984D02*
X41363Y17194D01*
X42823Y15739D02*
X43638Y14924D01*
X44012Y29280D02*
Y32234D01*
Y34734D02*
Y39422D01*
X34738Y43758D02*
X39676D01*
X29534D02*
X32638D01*
X28264Y37534D02*
Y42488D01*
Y29280D02*
Y35334D01*
X29534Y28010D02*
X35438D01*
X37938D02*
X42742D01*
X40573Y43384D02*
X41363Y42594D01*
X42823Y41139D02*
X43638Y40324D01*
X18612Y29280D02*
Y32234D01*
Y34734D02*
Y39422D01*
X9338Y43758D02*
X14276D01*
X4134D02*
X7238D01*
X2864Y37534D02*
Y42488D01*
Y29280D02*
Y35334D01*
X4134Y28010D02*
X10038D01*
X12538D02*
X17342D01*
X15173Y43384D02*
X15963Y42594D01*
X17423Y41139D02*
X18238Y40324D01*
D14*
X1423Y88798D02*
Y88532D01*
Y88665D01*
X2089D01*
X2223Y88532D01*
Y88398D01*
X2089Y88265D01*
X1423Y89065D02*
X2223D01*
Y89598D01*
X1556Y90398D02*
X1423Y90264D01*
Y89998D01*
X1556Y89864D01*
X2089D01*
X2223Y89998D01*
Y90264D01*
X2089Y90398D01*
X1423Y91197D02*
Y90931D01*
Y91064D01*
X2089D01*
X2223Y90931D01*
Y90798D01*
X2089Y90664D01*
X1423Y91464D02*
X2223D01*
Y91997D01*
X1556Y92797D02*
X1423Y92664D01*
Y92397D01*
X1556Y92264D01*
X2089D01*
X2223Y92397D01*
Y92664D01*
X2089Y92797D01*
X1423Y93597D02*
Y93330D01*
Y93463D01*
X2089D01*
X2223Y93330D01*
Y93197D01*
X2089Y93063D01*
X1423Y93863D02*
X2223D01*
Y94396D01*
X1556Y95196D02*
X1423Y95063D01*
Y94796D01*
X1556Y94663D01*
X2089D01*
X2223Y94796D01*
Y95063D01*
X2089Y95196D01*
X1423Y95996D02*
Y95729D01*
Y95863D01*
X2089D01*
X2223Y95729D01*
Y95596D01*
X2089Y95463D01*
X1423Y96262D02*
X2223D01*
Y96796D01*
X1556Y97595D02*
X1423Y97462D01*
Y97195D01*
X1556Y97062D01*
X2089D01*
X2223Y97195D01*
Y97462D01*
X2089Y97595D01*
M02*
