G04*
G04 #@! TF.GenerationSoftware,Altium Limited,Altium Designer,20.0.2 (26)*
G04*
G04 Layer_Color=16711935*
%FSLAX43Y43*%
%MOMM*%
G71*
G01*
G75*
%ADD11C,0.254*%
%ADD38C,0.013*%
%ADD39C,0.152*%
D11*
X-0Y-2223D02*
X1524Y-1714D01*
X-0Y-2223D02*
X1524Y-2730D01*
X94678D02*
X96202Y-2223D01*
X94678Y-1714D02*
X96202Y-2223D01*
X-0D02*
X42337D01*
X53053D02*
X96202D01*
X-0Y-2477D02*
Y-260D01*
X96202Y-2477D02*
Y-260D01*
X-4318Y1524D02*
X-3810Y0D01*
X-3302Y1524D01*
X-3810Y166000D02*
X-3302Y164476D01*
X-4318D02*
X-3810Y166000D01*
Y0D02*
Y76601D01*
Y88586D02*
Y166000D01*
X-4064Y0D02*
X-260D01*
X-4064Y166000D02*
X-260D01*
D38*
X91938Y10484D02*
G03*
X91938Y10484I-5000J0D01*
G01*
X15738D02*
G03*
X15738Y10484I-5000J0D01*
G01*
X41138D02*
G03*
X41138Y10484I-5000J0D01*
G01*
X66538D02*
G03*
X66538Y10484I-5000J0D01*
G01*
X15738Y35884D02*
G03*
X15738Y35884I-5000J0D01*
G01*
X91938D02*
G03*
X91938Y35884I-5000J0D01*
G01*
X41138D02*
G03*
X41138Y35884I-5000J0D01*
G01*
X66538D02*
G03*
X66538Y35884I-5000J0D01*
G01*
X15738Y61284D02*
G03*
X15738Y61284I-5000J0D01*
G01*
X89938D02*
G03*
X89938Y61284I-3000J0D01*
G01*
X41138D02*
G03*
X41138Y61284I-5000J0D01*
G01*
X66538D02*
G03*
X66538Y61284I-5000J0D01*
G01*
X40313Y88121D02*
G03*
X40313Y88121I-1000J0D01*
G01*
D39*
X42743Y-2883D02*
X42997Y-3137D01*
X43505D01*
X43759Y-2883D01*
Y-1867D01*
X43505Y-1613D01*
X42997D01*
X42743Y-1867D01*
Y-2121D01*
X42997Y-2375D01*
X43759D01*
X45283Y-1613D02*
X44775Y-1867D01*
X44267Y-2375D01*
Y-2883D01*
X44521Y-3137D01*
X45029D01*
X45283Y-2883D01*
Y-2629D01*
X45029Y-2375D01*
X44267D01*
X45790Y-3137D02*
Y-2883D01*
X46044D01*
Y-3137D01*
X45790D01*
X48076D02*
X47060D01*
X48076Y-2121D01*
Y-1867D01*
X47822Y-1613D01*
X47314D01*
X47060Y-1867D01*
X48584D02*
X48837Y-1613D01*
X49345D01*
X49599Y-1867D01*
Y-2883D01*
X49345Y-3137D01*
X48837D01*
X48584Y-2883D01*
Y-1867D01*
X50107Y-3137D02*
Y-2121D01*
X50361D01*
X50615Y-2375D01*
Y-3137D01*
Y-2375D01*
X50869Y-2121D01*
X51123Y-2375D01*
Y-3137D01*
X51631D02*
Y-2121D01*
X51884D01*
X52138Y-2375D01*
Y-3137D01*
Y-2375D01*
X52392Y-2121D01*
X52646Y-2375D01*
Y-3137D01*
X-2896Y77007D02*
Y77515D01*
Y77261D01*
X-4419D01*
X-4165Y77007D01*
X-4419Y79293D02*
X-4165Y78785D01*
X-3658Y78277D01*
X-3150D01*
X-2896Y78531D01*
Y79039D01*
X-3150Y79293D01*
X-3404D01*
X-3658Y79039D01*
Y78277D01*
X-4419Y80816D02*
X-4165Y80308D01*
X-3658Y79801D01*
X-3150D01*
X-2896Y80054D01*
Y80562D01*
X-3150Y80816D01*
X-3404D01*
X-3658Y80562D01*
Y79801D01*
X-2896Y81324D02*
X-3150D01*
Y81578D01*
X-2896D01*
Y81324D01*
X-4165Y82594D02*
X-4419Y82848D01*
Y83355D01*
X-4165Y83609D01*
X-3150D01*
X-2896Y83355D01*
Y82848D01*
X-3150Y82594D01*
X-4165D01*
Y84117D02*
X-4419Y84371D01*
Y84879D01*
X-4165Y85133D01*
X-3150D01*
X-2896Y84879D01*
Y84371D01*
X-3150Y84117D01*
X-4165D01*
X-2896Y85641D02*
X-3912D01*
Y85895D01*
X-3658Y86148D01*
X-2896D01*
X-3658D01*
X-3912Y86402D01*
X-3658Y86656D01*
X-2896D01*
Y87164D02*
X-3912D01*
Y87418D01*
X-3658Y87672D01*
X-2896D01*
X-3658D01*
X-3912Y87926D01*
X-3658Y88180D01*
X-2896D01*
M02*
