G04*
G04 #@! TF.GenerationSoftware,Altium Limited,Altium Designer,20.0.2 (26)*
G04*
G04 Layer_Color=3326705*
%FSLAX43Y43*%
%MOMM*%
G71*
G01*
G75*
%ADD12C,0.127*%
D12*
X44012Y64822D02*
G03*
X43640Y65720I-1270J0D01*
G01*
X40574Y68786D02*
G03*
X39676Y69158I-898J-898D01*
G01*
X29534D02*
G03*
X28264Y67888I0J-1270D01*
G01*
Y54680D02*
G03*
X29534Y53410I1270J0D01*
G01*
X42742D02*
G03*
X44012Y54680I0J1270D01*
G01*
X94869Y64822D02*
G03*
X94497Y65720I-1270J0D01*
G01*
X91431Y68786D02*
G03*
X90533Y69158I-898J-898D01*
G01*
X80391D02*
G03*
X79121Y67888I0J-1270D01*
G01*
Y54680D02*
G03*
X80391Y53410I1270J0D01*
G01*
X93599D02*
G03*
X94869Y54680I0J1270D01*
G01*
X69412Y14022D02*
G03*
X69040Y14920I-1270J0D01*
G01*
X65974Y17986D02*
G03*
X65076Y18358I-898J-898D01*
G01*
X54934D02*
G03*
X53664Y17088I0J-1270D01*
G01*
Y3880D02*
G03*
X54934Y2610I1270J0D01*
G01*
X68142D02*
G03*
X69412Y3880I0J1270D01*
G01*
X69412Y64822D02*
G03*
X69040Y65720I-1270J0D01*
G01*
X65974Y68786D02*
G03*
X65076Y69158I-898J-898D01*
G01*
X54934D02*
G03*
X53664Y67888I0J-1270D01*
G01*
Y54680D02*
G03*
X54934Y53410I1270J0D01*
G01*
X68142D02*
G03*
X69412Y54680I0J1270D01*
G01*
X69412Y39422D02*
G03*
X69040Y40320I-1270J0D01*
G01*
X65974Y43386D02*
G03*
X65076Y43758I-898J-898D01*
G01*
X54934D02*
G03*
X53664Y42488I0J-1270D01*
G01*
Y29280D02*
G03*
X54934Y28010I1270J0D01*
G01*
X68142D02*
G03*
X69412Y29280I0J1270D01*
G01*
X94812Y14022D02*
G03*
X94440Y14920I-1270J0D01*
G01*
X91374Y17986D02*
G03*
X90476Y18358I-898J-898D01*
G01*
X80334D02*
G03*
X79064Y17088I0J-1270D01*
G01*
Y3880D02*
G03*
X80334Y2610I1270J0D01*
G01*
X93542D02*
G03*
X94812Y3880I0J1270D01*
G01*
X94812Y39422D02*
G03*
X94440Y40320I-1270J0D01*
G01*
X91374Y43386D02*
G03*
X90476Y43758I-898J-898D01*
G01*
X80334D02*
G03*
X79064Y42488I0J-1270D01*
G01*
Y29280D02*
G03*
X80334Y28010I1270J0D01*
G01*
X93542D02*
G03*
X94812Y29280I0J1270D01*
G01*
X18612Y14022D02*
G03*
X18240Y14920I-1270J0D01*
G01*
X15174Y17986D02*
G03*
X14276Y18358I-898J-898D01*
G01*
X4134D02*
G03*
X2864Y17088I0J-1270D01*
G01*
Y3880D02*
G03*
X4134Y2610I1270J0D01*
G01*
X17342D02*
G03*
X18612Y3880I0J1270D01*
G01*
X44012Y14022D02*
G03*
X43640Y14920I-1270J0D01*
G01*
X40574Y17986D02*
G03*
X39676Y18358I-898J-898D01*
G01*
X29534D02*
G03*
X28264Y17088I0J-1270D01*
G01*
Y3880D02*
G03*
X29534Y2610I1270J0D01*
G01*
X42742D02*
G03*
X44012Y3880I0J1270D01*
G01*
X44012Y39422D02*
G03*
X43640Y40320I-1270J0D01*
G01*
X40574Y43386D02*
G03*
X39676Y43758I-898J-898D01*
G01*
X29534D02*
G03*
X28264Y42488I0J-1270D01*
G01*
Y29280D02*
G03*
X29534Y28010I1270J0D01*
G01*
X42742D02*
G03*
X44012Y29280I0J1270D01*
G01*
X18612Y39422D02*
G03*
X18240Y40320I-1270J0D01*
G01*
X15174Y43386D02*
G03*
X14276Y43758I-898J-898D01*
G01*
X4134D02*
G03*
X2864Y42488I0J-1270D01*
G01*
Y29280D02*
G03*
X4134Y28010I1270J0D01*
G01*
X17342D02*
G03*
X18612Y29280I0J1270D01*
G01*
X44012Y54680D02*
Y64822D01*
X40574Y68786D02*
X43640Y65720D01*
X29534Y69158D02*
X39676D01*
X28264Y54680D02*
Y67888D01*
X29534Y53410D02*
X42742D01*
X94869Y54680D02*
Y64822D01*
X91431Y68786D02*
X94497Y65720D01*
X80391Y69158D02*
X90533D01*
X79121Y54680D02*
Y67888D01*
X80391Y53410D02*
X93599D01*
X69412Y3880D02*
Y14022D01*
X65974Y17986D02*
X69040Y14920D01*
X54934Y18358D02*
X65076D01*
X53664Y3880D02*
Y17088D01*
X54934Y2610D02*
X68142D01*
X69412Y54680D02*
Y64822D01*
X65974Y68786D02*
X69040Y65720D01*
X54934Y69158D02*
X65076D01*
X53664Y54680D02*
Y67888D01*
X54934Y53410D02*
X68142D01*
X69412Y29280D02*
Y39422D01*
X65974Y43386D02*
X69040Y40320D01*
X54934Y43758D02*
X65076D01*
X53664Y29280D02*
Y42488D01*
X54934Y28010D02*
X68142D01*
X94812Y3880D02*
Y14022D01*
X91374Y17986D02*
X94440Y14920D01*
X80334Y18358D02*
X90476D01*
X79064Y3880D02*
Y17088D01*
X80334Y2610D02*
X93542D01*
X94812Y29280D02*
Y39422D01*
X91374Y43386D02*
X94440Y40320D01*
X80334Y43758D02*
X90476D01*
X79064Y29280D02*
Y42488D01*
X80334Y28010D02*
X93542D01*
X18612Y3880D02*
Y14022D01*
X15174Y17986D02*
X18240Y14920D01*
X4134Y18358D02*
X14276D01*
X2864Y3880D02*
Y17088D01*
X4134Y2610D02*
X17342D01*
X44012Y3880D02*
Y14022D01*
X40574Y17986D02*
X43640Y14920D01*
X29534Y18358D02*
X39676D01*
X28264Y3880D02*
Y17088D01*
X29534Y2610D02*
X42742D01*
X44012Y29280D02*
Y39422D01*
X40574Y43386D02*
X43640Y40320D01*
X29534Y43758D02*
X39676D01*
X28264Y29280D02*
Y42488D01*
X29534Y28010D02*
X42742D01*
X18612Y29280D02*
Y39422D01*
X15174Y43386D02*
X18240Y40320D01*
X4134Y43758D02*
X14276D01*
X2864Y29280D02*
Y42488D01*
X4134Y28010D02*
X17342D01*
M02*
