G04*
G04 #@! TF.GenerationSoftware,Altium Limited,Altium Designer,20.0.2 (26)*
G04*
G04 Layer_Color=2752767*
%FSLAX43Y43*%
%MOMM*%
G71*
G01*
G75*
%ADD42C,0.051*%
%ADD43C,0.068*%
D42*
X2972Y123304D02*
Y123711D01*
X3378D01*
Y123304D01*
X2972D01*
Y128384D02*
Y128791D01*
X3378D01*
Y128384D01*
X2972D01*
Y133464D02*
Y133871D01*
X3378D01*
Y133464D01*
X2972D01*
X92189Y131559D02*
Y131966D01*
X92596D01*
Y131559D01*
X92189D01*
Y126479D02*
Y126886D01*
X92596D01*
Y126479D01*
X92189D01*
Y121399D02*
Y121806D01*
X92596D01*
Y121399D01*
X92189D01*
X90919Y72769D02*
Y73176D01*
X91326D01*
Y72769D01*
X90919D01*
Y77849D02*
Y78256D01*
X91326D01*
Y77849D01*
X90919D01*
Y82929D02*
Y83336D01*
X91326D01*
Y82929D01*
X90919D01*
Y88468D02*
Y88874D01*
X91326D01*
Y88468D01*
X90919D01*
Y93548D02*
Y93954D01*
X91326D01*
Y93548D01*
X90919D01*
Y98628D02*
Y99034D01*
X91326D01*
Y98628D01*
X90919D01*
X4559Y98539D02*
Y98946D01*
X4966D01*
Y98539D01*
X4559D01*
Y93459D02*
Y93866D01*
X4966D01*
Y93459D01*
X4559D01*
Y88379D02*
Y88786D01*
X4966D01*
Y88379D01*
X4559D01*
Y82664D02*
Y83071D01*
X4966D01*
Y82664D01*
X4559D01*
Y77584D02*
Y77991D01*
X4966D01*
Y77584D01*
X4559D01*
Y72504D02*
Y72911D01*
X4966D01*
Y72504D01*
X4559D01*
X36697Y54731D02*
X36493Y55137D01*
X36900D01*
X36697Y54731D01*
X29788Y61639D02*
X29585Y62046D01*
X29991D01*
X29788Y61639D01*
X33699Y67431D02*
X33496Y67837D01*
X33903D01*
X33699Y67431D01*
X40806Y65749D02*
X40603Y66156D01*
X41010D01*
X40806Y65749D01*
X42488Y58642D02*
X42285Y59049D01*
X42691D01*
X42488Y58642D01*
X87554Y54731D02*
X87351Y55137D01*
X87757D01*
X87554Y54731D01*
X80645Y61639D02*
X80442Y62046D01*
X80848D01*
X80645Y61639D01*
X84557Y67431D02*
X84353Y67837D01*
X84760D01*
X84557Y67431D01*
X91664Y65749D02*
X91460Y66156D01*
X91867D01*
X91664Y65749D01*
X93345Y58642D02*
X93142Y59049D01*
X93548D01*
X93345Y58642D01*
X62097Y3931D02*
X61893Y4337D01*
X62300D01*
X62097Y3931D01*
X55188Y10839D02*
X54985Y11246D01*
X55391D01*
X55188Y10839D01*
X59099Y16631D02*
X58896Y17037D01*
X59303D01*
X59099Y16631D01*
X66206Y14949D02*
X66003Y15356D01*
X66410D01*
X66206Y14949D01*
X67888Y7842D02*
X67685Y8249D01*
X68091D01*
X67888Y7842D01*
X62097Y54731D02*
X61893Y55137D01*
X62300D01*
X62097Y54731D01*
X55188Y61639D02*
X54985Y62046D01*
X55391D01*
X55188Y61639D01*
X59099Y67431D02*
X58896Y67837D01*
X59303D01*
X59099Y67431D01*
X66206Y65749D02*
X66003Y66156D01*
X66410D01*
X66206Y65749D01*
X67888Y58642D02*
X67685Y59049D01*
X68091D01*
X67888Y58642D01*
X62097Y29331D02*
X61893Y29737D01*
X62300D01*
X62097Y29331D01*
X55188Y36239D02*
X54985Y36646D01*
X55391D01*
X55188Y36239D01*
X59099Y42031D02*
X58896Y42437D01*
X59303D01*
X59099Y42031D01*
X66206Y40349D02*
X66003Y40756D01*
X66410D01*
X66206Y40349D01*
X67888Y33242D02*
X67685Y33649D01*
X68091D01*
X67888Y33242D01*
X87497Y3931D02*
X87293Y4337D01*
X87700D01*
X87497Y3931D01*
X80588Y10839D02*
X80385Y11246D01*
X80791D01*
X80588Y10839D01*
X84499Y16631D02*
X84296Y17037D01*
X84703D01*
X84499Y16631D01*
X91606Y14949D02*
X91403Y15356D01*
X91810D01*
X91606Y14949D01*
X93288Y7842D02*
X93085Y8249D01*
X93491D01*
X93288Y7842D01*
X87497Y29331D02*
X87293Y29737D01*
X87700D01*
X87497Y29331D01*
X80588Y36239D02*
X80385Y36646D01*
X80791D01*
X80588Y36239D01*
X84499Y42031D02*
X84296Y42437D01*
X84703D01*
X84499Y42031D01*
X91606Y40349D02*
X91403Y40756D01*
X91810D01*
X91606Y40349D01*
X93288Y33242D02*
X93085Y33649D01*
X93491D01*
X93288Y33242D01*
X11297Y3931D02*
X11093Y4337D01*
X11500D01*
X11297Y3931D01*
X4388Y10839D02*
X4185Y11246D01*
X4591D01*
X4388Y10839D01*
X8299Y16631D02*
X8096Y17037D01*
X8503D01*
X8299Y16631D01*
X15406Y14949D02*
X15203Y15356D01*
X15610D01*
X15406Y14949D01*
X17088Y7842D02*
X16885Y8249D01*
X17291D01*
X17088Y7842D01*
X36697Y3931D02*
X36493Y4337D01*
X36900D01*
X36697Y3931D01*
X29788Y10839D02*
X29585Y11246D01*
X29991D01*
X29788Y10839D01*
X33699Y16631D02*
X33496Y17037D01*
X33903D01*
X33699Y16631D01*
X40806Y14949D02*
X40603Y15356D01*
X41010D01*
X40806Y14949D01*
X42488Y7842D02*
X42285Y8249D01*
X42691D01*
X42488Y7842D01*
X36697Y29331D02*
X36493Y29737D01*
X36900D01*
X36697Y29331D01*
X29788Y36239D02*
X29585Y36646D01*
X29991D01*
X29788Y36239D01*
X33699Y42031D02*
X33496Y42437D01*
X33903D01*
X33699Y42031D01*
X40806Y40349D02*
X40603Y40756D01*
X41010D01*
X40806Y40349D01*
X42488Y33242D02*
X42285Y33649D01*
X42691D01*
X42488Y33242D01*
X11297Y29331D02*
X11093Y29737D01*
X11500D01*
X11297Y29331D01*
X4388Y36239D02*
X4185Y36646D01*
X4591D01*
X4388Y36239D01*
X8299Y42031D02*
X8096Y42437D01*
X8503D01*
X8299Y42031D01*
X15406Y40349D02*
X15203Y40756D01*
X15610D01*
X15406Y40349D01*
X17088Y33242D02*
X16885Y33649D01*
X17291D01*
X17088Y33242D01*
X52070Y78802D02*
X52172Y78903D01*
X52273D01*
X52172Y79005D01*
X52273Y79107D01*
X52172D01*
X52070Y79208D01*
X51968Y79107D01*
X51867D01*
X51968Y79005D01*
X51867Y78903D01*
X51968D01*
X52070Y78802D01*
Y81342D02*
X52172Y81443D01*
X52273D01*
X52172Y81545D01*
X52273Y81647D01*
X52172D01*
X52070Y81748D01*
X51968Y81647D01*
X51867D01*
X51968Y81545D01*
X51867Y81443D01*
X51968D01*
X52070Y81342D01*
Y94042D02*
X52172Y94143D01*
X52273D01*
X52172Y94245D01*
X52273Y94347D01*
X52172D01*
X52070Y94448D01*
X51968Y94347D01*
X51867D01*
X51968Y94245D01*
X51867Y94143D01*
X51968D01*
X52070Y94042D01*
Y91502D02*
X52172Y91603D01*
X52273D01*
X52172Y91705D01*
X52273Y91807D01*
X52172D01*
X52070Y91908D01*
X51968Y91807D01*
X51867D01*
X51968Y91705D01*
X51867Y91603D01*
X51968D01*
X52070Y91502D01*
Y88962D02*
X52172Y89063D01*
X52273D01*
X52172Y89165D01*
X52273Y89267D01*
X52172D01*
X52070Y89368D01*
X51968Y89267D01*
X51867D01*
X51968Y89165D01*
X51867Y89063D01*
X51968D01*
X52070Y88962D01*
Y86422D02*
X52172Y86523D01*
X52273D01*
X52172Y86625D01*
X52273Y86727D01*
X52172D01*
X52070Y86828D01*
X51968Y86727D01*
X51867D01*
X51968Y86625D01*
X51867Y86523D01*
X51968D01*
X52070Y86422D01*
Y83882D02*
X52172Y83983D01*
X52273D01*
X52172Y84085D01*
X52273Y84187D01*
X52172D01*
X52070Y84288D01*
X51968Y84187D01*
X51867D01*
X51968Y84085D01*
X51867Y83983D01*
X51968D01*
X52070Y83882D01*
X44450Y94042D02*
X44552Y94143D01*
X44653D01*
X44552Y94245D01*
X44653Y94347D01*
X44552D01*
X44450Y94448D01*
X44348Y94347D01*
X44247D01*
X44348Y94245D01*
X44247Y94143D01*
X44348D01*
X44450Y94042D01*
Y91502D02*
X44552Y91603D01*
X44653D01*
X44552Y91705D01*
X44653Y91807D01*
X44552D01*
X44450Y91908D01*
X44348Y91807D01*
X44247D01*
X44348Y91705D01*
X44247Y91603D01*
X44348D01*
X44450Y91502D01*
Y88962D02*
X44552Y89063D01*
X44653D01*
X44552Y89165D01*
X44653Y89267D01*
X44552D01*
X44450Y89368D01*
X44348Y89267D01*
X44247D01*
X44348Y89165D01*
X44247Y89063D01*
X44348D01*
X44450Y88962D01*
Y86422D02*
X44552Y86523D01*
X44653D01*
X44552Y86625D01*
X44653Y86727D01*
X44552D01*
X44450Y86828D01*
X44348Y86727D01*
X44247D01*
X44348Y86625D01*
X44247Y86523D01*
X44348D01*
X44450Y86422D01*
Y83882D02*
X44552Y83983D01*
X44653D01*
X44552Y84085D01*
X44653Y84187D01*
X44552D01*
X44450Y84288D01*
X44348Y84187D01*
X44247D01*
X44348Y84085D01*
X44247Y83983D01*
X44348D01*
X44450Y83882D01*
Y81342D02*
X44552Y81443D01*
X44653D01*
X44552Y81545D01*
X44653Y81647D01*
X44552D01*
X44450Y81748D01*
X44348Y81647D01*
X44247D01*
X44348Y81545D01*
X44247Y81443D01*
X44348D01*
X44450Y81342D01*
Y78802D02*
X44552Y78903D01*
X44653D01*
X44552Y79005D01*
X44653Y79107D01*
X44552D01*
X44450Y79208D01*
X44348Y79107D01*
X44247D01*
X44348Y79005D01*
X44247Y78903D01*
X44348D01*
X44450Y78802D01*
X32817Y127697D02*
X32918Y127900D01*
X32817Y128103D01*
X33020Y128002D01*
X33223Y128103D01*
X33122Y127900D01*
X33223Y127697D01*
X33020Y127798D01*
X32817Y127697D01*
X42977D02*
X43078Y127900D01*
X42977Y128103D01*
X43180Y128002D01*
X43383Y128103D01*
X43282Y127900D01*
X43383Y127697D01*
X43180Y127798D01*
X42977Y127697D01*
X39108Y154521D02*
Y154419D01*
X39312D01*
Y154521D01*
X39413D01*
Y154724D01*
X39312D01*
Y154826D01*
X39108D01*
Y154724D01*
X39007D01*
Y154521D01*
X39108D01*
Y157061D02*
Y156959D01*
X39312D01*
Y157061D01*
X39413D01*
Y157264D01*
X39312D01*
Y157366D01*
X39108D01*
Y157264D01*
X39007D01*
Y157061D01*
X39108D01*
X41648Y154521D02*
Y154419D01*
X41852D01*
Y154521D01*
X41953D01*
Y154724D01*
X41852D01*
Y154826D01*
X41648D01*
Y154724D01*
X41547D01*
Y154521D01*
X41648D01*
Y157061D02*
Y156959D01*
X41852D01*
Y157061D01*
X41953D01*
Y157264D01*
X41852D01*
Y157366D01*
X41648D01*
Y157264D01*
X41547D01*
Y157061D01*
X41648D01*
X44188Y154521D02*
Y154419D01*
X44392D01*
Y154521D01*
X44493D01*
Y154724D01*
X44392D01*
Y154826D01*
X44188D01*
Y154724D01*
X44087D01*
Y154521D01*
X44188D01*
Y157061D02*
Y156959D01*
X44392D01*
Y157061D01*
X44493D01*
Y157264D01*
X44392D01*
Y157366D01*
X44188D01*
Y157264D01*
X44087D01*
Y157061D01*
X44188D01*
X46728Y154521D02*
Y154419D01*
X46932D01*
Y154521D01*
X47033D01*
Y154724D01*
X46932D01*
Y154826D01*
X46728D01*
Y154724D01*
X46627D01*
Y154521D01*
X46728D01*
Y157061D02*
Y156959D01*
X46932D01*
Y157061D01*
X47033D01*
Y157264D01*
X46932D01*
Y157366D01*
X46728D01*
Y157264D01*
X46627D01*
Y157061D01*
X46728D01*
X49268Y154521D02*
Y154419D01*
X49472D01*
Y154521D01*
X49573D01*
Y154724D01*
X49472D01*
Y154826D01*
X49268D01*
Y154724D01*
X49167D01*
Y154521D01*
X49268D01*
Y157061D02*
Y156959D01*
X49472D01*
Y157061D01*
X49573D01*
Y157264D01*
X49472D01*
Y157366D01*
X49268D01*
Y157264D01*
X49167D01*
Y157061D01*
X49268D01*
X51808Y154521D02*
Y154419D01*
X52012D01*
Y154521D01*
X52113D01*
Y154724D01*
X52012D01*
Y154826D01*
X51808D01*
Y154724D01*
X51707D01*
Y154521D01*
X51808D01*
Y157061D02*
Y156959D01*
X52012D01*
Y157061D01*
X52113D01*
Y157264D01*
X52012D01*
Y157366D01*
X51808D01*
Y157264D01*
X51707D01*
Y157061D01*
X51808D01*
X54348Y154521D02*
Y154419D01*
X54552D01*
Y154521D01*
X54653D01*
Y154724D01*
X54552D01*
Y154826D01*
X54348D01*
Y154724D01*
X54247D01*
Y154521D01*
X54348D01*
Y157061D02*
Y156959D01*
X54552D01*
Y157061D01*
X54653D01*
Y157264D01*
X54552D01*
Y157366D01*
X54348D01*
Y157264D01*
X54247D01*
Y157061D01*
X54348D01*
X56888Y154521D02*
Y154419D01*
X57092D01*
Y154521D01*
X57193D01*
Y154724D01*
X57092D01*
Y154826D01*
X56888D01*
Y154724D01*
X56787D01*
Y154521D01*
X56888D01*
Y157061D02*
Y156959D01*
X57092D01*
Y157061D01*
X57193D01*
Y157264D01*
X57092D01*
Y157366D01*
X56888D01*
Y157264D01*
X56787D01*
Y157061D01*
X56888D01*
X44247Y102932D02*
X44348Y103135D01*
X44247Y103338D01*
X44450Y103237D01*
X44653Y103338D01*
X44552Y103135D01*
X44653Y102932D01*
X44450Y103033D01*
X44247Y102932D01*
X54407D02*
X54508Y103135D01*
X54407Y103338D01*
X54610Y103237D01*
X54813Y103338D01*
X54712Y103135D01*
X54813Y102932D01*
X54610Y103033D01*
X54407Y102932D01*
X80124Y133094D02*
X80226Y133297D01*
X80124Y133501D01*
X80327Y133399D01*
X80531Y133501D01*
X80429Y133297D01*
X80531Y133094D01*
X80327Y133196D01*
X80124Y133094D01*
Y140714D02*
X80226Y140917D01*
X80124Y141121D01*
X80327Y141019D01*
X80531Y141121D01*
X80429Y140917D01*
X80531Y140714D01*
X80327Y140816D01*
X80124Y140714D01*
X28372Y157277D02*
X28473Y157480D01*
X28372Y157683D01*
X28575Y157582D01*
X28778Y157683D01*
X28677Y157480D01*
X28778Y157277D01*
X28575Y157378D01*
X28372Y157277D01*
X25832Y159817D02*
X25933Y160020D01*
X25832Y160223D01*
X26035Y160122D01*
X26238Y160223D01*
X26137Y160020D01*
X26238Y159817D01*
X26035Y159918D01*
X25832Y159817D01*
X23292Y157277D02*
X23393Y157480D01*
X23292Y157683D01*
X23495Y157582D01*
X23698Y157683D01*
X23597Y157480D01*
X23698Y157277D01*
X23495Y157378D01*
X23292Y157277D01*
X5080Y155054D02*
X5182Y155156D01*
X5283D01*
X5182Y155258D01*
X5283Y155359D01*
X5182D01*
X5080Y155461D01*
X4978Y155359D01*
X4877D01*
X4978Y155258D01*
X4877Y155156D01*
X4978D01*
X5080Y155054D01*
Y157594D02*
X5182Y157696D01*
X5283D01*
X5182Y157798D01*
X5283Y157899D01*
X5182D01*
X5080Y158001D01*
X4978Y157899D01*
X4877D01*
X4978Y157798D01*
X4877Y157696D01*
X4978D01*
X5080Y157594D01*
Y160134D02*
X5182Y160236D01*
X5283D01*
X5182Y160337D01*
X5283Y160439D01*
X5182D01*
X5080Y160541D01*
X4978Y160439D01*
X4877D01*
X4978Y160337D01*
X4877Y160236D01*
X4978D01*
X5080Y160134D01*
X55880Y145159D02*
X55982Y145261D01*
X56083D01*
X55982Y145363D01*
X56083Y145464D01*
X55982D01*
X55880Y145566D01*
X55778Y145464D01*
X55677D01*
X55778Y145363D01*
X55677Y145261D01*
X55778D01*
X55880Y145159D01*
Y142619D02*
X55982Y142721D01*
X56083D01*
X55982Y142823D01*
X56083Y142924D01*
X55982D01*
X55880Y143026D01*
X55778Y142924D01*
X55677D01*
X55778Y142823D01*
X55677Y142721D01*
X55778D01*
X55880Y142619D01*
Y140079D02*
X55982Y140181D01*
X56083D01*
X55982Y140283D01*
X56083Y140384D01*
X55982D01*
X55880Y140486D01*
X55778Y140384D01*
X55677D01*
X55778Y140283D01*
X55677Y140181D01*
X55778D01*
X55880Y140079D01*
Y137539D02*
X55982Y137641D01*
X56083D01*
X55982Y137743D01*
X56083Y137844D01*
X55982D01*
X55880Y137946D01*
X55778Y137844D01*
X55677D01*
X55778Y137743D01*
X55677Y137641D01*
X55778D01*
X55880Y137539D01*
Y134999D02*
X55982Y135101D01*
X56083D01*
X55982Y135203D01*
X56083Y135304D01*
X55982D01*
X55880Y135406D01*
X55778Y135304D01*
X55677D01*
X55778Y135203D01*
X55677Y135101D01*
X55778D01*
X55880Y134999D01*
Y132459D02*
X55982Y132561D01*
X56083D01*
X55982Y132663D01*
X56083Y132764D01*
X55982D01*
X55880Y132866D01*
X55778Y132764D01*
X55677D01*
X55778Y132663D01*
X55677Y132561D01*
X55778D01*
X55880Y132459D01*
Y129919D02*
X55982Y130021D01*
X56083D01*
X55982Y130123D01*
X56083Y130224D01*
X55982D01*
X55880Y130326D01*
X55778Y130224D01*
X55677D01*
X55778Y130123D01*
X55677Y130021D01*
X55778D01*
X55880Y129919D01*
Y127379D02*
X55982Y127481D01*
X56083D01*
X55982Y127583D01*
X56083Y127684D01*
X55982D01*
X55880Y127786D01*
X55778Y127684D01*
X55677D01*
X55778Y127583D01*
X55677Y127481D01*
X55778D01*
X55880Y127379D01*
X48260D02*
X48362Y127481D01*
X48463D01*
X48362Y127583D01*
X48463Y127684D01*
X48362D01*
X48260Y127786D01*
X48158Y127684D01*
X48057D01*
X48158Y127583D01*
X48057Y127481D01*
X48158D01*
X48260Y127379D01*
Y129919D02*
X48362Y130021D01*
X48463D01*
X48362Y130123D01*
X48463Y130224D01*
X48362D01*
X48260Y130326D01*
X48158Y130224D01*
X48057D01*
X48158Y130123D01*
X48057Y130021D01*
X48158D01*
X48260Y129919D01*
Y132459D02*
X48362Y132561D01*
X48463D01*
X48362Y132663D01*
X48463Y132764D01*
X48362D01*
X48260Y132866D01*
X48158Y132764D01*
X48057D01*
X48158Y132663D01*
X48057Y132561D01*
X48158D01*
X48260Y132459D01*
Y134999D02*
X48362Y135101D01*
X48463D01*
X48362Y135203D01*
X48463Y135304D01*
X48362D01*
X48260Y135406D01*
X48158Y135304D01*
X48057D01*
X48158Y135203D01*
X48057Y135101D01*
X48158D01*
X48260Y134999D01*
Y137539D02*
X48362Y137641D01*
X48463D01*
X48362Y137743D01*
X48463Y137844D01*
X48362D01*
X48260Y137946D01*
X48158Y137844D01*
X48057D01*
X48158Y137743D01*
X48057Y137641D01*
X48158D01*
X48260Y137539D01*
Y140079D02*
X48362Y140181D01*
X48463D01*
X48362Y140283D01*
X48463Y140384D01*
X48362D01*
X48260Y140486D01*
X48158Y140384D01*
X48057D01*
X48158Y140283D01*
X48057Y140181D01*
X48158D01*
X48260Y140079D01*
Y142619D02*
X48362Y142721D01*
X48463D01*
X48362Y142823D01*
X48463Y142924D01*
X48362D01*
X48260Y143026D01*
X48158Y142924D01*
X48057D01*
X48158Y142823D01*
X48057Y142721D01*
X48158D01*
X48260Y142619D01*
Y145159D02*
X48362Y145261D01*
X48463D01*
X48362Y145363D01*
X48463Y145464D01*
X48362D01*
X48260Y145566D01*
X48158Y145464D01*
X48057D01*
X48158Y145363D01*
X48057Y145261D01*
X48158D01*
X48260Y145159D01*
X28054Y121347D02*
X28156Y121550D01*
X28054Y121753D01*
X28257Y121652D01*
X28461Y121753D01*
X28359Y121550D01*
X28461Y121347D01*
X28257Y121448D01*
X28054Y121347D01*
X17894D02*
X17996Y121550D01*
X17894Y121753D01*
X18097Y121652D01*
X18301Y121753D01*
X18199Y121550D01*
X18301Y121347D01*
X18097Y121448D01*
X17894Y121347D01*
X19482Y93724D02*
X19583Y93928D01*
X19482Y94131D01*
X19685Y94029D01*
X19888Y94131D01*
X19787Y93928D01*
X19888Y93724D01*
X19685Y93826D01*
X19482Y93724D01*
X11862D02*
X11963Y93928D01*
X11862Y94131D01*
X12065Y94029D01*
X12268Y94131D01*
X12167Y93928D01*
X12268Y93724D01*
X12065Y93826D01*
X11862Y93724D01*
X12700Y158229D02*
X12802Y158331D01*
X12903D01*
X12802Y158432D01*
X12903Y158534D01*
X12802D01*
X12700Y158636D01*
X12598Y158534D01*
X12497D01*
X12598Y158432D01*
X12497Y158331D01*
X12598D01*
X12700Y158229D01*
X15240D02*
X15342Y158331D01*
X15443D01*
X15342Y158432D01*
X15443Y158534D01*
X15342D01*
X15240Y158636D01*
X15138Y158534D01*
X15037D01*
X15138Y158432D01*
X15037Y158331D01*
X15138D01*
X15240Y158229D01*
X17780D02*
X17882Y158331D01*
X17983D01*
X17882Y158432D01*
X17983Y158534D01*
X17882D01*
X17780Y158636D01*
X17678Y158534D01*
X17577D01*
X17678Y158432D01*
X17577Y158331D01*
X17678D01*
X17780Y158229D01*
X32499Y145159D02*
X32601Y145363D01*
X32499Y145566D01*
X32702Y145464D01*
X32906Y145566D01*
X32804Y145363D01*
X32906Y145159D01*
X32702Y145261D01*
X32499Y145159D01*
X42659D02*
X42761Y145363D01*
X42659Y145566D01*
X42862Y145464D01*
X43066Y145566D01*
X42964Y145363D01*
X43066Y145159D01*
X42862Y145261D01*
X42659Y145159D01*
X32499Y142302D02*
X32601Y142505D01*
X32499Y142708D01*
X32702Y142607D01*
X32906Y142708D01*
X32804Y142505D01*
X32906Y142302D01*
X32702Y142403D01*
X32499Y142302D01*
X42659D02*
X42761Y142505D01*
X42659Y142708D01*
X42862Y142607D01*
X43066Y142708D01*
X42964Y142505D01*
X43066Y142302D01*
X42862Y142403D01*
X42659Y142302D01*
X32499Y148017D02*
X32601Y148220D01*
X32499Y148423D01*
X32702Y148322D01*
X32906Y148423D01*
X32804Y148220D01*
X32906Y148017D01*
X32702Y148118D01*
X32499Y148017D01*
X42659D02*
X42761Y148220D01*
X42659Y148423D01*
X42862Y148322D01*
X43066Y148423D01*
X42964Y148220D01*
X43066Y148017D01*
X42862Y148118D01*
X42659Y148017D01*
X32499Y133412D02*
X32601Y133615D01*
X32499Y133818D01*
X32702Y133717D01*
X32906Y133818D01*
X32804Y133615D01*
X32906Y133412D01*
X32702Y133513D01*
X32499Y133412D01*
X42659D02*
X42761Y133615D01*
X42659Y133818D01*
X42862Y133717D01*
X43066Y133818D01*
X42964Y133615D01*
X43066Y133412D01*
X42862Y133513D01*
X42659Y133412D01*
X32499Y139127D02*
X32601Y139330D01*
X32499Y139533D01*
X32702Y139432D01*
X32906Y139533D01*
X32804Y139330D01*
X32906Y139127D01*
X32702Y139228D01*
X32499Y139127D01*
X42659D02*
X42761Y139330D01*
X42659Y139533D01*
X42862Y139432D01*
X43066Y139533D01*
X42964Y139330D01*
X43066Y139127D01*
X42862Y139228D01*
X42659Y139127D01*
X32499Y136269D02*
X32601Y136473D01*
X32499Y136676D01*
X32702Y136574D01*
X32906Y136676D01*
X32804Y136473D01*
X32906Y136269D01*
X32702Y136371D01*
X32499Y136269D01*
X42659D02*
X42761Y136473D01*
X42659Y136676D01*
X42862Y136574D01*
X43066Y136676D01*
X42964Y136473D01*
X43066Y136269D01*
X42862Y136371D01*
X42659Y136269D01*
X62662Y142619D02*
X62763Y142823D01*
X62662Y143026D01*
X62865Y142924D01*
X63068Y143026D01*
X62967Y142823D01*
X63068Y142619D01*
X62865Y142721D01*
X62662Y142619D01*
X72822D02*
X72923Y142823D01*
X72822Y143026D01*
X73025Y142924D01*
X73228Y143026D01*
X73127Y142823D01*
X73228Y142619D01*
X73025Y142721D01*
X72822Y142619D01*
X62662Y139444D02*
X62763Y139648D01*
X62662Y139851D01*
X62865Y139749D01*
X63068Y139851D01*
X62967Y139648D01*
X63068Y139444D01*
X62865Y139546D01*
X62662Y139444D01*
X72822D02*
X72923Y139648D01*
X72822Y139851D01*
X73025Y139749D01*
X73228Y139851D01*
X73127Y139648D01*
X73228Y139444D01*
X73025Y139546D01*
X72822Y139444D01*
X64567Y118859D02*
X64668Y119063D01*
X64567Y119266D01*
X64770Y119164D01*
X64973Y119266D01*
X64872Y119063D01*
X64973Y118859D01*
X64770Y118961D01*
X64567Y118859D01*
X72187D02*
X72288Y119063D01*
X72187Y119266D01*
X72390Y119164D01*
X72593Y119266D01*
X72492Y119063D01*
X72593Y118859D01*
X72390Y118961D01*
X72187Y118859D01*
X62662Y136269D02*
X62763Y136473D01*
X62662Y136676D01*
X62865Y136574D01*
X63068Y136676D01*
X62967Y136473D01*
X63068Y136269D01*
X62865Y136371D01*
X62662Y136269D01*
X72822D02*
X72923Y136473D01*
X72822Y136676D01*
X73025Y136574D01*
X73228Y136676D01*
X73127Y136473D01*
X73228Y136269D01*
X73025Y136371D01*
X72822Y136269D01*
X64567Y133094D02*
X64668Y133298D01*
X64567Y133501D01*
X64770Y133399D01*
X64973Y133501D01*
X64872Y133298D01*
X64973Y133094D01*
X64770Y133196D01*
X64567Y133094D01*
X72187D02*
X72288Y133298D01*
X72187Y133501D01*
X72390Y133399D01*
X72593Y133501D01*
X72492Y133298D01*
X72593Y133094D01*
X72390Y133196D01*
X72187Y133094D01*
X60439Y82929D02*
X60541Y83133D01*
X60439Y83336D01*
X60642Y83234D01*
X60846Y83336D01*
X60744Y83133D01*
X60846Y82929D01*
X60642Y83031D01*
X60439Y82929D01*
Y72769D02*
X60541Y72973D01*
X60439Y73176D01*
X60642Y73074D01*
X60846Y73176D01*
X60744Y72973D01*
X60846Y72769D01*
X60642Y72871D01*
X60439Y72769D01*
X63614Y82929D02*
X63716Y83133D01*
X63614Y83336D01*
X63817Y83234D01*
X64021Y83336D01*
X63919Y83133D01*
X64021Y82929D01*
X63817Y83031D01*
X63614Y82929D01*
Y72769D02*
X63716Y72973D01*
X63614Y73176D01*
X63817Y73074D01*
X64021Y73176D01*
X63919Y72973D01*
X64021Y72769D01*
X63817Y72871D01*
X63614Y72769D01*
X57264Y82929D02*
X57366Y83132D01*
X57264Y83336D01*
X57467Y83234D01*
X57671Y83336D01*
X57569Y83132D01*
X57671Y82929D01*
X57467Y83031D01*
X57264Y82929D01*
Y72769D02*
X57366Y72972D01*
X57264Y73176D01*
X57467Y73074D01*
X57671Y73176D01*
X57569Y72972D01*
X57671Y72769D01*
X57467Y72871D01*
X57264Y72769D01*
X28689Y84517D02*
X28791Y84720D01*
X28689Y84923D01*
X28892Y84822D01*
X29096Y84923D01*
X28994Y84720D01*
X29096Y84517D01*
X28892Y84618D01*
X28689Y84517D01*
X38849D02*
X38951Y84720D01*
X38849Y84923D01*
X39052Y84822D01*
X39256Y84923D01*
X39154Y84720D01*
X39256Y84517D01*
X39052Y84618D01*
X38849Y84517D01*
X28689Y81342D02*
X28791Y81545D01*
X28689Y81748D01*
X28892Y81647D01*
X29096Y81748D01*
X28994Y81545D01*
X29096Y81342D01*
X28892Y81443D01*
X28689Y81342D01*
X38849D02*
X38951Y81545D01*
X38849Y81748D01*
X39052Y81647D01*
X39256Y81748D01*
X39154Y81545D01*
X39256Y81342D01*
X39052Y81443D01*
X38849Y81342D01*
X62662Y91502D02*
X62763Y91705D01*
X62662Y91908D01*
X62865Y91807D01*
X63068Y91908D01*
X62967Y91705D01*
X63068Y91502D01*
X62865Y91603D01*
X62662Y91502D01*
Y101662D02*
X62763Y101865D01*
X62662Y102068D01*
X62865Y101967D01*
X63068Y102068D01*
X62967Y101865D01*
X63068Y101662D01*
X62865Y101763D01*
X62662Y101662D01*
X59487D02*
X59588Y101865D01*
X59487Y102068D01*
X59690Y101967D01*
X59893Y102068D01*
X59792Y101865D01*
X59893Y101662D01*
X59690Y101763D01*
X59487Y101662D01*
Y91502D02*
X59588Y91705D01*
X59487Y91908D01*
X59690Y91807D01*
X59893Y91908D01*
X59792Y91705D01*
X59893Y91502D01*
X59690Y91603D01*
X59487Y91502D01*
X66789Y82929D02*
X66891Y83133D01*
X66789Y83336D01*
X66992Y83234D01*
X67196Y83336D01*
X67094Y83133D01*
X67196Y82929D01*
X66992Y83031D01*
X66789Y82929D01*
Y72769D02*
X66891Y72973D01*
X66789Y73176D01*
X66992Y73074D01*
X67196Y73176D01*
X67094Y72973D01*
X67196Y72769D01*
X66992Y72871D01*
X66789Y72769D01*
X38849Y87692D02*
X38951Y87895D01*
X38849Y88098D01*
X39052Y87997D01*
X39256Y88098D01*
X39154Y87895D01*
X39256Y87692D01*
X39052Y87793D01*
X38849Y87692D01*
X28689D02*
X28791Y87895D01*
X28689Y88098D01*
X28892Y87997D01*
X29096Y88098D01*
X28994Y87895D01*
X29096Y87692D01*
X28892Y87793D01*
X28689Y87692D01*
X32817Y124839D02*
X32918Y125043D01*
X32817Y125246D01*
X33020Y125144D01*
X33223Y125246D01*
X33122Y125043D01*
X33223Y124839D01*
X33020Y124941D01*
X32817Y124839D01*
X42977D02*
X43078Y125043D01*
X42977Y125246D01*
X43180Y125144D01*
X43383Y125246D01*
X43282Y125043D01*
X43383Y124839D01*
X43180Y124941D01*
X42977Y124839D01*
X26467Y124522D02*
X26568Y124725D01*
X26467Y124928D01*
X26670Y124827D01*
X26873Y124928D01*
X26772Y124725D01*
X26873Y124522D01*
X26670Y124623D01*
X26467Y124522D01*
X18847D02*
X18948Y124725D01*
X18847Y124928D01*
X19050Y124827D01*
X19253Y124928D01*
X19152Y124725D01*
X19253Y124522D01*
X19050Y124623D01*
X18847Y124522D01*
X38849Y90867D02*
X38951Y91070D01*
X38849Y91273D01*
X39052Y91172D01*
X39256Y91273D01*
X39154Y91070D01*
X39256Y90867D01*
X39052Y90968D01*
X38849Y90867D01*
X28689D02*
X28791Y91070D01*
X28689Y91273D01*
X28892Y91172D01*
X29096Y91273D01*
X28994Y91070D01*
X29096Y90867D01*
X28892Y90968D01*
X28689Y90867D01*
X38849Y94042D02*
X38951Y94245D01*
X38849Y94448D01*
X39052Y94347D01*
X39256Y94448D01*
X39154Y94245D01*
X39256Y94042D01*
X39052Y94143D01*
X38849Y94042D01*
X28689D02*
X28791Y94245D01*
X28689Y94448D01*
X28892Y94347D01*
X29096Y94448D01*
X28994Y94245D01*
X29096Y94042D01*
X28892Y94143D01*
X28689Y94042D01*
X65837Y101662D02*
X65938Y101865D01*
X65837Y102068D01*
X66040Y101967D01*
X66243Y102068D01*
X66142Y101865D01*
X66243Y101662D01*
X66040Y101763D01*
X65837Y101662D01*
Y91502D02*
X65938Y91705D01*
X65837Y91908D01*
X66040Y91807D01*
X66243Y91908D01*
X66142Y91705D01*
X66243Y91502D01*
X66040Y91603D01*
X65837Y91502D01*
X72187Y129019D02*
X72288Y129223D01*
X72187Y129426D01*
X72390Y129324D01*
X72593Y129426D01*
X72492Y129223D01*
X72593Y129019D01*
X72390Y129121D01*
X72187Y129019D01*
X64567D02*
X64668Y129223D01*
X64567Y129426D01*
X64770Y129324D01*
X64973Y129426D01*
X64872Y129223D01*
X64973Y129019D01*
X64770Y129121D01*
X64567Y129019D01*
X54407Y106107D02*
X54508Y106310D01*
X54407Y106513D01*
X54610Y106412D01*
X54813Y106513D01*
X54712Y106310D01*
X54813Y106107D01*
X54610Y106208D01*
X54407Y106107D01*
X44247D02*
X44348Y106310D01*
X44247Y106513D01*
X44450Y106412D01*
X44653Y106513D01*
X44552Y106310D01*
X44653Y106107D01*
X44450Y106208D01*
X44247Y106107D01*
X32499Y130554D02*
X32601Y130758D01*
X32499Y130961D01*
X32702Y130859D01*
X32906Y130961D01*
X32804Y130758D01*
X32906Y130554D01*
X32702Y130656D01*
X32499Y130554D01*
X42659D02*
X42761Y130758D01*
X42659Y130961D01*
X42862Y130859D01*
X43066Y130961D01*
X42964Y130758D01*
X43066Y130554D01*
X42862Y130656D01*
X42659Y130554D01*
X18847Y127697D02*
X18948Y127900D01*
X18847Y128103D01*
X19050Y128002D01*
X19253Y128103D01*
X19152Y127900D01*
X19253Y127697D01*
X19050Y127798D01*
X18847Y127697D01*
X26467D02*
X26568Y127900D01*
X26467Y128103D01*
X26670Y128002D01*
X26873Y128103D01*
X26772Y127900D01*
X26873Y127697D01*
X26670Y127798D01*
X26467Y127697D01*
X72822Y145477D02*
X72923Y145680D01*
X72822Y145883D01*
X73025Y145782D01*
X73228Y145883D01*
X73127Y145680D01*
X73228Y145477D01*
X73025Y145578D01*
X72822Y145477D01*
X62662D02*
X62763Y145680D01*
X62662Y145883D01*
X62865Y145782D01*
X63068Y145883D01*
X62967Y145680D01*
X63068Y145477D01*
X62865Y145578D01*
X62662Y145477D01*
Y148334D02*
X62763Y148538D01*
X62662Y148741D01*
X62865Y148639D01*
X63068Y148741D01*
X62967Y148538D01*
X63068Y148334D01*
X62865Y148436D01*
X62662Y148334D01*
X72822D02*
X72923Y148538D01*
X72822Y148741D01*
X73025Y148639D01*
X73228Y148741D01*
X73127Y148538D01*
X73228Y148334D01*
X73025Y148436D01*
X72822Y148334D01*
X76314Y78854D02*
X76416D01*
X76518Y78956D01*
X76619Y78854D01*
X76721D01*
Y78956D01*
X76619Y79058D01*
X76721Y79159D01*
Y79261D01*
X76619D01*
X76518Y79159D01*
X76416Y79261D01*
X76314D01*
Y79159D01*
X76416Y79058D01*
X76314Y78956D01*
Y78854D01*
X28509Y97132D02*
X28610D01*
X28712Y97234D01*
X28813Y97132D01*
X28915D01*
Y97234D01*
X28813Y97336D01*
X28915Y97437D01*
Y97539D01*
X28813D01*
X28712Y97437D01*
X28610Y97539D01*
X28509D01*
Y97437D01*
X28610Y97336D01*
X28509Y97234D01*
Y97132D01*
X47574Y65298D02*
X47777Y65502D01*
X47980Y65298D01*
X47777Y65095D01*
X47574Y65298D01*
X35992Y106363D02*
X36195Y106566D01*
X36398Y106363D01*
X36195Y106159D01*
X35992Y106363D01*
X82029Y82868D02*
X82232Y83071D01*
X82436Y82868D01*
X82232Y82664D01*
X82029Y82868D01*
X76949Y65723D02*
X77152Y65926D01*
X77356Y65723D01*
X77152Y65519D01*
X76949Y65723D01*
X49644Y61595D02*
X49847Y61798D01*
X50051Y61595D01*
X49847Y61392D01*
X49644Y61595D01*
X69964Y50165D02*
X70168Y50368D01*
X70371Y50165D01*
X70168Y49962D01*
X69964Y50165D01*
X35674Y97420D02*
X35877Y97623D01*
X36081Y97420D01*
X35877Y97217D01*
X35674Y97420D01*
X34087Y92075D02*
X34290Y92278D01*
X34493Y92075D01*
X34290Y91872D01*
X34087Y92075D01*
X20434Y61912D02*
X20638Y62116D01*
X20841Y61912D01*
X20638Y61709D01*
X20434Y61912D01*
X63614Y49530D02*
X63818Y49733D01*
X64021Y49530D01*
X63818Y49327D01*
X63614Y49530D01*
X57264Y53658D02*
X57467Y53861D01*
X57671Y53658D01*
X57467Y53454D01*
X57264Y53658D01*
X74727Y75565D02*
X74930Y75768D01*
X75133Y75565D01*
X74930Y75362D01*
X74727Y75565D01*
Y87312D02*
X74930Y87516D01*
X75133Y87312D01*
X74930Y87109D01*
X74727Y87312D01*
X49644Y71120D02*
X49847Y71323D01*
X50051Y71120D01*
X49847Y70917D01*
X49644Y71120D01*
X70917Y113030D02*
X71120Y113233D01*
X71323Y113030D01*
X71120Y112827D01*
X70917Y113030D01*
X49009Y115253D02*
X49213Y115456D01*
X49416Y115253D01*
X49213Y115049D01*
X49009Y115253D01*
X32499Y93293D02*
X32702Y93496D01*
X32906Y93293D01*
X32702Y93089D01*
X32499Y93293D01*
X69647Y80707D02*
X69748D01*
X69850Y80808D01*
X69952Y80707D01*
X70053D01*
Y80808D01*
X69952Y80910D01*
X70053Y81012D01*
Y81113D01*
X69952D01*
X69850Y81012D01*
X69748Y81113D01*
X69647D01*
Y81012D01*
X69748Y80910D01*
X69647Y80808D01*
Y80707D01*
D43*
X36341Y61284D02*
G03*
X36341Y61284I-203J0D01*
G01*
X87198D02*
G03*
X87198Y61284I-203J0D01*
G01*
X61741Y10484D02*
G03*
X61741Y10484I-203J0D01*
G01*
Y61284D02*
G03*
X61741Y61284I-203J0D01*
G01*
Y35884D02*
G03*
X61741Y35884I-203J0D01*
G01*
X87141Y10484D02*
G03*
X87141Y10484I-203J0D01*
G01*
Y35884D02*
G03*
X87141Y35884I-203J0D01*
G01*
X10941Y10484D02*
G03*
X10941Y10484I-203J0D01*
G01*
X36341D02*
G03*
X36341Y10484I-203J0D01*
G01*
Y35884D02*
G03*
X36341Y35884I-203J0D01*
G01*
X10941D02*
G03*
X10941Y35884I-203J0D01*
G01*
M02*
