G04*
G04 #@! TF.GenerationSoftware,Altium Limited,Altium Designer,20.0.2 (26)*
G04*
G04 Layer_Color=65535*
%FSLAX43Y43*%
%MOMM*%
G71*
G01*
G75*
%ADD10C,0.508*%
%ADD11C,0.254*%
%ADD12C,0.127*%
%ADD13C,0.200*%
%ADD14C,0.150*%
%ADD15C,0.203*%
D10*
X43434Y95515D02*
G03*
X43434Y95515I-254J0D01*
G01*
X47244Y146633D02*
G03*
X47244Y146633I-254J0D01*
G01*
D11*
X47498Y95261D02*
G03*
X49022Y95261I762J0D01*
G01*
X51308Y146378D02*
G03*
X52832Y146378I762J0D01*
G01*
X44958Y77989D02*
X51562D01*
X44958Y82561D02*
Y83069D01*
Y80021D02*
Y80529D01*
Y87641D02*
Y88149D01*
Y85101D02*
Y85609D01*
Y92721D02*
Y93229D01*
Y90181D02*
Y90689D01*
X51562Y82561D02*
Y83069D01*
Y80021D02*
Y80529D01*
Y87641D02*
Y88149D01*
Y85101D02*
Y85609D01*
Y90181D02*
Y90689D01*
Y92721D02*
Y93229D01*
X49022Y95261D02*
X51562D01*
X44958D02*
X47498D01*
X39560Y126757D02*
Y129043D01*
X39306Y126757D02*
Y129043D01*
X39052Y126757D02*
Y129043D01*
X35560Y126757D02*
X40640D01*
X35560D02*
Y129043D01*
X40640Y126757D02*
Y129043D01*
X35560D02*
X40640D01*
X49629Y100178D02*
X49662Y101044D01*
X49847Y99960D02*
Y101230D01*
X47942Y100595D02*
X51117D01*
X49212D02*
X49847Y99960D01*
X49212Y100595D02*
X49847Y101230D01*
X49212Y99960D02*
Y101230D01*
X46990Y104405D02*
X52070D01*
Y101865D02*
Y104405D01*
X46990Y101865D02*
Y104405D01*
Y101865D02*
X52070D01*
X47942D02*
Y104405D01*
Y101865D02*
Y104405D01*
X48196Y101865D02*
Y104405D01*
X48450Y101865D02*
Y104405D01*
X48704Y101865D02*
Y104405D01*
X52070Y103135D02*
X52387D01*
X46672D02*
X46990D01*
X48768Y146379D02*
X51308D01*
X52832D02*
X55372D01*
X48768Y126567D02*
X55372D01*
Y143839D02*
Y144347D01*
Y141299D02*
Y141807D01*
Y136219D02*
Y136727D01*
Y138759D02*
Y139267D01*
Y131139D02*
Y131647D01*
Y133679D02*
Y134187D01*
X48768Y141299D02*
Y141807D01*
Y143839D02*
Y144347D01*
Y136219D02*
Y136727D01*
Y138759D02*
Y139267D01*
Y131139D02*
Y131647D01*
Y133679D02*
Y134187D01*
Y128599D02*
Y129107D01*
X55372Y128599D02*
Y129107D01*
X20077Y120400D02*
X26277D01*
X20077D02*
Y122700D01*
X26277Y120400D02*
Y122700D01*
X20077D02*
X26277D01*
X34682Y146513D02*
X40882D01*
Y144213D02*
Y146513D01*
X34682Y144213D02*
Y146513D01*
Y144213D02*
X40882D01*
X34682Y143655D02*
X40882D01*
Y141355D02*
Y143655D01*
X34682Y141355D02*
Y143655D01*
Y141355D02*
X40882D01*
X34682Y149370D02*
X40882D01*
Y147070D02*
Y149370D01*
X34682Y147070D02*
Y149370D01*
Y147070D02*
X40882D01*
X34682Y134765D02*
X40882D01*
Y132465D02*
Y134765D01*
X34682Y132465D02*
Y134765D01*
Y132465D02*
X40882D01*
X34682Y140480D02*
X40882D01*
Y138180D02*
Y140480D01*
X34682Y138180D02*
Y140480D01*
Y138180D02*
X40882D01*
X34682Y137623D02*
X40882D01*
Y135323D02*
Y137623D01*
X34682Y135323D02*
Y137623D01*
Y135323D02*
X40882D01*
X64845Y143973D02*
X71045D01*
Y141673D02*
Y143973D01*
X64845Y141673D02*
Y143973D01*
Y141673D02*
X71045D01*
X64845Y140798D02*
X71045D01*
Y138498D02*
Y140798D01*
X64845Y138498D02*
Y140798D01*
Y138498D02*
X71045D01*
X64845Y137623D02*
X71045D01*
Y135323D02*
Y137623D01*
X64845Y135323D02*
Y137623D01*
Y135323D02*
X71045D01*
X61792Y74952D02*
Y81153D01*
X59492Y74952D02*
X61792D01*
X59492Y81153D02*
X61792D01*
X59492Y74952D02*
Y81153D01*
X64967Y74952D02*
Y81153D01*
X62667Y74952D02*
X64967D01*
X62667Y81153D02*
X64967D01*
X62667Y74952D02*
Y81153D01*
X58617Y74952D02*
Y81152D01*
X56317Y74952D02*
X58617D01*
X56317Y81152D02*
X58617D01*
X56317Y74952D02*
Y81152D01*
X30872Y85870D02*
X37072D01*
Y83570D02*
Y85870D01*
X30872Y83570D02*
Y85870D01*
Y83570D02*
X37072D01*
X30872Y82695D02*
X37072D01*
Y80395D02*
Y82695D01*
X30872Y80395D02*
Y82695D01*
Y80395D02*
X37072D01*
X61715Y93685D02*
Y99885D01*
X64015D01*
X61715Y93685D02*
X64015D01*
Y99885D01*
X60840Y93685D02*
Y99885D01*
X58540Y93685D02*
X60840D01*
X58540Y99885D02*
X60840D01*
X58540Y93685D02*
Y99885D01*
X68142Y74952D02*
Y81152D01*
X65842Y74952D02*
X68142D01*
X65842Y81152D02*
X68142D01*
X65842Y74952D02*
Y81152D01*
X30872Y86745D02*
X37072D01*
X30872D02*
Y89045D01*
X37072Y86745D02*
Y89045D01*
X30872D02*
X37072D01*
X35560Y123900D02*
X40640D01*
X35560D02*
Y126186D01*
X40640Y123900D02*
Y126186D01*
X35560D02*
X40640D01*
X37147Y123900D02*
Y126186D01*
X36893Y123900D02*
Y126186D01*
X36639Y123900D02*
Y126186D01*
X30872Y89920D02*
X37072D01*
X30872D02*
Y92220D01*
X37072Y89920D02*
Y92220D01*
X30872D02*
X37072D01*
X30872Y93095D02*
X37072D01*
X30872D02*
Y95395D01*
X37072Y93095D02*
Y95395D01*
X30872D02*
X37072D01*
X67190Y93685D02*
Y99885D01*
X64890Y93685D02*
X67190D01*
X64890Y99885D02*
X67190D01*
X64890Y93685D02*
Y99885D01*
X46430Y105160D02*
X52630D01*
X46430D02*
Y107460D01*
X52630Y105160D02*
Y107460D01*
X46430D02*
X52630D01*
X34682Y131908D02*
X40882D01*
Y129608D02*
Y131908D01*
X34682Y129608D02*
Y131908D01*
Y129608D02*
X40882D01*
X64845Y144530D02*
X71045D01*
X64845D02*
Y146830D01*
X71045Y144530D02*
Y146830D01*
X64845D02*
X71045D01*
X64845Y149688D02*
X71045D01*
Y147388D02*
Y149688D01*
X64845Y147388D02*
Y149688D01*
Y147388D02*
X71045D01*
X50863Y150812D02*
X50609Y151066D01*
X50101D01*
X49847Y150812D01*
Y149796D01*
X50101Y149542D01*
X50609D01*
X50863Y149796D01*
Y150304D01*
X50355D01*
X51371Y149542D02*
Y151066D01*
X52387Y149542D01*
Y151066D01*
X52895D02*
Y149542D01*
X53656D01*
X53910Y149796D01*
Y150812D01*
X53656Y151066D01*
X52895D01*
X12065Y120650D02*
Y122174D01*
X12827D01*
X13081Y121920D01*
Y121412D01*
X12827Y121158D01*
X12065D01*
X12573D02*
X13081Y120650D01*
X14604D02*
X13589D01*
X14604Y121666D01*
Y121920D01*
X14350Y122174D01*
X13842D01*
X13589Y121920D01*
X16128Y122174D02*
X15620Y121920D01*
X15112Y121412D01*
Y120904D01*
X15366Y120650D01*
X15874D01*
X16128Y120904D01*
Y121158D01*
X15874Y121412D01*
X15112D01*
X59055Y106945D02*
X60578D01*
Y106183D01*
X60325Y105929D01*
X59817D01*
X59563Y106183D01*
Y106945D01*
Y106437D02*
X59055Y105929D01*
Y105422D02*
Y104914D01*
Y105168D01*
X60578D01*
X60325Y105422D01*
X59055Y103390D02*
X60578D01*
X59817Y104152D01*
Y103136D01*
X51435Y125349D02*
Y124079D01*
X51689Y123825D01*
X52197D01*
X52451Y124079D01*
Y125349D01*
X52959Y123825D02*
X53466D01*
X53212D01*
Y125349D01*
X52959Y125095D01*
X26987Y138430D02*
Y139954D01*
X27749D01*
X28003Y139700D01*
Y139192D01*
X27749Y138938D01*
X26987D01*
X27495D02*
X28003Y138430D01*
X29527D02*
X28511D01*
X29527Y139446D01*
Y139700D01*
X29273Y139954D01*
X28765D01*
X28511Y139700D01*
X30796Y138430D02*
Y139954D01*
X30035Y139192D01*
X31050D01*
X26987Y147637D02*
Y149161D01*
X27749D01*
X28003Y148907D01*
Y148399D01*
X27749Y148145D01*
X26987D01*
X27495D02*
X28003Y147637D01*
X29527D02*
X28511D01*
X29527Y148653D01*
Y148907D01*
X29273Y149161D01*
X28765D01*
X28511Y148907D01*
X30035D02*
X30288Y149161D01*
X30796D01*
X31050Y148907D01*
Y148653D01*
X30796Y148399D01*
X30542D01*
X30796D01*
X31050Y148145D01*
Y147891D01*
X30796Y147637D01*
X30288D01*
X30035Y147891D01*
X26987Y135572D02*
Y137096D01*
X27749D01*
X28003Y136842D01*
Y136334D01*
X27749Y136080D01*
X26987D01*
X27495D02*
X28003Y135572D01*
X29527D02*
X28511D01*
X29527Y136588D01*
Y136842D01*
X29273Y137096D01*
X28765D01*
X28511Y136842D01*
X31050Y135572D02*
X30035D01*
X31050Y136588D01*
Y136842D01*
X30796Y137096D01*
X30288D01*
X30035Y136842D01*
X47943Y108268D02*
Y109791D01*
X48704D01*
X48958Y109537D01*
Y109029D01*
X48704Y108775D01*
X47943D01*
X48450D02*
X48958Y108268D01*
X50482D02*
X49466D01*
X50482Y109283D01*
Y109537D01*
X50228Y109791D01*
X49720D01*
X49466Y109537D01*
X50990Y108268D02*
X51497D01*
X51243D01*
Y109791D01*
X50990Y109537D01*
X26987Y132715D02*
Y134239D01*
X27749D01*
X28003Y133985D01*
Y133477D01*
X27749Y133223D01*
X26987D01*
X27495D02*
X28003Y132715D01*
X29527D02*
X28511D01*
X29527Y133731D01*
Y133985D01*
X29273Y134239D01*
X28765D01*
X28511Y133985D01*
X30035D02*
X30288Y134239D01*
X30796D01*
X31050Y133985D01*
Y132969D01*
X30796Y132715D01*
X30288D01*
X30035Y132969D01*
Y133985D01*
X26987Y130175D02*
Y131699D01*
X27749D01*
X28003Y131445D01*
Y130937D01*
X27749Y130683D01*
X26987D01*
X27495D02*
X28003Y130175D01*
X28511D02*
X29019D01*
X28765D01*
Y131699D01*
X28511Y131445D01*
X29781Y130429D02*
X30035Y130175D01*
X30542D01*
X30796Y130429D01*
Y131445D01*
X30542Y131699D01*
X30035D01*
X29781Y131445D01*
Y131191D01*
X30035Y130937D01*
X30796D01*
X74613Y135890D02*
Y137414D01*
X75374D01*
X75628Y137160D01*
Y136652D01*
X75374Y136398D01*
X74613D01*
X75120D02*
X75628Y135890D01*
X76136D02*
X76644D01*
X76390D01*
Y137414D01*
X76136Y137160D01*
X77406D02*
X77660Y137414D01*
X78167D01*
X78421Y137160D01*
Y136906D01*
X78167Y136652D01*
X77913D01*
X78167D01*
X78421Y136398D01*
Y136144D01*
X78167Y135890D01*
X77660D01*
X77406Y136144D01*
X75247Y145098D02*
Y146621D01*
X76009D01*
X76263Y146367D01*
Y145859D01*
X76009Y145605D01*
X75247D01*
X75755D02*
X76263Y145098D01*
X76771D02*
X77279D01*
X77025D01*
Y146621D01*
X76771Y146367D01*
X78041D02*
X78295Y146621D01*
X78802D01*
X79056Y146367D01*
Y145351D01*
X78802Y145098D01*
X78295D01*
X78041Y145351D01*
Y146367D01*
X74930Y141923D02*
Y143446D01*
X75692D01*
X75946Y143192D01*
Y142684D01*
X75692Y142430D01*
X74930D01*
X75438D02*
X75946Y141923D01*
X76454Y142176D02*
X76707Y141923D01*
X77215D01*
X77469Y142176D01*
Y143192D01*
X77215Y143446D01*
X76707D01*
X76454Y143192D01*
Y142938D01*
X76707Y142684D01*
X77469D01*
X75247Y147955D02*
Y149479D01*
X76009D01*
X76263Y149225D01*
Y148717D01*
X76009Y148463D01*
X75247D01*
X75755D02*
X76263Y147955D01*
X77533D02*
Y149479D01*
X76771Y148717D01*
X77787D01*
X74930Y139065D02*
Y140589D01*
X75692D01*
X75946Y140335D01*
Y139827D01*
X75692Y139573D01*
X74930D01*
X75438D02*
X75946Y139065D01*
X76454Y140335D02*
X76707Y140589D01*
X77215D01*
X77469Y140335D01*
Y140081D01*
X77215Y139827D01*
X76961D01*
X77215D01*
X77469Y139573D01*
Y139319D01*
X77215Y139065D01*
X76707D01*
X76454Y139319D01*
X28257Y141605D02*
Y143129D01*
X29019D01*
X29273Y142875D01*
Y142367D01*
X29019Y142113D01*
X28257D01*
X28765D02*
X29273Y141605D01*
X30797D02*
X29781D01*
X30797Y142621D01*
Y142875D01*
X30543Y143129D01*
X30035D01*
X29781Y142875D01*
X28892Y144780D02*
Y146304D01*
X29654D01*
X29908Y146050D01*
Y145542D01*
X29654Y145288D01*
X28892D01*
X29400D02*
X29908Y144780D01*
X30416D02*
X30924D01*
X30670D01*
Y146304D01*
X30416Y146050D01*
X635Y150495D02*
Y152019D01*
X1397D01*
X1651Y151765D01*
Y151257D01*
X1397Y151003D01*
X635D01*
X2920Y152019D02*
X2412D01*
X2159Y151765D01*
Y150749D01*
X2412Y150495D01*
X2920D01*
X3174Y150749D01*
Y151765D01*
X2920Y152019D01*
X3682D02*
X4698D01*
X4190D01*
Y150495D01*
X6729D02*
Y151511D01*
X7237Y152019D01*
X7745Y151511D01*
Y150495D01*
Y151257D01*
X6729D01*
X11748Y151130D02*
Y152654D01*
X12509D01*
X12763Y152400D01*
Y151892D01*
X12509Y151638D01*
X11748D01*
X14033Y152654D02*
X13525D01*
X13271Y152400D01*
Y151384D01*
X13525Y151130D01*
X14033D01*
X14287Y151384D01*
Y152400D01*
X14033Y152654D01*
X14795D02*
X15810D01*
X15302D01*
Y151130D01*
X17842Y152654D02*
Y151130D01*
X18603D01*
X18857Y151384D01*
Y151638D01*
X18603Y151892D01*
X17842D01*
X18603D01*
X18857Y152146D01*
Y152400D01*
X18603Y152654D01*
X17842D01*
X22860Y151447D02*
Y152717D01*
X23495D01*
X23706Y152505D01*
Y152082D01*
X23495Y151871D01*
X22860D01*
X24764Y152717D02*
X24341D01*
X24130Y152505D01*
Y151659D01*
X24341Y151447D01*
X24764D01*
X24976Y151659D01*
Y152505D01*
X24764Y152717D01*
X25399D02*
X26246D01*
X25822D01*
Y151447D01*
X28785Y152505D02*
X28573Y152717D01*
X28150D01*
X27938Y152505D01*
Y151659D01*
X28150Y151447D01*
X28573D01*
X28785Y151659D01*
X80073Y143827D02*
X79819Y144081D01*
X79311D01*
X79058Y143827D01*
Y142811D01*
X79311Y142557D01*
X79819D01*
X80073Y142811D01*
X81597Y144081D02*
X80581D01*
Y143319D01*
X81089Y143573D01*
X81343D01*
X81597Y143319D01*
Y142811D01*
X81343Y142557D01*
X80835D01*
X80581Y142811D01*
X75311Y133985D02*
X75057Y134239D01*
X74549D01*
X74295Y133985D01*
Y132969D01*
X74549Y132715D01*
X75057D01*
X75311Y132969D01*
X76834Y134239D02*
X76326Y133985D01*
X75819Y133477D01*
Y132969D01*
X76072Y132715D01*
X76580D01*
X76834Y132969D01*
Y133223D01*
X76580Y133477D01*
X75819D01*
X75311Y119697D02*
X75057Y119951D01*
X74549D01*
X74295Y119697D01*
Y118681D01*
X74549Y118427D01*
X75057D01*
X75311Y118681D01*
X75819Y119951D02*
X76834D01*
Y119697D01*
X75819Y118681D01*
Y118427D01*
X38735Y103441D02*
X39751D01*
Y103187D01*
X38735Y102171D01*
Y101918D01*
X39751D01*
X40259Y103441D02*
Y101918D01*
X41020D01*
X41274Y102171D01*
Y103187D01*
X41020Y103441D01*
X40259D01*
X41782Y101918D02*
X42290D01*
X42036D01*
Y103441D01*
X41782Y103187D01*
X43498Y160973D02*
Y162496D01*
X44259D01*
X44513Y162242D01*
Y161734D01*
X44259Y161480D01*
X43498D01*
X45275Y160973D02*
X45783D01*
X46037Y161226D01*
Y161734D01*
X45783Y161988D01*
X45275D01*
X45021Y161734D01*
Y161226D01*
X45275Y160973D01*
X46545Y161988D02*
Y161226D01*
X46798Y160973D01*
X47052Y161226D01*
X47306Y160973D01*
X47560Y161226D01*
Y161988D01*
X48830Y160973D02*
X48322D01*
X48068Y161226D01*
Y161734D01*
X48322Y161988D01*
X48830D01*
X49084Y161734D01*
Y161480D01*
X48068D01*
X49592Y161988D02*
Y160973D01*
Y161480D01*
X49845Y161734D01*
X50099Y161988D01*
X50353D01*
X15303Y91440D02*
X15049Y91694D01*
X14541D01*
X14288Y91440D01*
Y90424D01*
X14541Y90170D01*
X15049D01*
X15303Y90424D01*
X15811Y90170D02*
X16319D01*
X16065D01*
Y91694D01*
X15811Y91440D01*
X17081D02*
X17335Y91694D01*
X17842D01*
X18096Y91440D01*
Y91186D01*
X17842Y90932D01*
X17588D01*
X17842D01*
X18096Y90678D01*
Y90424D01*
X17842Y90170D01*
X17335D01*
X17081Y90424D01*
X14351Y125412D02*
X14097Y125666D01*
X13589D01*
X13335Y125412D01*
Y124396D01*
X13589Y124143D01*
X14097D01*
X14351Y124396D01*
X14859Y124143D02*
X15366D01*
X15112D01*
Y125666D01*
X14859Y125412D01*
X16128D02*
X16382Y125666D01*
X16890D01*
X17144Y125412D01*
Y124396D01*
X16890Y124143D01*
X16382D01*
X16128Y124396D01*
Y125412D01*
X15621Y128587D02*
X15367Y128841D01*
X14859D01*
X14605Y128587D01*
Y127571D01*
X14859Y127317D01*
X15367D01*
X15621Y127571D01*
X16129D02*
X16382Y127317D01*
X16890D01*
X17144Y127571D01*
Y128587D01*
X16890Y128841D01*
X16382D01*
X16129Y128587D01*
Y128333D01*
X16382Y128079D01*
X17144D01*
X75628Y129857D02*
X75374Y130111D01*
X74866D01*
X74613Y129857D01*
Y128841D01*
X74866Y128587D01*
X75374D01*
X75628Y128841D01*
X76136Y129857D02*
X76390Y130111D01*
X76898D01*
X77152Y129857D01*
Y129603D01*
X76898Y129349D01*
X77152Y129095D01*
Y128841D01*
X76898Y128587D01*
X76390D01*
X76136Y128841D01*
Y129095D01*
X76390Y129349D01*
X76136Y129603D01*
Y129857D01*
X76390Y129349D02*
X76898D01*
X29528Y128841D02*
Y127317D01*
X30289D01*
X30543Y127571D01*
Y128587D01*
X30289Y128841D01*
X29528D01*
X31051Y127317D02*
X31559D01*
X31305D01*
Y128841D01*
X31051Y128587D01*
X36512Y123074D02*
Y121550D01*
X37274D01*
X37528Y121804D01*
Y122820D01*
X37274Y123074D01*
X36512D01*
X39052Y121550D02*
X38036D01*
X39052Y122566D01*
Y122820D01*
X38798Y123074D01*
X38290D01*
X38036Y122820D01*
X56515Y87260D02*
X58038D01*
Y86498D01*
X57785Y86244D01*
X57277D01*
X57023Y86498D01*
Y87260D01*
Y86752D02*
X56515Y86244D01*
X58038Y84721D02*
Y85737D01*
X57277D01*
X57531Y85229D01*
Y84975D01*
X57277Y84721D01*
X56769D01*
X56515Y84975D01*
Y85483D01*
X56769Y85737D01*
X60007Y87260D02*
X61531D01*
Y86498D01*
X61277Y86244D01*
X60769D01*
X60515Y86498D01*
Y87260D01*
Y86752D02*
X60007Y86244D01*
X61531Y84721D02*
X61277Y85229D01*
X60769Y85737D01*
X60261D01*
X60007Y85483D01*
Y84975D01*
X60261Y84721D01*
X60515D01*
X60769Y84975D01*
Y85737D01*
X62865Y87260D02*
X64388D01*
Y86498D01*
X64135Y86244D01*
X63627D01*
X63373Y86498D01*
Y87260D01*
Y86752D02*
X62865Y86244D01*
X64388Y85737D02*
Y84721D01*
X64135D01*
X63119Y85737D01*
X62865D01*
X66040Y87260D02*
X67563D01*
Y86498D01*
X67310Y86244D01*
X66802D01*
X66548Y86498D01*
Y87260D01*
Y86752D02*
X66040Y86244D01*
X67310Y85737D02*
X67563Y85483D01*
Y84975D01*
X67310Y84721D01*
X67056D01*
X66802Y84975D01*
X66548Y84721D01*
X66294D01*
X66040Y84975D01*
Y85483D01*
X66294Y85737D01*
X66548D01*
X66802Y85483D01*
X67056Y85737D01*
X67310D01*
X66802Y85483D02*
Y84975D01*
X23177Y90488D02*
Y92011D01*
X23939D01*
X24193Y91757D01*
Y91249D01*
X23939Y90995D01*
X23177D01*
X23685D02*
X24193Y90488D01*
X24701D02*
X25209D01*
X24955D01*
Y92011D01*
X24701Y91757D01*
X25971Y90488D02*
X26478D01*
X26225D01*
Y92011D01*
X25971Y91757D01*
X23177Y93345D02*
Y94869D01*
X23939D01*
X24193Y94615D01*
Y94107D01*
X23939Y93853D01*
X23177D01*
X23685D02*
X24193Y93345D01*
X24701D02*
X25209D01*
X24955D01*
Y94869D01*
X24701Y94615D01*
X26986Y93345D02*
X25971D01*
X26986Y94361D01*
Y94615D01*
X26732Y94869D01*
X26225D01*
X25971Y94615D01*
X61912Y107262D02*
X63436D01*
Y106501D01*
X63182Y106247D01*
X62674D01*
X62420Y106501D01*
Y107262D01*
Y106755D02*
X61912Y106247D01*
Y105739D02*
Y105231D01*
Y105485D01*
X63436D01*
X63182Y105739D01*
X63436Y103454D02*
Y104469D01*
X62674D01*
X62928Y103962D01*
Y103708D01*
X62674Y103454D01*
X62166D01*
X61912Y103708D01*
Y104215D01*
X62166Y104469D01*
X65405Y107262D02*
X66928D01*
Y106501D01*
X66675Y106247D01*
X66167D01*
X65913Y106501D01*
Y107262D01*
Y106755D02*
X65405Y106247D01*
Y105739D02*
Y105231D01*
Y105485D01*
X66928D01*
X66675Y105739D01*
X66928Y103454D02*
X66675Y103962D01*
X66167Y104469D01*
X65659D01*
X65405Y104215D01*
Y103708D01*
X65659Y103454D01*
X65913D01*
X66167Y103708D01*
Y104469D01*
X23177Y86995D02*
Y88519D01*
X23939D01*
X24193Y88265D01*
Y87757D01*
X23939Y87503D01*
X23177D01*
X23685D02*
X24193Y86995D01*
X24701D02*
X25209D01*
X24955D01*
Y88519D01*
X24701Y88265D01*
X25971Y88519D02*
X26986D01*
Y88265D01*
X25971Y87249D01*
Y86995D01*
X23177Y83820D02*
Y85344D01*
X23939D01*
X24193Y85090D01*
Y84582D01*
X23939Y84328D01*
X23177D01*
X23685D02*
X24193Y83820D01*
X24701D02*
X25209D01*
X24955D01*
Y85344D01*
X24701Y85090D01*
X25971D02*
X26225Y85344D01*
X26732D01*
X26986Y85090D01*
Y84836D01*
X26732Y84582D01*
X26986Y84328D01*
Y84074D01*
X26732Y83820D01*
X26225D01*
X25971Y84074D01*
Y84328D01*
X26225Y84582D01*
X25971Y84836D01*
Y85090D01*
X26225Y84582D02*
X26732D01*
X23177Y80645D02*
Y82169D01*
X23939D01*
X24193Y81915D01*
Y81407D01*
X23939Y81153D01*
X23177D01*
X23685D02*
X24193Y80645D01*
X25717D02*
X24701D01*
X25717Y81661D01*
Y81915D01*
X25463Y82169D01*
X24955D01*
X24701Y81915D01*
X27240Y82169D02*
X26225D01*
Y81407D01*
X26732Y81661D01*
X26986D01*
X27240Y81407D01*
Y80899D01*
X26986Y80645D01*
X26478D01*
X26225Y80899D01*
X47625Y75819D02*
Y74549D01*
X47879Y74295D01*
X48387D01*
X48641Y74549D01*
Y75819D01*
X50164Y74295D02*
X49149D01*
X50164Y75311D01*
Y75565D01*
X49910Y75819D01*
X49402D01*
X49149Y75565D01*
D12*
X55811Y150914D02*
Y160439D01*
X54224Y149326D02*
X55811Y150914D01*
X49779Y149326D02*
X54224D01*
X48191Y150914D02*
X49779Y149326D01*
X48191Y150914D02*
Y160494D01*
X46100Y159142D02*
Y160393D01*
Y159142D02*
X50100D01*
Y160393D01*
X34130Y151503D02*
X62070D01*
Y160393D01*
X34130D02*
X62070D01*
X34130Y151503D02*
Y160393D01*
X29335Y154180D02*
Y161234D01*
X22735Y154180D02*
X29335D01*
X22735D02*
Y161234D01*
X29335D01*
X953Y153035D02*
X7049D01*
Y162560D01*
X953D02*
X7049D01*
X953Y153035D02*
Y162560D01*
X10477Y154305D02*
X20003D01*
X10477D02*
Y160401D01*
X20003D01*
Y154305D02*
Y160401D01*
D13*
X79057Y132662D02*
Y141552D01*
Y132662D02*
X81597D01*
Y141552D01*
X79057D02*
X81597D01*
X20320Y92658D02*
Y95198D01*
X11430Y92658D02*
X20320D01*
X11430D02*
Y95198D01*
X20320D01*
X64135Y117793D02*
Y120333D01*
X73025D01*
Y117793D02*
Y120333D01*
X64135Y117793D02*
X73025D01*
X64135Y134568D02*
X73025D01*
X64135Y132028D02*
Y134568D01*
Y132028D02*
X73025D01*
Y134568D01*
X18415Y123455D02*
X27305D01*
Y125995D01*
X18415D02*
X27305D01*
X18415Y123455D02*
Y125995D01*
X64135Y127953D02*
X73025D01*
Y130493D01*
X64135D02*
X73025D01*
X64135Y127953D02*
Y130493D01*
X18415Y126630D02*
Y129170D01*
X27305D01*
Y126630D02*
Y129170D01*
X18415Y126630D02*
X27305D01*
X46855Y151130D02*
Y150464D01*
X47188Y150797D02*
X46522D01*
X46355Y150130D02*
Y149797D01*
Y149964D01*
X47355D01*
X47188Y150130D01*
X46355Y148631D02*
Y149297D01*
X47021Y148631D01*
X47188D01*
X47355Y148797D01*
Y149131D01*
X47188Y149297D01*
X47355Y148298D02*
X46688D01*
X46355Y147964D01*
X46688Y147631D01*
X47355D01*
X57015Y151130D02*
Y150464D01*
X56515Y150130D02*
Y149797D01*
Y149964D01*
X57515D01*
X57348Y150130D01*
X56515Y148631D02*
Y149297D01*
X57181Y148631D01*
X57348D01*
X57515Y148797D01*
Y149131D01*
X57348Y149297D01*
X57515Y148298D02*
X56848D01*
X56515Y147964D01*
X56848Y147631D01*
X57515D01*
D14*
X80160Y164295D02*
Y164828D01*
X80427Y165095D01*
X80693Y164828D01*
Y164295D01*
Y164695D01*
X80160D01*
X81493Y165095D02*
Y164295D01*
X81093D01*
X80960Y164428D01*
Y164695D01*
X81093Y164828D01*
X81493D01*
X81893D02*
X82159D01*
X82293Y164695D01*
Y164295D01*
X81893D01*
X81759Y164428D01*
X81893Y164562D01*
X82293D01*
X82559Y164295D02*
Y164828D01*
X82693D01*
X82826Y164695D01*
Y164295D01*
Y164695D01*
X82959Y164828D01*
X83092Y164695D01*
Y164295D01*
X84159Y165095D02*
Y164295D01*
X84559D01*
X84692Y164428D01*
Y164961D01*
X84559Y165095D01*
X84159D01*
X84958Y164828D02*
Y164428D01*
X85092Y164295D01*
X85492D01*
Y164162D01*
X85358Y164028D01*
X85225D01*
X85492Y164295D02*
Y164828D01*
X85758Y164295D02*
Y164828D01*
X86158D01*
X86291Y164695D01*
Y164295D01*
X86691Y164828D02*
X86958D01*
X87091Y164695D01*
Y164295D01*
X86691D01*
X86558Y164428D01*
X86691Y164562D01*
X87091D01*
X87358Y164295D02*
Y164828D01*
X87491D01*
X87624Y164695D01*
Y164295D01*
Y164695D01*
X87758Y164828D01*
X87891Y164695D01*
Y164295D01*
X88157D02*
X88424D01*
X88291D01*
Y164828D01*
X88157D01*
X89357D02*
X88957D01*
X88824Y164695D01*
Y164428D01*
X88957Y164295D01*
X89357D01*
X90423Y165095D02*
Y164562D01*
X90690Y164295D01*
X90957Y164562D01*
Y165095D01*
X91756Y164961D02*
X91623Y165095D01*
X91356D01*
X91223Y164961D01*
Y164428D01*
X91356Y164295D01*
X91623D01*
X91756Y164428D01*
X92423Y165095D02*
X92156D01*
X92023Y164961D01*
Y164428D01*
X92156Y164295D01*
X92423D01*
X92556Y164428D01*
Y164961D01*
X92423Y165095D01*
X92823Y164695D02*
X93356D01*
X93622Y164961D02*
X93756Y165095D01*
X94022D01*
X94155Y164961D01*
Y164428D01*
X94022Y164295D01*
X93756D01*
X93622Y164428D01*
Y164961D01*
X94422D02*
X94555Y165095D01*
X94822D01*
X94955Y164961D01*
Y164428D01*
X94822Y164295D01*
X94555D01*
X94422Y164428D01*
Y164961D01*
X95222Y164295D02*
X95488D01*
X95355D01*
Y165095D01*
X95222Y164961D01*
X80160Y162709D02*
Y163508D01*
X80560D01*
X80693Y163375D01*
Y163109D01*
X80560Y162975D01*
X80160D01*
X80427D02*
X80693Y162709D01*
X81493Y163508D02*
X80960D01*
Y162709D01*
X81493D01*
X80960Y163109D02*
X81226D01*
X81759Y163508D02*
Y162975D01*
X82026Y162709D01*
X82293Y162975D01*
Y163508D01*
X82559Y163242D02*
X82693D01*
Y163109D01*
X82559D01*
Y163242D01*
Y162842D02*
X82693D01*
Y162709D01*
X82559D01*
Y162842D01*
X84559Y162709D02*
X84025D01*
X84559Y163242D01*
Y163375D01*
X84425Y163508D01*
X84159D01*
X84025Y163375D01*
X84825D02*
X84958Y163508D01*
X85225D01*
X85358Y163375D01*
Y162842D01*
X85225Y162709D01*
X84958D01*
X84825Y162842D01*
Y163375D01*
X86158Y162709D02*
X85625D01*
X86158Y163242D01*
Y163375D01*
X86025Y163508D01*
X85758D01*
X85625Y163375D01*
X86958Y162709D02*
X86425D01*
X86958Y163242D01*
Y163375D01*
X86825Y163508D01*
X86558D01*
X86425Y163375D01*
X87224D02*
X87358Y163508D01*
X87624D01*
X87758Y163375D01*
Y162842D01*
X87624Y162709D01*
X87358D01*
X87224Y162842D01*
Y163375D01*
X88024Y162842D02*
X88157Y162709D01*
X88424D01*
X88557Y162842D01*
Y163375D01*
X88424Y163508D01*
X88157D01*
X88024Y163375D01*
Y163242D01*
X88157Y163109D01*
X88557D01*
X88824Y163375D02*
X88957Y163508D01*
X89224D01*
X89357Y163375D01*
Y162842D01*
X89224Y162709D01*
X88957D01*
X88824Y162842D01*
Y163375D01*
X89624D02*
X89757Y163508D01*
X90023D01*
X90157Y163375D01*
Y163242D01*
X90023Y163109D01*
X89890D01*
X90023D01*
X90157Y162975D01*
Y162842D01*
X90023Y162709D01*
X89757D01*
X89624Y162842D01*
X80160Y161922D02*
Y161522D01*
X80293Y161389D01*
X80427Y161522D01*
X80560Y161389D01*
X80693Y161522D01*
Y161922D01*
X80960D02*
Y161522D01*
X81093Y161389D01*
X81226Y161522D01*
X81360Y161389D01*
X81493Y161522D01*
Y161922D01*
X81759D02*
Y161522D01*
X81893Y161389D01*
X82026Y161522D01*
X82159Y161389D01*
X82293Y161522D01*
Y161922D01*
X82559Y161389D02*
Y161522D01*
X82693D01*
Y161389D01*
X82559D01*
X83359Y161922D02*
X83626D01*
X83759Y161789D01*
Y161389D01*
X83359D01*
X83226Y161522D01*
X83359Y161656D01*
X83759D01*
X84559Y162189D02*
Y161389D01*
X84159D01*
X84025Y161522D01*
Y161789D01*
X84159Y161922D01*
X84559D01*
X84958D02*
X85225D01*
X85358Y161789D01*
Y161389D01*
X84958D01*
X84825Y161522D01*
X84958Y161656D01*
X85358D01*
X85625Y161389D02*
Y161922D01*
X85758D01*
X85891Y161789D01*
Y161389D01*
Y161789D01*
X86025Y161922D01*
X86158Y161789D01*
Y161389D01*
X86958Y162189D02*
Y161389D01*
X86558D01*
X86425Y161522D01*
Y161789D01*
X86558Y161922D01*
X86958D01*
X87224D02*
Y161522D01*
X87358Y161389D01*
X87758D01*
Y161256D01*
X87624Y161122D01*
X87491D01*
X87758Y161389D02*
Y161922D01*
X88024Y161389D02*
Y161922D01*
X88424D01*
X88557Y161789D01*
Y161389D01*
X88957Y161922D02*
X89224D01*
X89357Y161789D01*
Y161389D01*
X88957D01*
X88824Y161522D01*
X88957Y161656D01*
X89357D01*
X89624Y161389D02*
Y161922D01*
X89757D01*
X89890Y161789D01*
Y161389D01*
Y161789D01*
X90023Y161922D01*
X90157Y161789D01*
Y161389D01*
X90423D02*
X90690D01*
X90557D01*
Y161922D01*
X90423D01*
X91623D02*
X91223D01*
X91090Y161789D01*
Y161522D01*
X91223Y161389D01*
X91623D01*
X91890D02*
Y161522D01*
X92023D01*
Y161389D01*
X91890D01*
X93089Y161922D02*
X92689D01*
X92556Y161789D01*
Y161522D01*
X92689Y161389D01*
X93089D01*
X93489D02*
X93756D01*
X93889Y161522D01*
Y161789D01*
X93756Y161922D01*
X93489D01*
X93356Y161789D01*
Y161522D01*
X93489Y161389D01*
X94155D02*
Y161922D01*
X94289D01*
X94422Y161789D01*
Y161389D01*
Y161789D01*
X94555Y161922D01*
X94689Y161789D01*
Y161389D01*
D15*
X58895Y156527D02*
X59318D01*
X59107D01*
Y157797D01*
X58895Y157585D01*
M02*
