G04*
G04 #@! TF.GenerationSoftware,Altium Limited,Altium Designer,20.0.2 (26)*
G04*
G04 Layer_Color=0*
%FSLAX43Y43*%
%MOMM*%
G71*
G01*
G75*
%ADD11C,0.254*%
%ADD12C,0.127*%
%ADD41C,0.178*%
G36*
X202748Y14995D02*
X202799Y14990D01*
X202859Y14986D01*
X202919Y14977D01*
X202989Y14967D01*
X203137Y14935D01*
X203211Y14912D01*
X203285Y14889D01*
X203359Y14856D01*
X203428Y14819D01*
X203493Y14778D01*
X203553Y14731D01*
X203558Y14727D01*
X203567Y14717D01*
X203581Y14704D01*
X203599Y14685D01*
X203623Y14657D01*
X203650Y14625D01*
X203678Y14588D01*
X203711Y14546D01*
X203738Y14495D01*
X203766Y14444D01*
X203794Y14384D01*
X203817Y14319D01*
X203840Y14255D01*
X203859Y14181D01*
X203872Y14107D01*
X203877Y14023D01*
X203229Y14000D01*
Y14005D01*
Y14009D01*
X203220Y14042D01*
X203211Y14083D01*
X203192Y14134D01*
X203169Y14194D01*
X203137Y14250D01*
X203095Y14306D01*
X203049Y14352D01*
X203044Y14356D01*
X203026Y14370D01*
X202993Y14389D01*
X202947Y14407D01*
X202891Y14426D01*
X202822Y14444D01*
X202739Y14458D01*
X202641Y14463D01*
X202595D01*
X202544Y14458D01*
X202484Y14449D01*
X202415Y14435D01*
X202341Y14412D01*
X202271Y14384D01*
X202206Y14343D01*
X202202Y14338D01*
X202193Y14329D01*
X202174Y14315D01*
X202156Y14292D01*
X202137Y14264D01*
X202119Y14227D01*
X202109Y14190D01*
X202105Y14144D01*
Y14139D01*
Y14125D01*
X202109Y14102D01*
X202119Y14079D01*
X202128Y14046D01*
X202142Y14014D01*
X202165Y13982D01*
X202197Y13949D01*
X202202Y13945D01*
X202225Y13931D01*
X202239Y13921D01*
X202262Y13912D01*
X202285Y13898D01*
X202318Y13884D01*
X202355Y13870D01*
X202396Y13852D01*
X202447Y13833D01*
X202498Y13815D01*
X202563Y13796D01*
X202632Y13778D01*
X202706Y13759D01*
X202790Y13736D01*
X202794D01*
X202813Y13732D01*
X202836Y13727D01*
X202868Y13718D01*
X202905Y13709D01*
X202952Y13695D01*
X203002Y13681D01*
X203053Y13667D01*
X203164Y13630D01*
X203280Y13593D01*
X203391Y13551D01*
X203437Y13528D01*
X203484Y13505D01*
X203488D01*
X203493Y13500D01*
X203521Y13482D01*
X203562Y13454D01*
X203613Y13417D01*
X203669Y13371D01*
X203729Y13315D01*
X203789Y13250D01*
X203840Y13176D01*
X203845Y13167D01*
X203859Y13139D01*
X203882Y13098D01*
X203905Y13037D01*
X203928Y12963D01*
X203951Y12875D01*
X203965Y12778D01*
X203970Y12667D01*
Y12663D01*
Y12653D01*
Y12639D01*
Y12621D01*
X203965Y12598D01*
X203960Y12565D01*
X203951Y12501D01*
X203933Y12417D01*
X203905Y12329D01*
X203863Y12241D01*
X203812Y12149D01*
Y12144D01*
X203803Y12140D01*
X203785Y12112D01*
X203748Y12066D01*
X203701Y12015D01*
X203641Y11955D01*
X203562Y11899D01*
X203479Y11843D01*
X203377Y11793D01*
X203373D01*
X203363Y11788D01*
X203350Y11783D01*
X203326Y11774D01*
X203299Y11765D01*
X203266Y11756D01*
X203229Y11746D01*
X203188Y11737D01*
X203137Y11723D01*
X203086Y11714D01*
X202965Y11695D01*
X202831Y11682D01*
X202683Y11677D01*
X202623D01*
X202581Y11682D01*
X202530Y11686D01*
X202475Y11691D01*
X202410Y11700D01*
X202341Y11714D01*
X202188Y11746D01*
X202109Y11769D01*
X202035Y11793D01*
X201957Y11825D01*
X201883Y11862D01*
X201813Y11904D01*
X201748Y11955D01*
X201744Y11959D01*
X201734Y11968D01*
X201716Y11982D01*
X201697Y12005D01*
X201670Y12038D01*
X201642Y12075D01*
X201609Y12117D01*
X201577Y12163D01*
X201545Y12218D01*
X201512Y12279D01*
X201480Y12348D01*
X201447Y12422D01*
X201424Y12501D01*
X201397Y12589D01*
X201378Y12681D01*
X201364Y12778D01*
X201994Y12838D01*
Y12834D01*
X201998Y12825D01*
Y12806D01*
X202003Y12788D01*
X202021Y12732D01*
X202044Y12663D01*
X202072Y12584D01*
X202114Y12505D01*
X202160Y12436D01*
X202220Y12371D01*
X202230Y12366D01*
X202253Y12348D01*
X202290Y12325D01*
X202345Y12297D01*
X202415Y12269D01*
X202493Y12246D01*
X202586Y12228D01*
X202692Y12223D01*
X202743D01*
X202799Y12232D01*
X202868Y12241D01*
X202942Y12255D01*
X203021Y12279D01*
X203095Y12311D01*
X203160Y12353D01*
X203169Y12357D01*
X203188Y12376D01*
X203211Y12403D01*
X203243Y12440D01*
X203271Y12487D01*
X203299Y12542D01*
X203317Y12598D01*
X203322Y12663D01*
Y12667D01*
Y12681D01*
X203317Y12704D01*
X203313Y12732D01*
X203303Y12760D01*
X203294Y12792D01*
X203275Y12825D01*
X203252Y12857D01*
X203248Y12862D01*
X203238Y12871D01*
X203225Y12885D01*
X203201Y12903D01*
X203169Y12926D01*
X203127Y12950D01*
X203081Y12973D01*
X203021Y12996D01*
X203016D01*
X202998Y13005D01*
X202965Y13014D01*
X202942Y13024D01*
X202915Y13028D01*
X202882Y13037D01*
X202845Y13051D01*
X202803Y13061D01*
X202757Y13075D01*
X202702Y13088D01*
X202641Y13102D01*
X202577Y13121D01*
X202503Y13139D01*
X202498D01*
X202480Y13144D01*
X202452Y13153D01*
X202419Y13162D01*
X202378Y13176D01*
X202327Y13190D01*
X202276Y13209D01*
X202216Y13227D01*
X202095Y13274D01*
X201980Y13329D01*
X201920Y13357D01*
X201869Y13389D01*
X201818Y13422D01*
X201776Y13454D01*
X201771Y13459D01*
X201762Y13468D01*
X201748Y13482D01*
X201730Y13500D01*
X201707Y13528D01*
X201684Y13560D01*
X201656Y13593D01*
X201633Y13634D01*
X201577Y13732D01*
X201531Y13843D01*
X201512Y13903D01*
X201498Y13963D01*
X201489Y14032D01*
X201485Y14102D01*
Y14107D01*
Y14111D01*
Y14125D01*
Y14144D01*
X201494Y14190D01*
X201503Y14250D01*
X201517Y14319D01*
X201540Y14398D01*
X201572Y14481D01*
X201619Y14560D01*
Y14565D01*
X201623Y14569D01*
X201646Y14597D01*
X201674Y14634D01*
X201721Y14680D01*
X201776Y14731D01*
X201845Y14787D01*
X201924Y14838D01*
X202017Y14884D01*
X202021D01*
X202031Y14889D01*
X202044Y14893D01*
X202063Y14903D01*
X202091Y14912D01*
X202119Y14921D01*
X202156Y14930D01*
X202197Y14944D01*
X202290Y14963D01*
X202396Y14981D01*
X202517Y14995D01*
X202651Y15000D01*
X202706D01*
X202748Y14995D01*
D02*
G37*
G36*
X152272Y14995D02*
X152323Y14990D01*
X152383Y14986D01*
X152443Y14977D01*
X152512Y14967D01*
X152660Y14935D01*
X152734Y14912D01*
X152808Y14889D01*
X152883Y14856D01*
X152952Y14819D01*
X153017Y14778D01*
X153077Y14731D01*
X153082Y14727D01*
X153091Y14717D01*
X153105Y14704D01*
X153123Y14685D01*
X153146Y14657D01*
X153174Y14625D01*
X153202Y14588D01*
X153234Y14546D01*
X153262Y14495D01*
X153290Y14444D01*
X153318Y14384D01*
X153341Y14319D01*
X153364Y14255D01*
X153382Y14181D01*
X153396Y14107D01*
X153401Y14023D01*
X152753Y14000D01*
Y14005D01*
Y14009D01*
X152744Y14042D01*
X152734Y14083D01*
X152716Y14134D01*
X152693Y14194D01*
X152660Y14250D01*
X152619Y14306D01*
X152572Y14352D01*
X152568Y14356D01*
X152549Y14370D01*
X152517Y14389D01*
X152471Y14407D01*
X152415Y14426D01*
X152346Y14444D01*
X152262Y14458D01*
X152165Y14463D01*
X152119D01*
X152068Y14458D01*
X152008Y14449D01*
X151938Y14435D01*
X151864Y14412D01*
X151795Y14384D01*
X151730Y14343D01*
X151726Y14338D01*
X151716Y14329D01*
X151698Y14315D01*
X151679Y14292D01*
X151661Y14264D01*
X151642Y14227D01*
X151633Y14190D01*
X151628Y14144D01*
Y14139D01*
Y14125D01*
X151633Y14102D01*
X151642Y14079D01*
X151652Y14046D01*
X151665Y14014D01*
X151689Y13982D01*
X151721Y13949D01*
X151726Y13945D01*
X151749Y13931D01*
X151763Y13921D01*
X151786Y13912D01*
X151809Y13898D01*
X151841Y13884D01*
X151878Y13870D01*
X151920Y13852D01*
X151971Y13833D01*
X152022Y13815D01*
X152087Y13796D01*
X152156Y13778D01*
X152230Y13759D01*
X152313Y13736D01*
X152318D01*
X152336Y13732D01*
X152360Y13727D01*
X152392Y13718D01*
X152429Y13709D01*
X152475Y13695D01*
X152526Y13681D01*
X152577Y13667D01*
X152688Y13630D01*
X152804Y13593D01*
X152915Y13551D01*
X152961Y13528D01*
X153007Y13505D01*
X153012D01*
X153017Y13500D01*
X153044Y13482D01*
X153086Y13454D01*
X153137Y13417D01*
X153193Y13371D01*
X153253Y13315D01*
X153313Y13250D01*
X153364Y13176D01*
X153368Y13167D01*
X153382Y13139D01*
X153405Y13098D01*
X153429Y13037D01*
X153452Y12963D01*
X153475Y12875D01*
X153489Y12778D01*
X153493Y12667D01*
Y12663D01*
Y12653D01*
Y12639D01*
Y12621D01*
X153489Y12598D01*
X153484Y12565D01*
X153475Y12501D01*
X153456Y12417D01*
X153429Y12329D01*
X153387Y12241D01*
X153336Y12149D01*
Y12144D01*
X153327Y12140D01*
X153308Y12112D01*
X153271Y12066D01*
X153225Y12015D01*
X153165Y11955D01*
X153086Y11899D01*
X153003Y11843D01*
X152901Y11793D01*
X152896D01*
X152887Y11788D01*
X152873Y11783D01*
X152850Y11774D01*
X152822Y11765D01*
X152790Y11756D01*
X152753Y11746D01*
X152711Y11737D01*
X152660Y11723D01*
X152609Y11714D01*
X152489Y11695D01*
X152355Y11682D01*
X152207Y11677D01*
X152147D01*
X152105Y11682D01*
X152054Y11686D01*
X151999Y11691D01*
X151934Y11700D01*
X151864Y11714D01*
X151712Y11746D01*
X151633Y11769D01*
X151559Y11793D01*
X151480Y11825D01*
X151406Y11862D01*
X151337Y11904D01*
X151272Y11955D01*
X151267Y11959D01*
X151258Y11968D01*
X151240Y11982D01*
X151221Y12005D01*
X151193Y12038D01*
X151166Y12075D01*
X151133Y12117D01*
X151101Y12163D01*
X151068Y12218D01*
X151036Y12278D01*
X151004Y12348D01*
X150971Y12422D01*
X150948Y12501D01*
X150920Y12589D01*
X150902Y12681D01*
X150888Y12778D01*
X151517Y12838D01*
Y12834D01*
X151522Y12825D01*
Y12806D01*
X151527Y12788D01*
X151545Y12732D01*
X151568Y12663D01*
X151596Y12584D01*
X151638Y12505D01*
X151684Y12436D01*
X151744Y12371D01*
X151753Y12366D01*
X151776Y12348D01*
X151813Y12325D01*
X151869Y12297D01*
X151938Y12269D01*
X152017Y12246D01*
X152110Y12228D01*
X152216Y12223D01*
X152267D01*
X152323Y12232D01*
X152392Y12241D01*
X152466Y12255D01*
X152545Y12278D01*
X152619Y12311D01*
X152684Y12353D01*
X152693Y12357D01*
X152711Y12376D01*
X152734Y12403D01*
X152767Y12440D01*
X152795Y12487D01*
X152822Y12542D01*
X152841Y12598D01*
X152845Y12663D01*
Y12667D01*
Y12681D01*
X152841Y12704D01*
X152836Y12732D01*
X152827Y12760D01*
X152818Y12792D01*
X152799Y12825D01*
X152776Y12857D01*
X152771Y12862D01*
X152762Y12871D01*
X152748Y12885D01*
X152725Y12903D01*
X152693Y12926D01*
X152651Y12950D01*
X152605Y12973D01*
X152545Y12996D01*
X152540D01*
X152522Y13005D01*
X152489Y13014D01*
X152466Y13024D01*
X152438Y13028D01*
X152406Y13037D01*
X152369Y13051D01*
X152327Y13061D01*
X152281Y13075D01*
X152225Y13088D01*
X152165Y13102D01*
X152100Y13121D01*
X152026Y13139D01*
X152022D01*
X152003Y13144D01*
X151975Y13153D01*
X151943Y13162D01*
X151901Y13176D01*
X151850Y13190D01*
X151800Y13209D01*
X151739Y13227D01*
X151619Y13273D01*
X151503Y13329D01*
X151443Y13357D01*
X151392Y13389D01*
X151341Y13422D01*
X151300Y13454D01*
X151295Y13459D01*
X151286Y13468D01*
X151272Y13482D01*
X151253Y13500D01*
X151230Y13528D01*
X151207Y13560D01*
X151179Y13593D01*
X151156Y13634D01*
X151101Y13732D01*
X151055Y13843D01*
X151036Y13903D01*
X151022Y13963D01*
X151013Y14032D01*
X151008Y14102D01*
Y14107D01*
Y14111D01*
Y14125D01*
Y14144D01*
X151017Y14190D01*
X151027Y14250D01*
X151041Y14319D01*
X151064Y14398D01*
X151096Y14481D01*
X151142Y14560D01*
Y14565D01*
X151147Y14569D01*
X151170Y14597D01*
X151198Y14634D01*
X151244Y14680D01*
X151300Y14731D01*
X151369Y14787D01*
X151448Y14838D01*
X151540Y14884D01*
X151545D01*
X151554Y14889D01*
X151568Y14893D01*
X151587Y14903D01*
X151614Y14912D01*
X151642Y14921D01*
X151679Y14930D01*
X151721Y14944D01*
X151813Y14963D01*
X151920Y14981D01*
X152040Y14995D01*
X152174Y15000D01*
X152230D01*
X152272Y14995D01*
D02*
G37*
G36*
X147903Y14995D02*
X147954Y14990D01*
X148014Y14986D01*
X148079Y14981D01*
X148148Y14967D01*
X148296Y14940D01*
X148449Y14893D01*
X148528Y14865D01*
X148602Y14833D01*
X148671Y14796D01*
X148736Y14750D01*
X148741Y14745D01*
X148750Y14741D01*
X148768Y14722D01*
X148791Y14704D01*
X148819Y14680D01*
X148847Y14648D01*
X148879Y14611D01*
X148916Y14569D01*
X148953Y14523D01*
X148990Y14472D01*
X149027Y14417D01*
X149060Y14352D01*
X149097Y14287D01*
X149125Y14218D01*
X149152Y14139D01*
X149171Y14060D01*
X148528Y13940D01*
Y13945D01*
X148523Y13949D01*
X148514Y13977D01*
X148495Y14019D01*
X148468Y14074D01*
X148435Y14134D01*
X148389Y14194D01*
X148333Y14255D01*
X148269Y14310D01*
X148259Y14315D01*
X148236Y14333D01*
X148194Y14356D01*
X148144Y14380D01*
X148074Y14407D01*
X147995Y14426D01*
X147908Y14444D01*
X147806Y14449D01*
X147764D01*
X147736Y14444D01*
X147699Y14440D01*
X147658Y14435D01*
X147611Y14426D01*
X147560Y14417D01*
X147454Y14384D01*
X147398Y14361D01*
X147343Y14333D01*
X147287Y14301D01*
X147232Y14268D01*
X147181Y14222D01*
X147130Y14176D01*
X147125Y14171D01*
X147121Y14162D01*
X147107Y14148D01*
X147093Y14125D01*
X147075Y14097D01*
X147051Y14065D01*
X147028Y14023D01*
X147010Y13977D01*
X146987Y13921D01*
X146963Y13861D01*
X146940Y13796D01*
X146922Y13727D01*
X146908Y13648D01*
X146894Y13560D01*
X146889Y13472D01*
X146885Y13375D01*
Y13371D01*
Y13352D01*
Y13320D01*
X146889Y13283D01*
X146894Y13232D01*
X146899Y13181D01*
X146908Y13116D01*
X146917Y13051D01*
X146945Y12913D01*
X146991Y12769D01*
X147019Y12700D01*
X147051Y12635D01*
X147093Y12570D01*
X147135Y12515D01*
X147139Y12510D01*
X147149Y12501D01*
X147162Y12487D01*
X147181Y12468D01*
X147209Y12450D01*
X147236Y12422D01*
X147274Y12399D01*
X147315Y12371D01*
X147361Y12343D01*
X147408Y12320D01*
X147523Y12274D01*
X147588Y12255D01*
X147653Y12241D01*
X147727Y12232D01*
X147801Y12228D01*
X147838D01*
X147875Y12232D01*
X147931Y12237D01*
X147991Y12246D01*
X148060Y12260D01*
X148134Y12278D01*
X148208Y12306D01*
X148213D01*
X148218Y12311D01*
X148241Y12320D01*
X148282Y12339D01*
X148329Y12362D01*
X148384Y12390D01*
X148444Y12422D01*
X148505Y12459D01*
X148560Y12501D01*
Y12913D01*
X147820D01*
Y13454D01*
X149213Y13454D01*
Y12167D01*
X149203Y12158D01*
X149189Y12149D01*
X149176Y12135D01*
X149152Y12117D01*
X149129Y12098D01*
X149065Y12052D01*
X148977Y12001D01*
X148875Y11941D01*
X148759Y11880D01*
X148620Y11825D01*
X148616D01*
X148602Y11820D01*
X148583Y11811D01*
X148555Y11802D01*
X148518Y11793D01*
X148477Y11779D01*
X148430Y11765D01*
X148380Y11751D01*
X148264Y11723D01*
X148130Y11700D01*
X147991Y11682D01*
X147843Y11677D01*
X147792D01*
X147759Y11682D01*
X147713D01*
X147662Y11686D01*
X147607Y11695D01*
X147542Y11705D01*
X147408Y11728D01*
X147260Y11765D01*
X147107Y11816D01*
X147038Y11848D01*
X146963Y11885D01*
X146959Y11890D01*
X146950Y11894D01*
X146926Y11908D01*
X146903Y11927D01*
X146871Y11945D01*
X146839Y11973D01*
X146797Y12005D01*
X146755Y12042D01*
X146663Y12126D01*
X146570Y12232D01*
X146482Y12353D01*
X146403Y12491D01*
Y12496D01*
X146394Y12510D01*
X146385Y12533D01*
X146376Y12561D01*
X146362Y12598D01*
X146343Y12639D01*
X146329Y12690D01*
X146311Y12746D01*
X146292Y12806D01*
X146279Y12875D01*
X146246Y13019D01*
X146228Y13176D01*
X146218Y13348D01*
Y13352D01*
Y13371D01*
Y13398D01*
X146223Y13431D01*
Y13477D01*
X146228Y13528D01*
X146237Y13584D01*
X146246Y13648D01*
X146269Y13783D01*
X146306Y13935D01*
X146357Y14088D01*
X146390Y14162D01*
X146427Y14236D01*
X146431Y14241D01*
X146436Y14255D01*
X146450Y14273D01*
X146464Y14301D01*
X146487Y14333D01*
X146515Y14370D01*
X146547Y14412D01*
X146579Y14458D01*
X146621Y14505D01*
X146667Y14555D01*
X146718Y14606D01*
X146774Y14657D01*
X146834Y14704D01*
X146894Y14754D01*
X147038Y14838D01*
X147042D01*
X147051Y14847D01*
X147070Y14852D01*
X147093Y14865D01*
X147125Y14875D01*
X147158Y14889D01*
X147204Y14903D01*
X147250Y14921D01*
X147301Y14935D01*
X147361Y14949D01*
X147426Y14963D01*
X147491Y14977D01*
X147639Y14995D01*
X147806Y15000D01*
X147861D01*
X147903Y14995D01*
D02*
G37*
G36*
X179146Y14995D02*
X179197Y14990D01*
X179252Y14981D01*
X179317Y14972D01*
X179386Y14958D01*
X179460Y14940D01*
X179539Y14916D01*
X179618Y14889D01*
X179701Y14852D01*
X179780Y14815D01*
X179854Y14768D01*
X179932Y14713D01*
X180002Y14653D01*
X180007D01*
X180011Y14643D01*
X180025Y14629D01*
X180039Y14616D01*
X180057Y14592D01*
X180076Y14565D01*
X180127Y14500D01*
X180178Y14417D01*
X180233Y14315D01*
X180284Y14199D01*
X180330Y14065D01*
X179692Y13912D01*
Y13917D01*
X179687Y13921D01*
Y13935D01*
X179678Y13954D01*
X179664Y13995D01*
X179641Y14051D01*
X179609Y14116D01*
X179567Y14181D01*
X179511Y14245D01*
X179451Y14301D01*
X179442Y14306D01*
X179419Y14324D01*
X179382Y14347D01*
X179331Y14375D01*
X179266Y14403D01*
X179192Y14426D01*
X179109Y14444D01*
X179016Y14449D01*
X178984D01*
X178956Y14444D01*
X178928Y14440D01*
X178891Y14435D01*
X178813Y14417D01*
X178720Y14384D01*
X178623Y14338D01*
X178572Y14310D01*
X178526Y14278D01*
X178479Y14236D01*
X178438Y14190D01*
Y14185D01*
X178428Y14176D01*
X178419Y14162D01*
X178405Y14139D01*
X178387Y14111D01*
X178368Y14079D01*
X178350Y14037D01*
X178331Y13991D01*
X178308Y13935D01*
X178290Y13875D01*
X178271Y13806D01*
X178253Y13732D01*
X178239Y13648D01*
X178229Y13560D01*
X178225Y13463D01*
X178220Y13357D01*
Y13352D01*
Y13329D01*
Y13297D01*
X178225Y13260D01*
Y13209D01*
X178234Y13149D01*
X178239Y13088D01*
X178248Y13019D01*
X178276Y12875D01*
X178313Y12732D01*
X178336Y12663D01*
X178368Y12598D01*
X178401Y12538D01*
X178438Y12487D01*
X178442Y12482D01*
X178447Y12477D01*
X178461Y12464D01*
X178479Y12445D01*
X178526Y12408D01*
X178590Y12362D01*
X178669Y12311D01*
X178766Y12274D01*
X178877Y12241D01*
X178937Y12237D01*
X179002Y12232D01*
X179025D01*
X179044Y12237D01*
X179095Y12241D01*
X179155Y12251D01*
X179220Y12274D01*
X179294Y12302D01*
X179368Y12339D01*
X179442Y12394D01*
X179451Y12403D01*
X179474Y12427D01*
X179507Y12464D01*
X179544Y12519D01*
X179590Y12593D01*
X179632Y12681D01*
X179673Y12788D01*
X179710Y12913D01*
X180340Y12718D01*
Y12714D01*
X180335Y12695D01*
X180326Y12667D01*
X180312Y12630D01*
X180293Y12589D01*
X180275Y12538D01*
X180252Y12482D01*
X180224Y12422D01*
X180159Y12297D01*
X180076Y12167D01*
X179974Y12042D01*
X179919Y11987D01*
X179858Y11936D01*
X179854Y11931D01*
X179845Y11927D01*
X179826Y11913D01*
X179798Y11894D01*
X179766Y11876D01*
X179724Y11857D01*
X179678Y11834D01*
X179627Y11811D01*
X179567Y11783D01*
X179502Y11760D01*
X179433Y11742D01*
X179359Y11723D01*
X179280Y11705D01*
X179192Y11691D01*
X179104Y11686D01*
X179007Y11682D01*
X178979D01*
X178947Y11686D01*
X178900Y11691D01*
X178850Y11695D01*
X178785Y11705D01*
X178715Y11719D01*
X178637Y11737D01*
X178558Y11760D01*
X178475Y11788D01*
X178387Y11825D01*
X178299Y11867D01*
X178211Y11913D01*
X178123Y11973D01*
X178040Y12038D01*
X177961Y12117D01*
X177956Y12121D01*
X177942Y12135D01*
X177924Y12163D01*
X177896Y12195D01*
X177868Y12241D01*
X177831Y12292D01*
X177794Y12357D01*
X177757Y12431D01*
X177720Y12510D01*
X177683Y12598D01*
X177646Y12700D01*
X177619Y12806D01*
X177591Y12917D01*
X177572Y13042D01*
X177558Y13172D01*
X177554Y13311D01*
Y13315D01*
Y13320D01*
Y13348D01*
X177558Y13389D01*
Y13445D01*
X177568Y13510D01*
X177577Y13588D01*
X177586Y13671D01*
X177605Y13769D01*
X177628Y13866D01*
X177656Y13968D01*
X177688Y14069D01*
X177730Y14176D01*
X177776Y14278D01*
X177831Y14375D01*
X177892Y14467D01*
X177966Y14555D01*
X177970Y14560D01*
X177984Y14574D01*
X178007Y14597D01*
X178040Y14625D01*
X178081Y14657D01*
X178132Y14694D01*
X178188Y14736D01*
X178257Y14778D01*
X178331Y14819D01*
X178410Y14861D01*
X178502Y14898D01*
X178595Y14930D01*
X178701Y14958D01*
X178808Y14981D01*
X178928Y14995D01*
X179049Y15000D01*
X179104D01*
X179146Y14995D01*
D02*
G37*
G36*
X196389Y11737D02*
X195741D01*
Y13139D01*
X194478D01*
Y11737D01*
X193830D01*
Y14940D01*
X194478D01*
Y13681D01*
X195741D01*
Y14940D01*
X196389D01*
Y11737D01*
D02*
G37*
G36*
X163300Y11737D02*
X162652D01*
X161352Y13847D01*
Y11737D01*
X160755D01*
Y14940D01*
X161379D01*
X162703Y12783D01*
Y14940D01*
X163300D01*
Y11737D01*
D02*
G37*
G36*
X188739Y11737D02*
X188041D01*
X187411Y14130D01*
X186772Y11737D01*
X186069D01*
X185310Y14940D01*
X185972D01*
X186453Y12737D01*
X187036Y14940D01*
X187814D01*
X188369Y12700D01*
X188860Y14940D01*
X189512D01*
X188739Y11737D01*
D02*
G37*
G36*
X176202Y11737D02*
X175504D01*
X174356Y14940D01*
X175055D01*
X175869Y12570D01*
X176651Y14940D01*
X177341D01*
X176202Y11737D01*
D02*
G37*
G36*
X160070Y13250D02*
Y13246D01*
Y13227D01*
Y13195D01*
Y13158D01*
Y13112D01*
X160065Y13056D01*
Y12996D01*
Y12936D01*
X160056Y12801D01*
X160046Y12663D01*
X160042Y12602D01*
X160033Y12542D01*
X160023Y12487D01*
X160014Y12436D01*
Y12431D01*
X160009Y12427D01*
Y12413D01*
X160005Y12399D01*
X159991Y12353D01*
X159972Y12297D01*
X159945Y12232D01*
X159912Y12167D01*
X159871Y12098D01*
X159820Y12033D01*
X159815Y12024D01*
X159797Y12005D01*
X159764Y11978D01*
X159723Y11941D01*
X159667Y11899D01*
X159602Y11857D01*
X159528Y11811D01*
X159445Y11774D01*
X159440D01*
X159436Y11769D01*
X159422Y11765D01*
X159403Y11760D01*
X159380Y11751D01*
X159352Y11742D01*
X159315Y11732D01*
X159278Y11728D01*
X159190Y11709D01*
X159084Y11691D01*
X158964Y11682D01*
X158829Y11677D01*
X158755D01*
X158714Y11682D01*
X158672D01*
X158621Y11686D01*
X158570Y11691D01*
X158459Y11700D01*
X158343Y11719D01*
X158228Y11746D01*
X158177Y11760D01*
X158131Y11779D01*
X158126D01*
X158121Y11783D01*
X158094Y11797D01*
X158047Y11820D01*
X157996Y11853D01*
X157936Y11894D01*
X157871Y11941D01*
X157811Y11996D01*
X157756Y12056D01*
X157751Y12066D01*
X157733Y12084D01*
X157709Y12121D01*
X157682Y12167D01*
X157654Y12218D01*
X157621Y12278D01*
X157598Y12343D01*
X157575Y12413D01*
Y12417D01*
X157571Y12427D01*
Y12440D01*
X157566Y12464D01*
X157561Y12491D01*
X157557Y12528D01*
X157552Y12570D01*
X157547Y12616D01*
X157538Y12672D01*
X157534Y12732D01*
X157529Y12797D01*
X157524Y12871D01*
X157520Y12950D01*
Y13037D01*
X157515Y13130D01*
Y13227D01*
Y14940D01*
X158163D01*
Y13199D01*
Y13195D01*
Y13181D01*
Y13162D01*
Y13135D01*
Y13098D01*
Y13061D01*
X158168Y12977D01*
Y12885D01*
X158172Y12797D01*
X158177Y12755D01*
Y12718D01*
X158181Y12690D01*
X158186Y12663D01*
Y12653D01*
X158195Y12630D01*
X158209Y12593D01*
X158228Y12547D01*
X158251Y12496D01*
X158288Y12445D01*
X158330Y12390D01*
X158380Y12343D01*
X158390Y12339D01*
X158408Y12325D01*
X158445Y12306D01*
X158492Y12288D01*
X158556Y12265D01*
X158630Y12246D01*
X158714Y12232D01*
X158811Y12228D01*
X158857D01*
X158903Y12232D01*
X158964Y12241D01*
X159033Y12255D01*
X159098Y12274D01*
X159167Y12302D01*
X159223Y12339D01*
X159227Y12343D01*
X159246Y12357D01*
X159269Y12380D01*
X159297Y12413D01*
X159325Y12454D01*
X159352Y12501D01*
X159375Y12552D01*
X159389Y12612D01*
Y12621D01*
X159394Y12644D01*
X159399Y12686D01*
X159408Y12741D01*
Y12778D01*
X159412Y12820D01*
Y12866D01*
X159417Y12913D01*
Y12968D01*
X159422Y13028D01*
Y13093D01*
Y13162D01*
Y14940D01*
X160070D01*
Y13250D01*
D02*
G37*
G36*
X207954Y14953D02*
X207996Y14949D01*
X208038Y14944D01*
X208089Y14935D01*
X208139Y14921D01*
X208255Y14889D01*
X208315Y14865D01*
X208380Y14833D01*
X208440Y14801D01*
X208496Y14764D01*
X208556Y14717D01*
X208607Y14667D01*
X208611Y14662D01*
X208616Y14657D01*
X208630Y14643D01*
X208644Y14625D01*
X208681Y14579D01*
X208723Y14514D01*
X208764Y14435D01*
X208797Y14343D01*
X208824Y14241D01*
X208829Y14190D01*
X208834Y14134D01*
Y14130D01*
Y14116D01*
X208829Y14093D01*
X208824Y14065D01*
X208820Y14028D01*
X208810Y13986D01*
X208797Y13940D01*
X208778Y13889D01*
X208750Y13838D01*
X208723Y13783D01*
X208685Y13727D01*
X208639Y13672D01*
X208584Y13616D01*
X208524Y13560D01*
X208454Y13510D01*
X208371Y13459D01*
X208375D01*
X208385Y13454D01*
X208399D01*
X208417Y13445D01*
X208468Y13431D01*
X208528Y13403D01*
X208598Y13366D01*
X208672Y13320D01*
X208746Y13260D01*
X208810Y13190D01*
X208820Y13181D01*
X208838Y13153D01*
X208861Y13112D01*
X208894Y13051D01*
X208926Y12982D01*
X208949Y12894D01*
X208968Y12801D01*
X208977Y12695D01*
Y12690D01*
Y12677D01*
Y12653D01*
X208972Y12626D01*
X208968Y12589D01*
X208959Y12547D01*
X208949Y12496D01*
X208940Y12445D01*
X208903Y12334D01*
X208875Y12274D01*
X208847Y12209D01*
X208810Y12149D01*
X208769Y12089D01*
X208723Y12029D01*
X208667Y11973D01*
X208662Y11968D01*
X208653Y11959D01*
X208635Y11945D01*
X208611Y11927D01*
X208579Y11904D01*
X208547Y11881D01*
X208500Y11853D01*
X208454Y11825D01*
X208403Y11797D01*
X208343Y11769D01*
X208278Y11746D01*
X208213Y11723D01*
X208139Y11705D01*
X208065Y11691D01*
X207982Y11682D01*
X207899Y11677D01*
X207857D01*
X207825Y11682D01*
X207788Y11686D01*
X207746Y11691D01*
X207700Y11700D01*
X207644Y11709D01*
X207533Y11737D01*
X207413Y11783D01*
X207348Y11811D01*
X207292Y11843D01*
X207232Y11885D01*
X207177Y11927D01*
X207172Y11931D01*
X207163Y11941D01*
X207149Y11955D01*
X207131Y11973D01*
X207107Y11996D01*
X207084Y12029D01*
X207056Y12061D01*
X207029Y12103D01*
X207001Y12149D01*
X206969Y12195D01*
X206918Y12306D01*
X206876Y12436D01*
X206857Y12505D01*
X206848Y12579D01*
X207441Y12653D01*
Y12649D01*
Y12644D01*
X207445Y12616D01*
X207454Y12575D01*
X207468Y12524D01*
X207492Y12468D01*
X207515Y12408D01*
X207552Y12353D01*
X207593Y12302D01*
X207598Y12297D01*
X207616Y12283D01*
X207644Y12265D01*
X207677Y12246D01*
X207723Y12223D01*
X207774Y12204D01*
X207829Y12191D01*
X207894Y12186D01*
X207903D01*
X207927Y12191D01*
X207959Y12195D01*
X208005Y12204D01*
X208056Y12223D01*
X208107Y12246D01*
X208163Y12283D01*
X208213Y12329D01*
X208218Y12334D01*
X208237Y12357D01*
X208255Y12390D01*
X208283Y12431D01*
X208306Y12487D01*
X208329Y12556D01*
X208343Y12635D01*
X208348Y12723D01*
Y12727D01*
Y12732D01*
Y12760D01*
X208343Y12801D01*
X208334Y12857D01*
X208315Y12917D01*
X208292Y12977D01*
X208260Y13037D01*
X208218Y13093D01*
X208213Y13098D01*
X208195Y13116D01*
X208167Y13139D01*
X208135Y13162D01*
X208089Y13190D01*
X208038Y13209D01*
X207982Y13227D01*
X207917Y13232D01*
X207871D01*
X207839Y13227D01*
X207797Y13223D01*
X207746Y13213D01*
X207695Y13199D01*
X207635Y13186D01*
X207700Y13681D01*
X207741D01*
X207788Y13685D01*
X207843Y13690D01*
X207903Y13704D01*
X207968Y13722D01*
X208028Y13750D01*
X208084Y13787D01*
X208089Y13792D01*
X208107Y13810D01*
X208126Y13833D01*
X208153Y13870D01*
X208176Y13912D01*
X208200Y13963D01*
X208213Y14023D01*
X208218Y14093D01*
Y14102D01*
Y14120D01*
X208213Y14148D01*
X208204Y14185D01*
X208195Y14227D01*
X208176Y14269D01*
X208153Y14315D01*
X208121Y14352D01*
X208116Y14356D01*
X208102Y14366D01*
X208084Y14384D01*
X208051Y14403D01*
X208014Y14417D01*
X207973Y14435D01*
X207917Y14444D01*
X207862Y14449D01*
X207834D01*
X207806Y14444D01*
X207769Y14435D01*
X207728Y14421D01*
X207681Y14403D01*
X207635Y14375D01*
X207593Y14338D01*
X207589Y14333D01*
X207575Y14319D01*
X207556Y14292D01*
X207533Y14255D01*
X207510Y14213D01*
X207492Y14157D01*
X207473Y14093D01*
X207459Y14019D01*
X206895Y14111D01*
Y14116D01*
X206899Y14125D01*
Y14139D01*
X206904Y14162D01*
X206918Y14213D01*
X206936Y14282D01*
X206964Y14356D01*
X206992Y14435D01*
X207029Y14509D01*
X207070Y14579D01*
X207075Y14588D01*
X207094Y14606D01*
X207121Y14639D01*
X207158Y14680D01*
X207205Y14722D01*
X207260Y14768D01*
X207330Y14815D01*
X207404Y14856D01*
X207408D01*
X207413Y14861D01*
X207441Y14870D01*
X207487Y14889D01*
X207542Y14907D01*
X207612Y14926D01*
X207695Y14944D01*
X207783Y14953D01*
X207880Y14958D01*
X207922D01*
X207954Y14953D01*
D02*
G37*
G36*
X205464Y14953D02*
X205506Y14949D01*
X205548Y14944D01*
X205599Y14935D01*
X205650Y14921D01*
X205765Y14889D01*
X205825Y14865D01*
X205890Y14833D01*
X205950Y14801D01*
X206006Y14764D01*
X206066Y14717D01*
X206117Y14666D01*
X206122Y14662D01*
X206126Y14657D01*
X206140Y14643D01*
X206154Y14625D01*
X206191Y14579D01*
X206233Y14514D01*
X206274Y14435D01*
X206307Y14343D01*
X206335Y14241D01*
X206339Y14190D01*
X206344Y14134D01*
Y14130D01*
Y14116D01*
X206339Y14093D01*
X206335Y14065D01*
X206330Y14028D01*
X206321Y13986D01*
X206307Y13940D01*
X206288Y13889D01*
X206260Y13838D01*
X206233Y13783D01*
X206196Y13727D01*
X206149Y13672D01*
X206094Y13616D01*
X206034Y13560D01*
X205964Y13510D01*
X205881Y13459D01*
X205886D01*
X205895Y13454D01*
X205909D01*
X205927Y13445D01*
X205978Y13431D01*
X206038Y13403D01*
X206108Y13366D01*
X206182Y13320D01*
X206256Y13260D01*
X206321Y13190D01*
X206330Y13181D01*
X206348Y13153D01*
X206372Y13112D01*
X206404Y13051D01*
X206436Y12982D01*
X206459Y12894D01*
X206478Y12801D01*
X206487Y12695D01*
Y12690D01*
Y12677D01*
Y12653D01*
X206483Y12626D01*
X206478Y12589D01*
X206469Y12547D01*
X206459Y12496D01*
X206450Y12445D01*
X206413Y12334D01*
X206385Y12274D01*
X206358Y12209D01*
X206321Y12149D01*
X206279Y12089D01*
X206233Y12029D01*
X206177Y11973D01*
X206173Y11968D01*
X206163Y11959D01*
X206145Y11945D01*
X206122Y11927D01*
X206089Y11904D01*
X206057Y11881D01*
X206011Y11853D01*
X205964Y11825D01*
X205913Y11797D01*
X205853Y11769D01*
X205788Y11746D01*
X205724Y11723D01*
X205650Y11705D01*
X205576Y11691D01*
X205492Y11682D01*
X205409Y11677D01*
X205367D01*
X205335Y11682D01*
X205298Y11686D01*
X205256Y11691D01*
X205210Y11700D01*
X205154Y11709D01*
X205043Y11737D01*
X204923Y11783D01*
X204858Y11811D01*
X204803Y11843D01*
X204743Y11885D01*
X204687Y11927D01*
X204682Y11931D01*
X204673Y11941D01*
X204659Y11955D01*
X204641Y11973D01*
X204618Y11996D01*
X204594Y12029D01*
X204567Y12061D01*
X204539Y12103D01*
X204511Y12149D01*
X204479Y12195D01*
X204428Y12306D01*
X204386Y12436D01*
X204368Y12505D01*
X204358Y12579D01*
X204951Y12653D01*
Y12649D01*
Y12644D01*
X204955Y12616D01*
X204965Y12575D01*
X204979Y12524D01*
X205002Y12468D01*
X205025Y12408D01*
X205062Y12353D01*
X205104Y12302D01*
X205108Y12297D01*
X205127Y12283D01*
X205154Y12265D01*
X205187Y12246D01*
X205233Y12223D01*
X205284Y12204D01*
X205340Y12191D01*
X205404Y12186D01*
X205414D01*
X205437Y12191D01*
X205469Y12195D01*
X205515Y12204D01*
X205566Y12223D01*
X205617Y12246D01*
X205673Y12283D01*
X205724Y12329D01*
X205728Y12334D01*
X205747Y12357D01*
X205765Y12390D01*
X205793Y12431D01*
X205816Y12487D01*
X205839Y12556D01*
X205853Y12635D01*
X205858Y12723D01*
Y12727D01*
Y12732D01*
Y12760D01*
X205853Y12801D01*
X205844Y12857D01*
X205825Y12917D01*
X205802Y12977D01*
X205770Y13037D01*
X205728Y13093D01*
X205724Y13098D01*
X205705Y13116D01*
X205677Y13139D01*
X205645Y13162D01*
X205599Y13190D01*
X205548Y13209D01*
X205492Y13227D01*
X205427Y13232D01*
X205381D01*
X205349Y13227D01*
X205307Y13223D01*
X205256Y13213D01*
X205205Y13199D01*
X205145Y13186D01*
X205210Y13681D01*
X205252D01*
X205298Y13685D01*
X205353Y13690D01*
X205414Y13704D01*
X205478Y13722D01*
X205539Y13750D01*
X205594Y13787D01*
X205599Y13792D01*
X205617Y13810D01*
X205636Y13833D01*
X205663Y13870D01*
X205687Y13912D01*
X205710Y13963D01*
X205724Y14023D01*
X205728Y14093D01*
Y14102D01*
Y14120D01*
X205724Y14148D01*
X205714Y14185D01*
X205705Y14227D01*
X205687Y14269D01*
X205663Y14315D01*
X205631Y14352D01*
X205626Y14356D01*
X205613Y14366D01*
X205594Y14384D01*
X205562Y14403D01*
X205525Y14417D01*
X205483Y14435D01*
X205427Y14444D01*
X205372Y14449D01*
X205344D01*
X205316Y14444D01*
X205279Y14435D01*
X205238Y14421D01*
X205191Y14403D01*
X205145Y14375D01*
X205104Y14338D01*
X205099Y14333D01*
X205085Y14319D01*
X205066Y14292D01*
X205043Y14255D01*
X205020Y14213D01*
X205002Y14157D01*
X204983Y14093D01*
X204969Y14019D01*
X204405Y14111D01*
Y14116D01*
X204409Y14125D01*
Y14139D01*
X204414Y14162D01*
X204428Y14213D01*
X204446Y14282D01*
X204474Y14356D01*
X204502Y14435D01*
X204539Y14509D01*
X204581Y14579D01*
X204585Y14588D01*
X204604Y14606D01*
X204631Y14639D01*
X204668Y14680D01*
X204715Y14722D01*
X204770Y14768D01*
X204840Y14815D01*
X204914Y14856D01*
X204918D01*
X204923Y14861D01*
X204951Y14870D01*
X204997Y14889D01*
X205053Y14907D01*
X205122Y14926D01*
X205205Y14944D01*
X205293Y14953D01*
X205390Y14958D01*
X205432D01*
X205464Y14953D01*
D02*
G37*
G36*
X211161Y12917D02*
X211559D01*
Y12380D01*
X211161D01*
Y11737D01*
X210569D01*
Y12380D01*
X209255D01*
Y12913D01*
X210643Y14953D01*
X211161D01*
Y12917D01*
D02*
G37*
G36*
X201188Y11737D02*
X200490D01*
X200212Y12464D01*
X198925D01*
X198662Y11737D01*
X197977D01*
X199217Y14940D01*
X199902D01*
X201188Y11737D01*
D02*
G37*
G36*
X193409Y14398D02*
X192465Y14398D01*
Y11737D01*
X191817D01*
Y14398D01*
X190868D01*
Y14940D01*
X193409Y14940D01*
Y14398D01*
D02*
G37*
G36*
X190475Y11737D02*
X189827D01*
Y14940D01*
X190475D01*
Y11737D01*
D02*
G37*
G36*
X165299Y14935D02*
X165387Y14930D01*
X165484Y14926D01*
X165586Y14912D01*
X165683Y14898D01*
X165771Y14875D01*
X165776D01*
X165785Y14870D01*
X165799Y14865D01*
X165817Y14861D01*
X165873Y14838D01*
X165938Y14805D01*
X166012Y14764D01*
X166095Y14713D01*
X166174Y14653D01*
X166252Y14579D01*
X166257D01*
X166262Y14569D01*
X166285Y14542D01*
X166322Y14495D01*
X166364Y14435D01*
X166414Y14361D01*
X166465Y14273D01*
X166516Y14171D01*
X166558Y14060D01*
Y14056D01*
X166563Y14046D01*
X166567Y14028D01*
X166576Y14005D01*
X166581Y13977D01*
X166590Y13940D01*
X166600Y13898D01*
X166613Y13852D01*
X166623Y13801D01*
X166632Y13741D01*
X166641Y13681D01*
X166646Y13611D01*
X166660Y13468D01*
X166664Y13306D01*
Y13301D01*
Y13287D01*
Y13269D01*
Y13241D01*
X166660Y13204D01*
Y13167D01*
X166655Y13121D01*
X166650Y13070D01*
X166641Y12963D01*
X166623Y12852D01*
X166595Y12737D01*
X166563Y12626D01*
Y12621D01*
X166558Y12612D01*
X166549Y12593D01*
X166539Y12565D01*
X166530Y12538D01*
X166512Y12505D01*
X166475Y12422D01*
X166428Y12334D01*
X166368Y12237D01*
X166299Y12144D01*
X166220Y12056D01*
X166211Y12047D01*
X166188Y12029D01*
X166151Y12001D01*
X166100Y11964D01*
X166035Y11922D01*
X165961Y11880D01*
X165868Y11839D01*
X165767Y11802D01*
X165762D01*
X165757Y11797D01*
X165743D01*
X165730Y11793D01*
X165679Y11783D01*
X165614Y11769D01*
X165535Y11756D01*
X165438Y11746D01*
X165322Y11742D01*
X165197Y11737D01*
X163985D01*
Y14940D01*
X165262D01*
X165299Y14935D01*
D02*
G37*
G36*
X150439Y11737D02*
X149791D01*
Y14940D01*
X150439D01*
Y11737D01*
D02*
G37*
G36*
X145714Y11737D02*
X145066D01*
Y14940D01*
X145714D01*
Y11737D01*
D02*
G37*
G36*
X143173Y14935D02*
X143261Y14930D01*
X143358Y14926D01*
X143460Y14912D01*
X143557Y14898D01*
X143645Y14875D01*
X143650D01*
X143659Y14870D01*
X143673Y14865D01*
X143692Y14861D01*
X143747Y14838D01*
X143812Y14805D01*
X143886Y14764D01*
X143969Y14713D01*
X144048Y14653D01*
X144127Y14579D01*
X144131D01*
X144136Y14569D01*
X144159Y14542D01*
X144196Y14495D01*
X144238Y14435D01*
X144289Y14361D01*
X144339Y14273D01*
X144390Y14171D01*
X144432Y14060D01*
Y14056D01*
X144437Y14046D01*
X144441Y14028D01*
X144451Y14005D01*
X144455Y13977D01*
X144464Y13940D01*
X144474Y13898D01*
X144488Y13852D01*
X144497Y13801D01*
X144506Y13741D01*
X144515Y13681D01*
X144520Y13611D01*
X144534Y13468D01*
X144538Y13306D01*
Y13301D01*
Y13287D01*
Y13269D01*
Y13241D01*
X144534Y13204D01*
Y13167D01*
X144529Y13121D01*
X144525Y13070D01*
X144515Y12963D01*
X144497Y12852D01*
X144469Y12737D01*
X144437Y12626D01*
Y12621D01*
X144432Y12612D01*
X144423Y12593D01*
X144413Y12565D01*
X144404Y12538D01*
X144386Y12505D01*
X144349Y12422D01*
X144302Y12334D01*
X144242Y12237D01*
X144173Y12144D01*
X144094Y12056D01*
X144085Y12047D01*
X144062Y12029D01*
X144025Y12001D01*
X143974Y11964D01*
X143909Y11922D01*
X143835Y11880D01*
X143742Y11839D01*
X143641Y11802D01*
X143636D01*
X143631Y11797D01*
X143617D01*
X143604Y11793D01*
X143553Y11783D01*
X143488Y11769D01*
X143409Y11756D01*
X143312Y11746D01*
X143196Y11742D01*
X143071Y11737D01*
X141859D01*
Y14940D01*
X143136D01*
X143173Y14935D01*
D02*
G37*
G36*
X212966Y14953D02*
X213003Y14949D01*
X213050Y14940D01*
X213096Y14930D01*
X213151Y14916D01*
X213212Y14898D01*
X213267Y14875D01*
X213327Y14852D01*
X213387Y14819D01*
X213448Y14778D01*
X213508Y14736D01*
X213563Y14685D01*
X213614Y14625D01*
X213619Y14620D01*
X213628Y14606D01*
X213642Y14583D01*
X213665Y14551D01*
X213688Y14505D01*
X213716Y14449D01*
X213744Y14389D01*
X213772Y14310D01*
X213799Y14227D01*
X213832Y14130D01*
X213855Y14023D01*
X213878Y13903D01*
X213901Y13773D01*
X213915Y13634D01*
X213924Y13482D01*
X213929Y13315D01*
Y13311D01*
Y13306D01*
Y13292D01*
Y13274D01*
Y13227D01*
X213924Y13167D01*
X213920Y13093D01*
X213910Y13005D01*
X213901Y12913D01*
X213892Y12811D01*
X213873Y12704D01*
X213850Y12593D01*
X213827Y12487D01*
X213795Y12380D01*
X213762Y12274D01*
X213716Y12177D01*
X213670Y12084D01*
X213614Y12005D01*
X213610Y12001D01*
X213600Y11992D01*
X213586Y11973D01*
X213568Y11955D01*
X213540Y11931D01*
X213508Y11904D01*
X213466Y11871D01*
X213424Y11843D01*
X213374Y11811D01*
X213323Y11779D01*
X213262Y11751D01*
X213198Y11728D01*
X213128Y11709D01*
X213050Y11691D01*
X212971Y11682D01*
X212888Y11677D01*
X212869D01*
X212841Y11682D01*
X212809D01*
X212772Y11686D01*
X212726Y11695D01*
X212675Y11705D01*
X212619Y11723D01*
X212559Y11742D01*
X212499Y11765D01*
X212434Y11793D01*
X212374Y11830D01*
X212309Y11867D01*
X212249Y11918D01*
X212189Y11968D01*
X212133Y12033D01*
X212129Y12038D01*
X212119Y12052D01*
X212105Y12075D01*
X212092Y12103D01*
X212068Y12144D01*
X212045Y12195D01*
X212018Y12260D01*
X211994Y12329D01*
X211967Y12413D01*
X211939Y12505D01*
X211916Y12612D01*
X211897Y12727D01*
X211879Y12857D01*
X211865Y13000D01*
X211856Y13153D01*
X211851Y13320D01*
Y13324D01*
Y13329D01*
Y13343D01*
Y13361D01*
Y13408D01*
X211856Y13468D01*
X211860Y13542D01*
X211869Y13630D01*
X211879Y13722D01*
X211888Y13824D01*
X211906Y13931D01*
X211925Y14037D01*
X211953Y14148D01*
X211981Y14255D01*
X212018Y14356D01*
X212059Y14454D01*
X212105Y14546D01*
X212161Y14625D01*
X212166Y14629D01*
X212175Y14639D01*
X212189Y14657D01*
X212212Y14676D01*
X212235Y14704D01*
X212267Y14731D01*
X212309Y14759D01*
X212351Y14791D01*
X212402Y14824D01*
X212453Y14852D01*
X212513Y14879D01*
X212578Y14907D01*
X212647Y14926D01*
X212726Y14944D01*
X212804Y14953D01*
X212888Y14958D01*
X212934D01*
X212966Y14953D01*
D02*
G37*
G36*
X182381Y14995D02*
X182427D01*
X182487Y14986D01*
X182556Y14977D01*
X182635Y14963D01*
X182718Y14944D01*
X182806Y14921D01*
X182899Y14893D01*
X182992Y14856D01*
X183089Y14815D01*
X183181Y14764D01*
X183274Y14704D01*
X183362Y14634D01*
X183445Y14555D01*
X183450Y14551D01*
X183464Y14537D01*
X183487Y14509D01*
X183510Y14477D01*
X183542Y14430D01*
X183579Y14375D01*
X183616Y14310D01*
X183658Y14236D01*
X183700Y14157D01*
X183737Y14065D01*
X183774Y13963D01*
X183806Y13857D01*
X183834Y13736D01*
X183852Y13611D01*
X183866Y13477D01*
X183871Y13334D01*
Y13324D01*
Y13301D01*
X183866Y13260D01*
Y13204D01*
X183857Y13139D01*
X183848Y13065D01*
X183834Y12977D01*
X183820Y12889D01*
X183797Y12792D01*
X183769Y12690D01*
X183732Y12589D01*
X183690Y12487D01*
X183644Y12390D01*
X183584Y12292D01*
X183519Y12200D01*
X183445Y12112D01*
X183440Y12107D01*
X183427Y12093D01*
X183403Y12070D01*
X183366Y12042D01*
X183325Y12010D01*
X183274Y11973D01*
X183214Y11936D01*
X183149Y11894D01*
X183070Y11853D01*
X182987Y11816D01*
X182894Y11779D01*
X182792Y11746D01*
X182686Y11719D01*
X182570Y11695D01*
X182450Y11682D01*
X182320Y11677D01*
X182288D01*
X182251Y11682D01*
X182205Y11686D01*
X182145Y11691D01*
X182075Y11700D01*
X181997Y11714D01*
X181913Y11732D01*
X181821Y11756D01*
X181733Y11783D01*
X181636Y11820D01*
X181543Y11862D01*
X181446Y11908D01*
X181358Y11968D01*
X181270Y12033D01*
X181187Y12112D01*
X181182Y12117D01*
X181168Y12130D01*
X181150Y12158D01*
X181122Y12191D01*
X181089Y12237D01*
X181052Y12292D01*
X181015Y12353D01*
X180978Y12427D01*
X180937Y12505D01*
X180900Y12598D01*
X180863Y12695D01*
X180830Y12801D01*
X180803Y12917D01*
X180784Y13042D01*
X180770Y13176D01*
X180765Y13315D01*
Y13320D01*
Y13338D01*
Y13361D01*
X180770Y13398D01*
Y13440D01*
X180775Y13486D01*
X180779Y13542D01*
X180784Y13602D01*
X180803Y13732D01*
X180826Y13870D01*
X180863Y14009D01*
X180909Y14139D01*
Y14144D01*
X180914Y14148D01*
X180923Y14162D01*
X180927Y14181D01*
X180955Y14227D01*
X180988Y14287D01*
X181029Y14356D01*
X181080Y14426D01*
X181140Y14505D01*
X181205Y14579D01*
X181210Y14583D01*
X181214Y14588D01*
X181238Y14611D01*
X181279Y14648D01*
X181330Y14690D01*
X181390Y14736D01*
X181460Y14787D01*
X181538Y14833D01*
X181622Y14870D01*
X181626D01*
X181636Y14875D01*
X181654Y14884D01*
X181677Y14889D01*
X181705Y14903D01*
X181737Y14912D01*
X181779Y14921D01*
X181821Y14935D01*
X181922Y14958D01*
X182038Y14981D01*
X182172Y14995D01*
X182311Y15000D01*
X182344D01*
X182381Y14995D01*
D02*
G37*
G36*
X171926Y14953D02*
X171963Y14949D01*
X172010Y14940D01*
X172056Y14930D01*
X172111Y14916D01*
X172172Y14898D01*
X172227Y14875D01*
X172287Y14852D01*
X172347Y14819D01*
X172408Y14778D01*
X172468Y14736D01*
X172523Y14685D01*
X172574Y14625D01*
X172579Y14620D01*
X172588Y14606D01*
X172602Y14583D01*
X172625Y14551D01*
X172648Y14505D01*
X172676Y14449D01*
X172704Y14389D01*
X172731Y14310D01*
X172759Y14227D01*
X172792Y14130D01*
X172815Y14023D01*
X172838Y13903D01*
X172861Y13773D01*
X172875Y13634D01*
X172884Y13482D01*
X172889Y13315D01*
Y13311D01*
Y13306D01*
Y13292D01*
Y13274D01*
Y13227D01*
X172884Y13167D01*
X172880Y13093D01*
X172870Y13005D01*
X172861Y12913D01*
X172852Y12811D01*
X172833Y12704D01*
X172810Y12593D01*
X172787Y12487D01*
X172755Y12380D01*
X172722Y12274D01*
X172676Y12177D01*
X172630Y12084D01*
X172574Y12005D01*
X172570Y12001D01*
X172560Y11992D01*
X172546Y11973D01*
X172528Y11955D01*
X172500Y11931D01*
X172468Y11904D01*
X172426Y11871D01*
X172384Y11843D01*
X172333Y11811D01*
X172283Y11779D01*
X172222Y11751D01*
X172158Y11728D01*
X172088Y11709D01*
X172010Y11691D01*
X171931Y11682D01*
X171848Y11677D01*
X171829D01*
X171801Y11682D01*
X171769D01*
X171732Y11686D01*
X171686Y11695D01*
X171635Y11705D01*
X171579Y11723D01*
X171519Y11742D01*
X171459Y11765D01*
X171394Y11793D01*
X171334Y11830D01*
X171269Y11867D01*
X171209Y11918D01*
X171149Y11968D01*
X171093Y12033D01*
X171089Y12038D01*
X171079Y12052D01*
X171065Y12075D01*
X171052Y12103D01*
X171028Y12144D01*
X171005Y12195D01*
X170978Y12260D01*
X170954Y12329D01*
X170927Y12413D01*
X170899Y12505D01*
X170876Y12612D01*
X170857Y12727D01*
X170839Y12857D01*
X170825Y13000D01*
X170816Y13153D01*
X170811Y13320D01*
Y13324D01*
Y13329D01*
Y13343D01*
Y13361D01*
Y13408D01*
X170816Y13468D01*
X170820Y13542D01*
X170829Y13630D01*
X170839Y13722D01*
X170848Y13824D01*
X170866Y13931D01*
X170885Y14037D01*
X170913Y14148D01*
X170941Y14255D01*
X170978Y14356D01*
X171019Y14454D01*
X171065Y14546D01*
X171121Y14625D01*
X171126Y14629D01*
X171135Y14639D01*
X171149Y14657D01*
X171172Y14676D01*
X171195Y14704D01*
X171227Y14731D01*
X171269Y14759D01*
X171311Y14791D01*
X171362Y14824D01*
X171413Y14852D01*
X171473Y14879D01*
X171538Y14907D01*
X171607Y14926D01*
X171686Y14944D01*
X171764Y14953D01*
X171848Y14958D01*
X171894D01*
X171926Y14953D01*
D02*
G37*
G36*
X169427D02*
X169469Y14949D01*
X169510Y14944D01*
X169561Y14940D01*
X169612Y14930D01*
X169728Y14903D01*
X169848Y14861D01*
X169904Y14833D01*
X169964Y14801D01*
X170015Y14764D01*
X170066Y14722D01*
X170070Y14717D01*
X170075Y14713D01*
X170089Y14699D01*
X170107Y14680D01*
X170126Y14657D01*
X170145Y14629D01*
X170195Y14560D01*
X170242Y14472D01*
X170279Y14375D01*
X170311Y14259D01*
X170316Y14194D01*
X170320Y14130D01*
Y14125D01*
Y14120D01*
Y14093D01*
X170316Y14051D01*
X170306Y13995D01*
X170293Y13935D01*
X170269Y13870D01*
X170242Y13801D01*
X170200Y13732D01*
X170195Y13722D01*
X170177Y13704D01*
X170154Y13671D01*
X170117Y13634D01*
X170070Y13588D01*
X170015Y13547D01*
X169950Y13505D01*
X169876Y13468D01*
X169881D01*
X169890Y13463D01*
X169904Y13459D01*
X169922Y13449D01*
X169969Y13422D01*
X170029Y13385D01*
X170094Y13343D01*
X170163Y13287D01*
X170228Y13223D01*
X170283Y13149D01*
X170288Y13139D01*
X170306Y13112D01*
X170330Y13070D01*
X170353Y13014D01*
X170381Y12945D01*
X170399Y12862D01*
X170418Y12774D01*
X170422Y12677D01*
Y12672D01*
Y12658D01*
Y12635D01*
X170418Y12602D01*
X170413Y12565D01*
X170408Y12519D01*
X170399Y12473D01*
X170385Y12422D01*
X170353Y12306D01*
X170330Y12246D01*
X170302Y12186D01*
X170269Y12126D01*
X170228Y12066D01*
X170186Y12010D01*
X170135Y11955D01*
X170131Y11950D01*
X170121Y11941D01*
X170107Y11927D01*
X170084Y11913D01*
X170057Y11890D01*
X170020Y11867D01*
X169983Y11843D01*
X169936Y11816D01*
X169885Y11788D01*
X169825Y11765D01*
X169765Y11742D01*
X169700Y11719D01*
X169626Y11705D01*
X169548Y11691D01*
X169469Y11682D01*
X169381Y11677D01*
X169339D01*
X169307Y11682D01*
X169270Y11686D01*
X169228Y11691D01*
X169182Y11695D01*
X169126Y11705D01*
X169011Y11732D01*
X168890Y11774D01*
X168830Y11797D01*
X168770Y11830D01*
X168710Y11862D01*
X168654Y11904D01*
X168650Y11908D01*
X168640Y11918D01*
X168622Y11931D01*
X168599Y11955D01*
X168576Y11982D01*
X168548Y12015D01*
X168515Y12056D01*
X168483Y12098D01*
X168451Y12149D01*
X168418Y12204D01*
X168391Y12265D01*
X168367Y12334D01*
X168344Y12403D01*
X168326Y12482D01*
X168316Y12561D01*
X168312Y12649D01*
Y12653D01*
Y12663D01*
Y12677D01*
Y12695D01*
X168316Y12746D01*
X168326Y12806D01*
X168344Y12880D01*
X168363Y12963D01*
X168395Y13047D01*
X168437Y13130D01*
Y13135D01*
X168441Y13139D01*
X168460Y13167D01*
X168492Y13204D01*
X168539Y13255D01*
X168594Y13311D01*
X168664Y13366D01*
X168747Y13417D01*
X168844Y13468D01*
X168839D01*
X168835Y13472D01*
X168807Y13486D01*
X168765Y13510D01*
X168714Y13537D01*
X168654Y13579D01*
X168599Y13625D01*
X168543Y13681D01*
X168497Y13741D01*
X168492Y13750D01*
X168478Y13773D01*
X168465Y13806D01*
X168446Y13857D01*
X168423Y13912D01*
X168409Y13982D01*
X168395Y14051D01*
X168391Y14130D01*
Y14134D01*
Y14144D01*
Y14162D01*
X168395Y14190D01*
X168400Y14218D01*
X168404Y14255D01*
X168423Y14338D01*
X168451Y14430D01*
X168497Y14532D01*
X168525Y14579D01*
X168557Y14629D01*
X168599Y14676D01*
X168640Y14722D01*
X168645Y14727D01*
X168654Y14731D01*
X168668Y14745D01*
X168687Y14759D01*
X168714Y14778D01*
X168742Y14796D01*
X168779Y14819D01*
X168826Y14842D01*
X168872Y14861D01*
X168923Y14884D01*
X168983Y14903D01*
X169048Y14921D01*
X169117Y14935D01*
X169191Y14949D01*
X169270Y14953D01*
X169353Y14958D01*
X169399D01*
X169427Y14953D01*
D02*
G37*
G36*
X155525Y14995D02*
X155571D01*
X155631Y14986D01*
X155701Y14977D01*
X155780Y14963D01*
X155863Y14944D01*
X155951Y14921D01*
X156043Y14893D01*
X156136Y14856D01*
X156233Y14815D01*
X156326Y14764D01*
X156418Y14704D01*
X156506Y14634D01*
X156589Y14555D01*
X156594Y14551D01*
X156608Y14537D01*
X156631Y14509D01*
X156654Y14477D01*
X156687Y14430D01*
X156724Y14375D01*
X156761Y14310D01*
X156802Y14236D01*
X156844Y14157D01*
X156881Y14065D01*
X156918Y13963D01*
X156950Y13857D01*
X156978Y13736D01*
X156997Y13611D01*
X157011Y13477D01*
X157015Y13334D01*
Y13324D01*
Y13301D01*
X157011Y13260D01*
Y13204D01*
X157001Y13139D01*
X156992Y13065D01*
X156978Y12977D01*
X156964Y12889D01*
X156941Y12792D01*
X156913Y12690D01*
X156876Y12589D01*
X156835Y12487D01*
X156788Y12390D01*
X156728Y12292D01*
X156663Y12200D01*
X156589Y12112D01*
X156585Y12107D01*
X156571Y12093D01*
X156548Y12070D01*
X156511Y12042D01*
X156469Y12010D01*
X156418Y11973D01*
X156358Y11936D01*
X156293Y11894D01*
X156215Y11853D01*
X156131Y11816D01*
X156039Y11779D01*
X155937Y11746D01*
X155830Y11719D01*
X155715Y11695D01*
X155594Y11682D01*
X155465Y11677D01*
X155432D01*
X155395Y11682D01*
X155349Y11686D01*
X155289Y11691D01*
X155220Y11700D01*
X155141Y11714D01*
X155058Y11732D01*
X154965Y11756D01*
X154877Y11783D01*
X154780Y11820D01*
X154687Y11862D01*
X154590Y11908D01*
X154502Y11968D01*
X154414Y12033D01*
X154331Y12112D01*
X154326Y12117D01*
X154313Y12130D01*
X154294Y12158D01*
X154266Y12191D01*
X154234Y12237D01*
X154197Y12292D01*
X154160Y12353D01*
X154123Y12427D01*
X154081Y12505D01*
X154044Y12598D01*
X154007Y12695D01*
X153975Y12801D01*
X153947Y12917D01*
X153928Y13042D01*
X153915Y13176D01*
X153910Y13315D01*
Y13320D01*
Y13338D01*
Y13361D01*
X153915Y13398D01*
Y13440D01*
X153919Y13486D01*
X153924Y13542D01*
X153928Y13602D01*
X153947Y13732D01*
X153970Y13870D01*
X154007Y14009D01*
X154053Y14139D01*
Y14144D01*
X154058Y14148D01*
X154067Y14162D01*
X154072Y14181D01*
X154100Y14227D01*
X154132Y14287D01*
X154174Y14356D01*
X154225Y14426D01*
X154285Y14505D01*
X154350Y14579D01*
X154354Y14583D01*
X154359Y14588D01*
X154382Y14611D01*
X154424Y14648D01*
X154475Y14690D01*
X154535Y14736D01*
X154604Y14787D01*
X154683Y14833D01*
X154766Y14870D01*
X154771D01*
X154780Y14875D01*
X154798Y14884D01*
X154822Y14889D01*
X154849Y14903D01*
X154882Y14912D01*
X154923Y14921D01*
X154965Y14935D01*
X155067Y14958D01*
X155183Y14981D01*
X155317Y14995D01*
X155456Y15000D01*
X155488D01*
X155525Y14995D01*
D02*
G37*
%LPC*%
G36*
X210569Y14019D02*
X209824Y12917D01*
X210569D01*
Y14019D01*
D02*
G37*
G36*
X199555Y14194D02*
X199120Y13005D01*
X200004D01*
X199555Y14194D01*
D02*
G37*
G36*
X165054Y14398D02*
X164633D01*
Y12278D01*
X165202D01*
X165262Y12283D01*
X165327D01*
X165392Y12292D01*
X165452Y12297D01*
X165503Y12306D01*
X165512D01*
X165531Y12316D01*
X165558Y12325D01*
X165595Y12339D01*
X165637Y12357D01*
X165679Y12380D01*
X165720Y12408D01*
X165762Y12440D01*
X165767Y12445D01*
X165780Y12459D01*
X165799Y12482D01*
X165822Y12515D01*
X165845Y12556D01*
X165878Y12607D01*
X165901Y12672D01*
X165929Y12746D01*
Y12751D01*
X165933Y12755D01*
Y12769D01*
X165938Y12788D01*
X165947Y12806D01*
X165952Y12834D01*
X165966Y12903D01*
X165975Y12987D01*
X165989Y13084D01*
X165993Y13204D01*
X165998Y13334D01*
Y13338D01*
Y13352D01*
Y13371D01*
Y13394D01*
Y13426D01*
X165993Y13463D01*
X165989Y13542D01*
X165979Y13634D01*
X165970Y13732D01*
X165952Y13820D01*
X165929Y13903D01*
Y13908D01*
X165924Y13912D01*
X165915Y13935D01*
X165901Y13972D01*
X165882Y14019D01*
X165854Y14065D01*
X165822Y14116D01*
X165785Y14167D01*
X165743Y14213D01*
X165739Y14218D01*
X165725Y14231D01*
X165697Y14250D01*
X165665Y14273D01*
X165618Y14301D01*
X165568Y14324D01*
X165512Y14347D01*
X165447Y14366D01*
X165443D01*
X165419Y14370D01*
X165382Y14375D01*
X165332Y14384D01*
X165299D01*
X165257Y14389D01*
X165216D01*
X165170Y14393D01*
X165114D01*
X165054Y14398D01*
D02*
G37*
G36*
X142928Y14398D02*
X142507D01*
Y12278D01*
X143076D01*
X143136Y12283D01*
X143201D01*
X143266Y12292D01*
X143326Y12297D01*
X143377Y12306D01*
X143386D01*
X143405Y12316D01*
X143432Y12325D01*
X143469Y12339D01*
X143511Y12357D01*
X143553Y12380D01*
X143594Y12408D01*
X143636Y12440D01*
X143641Y12445D01*
X143655Y12459D01*
X143673Y12482D01*
X143696Y12515D01*
X143719Y12556D01*
X143752Y12607D01*
X143775Y12672D01*
X143803Y12746D01*
Y12751D01*
X143807Y12755D01*
Y12769D01*
X143812Y12788D01*
X143821Y12806D01*
X143826Y12834D01*
X143840Y12903D01*
X143849Y12987D01*
X143863Y13084D01*
X143867Y13204D01*
X143872Y13334D01*
Y13338D01*
Y13352D01*
Y13371D01*
Y13394D01*
Y13426D01*
X143867Y13463D01*
X143863Y13542D01*
X143854Y13634D01*
X143844Y13732D01*
X143826Y13820D01*
X143803Y13903D01*
Y13908D01*
X143798Y13912D01*
X143789Y13935D01*
X143775Y13972D01*
X143756Y14019D01*
X143729Y14065D01*
X143696Y14116D01*
X143659Y14167D01*
X143617Y14213D01*
X143613Y14218D01*
X143599Y14231D01*
X143571Y14250D01*
X143539Y14273D01*
X143493Y14301D01*
X143442Y14324D01*
X143386Y14347D01*
X143321Y14366D01*
X143317D01*
X143294Y14370D01*
X143257Y14375D01*
X143206Y14384D01*
X143173D01*
X143132Y14389D01*
X143090D01*
X143044Y14393D01*
X142988D01*
X142928Y14398D01*
D02*
G37*
G36*
X212888Y14449D02*
X212869D01*
X212846Y14444D01*
X212823Y14440D01*
X212790Y14430D01*
X212758Y14417D01*
X212721Y14398D01*
X212689Y14375D01*
X212684Y14370D01*
X212675Y14361D01*
X212661Y14343D01*
X212642Y14319D01*
X212619Y14282D01*
X212601Y14241D01*
X212578Y14185D01*
X212559Y14120D01*
Y14116D01*
X212554Y14111D01*
Y14093D01*
X212550Y14074D01*
X212545Y14046D01*
X212541Y14014D01*
X212536Y13977D01*
X212531Y13931D01*
X212522Y13875D01*
X212517Y13820D01*
X212513Y13750D01*
X212508Y13681D01*
X212503Y13597D01*
Y13514D01*
X212499Y13417D01*
Y13315D01*
Y13311D01*
Y13292D01*
Y13260D01*
Y13223D01*
Y13176D01*
X212503Y13125D01*
Y13065D01*
X212508Y13005D01*
X212513Y12876D01*
X212522Y12746D01*
X212527Y12686D01*
X212536Y12630D01*
X212545Y12579D01*
X212554Y12533D01*
X212559Y12524D01*
X212564Y12501D01*
X212578Y12464D01*
X212591Y12422D01*
X212615Y12376D01*
X212638Y12329D01*
X212665Y12288D01*
X212693Y12255D01*
X212698Y12251D01*
X212707Y12246D01*
X212726Y12232D01*
X212749Y12223D01*
X212777Y12209D01*
X212809Y12195D01*
X212846Y12191D01*
X212888Y12186D01*
X212906D01*
X212929Y12191D01*
X212952Y12195D01*
X212985Y12204D01*
X213017Y12214D01*
X213050Y12232D01*
X213082Y12255D01*
X213087Y12260D01*
X213096Y12269D01*
X213114Y12288D01*
X213133Y12316D01*
X213151Y12348D01*
X213175Y12394D01*
X213198Y12445D01*
X213216Y12510D01*
Y12515D01*
X213221Y12519D01*
Y12538D01*
X213225Y12556D01*
X213230Y12584D01*
X213235Y12616D01*
X213244Y12653D01*
X213249Y12700D01*
X213253Y12751D01*
X213262Y12811D01*
X213267Y12876D01*
X213272Y12950D01*
X213276Y13028D01*
Y13116D01*
X213281Y13213D01*
Y13315D01*
Y13320D01*
Y13338D01*
Y13371D01*
Y13408D01*
Y13454D01*
X213276Y13505D01*
Y13565D01*
X213272Y13625D01*
X213267Y13755D01*
X213258Y13880D01*
X213249Y13940D01*
X213239Y14000D01*
X213230Y14051D01*
X213221Y14093D01*
Y14097D01*
X213216Y14102D01*
X213212Y14125D01*
X213198Y14162D01*
X213184Y14208D01*
X213161Y14255D01*
X213138Y14301D01*
X213110Y14343D01*
X213082Y14375D01*
X213077Y14380D01*
X213068Y14389D01*
X213050Y14398D01*
X213026Y14412D01*
X212999Y14426D01*
X212966Y14440D01*
X212929Y14444D01*
X212888Y14449D01*
D02*
G37*
G36*
X182320Y14449D02*
X182283D01*
X182256Y14444D01*
X182219Y14440D01*
X182182Y14435D01*
X182089Y14417D01*
X181987Y14380D01*
X181932Y14361D01*
X181876Y14333D01*
X181825Y14301D01*
X181770Y14264D01*
X181719Y14222D01*
X181673Y14171D01*
X181668Y14167D01*
X181663Y14157D01*
X181649Y14144D01*
X181636Y14120D01*
X181617Y14088D01*
X181599Y14056D01*
X181575Y14014D01*
X181552Y13963D01*
X181529Y13908D01*
X181506Y13847D01*
X181487Y13778D01*
X181469Y13704D01*
X181455Y13621D01*
X181441Y13533D01*
X181437Y13440D01*
X181432Y13338D01*
Y13334D01*
Y13315D01*
Y13287D01*
X181437Y13250D01*
X181441Y13204D01*
X181446Y13149D01*
X181455Y13093D01*
X181464Y13028D01*
X181492Y12894D01*
X181538Y12760D01*
X181566Y12690D01*
X181599Y12626D01*
X181640Y12565D01*
X181682Y12510D01*
X181686Y12505D01*
X181696Y12496D01*
X181710Y12482D01*
X181728Y12468D01*
X181751Y12445D01*
X181784Y12422D01*
X181816Y12394D01*
X181858Y12371D01*
X181946Y12316D01*
X182057Y12274D01*
X182117Y12255D01*
X182182Y12241D01*
X182251Y12232D01*
X182320Y12228D01*
X182357D01*
X182385Y12232D01*
X182418Y12237D01*
X182455Y12241D01*
X182543Y12265D01*
X182644Y12297D01*
X182695Y12320D01*
X182751Y12343D01*
X182802Y12376D01*
X182857Y12413D01*
X182908Y12454D01*
X182954Y12505D01*
X182959Y12510D01*
X182964Y12519D01*
X182978Y12533D01*
X182992Y12556D01*
X183015Y12589D01*
X183033Y12626D01*
X183056Y12667D01*
X183079Y12718D01*
X183103Y12774D01*
X183126Y12834D01*
X183149Y12903D01*
X183167Y12982D01*
X183181Y13061D01*
X183195Y13149D01*
X183200Y13246D01*
X183204Y13348D01*
Y13352D01*
Y13371D01*
Y13398D01*
X183200Y13440D01*
X183195Y13486D01*
X183191Y13537D01*
X183186Y13597D01*
X183172Y13658D01*
X183144Y13792D01*
X183103Y13931D01*
X183075Y14000D01*
X183042Y14060D01*
X183001Y14120D01*
X182959Y14176D01*
X182954Y14181D01*
X182950Y14190D01*
X182936Y14199D01*
X182917Y14218D01*
X182890Y14241D01*
X182862Y14264D01*
X182830Y14287D01*
X182788Y14315D01*
X182746Y14338D01*
X182695Y14361D01*
X182589Y14407D01*
X182529Y14426D01*
X182464Y14435D01*
X182395Y14444D01*
X182320Y14449D01*
D02*
G37*
G36*
X171848Y14449D02*
X171829D01*
X171806Y14444D01*
X171783Y14440D01*
X171750Y14430D01*
X171718Y14417D01*
X171681Y14398D01*
X171649Y14375D01*
X171644Y14370D01*
X171635Y14361D01*
X171621Y14343D01*
X171602Y14319D01*
X171579Y14282D01*
X171561Y14241D01*
X171538Y14185D01*
X171519Y14120D01*
Y14116D01*
X171514Y14111D01*
Y14093D01*
X171510Y14074D01*
X171505Y14046D01*
X171500Y14014D01*
X171496Y13977D01*
X171491Y13931D01*
X171482Y13875D01*
X171477Y13820D01*
X171473Y13750D01*
X171468Y13681D01*
X171463Y13597D01*
Y13514D01*
X171459Y13417D01*
Y13315D01*
Y13311D01*
Y13292D01*
Y13260D01*
Y13223D01*
Y13176D01*
X171463Y13125D01*
Y13065D01*
X171468Y13005D01*
X171473Y12875D01*
X171482Y12746D01*
X171487Y12686D01*
X171496Y12630D01*
X171505Y12579D01*
X171514Y12533D01*
X171519Y12524D01*
X171524Y12501D01*
X171538Y12464D01*
X171551Y12422D01*
X171575Y12376D01*
X171598Y12329D01*
X171625Y12288D01*
X171653Y12255D01*
X171658Y12251D01*
X171667Y12246D01*
X171686Y12232D01*
X171709Y12223D01*
X171736Y12209D01*
X171769Y12195D01*
X171806Y12191D01*
X171848Y12186D01*
X171866D01*
X171889Y12191D01*
X171912Y12195D01*
X171945Y12204D01*
X171977Y12214D01*
X172010Y12232D01*
X172042Y12255D01*
X172047Y12260D01*
X172056Y12269D01*
X172074Y12288D01*
X172093Y12316D01*
X172111Y12348D01*
X172135Y12394D01*
X172158Y12445D01*
X172176Y12510D01*
Y12515D01*
X172181Y12519D01*
Y12538D01*
X172185Y12556D01*
X172190Y12584D01*
X172195Y12616D01*
X172204Y12653D01*
X172209Y12700D01*
X172213Y12751D01*
X172222Y12811D01*
X172227Y12875D01*
X172232Y12950D01*
X172236Y13028D01*
Y13116D01*
X172241Y13213D01*
Y13315D01*
Y13320D01*
Y13338D01*
Y13371D01*
Y13408D01*
Y13454D01*
X172236Y13505D01*
Y13565D01*
X172232Y13625D01*
X172227Y13755D01*
X172218Y13880D01*
X172209Y13940D01*
X172199Y14000D01*
X172190Y14051D01*
X172181Y14093D01*
Y14097D01*
X172176Y14102D01*
X172172Y14125D01*
X172158Y14162D01*
X172144Y14208D01*
X172121Y14255D01*
X172097Y14301D01*
X172070Y14343D01*
X172042Y14375D01*
X172037Y14380D01*
X172028Y14389D01*
X172010Y14398D01*
X171986Y14412D01*
X171959Y14426D01*
X171926Y14440D01*
X171889Y14444D01*
X171848Y14449D01*
D02*
G37*
G36*
X169358Y14472D02*
X169330D01*
X169298Y14467D01*
X169256Y14458D01*
X169210Y14444D01*
X169163Y14426D01*
X169117Y14403D01*
X169075Y14366D01*
X169071Y14361D01*
X169062Y14347D01*
X169043Y14324D01*
X169025Y14292D01*
X169006Y14250D01*
X168988Y14204D01*
X168978Y14148D01*
X168974Y14083D01*
Y14074D01*
Y14051D01*
X168978Y14019D01*
X168988Y13977D01*
X168997Y13931D01*
X169015Y13884D01*
X169043Y13838D01*
X169075Y13796D01*
X169080Y13792D01*
X169094Y13783D01*
X169117Y13764D01*
X169150Y13746D01*
X169191Y13727D01*
X169237Y13709D01*
X169293Y13699D01*
X169353Y13695D01*
X169381D01*
X169413Y13699D01*
X169455Y13709D01*
X169501Y13718D01*
X169548Y13736D01*
X169594Y13764D01*
X169635Y13796D01*
X169640Y13801D01*
X169654Y13815D01*
X169668Y13838D01*
X169691Y13875D01*
X169709Y13917D01*
X169723Y13963D01*
X169737Y14023D01*
X169742Y14088D01*
Y14097D01*
Y14116D01*
X169737Y14148D01*
X169728Y14185D01*
X169714Y14231D01*
X169696Y14278D01*
X169672Y14324D01*
X169635Y14366D01*
X169631Y14370D01*
X169617Y14384D01*
X169594Y14398D01*
X169561Y14421D01*
X169520Y14440D01*
X169473Y14454D01*
X169418Y14467D01*
X169358Y14472D01*
D02*
G37*
G36*
X169362Y13209D02*
X169325D01*
X169284Y13199D01*
X169237Y13190D01*
X169182Y13172D01*
X169126Y13144D01*
X169071Y13102D01*
X169025Y13051D01*
X169020Y13042D01*
X169006Y13024D01*
X168992Y12991D01*
X168974Y12950D01*
X168951Y12899D01*
X168937Y12843D01*
X168923Y12778D01*
X168918Y12714D01*
Y12709D01*
Y12704D01*
Y12690D01*
Y12672D01*
X168927Y12626D01*
X168937Y12565D01*
X168951Y12501D01*
X168974Y12436D01*
X169006Y12371D01*
X169048Y12311D01*
X169052Y12306D01*
X169071Y12288D01*
X169099Y12269D01*
X169136Y12241D01*
X169182Y12218D01*
X169237Y12195D01*
X169302Y12177D01*
X169372Y12172D01*
X169404D01*
X169436Y12181D01*
X169483Y12191D01*
X169534Y12204D01*
X169585Y12228D01*
X169635Y12260D01*
X169686Y12306D01*
X169691Y12311D01*
X169705Y12334D01*
X169728Y12362D01*
X169751Y12408D01*
X169774Y12464D01*
X169797Y12533D01*
X169811Y12612D01*
X169816Y12704D01*
Y12709D01*
Y12714D01*
Y12741D01*
X169811Y12783D01*
X169802Y12834D01*
X169784Y12894D01*
X169760Y12954D01*
X169728Y13014D01*
X169686Y13070D01*
X169682Y13075D01*
X169663Y13093D01*
X169635Y13116D01*
X169598Y13139D01*
X169552Y13167D01*
X169497Y13186D01*
X169432Y13204D01*
X169362Y13209D01*
D02*
G37*
G36*
X155465Y14449D02*
X155428D01*
X155400Y14444D01*
X155363Y14440D01*
X155326Y14435D01*
X155233Y14417D01*
X155132Y14380D01*
X155076Y14361D01*
X155021Y14333D01*
X154970Y14301D01*
X154914Y14264D01*
X154863Y14222D01*
X154817Y14171D01*
X154812Y14167D01*
X154808Y14157D01*
X154794Y14144D01*
X154780Y14120D01*
X154761Y14088D01*
X154743Y14056D01*
X154720Y14014D01*
X154697Y13963D01*
X154674Y13908D01*
X154650Y13847D01*
X154632Y13778D01*
X154613Y13704D01*
X154599Y13621D01*
X154586Y13533D01*
X154581Y13440D01*
X154576Y13338D01*
Y13334D01*
Y13315D01*
Y13287D01*
X154581Y13250D01*
X154586Y13204D01*
X154590Y13149D01*
X154599Y13093D01*
X154609Y13028D01*
X154636Y12894D01*
X154683Y12760D01*
X154711Y12690D01*
X154743Y12626D01*
X154785Y12565D01*
X154826Y12510D01*
X154831Y12505D01*
X154840Y12496D01*
X154854Y12482D01*
X154872Y12468D01*
X154896Y12445D01*
X154928Y12422D01*
X154960Y12394D01*
X155002Y12371D01*
X155090Y12316D01*
X155201Y12274D01*
X155261Y12255D01*
X155326Y12241D01*
X155395Y12232D01*
X155465Y12228D01*
X155502D01*
X155530Y12232D01*
X155562Y12237D01*
X155599Y12241D01*
X155687Y12265D01*
X155789Y12297D01*
X155840Y12320D01*
X155895Y12343D01*
X155946Y12376D01*
X156002Y12413D01*
X156053Y12454D01*
X156099Y12505D01*
X156104Y12510D01*
X156108Y12519D01*
X156122Y12533D01*
X156136Y12556D01*
X156159Y12589D01*
X156178Y12626D01*
X156201Y12667D01*
X156224Y12718D01*
X156247Y12774D01*
X156270Y12834D01*
X156293Y12903D01*
X156312Y12982D01*
X156326Y13061D01*
X156340Y13149D01*
X156344Y13246D01*
X156349Y13348D01*
Y13352D01*
Y13371D01*
Y13398D01*
X156344Y13440D01*
X156340Y13486D01*
X156335Y13537D01*
X156330Y13597D01*
X156316Y13658D01*
X156289Y13792D01*
X156247Y13931D01*
X156219Y14000D01*
X156187Y14060D01*
X156145Y14120D01*
X156104Y14176D01*
X156099Y14181D01*
X156094Y14190D01*
X156080Y14199D01*
X156062Y14218D01*
X156034Y14241D01*
X156006Y14264D01*
X155974Y14287D01*
X155932Y14315D01*
X155891Y14338D01*
X155840Y14361D01*
X155733Y14407D01*
X155673Y14426D01*
X155608Y14435D01*
X155539Y14444D01*
X155465Y14449D01*
D02*
G37*
%LPD*%
D11*
X112268Y8435D02*
Y10128D01*
X113114Y10974D01*
X113961Y10128D01*
Y8435D01*
Y9705D01*
X112268D01*
X116500Y10974D02*
Y8435D01*
X115230D01*
X114807Y8858D01*
Y9705D01*
X115230Y10128D01*
X116500D01*
X117769D02*
X118616D01*
X119039Y9705D01*
Y8435D01*
X117769D01*
X117346Y8858D01*
X117769Y9281D01*
X119039D01*
X119885Y8435D02*
Y10128D01*
X120309D01*
X120732Y9705D01*
Y8435D01*
Y9705D01*
X121155Y10128D01*
X121578Y9705D01*
Y8435D01*
X122425Y10974D02*
Y8435D01*
X123694D01*
X124117Y8858D01*
Y10551D01*
X123694Y10974D01*
X122425D01*
X124964Y10128D02*
Y8858D01*
X125387Y8435D01*
X126657D01*
Y8012D01*
X126233Y7589D01*
X125810D01*
X126657Y8435D02*
Y10128D01*
X127503Y8435D02*
Y10128D01*
X128773D01*
X129196Y9705D01*
Y8435D01*
X130465Y10128D02*
X131312D01*
X131735Y9705D01*
Y8435D01*
X130465D01*
X130042Y8858D01*
X130465Y9281D01*
X131735D01*
X132581Y8435D02*
Y10128D01*
X133005D01*
X133428Y9705D01*
Y8435D01*
Y9705D01*
X133851Y10128D01*
X134274Y9705D01*
Y8435D01*
X135121D02*
X135967D01*
X135544D01*
Y10128D01*
X135121D01*
X138929D02*
X137660D01*
X137236Y9705D01*
Y8858D01*
X137660Y8435D01*
X138929D01*
X112268Y17198D02*
Y18891D01*
X113114Y19737D01*
X113961Y18891D01*
Y17198D01*
Y18468D01*
X112268D01*
X116500Y19737D02*
Y17198D01*
X115230D01*
X114807Y17621D01*
Y18468D01*
X115230Y18891D01*
X116500D01*
X117769D02*
X118616D01*
X119039Y18468D01*
Y17198D01*
X117769D01*
X117346Y17621D01*
X117769Y18044D01*
X119039D01*
X119885Y17198D02*
Y18891D01*
X120309D01*
X120732Y18468D01*
Y17198D01*
Y18468D01*
X121155Y18891D01*
X121578Y18468D01*
Y17198D01*
X122425Y19737D02*
Y17198D01*
X123694D01*
X124117Y17621D01*
Y19314D01*
X123694Y19737D01*
X122425D01*
X124964Y18891D02*
Y17621D01*
X125387Y17198D01*
X126657D01*
Y16775D01*
X126233Y16352D01*
X125810D01*
X126657Y17198D02*
Y18891D01*
X127503Y17198D02*
Y18891D01*
X128773D01*
X129196Y18468D01*
Y17198D01*
X130465Y18891D02*
X131312D01*
X131735Y18468D01*
Y17198D01*
X130465D01*
X130042Y17621D01*
X130465Y18044D01*
X131735D01*
X132581Y17198D02*
Y18891D01*
X133005D01*
X133428Y18468D01*
Y17198D01*
Y18468D01*
X133851Y18891D01*
X134274Y18468D01*
Y17198D01*
X135121D02*
X135967D01*
X135544D01*
Y18891D01*
X135121D01*
X138929D02*
X137660D01*
X137236Y18468D01*
Y17621D01*
X137660Y17198D01*
X138929D01*
X205228Y-6196D02*
Y-3657D01*
X206921Y-6196D01*
Y-3657D01*
X207767Y-6196D02*
X209460Y-4504D01*
X210306Y-6196D02*
Y-4504D01*
X211153Y-3657D01*
X211999Y-4504D01*
Y-6196D01*
Y-4927D01*
X210306D01*
X209461Y1424D02*
X207768D01*
X209461Y3116D01*
Y3540D01*
X209037Y3963D01*
X208191D01*
X207768Y3540D01*
X210307Y1424D02*
Y1847D01*
X210730D01*
Y1424D01*
X210307D01*
X212423Y3540D02*
X212846Y3963D01*
X213693D01*
X214116Y3540D01*
Y1847D01*
X213693Y1424D01*
X212846D01*
X212423Y1847D01*
Y3540D01*
D12*
X66163Y100103D02*
X71243D01*
X66163Y148363D02*
X71243D01*
X102040Y-8482D02*
Y21998D01*
X-70680Y-13562D02*
X221420D01*
Y179478D01*
X-65600Y-8482D02*
Y174398D01*
Y-8482D02*
X216340D01*
X2345Y174398D02*
Y179478D01*
X75370Y174398D02*
Y179478D01*
X216340Y34698D02*
X221420D01*
X-70680Y-13562D02*
Y179478D01*
Y131218D02*
X-65600D01*
X2345Y-13562D02*
Y-8482D01*
X75370Y-13562D02*
Y-8482D01*
X102040Y14378D02*
X140140D01*
X102040Y-8482D02*
X216340D01*
X102040Y-862D02*
X216340D01*
X102040Y6758D02*
X216340D01*
X102040Y21998D02*
X140140D01*
Y6758D02*
Y21998D01*
X216340D01*
Y-8482D02*
Y21998D01*
X193480Y-8482D02*
Y6758D01*
X140140Y-8482D02*
Y6758D01*
X148395Y-13562D02*
Y-8482D01*
X103310Y5360D02*
Y4218D01*
Y5360D02*
X103691D01*
X103855Y5306D01*
X103963Y5197D01*
X104018Y5088D01*
X104072Y4925D01*
Y4653D01*
X104018Y4490D01*
X103963Y4381D01*
X103855Y4272D01*
X103691Y4218D01*
X103310D01*
X105199D02*
X104763Y5360D01*
X104328Y4218D01*
X104491Y4598D02*
X105035D01*
X105846Y5360D02*
Y4218D01*
X105465Y5360D02*
X106227D01*
X107071D02*
X106363D01*
Y4218D01*
X107071D01*
X106363Y4816D02*
X106799D01*
X107315Y4979D02*
X107261Y4925D01*
X107315Y4871D01*
X107370Y4925D01*
X107315Y4979D01*
Y4326D02*
X107261Y4272D01*
X107315Y4218D01*
X107370Y4272D01*
X107315Y4326D01*
X194750Y5360D02*
Y4218D01*
Y5360D02*
X195240D01*
X195403Y5306D01*
X195458Y5251D01*
X195512Y5143D01*
Y5034D01*
X195458Y4925D01*
X195403Y4871D01*
X195240Y4816D01*
X194750D01*
X195131D02*
X195512Y4218D01*
X196475Y5360D02*
X195768D01*
Y4218D01*
X196475D01*
X195768Y4816D02*
X196203D01*
X196666Y5360D02*
X197101Y4218D01*
X197537Y5360D02*
X197101Y4218D01*
X197738Y4979D02*
X197683Y4925D01*
X197738Y4871D01*
X197792Y4925D01*
X197738Y4979D01*
Y4326D02*
X197683Y4272D01*
X197738Y4218D01*
X197792Y4272D01*
X197738Y4326D01*
X141410Y-2260D02*
Y-3402D01*
Y-2260D02*
X141791D01*
X141955Y-2314D01*
X142063Y-2423D01*
X142118Y-2532D01*
X142172Y-2695D01*
Y-2967D01*
X142118Y-3130D01*
X142063Y-3239D01*
X141955Y-3348D01*
X141791Y-3402D01*
X141410D01*
X142428Y-2260D02*
X142700Y-3402D01*
X142972Y-2260D02*
X142700Y-3402D01*
X142972Y-2260D02*
X143244Y-3402D01*
X143516Y-2260D02*
X143244Y-3402D01*
X144561Y-2532D02*
X144507Y-2423D01*
X144398Y-2314D01*
X144289Y-2260D01*
X144071D01*
X143963Y-2314D01*
X143854Y-2423D01*
X143799Y-2532D01*
X143745Y-2695D01*
Y-2967D01*
X143799Y-3130D01*
X143854Y-3239D01*
X143963Y-3348D01*
X144071Y-3402D01*
X144289D01*
X144398Y-3348D01*
X144507Y-3239D01*
X144561Y-3130D01*
Y-2967D01*
X144289D02*
X144561D01*
X145720Y-2260D02*
Y-3402D01*
Y-2260D02*
X146482Y-3402D01*
Y-2260D02*
Y-3402D01*
X147124Y-2260D02*
X147015Y-2314D01*
X146907Y-2423D01*
X146852Y-2532D01*
X146798Y-2695D01*
Y-2967D01*
X146852Y-3130D01*
X146907Y-3239D01*
X147015Y-3348D01*
X147124Y-3402D01*
X147342D01*
X147451Y-3348D01*
X147560Y-3239D01*
X147614Y-3130D01*
X147668Y-2967D01*
Y-2695D01*
X147614Y-2532D01*
X147560Y-2423D01*
X147451Y-2314D01*
X147342Y-2260D01*
X147124D01*
X147989Y-2641D02*
X147935Y-2695D01*
X147989Y-2749D01*
X148044Y-2695D01*
X147989Y-2641D01*
Y-3294D02*
X147935Y-3348D01*
X147989Y-3402D01*
X148044Y-3348D01*
X147989Y-3294D01*
X104018Y20600D02*
X103310D01*
Y19458D01*
X104018D01*
X103310Y20056D02*
X103746D01*
X104208Y20600D02*
Y19458D01*
Y20600D02*
X104970Y19458D01*
Y20600D02*
Y19458D01*
X106102Y20328D02*
X106048Y20437D01*
X105939Y20546D01*
X105830Y20600D01*
X105612D01*
X105503Y20546D01*
X105395Y20437D01*
X105340Y20328D01*
X105286Y20165D01*
Y19893D01*
X105340Y19730D01*
X105395Y19621D01*
X105503Y19512D01*
X105612Y19458D01*
X105830D01*
X105939Y19512D01*
X106048Y19621D01*
X106102Y19730D01*
Y19893D01*
X105830D02*
X106102D01*
X106363Y20600D02*
Y19458D01*
X106603Y20600D02*
Y19458D01*
Y20600D02*
X107364Y19458D01*
Y20600D02*
Y19458D01*
X108388Y20600D02*
X107680D01*
Y19458D01*
X108388D01*
X107680Y20056D02*
X108115D01*
X109285Y20600D02*
X108578D01*
Y19458D01*
X109285D01*
X108578Y20056D02*
X109013D01*
X109476Y20600D02*
Y19458D01*
Y20600D02*
X109966D01*
X110129Y20546D01*
X110183Y20491D01*
X110238Y20383D01*
Y20274D01*
X110183Y20165D01*
X110129Y20111D01*
X109966Y20056D01*
X109476D01*
X109857D02*
X110238Y19458D01*
X110548Y20219D02*
X110493Y20165D01*
X110548Y20111D01*
X110602Y20165D01*
X110548Y20219D01*
Y19566D02*
X110493Y19512D01*
X110548Y19458D01*
X110602Y19512D01*
X110548Y19566D01*
X141410Y4762D02*
X141900D01*
X142063Y4816D01*
X142118Y4871D01*
X142172Y4979D01*
Y5143D01*
X142118Y5251D01*
X142063Y5306D01*
X141900Y5360D01*
X141410D01*
Y4218D01*
X143299D02*
X142863Y5360D01*
X142428Y4218D01*
X142591Y4598D02*
X143135D01*
X143565Y5360D02*
Y4218D01*
Y5360D02*
X144055D01*
X144218Y5306D01*
X144273Y5251D01*
X144327Y5143D01*
Y5034D01*
X144273Y4925D01*
X144218Y4871D01*
X144055Y4816D01*
X143565D01*
X143946D02*
X144327Y4218D01*
X144964Y5360D02*
Y4218D01*
X144583Y5360D02*
X145345D01*
X146379D02*
Y4218D01*
Y5360D02*
X147141Y4218D01*
Y5360D02*
Y4218D01*
X147783Y5360D02*
X147674Y5306D01*
X147565Y5197D01*
X147511Y5088D01*
X147456Y4925D01*
Y4653D01*
X147511Y4490D01*
X147565Y4381D01*
X147674Y4272D01*
X147783Y4218D01*
X148000D01*
X148109Y4272D01*
X148218Y4381D01*
X148272Y4490D01*
X148327Y4653D01*
Y4925D01*
X148272Y5088D01*
X148218Y5197D01*
X148109Y5306D01*
X148000Y5360D01*
X147783D01*
X148648Y4326D02*
X148593Y4272D01*
X148648Y4218D01*
X148702Y4272D01*
X148648Y4326D01*
X149007Y4979D02*
X148953Y4925D01*
X149007Y4871D01*
X149061Y4925D01*
X149007Y4979D01*
Y4326D02*
X148953Y4272D01*
X149007Y4218D01*
X149061Y4272D01*
X149007Y4326D01*
X141791Y20600D02*
Y19458D01*
X141410Y20600D02*
X142172D01*
X142308D02*
Y19458D01*
X142929Y20600D02*
Y19458D01*
X142548Y20600D02*
X143310D01*
X143446D02*
Y19458D01*
X144099D01*
X144931Y20600D02*
X144224D01*
Y19458D01*
X144931D01*
X144224Y20056D02*
X144659D01*
X145176Y20219D02*
X145122Y20165D01*
X145176Y20111D01*
X145230Y20165D01*
X145176Y20219D01*
Y19566D02*
X145122Y19512D01*
X145176Y19458D01*
X145230Y19512D01*
X145176Y19566D01*
X103310Y12509D02*
X103800D01*
X103963Y12563D01*
X104018Y12618D01*
X104072Y12726D01*
Y12890D01*
X104018Y12998D01*
X103963Y13053D01*
X103800Y13107D01*
X103310D01*
Y11965D01*
X105144Y12835D02*
X105090Y12944D01*
X104981Y13053D01*
X104872Y13107D01*
X104655D01*
X104546Y13053D01*
X104437Y12944D01*
X104382Y12835D01*
X104328Y12672D01*
Y12400D01*
X104382Y12237D01*
X104437Y12128D01*
X104546Y12019D01*
X104655Y11965D01*
X104872D01*
X104981Y12019D01*
X105090Y12128D01*
X105144Y12237D01*
X105465Y13107D02*
Y11965D01*
Y13107D02*
X105955D01*
X106118Y13053D01*
X106173Y12998D01*
X106227Y12890D01*
Y12781D01*
X106173Y12672D01*
X106118Y12618D01*
X105955Y12563D01*
X105465D02*
X105955D01*
X106118Y12509D01*
X106173Y12454D01*
X106227Y12345D01*
Y12182D01*
X106173Y12073D01*
X106118Y12019D01*
X105955Y11965D01*
X105465D01*
X107381Y13107D02*
Y11965D01*
Y13107D02*
X107762D01*
X107925Y13053D01*
X108034Y12944D01*
X108088Y12835D01*
X108143Y12672D01*
Y12400D01*
X108088Y12237D01*
X108034Y12128D01*
X107925Y12019D01*
X107762Y11965D01*
X107381D01*
X109106Y13107D02*
X108398D01*
Y11965D01*
X109106D01*
X108398Y12563D02*
X108834D01*
X110058Y12944D02*
X109949Y13053D01*
X109786Y13107D01*
X109568D01*
X109405Y13053D01*
X109296Y12944D01*
Y12835D01*
X109351Y12726D01*
X109405Y12672D01*
X109514Y12618D01*
X109840Y12509D01*
X109949Y12454D01*
X110004Y12400D01*
X110058Y12291D01*
Y12128D01*
X109949Y12019D01*
X109786Y11965D01*
X109568D01*
X109405Y12019D01*
X109296Y12128D01*
X110314Y13107D02*
Y11965D01*
X111370Y12835D02*
X111315Y12944D01*
X111206Y13053D01*
X111097Y13107D01*
X110880D01*
X110771Y13053D01*
X110662Y12944D01*
X110608Y12835D01*
X110553Y12672D01*
Y12400D01*
X110608Y12237D01*
X110662Y12128D01*
X110771Y12019D01*
X110880Y11965D01*
X111097D01*
X111206Y12019D01*
X111315Y12128D01*
X111370Y12237D01*
Y12400D01*
X111097D02*
X111370D01*
X111631Y13107D02*
Y11965D01*
Y13107D02*
X112393Y11965D01*
Y13107D02*
Y11965D01*
X113416Y13107D02*
X112708D01*
Y11965D01*
X113416D01*
X112708Y12563D02*
X113144D01*
X113606Y13107D02*
Y11965D01*
Y13107D02*
X114096D01*
X114259Y13053D01*
X114314Y12998D01*
X114368Y12890D01*
Y12781D01*
X114314Y12672D01*
X114259Y12618D01*
X114096Y12563D01*
X113606D01*
X113987D02*
X114368Y11965D01*
X114678Y12726D02*
X114624Y12672D01*
X114678Y12618D01*
X114733Y12672D01*
X114678Y12726D01*
Y12073D02*
X114624Y12019D01*
X114678Y11965D01*
X114733Y12019D01*
X114678Y12073D01*
X103310Y-2260D02*
Y-3402D01*
Y-2260D02*
X104018D01*
X103310Y-2804D02*
X103746D01*
X104148Y-2260D02*
Y-3402D01*
X104388Y-2260D02*
Y-3402D01*
X105041D01*
X105873Y-2260D02*
X105166D01*
Y-3402D01*
X105873D01*
X105166Y-2804D02*
X105601D01*
X106962Y-2260D02*
Y-3402D01*
Y-2260D02*
X107724Y-3402D01*
Y-2260D02*
Y-3402D01*
X108910D02*
X108475Y-2260D01*
X108039Y-3402D01*
X108202Y-3022D02*
X108747D01*
X109177Y-2260D02*
Y-3402D01*
Y-2260D02*
X109612Y-3402D01*
X110047Y-2260D02*
X109612Y-3402D01*
X110047Y-2260D02*
Y-3402D01*
X111081Y-2260D02*
X110374D01*
Y-3402D01*
X111081D01*
X110374Y-2804D02*
X110809D01*
X111326Y-2641D02*
X111272Y-2695D01*
X111326Y-2749D01*
X111380Y-2695D01*
X111326Y-2641D01*
Y-3294D02*
X111272Y-3348D01*
X111326Y-3402D01*
X111380Y-3348D01*
X111326Y-3294D01*
X195512Y-2423D02*
X195403Y-2314D01*
X195240Y-2260D01*
X195022D01*
X194859Y-2314D01*
X194750Y-2423D01*
Y-2532D01*
X194805Y-2641D01*
X194859Y-2695D01*
X194968Y-2749D01*
X195295Y-2858D01*
X195403Y-2913D01*
X195458Y-2967D01*
X195512Y-3076D01*
Y-3239D01*
X195403Y-3348D01*
X195240Y-3402D01*
X195022D01*
X194859Y-3348D01*
X194750Y-3239D01*
X196584Y-2532D02*
X196530Y-2423D01*
X196421Y-2314D01*
X196312Y-2260D01*
X196094D01*
X195986Y-2314D01*
X195877Y-2423D01*
X195822Y-2532D01*
X195768Y-2695D01*
Y-2967D01*
X195822Y-3130D01*
X195877Y-3239D01*
X195986Y-3348D01*
X196094Y-3402D01*
X196312D01*
X196421Y-3348D01*
X196530Y-3239D01*
X196584Y-3130D01*
X197776Y-3402D02*
X197341Y-2260D01*
X196905Y-3402D01*
X197069Y-3022D02*
X197613D01*
X198043Y-2260D02*
Y-3402D01*
X198696D01*
X199528Y-2260D02*
X198821D01*
Y-3402D01*
X199528D01*
X198821Y-2804D02*
X199256D01*
X199773Y-2641D02*
X199719Y-2695D01*
X199773Y-2749D01*
X199827Y-2695D01*
X199773Y-2641D01*
Y-3294D02*
X199719Y-3348D01*
X199773Y-3402D01*
X199827Y-3348D01*
X199773Y-3294D01*
D41*
X219515Y57820D02*
X219430Y57989D01*
X219261Y58158D01*
X219092Y58243D01*
X218753D01*
X218584Y58158D01*
X218415Y57989D01*
X218330Y57820D01*
X218245Y57566D01*
Y57143D01*
X218330Y56889D01*
X218415Y56719D01*
X218584Y56550D01*
X218753Y56465D01*
X219092D01*
X219261Y56550D01*
X219430Y56719D01*
X219515Y56889D01*
X218245Y10237D02*
Y8459D01*
Y10237D02*
X218838D01*
X219092Y10152D01*
X219261Y9983D01*
X219346Y9814D01*
X219430Y9560D01*
Y9137D01*
X219346Y8883D01*
X219261Y8713D01*
X219092Y8544D01*
X218838Y8459D01*
X218245D01*
X-67420Y153036D02*
X-68097Y154814D01*
X-68775Y153036D01*
X-68521Y153629D02*
X-67674D01*
X-34434Y177488D02*
X-34264Y177572D01*
X-34011Y177826D01*
Y176049D01*
X38295Y177403D02*
Y177488D01*
X38380Y177657D01*
X38464Y177742D01*
X38633Y177826D01*
X38972D01*
X39141Y177742D01*
X39226Y177657D01*
X39311Y177488D01*
Y177318D01*
X39226Y177149D01*
X39057Y176895D01*
X38210Y176049D01*
X39395D01*
X111532Y177826D02*
X112463D01*
X111955Y177149D01*
X112209D01*
X112378Y177064D01*
X112463Y176980D01*
X112547Y176726D01*
Y176556D01*
X112463Y176302D01*
X112293Y176133D01*
X112039Y176049D01*
X111785D01*
X111532Y176133D01*
X111447Y176218D01*
X111362Y176387D01*
X39395Y-11911D02*
X38210D01*
X39395Y-10727D01*
Y-10430D01*
X39099Y-10134D01*
X38506D01*
X38210Y-10430D01*
X111362D02*
X111658Y-10134D01*
X112251D01*
X112547Y-10430D01*
Y-10727D01*
X112251Y-11023D01*
X111955D01*
X112251D01*
X112547Y-11319D01*
Y-11615D01*
X112251Y-11911D01*
X111658D01*
X111362Y-11615D01*
X185149Y-11911D02*
Y-10134D01*
X184260Y-11023D01*
X185445D01*
X105681Y2355D02*
X105596Y2101D01*
X105427Y1931D01*
X105173Y1847D01*
X105088D01*
X104834Y1931D01*
X104665Y2101D01*
X104580Y2355D01*
Y2439D01*
X104665Y2693D01*
X104834Y2863D01*
X105088Y2947D01*
X105173D01*
X105427Y2863D01*
X105596Y2693D01*
X105681Y2355D01*
Y1931D01*
X105596Y1508D01*
X105427Y1254D01*
X105173Y1170D01*
X105004D01*
X104750Y1254D01*
X104665Y1423D01*
X106163Y916D02*
X107348Y2947D01*
X108313D02*
X107467Y1762D01*
X108737D01*
X108313Y2947D02*
Y1170D01*
X109050Y916D02*
X110235Y2947D01*
X110438Y2524D02*
Y2609D01*
X110523Y2778D01*
X110607Y2863D01*
X110777Y2947D01*
X111115D01*
X111285Y2863D01*
X111369Y2778D01*
X111454Y2609D01*
Y2439D01*
X111369Y2270D01*
X111200Y2016D01*
X110353Y1170D01*
X111539D01*
X112444Y2947D02*
X112190Y2863D01*
X112021Y2609D01*
X111936Y2185D01*
Y1931D01*
X112021Y1508D01*
X112190Y1254D01*
X112444Y1170D01*
X112614D01*
X112868Y1254D01*
X113037Y1508D01*
X113121Y1931D01*
Y2185D01*
X113037Y2609D01*
X112868Y2863D01*
X112614Y2947D01*
X112444D01*
X113604Y2524D02*
Y2609D01*
X113689Y2778D01*
X113773Y2863D01*
X113943Y2947D01*
X114281D01*
X114450Y2863D01*
X114535Y2778D01*
X114620Y2609D01*
Y2439D01*
X114535Y2270D01*
X114366Y2016D01*
X113519Y1170D01*
X114704D01*
X115187Y2524D02*
Y2609D01*
X115272Y2778D01*
X115356Y2863D01*
X115525Y2947D01*
X115864D01*
X116033Y2863D01*
X116118Y2778D01*
X116203Y2609D01*
Y2439D01*
X116118Y2270D01*
X115949Y2016D01*
X115102Y1170D01*
X116287D01*
X104580Y-4673D02*
Y-6450D01*
Y-4673D02*
X105342D01*
X105596Y-4757D01*
X105681Y-4842D01*
X105765Y-5011D01*
Y-5181D01*
X105681Y-5350D01*
X105596Y-5435D01*
X105342Y-5519D01*
X104580D01*
X105173D02*
X105765Y-6450D01*
X106163Y-5773D02*
X107179D01*
Y-5604D01*
X107094Y-5435D01*
X107010Y-5350D01*
X106841Y-5265D01*
X106587D01*
X106417Y-5350D01*
X106248Y-5519D01*
X106163Y-5773D01*
Y-5943D01*
X106248Y-6197D01*
X106417Y-6366D01*
X106587Y-6450D01*
X106841D01*
X107010Y-6366D01*
X107179Y-6197D01*
X107560Y-5265D02*
X108068Y-6450D01*
X108576Y-5265D02*
X108068Y-6450D01*
X110260Y-5265D02*
X110599Y-6450D01*
X110938Y-5265D02*
X110599Y-6450D01*
X110938Y-5265D02*
X111276Y-6450D01*
X111615Y-5265D02*
X111276Y-6450D01*
X112199Y-4673D02*
X112283Y-4757D01*
X112368Y-4673D01*
X112283Y-4588D01*
X112199Y-4673D01*
X112283Y-5265D02*
Y-6450D01*
X112935Y-4673D02*
Y-6112D01*
X113020Y-6366D01*
X113189Y-6450D01*
X113358D01*
X112681Y-5265D02*
X113274D01*
X113612Y-4673D02*
Y-6450D01*
Y-5604D02*
X113866Y-5350D01*
X114036Y-5265D01*
X114290D01*
X114459Y-5350D01*
X114544Y-5604D01*
Y-6450D01*
X117337Y-5519D02*
X117252Y-5350D01*
X116998Y-5265D01*
X116744D01*
X116490Y-5350D01*
X116406Y-5519D01*
X116490Y-5689D01*
X116660Y-5773D01*
X117083Y-5858D01*
X117252Y-5943D01*
X117337Y-6112D01*
Y-6197D01*
X117252Y-6366D01*
X116998Y-6450D01*
X116744D01*
X116490Y-6366D01*
X116406Y-6197D01*
X117963Y-4673D02*
Y-6112D01*
X118048Y-6366D01*
X118217Y-6450D01*
X118387D01*
X117709Y-5265D02*
X118302D01*
X118641D02*
Y-6450D01*
Y-5773D02*
X118725Y-5519D01*
X118894Y-5350D01*
X119064Y-5265D01*
X119318D01*
X119479Y-5773D02*
X120494D01*
Y-5604D01*
X120410Y-5435D01*
X120325Y-5350D01*
X120156Y-5265D01*
X119902D01*
X119732Y-5350D01*
X119563Y-5519D01*
X119479Y-5773D01*
Y-5943D01*
X119563Y-6197D01*
X119732Y-6366D01*
X119902Y-6450D01*
X120156D01*
X120325Y-6366D01*
X120494Y-6197D01*
X121298Y-5265D02*
X121129Y-5350D01*
X120960Y-5519D01*
X120875Y-5773D01*
Y-5943D01*
X120960Y-6197D01*
X121129Y-6366D01*
X121298Y-6450D01*
X121552D01*
X121722Y-6366D01*
X121891Y-6197D01*
X121976Y-5943D01*
Y-5773D01*
X121891Y-5519D01*
X121722Y-5350D01*
X121552Y-5265D01*
X121298D01*
X124100Y-4673D02*
X124185Y-4757D01*
X124270Y-4673D01*
X124185Y-4588D01*
X124100Y-4673D01*
X124185Y-5265D02*
Y-6704D01*
X124100Y-6958D01*
X123931Y-7043D01*
X123762D01*
X125616Y-5265D02*
Y-6450D01*
Y-5519D02*
X125446Y-5350D01*
X125277Y-5265D01*
X125023D01*
X124854Y-5350D01*
X124684Y-5519D01*
X124600Y-5773D01*
Y-5943D01*
X124684Y-6197D01*
X124854Y-6366D01*
X125023Y-6450D01*
X125277D01*
X125446Y-6366D01*
X125616Y-6197D01*
X127105Y-5519D02*
X126936Y-5350D01*
X126767Y-5265D01*
X126513D01*
X126344Y-5350D01*
X126174Y-5519D01*
X126090Y-5773D01*
Y-5943D01*
X126174Y-6197D01*
X126344Y-6366D01*
X126513Y-6450D01*
X126767D01*
X126936Y-6366D01*
X127105Y-6197D01*
X127486Y-4673D02*
Y-6450D01*
X128333Y-5265D02*
X127486Y-6112D01*
X127825Y-5773D02*
X128417Y-6450D01*
X128781Y-6281D02*
X128697Y-6366D01*
X128781Y-6450D01*
X128866Y-6366D01*
X128781Y-6281D01*
X129255Y-5604D02*
X130017D01*
X130271Y-5519D01*
X130356Y-5435D01*
X130441Y-5265D01*
Y-5011D01*
X130356Y-4842D01*
X130271Y-4757D01*
X130017Y-4673D01*
X129255D01*
Y-6450D01*
X131854Y-5519D02*
X131685Y-5350D01*
X131516Y-5265D01*
X131262D01*
X131092Y-5350D01*
X130923Y-5519D01*
X130838Y-5773D01*
Y-5943D01*
X130923Y-6197D01*
X131092Y-6366D01*
X131262Y-6450D01*
X131516D01*
X131685Y-6366D01*
X131854Y-6197D01*
X132235Y-4673D02*
Y-6450D01*
Y-5519D02*
X132404Y-5350D01*
X132574Y-5265D01*
X132828D01*
X132997Y-5350D01*
X133166Y-5519D01*
X133251Y-5773D01*
Y-5943D01*
X133166Y-6197D01*
X132997Y-6366D01*
X132828Y-6450D01*
X132574D01*
X132404Y-6366D01*
X132235Y-6197D01*
X133632Y-4673D02*
Y-6450D01*
Y-4673D02*
X134224D01*
X134478Y-4757D01*
X134648Y-4927D01*
X134732Y-5096D01*
X134817Y-5350D01*
Y-5773D01*
X134732Y-6027D01*
X134648Y-6197D01*
X134478Y-6366D01*
X134224Y-6450D01*
X133632D01*
X135638Y-5265D02*
X135469Y-5350D01*
X135299Y-5519D01*
X135215Y-5773D01*
Y-5943D01*
X135299Y-6197D01*
X135469Y-6366D01*
X135638Y-6450D01*
X135892D01*
X136061Y-6366D01*
X136230Y-6197D01*
X136315Y-5943D01*
Y-5773D01*
X136230Y-5519D01*
X136061Y-5350D01*
X135892Y-5265D01*
X135638D01*
X137720Y-5519D02*
X137551Y-5350D01*
X137382Y-5265D01*
X137128D01*
X136958Y-5350D01*
X136789Y-5519D01*
X136705Y-5773D01*
Y-5943D01*
X136789Y-6197D01*
X136958Y-6366D01*
X137128Y-6450D01*
X137382D01*
X137551Y-6366D01*
X137720Y-6197D01*
M02*
