G04*
G04 #@! TF.GenerationSoftware,Altium Limited,Altium Designer,20.0.2 (26)*
G04*
G04 Layer_Color=255*
%FSLAX43Y43*%
%MOMM*%
G71*
G01*
G75*
%ADD28C,2.286*%
%ADD29C,6.350*%
%ADD30C,3.175*%
%ADD31O,2.286X1.524*%
%ADD32R,2.286X1.524*%
%ADD33C,2.000*%
%ADD34C,1.778*%
%ADD35R,1.778X1.778*%
D28*
X3175Y123508D02*
D03*
Y128588D02*
D03*
Y133668D02*
D03*
X92393Y131762D02*
D03*
Y126683D02*
D03*
Y121603D02*
D03*
X91123Y72973D02*
D03*
Y78053D02*
D03*
Y83133D02*
D03*
Y88671D02*
D03*
Y93751D02*
D03*
Y98831D02*
D03*
X4762Y98743D02*
D03*
Y93662D02*
D03*
Y88582D02*
D03*
Y82867D02*
D03*
Y77787D02*
D03*
Y72707D02*
D03*
D29*
X36138Y61284D02*
D03*
X86995D02*
D03*
X61538Y10484D02*
D03*
Y61284D02*
D03*
Y35884D02*
D03*
X86938Y10484D02*
D03*
Y35884D02*
D03*
X10738Y10484D02*
D03*
X36138D02*
D03*
Y35884D02*
D03*
X10738D02*
D03*
D30*
X36697Y54934D02*
D03*
X29788Y61843D02*
D03*
X33699Y67634D02*
D03*
X40806Y65952D02*
D03*
X42488Y58845D02*
D03*
X87554Y54934D02*
D03*
X80645Y61843D02*
D03*
X84557Y67634D02*
D03*
X91664Y65952D02*
D03*
X93345Y58845D02*
D03*
X62097Y4134D02*
D03*
X55188Y11043D02*
D03*
X59099Y16834D02*
D03*
X66206Y15152D02*
D03*
X67888Y8045D02*
D03*
X62097Y54934D02*
D03*
X55188Y61843D02*
D03*
X59099Y67634D02*
D03*
X66206Y65952D02*
D03*
X67888Y58845D02*
D03*
X62097Y29534D02*
D03*
X55188Y36443D02*
D03*
X59099Y42234D02*
D03*
X66206Y40552D02*
D03*
X67888Y33445D02*
D03*
X87497Y4134D02*
D03*
X80588Y11043D02*
D03*
X84499Y16834D02*
D03*
X91606Y15152D02*
D03*
X93288Y8045D02*
D03*
X87497Y29534D02*
D03*
X80588Y36443D02*
D03*
X84499Y42234D02*
D03*
X91606Y40552D02*
D03*
X93288Y33445D02*
D03*
X11297Y4134D02*
D03*
X4388Y11043D02*
D03*
X8299Y16834D02*
D03*
X15406Y15152D02*
D03*
X17088Y8045D02*
D03*
X36697Y4134D02*
D03*
X29788Y11043D02*
D03*
X33699Y16834D02*
D03*
X40806Y15152D02*
D03*
X42488Y8045D02*
D03*
X36697Y29534D02*
D03*
X29788Y36443D02*
D03*
X33699Y42234D02*
D03*
X40806Y40552D02*
D03*
X42488Y33445D02*
D03*
X11297Y29534D02*
D03*
X4388Y36443D02*
D03*
X8299Y42234D02*
D03*
X15406Y40552D02*
D03*
X17088Y33445D02*
D03*
D31*
X52070Y79005D02*
D03*
Y81545D02*
D03*
Y94245D02*
D03*
Y91705D02*
D03*
Y89165D02*
D03*
Y86625D02*
D03*
Y84085D02*
D03*
X44450Y91705D02*
D03*
Y89165D02*
D03*
Y86625D02*
D03*
Y84085D02*
D03*
Y81545D02*
D03*
Y79005D02*
D03*
X55880Y145363D02*
D03*
Y142823D02*
D03*
Y140283D02*
D03*
Y137743D02*
D03*
Y135203D02*
D03*
Y132663D02*
D03*
Y130123D02*
D03*
Y127583D02*
D03*
X48260D02*
D03*
Y130123D02*
D03*
Y132663D02*
D03*
Y135203D02*
D03*
Y137743D02*
D03*
Y140283D02*
D03*
Y142823D02*
D03*
D32*
X44450Y94245D02*
D03*
X48260Y145363D02*
D03*
D33*
X33020Y127900D02*
D03*
X43180D02*
D03*
X44450Y103135D02*
D03*
X54610D02*
D03*
X80327Y133297D02*
D03*
Y140917D02*
D03*
X28575Y157480D02*
D03*
X26035Y160020D02*
D03*
X23495Y157480D02*
D03*
X28257Y121550D02*
D03*
X18097D02*
D03*
X19685Y93928D02*
D03*
X12065D02*
D03*
X32702Y145363D02*
D03*
X42862D02*
D03*
X32702Y142505D02*
D03*
X42862D02*
D03*
X32702Y148220D02*
D03*
X42862D02*
D03*
X32702Y133615D02*
D03*
X42862D02*
D03*
X32702Y139330D02*
D03*
X42862D02*
D03*
X32702Y136473D02*
D03*
X42862D02*
D03*
X62865Y142823D02*
D03*
X73025D02*
D03*
X62865Y139648D02*
D03*
X73025D02*
D03*
X64770Y119063D02*
D03*
X72390D02*
D03*
X62865Y136473D02*
D03*
X73025D02*
D03*
X64770Y133298D02*
D03*
X72390D02*
D03*
X60642Y83133D02*
D03*
Y72973D02*
D03*
X63817Y83133D02*
D03*
Y72973D02*
D03*
X57467Y83132D02*
D03*
Y72972D02*
D03*
X28892Y84720D02*
D03*
X39052D02*
D03*
X28892Y81545D02*
D03*
X39052D02*
D03*
X62865Y91705D02*
D03*
Y101865D02*
D03*
X59690D02*
D03*
Y91705D02*
D03*
X66992Y83133D02*
D03*
Y72973D02*
D03*
X39052Y87895D02*
D03*
X28892D02*
D03*
X33020Y125043D02*
D03*
X43180D02*
D03*
X26670Y124725D02*
D03*
X19050D02*
D03*
X39052Y91070D02*
D03*
X28892D02*
D03*
X39052Y94245D02*
D03*
X28892D02*
D03*
X66040Y101865D02*
D03*
Y91705D02*
D03*
X72390Y129223D02*
D03*
X64770D02*
D03*
X54610Y106310D02*
D03*
X44450D02*
D03*
X32702Y130758D02*
D03*
X42862D02*
D03*
X19050Y127900D02*
D03*
X26670D02*
D03*
X73025Y145680D02*
D03*
X62865D02*
D03*
Y148538D02*
D03*
X73025D02*
D03*
D34*
X39210Y154622D02*
D03*
Y157163D02*
D03*
X41750Y154622D02*
D03*
Y157163D02*
D03*
X44290Y154622D02*
D03*
Y157163D02*
D03*
X46830Y154622D02*
D03*
Y157163D02*
D03*
X49370Y154622D02*
D03*
Y157163D02*
D03*
X51910Y154622D02*
D03*
Y157163D02*
D03*
X54450Y154622D02*
D03*
Y157163D02*
D03*
X56990Y154622D02*
D03*
X5080Y155258D02*
D03*
Y157798D02*
D03*
Y160337D02*
D03*
X12700Y158432D02*
D03*
X15240D02*
D03*
X17780D02*
D03*
D35*
X56990Y157163D02*
D03*
M02*
