M48
;Layer_Color=9474304
;FILE_FORMAT=4:3
METRIC,LZ
;TYPE=PLATED
T1F00S00C0.635
T2F00S00C0.711
T3F00S00C0.762
T4F00S00C1.000
T5F00S00C1.200
T6F00S00C1.524
T7F00S00C2.159
;TYPE=NON_PLATED
T8F00S00C6.350
%
T01
X0075311Y002032
X0076962
X0078613
X0083233Y0024641
X0084884
X0086535
X0090297Y0024638
X0091948
X0093599
X0082042Y0044323
Y0045974
Y0047625
T02
X004572Y001143
Y004318
X0025146Y0032893
X006223Y0039624
X0060452Y002286
X0062484Y0013208
X01016Y0049276
T03
X0075438Y0051054
T04
X0016272Y0032004
X0018272
X0018321Y0043588
X0016321
X0043704Y0053848
X0045704
T05
X0003984Y002921
X0006524
Y003175
X0003984
Y003429
X0006524
Y003683
X0003984
Y003937
X0006524
Y004191
X0003984
Y004445
X0006524
X0012192Y003937
Y0036322
X0022352
Y003937
X003302Y0042164
X0036322Y0042672
X0039116
X0039624Y0037338
X0037084
X0042164
X0044704
X0047244
X0049784
X0052324
Y0040572
X004953Y004064
X0049784Y0029718
X0047244
X0044704
X0042164
X0039624
X0037084
X0037846Y0025908
X004064
X0043493
X0046228Y0026162
X0049022
X0052324Y0029718
X0049022Y0016002
X0046228
X0043493Y0015748
X004064
X0037846
X0035052
X0032258
X0029464
X00303Y001055
X0030226Y0007874
X0029464Y0025908
X0032258
X0035052
X0063754Y0027178
X0066802Y00254
X0069596Y0027432
X007239
X0072644Y0030353
X0070104
X0065532Y0030226
Y0037846
X0070104Y0037973
X0072644
X0075184
X0077724
X0080772Y00381
X008382Y0039878
X0086614
X0089662
X0092456
Y0043434
Y0029718
X0089662
X0086614
X008382
X0080772Y003048
X0077724Y0030353
X0075184
X0075438Y0040894
X0078232
X0069723Y0040711
X0069596Y0017272
X007239
X0075184Y0017018
X0074676Y0013462
X0067056
X0066802Y001778
X0063754Y0017018
X0085344
X009525Y0029718
Y0039878
X0095446Y0043571
Y0053731
X0092456Y0053594
X0078232Y0051054
X0069723Y0050871
X0052324Y0050732
X004953Y00508
X0039116Y0052832
X0036322
X003302Y0049784
X0006524Y004699
X0003984
T06
X0057964Y0004572
X0063044
X0068632
X0073712
X00793
X008438
X0052376
X0047296
X0094742Y0069342
X0089662
X0084191
X0079111
X0074031
X0068528
X0063448
X0057912
X0052832
X0047752
T07
X0104072Y0008032
X010239Y0015138
X0108181Y001905
X011509Y0012141
X0111178Y000635
X0111178Y003175
X0104072Y0033432
X010239Y0040538
X0108181Y004445
X011509Y0037541
X0108181Y005715
X010239Y0061062
X0104072Y0068168
X0111178Y006985
X011509Y0064059
T08
X010874Y00127
X010874Y00381
X010874Y00635
M30
