G04 #@! TF.GenerationSoftware,KiCad,Pcbnew,(6.0.2)*
G04 #@! TF.CreationDate,2022-04-18T11:06:32+01:00*
G04 #@! TF.ProjectId,VCO_KiCad_Project-20220418,56434f5f-4b69-4436-9164-5f50726f6a65,rev?*
G04 #@! TF.SameCoordinates,Original*
G04 #@! TF.FileFunction,Copper,L1,Top*
G04 #@! TF.FilePolarity,Positive*
%FSLAX46Y46*%
G04 Gerber Fmt 4.6, Leading zero omitted, Abs format (unit mm)*
G04 Created by KiCad (PCBNEW (6.0.2)) date 2022-04-18 11:06:32*
%MOMM*%
%LPD*%
G01*
G04 APERTURE LIST*
G04 #@! TA.AperFunction,ComponentPad*
%ADD10C,4.000000*%
G04 #@! TD*
G04 APERTURE END LIST*
D10*
X149084640Y-82227820D03*
X182949640Y-82227820D03*
X174484640Y-40542820D03*
X115219640Y-82227820D03*
X123684640Y-40542820D03*
G04 #@! TA.AperFunction,Conductor*
G36*
X208126761Y-4262822D02*
G01*
X208173254Y-4316478D01*
X208184640Y-4368820D01*
X208184640Y-203716820D01*
X208164638Y-203784941D01*
X208110982Y-203831434D01*
X208058640Y-203842820D01*
X107110640Y-203842820D01*
X107042519Y-203822818D01*
X106996026Y-203769162D01*
X106984640Y-203716820D01*
X106984640Y-199092820D01*
X110579497Y-199092820D01*
X110581080Y-199099763D01*
X110581128Y-199100189D01*
X110581638Y-199105946D01*
X110596210Y-199328271D01*
X110642243Y-199559694D01*
X110643569Y-199563600D01*
X110643570Y-199563604D01*
X110716765Y-199779228D01*
X110718089Y-199783128D01*
X110822449Y-199994751D01*
X110824743Y-199998184D01*
X110881262Y-200082770D01*
X110953540Y-200190942D01*
X110956254Y-200194036D01*
X110956258Y-200194042D01*
X111084462Y-200340229D01*
X111109117Y-200368343D01*
X111112206Y-200371052D01*
X111283418Y-200521202D01*
X111283424Y-200521206D01*
X111286518Y-200523920D01*
X111289944Y-200526209D01*
X111289949Y-200526213D01*
X111436891Y-200624396D01*
X111482709Y-200655011D01*
X111694332Y-200759371D01*
X111698230Y-200760694D01*
X111698232Y-200760695D01*
X111913856Y-200833890D01*
X111913860Y-200833891D01*
X111917766Y-200835217D01*
X111921810Y-200836021D01*
X111921816Y-200836023D01*
X112145146Y-200880446D01*
X112145149Y-200880446D01*
X112149189Y-200881250D01*
X112153300Y-200881519D01*
X112153304Y-200881520D01*
X112370430Y-200895751D01*
X112376594Y-200896307D01*
X112376970Y-200896350D01*
X112383924Y-200897962D01*
X112384640Y-200897963D01*
X112393358Y-200895974D01*
X112421373Y-200892820D01*
X116147328Y-200892820D01*
X116175777Y-200896074D01*
X116183924Y-200897962D01*
X116184640Y-200897963D01*
X116191583Y-200896380D01*
X116192009Y-200896332D01*
X116197766Y-200895822D01*
X116310080Y-200888461D01*
X116415976Y-200881520D01*
X116415980Y-200881519D01*
X116420091Y-200881250D01*
X116424131Y-200880446D01*
X116424134Y-200880446D01*
X116647464Y-200836023D01*
X116647470Y-200836021D01*
X116651514Y-200835217D01*
X116655420Y-200833891D01*
X116655424Y-200833890D01*
X116871048Y-200760695D01*
X116871050Y-200760694D01*
X116874948Y-200759371D01*
X117086571Y-200655011D01*
X117132389Y-200624396D01*
X117279331Y-200526213D01*
X117279336Y-200526209D01*
X117282762Y-200523920D01*
X117285856Y-200521206D01*
X117285862Y-200521202D01*
X117457074Y-200371052D01*
X117460163Y-200368343D01*
X117484818Y-200340229D01*
X117613022Y-200194042D01*
X117613026Y-200194036D01*
X117615740Y-200190942D01*
X117688019Y-200082770D01*
X117744537Y-199998184D01*
X117746831Y-199994751D01*
X117851191Y-199783128D01*
X117852515Y-199779228D01*
X117925710Y-199563604D01*
X117925711Y-199563600D01*
X117927037Y-199559694D01*
X117973070Y-199328271D01*
X117987571Y-199107030D01*
X117988127Y-199100866D01*
X117988170Y-199100490D01*
X117989782Y-199093536D01*
X117989783Y-199092820D01*
X196959497Y-199092820D01*
X196961080Y-199099763D01*
X196961128Y-199100189D01*
X196961638Y-199105946D01*
X196976210Y-199328271D01*
X197022243Y-199559694D01*
X197023569Y-199563600D01*
X197023570Y-199563604D01*
X197096765Y-199779228D01*
X197098089Y-199783128D01*
X197202449Y-199994751D01*
X197204743Y-199998184D01*
X197261262Y-200082770D01*
X197333540Y-200190942D01*
X197336254Y-200194036D01*
X197336258Y-200194042D01*
X197464462Y-200340229D01*
X197489117Y-200368343D01*
X197492206Y-200371052D01*
X197663418Y-200521202D01*
X197663424Y-200521206D01*
X197666518Y-200523920D01*
X197669944Y-200526209D01*
X197669949Y-200526213D01*
X197816891Y-200624396D01*
X197862709Y-200655011D01*
X198074332Y-200759371D01*
X198078230Y-200760694D01*
X198078232Y-200760695D01*
X198293856Y-200833890D01*
X198293860Y-200833891D01*
X198297766Y-200835217D01*
X198301810Y-200836021D01*
X198301816Y-200836023D01*
X198525146Y-200880446D01*
X198525149Y-200880446D01*
X198529189Y-200881250D01*
X198533300Y-200881519D01*
X198533304Y-200881520D01*
X198750430Y-200895751D01*
X198756594Y-200896307D01*
X198756970Y-200896350D01*
X198763924Y-200897962D01*
X198764640Y-200897963D01*
X198773358Y-200895974D01*
X198801373Y-200892820D01*
X202527328Y-200892820D01*
X202555777Y-200896074D01*
X202563924Y-200897962D01*
X202564640Y-200897963D01*
X202571583Y-200896380D01*
X202572009Y-200896332D01*
X202577766Y-200895822D01*
X202690080Y-200888461D01*
X202795976Y-200881520D01*
X202795980Y-200881519D01*
X202800091Y-200881250D01*
X202804131Y-200880446D01*
X202804134Y-200880446D01*
X203027464Y-200836023D01*
X203027470Y-200836021D01*
X203031514Y-200835217D01*
X203035420Y-200833891D01*
X203035424Y-200833890D01*
X203251048Y-200760695D01*
X203251050Y-200760694D01*
X203254948Y-200759371D01*
X203466571Y-200655011D01*
X203512389Y-200624396D01*
X203659331Y-200526213D01*
X203659336Y-200526209D01*
X203662762Y-200523920D01*
X203665856Y-200521206D01*
X203665862Y-200521202D01*
X203837074Y-200371052D01*
X203840163Y-200368343D01*
X203864818Y-200340229D01*
X203993022Y-200194042D01*
X203993026Y-200194036D01*
X203995740Y-200190942D01*
X204068019Y-200082770D01*
X204124537Y-199998184D01*
X204126831Y-199994751D01*
X204231191Y-199783128D01*
X204232515Y-199779228D01*
X204305710Y-199563604D01*
X204305711Y-199563600D01*
X204307037Y-199559694D01*
X204353070Y-199328271D01*
X204367571Y-199107030D01*
X204368127Y-199100866D01*
X204368170Y-199100490D01*
X204369782Y-199093536D01*
X204369783Y-199092820D01*
X204367794Y-199084102D01*
X204364640Y-199056087D01*
X204364640Y-199030132D01*
X204367894Y-199001680D01*
X204369782Y-198993536D01*
X204369783Y-198992820D01*
X204368200Y-198985877D01*
X204368152Y-198985451D01*
X204367641Y-198979681D01*
X204367415Y-198976222D01*
X204353070Y-198757369D01*
X204307037Y-198525946D01*
X204249767Y-198357233D01*
X204232515Y-198306412D01*
X204232514Y-198306410D01*
X204231191Y-198302512D01*
X204126831Y-198090889D01*
X204096216Y-198045071D01*
X203998033Y-197898129D01*
X203998029Y-197898124D01*
X203995740Y-197894698D01*
X203993026Y-197891604D01*
X203993022Y-197891598D01*
X203842872Y-197720386D01*
X203840163Y-197717297D01*
X203776358Y-197661341D01*
X203665862Y-197564438D01*
X203665856Y-197564434D01*
X203662762Y-197561720D01*
X203659336Y-197559431D01*
X203659331Y-197559427D01*
X203470004Y-197432923D01*
X203466571Y-197430629D01*
X203254948Y-197326269D01*
X203251048Y-197324945D01*
X203035424Y-197251750D01*
X203035420Y-197251749D01*
X203031514Y-197250423D01*
X203027470Y-197249619D01*
X203027464Y-197249617D01*
X202804134Y-197205194D01*
X202804131Y-197205194D01*
X202800091Y-197204390D01*
X202795980Y-197204121D01*
X202795976Y-197204120D01*
X202578850Y-197189889D01*
X202572686Y-197189333D01*
X202572310Y-197189290D01*
X202565356Y-197187678D01*
X202564640Y-197187677D01*
X202555922Y-197189666D01*
X202527907Y-197192820D01*
X198801952Y-197192820D01*
X198773503Y-197189566D01*
X198765356Y-197187678D01*
X198764640Y-197187677D01*
X198757697Y-197189260D01*
X198757271Y-197189308D01*
X198751514Y-197189818D01*
X198639200Y-197197179D01*
X198533304Y-197204120D01*
X198533300Y-197204121D01*
X198529189Y-197204390D01*
X198525149Y-197205194D01*
X198525146Y-197205194D01*
X198301816Y-197249617D01*
X198301810Y-197249619D01*
X198297766Y-197250423D01*
X198293860Y-197251749D01*
X198293856Y-197251750D01*
X198078232Y-197324945D01*
X198074332Y-197326269D01*
X197862709Y-197430629D01*
X197859276Y-197432923D01*
X197669949Y-197559427D01*
X197669944Y-197559431D01*
X197666518Y-197561720D01*
X197663424Y-197564434D01*
X197663418Y-197564438D01*
X197552922Y-197661341D01*
X197489117Y-197717297D01*
X197486408Y-197720386D01*
X197336258Y-197891598D01*
X197336254Y-197891604D01*
X197333540Y-197894698D01*
X197331251Y-197898124D01*
X197331247Y-197898129D01*
X197233064Y-198045071D01*
X197202449Y-198090889D01*
X197098089Y-198302512D01*
X197096766Y-198306410D01*
X197096765Y-198306412D01*
X197079514Y-198357233D01*
X197022243Y-198525946D01*
X196976210Y-198757369D01*
X196975941Y-198761480D01*
X196975940Y-198761484D01*
X196961709Y-198978610D01*
X196961153Y-198984774D01*
X196961110Y-198985150D01*
X196959498Y-198992104D01*
X196959497Y-198992820D01*
X196961486Y-199001538D01*
X196964640Y-199029553D01*
X196964640Y-199055508D01*
X196961386Y-199083957D01*
X196959498Y-199092104D01*
X196959497Y-199092820D01*
X117989783Y-199092820D01*
X117987794Y-199084102D01*
X117984640Y-199056087D01*
X117984640Y-199030132D01*
X117987894Y-199001680D01*
X117989782Y-198993536D01*
X117989783Y-198992820D01*
X117988200Y-198985877D01*
X117988152Y-198985451D01*
X117987641Y-198979681D01*
X117987415Y-198976222D01*
X117973070Y-198757369D01*
X117927037Y-198525946D01*
X117869767Y-198357233D01*
X117852515Y-198306412D01*
X117852514Y-198306410D01*
X117851191Y-198302512D01*
X117746831Y-198090889D01*
X117716216Y-198045071D01*
X117618033Y-197898129D01*
X117618029Y-197898124D01*
X117615740Y-197894698D01*
X117613026Y-197891604D01*
X117613022Y-197891598D01*
X117462872Y-197720386D01*
X117460163Y-197717297D01*
X117396358Y-197661341D01*
X117285862Y-197564438D01*
X117285856Y-197564434D01*
X117282762Y-197561720D01*
X117279336Y-197559431D01*
X117279331Y-197559427D01*
X117090004Y-197432923D01*
X117086571Y-197430629D01*
X116874948Y-197326269D01*
X116871048Y-197324945D01*
X116655424Y-197251750D01*
X116655420Y-197251749D01*
X116651514Y-197250423D01*
X116647470Y-197249619D01*
X116647464Y-197249617D01*
X116424134Y-197205194D01*
X116424131Y-197205194D01*
X116420091Y-197204390D01*
X116415980Y-197204121D01*
X116415976Y-197204120D01*
X116198850Y-197189889D01*
X116192686Y-197189333D01*
X116192310Y-197189290D01*
X116185356Y-197187678D01*
X116184640Y-197187677D01*
X116175922Y-197189666D01*
X116147907Y-197192820D01*
X112421952Y-197192820D01*
X112393503Y-197189566D01*
X112385356Y-197187678D01*
X112384640Y-197187677D01*
X112377697Y-197189260D01*
X112377271Y-197189308D01*
X112371514Y-197189818D01*
X112259200Y-197197179D01*
X112153304Y-197204120D01*
X112153300Y-197204121D01*
X112149189Y-197204390D01*
X112145149Y-197205194D01*
X112145146Y-197205194D01*
X111921816Y-197249617D01*
X111921810Y-197249619D01*
X111917766Y-197250423D01*
X111913860Y-197251749D01*
X111913856Y-197251750D01*
X111698232Y-197324945D01*
X111694332Y-197326269D01*
X111482709Y-197430629D01*
X111479276Y-197432923D01*
X111289949Y-197559427D01*
X111289944Y-197559431D01*
X111286518Y-197561720D01*
X111283424Y-197564434D01*
X111283418Y-197564438D01*
X111172922Y-197661341D01*
X111109117Y-197717297D01*
X111106408Y-197720386D01*
X110956258Y-197891598D01*
X110956254Y-197891604D01*
X110953540Y-197894698D01*
X110951251Y-197898124D01*
X110951247Y-197898129D01*
X110853064Y-198045071D01*
X110822449Y-198090889D01*
X110718089Y-198302512D01*
X110716766Y-198306410D01*
X110716765Y-198306412D01*
X110699514Y-198357233D01*
X110642243Y-198525946D01*
X110596210Y-198757369D01*
X110595941Y-198761480D01*
X110595940Y-198761484D01*
X110581709Y-198978610D01*
X110581153Y-198984774D01*
X110581110Y-198985150D01*
X110579498Y-198992104D01*
X110579497Y-198992820D01*
X110581486Y-199001538D01*
X110584640Y-199029553D01*
X110584640Y-199055508D01*
X110581386Y-199083957D01*
X110579498Y-199092104D01*
X110579497Y-199092820D01*
X106984640Y-199092820D01*
X106984640Y-180092820D01*
X114279686Y-180092820D01*
X114299492Y-180546462D01*
X114358761Y-180996651D01*
X114359358Y-180999346D01*
X114359359Y-180999349D01*
X114438019Y-181354158D01*
X114457041Y-181439961D01*
X114457866Y-181442578D01*
X114457868Y-181442585D01*
X114522517Y-181647624D01*
X114593583Y-181873019D01*
X114767350Y-182292529D01*
X114977018Y-182695297D01*
X114978497Y-182697619D01*
X114978499Y-182697622D01*
X115037873Y-182790820D01*
X115220991Y-183078259D01*
X115222655Y-183080427D01*
X115222663Y-183080439D01*
X115479464Y-183415107D01*
X115497414Y-183438500D01*
X115499272Y-183440528D01*
X115499279Y-183440536D01*
X115746129Y-183709924D01*
X115804182Y-183773278D01*
X115806202Y-183775129D01*
X116136924Y-184078181D01*
X116136932Y-184078188D01*
X116138960Y-184080046D01*
X116141152Y-184081728D01*
X116497021Y-184354797D01*
X116497033Y-184354805D01*
X116499201Y-184356469D01*
X116501515Y-184357943D01*
X116854708Y-184582951D01*
X116882163Y-184600442D01*
X117284931Y-184810110D01*
X117704441Y-184983877D01*
X117707061Y-184984703D01*
X117707069Y-184984706D01*
X118134875Y-185119592D01*
X118134882Y-185119594D01*
X118137499Y-185120419D01*
X118140184Y-185121014D01*
X118140183Y-185121014D01*
X118578111Y-185218101D01*
X118578114Y-185218102D01*
X118580809Y-185218699D01*
X118583539Y-185219058D01*
X118583548Y-185219060D01*
X118805904Y-185248334D01*
X119030998Y-185277968D01*
X119484640Y-185297774D01*
X119938282Y-185277968D01*
X120163376Y-185248334D01*
X120385732Y-185219060D01*
X120385741Y-185219058D01*
X120388471Y-185218699D01*
X120391166Y-185218102D01*
X120391169Y-185218101D01*
X120829097Y-185121014D01*
X120829096Y-185121014D01*
X120831781Y-185120419D01*
X120834398Y-185119594D01*
X120834405Y-185119592D01*
X121262211Y-184984706D01*
X121262219Y-184984703D01*
X121264839Y-184983877D01*
X121684349Y-184810110D01*
X122087117Y-184600442D01*
X122114573Y-184582951D01*
X122467765Y-184357943D01*
X122470079Y-184356469D01*
X122472247Y-184354805D01*
X122472259Y-184354797D01*
X122828128Y-184081728D01*
X122830320Y-184080046D01*
X122832348Y-184078188D01*
X122832356Y-184078181D01*
X123163078Y-183775129D01*
X123165098Y-183773278D01*
X123223151Y-183709924D01*
X123470001Y-183440536D01*
X123470008Y-183440528D01*
X123471866Y-183438500D01*
X123489816Y-183415107D01*
X123746617Y-183080439D01*
X123746625Y-183080427D01*
X123748289Y-183078259D01*
X123931407Y-182790820D01*
X123990781Y-182697622D01*
X123990783Y-182697619D01*
X123992262Y-182695297D01*
X124201930Y-182292529D01*
X124375697Y-181873019D01*
X124446764Y-181647624D01*
X124511412Y-181442585D01*
X124511414Y-181442578D01*
X124512239Y-181439961D01*
X124531261Y-181354158D01*
X124609921Y-180999349D01*
X124609922Y-180999346D01*
X124610519Y-180996651D01*
X124669788Y-180546462D01*
X124689594Y-180092820D01*
X139679686Y-180092820D01*
X139699492Y-180546462D01*
X139758761Y-180996651D01*
X139759358Y-180999346D01*
X139759359Y-180999349D01*
X139838019Y-181354158D01*
X139857041Y-181439961D01*
X139857866Y-181442578D01*
X139857868Y-181442585D01*
X139922517Y-181647624D01*
X139993583Y-181873019D01*
X140167350Y-182292529D01*
X140377018Y-182695297D01*
X140378497Y-182697619D01*
X140378499Y-182697622D01*
X140437873Y-182790820D01*
X140620991Y-183078259D01*
X140622655Y-183080427D01*
X140622663Y-183080439D01*
X140879464Y-183415107D01*
X140897414Y-183438500D01*
X140899272Y-183440528D01*
X140899279Y-183440536D01*
X141146129Y-183709924D01*
X141204182Y-183773278D01*
X141206202Y-183775129D01*
X141536924Y-184078181D01*
X141536932Y-184078188D01*
X141538960Y-184080046D01*
X141541152Y-184081728D01*
X141897021Y-184354797D01*
X141897033Y-184354805D01*
X141899201Y-184356469D01*
X141901515Y-184357943D01*
X142254708Y-184582951D01*
X142282163Y-184600442D01*
X142684931Y-184810110D01*
X143104441Y-184983877D01*
X143107061Y-184984703D01*
X143107069Y-184984706D01*
X143534875Y-185119592D01*
X143534882Y-185119594D01*
X143537499Y-185120419D01*
X143540184Y-185121014D01*
X143540183Y-185121014D01*
X143978111Y-185218101D01*
X143978114Y-185218102D01*
X143980809Y-185218699D01*
X143983539Y-185219058D01*
X143983548Y-185219060D01*
X144205904Y-185248334D01*
X144430998Y-185277968D01*
X144884640Y-185297774D01*
X145338282Y-185277968D01*
X145563376Y-185248334D01*
X145785732Y-185219060D01*
X145785741Y-185219058D01*
X145788471Y-185218699D01*
X145791166Y-185218102D01*
X145791169Y-185218101D01*
X146229097Y-185121014D01*
X146229096Y-185121014D01*
X146231781Y-185120419D01*
X146234398Y-185119594D01*
X146234405Y-185119592D01*
X146662211Y-184984706D01*
X146662219Y-184984703D01*
X146664839Y-184983877D01*
X147084349Y-184810110D01*
X147487117Y-184600442D01*
X147514573Y-184582951D01*
X147867765Y-184357943D01*
X147870079Y-184356469D01*
X147872247Y-184354805D01*
X147872259Y-184354797D01*
X148228128Y-184081728D01*
X148230320Y-184080046D01*
X148232348Y-184078188D01*
X148232356Y-184078181D01*
X148563078Y-183775129D01*
X148565098Y-183773278D01*
X148623151Y-183709924D01*
X148870001Y-183440536D01*
X148870008Y-183440528D01*
X148871866Y-183438500D01*
X148889816Y-183415107D01*
X149146617Y-183080439D01*
X149146625Y-183080427D01*
X149148289Y-183078259D01*
X149331407Y-182790820D01*
X149390781Y-182697622D01*
X149390783Y-182697619D01*
X149392262Y-182695297D01*
X149601930Y-182292529D01*
X149775697Y-181873019D01*
X149846764Y-181647624D01*
X149911412Y-181442585D01*
X149911414Y-181442578D01*
X149912239Y-181439961D01*
X149931261Y-181354158D01*
X150009921Y-180999349D01*
X150009922Y-180999346D01*
X150010519Y-180996651D01*
X150069788Y-180546462D01*
X150089594Y-180092820D01*
X165079686Y-180092820D01*
X165099492Y-180546462D01*
X165158761Y-180996651D01*
X165159358Y-180999346D01*
X165159359Y-180999349D01*
X165238019Y-181354158D01*
X165257041Y-181439961D01*
X165257866Y-181442578D01*
X165257868Y-181442585D01*
X165322517Y-181647624D01*
X165393583Y-181873019D01*
X165567350Y-182292529D01*
X165777018Y-182695297D01*
X165778497Y-182697619D01*
X165778499Y-182697622D01*
X165837873Y-182790820D01*
X166020991Y-183078259D01*
X166022655Y-183080427D01*
X166022663Y-183080439D01*
X166279464Y-183415107D01*
X166297414Y-183438500D01*
X166299272Y-183440528D01*
X166299279Y-183440536D01*
X166546129Y-183709924D01*
X166604182Y-183773278D01*
X166606202Y-183775129D01*
X166936924Y-184078181D01*
X166936932Y-184078188D01*
X166938960Y-184080046D01*
X166941152Y-184081728D01*
X167297021Y-184354797D01*
X167297033Y-184354805D01*
X167299201Y-184356469D01*
X167301515Y-184357943D01*
X167654708Y-184582951D01*
X167682163Y-184600442D01*
X168084931Y-184810110D01*
X168504441Y-184983877D01*
X168507061Y-184984703D01*
X168507069Y-184984706D01*
X168934875Y-185119592D01*
X168934882Y-185119594D01*
X168937499Y-185120419D01*
X168940184Y-185121014D01*
X168940183Y-185121014D01*
X169378111Y-185218101D01*
X169378114Y-185218102D01*
X169380809Y-185218699D01*
X169383539Y-185219058D01*
X169383548Y-185219060D01*
X169605904Y-185248334D01*
X169830998Y-185277968D01*
X170284640Y-185297774D01*
X170738282Y-185277968D01*
X170963376Y-185248334D01*
X171185732Y-185219060D01*
X171185741Y-185219058D01*
X171188471Y-185218699D01*
X171191166Y-185218102D01*
X171191169Y-185218101D01*
X171629097Y-185121014D01*
X171629096Y-185121014D01*
X171631781Y-185120419D01*
X171634398Y-185119594D01*
X171634405Y-185119592D01*
X172062211Y-184984706D01*
X172062219Y-184984703D01*
X172064839Y-184983877D01*
X172484349Y-184810110D01*
X172887117Y-184600442D01*
X172914573Y-184582951D01*
X173267765Y-184357943D01*
X173270079Y-184356469D01*
X173272247Y-184354805D01*
X173272259Y-184354797D01*
X173628128Y-184081728D01*
X173630320Y-184080046D01*
X173632348Y-184078188D01*
X173632356Y-184078181D01*
X173963078Y-183775129D01*
X173965098Y-183773278D01*
X174023151Y-183709924D01*
X174270001Y-183440536D01*
X174270008Y-183440528D01*
X174271866Y-183438500D01*
X174289816Y-183415107D01*
X174546617Y-183080439D01*
X174546625Y-183080427D01*
X174548289Y-183078259D01*
X174731407Y-182790820D01*
X174790781Y-182697622D01*
X174790783Y-182697619D01*
X174792262Y-182695297D01*
X175001930Y-182292529D01*
X175175697Y-181873019D01*
X175246764Y-181647624D01*
X175311412Y-181442585D01*
X175311414Y-181442578D01*
X175312239Y-181439961D01*
X175331261Y-181354158D01*
X175409921Y-180999349D01*
X175409922Y-180999346D01*
X175410519Y-180996651D01*
X175469788Y-180546462D01*
X175489594Y-180092820D01*
X190479686Y-180092820D01*
X190499492Y-180546462D01*
X190558761Y-180996651D01*
X190559358Y-180999346D01*
X190559359Y-180999349D01*
X190638019Y-181354158D01*
X190657041Y-181439961D01*
X190657866Y-181442578D01*
X190657868Y-181442585D01*
X190722517Y-181647624D01*
X190793583Y-181873019D01*
X190967350Y-182292529D01*
X191177018Y-182695297D01*
X191178497Y-182697619D01*
X191178499Y-182697622D01*
X191237873Y-182790820D01*
X191420991Y-183078259D01*
X191422655Y-183080427D01*
X191422663Y-183080439D01*
X191679464Y-183415107D01*
X191697414Y-183438500D01*
X191699272Y-183440528D01*
X191699279Y-183440536D01*
X191946129Y-183709924D01*
X192004182Y-183773278D01*
X192006202Y-183775129D01*
X192336924Y-184078181D01*
X192336932Y-184078188D01*
X192338960Y-184080046D01*
X192341152Y-184081728D01*
X192697021Y-184354797D01*
X192697033Y-184354805D01*
X192699201Y-184356469D01*
X192701515Y-184357943D01*
X193054708Y-184582951D01*
X193082163Y-184600442D01*
X193484931Y-184810110D01*
X193904441Y-184983877D01*
X193907061Y-184984703D01*
X193907069Y-184984706D01*
X194334875Y-185119592D01*
X194334882Y-185119594D01*
X194337499Y-185120419D01*
X194340184Y-185121014D01*
X194340183Y-185121014D01*
X194778111Y-185218101D01*
X194778114Y-185218102D01*
X194780809Y-185218699D01*
X194783539Y-185219058D01*
X194783548Y-185219060D01*
X195005904Y-185248334D01*
X195230998Y-185277968D01*
X195684640Y-185297774D01*
X196138282Y-185277968D01*
X196363376Y-185248334D01*
X196585732Y-185219060D01*
X196585741Y-185219058D01*
X196588471Y-185218699D01*
X196591166Y-185218102D01*
X196591169Y-185218101D01*
X197029097Y-185121014D01*
X197029096Y-185121014D01*
X197031781Y-185120419D01*
X197034398Y-185119594D01*
X197034405Y-185119592D01*
X197462211Y-184984706D01*
X197462219Y-184984703D01*
X197464839Y-184983877D01*
X197884349Y-184810110D01*
X198287117Y-184600442D01*
X198314573Y-184582951D01*
X198667765Y-184357943D01*
X198670079Y-184356469D01*
X198672247Y-184354805D01*
X198672259Y-184354797D01*
X199028128Y-184081728D01*
X199030320Y-184080046D01*
X199032348Y-184078188D01*
X199032356Y-184078181D01*
X199363078Y-183775129D01*
X199365098Y-183773278D01*
X199423151Y-183709924D01*
X199670001Y-183440536D01*
X199670008Y-183440528D01*
X199671866Y-183438500D01*
X199689816Y-183415107D01*
X199946617Y-183080439D01*
X199946625Y-183080427D01*
X199948289Y-183078259D01*
X200131407Y-182790820D01*
X200190781Y-182697622D01*
X200190783Y-182697619D01*
X200192262Y-182695297D01*
X200401930Y-182292529D01*
X200575697Y-181873019D01*
X200646764Y-181647624D01*
X200711412Y-181442585D01*
X200711414Y-181442578D01*
X200712239Y-181439961D01*
X200731261Y-181354158D01*
X200809921Y-180999349D01*
X200809922Y-180999346D01*
X200810519Y-180996651D01*
X200869788Y-180546462D01*
X200889594Y-180092820D01*
X200869788Y-179639178D01*
X200810519Y-179188989D01*
X200795101Y-179119441D01*
X200712834Y-178748363D01*
X200712239Y-178745679D01*
X200711412Y-178743055D01*
X200576526Y-178315249D01*
X200576523Y-178315241D01*
X200575697Y-178312621D01*
X200401930Y-177893111D01*
X200192262Y-177490343D01*
X199948289Y-177107381D01*
X199946625Y-177105213D01*
X199946617Y-177105201D01*
X199673548Y-176749332D01*
X199671866Y-176747140D01*
X199670008Y-176745112D01*
X199670001Y-176745104D01*
X199366949Y-176414382D01*
X199365098Y-176412362D01*
X199225806Y-176284724D01*
X199032356Y-176107459D01*
X199032348Y-176107452D01*
X199030320Y-176105594D01*
X199028128Y-176103912D01*
X198672259Y-175830843D01*
X198672247Y-175830835D01*
X198670079Y-175829171D01*
X198287117Y-175585198D01*
X197884349Y-175375530D01*
X197464839Y-175201763D01*
X197462219Y-175200937D01*
X197462211Y-175200934D01*
X197034405Y-175066048D01*
X197034398Y-175066046D01*
X197031781Y-175065221D01*
X196945978Y-175046199D01*
X196591169Y-174967539D01*
X196591166Y-174967538D01*
X196588471Y-174966941D01*
X196585741Y-174966582D01*
X196585732Y-174966580D01*
X196363376Y-174937306D01*
X196138282Y-174907672D01*
X195684640Y-174887866D01*
X195230998Y-174907672D01*
X195005904Y-174937306D01*
X194783548Y-174966580D01*
X194783539Y-174966582D01*
X194780809Y-174966941D01*
X194778114Y-174967538D01*
X194778111Y-174967539D01*
X194423302Y-175046199D01*
X194337499Y-175065221D01*
X194334882Y-175066046D01*
X194334875Y-175066048D01*
X193907069Y-175200934D01*
X193907061Y-175200937D01*
X193904441Y-175201763D01*
X193484931Y-175375530D01*
X193082163Y-175585198D01*
X192699201Y-175829171D01*
X192697033Y-175830835D01*
X192697021Y-175830843D01*
X192341152Y-176103912D01*
X192338960Y-176105594D01*
X192336932Y-176107452D01*
X192336924Y-176107459D01*
X192143474Y-176284724D01*
X192004182Y-176412362D01*
X192002331Y-176414382D01*
X191699279Y-176745104D01*
X191699272Y-176745112D01*
X191697414Y-176747140D01*
X191695732Y-176749332D01*
X191422663Y-177105201D01*
X191422655Y-177105213D01*
X191420991Y-177107381D01*
X191177018Y-177490343D01*
X190967350Y-177893111D01*
X190793583Y-178312621D01*
X190792757Y-178315241D01*
X190792754Y-178315249D01*
X190657868Y-178743055D01*
X190657041Y-178745679D01*
X190656446Y-178748363D01*
X190574180Y-179119441D01*
X190558761Y-179188989D01*
X190499492Y-179639178D01*
X190485172Y-179967171D01*
X190479686Y-180092820D01*
X175489594Y-180092820D01*
X175469788Y-179639178D01*
X175410519Y-179188989D01*
X175395101Y-179119441D01*
X175312834Y-178748363D01*
X175312239Y-178745679D01*
X175311412Y-178743055D01*
X175176526Y-178315249D01*
X175176523Y-178315241D01*
X175175697Y-178312621D01*
X175001930Y-177893111D01*
X174792262Y-177490343D01*
X174548289Y-177107381D01*
X174546625Y-177105213D01*
X174546617Y-177105201D01*
X174273548Y-176749332D01*
X174271866Y-176747140D01*
X174270008Y-176745112D01*
X174270001Y-176745104D01*
X173966949Y-176414382D01*
X173965098Y-176412362D01*
X173825806Y-176284724D01*
X173632356Y-176107459D01*
X173632348Y-176107452D01*
X173630320Y-176105594D01*
X173628128Y-176103912D01*
X173272259Y-175830843D01*
X173272247Y-175830835D01*
X173270079Y-175829171D01*
X172887117Y-175585198D01*
X172484349Y-175375530D01*
X172064839Y-175201763D01*
X172062219Y-175200937D01*
X172062211Y-175200934D01*
X171634405Y-175066048D01*
X171634398Y-175066046D01*
X171631781Y-175065221D01*
X171545978Y-175046199D01*
X171191169Y-174967539D01*
X171191166Y-174967538D01*
X171188471Y-174966941D01*
X171185741Y-174966582D01*
X171185732Y-174966580D01*
X170963376Y-174937306D01*
X170738282Y-174907672D01*
X170284640Y-174887866D01*
X169830998Y-174907672D01*
X169605904Y-174937306D01*
X169383548Y-174966580D01*
X169383539Y-174966582D01*
X169380809Y-174966941D01*
X169378114Y-174967538D01*
X169378111Y-174967539D01*
X169023302Y-175046199D01*
X168937499Y-175065221D01*
X168934882Y-175066046D01*
X168934875Y-175066048D01*
X168507069Y-175200934D01*
X168507061Y-175200937D01*
X168504441Y-175201763D01*
X168084931Y-175375530D01*
X167682163Y-175585198D01*
X167299201Y-175829171D01*
X167297033Y-175830835D01*
X167297021Y-175830843D01*
X166941152Y-176103912D01*
X166938960Y-176105594D01*
X166936932Y-176107452D01*
X166936924Y-176107459D01*
X166743474Y-176284724D01*
X166604182Y-176412362D01*
X166602331Y-176414382D01*
X166299279Y-176745104D01*
X166299272Y-176745112D01*
X166297414Y-176747140D01*
X166295732Y-176749332D01*
X166022663Y-177105201D01*
X166022655Y-177105213D01*
X166020991Y-177107381D01*
X165777018Y-177490343D01*
X165567350Y-177893111D01*
X165393583Y-178312621D01*
X165392757Y-178315241D01*
X165392754Y-178315249D01*
X165257868Y-178743055D01*
X165257041Y-178745679D01*
X165256446Y-178748363D01*
X165174180Y-179119441D01*
X165158761Y-179188989D01*
X165099492Y-179639178D01*
X165085172Y-179967171D01*
X165079686Y-180092820D01*
X150089594Y-180092820D01*
X150069788Y-179639178D01*
X150010519Y-179188989D01*
X149995101Y-179119441D01*
X149912834Y-178748363D01*
X149912239Y-178745679D01*
X149911412Y-178743055D01*
X149776526Y-178315249D01*
X149776523Y-178315241D01*
X149775697Y-178312621D01*
X149601930Y-177893111D01*
X149392262Y-177490343D01*
X149148289Y-177107381D01*
X149146625Y-177105213D01*
X149146617Y-177105201D01*
X148873548Y-176749332D01*
X148871866Y-176747140D01*
X148870008Y-176745112D01*
X148870001Y-176745104D01*
X148566949Y-176414382D01*
X148565098Y-176412362D01*
X148425806Y-176284724D01*
X148232356Y-176107459D01*
X148232348Y-176107452D01*
X148230320Y-176105594D01*
X148228128Y-176103912D01*
X147872259Y-175830843D01*
X147872247Y-175830835D01*
X147870079Y-175829171D01*
X147487117Y-175585198D01*
X147084349Y-175375530D01*
X146664839Y-175201763D01*
X146662219Y-175200937D01*
X146662211Y-175200934D01*
X146234405Y-175066048D01*
X146234398Y-175066046D01*
X146231781Y-175065221D01*
X146145978Y-175046199D01*
X145791169Y-174967539D01*
X145791166Y-174967538D01*
X145788471Y-174966941D01*
X145785741Y-174966582D01*
X145785732Y-174966580D01*
X145563376Y-174937306D01*
X145338282Y-174907672D01*
X144884640Y-174887866D01*
X144430998Y-174907672D01*
X144205904Y-174937306D01*
X143983548Y-174966580D01*
X143983539Y-174966582D01*
X143980809Y-174966941D01*
X143978114Y-174967538D01*
X143978111Y-174967539D01*
X143623302Y-175046199D01*
X143537499Y-175065221D01*
X143534882Y-175066046D01*
X143534875Y-175066048D01*
X143107069Y-175200934D01*
X143107061Y-175200937D01*
X143104441Y-175201763D01*
X142684931Y-175375530D01*
X142282163Y-175585198D01*
X141899201Y-175829171D01*
X141897033Y-175830835D01*
X141897021Y-175830843D01*
X141541152Y-176103912D01*
X141538960Y-176105594D01*
X141536932Y-176107452D01*
X141536924Y-176107459D01*
X141343474Y-176284724D01*
X141204182Y-176412362D01*
X141202331Y-176414382D01*
X140899279Y-176745104D01*
X140899272Y-176745112D01*
X140897414Y-176747140D01*
X140895732Y-176749332D01*
X140622663Y-177105201D01*
X140622655Y-177105213D01*
X140620991Y-177107381D01*
X140377018Y-177490343D01*
X140167350Y-177893111D01*
X139993583Y-178312621D01*
X139992757Y-178315241D01*
X139992754Y-178315249D01*
X139857868Y-178743055D01*
X139857041Y-178745679D01*
X139856446Y-178748363D01*
X139774180Y-179119441D01*
X139758761Y-179188989D01*
X139699492Y-179639178D01*
X139685172Y-179967171D01*
X139679686Y-180092820D01*
X124689594Y-180092820D01*
X124669788Y-179639178D01*
X124610519Y-179188989D01*
X124595101Y-179119441D01*
X124512834Y-178748363D01*
X124512239Y-178745679D01*
X124511412Y-178743055D01*
X124376526Y-178315249D01*
X124376523Y-178315241D01*
X124375697Y-178312621D01*
X124201930Y-177893111D01*
X123992262Y-177490343D01*
X123748289Y-177107381D01*
X123746625Y-177105213D01*
X123746617Y-177105201D01*
X123473548Y-176749332D01*
X123471866Y-176747140D01*
X123470008Y-176745112D01*
X123470001Y-176745104D01*
X123166949Y-176414382D01*
X123165098Y-176412362D01*
X123025806Y-176284724D01*
X122832356Y-176107459D01*
X122832348Y-176107452D01*
X122830320Y-176105594D01*
X122828128Y-176103912D01*
X122472259Y-175830843D01*
X122472247Y-175830835D01*
X122470079Y-175829171D01*
X122087117Y-175585198D01*
X121684349Y-175375530D01*
X121264839Y-175201763D01*
X121262219Y-175200937D01*
X121262211Y-175200934D01*
X120834405Y-175066048D01*
X120834398Y-175066046D01*
X120831781Y-175065221D01*
X120745978Y-175046199D01*
X120391169Y-174967539D01*
X120391166Y-174967538D01*
X120388471Y-174966941D01*
X120385741Y-174966582D01*
X120385732Y-174966580D01*
X120163376Y-174937306D01*
X119938282Y-174907672D01*
X119484640Y-174887866D01*
X119030998Y-174907672D01*
X118805904Y-174937306D01*
X118583548Y-174966580D01*
X118583539Y-174966582D01*
X118580809Y-174966941D01*
X118578114Y-174967538D01*
X118578111Y-174967539D01*
X118223302Y-175046199D01*
X118137499Y-175065221D01*
X118134882Y-175066046D01*
X118134875Y-175066048D01*
X117707069Y-175200934D01*
X117707061Y-175200937D01*
X117704441Y-175201763D01*
X117284931Y-175375530D01*
X116882163Y-175585198D01*
X116499201Y-175829171D01*
X116497033Y-175830835D01*
X116497021Y-175830843D01*
X116141152Y-176103912D01*
X116138960Y-176105594D01*
X116136932Y-176107452D01*
X116136924Y-176107459D01*
X115943474Y-176284724D01*
X115804182Y-176412362D01*
X115802331Y-176414382D01*
X115499279Y-176745104D01*
X115499272Y-176745112D01*
X115497414Y-176747140D01*
X115495732Y-176749332D01*
X115222663Y-177105201D01*
X115222655Y-177105213D01*
X115220991Y-177107381D01*
X114977018Y-177490343D01*
X114767350Y-177893111D01*
X114593583Y-178312621D01*
X114592757Y-178315241D01*
X114592754Y-178315249D01*
X114457868Y-178743055D01*
X114457041Y-178745679D01*
X114456446Y-178748363D01*
X114374180Y-179119441D01*
X114358761Y-179188989D01*
X114299492Y-179639178D01*
X114285172Y-179967171D01*
X114279686Y-180092820D01*
X106984640Y-180092820D01*
X106984640Y-154692820D01*
X114279686Y-154692820D01*
X114299492Y-155146462D01*
X114358761Y-155596651D01*
X114359358Y-155599346D01*
X114359359Y-155599349D01*
X114438019Y-155954157D01*
X114457041Y-156039961D01*
X114457866Y-156042578D01*
X114457868Y-156042585D01*
X114522517Y-156247624D01*
X114593583Y-156473019D01*
X114767350Y-156892529D01*
X114977018Y-157295297D01*
X114978497Y-157297619D01*
X114978499Y-157297622D01*
X115037873Y-157390820D01*
X115220991Y-157678259D01*
X115222655Y-157680427D01*
X115222663Y-157680439D01*
X115479464Y-158015107D01*
X115497414Y-158038500D01*
X115499272Y-158040528D01*
X115499279Y-158040536D01*
X115746129Y-158309924D01*
X115804182Y-158373278D01*
X115806202Y-158375129D01*
X116136924Y-158678181D01*
X116136932Y-158678188D01*
X116138960Y-158680046D01*
X116141152Y-158681728D01*
X116497021Y-158954797D01*
X116497033Y-158954805D01*
X116499201Y-158956469D01*
X116501515Y-158957943D01*
X116854708Y-159182951D01*
X116882163Y-159200442D01*
X117284931Y-159410110D01*
X117704441Y-159583877D01*
X117707061Y-159584703D01*
X117707069Y-159584706D01*
X118134875Y-159719592D01*
X118134882Y-159719594D01*
X118137499Y-159720419D01*
X118140184Y-159721014D01*
X118140183Y-159721014D01*
X118578111Y-159818101D01*
X118578114Y-159818102D01*
X118580809Y-159818699D01*
X118583539Y-159819058D01*
X118583548Y-159819060D01*
X118805904Y-159848334D01*
X119030998Y-159877968D01*
X119484640Y-159897774D01*
X119938282Y-159877968D01*
X120163376Y-159848334D01*
X120385732Y-159819060D01*
X120385741Y-159819058D01*
X120388471Y-159818699D01*
X120391166Y-159818102D01*
X120391169Y-159818101D01*
X120829097Y-159721014D01*
X120829096Y-159721014D01*
X120831781Y-159720419D01*
X120834398Y-159719594D01*
X120834405Y-159719592D01*
X121262211Y-159584706D01*
X121262219Y-159584703D01*
X121264839Y-159583877D01*
X121684349Y-159410110D01*
X122087117Y-159200442D01*
X122114573Y-159182951D01*
X122467765Y-158957943D01*
X122470079Y-158956469D01*
X122472247Y-158954805D01*
X122472259Y-158954797D01*
X122828128Y-158681728D01*
X122830320Y-158680046D01*
X122832348Y-158678188D01*
X122832356Y-158678181D01*
X123163078Y-158375129D01*
X123165098Y-158373278D01*
X123223151Y-158309924D01*
X123470001Y-158040536D01*
X123470008Y-158040528D01*
X123471866Y-158038500D01*
X123489816Y-158015107D01*
X123746617Y-157680439D01*
X123746625Y-157680427D01*
X123748289Y-157678259D01*
X123931407Y-157390820D01*
X123990781Y-157297622D01*
X123990783Y-157297619D01*
X123992262Y-157295297D01*
X124201930Y-156892529D01*
X124375697Y-156473019D01*
X124446764Y-156247624D01*
X124511412Y-156042585D01*
X124511414Y-156042578D01*
X124512239Y-156039961D01*
X124531261Y-155954158D01*
X124609921Y-155599349D01*
X124609922Y-155599346D01*
X124610519Y-155596651D01*
X124669788Y-155146462D01*
X124689594Y-154692820D01*
X139679686Y-154692820D01*
X139699492Y-155146462D01*
X139758761Y-155596651D01*
X139759358Y-155599346D01*
X139759359Y-155599349D01*
X139838019Y-155954157D01*
X139857041Y-156039961D01*
X139857866Y-156042578D01*
X139857868Y-156042585D01*
X139922517Y-156247624D01*
X139993583Y-156473019D01*
X140167350Y-156892529D01*
X140377018Y-157295297D01*
X140378497Y-157297619D01*
X140378499Y-157297622D01*
X140437873Y-157390820D01*
X140620991Y-157678259D01*
X140622655Y-157680427D01*
X140622663Y-157680439D01*
X140879464Y-158015107D01*
X140897414Y-158038500D01*
X140899272Y-158040528D01*
X140899279Y-158040536D01*
X141146129Y-158309924D01*
X141204182Y-158373278D01*
X141206202Y-158375129D01*
X141536924Y-158678181D01*
X141536932Y-158678188D01*
X141538960Y-158680046D01*
X141541152Y-158681728D01*
X141897021Y-158954797D01*
X141897033Y-158954805D01*
X141899201Y-158956469D01*
X141901515Y-158957943D01*
X142254708Y-159182951D01*
X142282163Y-159200442D01*
X142684931Y-159410110D01*
X143104441Y-159583877D01*
X143107061Y-159584703D01*
X143107069Y-159584706D01*
X143534875Y-159719592D01*
X143534882Y-159719594D01*
X143537499Y-159720419D01*
X143540184Y-159721014D01*
X143540183Y-159721014D01*
X143978111Y-159818101D01*
X143978114Y-159818102D01*
X143980809Y-159818699D01*
X143983539Y-159819058D01*
X143983548Y-159819060D01*
X144205904Y-159848334D01*
X144430998Y-159877968D01*
X144884640Y-159897774D01*
X145338282Y-159877968D01*
X145563376Y-159848334D01*
X145785732Y-159819060D01*
X145785741Y-159819058D01*
X145788471Y-159818699D01*
X145791166Y-159818102D01*
X145791169Y-159818101D01*
X146229097Y-159721014D01*
X146229096Y-159721014D01*
X146231781Y-159720419D01*
X146234398Y-159719594D01*
X146234405Y-159719592D01*
X146662211Y-159584706D01*
X146662219Y-159584703D01*
X146664839Y-159583877D01*
X147084349Y-159410110D01*
X147487117Y-159200442D01*
X147514573Y-159182951D01*
X147867765Y-158957943D01*
X147870079Y-158956469D01*
X147872247Y-158954805D01*
X147872259Y-158954797D01*
X148228128Y-158681728D01*
X148230320Y-158680046D01*
X148232348Y-158678188D01*
X148232356Y-158678181D01*
X148563078Y-158375129D01*
X148565098Y-158373278D01*
X148623151Y-158309924D01*
X148870001Y-158040536D01*
X148870008Y-158040528D01*
X148871866Y-158038500D01*
X148889816Y-158015107D01*
X149146617Y-157680439D01*
X149146625Y-157680427D01*
X149148289Y-157678259D01*
X149331407Y-157390820D01*
X149390781Y-157297622D01*
X149390783Y-157297619D01*
X149392262Y-157295297D01*
X149601930Y-156892529D01*
X149775697Y-156473019D01*
X149846764Y-156247624D01*
X149911412Y-156042585D01*
X149911414Y-156042578D01*
X149912239Y-156039961D01*
X149931261Y-155954158D01*
X150009921Y-155599349D01*
X150009922Y-155599346D01*
X150010519Y-155596651D01*
X150069788Y-155146462D01*
X150089594Y-154692820D01*
X165079686Y-154692820D01*
X165099492Y-155146462D01*
X165158761Y-155596651D01*
X165159358Y-155599346D01*
X165159359Y-155599349D01*
X165238019Y-155954157D01*
X165257041Y-156039961D01*
X165257866Y-156042578D01*
X165257868Y-156042585D01*
X165322517Y-156247624D01*
X165393583Y-156473019D01*
X165567350Y-156892529D01*
X165777018Y-157295297D01*
X165778497Y-157297619D01*
X165778499Y-157297622D01*
X165837873Y-157390820D01*
X166020991Y-157678259D01*
X166022655Y-157680427D01*
X166022663Y-157680439D01*
X166279464Y-158015107D01*
X166297414Y-158038500D01*
X166299272Y-158040528D01*
X166299279Y-158040536D01*
X166546129Y-158309924D01*
X166604182Y-158373278D01*
X166606202Y-158375129D01*
X166936924Y-158678181D01*
X166936932Y-158678188D01*
X166938960Y-158680046D01*
X166941152Y-158681728D01*
X167297021Y-158954797D01*
X167297033Y-158954805D01*
X167299201Y-158956469D01*
X167301515Y-158957943D01*
X167654708Y-159182951D01*
X167682163Y-159200442D01*
X168084931Y-159410110D01*
X168504441Y-159583877D01*
X168507061Y-159584703D01*
X168507069Y-159584706D01*
X168934875Y-159719592D01*
X168934882Y-159719594D01*
X168937499Y-159720419D01*
X168940184Y-159721014D01*
X168940183Y-159721014D01*
X169378111Y-159818101D01*
X169378114Y-159818102D01*
X169380809Y-159818699D01*
X169383539Y-159819058D01*
X169383548Y-159819060D01*
X169605904Y-159848334D01*
X169830998Y-159877968D01*
X170284640Y-159897774D01*
X170738282Y-159877968D01*
X170963376Y-159848334D01*
X171185732Y-159819060D01*
X171185741Y-159819058D01*
X171188471Y-159818699D01*
X171191166Y-159818102D01*
X171191169Y-159818101D01*
X171629097Y-159721014D01*
X171629096Y-159721014D01*
X171631781Y-159720419D01*
X171634398Y-159719594D01*
X171634405Y-159719592D01*
X172062211Y-159584706D01*
X172062219Y-159584703D01*
X172064839Y-159583877D01*
X172484349Y-159410110D01*
X172887117Y-159200442D01*
X172914573Y-159182951D01*
X173267765Y-158957943D01*
X173270079Y-158956469D01*
X173272247Y-158954805D01*
X173272259Y-158954797D01*
X173628128Y-158681728D01*
X173630320Y-158680046D01*
X173632348Y-158678188D01*
X173632356Y-158678181D01*
X173963078Y-158375129D01*
X173965098Y-158373278D01*
X174023151Y-158309924D01*
X174270001Y-158040536D01*
X174270008Y-158040528D01*
X174271866Y-158038500D01*
X174289816Y-158015107D01*
X174546617Y-157680439D01*
X174546625Y-157680427D01*
X174548289Y-157678259D01*
X174731407Y-157390820D01*
X174790781Y-157297622D01*
X174790783Y-157297619D01*
X174792262Y-157295297D01*
X175001930Y-156892529D01*
X175175697Y-156473019D01*
X175246764Y-156247624D01*
X175311412Y-156042585D01*
X175311414Y-156042578D01*
X175312239Y-156039961D01*
X175331261Y-155954158D01*
X175409921Y-155599349D01*
X175409922Y-155599346D01*
X175410519Y-155596651D01*
X175469788Y-155146462D01*
X175489594Y-154692820D01*
X190479686Y-154692820D01*
X190499492Y-155146462D01*
X190558761Y-155596651D01*
X190559358Y-155599346D01*
X190559359Y-155599349D01*
X190638019Y-155954158D01*
X190657041Y-156039961D01*
X190657866Y-156042578D01*
X190657868Y-156042585D01*
X190722517Y-156247624D01*
X190793583Y-156473019D01*
X190967350Y-156892529D01*
X191177018Y-157295297D01*
X191178497Y-157297619D01*
X191178499Y-157297622D01*
X191237873Y-157390820D01*
X191420991Y-157678259D01*
X191422655Y-157680427D01*
X191422663Y-157680439D01*
X191679464Y-158015107D01*
X191697414Y-158038500D01*
X191699272Y-158040528D01*
X191699279Y-158040536D01*
X191946129Y-158309924D01*
X192004182Y-158373278D01*
X192006202Y-158375129D01*
X192336924Y-158678181D01*
X192336932Y-158678188D01*
X192338960Y-158680046D01*
X192341152Y-158681728D01*
X192697021Y-158954797D01*
X192697033Y-158954805D01*
X192699201Y-158956469D01*
X192701515Y-158957943D01*
X193054708Y-159182951D01*
X193082163Y-159200442D01*
X193484931Y-159410110D01*
X193904441Y-159583877D01*
X193907061Y-159584703D01*
X193907069Y-159584706D01*
X194334875Y-159719592D01*
X194334882Y-159719594D01*
X194337499Y-159720419D01*
X194340184Y-159721014D01*
X194340183Y-159721014D01*
X194778111Y-159818101D01*
X194778114Y-159818102D01*
X194780809Y-159818699D01*
X194783539Y-159819058D01*
X194783548Y-159819060D01*
X195005904Y-159848334D01*
X195230998Y-159877968D01*
X195684640Y-159897774D01*
X196138282Y-159877968D01*
X196363376Y-159848334D01*
X196585732Y-159819060D01*
X196585741Y-159819058D01*
X196588471Y-159818699D01*
X196591166Y-159818102D01*
X196591169Y-159818101D01*
X197029097Y-159721014D01*
X197029096Y-159721014D01*
X197031781Y-159720419D01*
X197034398Y-159719594D01*
X197034405Y-159719592D01*
X197462211Y-159584706D01*
X197462219Y-159584703D01*
X197464839Y-159583877D01*
X197884349Y-159410110D01*
X198287117Y-159200442D01*
X198314573Y-159182951D01*
X198667765Y-158957943D01*
X198670079Y-158956469D01*
X198672247Y-158954805D01*
X198672259Y-158954797D01*
X199028128Y-158681728D01*
X199030320Y-158680046D01*
X199032348Y-158678188D01*
X199032356Y-158678181D01*
X199363078Y-158375129D01*
X199365098Y-158373278D01*
X199423151Y-158309924D01*
X199670001Y-158040536D01*
X199670008Y-158040528D01*
X199671866Y-158038500D01*
X199689816Y-158015107D01*
X199946617Y-157680439D01*
X199946625Y-157680427D01*
X199948289Y-157678259D01*
X200131407Y-157390820D01*
X200190781Y-157297622D01*
X200190783Y-157297619D01*
X200192262Y-157295297D01*
X200401930Y-156892529D01*
X200575697Y-156473019D01*
X200646764Y-156247624D01*
X200711412Y-156042585D01*
X200711414Y-156042578D01*
X200712239Y-156039961D01*
X200731261Y-155954158D01*
X200809921Y-155599349D01*
X200809922Y-155599346D01*
X200810519Y-155596651D01*
X200869788Y-155146462D01*
X200889594Y-154692820D01*
X200869788Y-154239178D01*
X200810519Y-153788989D01*
X200795101Y-153719441D01*
X200712834Y-153348363D01*
X200712239Y-153345679D01*
X200711412Y-153343055D01*
X200576526Y-152915249D01*
X200576523Y-152915241D01*
X200575697Y-152912621D01*
X200401930Y-152493111D01*
X200192262Y-152090343D01*
X199948289Y-151707381D01*
X199946625Y-151705213D01*
X199946617Y-151705201D01*
X199673548Y-151349332D01*
X199671866Y-151347140D01*
X199670008Y-151345112D01*
X199670001Y-151345104D01*
X199366949Y-151014382D01*
X199365098Y-151012362D01*
X199225806Y-150884724D01*
X199032356Y-150707459D01*
X199032348Y-150707452D01*
X199030320Y-150705594D01*
X199028128Y-150703912D01*
X198672259Y-150430843D01*
X198672247Y-150430835D01*
X198670079Y-150429171D01*
X198287117Y-150185198D01*
X197884349Y-149975530D01*
X197464839Y-149801763D01*
X197462219Y-149800937D01*
X197462211Y-149800934D01*
X197034405Y-149666048D01*
X197034398Y-149666046D01*
X197031781Y-149665221D01*
X196945977Y-149646199D01*
X196591169Y-149567539D01*
X196591166Y-149567538D01*
X196588471Y-149566941D01*
X196585741Y-149566582D01*
X196585732Y-149566580D01*
X196363377Y-149537307D01*
X196138282Y-149507672D01*
X195684640Y-149487866D01*
X195230998Y-149507672D01*
X195005903Y-149537307D01*
X194783548Y-149566580D01*
X194783539Y-149566582D01*
X194780809Y-149566941D01*
X194778114Y-149567538D01*
X194778111Y-149567539D01*
X194423303Y-149646199D01*
X194337499Y-149665221D01*
X194334882Y-149666046D01*
X194334875Y-149666048D01*
X193907069Y-149800934D01*
X193907061Y-149800937D01*
X193904441Y-149801763D01*
X193484931Y-149975530D01*
X193082163Y-150185198D01*
X192699201Y-150429171D01*
X192697033Y-150430835D01*
X192697021Y-150430843D01*
X192341152Y-150703912D01*
X192338960Y-150705594D01*
X192336932Y-150707452D01*
X192336924Y-150707459D01*
X192143474Y-150884724D01*
X192004182Y-151012362D01*
X192002331Y-151014382D01*
X191699279Y-151345104D01*
X191699272Y-151345112D01*
X191697414Y-151347140D01*
X191695732Y-151349332D01*
X191422663Y-151705201D01*
X191422655Y-151705213D01*
X191420991Y-151707381D01*
X191177018Y-152090343D01*
X190967350Y-152493111D01*
X190793583Y-152912621D01*
X190792757Y-152915241D01*
X190792754Y-152915249D01*
X190657868Y-153343055D01*
X190657041Y-153345679D01*
X190656446Y-153348363D01*
X190574180Y-153719441D01*
X190558761Y-153788989D01*
X190499492Y-154239178D01*
X190485172Y-154567171D01*
X190479686Y-154692820D01*
X175489594Y-154692820D01*
X175469788Y-154239178D01*
X175410519Y-153788989D01*
X175395101Y-153719441D01*
X175312834Y-153348363D01*
X175312239Y-153345679D01*
X175311412Y-153343055D01*
X175176526Y-152915249D01*
X175176523Y-152915241D01*
X175175697Y-152912621D01*
X175001930Y-152493111D01*
X174792262Y-152090343D01*
X174548289Y-151707381D01*
X174546625Y-151705213D01*
X174546617Y-151705201D01*
X174273548Y-151349332D01*
X174271866Y-151347140D01*
X174270008Y-151345112D01*
X174270001Y-151345104D01*
X173966949Y-151014382D01*
X173965098Y-151012362D01*
X173825806Y-150884724D01*
X173632356Y-150707459D01*
X173632348Y-150707452D01*
X173630320Y-150705594D01*
X173628128Y-150703912D01*
X173272259Y-150430843D01*
X173272247Y-150430835D01*
X173270079Y-150429171D01*
X172887117Y-150185198D01*
X172484349Y-149975530D01*
X172064839Y-149801763D01*
X172062219Y-149800937D01*
X172062211Y-149800934D01*
X171634405Y-149666048D01*
X171634398Y-149666046D01*
X171631781Y-149665221D01*
X171545977Y-149646199D01*
X171191169Y-149567539D01*
X171191166Y-149567538D01*
X171188471Y-149566941D01*
X171185741Y-149566582D01*
X171185732Y-149566580D01*
X170963377Y-149537307D01*
X170738282Y-149507672D01*
X170284640Y-149487866D01*
X169830998Y-149507672D01*
X169605903Y-149537307D01*
X169383548Y-149566580D01*
X169383539Y-149566582D01*
X169380809Y-149566941D01*
X169378114Y-149567538D01*
X169378111Y-149567539D01*
X169023303Y-149646199D01*
X168937499Y-149665221D01*
X168934882Y-149666046D01*
X168934875Y-149666048D01*
X168507069Y-149800934D01*
X168507061Y-149800937D01*
X168504441Y-149801763D01*
X168084931Y-149975530D01*
X167682163Y-150185198D01*
X167299201Y-150429171D01*
X167297033Y-150430835D01*
X167297021Y-150430843D01*
X166941152Y-150703912D01*
X166938960Y-150705594D01*
X166936932Y-150707452D01*
X166936924Y-150707459D01*
X166743474Y-150884724D01*
X166604182Y-151012362D01*
X166602331Y-151014382D01*
X166299279Y-151345104D01*
X166299272Y-151345112D01*
X166297414Y-151347140D01*
X166295732Y-151349332D01*
X166022663Y-151705201D01*
X166022655Y-151705213D01*
X166020991Y-151707381D01*
X165777018Y-152090343D01*
X165567350Y-152493111D01*
X165393583Y-152912621D01*
X165392757Y-152915241D01*
X165392754Y-152915249D01*
X165257868Y-153343055D01*
X165257041Y-153345679D01*
X165256446Y-153348363D01*
X165174180Y-153719441D01*
X165158761Y-153788989D01*
X165099492Y-154239178D01*
X165085172Y-154567171D01*
X165079686Y-154692820D01*
X150089594Y-154692820D01*
X150069788Y-154239178D01*
X150010519Y-153788989D01*
X149995101Y-153719441D01*
X149912834Y-153348363D01*
X149912239Y-153345679D01*
X149911412Y-153343055D01*
X149776526Y-152915249D01*
X149776523Y-152915241D01*
X149775697Y-152912621D01*
X149601930Y-152493111D01*
X149392262Y-152090343D01*
X149148289Y-151707381D01*
X149146625Y-151705213D01*
X149146617Y-151705201D01*
X148873548Y-151349332D01*
X148871866Y-151347140D01*
X148870008Y-151345112D01*
X148870001Y-151345104D01*
X148566949Y-151014382D01*
X148565098Y-151012362D01*
X148425806Y-150884724D01*
X148232356Y-150707459D01*
X148232348Y-150707452D01*
X148230320Y-150705594D01*
X148228128Y-150703912D01*
X147872259Y-150430843D01*
X147872247Y-150430835D01*
X147870079Y-150429171D01*
X147487117Y-150185198D01*
X147084349Y-149975530D01*
X146664839Y-149801763D01*
X146662219Y-149800937D01*
X146662211Y-149800934D01*
X146234405Y-149666048D01*
X146234398Y-149666046D01*
X146231781Y-149665221D01*
X146145977Y-149646199D01*
X145791169Y-149567539D01*
X145791166Y-149567538D01*
X145788471Y-149566941D01*
X145785741Y-149566582D01*
X145785732Y-149566580D01*
X145563377Y-149537307D01*
X145338282Y-149507672D01*
X144884640Y-149487866D01*
X144430998Y-149507672D01*
X144205903Y-149537307D01*
X143983548Y-149566580D01*
X143983539Y-149566582D01*
X143980809Y-149566941D01*
X143978114Y-149567538D01*
X143978111Y-149567539D01*
X143623303Y-149646199D01*
X143537499Y-149665221D01*
X143534882Y-149666046D01*
X143534875Y-149666048D01*
X143107069Y-149800934D01*
X143107061Y-149800937D01*
X143104441Y-149801763D01*
X142684931Y-149975530D01*
X142282163Y-150185198D01*
X141899201Y-150429171D01*
X141897033Y-150430835D01*
X141897021Y-150430843D01*
X141541152Y-150703912D01*
X141538960Y-150705594D01*
X141536932Y-150707452D01*
X141536924Y-150707459D01*
X141343474Y-150884724D01*
X141204182Y-151012362D01*
X141202331Y-151014382D01*
X140899279Y-151345104D01*
X140899272Y-151345112D01*
X140897414Y-151347140D01*
X140895732Y-151349332D01*
X140622663Y-151705201D01*
X140622655Y-151705213D01*
X140620991Y-151707381D01*
X140377018Y-152090343D01*
X140167350Y-152493111D01*
X139993583Y-152912621D01*
X139992757Y-152915241D01*
X139992754Y-152915249D01*
X139857868Y-153343055D01*
X139857041Y-153345679D01*
X139856446Y-153348363D01*
X139774180Y-153719441D01*
X139758761Y-153788989D01*
X139699492Y-154239178D01*
X139685172Y-154567171D01*
X139679686Y-154692820D01*
X124689594Y-154692820D01*
X124669788Y-154239178D01*
X124610519Y-153788989D01*
X124595101Y-153719441D01*
X124512834Y-153348363D01*
X124512239Y-153345679D01*
X124511412Y-153343055D01*
X124376526Y-152915249D01*
X124376523Y-152915241D01*
X124375697Y-152912621D01*
X124201930Y-152493111D01*
X123992262Y-152090343D01*
X123748289Y-151707381D01*
X123746625Y-151705213D01*
X123746617Y-151705201D01*
X123473548Y-151349332D01*
X123471866Y-151347140D01*
X123470008Y-151345112D01*
X123470001Y-151345104D01*
X123166949Y-151014382D01*
X123165098Y-151012362D01*
X123025806Y-150884724D01*
X122832356Y-150707459D01*
X122832348Y-150707452D01*
X122830320Y-150705594D01*
X122828128Y-150703912D01*
X122472259Y-150430843D01*
X122472247Y-150430835D01*
X122470079Y-150429171D01*
X122087117Y-150185198D01*
X121684349Y-149975530D01*
X121264839Y-149801763D01*
X121262219Y-149800937D01*
X121262211Y-149800934D01*
X120834405Y-149666048D01*
X120834398Y-149666046D01*
X120831781Y-149665221D01*
X120745977Y-149646199D01*
X120391169Y-149567539D01*
X120391166Y-149567538D01*
X120388471Y-149566941D01*
X120385741Y-149566582D01*
X120385732Y-149566580D01*
X120163377Y-149537307D01*
X119938282Y-149507672D01*
X119484640Y-149487866D01*
X119030998Y-149507672D01*
X118805903Y-149537307D01*
X118583548Y-149566580D01*
X118583539Y-149566582D01*
X118580809Y-149566941D01*
X118578114Y-149567538D01*
X118578111Y-149567539D01*
X118223303Y-149646199D01*
X118137499Y-149665221D01*
X118134882Y-149666046D01*
X118134875Y-149666048D01*
X117707069Y-149800934D01*
X117707061Y-149800937D01*
X117704441Y-149801763D01*
X117284931Y-149975530D01*
X116882163Y-150185198D01*
X116499201Y-150429171D01*
X116497033Y-150430835D01*
X116497021Y-150430843D01*
X116141152Y-150703912D01*
X116138960Y-150705594D01*
X116136932Y-150707452D01*
X116136924Y-150707459D01*
X115943474Y-150884724D01*
X115804182Y-151012362D01*
X115802331Y-151014382D01*
X115499279Y-151345104D01*
X115499272Y-151345112D01*
X115497414Y-151347140D01*
X115495732Y-151349332D01*
X115222663Y-151705201D01*
X115222655Y-151705213D01*
X115220991Y-151707381D01*
X114977018Y-152090343D01*
X114767350Y-152493111D01*
X114593583Y-152912621D01*
X114592757Y-152915241D01*
X114592754Y-152915249D01*
X114457868Y-153343055D01*
X114457041Y-153345679D01*
X114456446Y-153348363D01*
X114374180Y-153719441D01*
X114358761Y-153788989D01*
X114299492Y-154239178D01*
X114285172Y-154567171D01*
X114279686Y-154692820D01*
X106984640Y-154692820D01*
X106984640Y-129292820D01*
X114279686Y-129292820D01*
X114299492Y-129746462D01*
X114299853Y-129749201D01*
X114345146Y-130093233D01*
X114358761Y-130196651D01*
X114359358Y-130199346D01*
X114359359Y-130199349D01*
X114416791Y-130458406D01*
X114457041Y-130639961D01*
X114457866Y-130642578D01*
X114457868Y-130642585D01*
X114592405Y-131069282D01*
X114593583Y-131073019D01*
X114767350Y-131492529D01*
X114977018Y-131895297D01*
X114978497Y-131897619D01*
X114978499Y-131897622D01*
X115028712Y-131976441D01*
X115220991Y-132278259D01*
X115222655Y-132280427D01*
X115222663Y-132280439D01*
X115388959Y-132497159D01*
X115497414Y-132638500D01*
X115499272Y-132640528D01*
X115499279Y-132640536D01*
X115746129Y-132909924D01*
X115804182Y-132973278D01*
X115806202Y-132975129D01*
X116136924Y-133278181D01*
X116136932Y-133278188D01*
X116138960Y-133280046D01*
X116141152Y-133281728D01*
X116497021Y-133554797D01*
X116497033Y-133554805D01*
X116499201Y-133556469D01*
X116501515Y-133557943D01*
X116854708Y-133782951D01*
X116882163Y-133800442D01*
X117284931Y-134010110D01*
X117704441Y-134183877D01*
X117707061Y-134184703D01*
X117707069Y-134184706D01*
X118134875Y-134319592D01*
X118134882Y-134319594D01*
X118137499Y-134320419D01*
X118140184Y-134321014D01*
X118140183Y-134321014D01*
X118578111Y-134418101D01*
X118578114Y-134418102D01*
X118580809Y-134418699D01*
X118583539Y-134419058D01*
X118583548Y-134419060D01*
X118805903Y-134448333D01*
X119030998Y-134477968D01*
X119484640Y-134497774D01*
X119938282Y-134477968D01*
X120163377Y-134448333D01*
X120385732Y-134419060D01*
X120385741Y-134419058D01*
X120388471Y-134418699D01*
X120391166Y-134418102D01*
X120391169Y-134418101D01*
X120829097Y-134321014D01*
X120829096Y-134321014D01*
X120831781Y-134320419D01*
X120834398Y-134319594D01*
X120834405Y-134319592D01*
X121262211Y-134184706D01*
X121262219Y-134184703D01*
X121264839Y-134183877D01*
X121684349Y-134010110D01*
X122087117Y-133800442D01*
X122114573Y-133782951D01*
X122467765Y-133557943D01*
X122470079Y-133556469D01*
X122472247Y-133554805D01*
X122472259Y-133554797D01*
X122828128Y-133281728D01*
X122830320Y-133280046D01*
X122832348Y-133278188D01*
X122832356Y-133278181D01*
X123163078Y-132975129D01*
X123165098Y-132973278D01*
X123223151Y-132909924D01*
X123470001Y-132640536D01*
X123470008Y-132640528D01*
X123471866Y-132638500D01*
X123580321Y-132497159D01*
X123746617Y-132280439D01*
X123746625Y-132280427D01*
X123748289Y-132278259D01*
X123940568Y-131976441D01*
X123990781Y-131897622D01*
X123990783Y-131897619D01*
X123992262Y-131895297D01*
X124201930Y-131492529D01*
X124375697Y-131073019D01*
X124376876Y-131069282D01*
X124511412Y-130642585D01*
X124511414Y-130642578D01*
X124512239Y-130639961D01*
X124552489Y-130458406D01*
X124609921Y-130199349D01*
X124609922Y-130199346D01*
X124610519Y-130196651D01*
X124624135Y-130093233D01*
X124669427Y-129749201D01*
X124669788Y-129746462D01*
X124689594Y-129292820D01*
X139679686Y-129292820D01*
X139699492Y-129746462D01*
X139699853Y-129749201D01*
X139745146Y-130093233D01*
X139758761Y-130196651D01*
X139759358Y-130199346D01*
X139759359Y-130199349D01*
X139816791Y-130458406D01*
X139857041Y-130639961D01*
X139857866Y-130642578D01*
X139857868Y-130642585D01*
X139992405Y-131069282D01*
X139993583Y-131073019D01*
X140167350Y-131492529D01*
X140377018Y-131895297D01*
X140378497Y-131897619D01*
X140378499Y-131897622D01*
X140428712Y-131976441D01*
X140620991Y-132278259D01*
X140622655Y-132280427D01*
X140622663Y-132280439D01*
X140788959Y-132497159D01*
X140897414Y-132638500D01*
X140899272Y-132640528D01*
X140899279Y-132640536D01*
X141146129Y-132909924D01*
X141204182Y-132973278D01*
X141206202Y-132975129D01*
X141536924Y-133278181D01*
X141536932Y-133278188D01*
X141538960Y-133280046D01*
X141541152Y-133281728D01*
X141897021Y-133554797D01*
X141897033Y-133554805D01*
X141899201Y-133556469D01*
X141901515Y-133557943D01*
X142254708Y-133782951D01*
X142282163Y-133800442D01*
X142684931Y-134010110D01*
X143104441Y-134183877D01*
X143107061Y-134184703D01*
X143107069Y-134184706D01*
X143534875Y-134319592D01*
X143534882Y-134319594D01*
X143537499Y-134320419D01*
X143540184Y-134321014D01*
X143540183Y-134321014D01*
X143978111Y-134418101D01*
X143978114Y-134418102D01*
X143980809Y-134418699D01*
X143983539Y-134419058D01*
X143983548Y-134419060D01*
X144205903Y-134448333D01*
X144430998Y-134477968D01*
X144884640Y-134497774D01*
X145338282Y-134477968D01*
X145563377Y-134448333D01*
X145785732Y-134419060D01*
X145785741Y-134419058D01*
X145788471Y-134418699D01*
X145791166Y-134418102D01*
X145791169Y-134418101D01*
X146229097Y-134321014D01*
X146229096Y-134321014D01*
X146231781Y-134320419D01*
X146234398Y-134319594D01*
X146234405Y-134319592D01*
X146662211Y-134184706D01*
X146662219Y-134184703D01*
X146664839Y-134183877D01*
X147084349Y-134010110D01*
X147487117Y-133800442D01*
X147514573Y-133782951D01*
X147867765Y-133557943D01*
X147870079Y-133556469D01*
X147872247Y-133554805D01*
X147872259Y-133554797D01*
X148228128Y-133281728D01*
X148230320Y-133280046D01*
X148232348Y-133278188D01*
X148232356Y-133278181D01*
X148563078Y-132975129D01*
X148565098Y-132973278D01*
X148623151Y-132909924D01*
X148870001Y-132640536D01*
X148870008Y-132640528D01*
X148871866Y-132638500D01*
X148980321Y-132497159D01*
X149146617Y-132280439D01*
X149146625Y-132280427D01*
X149148289Y-132278259D01*
X149340568Y-131976441D01*
X149390781Y-131897622D01*
X149390783Y-131897619D01*
X149392262Y-131895297D01*
X149601930Y-131492529D01*
X149775697Y-131073019D01*
X149776876Y-131069282D01*
X149911412Y-130642585D01*
X149911414Y-130642578D01*
X149912239Y-130639961D01*
X149952489Y-130458406D01*
X150009921Y-130199349D01*
X150009922Y-130199346D01*
X150010519Y-130196651D01*
X150024135Y-130093233D01*
X150069427Y-129749201D01*
X150069788Y-129746462D01*
X150089594Y-129292820D01*
X165079686Y-129292820D01*
X165099492Y-129746462D01*
X165099853Y-129749201D01*
X165145146Y-130093233D01*
X165158761Y-130196651D01*
X165159358Y-130199346D01*
X165159359Y-130199349D01*
X165216791Y-130458406D01*
X165257041Y-130639961D01*
X165257866Y-130642578D01*
X165257868Y-130642585D01*
X165392405Y-131069282D01*
X165393583Y-131073019D01*
X165567350Y-131492529D01*
X165777018Y-131895297D01*
X165778497Y-131897619D01*
X165778499Y-131897622D01*
X165828712Y-131976441D01*
X166020991Y-132278259D01*
X166022655Y-132280427D01*
X166022663Y-132280439D01*
X166188959Y-132497159D01*
X166297414Y-132638500D01*
X166299272Y-132640528D01*
X166299279Y-132640536D01*
X166546129Y-132909924D01*
X166604182Y-132973278D01*
X166606202Y-132975129D01*
X166936924Y-133278181D01*
X166936932Y-133278188D01*
X166938960Y-133280046D01*
X166941152Y-133281728D01*
X167297021Y-133554797D01*
X167297033Y-133554805D01*
X167299201Y-133556469D01*
X167301515Y-133557943D01*
X167654708Y-133782951D01*
X167682163Y-133800442D01*
X168084931Y-134010110D01*
X168504441Y-134183877D01*
X168507061Y-134184703D01*
X168507069Y-134184706D01*
X168934875Y-134319592D01*
X168934882Y-134319594D01*
X168937499Y-134320419D01*
X168940184Y-134321014D01*
X168940183Y-134321014D01*
X169378111Y-134418101D01*
X169378114Y-134418102D01*
X169380809Y-134418699D01*
X169383539Y-134419058D01*
X169383548Y-134419060D01*
X169605903Y-134448333D01*
X169830998Y-134477968D01*
X170284640Y-134497774D01*
X170738282Y-134477968D01*
X170963377Y-134448333D01*
X171185732Y-134419060D01*
X171185741Y-134419058D01*
X171188471Y-134418699D01*
X171191166Y-134418102D01*
X171191169Y-134418101D01*
X171629097Y-134321014D01*
X171629096Y-134321014D01*
X171631781Y-134320419D01*
X171634398Y-134319594D01*
X171634405Y-134319592D01*
X172062211Y-134184706D01*
X172062219Y-134184703D01*
X172064839Y-134183877D01*
X172484349Y-134010110D01*
X172887117Y-133800442D01*
X172914573Y-133782951D01*
X173267765Y-133557943D01*
X173270079Y-133556469D01*
X173272247Y-133554805D01*
X173272259Y-133554797D01*
X173628128Y-133281728D01*
X173630320Y-133280046D01*
X173632348Y-133278188D01*
X173632356Y-133278181D01*
X173963078Y-132975129D01*
X173965098Y-132973278D01*
X174023151Y-132909924D01*
X174270001Y-132640536D01*
X174270008Y-132640528D01*
X174271866Y-132638500D01*
X174380321Y-132497159D01*
X174546617Y-132280439D01*
X174546625Y-132280427D01*
X174548289Y-132278259D01*
X174740568Y-131976441D01*
X174790781Y-131897622D01*
X174790783Y-131897619D01*
X174792262Y-131895297D01*
X175001930Y-131492529D01*
X175175697Y-131073019D01*
X175176876Y-131069282D01*
X175311412Y-130642585D01*
X175311414Y-130642578D01*
X175312239Y-130639961D01*
X175352489Y-130458406D01*
X175409921Y-130199349D01*
X175409922Y-130199346D01*
X175410519Y-130196651D01*
X175424135Y-130093233D01*
X175469427Y-129749201D01*
X175469788Y-129746462D01*
X175489594Y-129292820D01*
X175487640Y-129248071D01*
X192479910Y-129248071D01*
X192494894Y-129605577D01*
X192515530Y-129738876D01*
X192523237Y-129788657D01*
X192549636Y-129959186D01*
X192550558Y-129962578D01*
X192550558Y-129962580D01*
X192588468Y-130102109D01*
X192643453Y-130304488D01*
X192644746Y-130307753D01*
X192644747Y-130307757D01*
X192693524Y-130430953D01*
X192775175Y-130637182D01*
X192943162Y-130953118D01*
X192945147Y-130956017D01*
X193143327Y-131245454D01*
X193143332Y-131245460D01*
X193145318Y-131248361D01*
X193379126Y-131519229D01*
X193641669Y-131762347D01*
X193929677Y-131974685D01*
X193932714Y-131976439D01*
X193932718Y-131976441D01*
X194049478Y-132043852D01*
X194239559Y-132153595D01*
X194368592Y-132209968D01*
X194564231Y-132295441D01*
X194564234Y-132295442D01*
X194567452Y-132296848D01*
X194570809Y-132297887D01*
X194570814Y-132297889D01*
X194705974Y-132339728D01*
X194909270Y-132402659D01*
X194912726Y-132403318D01*
X194912725Y-132403318D01*
X195257302Y-132469049D01*
X195257307Y-132469050D01*
X195260753Y-132469707D01*
X195455225Y-132484671D01*
X195614022Y-132496890D01*
X195614023Y-132496890D01*
X195617519Y-132497159D01*
X195841565Y-132489335D01*
X195971606Y-132484794D01*
X195971610Y-132484794D01*
X195975121Y-132484671D01*
X195978602Y-132484157D01*
X196325611Y-132432916D01*
X196325617Y-132432915D01*
X196329103Y-132432400D01*
X196332507Y-132431501D01*
X196332510Y-132431500D01*
X196671661Y-132341892D01*
X196671662Y-132341892D01*
X196675052Y-132340996D01*
X197008657Y-132211599D01*
X197325759Y-132045823D01*
X197622406Y-131845732D01*
X197717936Y-131764430D01*
X197892227Y-131616096D01*
X197892228Y-131616095D01*
X197894900Y-131613821D01*
X198066159Y-131431449D01*
X198137434Y-131355549D01*
X198137438Y-131355544D01*
X198139845Y-131352981D01*
X198141950Y-131350167D01*
X198141956Y-131350160D01*
X198318743Y-131113843D01*
X198354188Y-131066463D01*
X198535257Y-130757838D01*
X198587592Y-130640292D01*
X198679364Y-130434170D01*
X198679366Y-130434165D01*
X198680796Y-130430953D01*
X198788990Y-130089882D01*
X198858491Y-129738876D01*
X198874852Y-129544033D01*
X198888249Y-129384494D01*
X198888250Y-129384483D01*
X198888432Y-129382310D01*
X198889682Y-129292820D01*
X198889529Y-129290072D01*
X198869904Y-128939065D01*
X198869708Y-128935557D01*
X198810035Y-128582748D01*
X198711406Y-128238789D01*
X198623795Y-128026229D01*
X198576389Y-127911212D01*
X198576385Y-127911204D01*
X198575051Y-127907967D01*
X198402670Y-127594407D01*
X198374003Y-127553768D01*
X198198441Y-127304894D01*
X198198440Y-127304893D01*
X198196410Y-127302015D01*
X198029186Y-127113666D01*
X197961177Y-127037065D01*
X197961171Y-127037059D01*
X197958844Y-127034438D01*
X197753363Y-126849421D01*
X197695552Y-126797368D01*
X197695551Y-126797367D01*
X197692932Y-126795009D01*
X197401987Y-126586714D01*
X197398924Y-126585002D01*
X197398919Y-126584999D01*
X197232199Y-126491822D01*
X197089638Y-126412147D01*
X197086393Y-126410783D01*
X197086389Y-126410781D01*
X196763018Y-126274849D01*
X196759776Y-126273486D01*
X196756413Y-126272496D01*
X196756404Y-126272493D01*
X196544786Y-126210211D01*
X196416514Y-126172459D01*
X196134539Y-126122739D01*
X196067590Y-126110934D01*
X196067588Y-126110934D01*
X196064130Y-126110324D01*
X196060621Y-126110103D01*
X196060619Y-126110103D01*
X195710533Y-126088077D01*
X195710527Y-126088077D01*
X195707015Y-126087856D01*
X195606972Y-126092749D01*
X195353129Y-126105164D01*
X195353121Y-126105165D01*
X195349622Y-126105336D01*
X195346154Y-126105898D01*
X195346151Y-126105898D01*
X194999879Y-126161981D01*
X194999876Y-126161982D01*
X194996404Y-126162544D01*
X194993017Y-126163490D01*
X194993011Y-126163491D01*
X194708274Y-126242991D01*
X194651765Y-126258769D01*
X194611966Y-126274849D01*
X194323263Y-126391492D01*
X194323259Y-126391494D01*
X194319999Y-126392811D01*
X194316912Y-126394480D01*
X194316908Y-126394482D01*
X194207453Y-126453665D01*
X194005243Y-126562999D01*
X193711419Y-126767212D01*
X193708777Y-126769525D01*
X193708773Y-126769528D01*
X193464309Y-126983541D01*
X193442190Y-127002905D01*
X193200910Y-127267140D01*
X192990589Y-127556622D01*
X192813846Y-127867746D01*
X192672886Y-128196631D01*
X192635807Y-128319441D01*
X192613983Y-128391728D01*
X192569464Y-128539180D01*
X192504871Y-128891122D01*
X192482931Y-129204870D01*
X192479910Y-129248071D01*
X175487640Y-129248071D01*
X175469788Y-128839178D01*
X175410519Y-128388989D01*
X175395101Y-128319441D01*
X175312834Y-127948363D01*
X175312239Y-127945679D01*
X175300349Y-127907967D01*
X175176526Y-127515249D01*
X175176523Y-127515241D01*
X175175697Y-127512621D01*
X175001930Y-127093111D01*
X174792262Y-126690343D01*
X174548289Y-126307381D01*
X174546625Y-126305213D01*
X174546617Y-126305201D01*
X174273548Y-125949332D01*
X174271866Y-125947140D01*
X174270008Y-125945112D01*
X174270001Y-125945104D01*
X173966949Y-125614382D01*
X173965098Y-125612362D01*
X173825806Y-125484724D01*
X173632356Y-125307459D01*
X173632348Y-125307452D01*
X173630320Y-125305594D01*
X173628128Y-125303912D01*
X173272259Y-125030843D01*
X173272247Y-125030835D01*
X173270079Y-125029171D01*
X172887117Y-124785198D01*
X172484349Y-124575530D01*
X172064839Y-124401763D01*
X172062219Y-124400937D01*
X172062211Y-124400934D01*
X171634405Y-124266048D01*
X171634398Y-124266046D01*
X171631781Y-124265221D01*
X171545977Y-124246199D01*
X171191169Y-124167539D01*
X171191166Y-124167538D01*
X171188471Y-124166941D01*
X171185741Y-124166582D01*
X171185732Y-124166580D01*
X170963377Y-124137307D01*
X170738282Y-124107672D01*
X170284640Y-124087866D01*
X169830998Y-124107672D01*
X169605903Y-124137307D01*
X169383548Y-124166580D01*
X169383539Y-124166582D01*
X169380809Y-124166941D01*
X169378114Y-124167538D01*
X169378111Y-124167539D01*
X169023303Y-124246199D01*
X168937499Y-124265221D01*
X168934882Y-124266046D01*
X168934875Y-124266048D01*
X168507069Y-124400934D01*
X168507061Y-124400937D01*
X168504441Y-124401763D01*
X168084931Y-124575530D01*
X167682163Y-124785198D01*
X167299201Y-125029171D01*
X167297033Y-125030835D01*
X167297021Y-125030843D01*
X166941152Y-125303912D01*
X166938960Y-125305594D01*
X166936932Y-125307452D01*
X166936924Y-125307459D01*
X166743474Y-125484724D01*
X166604182Y-125612362D01*
X166602331Y-125614382D01*
X166299279Y-125945104D01*
X166299272Y-125945112D01*
X166297414Y-125947140D01*
X166295732Y-125949332D01*
X166022663Y-126305201D01*
X166022655Y-126305213D01*
X166020991Y-126307381D01*
X165777018Y-126690343D01*
X165567350Y-127093111D01*
X165393583Y-127512621D01*
X165392757Y-127515241D01*
X165392754Y-127515249D01*
X165268931Y-127907967D01*
X165257041Y-127945679D01*
X165256446Y-127948363D01*
X165174180Y-128319441D01*
X165158761Y-128388989D01*
X165099492Y-128839178D01*
X165085172Y-129167171D01*
X165079686Y-129292820D01*
X150089594Y-129292820D01*
X150069788Y-128839178D01*
X150010519Y-128388989D01*
X149995101Y-128319441D01*
X149912834Y-127948363D01*
X149912239Y-127945679D01*
X149900349Y-127907967D01*
X149776526Y-127515249D01*
X149776523Y-127515241D01*
X149775697Y-127512621D01*
X149601930Y-127093111D01*
X149392262Y-126690343D01*
X149148289Y-126307381D01*
X149146625Y-126305213D01*
X149146617Y-126305201D01*
X148873548Y-125949332D01*
X148871866Y-125947140D01*
X148870008Y-125945112D01*
X148870001Y-125945104D01*
X148566949Y-125614382D01*
X148565098Y-125612362D01*
X148425806Y-125484724D01*
X148232356Y-125307459D01*
X148232348Y-125307452D01*
X148230320Y-125305594D01*
X148228128Y-125303912D01*
X147872259Y-125030843D01*
X147872247Y-125030835D01*
X147870079Y-125029171D01*
X147487117Y-124785198D01*
X147084349Y-124575530D01*
X146664839Y-124401763D01*
X146662219Y-124400937D01*
X146662211Y-124400934D01*
X146234405Y-124266048D01*
X146234398Y-124266046D01*
X146231781Y-124265221D01*
X146145977Y-124246199D01*
X145791169Y-124167539D01*
X145791166Y-124167538D01*
X145788471Y-124166941D01*
X145785741Y-124166582D01*
X145785732Y-124166580D01*
X145563377Y-124137307D01*
X145338282Y-124107672D01*
X144884640Y-124087866D01*
X144430998Y-124107672D01*
X144205903Y-124137307D01*
X143983548Y-124166580D01*
X143983539Y-124166582D01*
X143980809Y-124166941D01*
X143978114Y-124167538D01*
X143978111Y-124167539D01*
X143623303Y-124246199D01*
X143537499Y-124265221D01*
X143534882Y-124266046D01*
X143534875Y-124266048D01*
X143107069Y-124400934D01*
X143107061Y-124400937D01*
X143104441Y-124401763D01*
X142684931Y-124575530D01*
X142282163Y-124785198D01*
X141899201Y-125029171D01*
X141897033Y-125030835D01*
X141897021Y-125030843D01*
X141541152Y-125303912D01*
X141538960Y-125305594D01*
X141536932Y-125307452D01*
X141536924Y-125307459D01*
X141343474Y-125484724D01*
X141204182Y-125612362D01*
X141202331Y-125614382D01*
X140899279Y-125945104D01*
X140899272Y-125945112D01*
X140897414Y-125947140D01*
X140895732Y-125949332D01*
X140622663Y-126305201D01*
X140622655Y-126305213D01*
X140620991Y-126307381D01*
X140377018Y-126690343D01*
X140167350Y-127093111D01*
X139993583Y-127512621D01*
X139992757Y-127515241D01*
X139992754Y-127515249D01*
X139868931Y-127907967D01*
X139857041Y-127945679D01*
X139856446Y-127948363D01*
X139774180Y-128319441D01*
X139758761Y-128388989D01*
X139699492Y-128839178D01*
X139685172Y-129167171D01*
X139679686Y-129292820D01*
X124689594Y-129292820D01*
X124669788Y-128839178D01*
X124610519Y-128388989D01*
X124595101Y-128319441D01*
X124512834Y-127948363D01*
X124512239Y-127945679D01*
X124500349Y-127907967D01*
X124376526Y-127515249D01*
X124376523Y-127515241D01*
X124375697Y-127512621D01*
X124201930Y-127093111D01*
X123992262Y-126690343D01*
X123748289Y-126307381D01*
X123746625Y-126305213D01*
X123746617Y-126305201D01*
X123473548Y-125949332D01*
X123471866Y-125947140D01*
X123470008Y-125945112D01*
X123470001Y-125945104D01*
X123166949Y-125614382D01*
X123165098Y-125612362D01*
X123025806Y-125484724D01*
X122832356Y-125307459D01*
X122832348Y-125307452D01*
X122830320Y-125305594D01*
X122828128Y-125303912D01*
X122472259Y-125030843D01*
X122472247Y-125030835D01*
X122470079Y-125029171D01*
X122087117Y-124785198D01*
X121684349Y-124575530D01*
X121264839Y-124401763D01*
X121262219Y-124400937D01*
X121262211Y-124400934D01*
X120834405Y-124266048D01*
X120834398Y-124266046D01*
X120831781Y-124265221D01*
X120745977Y-124246199D01*
X120391169Y-124167539D01*
X120391166Y-124167538D01*
X120388471Y-124166941D01*
X120385741Y-124166582D01*
X120385732Y-124166580D01*
X120163377Y-124137307D01*
X119938282Y-124107672D01*
X119484640Y-124087866D01*
X119030998Y-124107672D01*
X118805903Y-124137307D01*
X118583548Y-124166580D01*
X118583539Y-124166582D01*
X118580809Y-124166941D01*
X118578114Y-124167538D01*
X118578111Y-124167539D01*
X118223303Y-124246199D01*
X118137499Y-124265221D01*
X118134882Y-124266046D01*
X118134875Y-124266048D01*
X117707069Y-124400934D01*
X117707061Y-124400937D01*
X117704441Y-124401763D01*
X117284931Y-124575530D01*
X116882163Y-124785198D01*
X116499201Y-125029171D01*
X116497033Y-125030835D01*
X116497021Y-125030843D01*
X116141152Y-125303912D01*
X116138960Y-125305594D01*
X116136932Y-125307452D01*
X116136924Y-125307459D01*
X115943474Y-125484724D01*
X115804182Y-125612362D01*
X115802331Y-125614382D01*
X115499279Y-125945104D01*
X115499272Y-125945112D01*
X115497414Y-125947140D01*
X115495732Y-125949332D01*
X115222663Y-126305201D01*
X115222655Y-126305213D01*
X115220991Y-126307381D01*
X114977018Y-126690343D01*
X114767350Y-127093111D01*
X114593583Y-127512621D01*
X114592757Y-127515241D01*
X114592754Y-127515249D01*
X114468931Y-127907967D01*
X114457041Y-127945679D01*
X114456446Y-127948363D01*
X114374180Y-128319441D01*
X114358761Y-128388989D01*
X114299492Y-128839178D01*
X114285172Y-129167171D01*
X114279686Y-129292820D01*
X106984640Y-129292820D01*
X106984640Y-82183194D01*
X113515457Y-82183194D01*
X113517601Y-82227820D01*
X113527580Y-82435579D01*
X113576875Y-82683399D01*
X113662258Y-82921211D01*
X113664475Y-82925337D01*
X113724476Y-83037004D01*
X113781854Y-83143791D01*
X113784649Y-83147534D01*
X113784651Y-83147537D01*
X113930244Y-83342510D01*
X113930249Y-83342516D01*
X113933036Y-83346248D01*
X113936345Y-83349528D01*
X113936350Y-83349534D01*
X114031388Y-83443746D01*
X114112482Y-83524135D01*
X114116244Y-83526893D01*
X114116247Y-83526896D01*
X114260808Y-83632892D01*
X114316251Y-83673544D01*
X114320386Y-83675720D01*
X114320390Y-83675722D01*
X114426853Y-83731735D01*
X114539866Y-83791194D01*
X114544285Y-83792737D01*
X114773997Y-83872956D01*
X114774003Y-83872958D01*
X114778414Y-83874498D01*
X114783007Y-83875370D01*
X115005229Y-83917561D01*
X115026655Y-83921629D01*
X115146715Y-83926346D01*
X115274468Y-83931366D01*
X115274473Y-83931366D01*
X115279136Y-83931549D01*
X115377668Y-83920758D01*
X115525656Y-83904551D01*
X115525661Y-83904550D01*
X115530309Y-83904041D01*
X115648378Y-83872956D01*
X115770135Y-83840900D01*
X115770137Y-83840899D01*
X115774658Y-83839709D01*
X115778955Y-83837863D01*
X116002520Y-83741812D01*
X116002522Y-83741811D01*
X116006814Y-83739967D01*
X116131746Y-83662657D01*
X116217694Y-83609470D01*
X116217696Y-83609468D01*
X116221677Y-83607005D01*
X116228124Y-83601547D01*
X116410954Y-83446771D01*
X116410956Y-83446769D01*
X116414527Y-83443746D01*
X116581127Y-83253774D01*
X116600486Y-83223678D01*
X116715290Y-83045195D01*
X116717818Y-83041265D01*
X116821597Y-82810885D01*
X116890183Y-82567696D01*
X116922071Y-82317041D01*
X116924407Y-82227820D01*
X120014562Y-82227820D01*
X120034859Y-82615106D01*
X120035372Y-82618346D01*
X120035373Y-82618354D01*
X120063287Y-82794593D01*
X120095527Y-82998149D01*
X120195901Y-83372752D01*
X120334883Y-83734811D01*
X120336375Y-83737739D01*
X120336378Y-83737746D01*
X120387390Y-83837863D01*
X120510948Y-84080359D01*
X120722169Y-84405610D01*
X120724244Y-84408173D01*
X120724251Y-84408182D01*
X120787935Y-84486825D01*
X120966230Y-84707001D01*
X121240459Y-84981230D01*
X121243034Y-84983315D01*
X121539278Y-85223209D01*
X121539287Y-85223216D01*
X121541850Y-85225291D01*
X121867101Y-85436512D01*
X122034903Y-85522011D01*
X122209714Y-85611082D01*
X122209721Y-85611085D01*
X122212649Y-85612577D01*
X122215721Y-85613756D01*
X122215725Y-85613758D01*
X122347372Y-85664293D01*
X122574708Y-85751559D01*
X122949311Y-85851933D01*
X123152867Y-85884173D01*
X123329106Y-85912087D01*
X123329114Y-85912088D01*
X123332354Y-85912601D01*
X123719640Y-85932898D01*
X124106926Y-85912601D01*
X124110166Y-85912088D01*
X124110174Y-85912087D01*
X124286413Y-85884173D01*
X124489969Y-85851933D01*
X124864572Y-85751559D01*
X125091908Y-85664293D01*
X125223555Y-85613758D01*
X125223559Y-85613756D01*
X125226631Y-85612577D01*
X125229559Y-85611085D01*
X125229566Y-85611082D01*
X125404377Y-85522011D01*
X125572179Y-85436512D01*
X125897430Y-85225291D01*
X125899993Y-85223216D01*
X125900002Y-85223209D01*
X126196246Y-84983315D01*
X126198821Y-84981230D01*
X126473050Y-84707001D01*
X126651345Y-84486825D01*
X126715029Y-84408182D01*
X126715036Y-84408173D01*
X126717111Y-84405610D01*
X126928332Y-84080359D01*
X127051890Y-83837863D01*
X127102902Y-83737746D01*
X127102905Y-83737739D01*
X127104397Y-83734811D01*
X127243379Y-83372752D01*
X127343753Y-82998149D01*
X127375993Y-82794593D01*
X127403907Y-82618354D01*
X127403908Y-82618346D01*
X127404421Y-82615106D01*
X127424718Y-82227820D01*
X153879562Y-82227820D01*
X153899859Y-82615106D01*
X153900372Y-82618346D01*
X153900373Y-82618354D01*
X153928287Y-82794593D01*
X153960527Y-82998149D01*
X154060901Y-83372752D01*
X154199883Y-83734811D01*
X154201375Y-83737739D01*
X154201378Y-83737746D01*
X154252390Y-83837863D01*
X154375948Y-84080359D01*
X154587169Y-84405610D01*
X154589244Y-84408173D01*
X154589251Y-84408182D01*
X154652935Y-84486825D01*
X154831230Y-84707001D01*
X155105459Y-84981230D01*
X155108034Y-84983315D01*
X155404278Y-85223209D01*
X155404287Y-85223216D01*
X155406850Y-85225291D01*
X155732101Y-85436512D01*
X155899903Y-85522011D01*
X156074714Y-85611082D01*
X156074721Y-85611085D01*
X156077649Y-85612577D01*
X156080721Y-85613756D01*
X156080725Y-85613758D01*
X156212372Y-85664293D01*
X156439708Y-85751559D01*
X156814311Y-85851933D01*
X157017867Y-85884173D01*
X157194106Y-85912087D01*
X157194114Y-85912088D01*
X157197354Y-85912601D01*
X157584640Y-85932898D01*
X157971926Y-85912601D01*
X157975166Y-85912088D01*
X157975174Y-85912087D01*
X158151413Y-85884173D01*
X158354969Y-85851933D01*
X158729572Y-85751559D01*
X158956908Y-85664293D01*
X159088555Y-85613758D01*
X159088559Y-85613756D01*
X159091631Y-85612577D01*
X159094559Y-85611085D01*
X159094566Y-85611082D01*
X159269377Y-85522011D01*
X159437179Y-85436512D01*
X159762430Y-85225291D01*
X159764993Y-85223216D01*
X159765002Y-85223209D01*
X160061246Y-84983315D01*
X160063821Y-84981230D01*
X160338050Y-84707001D01*
X160516345Y-84486825D01*
X160580029Y-84408182D01*
X160580036Y-84408173D01*
X160582111Y-84405610D01*
X160793332Y-84080359D01*
X160916890Y-83837863D01*
X160967902Y-83737746D01*
X160967905Y-83737739D01*
X160969397Y-83734811D01*
X161108379Y-83372752D01*
X161208753Y-82998149D01*
X161240993Y-82794593D01*
X161268907Y-82618354D01*
X161268908Y-82618346D01*
X161269421Y-82615106D01*
X161289718Y-82227820D01*
X187744562Y-82227820D01*
X187764859Y-82615106D01*
X187765372Y-82618346D01*
X187765373Y-82618354D01*
X187793287Y-82794593D01*
X187825527Y-82998149D01*
X187925901Y-83372752D01*
X188064883Y-83734811D01*
X188066375Y-83737739D01*
X188066378Y-83737746D01*
X188117390Y-83837863D01*
X188240948Y-84080359D01*
X188452169Y-84405610D01*
X188454244Y-84408173D01*
X188454251Y-84408182D01*
X188517935Y-84486825D01*
X188696230Y-84707001D01*
X188970459Y-84981230D01*
X188973034Y-84983315D01*
X189269278Y-85223209D01*
X189269287Y-85223216D01*
X189271850Y-85225291D01*
X189597101Y-85436512D01*
X189764903Y-85522011D01*
X189939714Y-85611082D01*
X189939721Y-85611085D01*
X189942649Y-85612577D01*
X189945721Y-85613756D01*
X189945725Y-85613758D01*
X190077372Y-85664293D01*
X190304708Y-85751559D01*
X190679311Y-85851933D01*
X190882867Y-85884173D01*
X191059106Y-85912087D01*
X191059114Y-85912088D01*
X191062354Y-85912601D01*
X191449640Y-85932898D01*
X191836926Y-85912601D01*
X191840166Y-85912088D01*
X191840174Y-85912087D01*
X192016413Y-85884173D01*
X192219969Y-85851933D01*
X192594572Y-85751559D01*
X192821908Y-85664293D01*
X192953555Y-85613758D01*
X192953559Y-85613756D01*
X192956631Y-85612577D01*
X192959559Y-85611085D01*
X192959566Y-85611082D01*
X193134377Y-85522011D01*
X193302179Y-85436512D01*
X193627430Y-85225291D01*
X193629993Y-85223216D01*
X193630002Y-85223209D01*
X193926246Y-84983315D01*
X193928821Y-84981230D01*
X194203050Y-84707001D01*
X194381345Y-84486825D01*
X194445029Y-84408182D01*
X194445036Y-84408173D01*
X194447111Y-84405610D01*
X194658332Y-84080359D01*
X194781890Y-83837863D01*
X194832902Y-83737746D01*
X194832905Y-83737739D01*
X194834397Y-83734811D01*
X194973379Y-83372752D01*
X195073753Y-82998149D01*
X195105993Y-82794593D01*
X195133907Y-82618354D01*
X195133908Y-82618346D01*
X195134421Y-82615106D01*
X195154718Y-82227820D01*
X195134421Y-81840534D01*
X195125340Y-81783194D01*
X195092811Y-81577820D01*
X195073753Y-81457491D01*
X194973379Y-81082888D01*
X194848234Y-80756876D01*
X194835578Y-80723905D01*
X194835576Y-80723901D01*
X194834397Y-80720829D01*
X194797928Y-80649253D01*
X194659829Y-80378220D01*
X194658332Y-80375281D01*
X194447111Y-80050030D01*
X194445036Y-80047467D01*
X194445029Y-80047458D01*
X194205135Y-79751214D01*
X194203050Y-79748639D01*
X193928821Y-79474410D01*
X193867302Y-79424593D01*
X193630002Y-79232431D01*
X193629993Y-79232424D01*
X193627430Y-79230349D01*
X193302179Y-79019128D01*
X193122549Y-78927602D01*
X192959566Y-78844558D01*
X192959559Y-78844555D01*
X192956631Y-78843063D01*
X192953559Y-78841884D01*
X192953555Y-78841882D01*
X192821908Y-78791347D01*
X192594572Y-78704081D01*
X192219969Y-78603707D01*
X192016413Y-78571467D01*
X191840174Y-78543553D01*
X191840166Y-78543552D01*
X191836926Y-78543039D01*
X191449640Y-78522742D01*
X191062354Y-78543039D01*
X191059114Y-78543552D01*
X191059106Y-78543553D01*
X190882867Y-78571467D01*
X190679311Y-78603707D01*
X190304708Y-78704081D01*
X190077373Y-78791347D01*
X189945725Y-78841882D01*
X189945721Y-78841884D01*
X189942649Y-78843063D01*
X189939721Y-78844555D01*
X189939714Y-78844558D01*
X189776731Y-78927602D01*
X189597101Y-79019128D01*
X189271850Y-79230349D01*
X189269287Y-79232424D01*
X189269278Y-79232431D01*
X189031978Y-79424593D01*
X188970459Y-79474410D01*
X188696230Y-79748639D01*
X188694145Y-79751214D01*
X188454251Y-80047458D01*
X188454244Y-80047467D01*
X188452169Y-80050030D01*
X188240948Y-80375281D01*
X188239451Y-80378220D01*
X188101353Y-80649253D01*
X188064883Y-80720829D01*
X188063704Y-80723901D01*
X188063702Y-80723905D01*
X188051046Y-80756876D01*
X187925901Y-81082888D01*
X187825527Y-81457491D01*
X187806469Y-81577820D01*
X187773941Y-81783194D01*
X187764859Y-81840534D01*
X187745166Y-82216301D01*
X187744562Y-82227820D01*
X161289718Y-82227820D01*
X161269421Y-81840534D01*
X161260340Y-81783194D01*
X161227811Y-81577820D01*
X161208753Y-81457491D01*
X161108379Y-81082888D01*
X160983234Y-80756876D01*
X160970578Y-80723905D01*
X160970576Y-80723901D01*
X160969397Y-80720829D01*
X160932928Y-80649253D01*
X160794829Y-80378220D01*
X160793332Y-80375281D01*
X160582111Y-80050030D01*
X160580036Y-80047467D01*
X160580029Y-80047458D01*
X160340135Y-79751214D01*
X160338050Y-79748639D01*
X160063821Y-79474410D01*
X160002302Y-79424593D01*
X159765002Y-79232431D01*
X159764993Y-79232424D01*
X159762430Y-79230349D01*
X159437179Y-79019128D01*
X159257549Y-78927602D01*
X159094566Y-78844558D01*
X159094559Y-78844555D01*
X159091631Y-78843063D01*
X159088559Y-78841884D01*
X159088555Y-78841882D01*
X158956908Y-78791347D01*
X158729572Y-78704081D01*
X158354969Y-78603707D01*
X158151413Y-78571467D01*
X157975174Y-78543553D01*
X157975166Y-78543552D01*
X157971926Y-78543039D01*
X157584640Y-78522742D01*
X157197354Y-78543039D01*
X157194114Y-78543552D01*
X157194106Y-78543553D01*
X157017867Y-78571467D01*
X156814311Y-78603707D01*
X156439708Y-78704081D01*
X156212373Y-78791347D01*
X156080725Y-78841882D01*
X156080721Y-78841884D01*
X156077649Y-78843063D01*
X156074721Y-78844555D01*
X156074714Y-78844558D01*
X155911731Y-78927602D01*
X155732101Y-79019128D01*
X155406850Y-79230349D01*
X155404287Y-79232424D01*
X155404278Y-79232431D01*
X155166978Y-79424593D01*
X155105459Y-79474410D01*
X154831230Y-79748639D01*
X154829145Y-79751214D01*
X154589251Y-80047458D01*
X154589244Y-80047467D01*
X154587169Y-80050030D01*
X154375948Y-80375281D01*
X154374451Y-80378220D01*
X154236353Y-80649253D01*
X154199883Y-80720829D01*
X154198704Y-80723901D01*
X154198702Y-80723905D01*
X154186046Y-80756876D01*
X154060901Y-81082888D01*
X153960527Y-81457491D01*
X153941469Y-81577820D01*
X153908941Y-81783194D01*
X153899859Y-81840534D01*
X153880166Y-82216301D01*
X153879562Y-82227820D01*
X127424718Y-82227820D01*
X127404421Y-81840534D01*
X127395340Y-81783194D01*
X127362811Y-81577820D01*
X127343753Y-81457491D01*
X127243379Y-81082888D01*
X127118234Y-80756876D01*
X127105578Y-80723905D01*
X127105576Y-80723901D01*
X127104397Y-80720829D01*
X127067928Y-80649253D01*
X126929829Y-80378220D01*
X126928332Y-80375281D01*
X126717111Y-80050030D01*
X126715036Y-80047467D01*
X126715029Y-80047458D01*
X126475135Y-79751214D01*
X126473050Y-79748639D01*
X126198821Y-79474410D01*
X126137302Y-79424593D01*
X125900002Y-79232431D01*
X125899993Y-79232424D01*
X125897430Y-79230349D01*
X125572179Y-79019128D01*
X125392549Y-78927602D01*
X125229566Y-78844558D01*
X125229559Y-78844555D01*
X125226631Y-78843063D01*
X125223559Y-78841884D01*
X125223555Y-78841882D01*
X125091908Y-78791347D01*
X124864572Y-78704081D01*
X124489969Y-78603707D01*
X124286413Y-78571467D01*
X124110174Y-78543553D01*
X124110166Y-78543552D01*
X124106926Y-78543039D01*
X123719640Y-78522742D01*
X123332354Y-78543039D01*
X123329114Y-78543552D01*
X123329106Y-78543553D01*
X123152867Y-78571467D01*
X122949311Y-78603707D01*
X122574708Y-78704081D01*
X122347373Y-78791347D01*
X122215725Y-78841882D01*
X122215721Y-78841884D01*
X122212649Y-78843063D01*
X122209721Y-78844555D01*
X122209714Y-78844558D01*
X122046731Y-78927602D01*
X121867101Y-79019128D01*
X121541850Y-79230349D01*
X121539287Y-79232424D01*
X121539278Y-79232431D01*
X121301978Y-79424593D01*
X121240459Y-79474410D01*
X120966230Y-79748639D01*
X120964145Y-79751214D01*
X120724251Y-80047458D01*
X120724244Y-80047467D01*
X120722169Y-80050030D01*
X120510948Y-80375281D01*
X120509451Y-80378220D01*
X120371353Y-80649253D01*
X120334883Y-80720829D01*
X120333704Y-80723901D01*
X120333702Y-80723905D01*
X120321046Y-80756876D01*
X120195901Y-81082888D01*
X120095527Y-81457491D01*
X120076469Y-81577820D01*
X120043941Y-81783194D01*
X120034859Y-81840534D01*
X120015166Y-82216301D01*
X120014562Y-82227820D01*
X116924407Y-82227820D01*
X116905682Y-81975839D01*
X116849917Y-81729394D01*
X116790973Y-81577820D01*
X116760031Y-81498252D01*
X116760030Y-81498250D01*
X116758338Y-81493899D01*
X116737924Y-81458181D01*
X116635275Y-81278584D01*
X116632956Y-81274526D01*
X116476526Y-81076096D01*
X116292485Y-80902967D01*
X116084875Y-80758943D01*
X116080684Y-80756876D01*
X115862445Y-80649253D01*
X115862442Y-80649252D01*
X115858257Y-80647188D01*
X115617610Y-80570156D01*
X115613003Y-80569406D01*
X115613000Y-80569405D01*
X115372831Y-80530291D01*
X115372832Y-80530291D01*
X115368220Y-80529540D01*
X115245668Y-80527936D01*
X115120243Y-80526294D01*
X115120240Y-80526294D01*
X115115566Y-80526233D01*
X114865199Y-80560306D01*
X114622618Y-80631012D01*
X114393153Y-80736797D01*
X114389244Y-80739360D01*
X114185757Y-80872771D01*
X114185752Y-80872775D01*
X114181844Y-80875337D01*
X114150887Y-80902967D01*
X114035202Y-81006220D01*
X113993333Y-81043589D01*
X113831763Y-81237857D01*
X113700681Y-81453872D01*
X113698875Y-81458180D01*
X113698874Y-81458181D01*
X113673290Y-81519193D01*
X113602969Y-81686889D01*
X113540772Y-81931790D01*
X113515457Y-82183194D01*
X106984640Y-82183194D01*
X106984640Y-40498194D01*
X121980457Y-40498194D01*
X121982601Y-40542820D01*
X121992580Y-40750579D01*
X122041875Y-40998399D01*
X122127258Y-41236211D01*
X122129475Y-41240337D01*
X122189476Y-41352004D01*
X122246854Y-41458791D01*
X122249649Y-41462534D01*
X122249651Y-41462537D01*
X122395244Y-41657510D01*
X122395249Y-41657516D01*
X122398036Y-41661248D01*
X122401345Y-41664528D01*
X122401350Y-41664534D01*
X122496388Y-41758746D01*
X122577482Y-41839135D01*
X122581244Y-41841893D01*
X122581247Y-41841896D01*
X122725808Y-41947892D01*
X122781251Y-41988544D01*
X122785386Y-41990720D01*
X122785390Y-41990722D01*
X122891853Y-42046735D01*
X123004866Y-42106194D01*
X123009285Y-42107737D01*
X123238997Y-42187956D01*
X123239003Y-42187958D01*
X123243414Y-42189498D01*
X123248007Y-42190370D01*
X123470229Y-42232561D01*
X123491655Y-42236629D01*
X123611715Y-42241346D01*
X123739468Y-42246366D01*
X123739473Y-42246366D01*
X123744136Y-42246549D01*
X123842668Y-42235758D01*
X123990656Y-42219551D01*
X123990661Y-42219550D01*
X123995309Y-42219041D01*
X124113378Y-42187956D01*
X124235135Y-42155900D01*
X124235137Y-42155899D01*
X124239658Y-42154709D01*
X124243955Y-42152863D01*
X124467520Y-42056812D01*
X124467522Y-42056811D01*
X124471814Y-42054967D01*
X124596746Y-41977657D01*
X124682694Y-41924470D01*
X124682696Y-41924468D01*
X124686677Y-41922005D01*
X124693124Y-41916547D01*
X124875954Y-41761771D01*
X124875956Y-41761769D01*
X124879527Y-41758746D01*
X125046127Y-41568774D01*
X125065486Y-41538678D01*
X125180290Y-41360195D01*
X125182818Y-41356265D01*
X125286597Y-41125885D01*
X125355183Y-40882696D01*
X125387071Y-40632041D01*
X125389407Y-40542820D01*
X128479562Y-40542820D01*
X128499859Y-40930106D01*
X128500372Y-40933346D01*
X128500373Y-40933354D01*
X128528287Y-41109593D01*
X128560527Y-41313149D01*
X128660901Y-41687752D01*
X128799883Y-42049811D01*
X128801375Y-42052739D01*
X128801378Y-42052746D01*
X128852390Y-42152863D01*
X128975948Y-42395359D01*
X129187169Y-42720610D01*
X129189244Y-42723173D01*
X129189251Y-42723182D01*
X129252935Y-42801825D01*
X129431230Y-43022001D01*
X129705459Y-43296230D01*
X129708034Y-43298315D01*
X130004278Y-43538209D01*
X130004287Y-43538216D01*
X130006850Y-43540291D01*
X130332101Y-43751512D01*
X130499903Y-43837011D01*
X130674714Y-43926082D01*
X130674721Y-43926085D01*
X130677649Y-43927577D01*
X130680721Y-43928756D01*
X130680725Y-43928758D01*
X130812372Y-43979293D01*
X131039708Y-44066559D01*
X131414311Y-44166933D01*
X131617867Y-44199173D01*
X131794106Y-44227087D01*
X131794114Y-44227088D01*
X131797354Y-44227601D01*
X132184640Y-44247898D01*
X132571926Y-44227601D01*
X132575166Y-44227088D01*
X132575174Y-44227087D01*
X132751413Y-44199173D01*
X132954969Y-44166933D01*
X133329572Y-44066559D01*
X133556908Y-43979293D01*
X133688555Y-43928758D01*
X133688559Y-43928756D01*
X133691631Y-43927577D01*
X133694559Y-43926085D01*
X133694566Y-43926082D01*
X133869377Y-43837011D01*
X134037179Y-43751512D01*
X134362430Y-43540291D01*
X134364993Y-43538216D01*
X134365002Y-43538209D01*
X134661246Y-43298315D01*
X134663821Y-43296230D01*
X134938050Y-43022001D01*
X135116345Y-42801825D01*
X135180029Y-42723182D01*
X135180036Y-42723173D01*
X135182111Y-42720610D01*
X135393332Y-42395359D01*
X135516890Y-42152863D01*
X135567902Y-42052746D01*
X135567905Y-42052739D01*
X135569397Y-42049811D01*
X135708379Y-41687752D01*
X135808753Y-41313149D01*
X135840993Y-41109593D01*
X135868907Y-40933354D01*
X135868908Y-40933346D01*
X135869421Y-40930106D01*
X135889718Y-40542820D01*
X135887379Y-40498194D01*
X172780457Y-40498194D01*
X172782601Y-40542820D01*
X172792580Y-40750579D01*
X172841875Y-40998399D01*
X172927258Y-41236211D01*
X172929475Y-41240337D01*
X172989476Y-41352004D01*
X173046854Y-41458791D01*
X173049649Y-41462534D01*
X173049651Y-41462537D01*
X173195244Y-41657510D01*
X173195249Y-41657516D01*
X173198036Y-41661248D01*
X173201345Y-41664528D01*
X173201350Y-41664534D01*
X173296388Y-41758746D01*
X173377482Y-41839135D01*
X173381244Y-41841893D01*
X173381247Y-41841896D01*
X173525808Y-41947892D01*
X173581251Y-41988544D01*
X173585386Y-41990720D01*
X173585390Y-41990722D01*
X173691853Y-42046735D01*
X173804866Y-42106194D01*
X173809285Y-42107737D01*
X174038997Y-42187956D01*
X174039003Y-42187958D01*
X174043414Y-42189498D01*
X174048007Y-42190370D01*
X174270229Y-42232561D01*
X174291655Y-42236629D01*
X174411715Y-42241346D01*
X174539468Y-42246366D01*
X174539473Y-42246366D01*
X174544136Y-42246549D01*
X174642668Y-42235758D01*
X174790656Y-42219551D01*
X174790661Y-42219550D01*
X174795309Y-42219041D01*
X174913378Y-42187956D01*
X175035135Y-42155900D01*
X175035137Y-42155899D01*
X175039658Y-42154709D01*
X175043955Y-42152863D01*
X175267520Y-42056812D01*
X175267522Y-42056811D01*
X175271814Y-42054967D01*
X175396746Y-41977657D01*
X175482694Y-41924470D01*
X175482696Y-41924468D01*
X175486677Y-41922005D01*
X175493124Y-41916547D01*
X175675954Y-41761771D01*
X175675956Y-41761769D01*
X175679527Y-41758746D01*
X175846127Y-41568774D01*
X175865486Y-41538678D01*
X175980290Y-41360195D01*
X175982818Y-41356265D01*
X176086597Y-41125885D01*
X176155183Y-40882696D01*
X176187071Y-40632041D01*
X176189407Y-40542820D01*
X179279562Y-40542820D01*
X179299859Y-40930106D01*
X179300372Y-40933346D01*
X179300373Y-40933354D01*
X179328287Y-41109593D01*
X179360527Y-41313149D01*
X179460901Y-41687752D01*
X179599883Y-42049811D01*
X179601375Y-42052739D01*
X179601378Y-42052746D01*
X179652390Y-42152863D01*
X179775948Y-42395359D01*
X179987169Y-42720610D01*
X179989244Y-42723173D01*
X179989251Y-42723182D01*
X180052935Y-42801825D01*
X180231230Y-43022001D01*
X180505459Y-43296230D01*
X180508034Y-43298315D01*
X180804278Y-43538209D01*
X180804287Y-43538216D01*
X180806850Y-43540291D01*
X181132101Y-43751512D01*
X181299903Y-43837011D01*
X181474714Y-43926082D01*
X181474721Y-43926085D01*
X181477649Y-43927577D01*
X181480721Y-43928756D01*
X181480725Y-43928758D01*
X181612372Y-43979293D01*
X181839708Y-44066559D01*
X182214311Y-44166933D01*
X182417867Y-44199173D01*
X182594106Y-44227087D01*
X182594114Y-44227088D01*
X182597354Y-44227601D01*
X182984640Y-44247898D01*
X183371926Y-44227601D01*
X183375166Y-44227088D01*
X183375174Y-44227087D01*
X183551413Y-44199173D01*
X183754969Y-44166933D01*
X184129572Y-44066559D01*
X184356908Y-43979293D01*
X184488555Y-43928758D01*
X184488559Y-43928756D01*
X184491631Y-43927577D01*
X184494559Y-43926085D01*
X184494566Y-43926082D01*
X184669377Y-43837011D01*
X184837179Y-43751512D01*
X185162430Y-43540291D01*
X185164993Y-43538216D01*
X185165002Y-43538209D01*
X185461246Y-43298315D01*
X185463821Y-43296230D01*
X185738050Y-43022001D01*
X185916345Y-42801825D01*
X185980029Y-42723182D01*
X185980036Y-42723173D01*
X185982111Y-42720610D01*
X186193332Y-42395359D01*
X186316890Y-42152863D01*
X186367902Y-42052746D01*
X186367905Y-42052739D01*
X186369397Y-42049811D01*
X186508379Y-41687752D01*
X186608753Y-41313149D01*
X186640993Y-41109593D01*
X186668907Y-40933354D01*
X186668908Y-40933346D01*
X186669421Y-40930106D01*
X186689718Y-40542820D01*
X186669421Y-40155534D01*
X186660340Y-40098194D01*
X186627811Y-39892820D01*
X186608753Y-39772491D01*
X186508379Y-39397888D01*
X186383234Y-39071876D01*
X186370578Y-39038905D01*
X186370576Y-39038901D01*
X186369397Y-39035829D01*
X186332928Y-38964253D01*
X186194829Y-38693220D01*
X186193332Y-38690281D01*
X185982111Y-38365030D01*
X185980036Y-38362467D01*
X185980029Y-38362458D01*
X185740135Y-38066214D01*
X185738050Y-38063639D01*
X185463821Y-37789410D01*
X185402302Y-37739593D01*
X185165002Y-37547431D01*
X185164993Y-37547424D01*
X185162430Y-37545349D01*
X184837179Y-37334128D01*
X184657549Y-37242602D01*
X184494566Y-37159558D01*
X184494559Y-37159555D01*
X184491631Y-37158063D01*
X184488559Y-37156884D01*
X184488555Y-37156882D01*
X184356908Y-37106347D01*
X184129572Y-37019081D01*
X183754969Y-36918707D01*
X183551413Y-36886467D01*
X183375174Y-36858553D01*
X183375166Y-36858552D01*
X183371926Y-36858039D01*
X182984640Y-36837742D01*
X182597354Y-36858039D01*
X182594114Y-36858552D01*
X182594106Y-36858553D01*
X182417867Y-36886467D01*
X182214311Y-36918707D01*
X181839708Y-37019081D01*
X181612373Y-37106347D01*
X181480725Y-37156882D01*
X181480721Y-37156884D01*
X181477649Y-37158063D01*
X181474721Y-37159555D01*
X181474714Y-37159558D01*
X181311731Y-37242602D01*
X181132101Y-37334128D01*
X180806850Y-37545349D01*
X180804287Y-37547424D01*
X180804278Y-37547431D01*
X180566978Y-37739593D01*
X180505459Y-37789410D01*
X180231230Y-38063639D01*
X180229145Y-38066214D01*
X179989251Y-38362458D01*
X179989244Y-38362467D01*
X179987169Y-38365030D01*
X179775948Y-38690281D01*
X179774451Y-38693220D01*
X179636353Y-38964253D01*
X179599883Y-39035829D01*
X179598704Y-39038901D01*
X179598702Y-39038905D01*
X179586046Y-39071876D01*
X179460901Y-39397888D01*
X179360527Y-39772491D01*
X179341469Y-39892820D01*
X179308941Y-40098194D01*
X179299859Y-40155534D01*
X179280166Y-40531301D01*
X179279562Y-40542820D01*
X176189407Y-40542820D01*
X176170682Y-40290839D01*
X176114917Y-40044394D01*
X176055973Y-39892820D01*
X176025031Y-39813252D01*
X176025030Y-39813250D01*
X176023338Y-39808899D01*
X176002924Y-39773181D01*
X175900275Y-39593584D01*
X175897956Y-39589526D01*
X175741526Y-39391096D01*
X175557485Y-39217967D01*
X175349875Y-39073943D01*
X175345684Y-39071876D01*
X175127445Y-38964253D01*
X175127442Y-38964252D01*
X175123257Y-38962188D01*
X174882610Y-38885156D01*
X174878003Y-38884406D01*
X174878000Y-38884405D01*
X174637831Y-38845291D01*
X174637832Y-38845291D01*
X174633220Y-38844540D01*
X174510668Y-38842936D01*
X174385243Y-38841294D01*
X174385240Y-38841294D01*
X174380566Y-38841233D01*
X174130199Y-38875306D01*
X173887618Y-38946012D01*
X173658153Y-39051797D01*
X173654244Y-39054360D01*
X173450757Y-39187771D01*
X173450752Y-39187775D01*
X173446844Y-39190337D01*
X173415887Y-39217967D01*
X173300202Y-39321220D01*
X173258333Y-39358589D01*
X173096763Y-39552857D01*
X172965681Y-39768872D01*
X172963875Y-39773180D01*
X172963874Y-39773181D01*
X172938290Y-39834193D01*
X172867969Y-40001889D01*
X172805772Y-40246790D01*
X172780457Y-40498194D01*
X135887379Y-40498194D01*
X135869421Y-40155534D01*
X135860340Y-40098194D01*
X135827811Y-39892820D01*
X135808753Y-39772491D01*
X135708379Y-39397888D01*
X135583234Y-39071876D01*
X135570578Y-39038905D01*
X135570576Y-39038901D01*
X135569397Y-39035829D01*
X135532928Y-38964253D01*
X135394829Y-38693220D01*
X135393332Y-38690281D01*
X135182111Y-38365030D01*
X135180036Y-38362467D01*
X135180029Y-38362458D01*
X134940135Y-38066214D01*
X134938050Y-38063639D01*
X134663821Y-37789410D01*
X134602302Y-37739593D01*
X134365002Y-37547431D01*
X134364993Y-37547424D01*
X134362430Y-37545349D01*
X134037179Y-37334128D01*
X133857549Y-37242602D01*
X133694566Y-37159558D01*
X133694559Y-37159555D01*
X133691631Y-37158063D01*
X133688559Y-37156884D01*
X133688555Y-37156882D01*
X133556908Y-37106347D01*
X133329572Y-37019081D01*
X132954969Y-36918707D01*
X132751413Y-36886467D01*
X132575174Y-36858553D01*
X132575166Y-36858552D01*
X132571926Y-36858039D01*
X132184640Y-36837742D01*
X131797354Y-36858039D01*
X131794114Y-36858552D01*
X131794106Y-36858553D01*
X131617867Y-36886467D01*
X131414311Y-36918707D01*
X131039708Y-37019081D01*
X130812372Y-37106347D01*
X130680725Y-37156882D01*
X130680721Y-37156884D01*
X130677649Y-37158063D01*
X130674721Y-37159555D01*
X130674714Y-37159558D01*
X130511731Y-37242602D01*
X130332101Y-37334128D01*
X130006850Y-37545349D01*
X130004287Y-37547424D01*
X130004278Y-37547431D01*
X129766978Y-37739593D01*
X129705459Y-37789410D01*
X129431230Y-38063639D01*
X129429145Y-38066214D01*
X129189251Y-38362458D01*
X129189244Y-38362467D01*
X129187169Y-38365030D01*
X128975948Y-38690281D01*
X128974451Y-38693220D01*
X128836353Y-38964253D01*
X128799883Y-39035829D01*
X128798704Y-39038901D01*
X128798702Y-39038905D01*
X128786046Y-39071876D01*
X128660901Y-39397888D01*
X128560527Y-39772491D01*
X128541469Y-39892820D01*
X128508941Y-40098194D01*
X128499859Y-40155534D01*
X128480166Y-40531301D01*
X128479562Y-40542820D01*
X125389407Y-40542820D01*
X125370682Y-40290839D01*
X125314917Y-40044394D01*
X125255973Y-39892820D01*
X125225031Y-39813252D01*
X125225030Y-39813250D01*
X125223338Y-39808899D01*
X125202924Y-39773181D01*
X125100275Y-39593584D01*
X125097956Y-39589526D01*
X124941526Y-39391096D01*
X124757485Y-39217967D01*
X124549875Y-39073943D01*
X124545684Y-39071876D01*
X124327445Y-38964253D01*
X124327442Y-38964252D01*
X124323257Y-38962188D01*
X124082610Y-38885156D01*
X124078003Y-38884406D01*
X124078000Y-38884405D01*
X123837831Y-38845291D01*
X123837832Y-38845291D01*
X123833220Y-38844540D01*
X123710668Y-38842936D01*
X123585243Y-38841294D01*
X123585240Y-38841294D01*
X123580566Y-38841233D01*
X123330199Y-38875306D01*
X123087618Y-38946012D01*
X122858153Y-39051797D01*
X122854244Y-39054360D01*
X122650757Y-39187771D01*
X122650752Y-39187775D01*
X122646844Y-39190337D01*
X122615887Y-39217967D01*
X122500202Y-39321220D01*
X122458333Y-39358589D01*
X122296763Y-39552857D01*
X122165681Y-39768872D01*
X122163875Y-39773180D01*
X122163874Y-39773181D01*
X122138290Y-39834193D01*
X122067969Y-40001889D01*
X122005772Y-40246790D01*
X121980457Y-40498194D01*
X106984640Y-40498194D01*
X106984640Y-9092820D01*
X110579497Y-9092820D01*
X110581080Y-9099763D01*
X110581128Y-9100189D01*
X110581638Y-9105946D01*
X110596210Y-9328271D01*
X110642243Y-9559694D01*
X110643569Y-9563600D01*
X110643570Y-9563604D01*
X110716765Y-9779228D01*
X110718089Y-9783128D01*
X110822449Y-9994751D01*
X110824743Y-9998184D01*
X110881262Y-10082770D01*
X110953540Y-10190942D01*
X110956254Y-10194036D01*
X110956258Y-10194042D01*
X111084462Y-10340229D01*
X111109117Y-10368343D01*
X111112206Y-10371052D01*
X111283418Y-10521202D01*
X111283424Y-10521206D01*
X111286518Y-10523920D01*
X111289944Y-10526209D01*
X111289949Y-10526213D01*
X111436891Y-10624396D01*
X111482709Y-10655011D01*
X111694332Y-10759371D01*
X111698230Y-10760694D01*
X111698232Y-10760695D01*
X111913856Y-10833890D01*
X111913860Y-10833891D01*
X111917766Y-10835217D01*
X111921810Y-10836021D01*
X111921816Y-10836023D01*
X112145146Y-10880446D01*
X112145149Y-10880446D01*
X112149189Y-10881250D01*
X112153300Y-10881519D01*
X112153304Y-10881520D01*
X112370430Y-10895751D01*
X112376594Y-10896307D01*
X112376970Y-10896350D01*
X112383924Y-10897962D01*
X112384640Y-10897963D01*
X112393358Y-10895974D01*
X112421373Y-10892820D01*
X116147328Y-10892820D01*
X116175777Y-10896074D01*
X116183924Y-10897962D01*
X116184640Y-10897963D01*
X116191583Y-10896380D01*
X116192009Y-10896332D01*
X116197766Y-10895822D01*
X116310080Y-10888461D01*
X116415976Y-10881520D01*
X116415980Y-10881519D01*
X116420091Y-10881250D01*
X116424131Y-10880446D01*
X116424134Y-10880446D01*
X116647464Y-10836023D01*
X116647470Y-10836021D01*
X116651514Y-10835217D01*
X116655420Y-10833891D01*
X116655424Y-10833890D01*
X116871048Y-10760695D01*
X116871050Y-10760694D01*
X116874948Y-10759371D01*
X117086571Y-10655011D01*
X117132389Y-10624396D01*
X117279331Y-10526213D01*
X117279336Y-10526209D01*
X117282762Y-10523920D01*
X117285856Y-10521206D01*
X117285862Y-10521202D01*
X117457074Y-10371052D01*
X117460163Y-10368343D01*
X117484818Y-10340229D01*
X117613022Y-10194042D01*
X117613026Y-10194036D01*
X117615740Y-10190942D01*
X117688019Y-10082770D01*
X117744537Y-9998184D01*
X117746831Y-9994751D01*
X117851191Y-9783128D01*
X117852515Y-9779228D01*
X117925710Y-9563604D01*
X117925711Y-9563600D01*
X117927037Y-9559694D01*
X117973070Y-9328271D01*
X117987571Y-9107030D01*
X117988127Y-9100866D01*
X117988170Y-9100490D01*
X117989782Y-9093536D01*
X117989783Y-9092820D01*
X196959497Y-9092820D01*
X196961080Y-9099763D01*
X196961128Y-9100189D01*
X196961638Y-9105946D01*
X196976210Y-9328271D01*
X197022243Y-9559694D01*
X197023569Y-9563600D01*
X197023570Y-9563604D01*
X197096765Y-9779228D01*
X197098089Y-9783128D01*
X197202449Y-9994751D01*
X197204743Y-9998184D01*
X197261262Y-10082770D01*
X197333540Y-10190942D01*
X197336254Y-10194036D01*
X197336258Y-10194042D01*
X197464462Y-10340229D01*
X197489117Y-10368343D01*
X197492206Y-10371052D01*
X197663418Y-10521202D01*
X197663424Y-10521206D01*
X197666518Y-10523920D01*
X197669944Y-10526209D01*
X197669949Y-10526213D01*
X197816891Y-10624396D01*
X197862709Y-10655011D01*
X198074332Y-10759371D01*
X198078230Y-10760694D01*
X198078232Y-10760695D01*
X198293856Y-10833890D01*
X198293860Y-10833891D01*
X198297766Y-10835217D01*
X198301810Y-10836021D01*
X198301816Y-10836023D01*
X198525146Y-10880446D01*
X198525149Y-10880446D01*
X198529189Y-10881250D01*
X198533300Y-10881519D01*
X198533304Y-10881520D01*
X198750430Y-10895751D01*
X198756594Y-10896307D01*
X198756970Y-10896350D01*
X198763924Y-10897962D01*
X198764640Y-10897963D01*
X198773358Y-10895974D01*
X198801373Y-10892820D01*
X202527328Y-10892820D01*
X202555777Y-10896074D01*
X202563924Y-10897962D01*
X202564640Y-10897963D01*
X202571583Y-10896380D01*
X202572009Y-10896332D01*
X202577766Y-10895822D01*
X202690080Y-10888461D01*
X202795976Y-10881520D01*
X202795980Y-10881519D01*
X202800091Y-10881250D01*
X202804131Y-10880446D01*
X202804134Y-10880446D01*
X203027464Y-10836023D01*
X203027470Y-10836021D01*
X203031514Y-10835217D01*
X203035420Y-10833891D01*
X203035424Y-10833890D01*
X203251048Y-10760695D01*
X203251050Y-10760694D01*
X203254948Y-10759371D01*
X203466571Y-10655011D01*
X203512389Y-10624396D01*
X203659331Y-10526213D01*
X203659336Y-10526209D01*
X203662762Y-10523920D01*
X203665856Y-10521206D01*
X203665862Y-10521202D01*
X203837074Y-10371052D01*
X203840163Y-10368343D01*
X203864818Y-10340229D01*
X203993022Y-10194042D01*
X203993026Y-10194036D01*
X203995740Y-10190942D01*
X204068019Y-10082770D01*
X204124537Y-9998184D01*
X204126831Y-9994751D01*
X204231191Y-9783128D01*
X204232515Y-9779228D01*
X204305710Y-9563604D01*
X204305711Y-9563600D01*
X204307037Y-9559694D01*
X204353070Y-9328271D01*
X204367571Y-9107030D01*
X204368127Y-9100866D01*
X204368170Y-9100490D01*
X204369782Y-9093536D01*
X204369783Y-9092820D01*
X204367794Y-9084102D01*
X204364640Y-9056087D01*
X204364640Y-9030132D01*
X204367894Y-9001680D01*
X204369782Y-8993536D01*
X204369783Y-8992820D01*
X204368200Y-8985877D01*
X204368152Y-8985451D01*
X204367641Y-8979681D01*
X204367415Y-8976222D01*
X204353070Y-8757369D01*
X204307037Y-8525946D01*
X204249767Y-8357233D01*
X204232515Y-8306412D01*
X204232514Y-8306410D01*
X204231191Y-8302512D01*
X204126831Y-8090889D01*
X204096216Y-8045071D01*
X203998033Y-7898129D01*
X203998029Y-7898124D01*
X203995740Y-7894698D01*
X203993026Y-7891604D01*
X203993022Y-7891598D01*
X203842872Y-7720386D01*
X203840163Y-7717297D01*
X203776358Y-7661341D01*
X203665862Y-7564438D01*
X203665856Y-7564434D01*
X203662762Y-7561720D01*
X203659336Y-7559431D01*
X203659331Y-7559427D01*
X203470004Y-7432923D01*
X203466571Y-7430629D01*
X203254948Y-7326269D01*
X203251048Y-7324945D01*
X203035424Y-7251750D01*
X203035420Y-7251749D01*
X203031514Y-7250423D01*
X203027470Y-7249619D01*
X203027464Y-7249617D01*
X202804134Y-7205194D01*
X202804131Y-7205194D01*
X202800091Y-7204390D01*
X202795980Y-7204121D01*
X202795976Y-7204120D01*
X202578850Y-7189889D01*
X202572686Y-7189333D01*
X202572310Y-7189290D01*
X202565356Y-7187678D01*
X202564640Y-7187677D01*
X202555922Y-7189666D01*
X202527907Y-7192820D01*
X198801952Y-7192820D01*
X198773503Y-7189566D01*
X198765356Y-7187678D01*
X198764640Y-7187677D01*
X198757697Y-7189260D01*
X198757271Y-7189308D01*
X198751514Y-7189818D01*
X198639200Y-7197179D01*
X198533304Y-7204120D01*
X198533300Y-7204121D01*
X198529189Y-7204390D01*
X198525149Y-7205194D01*
X198525146Y-7205194D01*
X198301816Y-7249617D01*
X198301810Y-7249619D01*
X198297766Y-7250423D01*
X198293860Y-7251749D01*
X198293856Y-7251750D01*
X198078232Y-7324945D01*
X198074332Y-7326269D01*
X197862709Y-7430629D01*
X197859276Y-7432923D01*
X197669949Y-7559427D01*
X197669944Y-7559431D01*
X197666518Y-7561720D01*
X197663424Y-7564434D01*
X197663418Y-7564438D01*
X197552922Y-7661341D01*
X197489117Y-7717297D01*
X197486408Y-7720386D01*
X197336258Y-7891598D01*
X197336254Y-7891604D01*
X197333540Y-7894698D01*
X197331251Y-7898124D01*
X197331247Y-7898129D01*
X197233064Y-8045071D01*
X197202449Y-8090889D01*
X197098089Y-8302512D01*
X197096766Y-8306410D01*
X197096765Y-8306412D01*
X197079514Y-8357233D01*
X197022243Y-8525946D01*
X196976210Y-8757369D01*
X196975941Y-8761480D01*
X196975940Y-8761484D01*
X196961709Y-8978610D01*
X196961153Y-8984774D01*
X196961110Y-8985150D01*
X196959498Y-8992104D01*
X196959497Y-8992820D01*
X196961486Y-9001538D01*
X196964640Y-9029553D01*
X196964640Y-9055508D01*
X196961386Y-9083957D01*
X196959498Y-9092104D01*
X196959497Y-9092820D01*
X117989783Y-9092820D01*
X117987794Y-9084102D01*
X117984640Y-9056087D01*
X117984640Y-9030132D01*
X117987894Y-9001680D01*
X117989782Y-8993536D01*
X117989783Y-8992820D01*
X117988200Y-8985877D01*
X117988152Y-8985451D01*
X117987641Y-8979681D01*
X117987415Y-8976222D01*
X117973070Y-8757369D01*
X117927037Y-8525946D01*
X117869767Y-8357233D01*
X117852515Y-8306412D01*
X117852514Y-8306410D01*
X117851191Y-8302512D01*
X117746831Y-8090889D01*
X117716216Y-8045071D01*
X117618033Y-7898129D01*
X117618029Y-7898124D01*
X117615740Y-7894698D01*
X117613026Y-7891604D01*
X117613022Y-7891598D01*
X117462872Y-7720386D01*
X117460163Y-7717297D01*
X117396358Y-7661341D01*
X117285862Y-7564438D01*
X117285856Y-7564434D01*
X117282762Y-7561720D01*
X117279336Y-7559431D01*
X117279331Y-7559427D01*
X117090004Y-7432923D01*
X117086571Y-7430629D01*
X116874948Y-7326269D01*
X116871048Y-7324945D01*
X116655424Y-7251750D01*
X116655420Y-7251749D01*
X116651514Y-7250423D01*
X116647470Y-7249619D01*
X116647464Y-7249617D01*
X116424134Y-7205194D01*
X116424131Y-7205194D01*
X116420091Y-7204390D01*
X116415980Y-7204121D01*
X116415976Y-7204120D01*
X116198850Y-7189889D01*
X116192686Y-7189333D01*
X116192310Y-7189290D01*
X116185356Y-7187678D01*
X116184640Y-7187677D01*
X116175922Y-7189666D01*
X116147907Y-7192820D01*
X112421952Y-7192820D01*
X112393503Y-7189566D01*
X112385356Y-7187678D01*
X112384640Y-7187677D01*
X112377697Y-7189260D01*
X112377271Y-7189308D01*
X112371514Y-7189818D01*
X112259200Y-7197179D01*
X112153304Y-7204120D01*
X112153300Y-7204121D01*
X112149189Y-7204390D01*
X112145149Y-7205194D01*
X112145146Y-7205194D01*
X111921816Y-7249617D01*
X111921810Y-7249619D01*
X111917766Y-7250423D01*
X111913860Y-7251749D01*
X111913856Y-7251750D01*
X111698232Y-7324945D01*
X111694332Y-7326269D01*
X111482709Y-7430629D01*
X111479276Y-7432923D01*
X111289949Y-7559427D01*
X111289944Y-7559431D01*
X111286518Y-7561720D01*
X111283424Y-7564434D01*
X111283418Y-7564438D01*
X111172922Y-7661341D01*
X111109117Y-7717297D01*
X111106408Y-7720386D01*
X110956258Y-7891598D01*
X110956254Y-7891604D01*
X110953540Y-7894698D01*
X110951251Y-7898124D01*
X110951247Y-7898129D01*
X110853064Y-8045071D01*
X110822449Y-8090889D01*
X110718089Y-8302512D01*
X110716766Y-8306410D01*
X110716765Y-8306412D01*
X110699514Y-8357233D01*
X110642243Y-8525946D01*
X110596210Y-8757369D01*
X110595941Y-8761480D01*
X110595940Y-8761484D01*
X110581709Y-8978610D01*
X110581153Y-8984774D01*
X110581110Y-8985150D01*
X110579498Y-8992104D01*
X110579497Y-8992820D01*
X110581486Y-9001538D01*
X110584640Y-9029553D01*
X110584640Y-9055508D01*
X110581386Y-9083957D01*
X110579498Y-9092104D01*
X110579497Y-9092820D01*
X106984640Y-9092820D01*
X106984640Y-4368820D01*
X107004642Y-4300699D01*
X107058298Y-4254206D01*
X107110640Y-4242820D01*
X208058640Y-4242820D01*
X208126761Y-4262822D01*
G37*
G04 #@! TD.AperFunction*
M02*
