G04 #@! TF.GenerationSoftware,KiCad,Pcbnew,(6.0.2)*
G04 #@! TF.CreationDate,2022-04-18T11:06:33+01:00*
G04 #@! TF.ProjectId,VCO_KiCad_Project-20220418,56434f5f-4b69-4436-9164-5f50726f6a65,rev?*
G04 #@! TF.SameCoordinates,Original*
G04 #@! TF.FileFunction,Profile,NP*
%FSLAX46Y46*%
G04 Gerber Fmt 4.6, Leading zero omitted, Abs format (unit mm)*
G04 Created by KiCad (PCBNEW (6.0.2)) date 2022-04-18 11:06:33*
%MOMM*%
%LPD*%
G01*
G04 APERTURE LIST*
G04 #@! TA.AperFunction,Profile*
%ADD10C,0.200000*%
G04 #@! TD*
G04 APERTURE END LIST*
D10*
X112384640Y-7392820D02*
X116184640Y-7392820D01*
X135684640Y-40542820D02*
G75*
G03*
X135684640Y-40542820I-3500000J0D01*
G01*
X125184640Y-40542820D02*
G75*
G03*
X125184640Y-40542820I-1500000J0D01*
G01*
X202564640Y-200692820D02*
X198764640Y-200692820D01*
X161084640Y-82227820D02*
G75*
G03*
X161084640Y-82227820I-3500000J0D01*
G01*
X197164640Y-8992820D02*
X197164640Y-9092820D01*
X110784640Y-9092820D02*
X110784640Y-8992820D01*
X198764640Y-197392820D02*
X202564640Y-197392820D01*
X175284640Y-154692820D02*
G75*
G03*
X175284640Y-154692820I-5000000J0D01*
G01*
X202564640Y-200692820D02*
G75*
G03*
X204164640Y-199092820I1J1599999D01*
G01*
X204164640Y-198992820D02*
G75*
G03*
X202564640Y-197392820I-1599999J1D01*
G01*
X117784640Y-198992820D02*
X117784640Y-199092820D01*
X106784640Y-4042820D02*
X208384640Y-4042820D01*
X112384640Y-197392820D02*
X116184640Y-197392820D01*
X116184640Y-10692820D02*
G75*
G03*
X117784640Y-9092820I1J1599999D01*
G01*
X127219640Y-82227820D02*
G75*
G03*
X127219640Y-82227820I-3500000J0D01*
G01*
X197164640Y-199092820D02*
G75*
G03*
X198764640Y-200692820I1599999J-1D01*
G01*
X204164640Y-198992820D02*
X204164640Y-199092820D01*
X112384640Y-7392820D02*
G75*
G03*
X110784640Y-8992820I-1J-1599999D01*
G01*
X198764640Y-7392820D02*
G75*
G03*
X197164640Y-8992820I-1J-1599999D01*
G01*
X149884640Y-129292820D02*
G75*
G03*
X149884640Y-129292820I-5000000J0D01*
G01*
X200684640Y-180092820D02*
G75*
G03*
X200684640Y-180092820I-5000000J0D01*
G01*
X204164640Y-9092820D02*
X204164640Y-8992820D01*
X208384640Y-204042820D02*
X106784640Y-204042820D01*
X124484640Y-154692820D02*
G75*
G03*
X124484640Y-154692820I-5000000J0D01*
G01*
X116184640Y-10692820D02*
X112384640Y-10692820D01*
X194949640Y-82227820D02*
G75*
G03*
X194949640Y-82227820I-3500000J0D01*
G01*
X110784640Y-9092820D02*
G75*
G03*
X112384640Y-10692820I1599999J-1D01*
G01*
X110784640Y-199092820D02*
X110784640Y-198992820D01*
X200684640Y-154692820D02*
G75*
G03*
X200684640Y-154692820I-5000000J0D01*
G01*
X175284640Y-129292820D02*
G75*
G03*
X175284640Y-129292820I-5000000J0D01*
G01*
X149884640Y-180092820D02*
G75*
G03*
X149884640Y-180092820I-5000000J0D01*
G01*
X117784640Y-198992820D02*
G75*
G03*
X116184640Y-197392820I-1599999J1D01*
G01*
X198684640Y-129292820D02*
G75*
G03*
X198684640Y-129292820I-3000000J0D01*
G01*
X110784640Y-199092820D02*
G75*
G03*
X112384640Y-200692820I1599999J-1D01*
G01*
X117784640Y-8992820D02*
G75*
G03*
X116184640Y-7392820I-1599999J1D01*
G01*
X202564640Y-10692820D02*
G75*
G03*
X204164640Y-9092820I1J1599999D01*
G01*
X186484640Y-40542820D02*
G75*
G03*
X186484640Y-40542820I-3500000J0D01*
G01*
X208384640Y-4042820D02*
X208384640Y-204042820D01*
X202564640Y-7392820D02*
X198764640Y-7392820D01*
X124484640Y-180092820D02*
G75*
G03*
X124484640Y-180092820I-5000000J0D01*
G01*
X124484640Y-129292820D02*
G75*
G03*
X124484640Y-129292820I-5000000J0D01*
G01*
X116184640Y-200692820D02*
X112384640Y-200692820D01*
X117784640Y-8992820D02*
X117784640Y-9092820D01*
X198764640Y-197392820D02*
G75*
G03*
X197164640Y-198992820I-1J-1599999D01*
G01*
X149884640Y-154692820D02*
G75*
G03*
X149884640Y-154692820I-5000000J0D01*
G01*
X197164640Y-199092820D02*
X197164640Y-198992820D01*
X175984640Y-40542820D02*
G75*
G03*
X175984640Y-40542820I-1500000J0D01*
G01*
X197164640Y-9092820D02*
G75*
G03*
X198764640Y-10692820I1599999J-1D01*
G01*
X116184640Y-200692820D02*
G75*
G03*
X117784640Y-199092820I1J1599999D01*
G01*
X116719640Y-82227820D02*
G75*
G03*
X116719640Y-82227820I-1500000J0D01*
G01*
X204164640Y-8992820D02*
G75*
G03*
X202564640Y-7392820I-1599999J1D01*
G01*
X112384640Y-197392820D02*
G75*
G03*
X110784640Y-198992820I-1J-1599999D01*
G01*
X175284640Y-180092820D02*
G75*
G03*
X175284640Y-180092820I-5000000J0D01*
G01*
X106784640Y-204042820D02*
X106784640Y-4042820D01*
X198764640Y-10692820D02*
X202564640Y-10692820D01*
M02*
