G04*
G04 #@! TF.GenerationSoftware,Altium Limited,Altium Designer,20.0.2 (26)*
G04*
G04 Layer_Color=16711935*
%FSLAX43Y43*%
%MOMM*%
G71*
G01*
G75*
%ADD11C,0.254*%
%ADD15C,3.429*%
%ADD16C,2.489*%
%ADD17C,3.378*%
%ADD18C,6.553*%
%ADD19C,2.203*%
%ADD20R,3.203X1.803*%
%ADD21O,3.203X1.803*%
%ADD22O,1.503X3.203*%
%ADD23O,1.200X2.286*%
%ADD24R,1.473X2.235*%
%ADD25O,1.473X2.235*%
%ADD26R,1.981X1.981*%
%ADD27C,1.981*%
D11*
X157480Y-77471D02*
Y-80010D01*
X158750D01*
X159173Y-79587D01*
Y-79164D01*
X158750Y-78740D01*
X157480D01*
X158750D01*
X159173Y-78317D01*
Y-77894D01*
X158750Y-77471D01*
X157480D01*
X161289D02*
X160442D01*
X160019Y-77894D01*
Y-79587D01*
X160442Y-80010D01*
X161289D01*
X161712Y-79587D01*
Y-77894D01*
X161289Y-77471D01*
X162558D02*
X164251D01*
X163405D01*
Y-80010D01*
X165098Y-77471D02*
X166790D01*
X165944D01*
Y-80010D01*
X168906Y-77471D02*
X168060D01*
X167637Y-77894D01*
Y-79587D01*
X168060Y-80010D01*
X168906D01*
X169329Y-79587D01*
Y-77894D01*
X168906Y-77471D01*
X170176Y-80010D02*
Y-77471D01*
X171022Y-78317D01*
X171869Y-77471D01*
Y-80010D01*
X176947Y-77894D02*
X176524Y-77471D01*
X175677D01*
X175254Y-77894D01*
Y-78317D01*
X175677Y-78740D01*
X176524D01*
X176947Y-79164D01*
Y-79587D01*
X176524Y-80010D01*
X175677D01*
X175254Y-79587D01*
X179063Y-77471D02*
X178217D01*
X177793Y-77894D01*
Y-79587D01*
X178217Y-80010D01*
X179063D01*
X179486Y-79587D01*
Y-77894D01*
X179063Y-77471D01*
X180333D02*
Y-80010D01*
X182025D01*
X182872Y-77471D02*
Y-80010D01*
X184141D01*
X184565Y-79587D01*
Y-77894D01*
X184141Y-77471D01*
X182872D01*
X187104D02*
X185411D01*
Y-80010D01*
X187104D01*
X185411Y-78740D02*
X186257D01*
X187950Y-80010D02*
Y-77471D01*
X189220D01*
X189643Y-77894D01*
Y-78740D01*
X189220Y-79164D01*
X187950D01*
X188797D02*
X189643Y-80010D01*
D15*
X121988Y35185D02*
G03*
X121988Y35185I-1714J0D01*
G01*
Y60585D02*
G03*
X121988Y60585I-1714J0D01*
G01*
Y9785D02*
G03*
X121988Y9785I-1714J0D01*
G01*
D16*
X51614Y3378D02*
D03*
X56694D02*
D03*
X61859D02*
D03*
X66939D02*
D03*
X72019D02*
D03*
X77734D02*
D03*
X82814D02*
D03*
X87894D02*
D03*
X93406D02*
D03*
X98486D02*
D03*
X103566D02*
D03*
D17*
X113924Y37624D02*
D03*
X115605Y30517D02*
D03*
X122712Y28835D02*
D03*
X126624Y34627D02*
D03*
X119715Y41535D02*
D03*
X113924Y63024D02*
D03*
X115605Y55917D02*
D03*
X122712Y54235D02*
D03*
X126624Y60027D02*
D03*
X119715Y66935D02*
D03*
X122712Y16135D02*
D03*
X115605Y14454D02*
D03*
X113924Y7347D02*
D03*
X119715Y3435D02*
D03*
X126624Y10344D02*
D03*
D18*
X120274Y35185D02*
D03*
Y60585D02*
D03*
X120274Y9785D02*
D03*
D19*
X81280Y28575D02*
D03*
X88900D02*
D03*
X77470Y62865D02*
D03*
X80010Y60325D02*
D03*
X82550Y62865D02*
D03*
X40640D02*
D03*
X43180Y60325D02*
D03*
X45720Y62865D02*
D03*
X64770Y37465D02*
D03*
X54610D02*
D03*
X73660Y42545D02*
D03*
Y32385D02*
D03*
X55245Y24130D02*
D03*
X65405D02*
D03*
X64770Y40640D02*
D03*
X54610D02*
D03*
X45085Y20320D02*
D03*
Y30480D02*
D03*
X48895Y20320D02*
D03*
Y30480D02*
D03*
X64770Y27940D02*
D03*
X54610D02*
D03*
X64770Y31115D02*
D03*
X54610D02*
D03*
X64770Y34290D02*
D03*
X54610D02*
D03*
Y43815D02*
D03*
X64770D02*
D03*
X93345D02*
D03*
X103505D02*
D03*
X93345Y40640D02*
D03*
X103505D02*
D03*
Y37465D02*
D03*
X93345D02*
D03*
X88900Y33655D02*
D03*
X81280D02*
D03*
X93345Y34290D02*
D03*
X103505D02*
D03*
X76835Y32385D02*
D03*
Y42545D02*
D03*
X93980Y31115D02*
D03*
X101600D02*
D03*
X38100Y41275D02*
D03*
X27940D02*
D03*
Y38100D02*
D03*
X38100D02*
D03*
X41275Y20320D02*
D03*
Y30480D02*
D03*
X24765Y12700D02*
D03*
Y22860D02*
D03*
X20320Y21590D02*
D03*
Y13970D02*
D03*
X37465Y30480D02*
D03*
Y20320D02*
D03*
X15875Y21590D02*
D03*
Y13970D02*
D03*
X82550Y51435D02*
D03*
X92710D02*
D03*
Y48260D02*
D03*
X82550D02*
D03*
X20320Y33020D02*
D03*
Y43180D02*
D03*
X17145Y33020D02*
D03*
Y43180D02*
D03*
X59055Y62230D02*
D03*
X61595D02*
D03*
X64135D02*
D03*
D20*
X41910Y43180D02*
D03*
X81280Y44450D02*
D03*
D21*
X41910Y40640D02*
D03*
Y38100D02*
D03*
Y35560D02*
D03*
X49530D02*
D03*
Y38100D02*
D03*
Y40640D02*
D03*
Y43180D02*
D03*
X81280Y41910D02*
D03*
Y39370D02*
D03*
Y36830D02*
D03*
X88900D02*
D03*
Y39370D02*
D03*
Y41910D02*
D03*
Y44450D02*
D03*
D22*
X64135Y18415D02*
D03*
X62135D02*
D03*
D23*
X30099Y23495D02*
D03*
X31750D02*
D03*
X33401D02*
D03*
X75946Y22225D02*
D03*
X74295D02*
D03*
X72644D02*
D03*
X55603Y19690D02*
D03*
X53952D02*
D03*
X52301D02*
D03*
X100076Y48260D02*
D03*
X98425D02*
D03*
X96774D02*
D03*
D24*
X14969Y28576D02*
D03*
X22225Y28575D02*
D03*
D25*
X12969Y28576D02*
D03*
X20225Y28575D02*
D03*
D26*
X3810Y43815D02*
D03*
D27*
X6350D02*
D03*
X3810Y41275D02*
D03*
X6350D02*
D03*
X3810Y38735D02*
D03*
X6350D02*
D03*
X3810Y36195D02*
D03*
X6350D02*
D03*
X3810Y33655D02*
D03*
X6350D02*
D03*
X3810Y31115D02*
D03*
X6350D02*
D03*
X3810Y28575D02*
D03*
X6350D02*
D03*
X3810Y26035D02*
D03*
X6350D02*
D03*
M02*
