G04*
G04 #@! TF.GenerationSoftware,Altium Limited,Altium Designer,20.0.2 (26)*
G04*
G04 Layer_Color=128*
%FSLAX43Y43*%
%MOMM*%
G71*
G01*
G75*
%ADD43C,0.051*%
D43*
X50852Y3378D02*
X52376D01*
X51614Y2616D02*
Y4140D01*
X55932Y3378D02*
X57456D01*
X56694Y2616D02*
Y4140D01*
X61097Y3378D02*
X62621D01*
X61859Y2616D02*
Y4140D01*
X66177Y3378D02*
X67701D01*
X66939Y2616D02*
Y4140D01*
X71257Y3378D02*
X72781D01*
X72019Y2616D02*
Y4140D01*
X76972Y3378D02*
X78496D01*
X77734Y2616D02*
Y4140D01*
X82052Y3378D02*
X83576D01*
X82814Y2616D02*
Y4140D01*
X87132Y3378D02*
X88656D01*
X87894Y2616D02*
Y4140D01*
X92644Y3378D02*
X94168D01*
X93406Y2616D02*
Y4140D01*
X97724Y3378D02*
X99248D01*
X98486Y2616D02*
Y4140D01*
X102804Y3378D02*
X104328D01*
X103566Y2616D02*
Y4140D01*
X112844Y37624D02*
X115003D01*
X113924Y36544D02*
Y38703D01*
X114526Y30517D02*
X116685D01*
X115605Y29437D02*
Y31596D01*
X121633Y28835D02*
X123792D01*
X122712Y27756D02*
Y29915D01*
X125544Y34627D02*
X127703D01*
X126624Y33547D02*
Y35706D01*
X118635Y41535D02*
X120794D01*
X119715Y40456D02*
Y42615D01*
X117099Y35185D02*
X123449D01*
X120274Y32010D02*
Y38360D01*
X112844Y63024D02*
X115003D01*
X113924Y61944D02*
Y64103D01*
X114526Y55917D02*
X116685D01*
X115605Y54837D02*
Y56996D01*
X121633Y54235D02*
X123792D01*
X122712Y53156D02*
Y55315D01*
X125544Y60027D02*
X127703D01*
X126624Y58947D02*
Y61106D01*
X118635Y66935D02*
X120794D01*
X119715Y65856D02*
Y68015D01*
X117099Y60585D02*
X123449D01*
X120274Y57410D02*
Y63760D01*
X80680Y28575D02*
X81880D01*
X81280Y27975D02*
Y29175D01*
X88300Y28575D02*
X89500D01*
X88900Y27975D02*
Y29175D01*
X121633Y16135D02*
X123792D01*
X122712Y15056D02*
Y17215D01*
X114526Y14454D02*
X116685D01*
X115605Y13374D02*
Y15533D01*
X112844Y7347D02*
X115003D01*
X113924Y6267D02*
Y8426D01*
X118635Y3435D02*
X120794D01*
X119715Y2356D02*
Y4515D01*
X125544Y10344D02*
X127703D01*
X126624Y9265D02*
Y11424D01*
X117099Y9785D02*
X123449D01*
X120274Y6610D02*
Y12960D01*
X76870Y62865D02*
X78070D01*
X77470Y62265D02*
Y63465D01*
X79410Y60325D02*
X80610D01*
X80010Y59725D02*
Y60925D01*
X81950Y62865D02*
X83150D01*
X82550Y62265D02*
Y63465D01*
X40040Y62865D02*
X41240D01*
X40640Y62265D02*
Y63465D01*
X42580Y60325D02*
X43780D01*
X43180Y59725D02*
Y60925D01*
X45120Y62865D02*
X46320D01*
X45720Y62265D02*
Y63465D01*
X41310Y43180D02*
X42510D01*
X41910Y42580D02*
Y43780D01*
X41310Y40640D02*
X42510D01*
X41910Y40040D02*
Y41240D01*
X41310Y38100D02*
X42510D01*
X41910Y37500D02*
Y38700D01*
X41310Y35560D02*
X42510D01*
X41910Y34960D02*
Y36160D01*
X48930Y35560D02*
X50130D01*
X49530Y34960D02*
Y36160D01*
X48930Y38100D02*
X50130D01*
X49530Y37500D02*
Y38700D01*
X48930Y40640D02*
X50130D01*
X49530Y40040D02*
Y41240D01*
X48930Y43180D02*
X50130D01*
X49530Y42580D02*
Y43780D01*
X64170Y37465D02*
X65370D01*
X64770Y36865D02*
Y38065D01*
X54010Y37465D02*
X55210D01*
X54610Y36865D02*
Y38065D01*
X73060Y42545D02*
X74260D01*
X73660Y41945D02*
Y43145D01*
X73060Y32385D02*
X74260D01*
X73660Y31785D02*
Y32985D01*
X54645Y24130D02*
X55845D01*
X55245Y23530D02*
Y24730D01*
X64805Y24130D02*
X66005D01*
X65405Y23530D02*
Y24730D01*
X64170Y40640D02*
X65370D01*
X64770Y40040D02*
Y41240D01*
X54010Y40640D02*
X55210D01*
X54610Y40040D02*
Y41240D01*
X44485Y20320D02*
X45685D01*
X45085Y19720D02*
Y20920D01*
X44485Y30480D02*
X45685D01*
X45085Y29880D02*
Y31080D01*
X48295Y20320D02*
X49495D01*
X48895Y19720D02*
Y20920D01*
X48295Y30480D02*
X49495D01*
X48895Y29880D02*
Y31080D01*
X64170Y27940D02*
X65370D01*
X64770Y27340D02*
Y28540D01*
X54010Y27940D02*
X55210D01*
X54610Y27340D02*
Y28540D01*
X64170Y31115D02*
X65370D01*
X64770Y30515D02*
Y31715D01*
X54010Y31115D02*
X55210D01*
X54610Y30515D02*
Y31715D01*
X64170Y34290D02*
X65370D01*
X64770Y33690D02*
Y34890D01*
X54010Y34290D02*
X55210D01*
X54610Y33690D02*
Y34890D01*
X54010Y43815D02*
X55210D01*
X54610Y43215D02*
Y44415D01*
X64170Y43815D02*
X65370D01*
X64770Y43215D02*
Y44415D01*
X92745Y43815D02*
X93945D01*
X93345Y43215D02*
Y44415D01*
X102905Y43815D02*
X104105D01*
X103505Y43215D02*
Y44415D01*
X92745Y40640D02*
X93945D01*
X93345Y40040D02*
Y41240D01*
X102905Y40640D02*
X104105D01*
X103505Y40040D02*
Y41240D01*
X80680Y44450D02*
X81880D01*
X81280Y43850D02*
Y45050D01*
X80680Y41910D02*
X81880D01*
X81280Y41310D02*
Y42510D01*
X80680Y39370D02*
X81880D01*
X81280Y38770D02*
Y39970D01*
X80680Y36830D02*
X81880D01*
X81280Y36230D02*
Y37430D01*
X88300Y36830D02*
X89500D01*
X88900Y36230D02*
Y37430D01*
X88300Y39370D02*
X89500D01*
X88900Y38770D02*
Y39970D01*
X88300Y41910D02*
X89500D01*
X88900Y41310D02*
Y42510D01*
X88300Y44450D02*
X89500D01*
X88900Y43850D02*
Y45050D01*
X102905Y37465D02*
X104105D01*
X103505Y36865D02*
Y38065D01*
X92745Y37465D02*
X93945D01*
X93345Y36865D02*
Y38065D01*
X88300Y33655D02*
X89500D01*
X88900Y33055D02*
Y34255D01*
X80680Y33655D02*
X81880D01*
X81280Y33055D02*
Y34255D01*
X92745Y34290D02*
X93945D01*
X93345Y33690D02*
Y34890D01*
X102905Y34290D02*
X104105D01*
X103505Y33690D02*
Y34890D01*
X76235Y32385D02*
X77435D01*
X76835Y31785D02*
Y32985D01*
X76235Y42545D02*
X77435D01*
X76835Y41945D02*
Y43145D01*
X93380Y31115D02*
X94580D01*
X93980Y30515D02*
Y31715D01*
X101000Y31115D02*
X102200D01*
X101600Y30515D02*
Y31715D01*
X37500Y41275D02*
X38700D01*
X38100Y40675D02*
Y41875D01*
X27340Y41275D02*
X28540D01*
X27940Y40675D02*
Y41875D01*
X27340Y38100D02*
X28540D01*
X27940Y37500D02*
Y38700D01*
X37500Y38100D02*
X38700D01*
X38100Y37500D02*
Y38700D01*
X63635Y18415D02*
X64635D01*
X64135Y17915D02*
Y18915D01*
X61635Y18415D02*
X62635D01*
X62135Y17915D02*
Y18915D01*
X40675Y20320D02*
X41875D01*
X41275Y19720D02*
Y20920D01*
X40675Y30480D02*
X41875D01*
X41275Y29880D02*
Y31080D01*
X24165Y12700D02*
X25365D01*
X24765Y12100D02*
Y13300D01*
X24165Y22860D02*
X25365D01*
X24765Y22260D02*
Y23460D01*
X19720Y21590D02*
X20920D01*
X20320Y20990D02*
Y22190D01*
X19720Y13970D02*
X20920D01*
X20320Y13370D02*
Y14570D01*
X36865Y30480D02*
X38065D01*
X37465Y29880D02*
Y31080D01*
X36865Y20320D02*
X38065D01*
X37465Y19720D02*
Y20920D01*
X29699Y23495D02*
X30499D01*
X30099Y23095D02*
Y23895D01*
X31350Y23495D02*
X32150D01*
X31750Y23095D02*
Y23895D01*
X33001Y23495D02*
X33801D01*
X33401Y23095D02*
Y23895D01*
X15275Y21590D02*
X16475D01*
X15875Y20990D02*
Y22190D01*
X15275Y13970D02*
X16475D01*
X15875Y13370D02*
Y14570D01*
X75546Y22225D02*
X76346D01*
X75946Y21825D02*
Y22625D01*
X73895Y22225D02*
X74695D01*
X74295Y21825D02*
Y22625D01*
X72244Y22225D02*
X73044D01*
X72644Y21825D02*
Y22625D01*
X55203Y19690D02*
X56003D01*
X55603Y19290D02*
Y20090D01*
X53552Y19690D02*
X54352D01*
X53952Y19290D02*
Y20090D01*
X51901Y19690D02*
X52701D01*
X52301Y19290D02*
Y20090D01*
X81950Y51435D02*
X83150D01*
X82550Y50835D02*
Y52035D01*
X92110Y51435D02*
X93310D01*
X92710Y50835D02*
Y52035D01*
X92110Y48260D02*
X93310D01*
X92710Y47660D02*
Y48860D01*
X81950Y48260D02*
X83150D01*
X82550Y47660D02*
Y48860D01*
X19720Y33020D02*
X20920D01*
X20320Y32420D02*
Y33620D01*
X19720Y43180D02*
X20920D01*
X20320Y42580D02*
Y43780D01*
X16545Y33020D02*
X17745D01*
X17145Y32420D02*
Y33620D01*
X16545Y43180D02*
X17745D01*
X17145Y42580D02*
Y43780D01*
X14563Y28576D02*
X15375D01*
X14969Y28170D02*
Y28982D01*
X12563Y28576D02*
X13375D01*
X12969Y28170D02*
Y28982D01*
X19819Y28575D02*
X20631D01*
X20225Y28169D02*
Y28981D01*
X21819Y28575D02*
X22631D01*
X22225Y28169D02*
Y28981D01*
X58455Y62230D02*
X59655D01*
X59055Y61630D02*
Y62830D01*
X60995Y62230D02*
X62195D01*
X61595Y61630D02*
Y62830D01*
X63535Y62230D02*
X64735D01*
X64135Y61630D02*
Y62830D01*
X99676Y48260D02*
X100476D01*
X100076Y47860D02*
Y48660D01*
X98025Y48260D02*
X98825D01*
X98425Y47860D02*
Y48660D01*
X96374Y48260D02*
X97174D01*
X96774Y47860D02*
Y48660D01*
X3238Y43815D02*
X4381D01*
X3810Y43243D02*
Y44386D01*
X5778Y43815D02*
X6921D01*
X6350Y43243D02*
Y44386D01*
X3238Y41275D02*
X4381D01*
X3810Y40703D02*
Y41846D01*
X5778Y41275D02*
X6921D01*
X6350Y40703D02*
Y41846D01*
X3238Y38735D02*
X4381D01*
X3810Y38163D02*
Y39306D01*
X5778Y38735D02*
X6921D01*
X6350Y38163D02*
Y39306D01*
X3238Y36195D02*
X4381D01*
X3810Y35623D02*
Y36766D01*
X5778Y36195D02*
X6921D01*
X6350Y35623D02*
Y36766D01*
X3238Y33655D02*
X4381D01*
X3810Y33083D02*
Y34226D01*
X5778Y33655D02*
X6921D01*
X6350Y33083D02*
Y34226D01*
X3238Y31115D02*
X4381D01*
X3810Y30543D02*
Y31686D01*
X5778Y31115D02*
X6921D01*
X6350Y30543D02*
Y31686D01*
X3238Y28575D02*
X4381D01*
X3810Y28003D02*
Y29146D01*
X5778Y28575D02*
X6921D01*
X6350Y28003D02*
Y29146D01*
X3238Y26035D02*
X4381D01*
X3810Y25463D02*
Y26606D01*
X5778Y26035D02*
X6921D01*
X6350Y25463D02*
Y26606D01*
X25250Y31750D02*
X25550D01*
X25400Y31600D02*
Y31900D01*
X71605Y68580D02*
X71905D01*
X71755Y68430D02*
Y68730D01*
X81130Y24765D02*
X81430D01*
X81280Y24615D02*
Y24915D01*
X58270Y57150D02*
X58570D01*
X58420Y57000D02*
Y57300D01*
X61874Y54610D02*
X62586D01*
X62230Y54254D02*
Y54966D01*
X45570Y48260D02*
X45870D01*
X45720Y48110D02*
Y48410D01*
X87480Y60325D02*
X87780D01*
X87630Y60175D02*
Y60475D01*
X34775Y34925D02*
X35075D01*
X34925Y34775D02*
Y35075D01*
M02*
