G04*
G04 #@! TF.GenerationSoftware,Altium Limited,Altium Designer,20.0.2 (26)*
G04*
G04 Layer_Color=65535*
%FSLAX43Y43*%
%MOMM*%
G71*
G01*
G75*
%ADD10C,0.508*%
%ADD11C,0.254*%
%ADD12C,0.200*%
%ADD13C,0.127*%
%ADD14C,0.150*%
D10*
X40894Y44450D02*
G03*
X40894Y44450I-254J0D01*
G01*
X80264Y45720D02*
G03*
X80264Y45720I-254J0D01*
G01*
D11*
X44958Y44450D02*
G03*
X46482Y44450I762J0D01*
G01*
X84328Y45720D02*
G03*
X85852Y45720I762J0D01*
G01*
X65635Y18415D02*
G03*
X65635Y18415I-2500J0D01*
G01*
X29337Y23495D02*
G03*
X34163Y23495I2413J0D01*
G01*
X76708Y22225D02*
G03*
X71882Y22225I-2413J0D01*
G01*
X56365Y19690D02*
G03*
X51539Y19690I-2413J0D01*
G01*
X16469Y28576D02*
G03*
X16469Y28576I-2500J0D01*
G01*
X23725Y28575D02*
G03*
X23725Y28575I-2500J0D01*
G01*
X100838Y48260D02*
G03*
X96012Y48260I-2413J0D01*
G01*
X9842Y36195D02*
X10160D01*
X9842Y41910D02*
X10160D01*
X9842Y39052D02*
X10160D01*
Y36195D02*
Y41910D01*
X42418Y34290D02*
X49022D01*
X42418Y43942D02*
Y44450D01*
Y34290D02*
Y34798D01*
X49022Y34290D02*
Y34798D01*
Y43942D02*
Y44450D01*
X46482D02*
X49022D01*
X42418D02*
X44958D01*
X56590Y36315D02*
X62790D01*
X56590D02*
Y38615D01*
X62790Y36315D02*
Y38615D01*
X56590D02*
X62790D01*
X74810Y34365D02*
Y40565D01*
X72510Y34365D02*
X74810D01*
X72510Y40565D02*
X74810D01*
X72510Y34365D02*
Y40565D01*
X57225Y25280D02*
X63425D01*
Y22980D02*
Y25280D01*
X57225Y22980D02*
Y25280D01*
Y22980D02*
X63425D01*
X56590Y39490D02*
X62790D01*
X56590D02*
Y41790D01*
X62790Y39490D02*
Y41790D01*
X56590D02*
X62790D01*
X43935Y22300D02*
Y28500D01*
X46235D01*
X43935Y22300D02*
X46235D01*
Y28500D01*
X47745Y22300D02*
Y28500D01*
X50045D01*
X47745Y22300D02*
X50045D01*
Y28500D01*
X56590Y26790D02*
X62790D01*
X56590D02*
Y29090D01*
X62790Y26790D02*
Y29090D01*
X56590D02*
X62790D01*
X56590Y29965D02*
X62790D01*
X56590D02*
Y32265D01*
X62790Y29965D02*
Y32265D01*
X56590D02*
X62790D01*
X56590Y33140D02*
X62790D01*
X56590D02*
Y35440D01*
X62790Y33140D02*
Y35440D01*
X56590D02*
X62790D01*
X56590Y44965D02*
X62790D01*
Y42665D02*
Y44965D01*
X56590Y42665D02*
Y44965D01*
Y42665D02*
X62790D01*
X95325Y44965D02*
X101525D01*
Y42665D02*
Y44965D01*
X95325Y42665D02*
Y44965D01*
Y42665D02*
X101525D01*
X95325Y41790D02*
X101525D01*
Y39490D02*
Y41790D01*
X95325Y39490D02*
Y41790D01*
Y39490D02*
X101525D01*
X81788Y35560D02*
X88392D01*
X81788Y45212D02*
Y45720D01*
Y35560D02*
Y36068D01*
X88392Y35560D02*
Y36068D01*
Y45212D02*
Y45720D01*
X85852D02*
X88392D01*
X81788D02*
X84328D01*
X95325Y36315D02*
X101525D01*
X95325D02*
Y38615D01*
X101525Y36315D02*
Y38615D01*
X95325D02*
X101525D01*
X95325Y35440D02*
X101525D01*
Y33140D02*
Y35440D01*
X95325Y33140D02*
Y35440D01*
Y33140D02*
X101525D01*
X75685Y34365D02*
Y40565D01*
X77985D01*
X75685Y34365D02*
X77985D01*
Y40565D01*
X29920Y40125D02*
X36120D01*
X29920D02*
Y42425D01*
X36120Y40125D02*
Y42425D01*
X29920D02*
X36120D01*
X29920Y39250D02*
X36120D01*
Y36950D02*
Y39250D01*
X29920Y36950D02*
Y39250D01*
Y36950D02*
X36120D01*
X66310Y17780D02*
Y19050D01*
X65675Y18415D02*
X66945D01*
X40125Y22300D02*
Y28500D01*
X42425D01*
X40125Y22300D02*
X42425D01*
Y28500D01*
X23622Y19240D02*
X25908D01*
X23622Y18986D02*
X25908D01*
X23622Y18733D02*
X25908D01*
Y15240D02*
Y20320D01*
X23622Y15240D02*
X25908D01*
X23622Y20320D02*
X25908D01*
X23622Y15240D02*
Y20320D01*
X38615Y22300D02*
Y28500D01*
X36315Y22300D02*
X38615D01*
X36315Y28500D02*
X38615D01*
X36315Y22300D02*
Y28500D01*
X29337Y23495D02*
Y25019D01*
X34163Y23495D02*
Y25019D01*
X29337D02*
X34163D01*
X76708Y20701D02*
Y22225D01*
X71882Y20701D02*
Y22225D01*
Y20701D02*
X76708D01*
X56365Y18166D02*
Y19690D01*
X51539Y18166D02*
Y19690D01*
Y18166D02*
X56365D01*
X84530Y52585D02*
X90730D01*
Y50285D02*
Y52585D01*
X84530Y50285D02*
Y52585D01*
Y50285D02*
X90730D01*
X84530Y47110D02*
X90730D01*
X84530D02*
Y49410D01*
X90730Y47110D02*
Y49410D01*
X84530D02*
X90730D01*
X19170Y35000D02*
Y41200D01*
X21470D01*
X19170Y35000D02*
X21470D01*
Y41200D01*
X15995Y35000D02*
Y41200D01*
X18295D01*
X15995Y35000D02*
X18295D01*
Y41200D01*
X17144Y27941D02*
Y29211D01*
X16509Y28576D02*
X17779D01*
X23765Y28575D02*
X25035D01*
X24400Y27940D02*
Y29210D01*
X100838Y46736D02*
Y48260D01*
X96012Y46736D02*
Y48260D01*
Y46736D02*
X100838D01*
X11007Y38311D02*
X10795Y38100D01*
Y37677D01*
X11007Y37465D01*
X11853D01*
X12065Y37677D01*
Y38100D01*
X11853Y38311D01*
X11430D01*
Y37888D01*
X12065Y38735D02*
X10795D01*
X12065Y39581D01*
X10795D01*
Y40004D02*
X12065D01*
Y40639D01*
X11853Y40851D01*
X11007D01*
X10795Y40639D01*
Y40004D01*
X10160Y43815D02*
X11006D01*
X11430Y43180D02*
X11853D01*
X11641D01*
Y44450D01*
X11430Y44238D01*
X13334Y43180D02*
X12488D01*
X13334Y44026D01*
Y44238D01*
X13122Y44450D01*
X12699D01*
X12488Y44238D01*
X13757Y44450D02*
Y43603D01*
X14180Y43180D01*
X14604Y43603D01*
Y44450D01*
X9831Y35194D02*
X10678D01*
X10254Y35617D02*
Y34770D01*
X11101Y34559D02*
X11524D01*
X11312D01*
Y35828D01*
X11101Y35617D01*
X13005Y34559D02*
X12159D01*
X13005Y35405D01*
Y35617D01*
X12794Y35828D01*
X12370D01*
X12159Y35617D01*
X13428Y35828D02*
Y34982D01*
X13852Y34559D01*
X14275Y34982D01*
Y35828D01*
X64135Y59309D02*
X64981D01*
X65405Y58674D02*
X65828D01*
X65616D01*
Y59944D01*
X65405Y59732D01*
X67309Y58674D02*
X66463D01*
X67309Y59520D01*
Y59732D01*
X67097Y59944D01*
X66674D01*
X66463Y59732D01*
X67732Y59944D02*
Y59097D01*
X68155Y58674D01*
X68579Y59097D01*
Y59944D01*
X56515Y59436D02*
X57361D01*
X56938Y59859D02*
Y59013D01*
X57785Y58801D02*
X58208D01*
X57996D01*
Y60071D01*
X57785Y59859D01*
X59689Y58801D02*
X58843D01*
X59689Y59647D01*
Y59859D01*
X59477Y60071D01*
X59054D01*
X58843Y59859D01*
X60112Y60071D02*
Y59224D01*
X60535Y58801D01*
X60959Y59224D01*
Y60071D01*
X82550Y53975D02*
Y54821D01*
X82127Y54398D02*
X82973D01*
X83185Y55245D02*
Y55668D01*
Y55456D01*
X81915D01*
X82127Y55245D01*
X83185Y57149D02*
Y56303D01*
X82339Y57149D01*
X82127D01*
X81915Y56937D01*
Y56514D01*
X82127Y56303D01*
X81915Y57572D02*
X82762D01*
X83185Y57995D01*
X82762Y58419D01*
X81915D01*
X77470Y53975D02*
Y54821D01*
X78105Y55245D02*
Y55668D01*
Y55456D01*
X76835D01*
X77047Y55245D01*
X78105Y57149D02*
Y56303D01*
X77259Y57149D01*
X77047D01*
X76835Y56937D01*
Y56514D01*
X77047Y56303D01*
X76835Y57572D02*
X77682D01*
X78105Y57995D01*
X77682Y58419D01*
X76835D01*
X157480Y-77471D02*
X159173D01*
X158326D01*
Y-80010D01*
X161289Y-77471D02*
X160442D01*
X160019Y-77894D01*
Y-79587D01*
X160442Y-80010D01*
X161289D01*
X161712Y-79587D01*
Y-77894D01*
X161289Y-77471D01*
X162558Y-80010D02*
Y-77471D01*
X163828D01*
X164251Y-77894D01*
Y-78740D01*
X163828Y-79164D01*
X162558D01*
X168906Y-77471D02*
X168060D01*
X167637Y-77894D01*
Y-79587D01*
X168060Y-80010D01*
X168906D01*
X169329Y-79587D01*
Y-77894D01*
X168906Y-77471D01*
X170176D02*
Y-79164D01*
X171022Y-80010D01*
X171869Y-79164D01*
Y-77471D01*
X174408D02*
X172715D01*
Y-80010D01*
X174408D01*
X172715Y-78740D02*
X173561D01*
X175254Y-80010D02*
Y-77471D01*
X176524D01*
X176947Y-77894D01*
Y-78740D01*
X176524Y-79164D01*
X175254D01*
X176101D02*
X176947Y-80010D01*
X177793Y-77471D02*
Y-80010D01*
X179486D01*
X180333D02*
Y-78317D01*
X181179Y-77471D01*
X182025Y-78317D01*
Y-80010D01*
Y-78740D01*
X180333D01*
X182872Y-77471D02*
Y-77894D01*
X183718Y-78740D01*
X184565Y-77894D01*
Y-77471D01*
X183718Y-78740D02*
Y-80010D01*
X72390Y68834D02*
X72898D01*
X72644D01*
Y67310D01*
X72390D01*
X72898D01*
X73660D02*
Y68834D01*
X74675Y67310D01*
Y68834D01*
X75183D02*
X75691D01*
X75437D01*
Y67310D01*
X75183D01*
X75691D01*
X76453Y68834D02*
X77468D01*
X76961D01*
Y67310D01*
X79500Y68834D02*
Y67310D01*
X80515D01*
X82039Y68834D02*
X81023D01*
Y67310D01*
X82039D01*
X81023Y68072D02*
X81531D01*
X82547Y68834D02*
Y67818D01*
X83055Y67310D01*
X83562Y67818D01*
Y68834D01*
X85086D02*
X84070D01*
Y67310D01*
X85086D01*
X84070Y68072D02*
X84578D01*
X85594Y68834D02*
Y67310D01*
X86609D01*
X19050Y45085D02*
Y46609D01*
X19812D01*
X20066Y46355D01*
Y45847D01*
X19812Y45593D01*
X19050D01*
X19558D02*
X20066Y45085D01*
X21589D02*
X20574D01*
X21589Y46101D01*
Y46355D01*
X21335Y46609D01*
X20827D01*
X20574Y46355D01*
X15875Y45085D02*
Y46609D01*
X16637D01*
X16891Y46355D01*
Y45847D01*
X16637Y45593D01*
X15875D01*
X16383D02*
X16891Y45085D01*
X17399D02*
X17906D01*
X17652D01*
Y46609D01*
X17399Y46355D01*
X13716Y25400D02*
X13462Y25654D01*
X12954D01*
X12700Y25400D01*
Y24384D01*
X12954Y24130D01*
X13462D01*
X13716Y24384D01*
X14224Y24130D02*
X14731D01*
X14477D01*
Y25654D01*
X14224Y25400D01*
X20701D02*
X20447Y25654D01*
X19939D01*
X19685Y25400D01*
Y24384D01*
X19939Y24130D01*
X20447D01*
X20701Y24384D01*
X22224Y24130D02*
X21209D01*
X22224Y25146D01*
Y25400D01*
X21970Y25654D01*
X21462D01*
X21209Y25400D01*
X45720Y46609D02*
Y45339D01*
X45974Y45085D01*
X46482D01*
X46736Y45339D01*
Y46609D01*
X47243Y45085D02*
X47751D01*
X47497D01*
Y46609D01*
X47243Y46355D01*
X76200Y46609D02*
Y45339D01*
X76454Y45085D01*
X76962D01*
X77216Y45339D01*
Y46609D01*
X78739Y45085D02*
X77723D01*
X78739Y46101D01*
Y46355D01*
X78485Y46609D01*
X77977D01*
X77723Y46355D01*
X36830Y18415D02*
X38354D01*
Y17653D01*
X38100Y17399D01*
X37592D01*
X37338Y17653D01*
Y18415D01*
Y17907D02*
X36830Y17399D01*
Y15876D02*
Y16891D01*
X37846Y15876D01*
X38100D01*
X38354Y16130D01*
Y16638D01*
X38100Y16891D01*
X38354Y14352D02*
Y15368D01*
X37592D01*
X37846Y14860D01*
Y14606D01*
X37592Y14352D01*
X37084D01*
X36830Y14606D01*
Y15114D01*
X37084Y15368D01*
X40640Y18415D02*
X42164D01*
Y17653D01*
X41910Y17399D01*
X41402D01*
X41148Y17653D01*
Y18415D01*
Y17907D02*
X40640Y17399D01*
Y15876D02*
Y16891D01*
X41656Y15876D01*
X41910D01*
X42164Y16130D01*
Y16638D01*
X41910Y16891D01*
X40640Y14606D02*
X42164D01*
X41402Y15368D01*
Y14352D01*
X66675Y27305D02*
Y28829D01*
X67437D01*
X67691Y28575D01*
Y28067D01*
X67437Y27813D01*
X66675D01*
X67183D02*
X67691Y27305D01*
X69214D02*
X68198D01*
X69214Y28321D01*
Y28575D01*
X68960Y28829D01*
X68452D01*
X68198Y28575D01*
X69722D02*
X69976Y28829D01*
X70484D01*
X70738Y28575D01*
Y28321D01*
X70484Y28067D01*
X70230D01*
X70484D01*
X70738Y27813D01*
Y27559D01*
X70484Y27305D01*
X69976D01*
X69722Y27559D01*
X105410Y43180D02*
Y44703D01*
X106172D01*
X106426Y44450D01*
Y43942D01*
X106172Y43688D01*
X105410D01*
X105918D02*
X106426Y43180D01*
X107949D02*
X106933D01*
X107949Y44196D01*
Y44450D01*
X107695Y44703D01*
X107187D01*
X106933Y44450D01*
X109473Y43180D02*
X108457D01*
X109473Y44196D01*
Y44450D01*
X109219Y44703D01*
X108711D01*
X108457Y44450D01*
X105410Y40005D02*
Y41528D01*
X106172D01*
X106426Y41275D01*
Y40767D01*
X106172Y40513D01*
X105410D01*
X105918D02*
X106426Y40005D01*
X107949D02*
X106933D01*
X107949Y41021D01*
Y41275D01*
X107695Y41528D01*
X107187D01*
X106933Y41275D01*
X108457Y40005D02*
X108965D01*
X108711D01*
Y41528D01*
X108457Y41275D01*
X77470Y26670D02*
X75946D01*
Y27432D01*
X76200Y27686D01*
X76708D01*
X76962Y27432D01*
Y26670D01*
Y27178D02*
X77470Y27686D01*
Y28194D02*
Y28701D01*
Y28447D01*
X75946D01*
X76200Y28194D01*
X77216Y29463D02*
X77470Y29717D01*
Y30225D01*
X77216Y30479D01*
X76200D01*
X75946Y30225D01*
Y29717D01*
X76200Y29463D01*
X76454D01*
X76708Y29717D01*
Y30479D01*
X105410Y33655D02*
Y35179D01*
X106172D01*
X106426Y34925D01*
Y34417D01*
X106172Y34163D01*
X105410D01*
X105918D02*
X106426Y33655D01*
X106933D02*
X107441D01*
X107187D01*
Y35179D01*
X106933Y34925D01*
X108203D02*
X108457Y35179D01*
X108965D01*
X109219Y34925D01*
Y34671D01*
X108965Y34417D01*
X109219Y34163D01*
Y33909D01*
X108965Y33655D01*
X108457D01*
X108203Y33909D01*
Y34163D01*
X108457Y34417D01*
X108203Y34671D01*
Y34925D01*
X108457Y34417D02*
X108965D01*
X76835Y47625D02*
Y49148D01*
X77597D01*
X77851Y48895D01*
Y48387D01*
X77597Y48133D01*
X76835D01*
X77343D02*
X77851Y47625D01*
X78358D02*
X78866D01*
X78612D01*
Y49148D01*
X78358Y48895D01*
X79628Y49148D02*
X80644D01*
Y48895D01*
X79628Y47879D01*
Y47625D01*
X105410Y36830D02*
Y38354D01*
X106172D01*
X106426Y38100D01*
Y37592D01*
X106172Y37338D01*
X105410D01*
X105918D02*
X106426Y36830D01*
X106933D02*
X107441D01*
X107187D01*
Y38354D01*
X106933Y38100D01*
X109219Y38354D02*
X108711Y38100D01*
X108203Y37592D01*
Y37084D01*
X108457Y36830D01*
X108965D01*
X109219Y37084D01*
Y37338D01*
X108965Y37592D01*
X108203D01*
X76835Y50800D02*
Y52324D01*
X77597D01*
X77851Y52070D01*
Y51562D01*
X77597Y51308D01*
X76835D01*
X77343D02*
X77851Y50800D01*
X78358D02*
X78866D01*
X78612D01*
Y52324D01*
X78358Y52070D01*
X80644Y52324D02*
X79628D01*
Y51562D01*
X80136Y51816D01*
X80390D01*
X80644Y51562D01*
Y51054D01*
X80390Y50800D01*
X79882D01*
X79628Y51054D01*
X66675Y43180D02*
Y44703D01*
X67437D01*
X67691Y44450D01*
Y43942D01*
X67437Y43688D01*
X66675D01*
X67183D02*
X67691Y43180D01*
X68198D02*
X68706D01*
X68452D01*
Y44703D01*
X68198Y44450D01*
X70230Y43180D02*
Y44703D01*
X69468Y43942D01*
X70484D01*
X66675Y40005D02*
Y41528D01*
X67437D01*
X67691Y41275D01*
Y40767D01*
X67437Y40513D01*
X66675D01*
X67183D02*
X67691Y40005D01*
X68198D02*
X68706D01*
X68452D01*
Y41528D01*
X68198Y41275D01*
X69468D02*
X69722Y41528D01*
X70230D01*
X70484Y41275D01*
Y41021D01*
X70230Y40767D01*
X69976D01*
X70230D01*
X70484Y40513D01*
Y40259D01*
X70230Y40005D01*
X69722D01*
X69468Y40259D01*
X66675Y33655D02*
Y35179D01*
X67437D01*
X67691Y34925D01*
Y34417D01*
X67437Y34163D01*
X66675D01*
X67183D02*
X67691Y33655D01*
X68198D02*
X68706D01*
X68452D01*
Y35179D01*
X68198Y34925D01*
X70484Y33655D02*
X69468D01*
X70484Y34671D01*
Y34925D01*
X70230Y35179D01*
X69722D01*
X69468Y34925D01*
X66675Y30480D02*
Y32004D01*
X67437D01*
X67691Y31750D01*
Y31242D01*
X67437Y30988D01*
X66675D01*
X67183D02*
X67691Y30480D01*
X68198D02*
X68706D01*
X68452D01*
Y32004D01*
X68198Y31750D01*
X69468Y30480D02*
X69976D01*
X69722D01*
Y32004D01*
X69468Y31750D01*
X66675Y36830D02*
Y38354D01*
X67437D01*
X67691Y38100D01*
Y37592D01*
X67437Y37338D01*
X66675D01*
X67183D02*
X67691Y36830D01*
X68198D02*
X68706D01*
X68452D01*
Y38354D01*
X68198Y38100D01*
X69468D02*
X69722Y38354D01*
X70230D01*
X70484Y38100D01*
Y37084D01*
X70230Y36830D01*
X69722D01*
X69468Y37084D01*
Y38100D01*
X74295Y27940D02*
X72771D01*
Y28702D01*
X73025Y28956D01*
X73533D01*
X73787Y28702D01*
Y27940D01*
Y28448D02*
X74295Y28956D01*
X74041Y29463D02*
X74295Y29717D01*
Y30225D01*
X74041Y30479D01*
X73025D01*
X72771Y30225D01*
Y29717D01*
X73025Y29463D01*
X73279D01*
X73533Y29717D01*
Y30479D01*
X67310Y23495D02*
Y25018D01*
X68072D01*
X68326Y24765D01*
Y24257D01*
X68072Y24003D01*
X67310D01*
X67818D02*
X68326Y23495D01*
X68833Y24765D02*
X69087Y25018D01*
X69595D01*
X69849Y24765D01*
Y24511D01*
X69595Y24257D01*
X69849Y24003D01*
Y23749D01*
X69595Y23495D01*
X69087D01*
X68833Y23749D01*
Y24003D01*
X69087Y24257D01*
X68833Y24511D01*
Y24765D01*
X69087Y24257D02*
X69595D01*
X48260Y18415D02*
X49784D01*
Y17653D01*
X49530Y17399D01*
X49022D01*
X48768Y17653D01*
Y18415D01*
Y17907D02*
X48260Y17399D01*
X49784Y16891D02*
Y15876D01*
X49530D01*
X48514Y16891D01*
X48260D01*
X44450Y18415D02*
X45974D01*
Y17653D01*
X45720Y17399D01*
X45212D01*
X44958Y17653D01*
Y18415D01*
Y17907D02*
X44450Y17399D01*
X45974Y15876D02*
X45720Y16384D01*
X45212Y16891D01*
X44704D01*
X44450Y16638D01*
Y16130D01*
X44704Y15876D01*
X44958D01*
X45212Y16130D01*
Y16891D01*
X23495Y40640D02*
Y42164D01*
X24257D01*
X24511Y41910D01*
Y41402D01*
X24257Y41148D01*
X23495D01*
X24003D02*
X24511Y40640D01*
X26034Y42164D02*
X25019D01*
Y41402D01*
X25526Y41656D01*
X25780D01*
X26034Y41402D01*
Y40894D01*
X25780Y40640D01*
X25272D01*
X25019Y40894D01*
X23495Y37465D02*
Y38989D01*
X24257D01*
X24511Y38735D01*
Y38227D01*
X24257Y37973D01*
X23495D01*
X24003D02*
X24511Y37465D01*
X25019Y38735D02*
X25272Y38989D01*
X25780D01*
X26034Y38735D01*
Y38481D01*
X25780Y38227D01*
X25526D01*
X25780D01*
X26034Y37973D01*
Y37719D01*
X25780Y37465D01*
X25272D01*
X25019Y37719D01*
X31496Y19304D02*
Y20320D01*
X31242Y20574D01*
X30734D01*
X30480Y20320D01*
Y19304D01*
X30734Y19050D01*
X31242D01*
X30988Y19558D02*
X31496Y19050D01*
X31242D02*
X31496Y19304D01*
X32765Y19050D02*
Y20574D01*
X32004Y19812D01*
X33019D01*
X97167Y51829D02*
Y52844D01*
X96913Y53098D01*
X96406D01*
X96152Y52844D01*
Y51829D01*
X96406Y51575D01*
X96913D01*
X96660Y52083D02*
X97167Y51575D01*
X96913D02*
X97167Y51829D01*
X97675Y52844D02*
X97929Y53098D01*
X98437D01*
X98691Y52844D01*
Y52590D01*
X98437Y52336D01*
X98183D01*
X98437D01*
X98691Y52083D01*
Y51829D01*
X98437Y51575D01*
X97929D01*
X97675Y51829D01*
X74041Y18669D02*
Y19685D01*
X73787Y19938D01*
X73279D01*
X73025Y19685D01*
Y18669D01*
X73279Y18415D01*
X73787D01*
X73533Y18923D02*
X74041Y18415D01*
X73787D02*
X74041Y18669D01*
X75564Y18415D02*
X74548D01*
X75564Y19431D01*
Y19685D01*
X75310Y19938D01*
X74802D01*
X74548Y19685D01*
X53698Y16134D02*
Y17150D01*
X53444Y17404D01*
X52936D01*
X52682Y17150D01*
Y16134D01*
X52936Y15880D01*
X53444D01*
X53190Y16388D02*
X53698Y15880D01*
X53444D02*
X53698Y16134D01*
X54206Y15880D02*
X54713D01*
X54459D01*
Y17404D01*
X54206Y17150D01*
X24130Y11049D02*
Y9525D01*
X24892D01*
X25146Y9779D01*
Y10795D01*
X24892Y11049D01*
X24130D01*
X25654Y9525D02*
X26161D01*
X25907D01*
Y11049D01*
X25654Y10795D01*
X54102Y68834D02*
X53594D01*
X53340Y68580D01*
Y67564D01*
X53594Y67310D01*
X54102D01*
X54356Y67564D01*
Y68580D01*
X54102Y68834D01*
X55879D02*
X54864D01*
Y68072D01*
X55371D01*
X54864D01*
Y67310D01*
X57403Y68834D02*
X56387D01*
Y68072D01*
X56895D01*
X56387D01*
Y67310D01*
X58926Y68580D02*
X58672Y68834D01*
X58164D01*
X57911Y68580D01*
Y68326D01*
X58164Y68072D01*
X58672D01*
X58926Y67818D01*
Y67564D01*
X58672Y67310D01*
X58164D01*
X57911Y67564D01*
X60450Y68834D02*
X59434D01*
Y67310D01*
X60450D01*
X59434Y68072D02*
X59942D01*
X60958Y68834D02*
X61973D01*
X61465D01*
Y67310D01*
X64005D02*
Y68834D01*
X65020Y67310D01*
Y68834D01*
X65528D02*
Y67564D01*
X65782Y67310D01*
X66290D01*
X66544Y67564D01*
Y68834D01*
X67052D02*
Y67310D01*
X68067D01*
X68575Y68834D02*
Y67310D01*
X69591D01*
X38100Y68834D02*
Y67310D01*
X38862D01*
X39116Y67564D01*
Y67818D01*
X38862Y68072D01*
X38100D01*
X38862D01*
X39116Y68326D01*
Y68580D01*
X38862Y68834D01*
X38100D01*
X39624Y67310D02*
Y68326D01*
X40131Y68834D01*
X40639Y68326D01*
Y67310D01*
Y68072D01*
X39624D01*
X41147Y68834D02*
Y67310D01*
X42163D01*
X42671D02*
Y68326D01*
X43178Y68834D01*
X43686Y68326D01*
Y67310D01*
Y68072D01*
X42671D01*
X44194Y67310D02*
Y68834D01*
X45210Y67310D01*
Y68834D01*
X46733Y68580D02*
X46479Y68834D01*
X45971D01*
X45718Y68580D01*
Y67564D01*
X45971Y67310D01*
X46479D01*
X46733Y67564D01*
X48257Y68834D02*
X47241D01*
Y67310D01*
X48257D01*
X47241Y68072D02*
X47749D01*
X1350Y49375D02*
Y50898D01*
X2112D01*
X2366Y50645D01*
Y50137D01*
X2112Y49883D01*
X1350D01*
X3635Y50898D02*
X3127D01*
X2873Y50645D01*
Y49629D01*
X3127Y49375D01*
X3635D01*
X3889Y49629D01*
Y50645D01*
X3635Y50898D01*
X4397D02*
Y49375D01*
X4905Y49883D01*
X5413Y49375D01*
Y50898D01*
X6936D02*
X5920D01*
Y49375D01*
X6936D01*
X5920Y50137D02*
X6428D01*
X7444Y49375D02*
Y50898D01*
X8206D01*
X8460Y50645D01*
Y50137D01*
X8206Y49883D01*
X7444D01*
X7952D02*
X8460Y49375D01*
X62611Y15240D02*
X62357Y15493D01*
X61849D01*
X61595Y15240D01*
Y14224D01*
X61849Y13970D01*
X62357D01*
X62611Y14224D01*
X63118Y15240D02*
X63372Y15493D01*
X63880D01*
X64134Y15240D01*
Y14986D01*
X63880Y14732D01*
X63626D01*
X63880D01*
X64134Y14478D01*
Y14224D01*
X63880Y13970D01*
X63372D01*
X63118Y14224D01*
X84419Y26388D02*
X84165Y26642D01*
X83657D01*
X83403Y26388D01*
Y25372D01*
X83657Y25118D01*
X84165D01*
X84419Y25372D01*
X85942Y26642D02*
X84927D01*
Y25880D01*
X85435Y26134D01*
X85689D01*
X85942Y25880D01*
Y25372D01*
X85689Y25118D01*
X85181D01*
X84927Y25372D01*
X84836Y31750D02*
X84582Y32004D01*
X84074D01*
X83820Y31750D01*
Y30734D01*
X84074Y30480D01*
X84582D01*
X84836Y30734D01*
X86359Y32004D02*
X85851Y31750D01*
X85343Y31242D01*
Y30734D01*
X85597Y30480D01*
X86105D01*
X86359Y30734D01*
Y30988D01*
X86105Y31242D01*
X85343D01*
X104521Y31750D02*
X104267Y32004D01*
X103759D01*
X103505Y31750D01*
Y30734D01*
X103759Y30480D01*
X104267D01*
X104521Y30734D01*
X105028Y32004D02*
X106044D01*
Y31750D01*
X105028Y30734D01*
Y30480D01*
X20066Y12065D02*
X19812Y12319D01*
X19304D01*
X19050Y12065D01*
Y11049D01*
X19304Y10795D01*
X19812D01*
X20066Y11049D01*
X20574Y12065D02*
X20827Y12319D01*
X21335D01*
X21589Y12065D01*
Y11811D01*
X21335Y11557D01*
X21589Y11303D01*
Y11049D01*
X21335Y10795D01*
X20827D01*
X20574Y11049D01*
Y11303D01*
X20827Y11557D01*
X20574Y11811D01*
Y12065D01*
X20827Y11557D02*
X21335D01*
X15621Y12065D02*
X15367Y12319D01*
X14859D01*
X14605Y12065D01*
Y11049D01*
X14859Y10795D01*
X15367D01*
X15621Y11049D01*
X16129D02*
X16382Y10795D01*
X16890D01*
X17144Y11049D01*
Y12065D01*
X16890Y12319D01*
X16382D01*
X16129Y12065D01*
Y11811D01*
X16382Y11557D01*
X17144D01*
D12*
X80645Y27305D02*
Y29845D01*
X89535D01*
Y27305D02*
Y29845D01*
X80645Y27305D02*
X89535D01*
X80645Y32385D02*
X89535D01*
Y34925D01*
X80645D02*
X89535D01*
X80645Y32385D02*
Y34925D01*
X93345Y32385D02*
X102235D01*
X93345Y29845D02*
Y32385D01*
Y29845D02*
X102235D01*
Y32385D01*
X21590Y13335D02*
Y22225D01*
X19050D02*
X21590D01*
X19050Y13335D02*
Y22225D01*
Y13335D02*
X21590D01*
X17145D02*
Y22225D01*
X14605D02*
X17145D01*
X14605Y13335D02*
Y22225D01*
Y13335D02*
X17145D01*
D13*
X76710Y59111D02*
Y66165D01*
X83310D01*
Y59111D02*
Y66165D01*
X76710Y59111D02*
X83310D01*
X39880D02*
Y66165D01*
X46480D01*
Y59111D02*
Y66165D01*
X39880Y59111D02*
X46480D01*
X56832Y60261D02*
Y66357D01*
Y60261D02*
X66357D01*
Y66357D01*
X56832D02*
X66357D01*
X580Y20955D02*
X9470D01*
X580D02*
Y48895D01*
X9470D01*
Y20955D02*
Y48895D01*
X580Y36925D02*
X1830D01*
Y32925D02*
Y36925D01*
X580Y32925D02*
X1830D01*
D14*
X658Y68982D02*
Y69515D01*
X925Y69781D01*
X1191Y69515D01*
Y68982D01*
Y69381D01*
X658D01*
X1991Y69781D02*
Y68982D01*
X1591D01*
X1458Y69115D01*
Y69381D01*
X1591Y69515D01*
X1991D01*
X2391D02*
X2657D01*
X2791Y69381D01*
Y68982D01*
X2391D01*
X2257Y69115D01*
X2391Y69248D01*
X2791D01*
X3057Y68982D02*
Y69515D01*
X3191D01*
X3324Y69381D01*
Y68982D01*
Y69381D01*
X3457Y69515D01*
X3590Y69381D01*
Y68982D01*
X4657Y69781D02*
Y68982D01*
X5057D01*
X5190Y69115D01*
Y69648D01*
X5057Y69781D01*
X4657D01*
X5456Y69515D02*
Y69115D01*
X5590Y68982D01*
X5990D01*
Y68848D01*
X5856Y68715D01*
X5723D01*
X5990Y68982D02*
Y69515D01*
X6256Y68982D02*
Y69515D01*
X6656D01*
X6789Y69381D01*
Y68982D01*
X7189Y69515D02*
X7456D01*
X7589Y69381D01*
Y68982D01*
X7189D01*
X7056Y69115D01*
X7189Y69248D01*
X7589D01*
X7856Y68982D02*
Y69515D01*
X7989D01*
X8122Y69381D01*
Y68982D01*
Y69381D01*
X8256Y69515D01*
X8389Y69381D01*
Y68982D01*
X8655D02*
X8922D01*
X8789D01*
Y69515D01*
X8655D01*
X9855D02*
X9455D01*
X9322Y69381D01*
Y69115D01*
X9455Y68982D01*
X9855D01*
X10921Y69781D02*
Y69248D01*
X11188Y68982D01*
X11455Y69248D01*
Y69781D01*
X12254Y69648D02*
X12121Y69781D01*
X11854D01*
X11721Y69648D01*
Y69115D01*
X11854Y68982D01*
X12121D01*
X12254Y69115D01*
X12521Y68982D02*
Y69515D01*
X12787Y69781D01*
X13054Y69515D01*
Y68982D01*
Y69381D01*
X12521D01*
X13321D02*
X13854D01*
X14120Y69648D02*
X14254Y69781D01*
X14520D01*
X14653Y69648D01*
Y69115D01*
X14520Y68982D01*
X14254D01*
X14120Y69115D01*
Y69648D01*
X14920D02*
X15053Y69781D01*
X15320D01*
X15453Y69648D01*
Y69115D01*
X15320Y68982D01*
X15053D01*
X14920Y69115D01*
Y69648D01*
X15720Y68982D02*
X15986D01*
X15853D01*
Y69781D01*
X15720Y69648D01*
X658Y67395D02*
Y68195D01*
X1058D01*
X1191Y68062D01*
Y67795D01*
X1058Y67662D01*
X658D01*
X925D02*
X1191Y67395D01*
X1991Y68195D02*
X1458D01*
Y67395D01*
X1991D01*
X1458Y67795D02*
X1724D01*
X2257Y68195D02*
Y67662D01*
X2524Y67395D01*
X2791Y67662D01*
Y68195D01*
X3057Y67928D02*
X3191D01*
Y67795D01*
X3057D01*
Y67928D01*
Y67529D02*
X3191D01*
Y67395D01*
X3057D01*
Y67529D01*
X5057Y67395D02*
X4523D01*
X5057Y67928D01*
Y68062D01*
X4923Y68195D01*
X4657D01*
X4523Y68062D01*
X5323D02*
X5456Y68195D01*
X5723D01*
X5856Y68062D01*
Y67529D01*
X5723Y67395D01*
X5456D01*
X5323Y67529D01*
Y68062D01*
X6656Y67395D02*
X6123D01*
X6656Y67928D01*
Y68062D01*
X6523Y68195D01*
X6256D01*
X6123Y68062D01*
X7456Y67395D02*
X6923D01*
X7456Y67928D01*
Y68062D01*
X7323Y68195D01*
X7056D01*
X6923Y68062D01*
X7722D02*
X7856Y68195D01*
X8122D01*
X8256Y68062D01*
Y67529D01*
X8122Y67395D01*
X7856D01*
X7722Y67529D01*
Y68062D01*
X8522Y67529D02*
X8655Y67395D01*
X8922D01*
X9055Y67529D01*
Y68062D01*
X8922Y68195D01*
X8655D01*
X8522Y68062D01*
Y67928D01*
X8655Y67795D01*
X9055D01*
X9322Y68062D02*
X9455Y68195D01*
X9722D01*
X9855Y68062D01*
Y67529D01*
X9722Y67395D01*
X9455D01*
X9322Y67529D01*
Y68062D01*
X10122D02*
X10255Y68195D01*
X10521D01*
X10655Y68062D01*
Y67928D01*
X10521Y67795D01*
X10388D01*
X10521D01*
X10655Y67662D01*
Y67529D01*
X10521Y67395D01*
X10255D01*
X10122Y67529D01*
X658Y66609D02*
Y66209D01*
X791Y66076D01*
X925Y66209D01*
X1058Y66076D01*
X1191Y66209D01*
Y66609D01*
X1458D02*
Y66209D01*
X1591Y66076D01*
X1724Y66209D01*
X1858Y66076D01*
X1991Y66209D01*
Y66609D01*
X2257D02*
Y66209D01*
X2391Y66076D01*
X2524Y66209D01*
X2657Y66076D01*
X2791Y66209D01*
Y66609D01*
X3057Y66076D02*
Y66209D01*
X3191D01*
Y66076D01*
X3057D01*
X3857Y66609D02*
X4124D01*
X4257Y66475D01*
Y66076D01*
X3857D01*
X3724Y66209D01*
X3857Y66342D01*
X4257D01*
X5057Y66875D02*
Y66076D01*
X4657D01*
X4523Y66209D01*
Y66475D01*
X4657Y66609D01*
X5057D01*
X5456D02*
X5723D01*
X5856Y66475D01*
Y66076D01*
X5456D01*
X5323Y66209D01*
X5456Y66342D01*
X5856D01*
X6123Y66076D02*
Y66609D01*
X6256D01*
X6389Y66475D01*
Y66076D01*
Y66475D01*
X6523Y66609D01*
X6656Y66475D01*
Y66076D01*
X7456Y66875D02*
Y66076D01*
X7056D01*
X6923Y66209D01*
Y66475D01*
X7056Y66609D01*
X7456D01*
X7722D02*
Y66209D01*
X7856Y66076D01*
X8256D01*
Y65942D01*
X8122Y65809D01*
X7989D01*
X8256Y66076D02*
Y66609D01*
X8522Y66076D02*
Y66609D01*
X8922D01*
X9055Y66475D01*
Y66076D01*
X9455Y66609D02*
X9722D01*
X9855Y66475D01*
Y66076D01*
X9455D01*
X9322Y66209D01*
X9455Y66342D01*
X9855D01*
X10122Y66076D02*
Y66609D01*
X10255D01*
X10388Y66475D01*
Y66076D01*
Y66475D01*
X10521Y66609D01*
X10655Y66475D01*
Y66076D01*
X10921D02*
X11188D01*
X11055D01*
Y66609D01*
X10921D01*
X12121D02*
X11721D01*
X11588Y66475D01*
Y66209D01*
X11721Y66076D01*
X12121D01*
X12388D02*
Y66209D01*
X12521D01*
Y66076D01*
X12388D01*
X13587Y66609D02*
X13187D01*
X13054Y66475D01*
Y66209D01*
X13187Y66076D01*
X13587D01*
X13987D02*
X14254D01*
X14387Y66209D01*
Y66475D01*
X14254Y66609D01*
X13987D01*
X13854Y66475D01*
Y66209D01*
X13987Y66076D01*
X14653D02*
Y66609D01*
X14787D01*
X14920Y66475D01*
Y66076D01*
Y66475D01*
X15053Y66609D01*
X15187Y66475D01*
Y66076D01*
M02*
