G04*
G04 #@! TF.GenerationSoftware,Altium Limited,Altium Designer,20.0.2 (26)*
G04*
G04 Layer_Color=255*
%FSLAX43Y43*%
%MOMM*%
G71*
G01*
G75*
%ADD23O,1.200X2.286*%
%ADD30C,2.286*%
%ADD31C,3.175*%
%ADD32C,6.350*%
%ADD33C,2.000*%
%ADD34R,3.000X1.600*%
%ADD35O,3.000X1.600*%
%ADD36O,1.300X3.000*%
%ADD37R,1.270X2.032*%
%ADD38O,1.270X2.032*%
%ADD39R,1.778X1.778*%
%ADD40C,1.778*%
D23*
X30099Y23495D02*
D03*
X31750D02*
D03*
X33401D02*
D03*
X75946Y22225D02*
D03*
X74295D02*
D03*
X72644D02*
D03*
X55603Y19690D02*
D03*
X53952D02*
D03*
X52301D02*
D03*
X100076Y48260D02*
D03*
X98425D02*
D03*
X96774D02*
D03*
D30*
X51614Y3378D02*
D03*
X56694D02*
D03*
X61859D02*
D03*
X66939D02*
D03*
X72019D02*
D03*
X77734D02*
D03*
X82814D02*
D03*
X87894D02*
D03*
X93406D02*
D03*
X98486D02*
D03*
X103566D02*
D03*
D31*
X113924Y37624D02*
D03*
X115605Y30517D02*
D03*
X122712Y28835D02*
D03*
X126624Y34627D02*
D03*
X119715Y41535D02*
D03*
X113924Y63024D02*
D03*
X115605Y55917D02*
D03*
X122712Y54235D02*
D03*
X126624Y60027D02*
D03*
X119715Y66935D02*
D03*
X122712Y16135D02*
D03*
X115605Y14454D02*
D03*
X113924Y7347D02*
D03*
X119715Y3435D02*
D03*
X126624Y10344D02*
D03*
D32*
X120274Y35185D02*
D03*
Y60585D02*
D03*
X120274Y9785D02*
D03*
D33*
X81280Y28575D02*
D03*
X88900D02*
D03*
X77470Y62865D02*
D03*
X80010Y60325D02*
D03*
X82550Y62865D02*
D03*
X40640D02*
D03*
X43180Y60325D02*
D03*
X45720Y62865D02*
D03*
X64770Y37465D02*
D03*
X54610D02*
D03*
X73660Y42545D02*
D03*
Y32385D02*
D03*
X55245Y24130D02*
D03*
X65405D02*
D03*
X64770Y40640D02*
D03*
X54610D02*
D03*
X45085Y20320D02*
D03*
Y30480D02*
D03*
X48895Y20320D02*
D03*
Y30480D02*
D03*
X64770Y27940D02*
D03*
X54610D02*
D03*
X64770Y31115D02*
D03*
X54610D02*
D03*
X64770Y34290D02*
D03*
X54610D02*
D03*
Y43815D02*
D03*
X64770D02*
D03*
X93345D02*
D03*
X103505D02*
D03*
X93345Y40640D02*
D03*
X103505D02*
D03*
Y37465D02*
D03*
X93345D02*
D03*
X88900Y33655D02*
D03*
X81280D02*
D03*
X93345Y34290D02*
D03*
X103505D02*
D03*
X76835Y32385D02*
D03*
Y42545D02*
D03*
X93980Y31115D02*
D03*
X101600D02*
D03*
X38100Y41275D02*
D03*
X27940D02*
D03*
Y38100D02*
D03*
X38100D02*
D03*
X41275Y20320D02*
D03*
Y30480D02*
D03*
X24765Y12700D02*
D03*
Y22860D02*
D03*
X20320Y21590D02*
D03*
Y13970D02*
D03*
X37465Y30480D02*
D03*
Y20320D02*
D03*
X15875Y21590D02*
D03*
Y13970D02*
D03*
X82550Y51435D02*
D03*
X92710D02*
D03*
Y48260D02*
D03*
X82550D02*
D03*
X20320Y33020D02*
D03*
Y43180D02*
D03*
X17145Y33020D02*
D03*
Y43180D02*
D03*
X59055Y62230D02*
D03*
X61595D02*
D03*
X64135D02*
D03*
D34*
X41910Y43180D02*
D03*
X81280Y44450D02*
D03*
D35*
X41910Y40640D02*
D03*
Y38100D02*
D03*
Y35560D02*
D03*
X49530D02*
D03*
Y38100D02*
D03*
Y40640D02*
D03*
Y43180D02*
D03*
X81280Y41910D02*
D03*
Y39370D02*
D03*
Y36830D02*
D03*
X88900D02*
D03*
Y39370D02*
D03*
Y41910D02*
D03*
Y44450D02*
D03*
D36*
X64135Y18415D02*
D03*
X62135D02*
D03*
D37*
X14969Y28576D02*
D03*
X22225Y28575D02*
D03*
D38*
X12969Y28576D02*
D03*
X20225Y28575D02*
D03*
D39*
X3810Y43815D02*
D03*
D40*
X6350D02*
D03*
X3810Y41275D02*
D03*
X6350D02*
D03*
X3810Y38735D02*
D03*
X6350D02*
D03*
X3810Y36195D02*
D03*
X6350D02*
D03*
X3810Y33655D02*
D03*
X6350D02*
D03*
X3810Y31115D02*
D03*
X6350D02*
D03*
X3810Y28575D02*
D03*
X6350D02*
D03*
X3810Y26035D02*
D03*
X6350D02*
D03*
M02*
