G04*
G04 #@! TF.GenerationSoftware,Altium Limited,Altium Designer,20.0.2 (26)*
G04*
G04 Layer_Color=32896*
%FSLAX43Y43*%
%MOMM*%
G71*
G01*
G75*
%ADD11C,0.254*%
%ADD13C,0.127*%
%ADD14C,0.150*%
D11*
X62611Y10414D02*
X62357Y10668D01*
X61849D01*
X61595Y10414D01*
Y10160D01*
X61849Y9906D01*
X62103D01*
X61849D01*
X61595Y9652D01*
Y9398D01*
X61849Y9144D01*
X62357D01*
X62611Y9398D01*
X72136Y9144D02*
X71628D01*
X71882D01*
Y10668D01*
X72136Y10414D01*
X57531Y9652D02*
X56515D01*
X57023Y10160D02*
Y9144D01*
X98425Y9144D02*
X99441D01*
X98425Y10160D01*
Y10414D01*
X98679Y10667D01*
X99187D01*
X99441Y10414D01*
X77851Y10414D02*
X77597Y10668D01*
X77089D01*
X76835Y10414D01*
Y10160D01*
X77089Y9906D01*
X77343D01*
X77089D01*
X76835Y9652D01*
Y9398D01*
X77089Y9144D01*
X77597D01*
X77851Y9398D01*
X103251Y9144D02*
X102743D01*
X102997D01*
Y10668D01*
X103251Y10414D01*
X66675Y9144D02*
X67691D01*
X66675Y10160D01*
Y10414D01*
X66929Y10667D01*
X67437D01*
X67691Y10414D01*
X88011Y9144D02*
X87503D01*
X87757D01*
Y10668D01*
X88011Y10414D01*
X93726D02*
X93472Y10668D01*
X92964D01*
X92710Y10414D01*
Y10160D01*
X92964Y9906D01*
X93218D01*
X92964D01*
X92710Y9652D01*
Y9398D01*
X92964Y9144D01*
X93472D01*
X93726Y9398D01*
X51816Y9652D02*
X50800D01*
X81915Y9144D02*
X82931D01*
X81915Y10160D01*
Y10414D01*
X82169Y10668D01*
X82677D01*
X82931Y10414D01*
X127000Y24765D02*
Y25781D01*
X126492Y26288D01*
X125984Y25781D01*
Y24765D01*
Y25527D01*
X127000D01*
X125476Y26288D02*
Y25019D01*
X125223Y24765D01*
X124715D01*
X124461Y25019D01*
Y26288D01*
X123953D02*
Y24765D01*
X123191D01*
X122937Y25019D01*
Y26035D01*
X123191Y26288D01*
X123953D01*
X122429D02*
X121922D01*
X122176D01*
Y24765D01*
X122429D01*
X121922D01*
X120398Y26288D02*
X120906D01*
X121160Y26035D01*
Y25019D01*
X120906Y24765D01*
X120398D01*
X120144Y25019D01*
Y26035D01*
X120398Y26288D01*
X119636Y24511D02*
X118621D01*
X117351Y26288D02*
X117859D01*
X118113Y26035D01*
Y25019D01*
X117859Y24765D01*
X117351D01*
X117097Y25019D01*
Y26035D01*
X117351Y26288D01*
X116589D02*
Y25019D01*
X116335Y24765D01*
X115828D01*
X115574Y25019D01*
Y26288D01*
X115066D02*
X114050D01*
X114558D01*
Y24765D01*
X126365Y50165D02*
Y51181D01*
X125857Y51688D01*
X125349Y51181D01*
Y50165D01*
Y50927D01*
X126365D01*
X124841Y51688D02*
Y50419D01*
X124588Y50165D01*
X124080D01*
X123826Y50419D01*
Y51688D01*
X123318D02*
Y50165D01*
X122556D01*
X122302Y50419D01*
Y51435D01*
X122556Y51688D01*
X123318D01*
X121794D02*
X121287D01*
X121541D01*
Y50165D01*
X121794D01*
X121287D01*
X119763Y51688D02*
X120271D01*
X120525Y51435D01*
Y50419D01*
X120271Y50165D01*
X119763D01*
X119509Y50419D01*
Y51435D01*
X119763Y51688D01*
X119001Y49911D02*
X117986D01*
X117478Y51688D02*
X116970D01*
X117224D01*
Y50165D01*
X117478D01*
X116970D01*
X116208D02*
Y51688D01*
X115193Y50165D01*
Y51688D01*
X124460Y18415D02*
Y19431D01*
X123952Y19938D01*
X123444Y19431D01*
Y18415D01*
Y19177D01*
X124460D01*
X122936Y19938D02*
Y18415D01*
X122175D01*
X121921Y18669D01*
Y19685D01*
X122175Y19938D01*
X122936D01*
X120397Y19685D02*
X120651Y19938D01*
X121159D01*
X121413Y19685D01*
Y19431D01*
X121159Y19177D01*
X120651D01*
X120397Y18923D01*
Y18669D01*
X120651Y18415D01*
X121159D01*
X121413Y18669D01*
X119889Y18415D02*
Y19938D01*
X119128D01*
X118874Y19685D01*
Y19177D01*
X119128Y18923D01*
X119889D01*
X119382D02*
X118874Y18415D01*
X118366Y18161D02*
X117350D01*
X116842Y19938D02*
X116335D01*
X116589D01*
Y18415D01*
X116842D01*
X116335D01*
X115573D02*
Y19938D01*
X114557Y18415D01*
Y19938D01*
X74559Y11430D02*
Y12446D01*
X74052Y12954D01*
X73544Y12446D01*
Y11430D01*
Y12192D01*
X74559D01*
X73036Y12446D02*
Y11684D01*
X72782Y11430D01*
X72020D01*
Y12446D01*
X70497Y12954D02*
Y11430D01*
X71259D01*
X71512Y11684D01*
Y12192D01*
X71259Y12446D01*
X70497D01*
X69989Y11430D02*
X69481D01*
X69735D01*
Y12446D01*
X69989D01*
X68465Y11430D02*
X67958D01*
X67704Y11684D01*
Y12192D01*
X67958Y12446D01*
X68465D01*
X68719Y12192D01*
Y11684D01*
X68465Y11430D01*
X65672Y12954D02*
Y11430D01*
X64657D01*
X63387D02*
X63895D01*
X64149Y11684D01*
Y12192D01*
X63895Y12446D01*
X63387D01*
X63133Y12192D01*
Y11938D01*
X64149D01*
X62625Y12446D02*
X62117Y11430D01*
X61610Y12446D01*
X60340Y11430D02*
X60848D01*
X61102Y11684D01*
Y12192D01*
X60848Y12446D01*
X60340D01*
X60086Y12192D01*
Y11938D01*
X61102D01*
X59578Y11430D02*
X59070D01*
X59324D01*
Y12954D01*
X59578D01*
X89799Y11430D02*
Y12446D01*
X89292Y12954D01*
X88784Y12446D01*
Y11430D01*
Y12192D01*
X89799D01*
X88276Y12954D02*
Y11430D01*
X87514D01*
X87260Y11684D01*
Y12700D01*
X87514Y12954D01*
X88276D01*
X85737Y12700D02*
X85991Y12954D01*
X86499D01*
X86752Y12700D01*
Y12446D01*
X86499Y12192D01*
X85991D01*
X85737Y11938D01*
Y11684D01*
X85991Y11430D01*
X86499D01*
X86752Y11684D01*
X85229Y11430D02*
Y12954D01*
X84467D01*
X84213Y12700D01*
Y12192D01*
X84467Y11938D01*
X85229D01*
X84721D02*
X84213Y11430D01*
X82182Y12954D02*
Y11430D01*
X81166D01*
X79897D02*
X80404D01*
X80658Y11684D01*
Y12192D01*
X80404Y12446D01*
X79897D01*
X79643Y12192D01*
Y11938D01*
X80658D01*
X79135Y12446D02*
X78627Y11430D01*
X78119Y12446D01*
X76850Y11430D02*
X77357D01*
X77611Y11684D01*
Y12192D01*
X77357Y12446D01*
X76850D01*
X76596Y12192D01*
Y11938D01*
X77611D01*
X76088Y11430D02*
X75580D01*
X75834D01*
Y12954D01*
X76088D01*
X100443Y12700D02*
X100696Y12954D01*
X101204D01*
X101458Y12700D01*
Y11684D01*
X101204Y11430D01*
X100696D01*
X100443Y11684D01*
Y12192D01*
X100950D01*
X99681Y12446D02*
X99173D01*
X98919Y12192D01*
Y11430D01*
X99681D01*
X99935Y11684D01*
X99681Y11938D01*
X98919D01*
X98411Y11430D02*
X97903D01*
X98157D01*
Y12446D01*
X98411D01*
X97142Y11430D02*
Y12446D01*
X96380D01*
X96126Y12192D01*
Y11430D01*
X55424Y12954D02*
Y11430D01*
X54408D01*
X52884Y12954D02*
X53900D01*
Y11430D01*
X52884D01*
X53900Y12192D02*
X53392D01*
X52376Y12954D02*
Y11430D01*
X51615D01*
X51361Y11684D01*
Y12700D01*
X51615Y12954D01*
X52376D01*
D13*
X113670Y43059D02*
G03*
X112400Y41789I0J-1270D01*
G01*
X128148D02*
G03*
X126878Y43059I-1270J0D01*
G01*
Y27311D02*
G03*
X128148Y28581I0J1270D01*
G01*
X115838Y27683D02*
G03*
X116736Y27311I898J898D01*
G01*
X112400Y31647D02*
G03*
X112772Y30749I1270J0D01*
G01*
X113670Y68459D02*
G03*
X112400Y67189I0J-1270D01*
G01*
X128148D02*
G03*
X126878Y68459I-1270J0D01*
G01*
Y52711D02*
G03*
X128148Y53981I0J1270D01*
G01*
X115838Y53083D02*
G03*
X116736Y52711I898J898D01*
G01*
X112400Y57047D02*
G03*
X112772Y56149I1270J0D01*
G01*
X128148Y16389D02*
G03*
X126878Y17659I-1270J0D01*
G01*
Y1911D02*
G03*
X128148Y3181I0J1270D01*
G01*
X112400D02*
G03*
X113670Y1911I1270J0D01*
G01*
X112772Y14221D02*
G03*
X112400Y13323I898J-898D01*
G01*
X116736Y17659D02*
G03*
X115838Y17287I0J-1270D01*
G01*
X49074Y378D02*
X59234D01*
X49074Y7878D02*
X59234D01*
Y378D02*
Y7878D01*
X49074Y378D02*
Y7878D01*
X59319Y378D02*
Y7878D01*
Y378D02*
X74559D01*
X59319Y7878D02*
X74559D01*
Y378D02*
Y7878D01*
X75194Y378D02*
Y7878D01*
Y378D02*
X90434D01*
X75194Y7878D02*
X90434D01*
Y378D02*
Y7878D01*
X90866Y378D02*
Y7878D01*
Y378D02*
X106106D01*
X90866Y7878D02*
X106106D01*
Y378D02*
Y7878D01*
X112774Y30745D02*
X113589Y29930D01*
X115049Y28475D02*
X115839Y27685D01*
X113670Y43059D02*
X118474D01*
X120974D02*
X126878D01*
X128148Y35735D02*
Y41789D01*
Y28581D02*
Y33535D01*
X123774Y27311D02*
X126878D01*
X116736D02*
X121674D01*
X112400Y31647D02*
Y36335D01*
Y38835D02*
Y41789D01*
X112774Y56145D02*
X113589Y55330D01*
X115049Y53875D02*
X115839Y53085D01*
X113670Y68459D02*
X118474D01*
X120974D02*
X126878D01*
X128148Y61135D02*
Y67189D01*
Y53981D02*
Y58935D01*
X123774Y52711D02*
X126878D01*
X116736D02*
X121674D01*
X112400Y57047D02*
Y61735D01*
Y64235D02*
Y67189D01*
X115019Y16470D02*
X115834Y17285D01*
X112774Y14220D02*
X113564Y15010D01*
X128148Y11585D02*
Y16389D01*
Y3181D02*
Y9085D01*
X120824Y1911D02*
X126878D01*
X113670D02*
X118624D01*
X112400Y3181D02*
Y6285D01*
Y8385D02*
Y13323D01*
X116736Y17659D02*
X121424D01*
X123924D02*
X126878D01*
D14*
X72342Y6665D02*
X72608D01*
X72475D01*
Y5998D01*
X72608Y5865D01*
X72742D01*
X72875Y5998D01*
X72075Y6665D02*
Y5865D01*
X71542D01*
X70742Y6531D02*
X70876Y6665D01*
X71142D01*
X71276Y6531D01*
Y5998D01*
X71142Y5865D01*
X70876D01*
X70742Y5998D01*
X69943Y6665D02*
X70209D01*
X70076D01*
Y5998D01*
X70209Y5865D01*
X70342D01*
X70476Y5998D01*
X69676Y6665D02*
Y5865D01*
X69143D01*
X68343Y6531D02*
X68476Y6665D01*
X68743D01*
X68876Y6531D01*
Y5998D01*
X68743Y5865D01*
X68476D01*
X68343Y5998D01*
X67543Y6665D02*
X67810D01*
X67677D01*
Y5998D01*
X67810Y5865D01*
X67943D01*
X68077Y5998D01*
X67277Y6665D02*
Y5865D01*
X66744D01*
X65944Y6531D02*
X66077Y6665D01*
X66344D01*
X66477Y6531D01*
Y5998D01*
X66344Y5865D01*
X66077D01*
X65944Y5998D01*
X65144Y6665D02*
X65411D01*
X65277D01*
Y5998D01*
X65411Y5865D01*
X65544D01*
X65677Y5998D01*
X64878Y6665D02*
Y5865D01*
X64344D01*
X63545Y6531D02*
X63678Y6665D01*
X63945D01*
X64078Y6531D01*
Y5998D01*
X63945Y5865D01*
X63678D01*
X63545Y5998D01*
M02*
