M48
;Layer_Color=9474304
;FILE_FORMAT=4:3
METRIC,LZ
;TYPE=PLATED
T1F00S00C0.300
T2F00S00C0.711
T3F00S00C0.800
T4F00S00C0.813
T5F00S00C1.000
T6F00S00C1.143
T7F00S00C1.200
T8F00S00C1.524
T9F00S00C2.159
;TYPE=NON_PLATED
T10F00S00C6.350
%
T01
X00254Y003175
X0034925Y0034925
X008128Y0024765
X008763Y0060325
X0071755Y006858
X005842Y005715
X004572Y004826
T02
X006223Y005461
T03
X0030099Y0023495
X003175
X0033401
X0052301Y001969
X0053952
X0055603
X0072644Y0022225
X0074295
X0075946
X0096774Y004826
X0098425
X0100076
T04
X0012969Y0028576
X0014969
X0020225Y0028575
X0022225
T05
X0062135Y0018415
X0064135
T06
X000381Y0026035
Y0028575
Y0031115
Y0033655
Y0036195
Y0038735
Y0041275
Y0043815
X000635
Y0041275
Y0038735
Y0036195
Y0033655
Y0031115
Y0028575
Y0026035
T07
X0015875Y001397
X002032
X0024765Y00127
Y002286
X002032Y002159
X0015875
X0017145Y003302
X002032
Y004318
X0017145
X002794Y0041275
Y00381
X00381
Y0041275
X004191Y004064
Y004318
Y00381
Y003556
X0041275Y003048
X0045085Y003048
X0048895Y003048
X004953Y003556
Y00381
Y004064
Y004318
X0048895Y002032
X0045085Y002032
X0041275Y002032
X0037465
Y003048
X005461Y0031115
Y002794
X0055245Y002413
X0065405
X006477Y002794
Y0031115
Y003429
Y0037465
Y004064
Y0043815
X007366Y0042545
X0076835
X008128Y004191
Y004445
Y003937
Y003683
Y0033655
Y0028575
X00889
Y0033655
Y003683
Y003937
Y004191
Y004445
X0093345Y0043815
Y004064
Y0037465
Y003429
X009398Y0031115
X0076835Y0032385
X007366
X005461Y003429
Y0037465
Y004064
Y0043815
X0103505
Y004064
Y0037465
Y003429
X01016Y0031115
X009271Y004826
Y0051435
X008255
Y004826
X008001Y0060325
X007747Y0062865
X008255
X0064135Y006223
X0061595
X0059055
X004572Y0062865
X004064
X004318Y0060325
T08
X0098486Y0003378
X0103566
X0093406
X0087894
X0082814
X0077734
X0072019
X0066939
X0061859
X0056694
X0051614
T09
X0119715Y0003435
X0113924Y0007347
X0115605Y0014454
X0122712Y0016135
X0126624Y0010344
X0122712Y0028835
X0115605Y0030517
X0113924Y0037624
X0119715Y0041535
X0126624Y0034627
X0122712Y0054235
X0115605Y0055917
X0113924Y0063024
X0119715Y0066935
X0126624Y0060027
T10
X0120274Y0009785
X0120274Y0035185
Y0060585
M30
