M48
; DRILL file {KiCad (5.1.7)-1} date 11/09/20 00:45:26
; FORMAT={-:-/ absolute / metric / decimal}
; #@! TF.CreationDate,2020-11-09T00:45:26+03:00
; #@! TF.GenerationSoftware,Kicad,Pcbnew,(5.1.7)-1
; #@! TF.FileFunction,Plated,1,2,PTH
FMAT,2
METRIC
T1C0.800
T2C1.000
T3C1.300
%
G90
G05
T1
X42.66Y-37.9
X42.66Y-40.44
X42.9Y-80.89
X45.4Y-80.89
X55.62Y-32.28
X55.62Y-34.78
X49.23Y-73.0
X49.23Y-78.0
X62.05Y-98.03
X62.05Y-100.57
X48.36Y-93.16
X48.36Y-95.7
X62.89Y-32.92
X62.89Y-35.46
X59.81Y-37.92
X59.81Y-40.46
X52.55Y-55.23
X52.55Y-60.23
X49.99Y-32.39
X49.99Y-34.89
X42.21Y-98.17
X42.21Y-100.71
X54.91Y-98.81
X54.91Y-101.31
X43.79Y-56.97
X46.33Y-56.97
X56.0Y-93.16
X56.0Y-95.7
X59.04Y-93.16
X59.04Y-95.7
X58.88Y-80.78
X61.38Y-80.78
X55.56Y-55.2
X55.56Y-60.2
X57.5Y-73.27
X62.5Y-73.27
X42.67Y-32.85
X42.67Y-35.39
X57.98Y-76.39
X60.52Y-76.39
X48.74Y-37.92
X48.74Y-40.46
X62.86Y-37.92
X62.86Y-40.46
X45.32Y-62.69
X45.32Y-70.31
X47.86Y-62.69
X47.86Y-70.31
X50.4Y-62.69
X50.4Y-70.31
X52.94Y-62.69
X52.94Y-70.31
X55.48Y-62.69
X55.48Y-70.31
X58.02Y-62.69
X58.02Y-70.31
X60.56Y-62.69
X60.56Y-70.31
X60.24Y-52.15
X62.74Y-52.15
X49.51Y-55.22
X49.51Y-60.22
X43.91Y-51.99
X46.41Y-51.99
X52.99Y-47.56
X52.99Y-52.56
X34.01Y-106.02
X36.51Y-106.02
X59.87Y-32.47
X59.87Y-35.01
X58.61Y-56.71
X61.15Y-56.71
X43.44Y-76.63
X45.98Y-76.63
X62.09Y-93.16
X62.09Y-95.7
X49.26Y-98.89
X49.26Y-101.39
X52.2Y-72.98
X52.2Y-77.98
X41.79Y-60.05
X46.79Y-60.05
X51.94Y-80.49
X51.94Y-85.49
X59.03Y-98.51
X59.03Y-101.05
X55.78Y-80.85
X55.78Y-83.39
X57.13Y-49.65
X57.13Y-52.19
X34.46Y-111.06
X37.0Y-111.06
X69.1Y-107.2
X71.6Y-107.2
X58.14Y-59.76
X63.14Y-59.76
X45.79Y-32.39
X45.79Y-34.93
X56.76Y-37.91
X56.76Y-40.45
X48.53Y-80.88
X48.53Y-83.42
X45.28Y-93.16
X45.28Y-95.7
X42.23Y-93.15
X42.23Y-95.69
X68.57Y-111.56
X71.11Y-111.56
X55.04Y-72.91
X55.04Y-77.91
X41.65Y-73.5
X46.65Y-73.5
X45.71Y-37.91
X45.71Y-40.45
X49.52Y-49.78
X49.52Y-52.32
X45.24Y-98.62
X45.24Y-101.16
T2
X43.85Y-107.91
X43.85Y-110.45
X46.39Y-107.91
X46.39Y-110.45
X48.93Y-107.91
X48.93Y-110.45
X51.47Y-107.91
X51.47Y-110.45
X54.01Y-107.91
X54.01Y-110.45
X56.55Y-107.91
X56.55Y-110.45
X59.09Y-107.91
X59.09Y-110.45
X61.63Y-107.91
X61.63Y-110.45
T3
X34.93Y-70.12
X34.93Y-75.12
X34.93Y-80.12
X34.93Y-85.12
X34.93Y-90.12
X34.93Y-95.12
X34.93Y-100.12
X70.12Y-32.79
X70.12Y-37.79
X70.12Y-42.79
X70.12Y-47.79
X70.12Y-52.79
X70.12Y-57.79
X70.12Y-62.79
X70.12Y-70.23
X70.12Y-75.23
X70.12Y-80.23
X70.12Y-85.23
X70.12Y-90.23
X70.12Y-95.23
X70.12Y-100.23
X34.93Y-32.79
X34.93Y-37.79
X34.93Y-42.79
X34.93Y-47.79
X34.93Y-52.79
X34.93Y-57.79
X34.93Y-62.79
T0
M30
