G04*
G04 #@! TF.GenerationSoftware,Altium Limited,Altium Designer,20.0.2 (26)*
G04*
G04 Layer_Color=255*
%FSLAX43Y43*%
%MOMM*%
G71*
G01*
G75*
%ADD22O,1.016X2.286*%
%ADD27O,2.286X1.016*%
%ADD31C,3.175*%
%ADD32C,6.350*%
%ADD33C,2.000*%
%ADD34C,2.286*%
%ADD35O,1.800X2.300*%
%ADD36R,1.800X2.300*%
%ADD37R,2.000X2.000*%
%ADD38C,1.500*%
%ADD39R,1.500X1.500*%
%ADD40C,1.524*%
%ADD41R,1.500X2.000*%
%ADD42O,1.500X2.000*%
D22*
X86535Y24641D02*
D03*
X84884D02*
D03*
X83233D02*
D03*
X75311Y20320D02*
D03*
X76962D02*
D03*
X78613D02*
D03*
X90297Y24638D02*
D03*
X91948D02*
D03*
X93599D02*
D03*
D27*
X82042Y47625D02*
D03*
Y45974D02*
D03*
Y44323D02*
D03*
D31*
X102390Y15138D02*
D03*
X104072Y8032D02*
D03*
X111178Y6350D02*
D03*
X115090Y12141D02*
D03*
X108181Y19050D02*
D03*
X108181Y44450D02*
D03*
X115090Y37541D02*
D03*
X111178Y31750D02*
D03*
X104072Y33432D02*
D03*
X102390Y40538D02*
D03*
X115090Y64059D02*
D03*
X108181Y57150D02*
D03*
X102390Y61062D02*
D03*
X104072Y68168D02*
D03*
X111178Y69850D02*
D03*
D32*
X108740Y12700D02*
D03*
X108740Y38100D02*
D03*
X108740Y63500D02*
D03*
D33*
X83820Y29718D02*
D03*
Y39878D02*
D03*
X80772Y30480D02*
D03*
Y38100D02*
D03*
X66802Y25400D02*
D03*
Y17780D02*
D03*
X30300Y10550D02*
D03*
X30226Y7874D02*
D03*
X12192Y36322D02*
D03*
X22352D02*
D03*
X6524Y29210D02*
D03*
X3984D02*
D03*
X6524Y31750D02*
D03*
X3984D02*
D03*
X6524Y34290D02*
D03*
X3984D02*
D03*
X6524Y36830D02*
D03*
X3984D02*
D03*
X6524Y39370D02*
D03*
X3984D02*
D03*
X6524Y41910D02*
D03*
X3984D02*
D03*
X6524Y44450D02*
D03*
X3984D02*
D03*
X6524Y46990D02*
D03*
X67056Y13462D02*
D03*
X74676D02*
D03*
X49022Y26162D02*
D03*
Y16002D02*
D03*
X72390Y27432D02*
D03*
Y17272D02*
D03*
X69596D02*
D03*
Y27432D02*
D03*
X69723Y40711D02*
D03*
Y50871D02*
D03*
X86614Y29718D02*
D03*
Y39878D02*
D03*
X89662Y29718D02*
D03*
Y39878D02*
D03*
X95446Y53731D02*
D03*
Y43571D02*
D03*
X92456Y53594D02*
D03*
Y43434D02*
D03*
X36322Y42672D02*
D03*
Y52832D02*
D03*
X75438Y40894D02*
D03*
X78232D02*
D03*
Y51054D02*
D03*
X65532Y30226D02*
D03*
Y37846D02*
D03*
X37846Y15748D02*
D03*
Y25908D02*
D03*
X63754Y27178D02*
D03*
Y17018D02*
D03*
X52324Y50732D02*
D03*
Y40572D02*
D03*
X40640Y15748D02*
D03*
Y25908D02*
D03*
X49530Y40640D02*
D03*
Y50800D02*
D03*
X46228Y26162D02*
D03*
Y16002D02*
D03*
X33020Y42164D02*
D03*
Y49784D02*
D03*
X43493Y15748D02*
D03*
Y25908D02*
D03*
X35052Y15748D02*
D03*
Y25908D02*
D03*
X32258Y15748D02*
D03*
Y25908D02*
D03*
X29464Y15748D02*
D03*
Y25908D02*
D03*
X22352Y39370D02*
D03*
X12192D02*
D03*
X75184Y17018D02*
D03*
X85344D02*
D03*
X92456Y29718D02*
D03*
Y39878D02*
D03*
X95250Y29718D02*
D03*
Y39878D02*
D03*
X39116Y52832D02*
D03*
Y42672D02*
D03*
D34*
X94742Y69342D02*
D03*
X89662D02*
D03*
X74031D02*
D03*
X79111D02*
D03*
X84191D02*
D03*
X63448D02*
D03*
X68528D02*
D03*
X57912D02*
D03*
X52832D02*
D03*
X47752D02*
D03*
X84380Y4572D02*
D03*
X79300D02*
D03*
X52376D02*
D03*
X47296D02*
D03*
X63044D02*
D03*
X57964D02*
D03*
X68632D02*
D03*
X73712D02*
D03*
D35*
X52324Y37338D02*
D03*
X49784D02*
D03*
X37084D02*
D03*
X39624D02*
D03*
X42164D02*
D03*
X44704D02*
D03*
X47244D02*
D03*
X39624Y29718D02*
D03*
X42164D02*
D03*
X44704D02*
D03*
X47244D02*
D03*
X49784D02*
D03*
X52324D02*
D03*
X72644Y30353D02*
D03*
X75184D02*
D03*
X77724D02*
D03*
Y37973D02*
D03*
X75184D02*
D03*
X72644D02*
D03*
X70104D02*
D03*
D36*
X37084Y29718D02*
D03*
X70104Y30353D02*
D03*
D37*
X3984Y46990D02*
D03*
D38*
X43704Y53848D02*
D03*
D39*
X45704D02*
D03*
D40*
X75438Y51054D02*
D03*
D41*
X18272Y32004D02*
D03*
X16321Y43588D02*
D03*
D42*
X16272Y32004D02*
D03*
X18321Y43588D02*
D03*
M02*
