G04*
G04 #@! TF.GenerationSoftware,Altium Limited,Altium Designer,20.0.2 (26)*
G04*
G04 Layer_Color=32896*
%FSLAX43Y43*%
%MOMM*%
G71*
G01*
G75*
%ADD11C,0.254*%
%ADD13C,0.127*%
%ADD14C,0.150*%
D11*
X113538Y22860D02*
X113030D01*
X113284D01*
Y21336D01*
X113538D01*
X113030D01*
X112268D02*
Y22860D01*
X111253Y21336D01*
Y22860D01*
X110745D02*
Y21844D01*
X110237Y21336D01*
X109729Y21844D01*
Y22860D01*
X106936D02*
X107444D01*
X107698Y22606D01*
Y21590D01*
X107444Y21336D01*
X106936D01*
X106682Y21590D01*
Y22606D01*
X106936Y22860D01*
X106174D02*
Y21590D01*
X105920Y21336D01*
X105413D01*
X105159Y21590D01*
Y22860D01*
X104651D02*
X103635D01*
X104143D01*
Y21336D01*
X114808Y46990D02*
Y48006D01*
X114300Y48514D01*
X113792Y48006D01*
Y46990D01*
Y47752D01*
X114808D01*
X113284Y48514D02*
Y46990D01*
X112523D01*
X112269Y47244D01*
Y48260D01*
X112523Y48514D01*
X113284D01*
X110745Y48260D02*
X110999Y48514D01*
X111507D01*
X111761Y48260D01*
Y48006D01*
X111507Y47752D01*
X110999D01*
X110745Y47498D01*
Y47244D01*
X110999Y46990D01*
X111507D01*
X111761Y47244D01*
X110237Y46990D02*
Y48514D01*
X109476D01*
X109222Y48260D01*
Y47752D01*
X109476Y47498D01*
X110237D01*
X109730D02*
X109222Y46990D01*
X106429Y48514D02*
X106937D01*
X107190Y48260D01*
Y47244D01*
X106937Y46990D01*
X106429D01*
X106175Y47244D01*
Y48260D01*
X106429Y48514D01*
X105667D02*
Y47244D01*
X105413Y46990D01*
X104905D01*
X104651Y47244D01*
Y48514D01*
X104143D02*
X103128D01*
X103636D01*
Y46990D01*
X112268Y54356D02*
X112522Y54610D01*
X113030D01*
X113284Y54356D01*
Y53340D01*
X113030Y53086D01*
X112522D01*
X112268Y53340D01*
Y53848D01*
X112776D01*
X111760Y53086D02*
Y54102D01*
X111253Y54610D01*
X110745Y54102D01*
Y53086D01*
Y53848D01*
X111760D01*
X110237Y54610D02*
X109221D01*
X109729D01*
Y53086D01*
X107698Y54610D02*
X108713D01*
Y53086D01*
X107698D01*
X108713Y53848D02*
X108206D01*
X105666Y54610D02*
X105159D01*
X105413D01*
Y53086D01*
X105666D01*
X105159D01*
X104397D02*
Y54610D01*
X103381Y53086D01*
Y54610D01*
D13*
X102136Y20574D02*
G03*
X100866Y19304I0J-1270D01*
G01*
X116614D02*
G03*
X115344Y20574I-1270J0D01*
G01*
Y4826D02*
G03*
X116614Y6096I0J1270D01*
G01*
X104304Y5198D02*
G03*
X105202Y4826I898J898D01*
G01*
X100866Y9162D02*
G03*
X101238Y8264I1270J0D01*
G01*
X100866Y34562D02*
G03*
X101238Y33664I1270J0D01*
G01*
X104304Y30598D02*
G03*
X105202Y30226I898J898D01*
G01*
X115344D02*
G03*
X116614Y31496I0J1270D01*
G01*
Y44704D02*
G03*
X115344Y45974I-1270J0D01*
G01*
X102136D02*
G03*
X100866Y44704I0J-1270D01*
G01*
X105202Y71374D02*
G03*
X104304Y71002I0J-1270D01*
G01*
X101238Y67936D02*
G03*
X100866Y67038I898J-898D01*
G01*
Y56896D02*
G03*
X102136Y55626I1270J0D01*
G01*
X115344D02*
G03*
X116614Y56896I0J1270D01*
G01*
Y70104D02*
G03*
X115344Y71374I-1270J0D01*
G01*
X101240Y8260D02*
X102055Y7445D01*
X103515Y5990D02*
X104305Y5200D01*
X102136Y20574D02*
X106940D01*
X109440D02*
X115344D01*
X116614Y13250D02*
Y19304D01*
Y6096D02*
Y11050D01*
X112240Y4826D02*
X115344D01*
X105202D02*
X110140D01*
X100866Y9162D02*
Y13850D01*
Y16350D02*
Y19304D01*
X100866Y41750D02*
Y44704D01*
Y34562D02*
Y39250D01*
X105202Y30226D02*
X110140D01*
X112240D02*
X115344D01*
X116614Y31496D02*
Y36450D01*
Y38650D02*
Y44704D01*
X109440Y45974D02*
X115344D01*
X102136D02*
X106940D01*
X103515Y31390D02*
X104305Y30600D01*
X101240Y33660D02*
X102055Y32845D01*
X112390Y71374D02*
X115344D01*
X105202D02*
X109890D01*
X100866Y62100D02*
Y67038D01*
Y56896D02*
Y60000D01*
X102136Y55626D02*
X107090D01*
X109290D02*
X115344D01*
X116614Y56896D02*
Y62800D01*
Y65300D02*
Y70104D01*
X101240Y67935D02*
X102030Y68725D01*
X103485Y70185D02*
X104300Y71000D01*
X87122Y72342D02*
X97282D01*
X87122Y64842D02*
X97282D01*
X87122D02*
Y72342D01*
X97282Y64842D02*
Y72342D01*
X71491Y64842D02*
Y72342D01*
Y64842D02*
X86731D01*
X71491Y72342D02*
X86731D01*
Y64842D02*
Y72342D01*
X71068Y64842D02*
Y72342D01*
X60908Y64842D02*
Y72342D01*
Y64842D02*
X71068D01*
X60908Y72342D02*
X71068D01*
X60452Y64842D02*
Y72342D01*
X45212D02*
X60452D01*
X45212Y64842D02*
X60452D01*
X45212D02*
Y72342D01*
X76760Y1572D02*
Y9072D01*
X86920Y1572D02*
Y9072D01*
X76760D02*
X86920D01*
X76760Y1572D02*
X86920D01*
X44756D02*
Y9072D01*
X54916Y1572D02*
Y9072D01*
X44756D02*
X54916D01*
X44756Y1572D02*
X54916D01*
X55424D02*
Y9072D01*
X65584Y1572D02*
Y9072D01*
X55424D02*
X65584D01*
X55424Y1572D02*
X65584D01*
X66092D02*
X76252D01*
X66092Y9072D02*
X76252D01*
Y1572D02*
Y9072D01*
X66092Y1572D02*
Y9072D01*
D14*
X31092Y5522D02*
Y4722D01*
X30559D01*
X29759Y5522D02*
X30292D01*
Y4722D01*
X29759D01*
X30292Y5122D02*
X30026D01*
X29493Y5522D02*
Y4722D01*
X29093D01*
X28959Y4855D01*
Y5388D01*
X29093Y5522D01*
X29493D01*
X55784Y7350D02*
X55451D01*
X55618D01*
Y6517D01*
X55451Y6350D01*
X55285D01*
X55118Y6517D01*
X56118Y7350D02*
Y6350D01*
X56784D01*
X57784Y7183D02*
X57617Y7350D01*
X57284D01*
X57117Y7183D01*
Y6517D01*
X57284Y6350D01*
X57617D01*
X57784Y6517D01*
X58783Y7350D02*
X58450D01*
X58617D01*
Y6517D01*
X58450Y6350D01*
X58284D01*
X58117Y6517D01*
X59117Y7350D02*
Y6350D01*
X59783D01*
X60783Y7183D02*
X60616Y7350D01*
X60283D01*
X60116Y7183D01*
Y6517D01*
X60283Y6350D01*
X60616D01*
X60783Y6517D01*
X61783Y7350D02*
X61449D01*
X61616D01*
Y6517D01*
X61449Y6350D01*
X61283D01*
X61116Y6517D01*
X62116Y7350D02*
Y6350D01*
X62782D01*
X63782Y7183D02*
X63615Y7350D01*
X63282D01*
X63115Y7183D01*
Y6517D01*
X63282Y6350D01*
X63615D01*
X63782Y6517D01*
X64782Y7350D02*
X64448D01*
X64615D01*
Y6517D01*
X64448Y6350D01*
X64282D01*
X64115Y6517D01*
X65115Y7350D02*
Y6350D01*
X65781D01*
X66781Y7183D02*
X66614Y7350D01*
X66281D01*
X66114Y7183D01*
Y6517D01*
X66281Y6350D01*
X66614D01*
X66781Y6517D01*
X77699Y9906D02*
X78232D01*
X77699Y10439D01*
Y10572D01*
X77832Y10706D01*
X78099D01*
X78232Y10572D01*
X83566Y9906D02*
X83299D01*
X83433D01*
Y10706D01*
X83566Y10572D01*
X57633Y9906D02*
X58166D01*
X57633Y10439D01*
Y10572D01*
X57766Y10706D01*
X58033D01*
X58166Y10572D01*
X67285Y9906D02*
X67818D01*
X67285Y10439D01*
Y10572D01*
X67418Y10706D01*
X67685D01*
X67818Y10572D01*
X73152Y9906D02*
X72885D01*
X73019D01*
Y10706D01*
X73152Y10572D01*
X51283Y9652D02*
X51816D01*
X51283Y10185D01*
Y10318D01*
X51416Y10452D01*
X51683D01*
X51816Y10318D01*
X63246Y9906D02*
X62979D01*
X63113D01*
Y10706D01*
X63246Y10572D01*
X46736Y9652D02*
X46469D01*
X46603D01*
Y10452D01*
X46736Y10318D01*
X89408Y63246D02*
X89141D01*
X89275D01*
Y64046D01*
X89408Y63912D01*
X94717Y63246D02*
X95250D01*
X94717Y63779D01*
Y63912D01*
X94850Y64046D01*
X95117D01*
X95250Y63912D01*
X73660Y63246D02*
X73393D01*
X73527D01*
Y64046D01*
X73660Y63912D01*
X77953Y63246D02*
X78486D01*
X77953Y63779D01*
Y63912D01*
X78086Y64046D01*
X78353D01*
X78486Y63912D01*
X83820D02*
X83687Y64046D01*
X83420D01*
X83287Y63912D01*
Y63779D01*
X83420Y63646D01*
X83553D01*
X83420D01*
X83287Y63513D01*
Y63379D01*
X83420Y63246D01*
X83687D01*
X83820Y63379D01*
X62992Y63246D02*
X62725D01*
X62859D01*
Y64046D01*
X62992Y63912D01*
X68047Y63246D02*
X68580D01*
X68047Y63779D01*
Y63912D01*
X68180Y64046D01*
X68447D01*
X68580Y63912D01*
X47244Y63246D02*
X46911D01*
X47077D01*
Y64246D01*
X47244Y64079D01*
X52553Y63246D02*
X53086D01*
X52553Y63779D01*
Y63912D01*
X52686Y64046D01*
X52953D01*
X53086Y63912D01*
X58420Y64166D02*
X58287Y64300D01*
X58020D01*
X57887Y64166D01*
Y64033D01*
X58020Y63900D01*
X58153D01*
X58020D01*
X57887Y63767D01*
Y63633D01*
X58020Y63500D01*
X58287D01*
X58420Y63633D01*
X51587Y53848D02*
X51054D01*
X51587Y54381D01*
Y54514D01*
X51454Y54648D01*
X51187D01*
X51054Y54514D01*
X72390Y11755D02*
X72223Y11922D01*
X71890D01*
X71724Y11755D01*
Y11089D01*
X71890Y10922D01*
X72223D01*
X72390Y11089D01*
Y11755D01*
X71390Y11422D02*
X70724D01*
X70391Y10922D02*
X70057D01*
X70224D01*
Y11922D01*
X70391Y11755D01*
X69558D02*
X69391Y11922D01*
X69058D01*
X68891Y11755D01*
Y11089D01*
X69058Y10922D01*
X69391D01*
X69558Y11089D01*
Y11755D01*
X68558Y11922D02*
Y11255D01*
X68225Y10922D01*
X67891Y11255D01*
Y11922D01*
X95758Y62468D02*
X95092D01*
X95425D01*
Y61468D01*
X94758D02*
Y62468D01*
X94258D01*
X94092Y62301D01*
Y61968D01*
X94258Y61801D01*
X94758D01*
X94425D02*
X94092Y61468D01*
X93759Y62468D02*
X93425D01*
X93592D01*
Y61468D01*
X93759D01*
X93425D01*
X92259Y62301D02*
X92426Y62468D01*
X92759D01*
X92926Y62301D01*
Y61635D01*
X92759Y61468D01*
X92426D01*
X92259Y61635D01*
Y61968D01*
X92592D01*
X91259Y62301D02*
X91426Y62468D01*
X91759D01*
X91926Y62301D01*
Y61635D01*
X91759Y61468D01*
X91426D01*
X91259Y61635D01*
Y61968D01*
X91593D01*
X90260Y62468D02*
X90926D01*
Y61468D01*
X90260D01*
X90926Y61968D02*
X90593D01*
X89927Y61468D02*
Y62468D01*
X89427D01*
X89260Y62301D01*
Y61968D01*
X89427Y61801D01*
X89927D01*
X89593D02*
X89260Y61468D01*
X81884Y62301D02*
X82050Y62468D01*
X82383D01*
X82550Y62301D01*
Y62134D01*
X82383Y61968D01*
X82050D01*
X81884Y61801D01*
Y61635D01*
X82050Y61468D01*
X82383D01*
X82550Y61635D01*
X81550Y62468D02*
Y61635D01*
X81384Y61468D01*
X81050D01*
X80884Y61635D01*
Y62468D01*
X79884Y62301D02*
X80051Y62468D01*
X80384D01*
X80551Y62301D01*
Y62134D01*
X80384Y61968D01*
X80051D01*
X79884Y61801D01*
Y61635D01*
X80051Y61468D01*
X80384D01*
X80551Y61635D01*
X79551Y62468D02*
X78885D01*
X79218D01*
Y61468D01*
X78551D02*
Y62134D01*
X78218Y62468D01*
X77885Y62134D01*
Y61468D01*
Y61968D01*
X78551D01*
X77552Y62468D02*
X77218D01*
X77385D01*
Y61468D01*
X77552D01*
X77218D01*
X76719D02*
Y62468D01*
X76052Y61468D01*
Y62468D01*
X51562Y12176D02*
Y11176D01*
X51062D01*
X50896Y11343D01*
Y12009D01*
X51062Y12176D01*
X51562D01*
X49896D02*
X50562D01*
Y11176D01*
X49896D01*
X50562Y11676D02*
X50229D01*
X48896Y12009D02*
X49063Y12176D01*
X49396D01*
X49563Y12009D01*
Y11343D01*
X49396Y11176D01*
X49063D01*
X48896Y11343D01*
X48563Y11176D02*
Y11842D01*
X48230Y12176D01*
X47897Y11842D01*
Y11176D01*
Y11676D01*
X48563D01*
X47563Y12176D02*
Y12009D01*
X47230Y11676D01*
X46897Y12009D01*
Y12176D01*
X47230Y11676D02*
Y11176D01*
X70962Y62301D02*
X71128Y62468D01*
X71461D01*
X71628Y62301D01*
Y62134D01*
X71461Y61968D01*
X71128D01*
X70962Y61801D01*
Y61635D01*
X71128Y61468D01*
X71461D01*
X71628Y61635D01*
X70628Y62468D02*
Y61468D01*
X69962D01*
X69129Y62468D02*
X69462D01*
X69629Y62301D01*
Y61635D01*
X69462Y61468D01*
X69129D01*
X68962Y61635D01*
Y62301D01*
X69129Y62468D01*
X68629D02*
Y61468D01*
X68296Y61801D01*
X67963Y61468D01*
Y62468D01*
X67629Y61468D02*
X66963Y62134D01*
X65963Y62468D02*
X66630D01*
Y61968D01*
X66296D01*
X66630D01*
Y61468D01*
X65630D02*
Y62134D01*
X65297Y62468D01*
X64963Y62134D01*
Y61468D01*
Y61968D01*
X65630D01*
X63964Y62301D02*
X64130Y62468D01*
X64464D01*
X64630Y62301D01*
Y62134D01*
X64464Y61968D01*
X64130D01*
X63964Y61801D01*
Y61635D01*
X64130Y61468D01*
X64464D01*
X64630Y61635D01*
X63631Y62468D02*
X62964D01*
X63297D01*
Y61468D01*
X61631Y62468D02*
Y61468D01*
X61131D01*
X60965Y61635D01*
Y61801D01*
X61131Y61968D01*
X61631D01*
X61131D01*
X60965Y62134D01*
Y62301D01*
X61131Y62468D01*
X61631D01*
X84582Y11176D02*
Y11842D01*
X84249Y12176D01*
X83916Y11842D01*
Y11176D01*
Y11676D01*
X84582D01*
X83582Y12176D02*
X82916D01*
X83249D01*
Y11176D01*
X82583Y12176D02*
X81916D01*
X82249D01*
Y11176D01*
X81583D02*
Y11842D01*
X81250Y12176D01*
X80917Y11842D01*
Y11176D01*
Y11676D01*
X81583D01*
X79917Y12009D02*
X80083Y12176D01*
X80417D01*
X80583Y12009D01*
Y11343D01*
X80417Y11176D01*
X80083D01*
X79917Y11343D01*
X79584Y12176D02*
Y11176D01*
Y11509D01*
X78917Y12176D01*
X79417Y11676D01*
X78917Y11176D01*
X63552D02*
Y12176D01*
X63052D01*
X62885Y12009D01*
Y11676D01*
X63052Y11509D01*
X63552D01*
X63218D02*
X62885Y11176D01*
X61885Y12176D02*
X62552D01*
Y11176D01*
X61885D01*
X62552Y11676D02*
X62219D01*
X61552Y12176D02*
Y11176D01*
X60886D01*
X59886Y12176D02*
X60553D01*
Y11176D01*
X59886D01*
X60553Y11676D02*
X60219D01*
X59553Y11176D02*
Y11842D01*
X59220Y12176D01*
X58886Y11842D01*
Y11176D01*
Y11676D01*
X59553D01*
X57887Y12009D02*
X58053Y12176D01*
X58387D01*
X58553Y12009D01*
Y11842D01*
X58387Y11676D01*
X58053D01*
X57887Y11509D01*
Y11343D01*
X58053Y11176D01*
X58387D01*
X58553Y11343D01*
X56887Y12176D02*
X57553D01*
Y11176D01*
X56887D01*
X57553Y11676D02*
X57220D01*
X58653Y62301D02*
X58820Y62468D01*
X59153D01*
X59319Y62301D01*
Y62134D01*
X59153Y61968D01*
X58820D01*
X58653Y61801D01*
Y61635D01*
X58820Y61468D01*
X59153D01*
X59319Y61635D01*
X58320Y62468D02*
Y61468D01*
X57653D01*
X56820Y62468D02*
X57153D01*
X57320Y62301D01*
Y61635D01*
X57153Y61468D01*
X56820D01*
X56654Y61635D01*
Y62301D01*
X56820Y62468D01*
X56320D02*
Y61468D01*
X55987Y61801D01*
X55654Y61468D01*
Y62468D01*
X55321Y61468D02*
X54654Y62134D01*
X53655Y62468D02*
X54321D01*
Y61968D01*
X53988D01*
X54321D01*
Y61468D01*
X53321D02*
Y62134D01*
X52988Y62468D01*
X52655Y62134D01*
Y61468D01*
Y61968D01*
X53321D01*
X51655Y62301D02*
X51822Y62468D01*
X52155D01*
X52322Y62301D01*
Y62134D01*
X52155Y61968D01*
X51822D01*
X51655Y61801D01*
Y61635D01*
X51822Y61468D01*
X52155D01*
X52322Y61635D01*
X51322Y62468D02*
X50656D01*
X50989D01*
Y61468D01*
X49323D02*
Y62134D01*
X48989Y62468D01*
X48656Y62134D01*
Y61468D01*
Y61968D01*
X49323D01*
M02*
