G04*
G04 #@! TF.GenerationSoftware,Altium Limited,Altium Designer,20.0.2 (26)*
G04*
G04 Layer_Color=65535*
%FSLAX43Y43*%
%MOMM*%
G71*
G01*
G75*
%ADD10C,0.508*%
%ADD11C,0.254*%
%ADD12C,0.200*%
%ADD13C,0.127*%
%ADD14C,0.150*%
D10*
X36068Y28448D02*
G03*
X36068Y28448I-254J0D01*
G01*
X69088Y29083D02*
G03*
X69088Y29083I-254J0D01*
G01*
D11*
X36068Y32766D02*
G03*
X36068Y34290I0J762D01*
G01*
X68834Y33401D02*
G03*
X68834Y34925I0J762D01*
G01*
X87297Y24641D02*
G03*
X82471Y24641I-2413J0D01*
G01*
X47204Y53848D02*
G03*
X47204Y53848I-2500J0D01*
G01*
X79375Y20320D02*
G03*
X74549Y20320I-2413J0D01*
G01*
X82042Y43561D02*
G03*
X82042Y48387I0J2413D01*
G01*
X19772Y32004D02*
G03*
X19772Y32004I-2500J0D01*
G01*
X19821Y43588D02*
G03*
X19821Y43588I-2500J0D01*
G01*
X94361Y24638D02*
G03*
X89535Y24638I-2413J0D01*
G01*
X84963Y32258D02*
Y37338D01*
X82677Y32258D02*
X84963D01*
X82677Y37338D02*
X84963D01*
X82677Y32258D02*
Y37338D01*
Y33846D02*
X84963D01*
X82677Y33591D02*
X84963D01*
X82677Y33338D02*
X84963D01*
X53340Y30226D02*
Y36830D01*
X48260Y30226D02*
X48768D01*
X50800D02*
X51308D01*
X43180D02*
X43688D01*
X45720D02*
X46228D01*
X38100D02*
X38608D01*
X40640D02*
X41148D01*
X48260Y36830D02*
X48768D01*
X50800D02*
X51308D01*
X43180D02*
X43688D01*
X45720D02*
X46228D01*
X40640D02*
X41148D01*
X38100D02*
X38608D01*
X36068Y34290D02*
Y36830D01*
Y30226D02*
Y32766D01*
X78994Y30861D02*
Y37465D01*
X68834Y30861D02*
X69342D01*
X78486D02*
X78994D01*
X78486Y37465D02*
X78994D01*
X68834D02*
X69342D01*
X68834Y34925D02*
Y37465D01*
Y30861D02*
Y33401D01*
X14172Y37472D02*
X20372D01*
Y35172D02*
Y37472D01*
X14172Y35172D02*
Y37472D01*
Y35172D02*
X20372D01*
X87297Y23117D02*
Y24641D01*
X82471Y23117D02*
Y24641D01*
Y23117D02*
X87297D01*
X47244Y53848D02*
X48514D01*
X47879Y53213D02*
Y54483D01*
X47879Y18542D02*
Y23622D01*
X50165D01*
X47879Y18542D02*
X50165D01*
Y23622D01*
X47879Y22035D02*
X50165D01*
X47879Y22288D02*
X50165D01*
X47879Y22542D02*
X50165D01*
X73540Y19252D02*
Y25452D01*
X71240Y19252D02*
X73540D01*
X71240Y25452D02*
X73540D01*
X71240Y19252D02*
Y25452D01*
X68446Y19252D02*
Y25452D01*
X70746D01*
X68446Y19252D02*
X70746D01*
Y25452D01*
X68573Y42691D02*
Y48891D01*
X70873D01*
X68573Y42691D02*
X70873D01*
Y48891D01*
X74549Y18796D02*
X79375D01*
X74549D02*
Y20320D01*
X79375Y18796D02*
Y20320D01*
X85464Y31698D02*
Y37898D01*
X87764D01*
X85464Y31698D02*
X87764D01*
Y37898D01*
X88512Y31698D02*
Y37898D01*
X90812D01*
X88512Y31698D02*
X90812D01*
Y37898D01*
X96595Y45551D02*
Y51751D01*
X94296Y45551D02*
X96595D01*
X94296Y51751D02*
X96596D01*
X94296Y45551D02*
Y51751D01*
X93606Y45414D02*
Y51614D01*
X91306Y45414D02*
X93606D01*
X91306Y51614D02*
X93606D01*
X91306Y45414D02*
Y51614D01*
X35172Y44652D02*
Y50852D01*
X37472D01*
X35172Y44652D02*
X37472D01*
Y50852D01*
X76588Y42874D02*
Y49074D01*
X74288Y42874D02*
X76588D01*
X74288Y49074D02*
X76588D01*
X74288Y42874D02*
Y49074D01*
X77082Y42874D02*
Y49074D01*
X79382D01*
X77082Y42874D02*
X79382D01*
Y49074D01*
X80518Y43561D02*
Y48387D01*
X82042D01*
X80518Y43561D02*
X82042D01*
X36696Y17728D02*
Y23928D01*
X38996D01*
X36696Y17728D02*
X38996D01*
Y23928D01*
X62611Y19558D02*
Y24638D01*
X64897D01*
X62611Y19558D02*
X64897D01*
Y24638D01*
X62611Y23051D02*
X64897D01*
X62611Y23305D02*
X64897D01*
X62611Y23559D02*
X64897D01*
X53474Y42552D02*
Y48752D01*
X51174Y42552D02*
X53474D01*
X51174Y48752D02*
X53474D01*
X51174Y42552D02*
Y48752D01*
X39490Y17728D02*
Y23928D01*
X41790D01*
X39490Y17728D02*
X41790D01*
Y23928D01*
X48380Y42620D02*
Y48820D01*
X50680D01*
X48380Y42620D02*
X50680D01*
Y48820D01*
X45085Y18542D02*
Y23622D01*
X47371D01*
X45085Y18542D02*
X47371D01*
Y23622D01*
X45085Y22035D02*
X47371D01*
X45085Y22288D02*
X47371D01*
X45085Y22542D02*
X47371D01*
X42343Y17728D02*
Y23928D01*
X44643D01*
X42343Y17728D02*
X44643D01*
Y23928D01*
X33902Y17728D02*
Y23928D01*
X36202D01*
X33902Y17728D02*
X36202D01*
Y23928D01*
X31108Y17728D02*
Y23928D01*
X33408D01*
X31108Y17728D02*
X33408D01*
Y23928D01*
X30607Y18288D02*
Y23368D01*
X28321Y18288D02*
X30607D01*
X28321Y23368D02*
X30607D01*
X28321Y18288D02*
Y23368D01*
Y19875D02*
X30607D01*
X28321Y19622D02*
X30607D01*
X28321Y19368D02*
X30607D01*
X20447Y31369D02*
Y32639D01*
X19812Y32004D02*
X21082D01*
X13511Y43588D02*
X14781D01*
X14146Y42953D02*
Y44223D01*
X14172Y38220D02*
X20372D01*
X14172D02*
Y40520D01*
X20372Y38220D02*
Y40520D01*
X14172D02*
X20372D01*
X77164Y18168D02*
X83364D01*
Y15868D02*
Y18168D01*
X77164Y15868D02*
Y18168D01*
Y15868D02*
X83364D01*
X89535Y23114D02*
X94361D01*
X89535D02*
Y24638D01*
X94361Y23114D02*
Y24638D01*
X91306Y31698D02*
Y37898D01*
X93606D01*
X91306Y31698D02*
X93606D01*
Y37898D01*
X94100Y31698D02*
Y37898D01*
X96400D01*
X94100Y31698D02*
X96400D01*
Y37898D01*
X40266Y44652D02*
Y50852D01*
X37966Y44652D02*
X40266D01*
X37966Y50852D02*
X40266D01*
X37966Y44652D02*
Y50852D01*
D12*
X79502Y29845D02*
Y38735D01*
Y29845D02*
X82042D01*
Y38735D01*
X79502D02*
X82042D01*
X68072Y17145D02*
Y26035D01*
X65532D02*
X68072D01*
X65532Y17145D02*
Y26035D01*
Y17145D02*
X68072D01*
X66421Y14732D02*
X75311D01*
X66421Y12192D02*
Y14732D01*
Y12192D02*
X75311D01*
Y14732D01*
X64262Y29591D02*
X66802D01*
X64262D02*
Y38481D01*
X66802D01*
Y29591D02*
Y38481D01*
X31750Y41529D02*
X34290D01*
X31750D02*
Y50419D01*
X34290D01*
Y41529D02*
Y50419D01*
D13*
X2540Y41910D02*
X6858D01*
X2540Y34290D02*
Y41910D01*
Y34290D02*
X8636D01*
X11176Y36830D01*
Y39370D01*
X8636Y41910D02*
X11176Y39370D01*
X6858Y41910D02*
X8636D01*
X754Y36100D02*
X2004D01*
Y40100D01*
X754D02*
X2004D01*
X9644Y24130D02*
Y52070D01*
X754D02*
X9644D01*
X754Y24130D02*
Y52070D01*
Y24130D02*
X9644D01*
D14*
X912Y70633D02*
Y71166D01*
X1179Y71432D01*
X1445Y71166D01*
Y70633D01*
Y71032D01*
X912D01*
X2245Y71432D02*
Y70633D01*
X1845D01*
X1712Y70766D01*
Y71032D01*
X1845Y71166D01*
X2245D01*
X2645D02*
X2911D01*
X3045Y71032D01*
Y70633D01*
X2645D01*
X2511Y70766D01*
X2645Y70899D01*
X3045D01*
X3311Y70633D02*
Y71166D01*
X3445D01*
X3578Y71032D01*
Y70633D01*
Y71032D01*
X3711Y71166D01*
X3844Y71032D01*
Y70633D01*
X4911Y71432D02*
Y70633D01*
X5311D01*
X5444Y70766D01*
Y71299D01*
X5311Y71432D01*
X4911D01*
X5710Y71166D02*
Y70766D01*
X5844Y70633D01*
X6244D01*
Y70499D01*
X6110Y70366D01*
X5977D01*
X6244Y70633D02*
Y71166D01*
X6510Y70633D02*
Y71166D01*
X6910D01*
X7043Y71032D01*
Y70633D01*
X7443Y71166D02*
X7710D01*
X7843Y71032D01*
Y70633D01*
X7443D01*
X7310Y70766D01*
X7443Y70899D01*
X7843D01*
X8110Y70633D02*
Y71166D01*
X8243D01*
X8376Y71032D01*
Y70633D01*
Y71032D01*
X8510Y71166D01*
X8643Y71032D01*
Y70633D01*
X8909D02*
X9176D01*
X9043D01*
Y71166D01*
X8909D01*
X10109D02*
X9709D01*
X9576Y71032D01*
Y70766D01*
X9709Y70633D01*
X10109D01*
X11175D02*
Y71166D01*
X11442Y71432D01*
X11709Y71166D01*
Y70633D01*
Y71032D01*
X11175D01*
X11975Y71432D02*
Y70633D01*
X12375D01*
X12508Y70766D01*
Y71299D01*
X12375Y71432D01*
X11975D01*
X13308Y71299D02*
X13175Y71432D01*
X12908D01*
X12775Y71299D01*
Y71166D01*
X12908Y71032D01*
X13175D01*
X13308Y70899D01*
Y70766D01*
X13175Y70633D01*
X12908D01*
X12775Y70766D01*
X13575Y70633D02*
Y71432D01*
X13974D01*
X14108Y71299D01*
Y71032D01*
X13974Y70899D01*
X13575D01*
X13841D02*
X14108Y70633D01*
X14374Y71032D02*
X14907D01*
X15174Y71299D02*
X15307Y71432D01*
X15574D01*
X15707Y71299D01*
Y70766D01*
X15574Y70633D01*
X15307D01*
X15174Y70766D01*
Y71299D01*
X15974D02*
X16107Y71432D01*
X16374D01*
X16507Y71299D01*
Y70766D01*
X16374Y70633D01*
X16107D01*
X15974Y70766D01*
Y71299D01*
X16774Y70633D02*
X17040D01*
X16907D01*
Y71432D01*
X16774Y71299D01*
X912Y69046D02*
Y69846D01*
X1312D01*
X1445Y69713D01*
Y69446D01*
X1312Y69313D01*
X912D01*
X1179D02*
X1445Y69046D01*
X2245Y69846D02*
X1712D01*
Y69046D01*
X2245D01*
X1712Y69446D02*
X1978D01*
X2511Y69846D02*
Y69313D01*
X2778Y69046D01*
X3045Y69313D01*
Y69846D01*
X3311Y69579D02*
X3445D01*
Y69446D01*
X3311D01*
Y69579D01*
Y69180D02*
X3445D01*
Y69046D01*
X3311D01*
Y69180D01*
X5311Y69046D02*
X4777D01*
X5311Y69579D01*
Y69713D01*
X5177Y69846D01*
X4911D01*
X4777Y69713D01*
X5577D02*
X5710Y69846D01*
X5977D01*
X6110Y69713D01*
Y69180D01*
X5977Y69046D01*
X5710D01*
X5577Y69180D01*
Y69713D01*
X6910Y69046D02*
X6377D01*
X6910Y69579D01*
Y69713D01*
X6777Y69846D01*
X6510D01*
X6377Y69713D01*
X7710Y69046D02*
X7177D01*
X7710Y69579D01*
Y69713D01*
X7577Y69846D01*
X7310D01*
X7177Y69713D01*
X7976D02*
X8110Y69846D01*
X8376D01*
X8510Y69713D01*
Y69180D01*
X8376Y69046D01*
X8110D01*
X7976Y69180D01*
Y69713D01*
X8776Y69180D02*
X8909Y69046D01*
X9176D01*
X9309Y69180D01*
Y69713D01*
X9176Y69846D01*
X8909D01*
X8776Y69713D01*
Y69579D01*
X8909Y69446D01*
X9309D01*
X9576Y69713D02*
X9709Y69846D01*
X9976D01*
X10109Y69713D01*
Y69180D01*
X9976Y69046D01*
X9709D01*
X9576Y69180D01*
Y69713D01*
X10376D02*
X10509Y69846D01*
X10775D01*
X10909Y69713D01*
Y69579D01*
X10775Y69446D01*
X10642D01*
X10775D01*
X10909Y69313D01*
Y69180D01*
X10775Y69046D01*
X10509D01*
X10376Y69180D01*
X912Y68260D02*
Y67860D01*
X1045Y67727D01*
X1179Y67860D01*
X1312Y67727D01*
X1445Y67860D01*
Y68260D01*
X1712D02*
Y67860D01*
X1845Y67727D01*
X1978Y67860D01*
X2112Y67727D01*
X2245Y67860D01*
Y68260D01*
X2511D02*
Y67860D01*
X2645Y67727D01*
X2778Y67860D01*
X2911Y67727D01*
X3045Y67860D01*
Y68260D01*
X3311Y67727D02*
Y67860D01*
X3445D01*
Y67727D01*
X3311D01*
X4111Y68260D02*
X4378D01*
X4511Y68126D01*
Y67727D01*
X4111D01*
X3978Y67860D01*
X4111Y67993D01*
X4511D01*
X5311Y68526D02*
Y67727D01*
X4911D01*
X4777Y67860D01*
Y68126D01*
X4911Y68260D01*
X5311D01*
X5710D02*
X5977D01*
X6110Y68126D01*
Y67727D01*
X5710D01*
X5577Y67860D01*
X5710Y67993D01*
X6110D01*
X6377Y67727D02*
Y68260D01*
X6510D01*
X6643Y68126D01*
Y67727D01*
Y68126D01*
X6777Y68260D01*
X6910Y68126D01*
Y67727D01*
X7710Y68526D02*
Y67727D01*
X7310D01*
X7177Y67860D01*
Y68126D01*
X7310Y68260D01*
X7710D01*
X7976D02*
Y67860D01*
X8110Y67727D01*
X8510D01*
Y67593D01*
X8376Y67460D01*
X8243D01*
X8510Y67727D02*
Y68260D01*
X8776Y67727D02*
Y68260D01*
X9176D01*
X9309Y68126D01*
Y67727D01*
X9709Y68260D02*
X9976D01*
X10109Y68126D01*
Y67727D01*
X9709D01*
X9576Y67860D01*
X9709Y67993D01*
X10109D01*
X10376Y67727D02*
Y68260D01*
X10509D01*
X10642Y68126D01*
Y67727D01*
Y68126D01*
X10775Y68260D01*
X10909Y68126D01*
Y67727D01*
X11175D02*
X11442D01*
X11309D01*
Y68260D01*
X11175D01*
X12375D02*
X11975D01*
X11842Y68126D01*
Y67860D01*
X11975Y67727D01*
X12375D01*
X12642D02*
Y67860D01*
X12775D01*
Y67727D01*
X12642D01*
X13841Y68260D02*
X13441D01*
X13308Y68126D01*
Y67860D01*
X13441Y67727D01*
X13841D01*
X14241D02*
X14508D01*
X14641Y67860D01*
Y68126D01*
X14508Y68260D01*
X14241D01*
X14108Y68126D01*
Y67860D01*
X14241Y67727D01*
X14907D02*
Y68260D01*
X15041D01*
X15174Y68126D01*
Y67727D01*
Y68126D01*
X15307Y68260D01*
X15441Y68126D01*
Y67727D01*
X28852Y5522D02*
Y4722D01*
X29385D01*
X30185Y5522D02*
X29652D01*
Y4722D01*
X30185D01*
X29652Y5122D02*
X29918D01*
X30451Y5522D02*
Y4722D01*
X30851D01*
X30985Y4855D01*
Y5388D01*
X30851Y5522D01*
X30451D01*
X9906Y30980D02*
X10572D01*
X10239Y31313D02*
Y30647D01*
X10906Y30480D02*
X11239D01*
X11072D01*
Y31480D01*
X10906Y31313D01*
X12405Y30480D02*
X11739D01*
X12405Y31146D01*
Y31313D01*
X12239Y31480D01*
X11905D01*
X11739Y31313D01*
X12738Y31480D02*
Y30813D01*
X13072Y30480D01*
X13405Y30813D01*
Y31480D01*
X10089Y37496D02*
X9922Y37330D01*
Y36997D01*
X10089Y36830D01*
X10755D01*
X10922Y36997D01*
Y37330D01*
X10755Y37496D01*
X10422D01*
Y37163D01*
X10922Y37830D02*
X9922D01*
X10922Y38496D01*
X9922D01*
Y38829D02*
X10922D01*
Y39329D01*
X10755Y39496D01*
X10089D01*
X9922Y39329D01*
Y38829D01*
X9906Y45458D02*
X10572D01*
X10906Y44958D02*
X11239D01*
X11072D01*
Y45958D01*
X10906Y45791D01*
X12405Y44958D02*
X11739D01*
X12405Y45624D01*
Y45791D01*
X12239Y45958D01*
X11905D01*
X11739Y45791D01*
X12738Y45958D02*
Y45291D01*
X13072Y44958D01*
X13405Y45291D01*
Y45958D01*
X157734Y-81042D02*
X158400D01*
X158067D01*
Y-82042D01*
X159234Y-81042D02*
X158900D01*
X158734Y-81209D01*
Y-81875D01*
X158900Y-82042D01*
X159234D01*
X159400Y-81875D01*
Y-81209D01*
X159234Y-81042D01*
X159733Y-82042D02*
Y-81042D01*
X160233D01*
X160400Y-81209D01*
Y-81542D01*
X160233Y-81709D01*
X159733D01*
X162233Y-81042D02*
X161899D01*
X161733Y-81209D01*
Y-81875D01*
X161899Y-82042D01*
X162233D01*
X162399Y-81875D01*
Y-81209D01*
X162233Y-81042D01*
X162732D02*
Y-81709D01*
X163066Y-82042D01*
X163399Y-81709D01*
Y-81042D01*
X164399D02*
X163732D01*
Y-82042D01*
X164399D01*
X163732Y-81542D02*
X164065D01*
X164732Y-82042D02*
Y-81042D01*
X165232D01*
X165398Y-81209D01*
Y-81542D01*
X165232Y-81709D01*
X164732D01*
X165065D02*
X165398Y-82042D01*
X165731Y-81042D02*
Y-82042D01*
X166398D01*
X166731D02*
Y-81376D01*
X167064Y-81042D01*
X167398Y-81376D01*
Y-82042D01*
Y-81542D01*
X166731D01*
X167731Y-81042D02*
Y-81209D01*
X168064Y-81542D01*
X168397Y-81209D01*
Y-81042D01*
X168064Y-81542D02*
Y-82042D01*
X29718Y6342D02*
X30384D01*
X30226Y12184D02*
X30892D01*
X30559Y12517D02*
Y11851D01*
X76866Y13787D02*
X76700Y13954D01*
X76367D01*
X76200Y13787D01*
Y13121D01*
X76367Y12954D01*
X76700D01*
X76866Y13121D01*
X77200Y13954D02*
X77866D01*
Y13787D01*
X77200Y13121D01*
Y12954D01*
X65571Y28676D02*
X65405Y28842D01*
X65071D01*
X64905Y28676D01*
Y28009D01*
X65071Y27842D01*
X65405D01*
X65571Y28009D01*
X66571Y28842D02*
X66238Y28676D01*
X65905Y28342D01*
Y28009D01*
X66071Y27842D01*
X66404D01*
X66571Y28009D01*
Y28176D01*
X66404Y28342D01*
X65905D01*
X80676Y40203D02*
X80510Y40370D01*
X80177D01*
X80010Y40203D01*
Y39537D01*
X80177Y39370D01*
X80510D01*
X80676Y39537D01*
X81676Y40370D02*
X81010D01*
Y39870D01*
X81343Y40036D01*
X81510D01*
X81676Y39870D01*
Y39537D01*
X81510Y39370D01*
X81176D01*
X81010Y39537D01*
X44338Y50617D02*
X44172Y50784D01*
X43839D01*
X43672Y50617D01*
Y49951D01*
X43839Y49784D01*
X44172D01*
X44338Y49951D01*
X45172Y49784D02*
Y50784D01*
X44672Y50284D01*
X45338D01*
X45671Y50784D02*
Y49784D01*
X46171D01*
X46338Y49951D01*
Y50117D01*
Y50284D01*
X46171Y50450D01*
X45671D01*
X32162Y40711D02*
X31996Y40878D01*
X31663D01*
X31496Y40711D01*
Y40045D01*
X31663Y39878D01*
X31996D01*
X32162Y40045D01*
X32996Y39878D02*
Y40878D01*
X32496Y40378D01*
X33162D01*
X33662Y40544D02*
X33995D01*
X34162Y40378D01*
Y39878D01*
X33662D01*
X33495Y40045D01*
X33662Y40211D01*
X34162D01*
X66706Y16073D02*
X66540Y16240D01*
X66207D01*
X66040Y16073D01*
Y15407D01*
X66207Y15240D01*
X66540D01*
X66706Y15407D01*
X67040Y16073D02*
X67206Y16240D01*
X67540D01*
X67706Y16073D01*
Y15906D01*
X67540Y15740D01*
X67373D01*
X67540D01*
X67706Y15573D01*
Y15407D01*
X67540Y15240D01*
X67206D01*
X67040Y15407D01*
X17176Y47315D02*
X17010Y47482D01*
X16677D01*
X16510Y47315D01*
Y46649D01*
X16677Y46482D01*
X17010D01*
X17176Y46649D01*
X18176Y46482D02*
X17510D01*
X18176Y47148D01*
Y47315D01*
X18010Y47482D01*
X17676D01*
X17510Y47315D01*
X17160Y29027D02*
X16994Y29194D01*
X16661D01*
X16494Y29027D01*
Y28361D01*
X16661Y28194D01*
X16994D01*
X17160Y28361D01*
X17494Y28194D02*
X17827D01*
X17660D01*
Y29194D01*
X17494Y29027D01*
X2794Y52550D02*
Y53550D01*
X3294D01*
X3460Y53383D01*
Y53050D01*
X3294Y52883D01*
X2794D01*
X4294Y53550D02*
X3960D01*
X3794Y53383D01*
Y52717D01*
X3960Y52550D01*
X4294D01*
X4460Y52717D01*
Y53383D01*
X4294Y53550D01*
X4793D02*
Y52550D01*
X5127Y52883D01*
X5460Y52550D01*
Y53550D01*
X6459D02*
X5793D01*
Y52550D01*
X6459D01*
X5793Y53050D02*
X6126D01*
X6793Y52550D02*
Y53550D01*
X7293D01*
X7459Y53383D01*
Y53050D01*
X7293Y52883D01*
X6793D01*
X7126D02*
X7459Y52550D01*
X84994Y22011D02*
Y22677D01*
X84828Y22844D01*
X84495D01*
X84328Y22677D01*
Y22011D01*
X84495Y21844D01*
X84828D01*
X84661Y22177D02*
X84994Y21844D01*
X84828D02*
X84994Y22011D01*
X85328Y21844D02*
X85661D01*
X85494D01*
Y22844D01*
X85328Y22677D01*
X91852Y22011D02*
Y22677D01*
X91686Y22844D01*
X91353D01*
X91186Y22677D01*
Y22011D01*
X91353Y21844D01*
X91686D01*
X91519Y22177D02*
X91852Y21844D01*
X91686D02*
X91852Y22011D01*
X92852Y21844D02*
X92186D01*
X92852Y22510D01*
Y22677D01*
X92686Y22844D01*
X92352D01*
X92186Y22677D01*
X80422Y20487D02*
Y21153D01*
X80256Y21320D01*
X79923D01*
X79756Y21153D01*
Y20487D01*
X79923Y20320D01*
X80256D01*
X80089Y20653D02*
X80422Y20320D01*
X80256D02*
X80422Y20487D01*
X80756Y21153D02*
X80922Y21320D01*
X81256D01*
X81422Y21153D01*
Y20986D01*
X81256Y20820D01*
X81089D01*
X81256D01*
X81422Y20653D01*
Y20487D01*
X81256Y20320D01*
X80922D01*
X80756Y20487D01*
X82200Y48935D02*
Y49601D01*
X82034Y49768D01*
X81701D01*
X81534Y49601D01*
Y48935D01*
X81701Y48768D01*
X82034D01*
X81867Y49101D02*
X82200Y48768D01*
X82034D02*
X82200Y48935D01*
X83034Y48768D02*
Y49768D01*
X82534Y49268D01*
X83200D01*
X23876Y35814D02*
Y36814D01*
X24376D01*
X24542Y36647D01*
Y36314D01*
X24376Y36147D01*
X23876D01*
X24209D02*
X24542Y35814D01*
X24876D02*
X25209D01*
X25042D01*
Y36814D01*
X24876Y36647D01*
X23876Y38862D02*
Y39862D01*
X24376D01*
X24542Y39695D01*
Y39362D01*
X24376Y39195D01*
X23876D01*
X24209D02*
X24542Y38862D01*
X25542D02*
X24876D01*
X25542Y39528D01*
Y39695D01*
X25376Y39862D01*
X25042D01*
X24876Y39695D01*
X90932Y47498D02*
X89932D01*
Y47998D01*
X90099Y48164D01*
X90432D01*
X90599Y47998D01*
Y47498D01*
Y47831D02*
X90932Y48164D01*
X90099Y48498D02*
X89932Y48664D01*
Y48998D01*
X90099Y49164D01*
X90266D01*
X90432Y48998D01*
Y48831D01*
Y48998D01*
X90599Y49164D01*
X90765D01*
X90932Y48998D01*
Y48664D01*
X90765Y48498D01*
X98044Y47498D02*
X97044D01*
Y47998D01*
X97211Y48164D01*
X97544D01*
X97711Y47998D01*
Y47498D01*
Y47831D02*
X98044Y48164D01*
Y48998D02*
X97044D01*
X97544Y48498D01*
Y49164D01*
X88900Y27432D02*
Y28432D01*
X89400D01*
X89566Y28265D01*
Y27932D01*
X89400Y27765D01*
X88900D01*
X89233D02*
X89566Y27432D01*
X90566Y28432D02*
X89900D01*
Y27932D01*
X90233Y28098D01*
X90400D01*
X90566Y27932D01*
Y27599D01*
X90400Y27432D01*
X90066D01*
X89900Y27599D01*
X85852Y27432D02*
Y28432D01*
X86352D01*
X86518Y28265D01*
Y27932D01*
X86352Y27765D01*
X85852D01*
X86185D02*
X86518Y27432D01*
X87518Y28432D02*
X87185Y28265D01*
X86852Y27932D01*
Y27599D01*
X87018Y27432D01*
X87352D01*
X87518Y27599D01*
Y27765D01*
X87352Y27932D01*
X86852D01*
X94488Y27432D02*
Y28432D01*
X94988D01*
X95154Y28265D01*
Y27932D01*
X94988Y27765D01*
X94488D01*
X94821D02*
X95154Y27432D01*
X95488Y28432D02*
X96154D01*
Y28265D01*
X95488Y27599D01*
Y27432D01*
X91694D02*
Y28432D01*
X92194D01*
X92360Y28265D01*
Y27932D01*
X92194Y27765D01*
X91694D01*
X92027D02*
X92360Y27432D01*
X92694Y28265D02*
X92860Y28432D01*
X93194D01*
X93360Y28265D01*
Y28098D01*
X93194Y27932D01*
X93360Y27765D01*
Y27599D01*
X93194Y27432D01*
X92860D01*
X92694Y27599D01*
Y27765D01*
X92860Y27932D01*
X92694Y28098D01*
Y28265D01*
X92860Y27932D02*
X93194D01*
X79248Y14478D02*
Y15478D01*
X79748D01*
X79914Y15311D01*
Y14978D01*
X79748Y14811D01*
X79248D01*
X79581D02*
X79914Y14478D01*
X80248Y14645D02*
X80414Y14478D01*
X80748D01*
X80914Y14645D01*
Y15311D01*
X80748Y15478D01*
X80414D01*
X80248Y15311D01*
Y15144D01*
X80414Y14978D01*
X80914D01*
X71374Y14986D02*
Y15986D01*
X71874D01*
X72040Y15819D01*
Y15486D01*
X71874Y15319D01*
X71374D01*
X71707D02*
X72040Y14986D01*
X72374D02*
X72707D01*
X72540D01*
Y15986D01*
X72374Y15819D01*
X73207D02*
X73373Y15986D01*
X73707D01*
X73873Y15819D01*
Y15153D01*
X73707Y14986D01*
X73373D01*
X73207Y15153D01*
Y15819D01*
X68580Y14986D02*
Y15986D01*
X69080D01*
X69246Y15819D01*
Y15486D01*
X69080Y15319D01*
X68580D01*
X68913D02*
X69246Y14986D01*
X69580D02*
X69913D01*
X69746D01*
Y15986D01*
X69580Y15819D01*
X70413Y14986D02*
X70746D01*
X70579D01*
Y15986D01*
X70413Y15819D01*
X76962Y52578D02*
Y53578D01*
X77462D01*
X77628Y53411D01*
Y53078D01*
X77462Y52911D01*
X76962D01*
X77295D02*
X77628Y52578D01*
X77962D02*
X78295D01*
X78128D01*
Y53578D01*
X77962Y53411D01*
X79461Y52578D02*
X78795D01*
X79461Y53244D01*
Y53411D01*
X79295Y53578D01*
X78961D01*
X78795Y53411D01*
X43180Y13970D02*
X44180D01*
Y13470D01*
X44013Y13304D01*
X43680D01*
X43513Y13470D01*
Y13970D01*
Y13637D02*
X43180Y13304D01*
Y12970D02*
Y12637D01*
Y12804D01*
X44180D01*
X44013Y12970D01*
Y12137D02*
X44180Y11971D01*
Y11637D01*
X44013Y11471D01*
X43846D01*
X43680Y11637D01*
Y11804D01*
Y11637D01*
X43513Y11471D01*
X43347D01*
X43180Y11637D01*
Y11971D01*
X43347Y12137D01*
X35052Y40132D02*
Y41132D01*
X35552D01*
X35718Y40965D01*
Y40632D01*
X35552Y40465D01*
X35052D01*
X35385D02*
X35718Y40132D01*
X36052D02*
X36385D01*
X36218D01*
Y41132D01*
X36052Y40965D01*
X37385Y40132D02*
Y41132D01*
X36885Y40632D01*
X37551D01*
X38100Y54610D02*
Y55610D01*
X38600D01*
X38766Y55443D01*
Y55110D01*
X38600Y54943D01*
X38100D01*
X38433D02*
X38766Y54610D01*
X39100D02*
X39433D01*
X39266D01*
Y55610D01*
X39100Y55443D01*
X40599Y55610D02*
X39933D01*
Y55110D01*
X40266Y55276D01*
X40433D01*
X40599Y55110D01*
Y54777D01*
X40433Y54610D01*
X40099D01*
X39933Y54777D01*
X31496Y14224D02*
X32496D01*
Y13724D01*
X32329Y13558D01*
X31996D01*
X31829Y13724D01*
Y14224D01*
Y13891D02*
X31496Y13558D01*
Y13224D02*
Y12891D01*
Y13058D01*
X32496D01*
X32329Y13224D01*
X32496Y11725D02*
X32329Y12058D01*
X31996Y12391D01*
X31663D01*
X31496Y12225D01*
Y11891D01*
X31663Y11725D01*
X31829D01*
X31996Y11891D01*
Y12391D01*
X67056Y46990D02*
X68056D01*
Y46490D01*
X67889Y46324D01*
X67556D01*
X67389Y46490D01*
Y46990D01*
Y46657D02*
X67056Y46324D01*
Y45990D02*
Y45657D01*
Y45824D01*
X68056D01*
X67889Y45990D01*
X68056Y45157D02*
Y44491D01*
X67889D01*
X67223Y45157D01*
X67056D01*
X34544Y13970D02*
X35544D01*
Y13470D01*
X35377Y13304D01*
X35044D01*
X34877Y13470D01*
Y13970D01*
Y13637D02*
X34544Y13304D01*
Y12970D02*
Y12637D01*
Y12804D01*
X35544D01*
X35377Y12970D01*
Y12137D02*
X35544Y11971D01*
Y11637D01*
X35377Y11471D01*
X35210D01*
X35044Y11637D01*
X34877Y11471D01*
X34711D01*
X34544Y11637D01*
Y11971D01*
X34711Y12137D01*
X34877D01*
X35044Y11971D01*
X35210Y12137D01*
X35377D01*
X35044Y11971D02*
Y11637D01*
X37211Y14478D02*
X38211D01*
Y13978D01*
X38044Y13812D01*
X37711D01*
X37544Y13978D01*
Y14478D01*
Y14145D02*
X37211Y13812D01*
Y13478D02*
Y13145D01*
Y13312D01*
X38211D01*
X38044Y13478D01*
X37378Y12645D02*
X37211Y12479D01*
Y12145D01*
X37378Y11979D01*
X38044D01*
X38211Y12145D01*
Y12479D01*
X38044Y12645D01*
X37877D01*
X37711Y12479D01*
Y11979D01*
X48514Y52070D02*
Y53070D01*
X49014D01*
X49180Y52903D01*
Y52570D01*
X49014Y52403D01*
X48514D01*
X48847D02*
X49180Y52070D01*
X50180D02*
X49514D01*
X50180Y52736D01*
Y52903D01*
X50014Y53070D01*
X49680D01*
X49514Y52903D01*
X50513D02*
X50680Y53070D01*
X51013D01*
X51180Y52903D01*
Y52237D01*
X51013Y52070D01*
X50680D01*
X50513Y52237D01*
Y52903D01*
X40386Y13970D02*
X41386D01*
Y13470D01*
X41219Y13304D01*
X40886D01*
X40719Y13470D01*
Y13970D01*
Y13637D02*
X40386Y13304D01*
Y12304D02*
Y12970D01*
X41052Y12304D01*
X41219D01*
X41386Y12470D01*
Y12804D01*
X41219Y12970D01*
X40386Y11971D02*
Y11637D01*
Y11804D01*
X41386D01*
X41219Y11971D01*
X53848Y45466D02*
Y46466D01*
X54348D01*
X54514Y46299D01*
Y45966D01*
X54348Y45799D01*
X53848D01*
X54181D02*
X54514Y45466D01*
X55514D02*
X54848D01*
X55514Y46132D01*
Y46299D01*
X55348Y46466D01*
X55014D01*
X54848Y46299D01*
X56514Y45466D02*
X55847D01*
X56514Y46132D01*
Y46299D01*
X56347Y46466D01*
X56014D01*
X55847Y46299D01*
X72898Y46990D02*
X73898D01*
Y46490D01*
X73731Y46324D01*
X73398D01*
X73231Y46490D01*
Y46990D01*
Y46657D02*
X72898Y46324D01*
Y45324D02*
Y45990D01*
X73564Y45324D01*
X73731D01*
X73898Y45491D01*
Y45824D01*
X73731Y45990D01*
Y44991D02*
X73898Y44824D01*
Y44491D01*
X73731Y44324D01*
X73564D01*
X73398Y44491D01*
Y44657D01*
Y44491D01*
X73231Y44324D01*
X73065D01*
X72898Y44491D01*
Y44824D01*
X73065Y44991D01*
X67310Y34782D02*
Y33949D01*
X67477Y33782D01*
X67810D01*
X67976Y33949D01*
Y34782D01*
X68310Y33782D02*
X68643D01*
X68476D01*
Y34782D01*
X68310Y34615D01*
X33274Y33893D02*
Y33060D01*
X33441Y32893D01*
X33774D01*
X33940Y33060D01*
Y33893D01*
X34940Y32893D02*
X34274D01*
X34940Y33559D01*
Y33726D01*
X34774Y33893D01*
X34440D01*
X34274Y33726D01*
X83058Y42148D02*
Y41148D01*
X83558D01*
X83724Y41315D01*
Y41981D01*
X83558Y42148D01*
X83058D01*
X84058Y41148D02*
X84391D01*
X84224D01*
Y42148D01*
X84058Y41981D01*
X62992Y15478D02*
Y14478D01*
X63492D01*
X63658Y14645D01*
Y15311D01*
X63492Y15478D01*
X62992D01*
X64658Y14478D02*
X63992D01*
X64658Y15144D01*
Y15311D01*
X64492Y15478D01*
X64158D01*
X63992Y15311D01*
X29956Y13970D02*
X28956D01*
Y13470D01*
X29123Y13304D01*
X29789D01*
X29956Y13470D01*
Y13970D01*
X29789Y12970D02*
X29956Y12804D01*
Y12470D01*
X29789Y12304D01*
X29622D01*
X29456Y12470D01*
Y12637D01*
Y12470D01*
X29289Y12304D01*
X29123D01*
X28956Y12470D01*
Y12804D01*
X29123Y12970D01*
X46720Y14478D02*
X45720D01*
Y13978D01*
X45887Y13812D01*
X46553D01*
X46720Y13978D01*
Y14478D01*
X45720Y12979D02*
X46720D01*
X46220Y13478D01*
Y12812D01*
X49514Y14478D02*
X48514D01*
Y13978D01*
X48681Y13812D01*
X49347D01*
X49514Y13978D01*
Y14478D01*
Y12812D02*
Y13478D01*
X49014D01*
X49180Y13145D01*
Y12979D01*
X49014Y12812D01*
X48681D01*
X48514Y12979D01*
Y13312D01*
X48681Y13478D01*
M02*
