G04*
G04 #@! TF.GenerationSoftware,Altium Limited,Altium Designer,20.0.2 (26)*
G04*
G04 Layer_Color=32768*
%FSLAX43Y43*%
%MOMM*%
G71*
G01*
G75*
%ADD11C,0.254*%
%ADD45C,0.050*%
%ADD46C,0.152*%
D11*
X0Y-7112D02*
X1524Y-6604D01*
X0Y-7112D02*
X1524Y-7620D01*
X116840D02*
X118364Y-7112D01*
X116840Y-6604D02*
X118364Y-7112D01*
X0D02*
X52910D01*
X64641D02*
X118364D01*
X0Y-7366D02*
Y-260D01*
X118364Y-7366D02*
Y-260D01*
X123444Y72390D02*
X123952Y70866D01*
X122936D02*
X123444Y72390D01*
X122936Y1524D02*
X123444Y0D01*
X123952Y1524D01*
X123444Y41146D02*
Y72390D01*
Y0D02*
Y30431D01*
X118624Y72390D02*
X123698D01*
X118624Y0D02*
X123698D01*
D45*
X101886Y20874D02*
G03*
X100566Y19554I0J-1320D01*
G01*
X116914D02*
G03*
X115594Y20874I-1320J0D01*
G01*
Y4526D02*
G03*
X116914Y5846I0J1320D01*
G01*
X104049Y4954D02*
G03*
X104945Y4526I963J867D01*
G01*
X100566Y8905D02*
G03*
X100994Y8009I1295J68D01*
G01*
X100566Y34305D02*
G03*
X100994Y33409I1295J68D01*
G01*
X104049Y30354D02*
G03*
X104945Y29926I963J867D01*
G01*
X115594Y29926D02*
G03*
X116914Y31246I0J1320D01*
G01*
Y44954D02*
G03*
X115594Y46274I-1320J0D01*
G01*
X101886D02*
G03*
X100566Y44954I0J-1320D01*
G01*
X104945Y71674D02*
G03*
X104049Y71246I68J-1295D01*
G01*
X100994Y68191D02*
G03*
X100566Y67295I867J-963D01*
G01*
X100566Y56646D02*
G03*
X101886Y55326I1320J0D01*
G01*
X115594D02*
G03*
X116914Y56646I0J1320D01*
G01*
Y70354D02*
G03*
X115594Y71674I-1320J0D01*
G01*
X101886Y20874D02*
X115594D01*
X116914Y5846D02*
Y19554D01*
X104952Y4526D02*
X115594D01*
X100988Y8014D02*
X104054Y4948D01*
X100566Y8912D02*
Y19554D01*
X100566Y34312D02*
Y44954D01*
X100988Y33414D02*
X104054Y30348D01*
X104952Y29926D02*
X115594D01*
X116914Y31246D02*
Y44954D01*
X101886Y46274D02*
X115594D01*
X104952Y71674D02*
X115594D01*
X100988Y68186D02*
X104054Y71252D01*
X100566Y56646D02*
Y67288D01*
X101886Y55326D02*
X115594D01*
X116914Y56646D02*
Y70354D01*
D46*
X53316Y-8026D02*
X53824D01*
X53570D01*
Y-6503D01*
X53316Y-6757D01*
X54586Y-8026D02*
X55094D01*
X54840D01*
Y-6503D01*
X54586Y-6757D01*
X55856D02*
X56109Y-6503D01*
X56617D01*
X56871Y-6757D01*
Y-7010D01*
X56617Y-7264D01*
X56871Y-7518D01*
Y-7772D01*
X56617Y-8026D01*
X56109D01*
X55856Y-7772D01*
Y-7518D01*
X56109Y-7264D01*
X55856Y-7010D01*
Y-6757D01*
X56109Y-7264D02*
X56617D01*
X57379Y-8026D02*
Y-7772D01*
X57633D01*
Y-8026D01*
X57379D01*
X58649Y-6757D02*
X58903Y-6503D01*
X59410D01*
X59664Y-6757D01*
Y-7010D01*
X59410Y-7264D01*
X59156D01*
X59410D01*
X59664Y-7518D01*
Y-7772D01*
X59410Y-8026D01*
X58903D01*
X58649Y-7772D01*
X61188Y-6503D02*
X60680Y-6757D01*
X60172Y-7264D01*
Y-7772D01*
X60426Y-8026D01*
X60934D01*
X61188Y-7772D01*
Y-7518D01*
X60934Y-7264D01*
X60172D01*
X61696Y-8026D02*
Y-7010D01*
X61950D01*
X62203Y-7264D01*
Y-8026D01*
Y-7264D01*
X62457Y-7010D01*
X62711Y-7264D01*
Y-8026D01*
X63219D02*
Y-7010D01*
X63473D01*
X63727Y-7264D01*
Y-8026D01*
Y-7264D01*
X63981Y-7010D01*
X64235Y-7264D01*
Y-8026D01*
X122835Y30837D02*
Y31853D01*
X123089D01*
X124104Y30837D01*
X124358D01*
Y33376D02*
Y32361D01*
X123342Y33376D01*
X123089D01*
X122835Y33122D01*
Y32615D01*
X123089Y32361D01*
X124358Y33884D02*
X124104D01*
Y34138D01*
X124358D01*
Y33884D01*
X123089Y35154D02*
X122835Y35408D01*
Y35916D01*
X123089Y36169D01*
X123342D01*
X123596Y35916D01*
Y35662D01*
Y35916D01*
X123850Y36169D01*
X124104D01*
X124358Y35916D01*
Y35408D01*
X124104Y35154D01*
Y36677D02*
X124358Y36931D01*
Y37439D01*
X124104Y37693D01*
X123089D01*
X122835Y37439D01*
Y36931D01*
X123089Y36677D01*
X123342D01*
X123596Y36931D01*
Y37693D01*
X124358Y38201D02*
X123342D01*
Y38455D01*
X123596Y38709D01*
X124358D01*
X123596D01*
X123342Y38963D01*
X123596Y39216D01*
X124358D01*
Y39724D02*
X123342D01*
Y39978D01*
X123596Y40232D01*
X124358D01*
X123596D01*
X123342Y40486D01*
X123596Y40740D01*
X124358D01*
M02*
