G04*
G04 #@! TF.GenerationSoftware,Altium Limited,Altium Designer,20.0.2 (26)*
G04*
G04 Layer_Color=65535*
%FSLAX43Y43*%
%MOMM*%
G71*
G01*
G75*
%ADD14C,0.150*%
D14*
X158400Y-81042D02*
X157734D01*
Y-81542D01*
X158067D01*
X157734D01*
Y-82042D01*
X158734D02*
Y-81376D01*
X159067Y-81042D01*
X159400Y-81376D01*
Y-82042D01*
Y-81542D01*
X158734D01*
X159733Y-81042D02*
Y-82042D01*
X160233D01*
X160400Y-81875D01*
Y-81709D01*
X160233Y-81542D01*
X159733D01*
X160233D01*
X160400Y-81376D01*
Y-81209D01*
X160233Y-81042D01*
X159733D01*
X161733D02*
Y-82042D01*
X162399D01*
X162732D02*
Y-81376D01*
X163066Y-81042D01*
X163399Y-81376D01*
Y-82042D01*
Y-81542D01*
X162732D01*
X163732Y-81042D02*
Y-81209D01*
X164065Y-81542D01*
X164399Y-81209D01*
Y-81042D01*
X164065Y-81542D02*
Y-82042D01*
X165398Y-81042D02*
X164732D01*
Y-82042D01*
X165398D01*
X164732Y-81542D02*
X165065D01*
X165731Y-82042D02*
Y-81042D01*
X166231D01*
X166398Y-81209D01*
Y-81542D01*
X166231Y-81709D01*
X165731D01*
X166065D02*
X166398Y-82042D01*
M02*
