G04*
G04 #@! TF.GenerationSoftware,Altium Limited,Altium Designer,20.0.2 (26)*
G04*
G04 Layer_Color=128*
%FSLAX43Y43*%
%MOMM*%
G71*
G01*
G75*
%ADD47C,0.051*%
D47*
X101311Y15138D02*
X103470D01*
X102390Y14059D02*
Y16218D01*
X102992Y8032D02*
X105151D01*
X104072Y6952D02*
Y9111D01*
X110099Y6350D02*
X112258D01*
X111178Y5271D02*
Y7430D01*
X114011Y12141D02*
X116170D01*
X115090Y11062D02*
Y13221D01*
X107102Y19050D02*
X109261D01*
X108181Y17971D02*
Y20130D01*
X105565Y12700D02*
X111915D01*
X108740Y9525D02*
Y15875D01*
X105565Y38100D02*
X111915D01*
X108740Y34925D02*
Y41275D01*
X107102Y44450D02*
X109261D01*
X108181Y43371D02*
Y45530D01*
X114011Y37541D02*
X116170D01*
X115090Y36462D02*
Y38621D01*
X110099Y31750D02*
X112258D01*
X111178Y30671D02*
Y32830D01*
X102992Y33432D02*
X105151D01*
X104072Y32352D02*
Y34511D01*
X101311Y40538D02*
X103470D01*
X102390Y39459D02*
Y41618D01*
X105565Y63500D02*
X111915D01*
X108740Y60325D02*
Y66675D01*
X114011Y64059D02*
X116170D01*
X115090Y62979D02*
Y65138D01*
X107102Y57150D02*
X109261D01*
X108181Y56070D02*
Y58229D01*
X101311Y61062D02*
X103470D01*
X102390Y59982D02*
Y62141D01*
X102992Y68168D02*
X105151D01*
X104072Y67089D02*
Y69248D01*
X110099Y69850D02*
X112258D01*
X111178Y68770D02*
Y70929D01*
X83220Y29718D02*
X84420D01*
X83820Y29118D02*
Y30318D01*
X83220Y39878D02*
X84420D01*
X83820Y39278D02*
Y40478D01*
X80172Y30480D02*
X81372D01*
X80772Y29880D02*
Y31080D01*
X80172Y38100D02*
X81372D01*
X80772Y37500D02*
Y38700D01*
X66202Y25400D02*
X67402D01*
X66802Y24800D02*
Y26000D01*
X66202Y17780D02*
X67402D01*
X66802Y17180D02*
Y18380D01*
X29700Y10550D02*
X30900D01*
X30300Y9950D02*
Y11150D01*
X29626Y7874D02*
X30826D01*
X30226Y7274D02*
Y8474D01*
X93980Y69342D02*
X95504D01*
X94742Y68580D02*
Y70104D01*
X88900Y69342D02*
X90424D01*
X89662Y68580D02*
Y70104D01*
X73269Y69342D02*
X74793D01*
X74031Y68580D02*
Y70104D01*
X78349Y69342D02*
X79873D01*
X79111Y68580D02*
Y70104D01*
X83429Y69342D02*
X84953D01*
X84191Y68580D02*
Y70104D01*
X62686Y69342D02*
X64210D01*
X63448Y68580D02*
Y70104D01*
X67766Y69342D02*
X69290D01*
X68528Y68580D02*
Y70104D01*
X57150Y69342D02*
X58674D01*
X57912Y68580D02*
Y70104D01*
X52070Y69342D02*
X53594D01*
X52832Y68580D02*
Y70104D01*
X46990Y69342D02*
X48514D01*
X47752Y68580D02*
Y70104D01*
X83618Y4572D02*
X85142D01*
X84380Y3810D02*
Y5334D01*
X78538Y4572D02*
X80062D01*
X79300Y3810D02*
Y5334D01*
X51614Y4572D02*
X53138D01*
X52376Y3810D02*
Y5334D01*
X46534Y4572D02*
X48058D01*
X47296Y3810D02*
Y5334D01*
X62282Y4572D02*
X63806D01*
X63044Y3810D02*
Y5334D01*
X57202Y4572D02*
X58726D01*
X57964Y3810D02*
Y5334D01*
X67870Y4572D02*
X69394D01*
X68632Y3810D02*
Y5334D01*
X72950Y4572D02*
X74474D01*
X73712Y3810D02*
Y5334D01*
X51724Y37338D02*
X52924D01*
X52324Y36738D02*
Y37938D01*
X49184Y37338D02*
X50384D01*
X49784Y36738D02*
Y37938D01*
X36484Y37338D02*
X37684D01*
X37084Y36738D02*
Y37938D01*
X39024Y37338D02*
X40224D01*
X39624Y36738D02*
Y37938D01*
X41564Y37338D02*
X42764D01*
X42164Y36738D02*
Y37938D01*
X44104Y37338D02*
X45304D01*
X44704Y36738D02*
Y37938D01*
X46644Y37338D02*
X47844D01*
X47244Y36738D02*
Y37938D01*
X36484Y29718D02*
X37684D01*
X37084Y29118D02*
Y30318D01*
X39024Y29718D02*
X40224D01*
X39624Y29118D02*
Y30318D01*
X41564Y29718D02*
X42764D01*
X42164Y29118D02*
Y30318D01*
X44104Y29718D02*
X45304D01*
X44704Y29118D02*
Y30318D01*
X46644Y29718D02*
X47844D01*
X47244Y29118D02*
Y30318D01*
X49184Y29718D02*
X50384D01*
X49784Y29118D02*
Y30318D01*
X51724Y29718D02*
X52924D01*
X52324Y29118D02*
Y30318D01*
X69504Y30353D02*
X70704D01*
X70104Y29753D02*
Y30953D01*
X72044Y30353D02*
X73244D01*
X72644Y29753D02*
Y30953D01*
X74584Y30353D02*
X75784D01*
X75184Y29753D02*
Y30953D01*
X77124Y30353D02*
X78324D01*
X77724Y29753D02*
Y30953D01*
X77124Y37973D02*
X78324D01*
X77724Y37373D02*
Y38573D01*
X74584Y37973D02*
X75784D01*
X75184Y37373D02*
Y38573D01*
X72044Y37973D02*
X73244D01*
X72644Y37373D02*
Y38573D01*
X69504Y37973D02*
X70704D01*
X70104Y37373D02*
Y38573D01*
X11592Y36322D02*
X12792D01*
X12192Y35722D02*
Y36922D01*
X21752Y36322D02*
X22952D01*
X22352Y35722D02*
Y36922D01*
X86217Y24641D02*
X86852D01*
X86535Y24323D02*
Y24958D01*
X84566Y24641D02*
X85201D01*
X84884Y24323D02*
Y24958D01*
X82915Y24641D02*
X83550D01*
X83233Y24323D02*
Y24958D01*
X5924Y29210D02*
X7124D01*
X6524Y28610D02*
Y29810D01*
X3384Y29210D02*
X4584D01*
X3984Y28610D02*
Y29810D01*
X5924Y31750D02*
X7124D01*
X6524Y31150D02*
Y32350D01*
X3384Y31750D02*
X4584D01*
X3984Y31150D02*
Y32350D01*
X5924Y34290D02*
X7124D01*
X6524Y33690D02*
Y34890D01*
X3384Y34290D02*
X4584D01*
X3984Y33690D02*
Y34890D01*
X5924Y36830D02*
X7124D01*
X6524Y36230D02*
Y37430D01*
X3384Y36830D02*
X4584D01*
X3984Y36230D02*
Y37430D01*
X5924Y39370D02*
X7124D01*
X6524Y38770D02*
Y39970D01*
X3384Y39370D02*
X4584D01*
X3984Y38770D02*
Y39970D01*
X5924Y41910D02*
X7124D01*
X6524Y41310D02*
Y42510D01*
X3384Y41910D02*
X4584D01*
X3984Y41310D02*
Y42510D01*
X5924Y44450D02*
X7124D01*
X6524Y43850D02*
Y45050D01*
X3384Y44450D02*
X4584D01*
X3984Y43850D02*
Y45050D01*
X5924Y46990D02*
X7124D01*
X6524Y46390D02*
Y47590D01*
X3384Y46990D02*
X4584D01*
X3984Y46390D02*
Y47590D01*
X43204Y53848D02*
X44204D01*
X43704Y53348D02*
Y54348D01*
X45204Y53848D02*
X46204D01*
X45704Y53348D02*
Y54348D01*
X66456Y13462D02*
X67656D01*
X67056Y12862D02*
Y14062D01*
X74076Y13462D02*
X75276D01*
X74676Y12862D02*
Y14062D01*
X48422Y26162D02*
X49622D01*
X49022Y25562D02*
Y26762D01*
X48422Y16002D02*
X49622D01*
X49022Y15402D02*
Y16602D01*
X71790Y27432D02*
X72990D01*
X72390Y26832D02*
Y28032D01*
X71790Y17272D02*
X72990D01*
X72390Y16672D02*
Y17872D01*
X68996Y17272D02*
X70196D01*
X69596Y16672D02*
Y17872D01*
X68996Y27432D02*
X70196D01*
X69596Y26832D02*
Y28032D01*
X69123Y40711D02*
X70323D01*
X69723Y40111D02*
Y41311D01*
X69123Y50871D02*
X70323D01*
X69723Y50271D02*
Y51471D01*
X74993Y20320D02*
X75629D01*
X75311Y20003D02*
Y20638D01*
X76645Y20320D02*
X77280D01*
X76962Y20003D02*
Y20638D01*
X78296Y20320D02*
X78930D01*
X78613Y20003D02*
Y20638D01*
X86014Y29718D02*
X87214D01*
X86614Y29118D02*
Y30318D01*
X86014Y39878D02*
X87214D01*
X86614Y39278D02*
Y40478D01*
X89062Y29718D02*
X90262D01*
X89662Y29118D02*
Y30318D01*
X89062Y39878D02*
X90262D01*
X89662Y39278D02*
Y40478D01*
X94846Y53731D02*
X96046D01*
X95446Y53131D02*
Y54331D01*
X94846Y43571D02*
X96046D01*
X95446Y42971D02*
Y44171D01*
X91856Y53594D02*
X93056D01*
X92456Y52994D02*
Y54194D01*
X91856Y43434D02*
X93056D01*
X92456Y42834D02*
Y44034D01*
X35722Y42672D02*
X36922D01*
X36322Y42072D02*
Y43272D01*
X35722Y52832D02*
X36922D01*
X36322Y52232D02*
Y53432D01*
X75057Y51054D02*
X75819D01*
X75438Y50673D02*
Y51435D01*
X74838Y40894D02*
X76038D01*
X75438Y40294D02*
Y41494D01*
X77632Y40894D02*
X78832D01*
X78232Y40294D02*
Y41494D01*
X77632Y51054D02*
X78832D01*
X78232Y50454D02*
Y51654D01*
X81725Y47625D02*
X82359D01*
X82042Y47307D02*
Y47943D01*
X81725Y45974D02*
X82359D01*
X82042Y45657D02*
Y46292D01*
X81725Y44323D02*
X82359D01*
X82042Y44006D02*
Y44640D01*
X64932Y30226D02*
X66132D01*
X65532Y29626D02*
Y30826D01*
X64932Y37846D02*
X66132D01*
X65532Y37246D02*
Y38446D01*
X37246Y15748D02*
X38446D01*
X37846Y15148D02*
Y16348D01*
X37246Y25908D02*
X38446D01*
X37846Y25308D02*
Y26508D01*
X63154Y27178D02*
X64354D01*
X63754Y26578D02*
Y27778D01*
X63154Y17018D02*
X64354D01*
X63754Y16418D02*
Y17618D01*
X51724Y50732D02*
X52924D01*
X52324Y50132D02*
Y51332D01*
X51724Y40572D02*
X52924D01*
X52324Y39972D02*
Y41172D01*
X40040Y15748D02*
X41240D01*
X40640Y15148D02*
Y16348D01*
X40040Y25908D02*
X41240D01*
X40640Y25308D02*
Y26508D01*
X48930Y40640D02*
X50130D01*
X49530Y40040D02*
Y41240D01*
X48930Y50800D02*
X50130D01*
X49530Y50200D02*
Y51400D01*
X45628Y26162D02*
X46828D01*
X46228Y25562D02*
Y26762D01*
X45628Y16002D02*
X46828D01*
X46228Y15402D02*
Y16602D01*
X32420Y42164D02*
X33620D01*
X33020Y41564D02*
Y42764D01*
X32420Y49784D02*
X33620D01*
X33020Y49184D02*
Y50384D01*
X42893Y15748D02*
X44093D01*
X43493Y15148D02*
Y16348D01*
X42893Y25908D02*
X44093D01*
X43493Y25308D02*
Y26508D01*
X34452Y15748D02*
X35652D01*
X35052Y15148D02*
Y16348D01*
X34452Y25908D02*
X35652D01*
X35052Y25308D02*
Y26508D01*
X31658Y15748D02*
X32858D01*
X32258Y15148D02*
Y16348D01*
X31658Y25908D02*
X32858D01*
X32258Y25308D02*
Y26508D01*
X28864Y15748D02*
X30064D01*
X29464Y15148D02*
Y16348D01*
X28864Y25908D02*
X30064D01*
X29464Y25308D02*
Y26508D01*
X17772Y32004D02*
X18772D01*
X18272Y31504D02*
Y32504D01*
X15772Y32004D02*
X16772D01*
X16272Y31504D02*
Y32504D01*
X17821Y43588D02*
X18821D01*
X18321Y43088D02*
Y44088D01*
X15821Y43588D02*
X16821D01*
X16321Y43088D02*
Y44088D01*
X21752Y39370D02*
X22952D01*
X22352Y38770D02*
Y39970D01*
X11592Y39370D02*
X12792D01*
X12192Y38770D02*
Y39970D01*
X74584Y17018D02*
X75784D01*
X75184Y16418D02*
Y17618D01*
X84744Y17018D02*
X85944D01*
X85344Y16418D02*
Y17618D01*
X89979Y24638D02*
X90615D01*
X90297Y24320D02*
Y24955D01*
X91631Y24638D02*
X92266D01*
X91948Y24320D02*
Y24955D01*
X93282Y24638D02*
X93916D01*
X93599Y24320D02*
Y24955D01*
X91856Y29718D02*
X93056D01*
X92456Y29118D02*
Y30318D01*
X91856Y39878D02*
X93056D01*
X92456Y39278D02*
Y40478D01*
X94650Y29718D02*
X95850D01*
X95250Y29118D02*
Y30318D01*
X94650Y39878D02*
X95850D01*
X95250Y39278D02*
Y40478D01*
X38516Y52832D02*
X39716D01*
X39116Y52232D02*
Y53432D01*
X38516Y42672D02*
X39716D01*
X39116Y42072D02*
Y43272D01*
X45364Y11430D02*
X46076D01*
X45720Y11074D02*
Y11786D01*
X101244Y49276D02*
X101956D01*
X101600Y48920D02*
Y49632D01*
X45364Y43180D02*
X46076D01*
X45720Y42824D02*
Y43536D01*
X60096Y22860D02*
X60808D01*
X60452Y22504D02*
Y23216D01*
X24790Y32893D02*
X25502D01*
X25146Y32537D02*
Y33249D01*
X62128Y13208D02*
X62840D01*
X62484Y12852D02*
Y13564D01*
X61874Y39624D02*
X62586D01*
X62230Y39268D02*
Y39980D01*
M02*
