G04*
G04 #@! TF.GenerationSoftware,Altium Limited,Altium Designer,20.0.2 (26)*
G04*
G04 Layer_Physical_Order=1*
G04 Layer_Color=255*
%FSLAX43Y43*%
%MOMM*%
G71*
G01*
G75*
%ADD14C,0.150*%
%ADD22O,1.016X2.286*%
%ADD27O,2.286X1.016*%
%ADD30C,0.381*%
%ADD31C,3.175*%
%ADD32C,6.350*%
%ADD33C,2.000*%
%ADD34C,2.286*%
%ADD35O,1.800X2.300*%
%ADD36R,1.800X2.300*%
%ADD37R,2.000X2.000*%
%ADD38C,1.500*%
%ADD39R,1.500X1.500*%
%ADD40C,1.524*%
%ADD41R,1.500X2.000*%
%ADD42O,1.500X2.000*%
%ADD43C,1.270*%
G36*
X118034Y43914D02*
X117907Y43862D01*
X112126Y49642D01*
X111958Y49755D01*
X111760Y49794D01*
X105371D01*
X98029Y57135D01*
X97861Y57248D01*
X97663Y57287D01*
X67954D01*
X67905Y57404D01*
X78511Y68010D01*
X78729Y67919D01*
X79111Y67869D01*
X79492Y67919D01*
X79847Y68066D01*
X80152Y68300D01*
X80386Y68605D01*
X80533Y68961D01*
X80584Y69342D01*
X80533Y69723D01*
X80386Y70079D01*
X80152Y70384D01*
X79847Y70618D01*
X79492Y70765D01*
X79111Y70815D01*
X78729Y70765D01*
X78374Y70618D01*
X78069Y70384D01*
X77835Y70079D01*
X77688Y69723D01*
X77637Y69342D01*
X77688Y68961D01*
X77778Y68742D01*
X67021Y57985D01*
X53150D01*
X53150Y57985D01*
X52951Y57946D01*
X52783Y57834D01*
X48641Y53692D01*
X48524Y53740D01*
Y64301D01*
X52232Y68010D01*
X52451Y67919D01*
X52832Y67869D01*
X53213Y67919D01*
X53569Y68066D01*
X53874Y68300D01*
X54108Y68605D01*
X54255Y68961D01*
X54305Y69342D01*
X54255Y69723D01*
X54108Y70079D01*
X53874Y70384D01*
X53569Y70618D01*
X53300Y70729D01*
X53325Y70856D01*
X55665D01*
X56580Y69942D01*
X56489Y69723D01*
X56439Y69342D01*
X56489Y68961D01*
X56636Y68605D01*
X56870Y68300D01*
X57175Y68066D01*
X57531Y67919D01*
X57912Y67869D01*
X58293Y67919D01*
X58649Y68066D01*
X58954Y68300D01*
X59188Y68605D01*
X59335Y68961D01*
X59385Y69342D01*
X59335Y69723D01*
X59188Y70079D01*
X58954Y70384D01*
X58649Y70618D01*
X58293Y70765D01*
X57912Y70815D01*
X57531Y70765D01*
X57312Y70674D01*
X56246Y71740D01*
X56078Y71853D01*
X55880Y71892D01*
X36576D01*
X36378Y71853D01*
X36210Y71740D01*
X32654Y68184D01*
X32541Y68016D01*
X32502Y67818D01*
Y50996D01*
X32356Y50935D01*
X32080Y50724D01*
X31869Y50448D01*
X31736Y50128D01*
X31691Y49784D01*
X31736Y49440D01*
X31869Y49120D01*
X32080Y48844D01*
X32356Y48633D01*
X32676Y48500D01*
X33020Y48455D01*
X33364Y48500D01*
X33684Y48633D01*
X33960Y48844D01*
X34171Y49120D01*
X34304Y49440D01*
X34349Y49784D01*
X34304Y50128D01*
X34171Y50448D01*
X33960Y50724D01*
X33684Y50935D01*
X33538Y50996D01*
Y67603D01*
X36791Y70856D01*
X47259D01*
X47284Y70729D01*
X47015Y70618D01*
X46710Y70384D01*
X46476Y70079D01*
X46329Y69723D01*
X46279Y69342D01*
X46329Y68961D01*
X46420Y68742D01*
X45338Y67660D01*
X45225Y67492D01*
X45186Y67294D01*
Y54915D01*
X44637D01*
Y54491D01*
X44509Y54447D01*
X44420Y54564D01*
X44210Y54725D01*
X44085Y54777D01*
Y53848D01*
Y52919D01*
X44210Y52971D01*
X44420Y53132D01*
X44509Y53248D01*
X44637Y53205D01*
Y52780D01*
X46576D01*
X46625Y52663D01*
X46179Y52218D01*
X46067Y52050D01*
X46028Y51851D01*
Y47739D01*
X40481Y42192D01*
X40373Y42264D01*
X40400Y42328D01*
X40445Y42672D01*
X40400Y43016D01*
X40267Y43336D01*
X40056Y43612D01*
X39780Y43823D01*
X39460Y43956D01*
X39116Y44001D01*
X38772Y43956D01*
X38452Y43823D01*
X38176Y43612D01*
X37965Y43336D01*
X37832Y43016D01*
X37787Y42672D01*
X37832Y42328D01*
X37965Y42008D01*
X38176Y41732D01*
X38452Y41521D01*
X38772Y41388D01*
X39116Y41343D01*
X39460Y41388D01*
X39524Y41415D01*
X39596Y41307D01*
X39193Y40904D01*
X37084D01*
X36962Y40880D01*
X36960Y40880D01*
X36840Y40975D01*
X36840Y40975D01*
Y41460D01*
X36986Y41521D01*
X37262Y41732D01*
X37473Y42008D01*
X37606Y42328D01*
X37651Y42672D01*
X37606Y43016D01*
X37473Y43336D01*
X37262Y43612D01*
X36986Y43823D01*
X36666Y43956D01*
X36322Y44001D01*
X35978Y43956D01*
X35658Y43823D01*
X35382Y43612D01*
X35171Y43336D01*
X35038Y43016D01*
X34993Y42672D01*
X35038Y42328D01*
X35171Y42008D01*
X35382Y41732D01*
X35658Y41521D01*
X35804Y41460D01*
Y41109D01*
X26863Y32167D01*
X26750Y31999D01*
X26711Y31801D01*
Y28143D01*
X26750Y27945D01*
X26863Y27777D01*
X28241Y26398D01*
X28180Y26252D01*
X28135Y25908D01*
X28180Y25564D01*
X28313Y25244D01*
X28524Y24968D01*
X28800Y24757D01*
X29120Y24624D01*
X29464Y24579D01*
X29808Y24624D01*
X30128Y24757D01*
X30404Y24968D01*
X30615Y25244D01*
X30748Y25564D01*
X30793Y25908D01*
X30748Y26252D01*
X30615Y26572D01*
X30404Y26848D01*
X30128Y27059D01*
X29808Y27192D01*
X29464Y27237D01*
X29120Y27192D01*
X28974Y27131D01*
X27747Y28358D01*
Y31586D01*
X34153Y37993D01*
X34280Y37940D01*
Y34544D01*
X34319Y34346D01*
X34432Y34178D01*
X36718Y31892D01*
X36886Y31779D01*
X37084Y31740D01*
X41441D01*
X41646Y31535D01*
Y31071D01*
X41550Y31031D01*
X41296Y30836D01*
X41101Y30582D01*
X40978Y30286D01*
X40958Y30135D01*
X40830D01*
X40810Y30286D01*
X40687Y30582D01*
X40492Y30836D01*
X40238Y31031D01*
X39942Y31154D01*
X39624Y31196D01*
X39306Y31154D01*
X39010Y31031D01*
X38756Y30836D01*
X38561Y30582D01*
X38438Y30286D01*
X38429Y30215D01*
X38301Y30223D01*
Y31185D01*
X35867D01*
Y28250D01*
X38301D01*
Y29213D01*
X38429Y29221D01*
X38438Y29150D01*
X38561Y28854D01*
X38756Y28600D01*
X39010Y28405D01*
X39306Y28282D01*
X39624Y28240D01*
X39942Y28282D01*
X40238Y28405D01*
X40492Y28600D01*
X40687Y28854D01*
X40810Y29150D01*
X40830Y29301D01*
X40958D01*
X40978Y29150D01*
X41101Y28854D01*
X41296Y28600D01*
X41550Y28405D01*
X41846Y28282D01*
X42164Y28240D01*
X42482Y28282D01*
X42778Y28405D01*
X43032Y28600D01*
X43227Y28854D01*
X43350Y29150D01*
X43370Y29301D01*
X43498D01*
X43518Y29150D01*
X43641Y28854D01*
X43836Y28600D01*
X44090Y28405D01*
X44386Y28282D01*
X44704Y28240D01*
X45022Y28282D01*
X45318Y28405D01*
X45572Y28600D01*
X45767Y28854D01*
X45890Y29150D01*
X45932Y29468D01*
Y29968D01*
X45890Y30286D01*
X45767Y30582D01*
X45572Y30836D01*
X45318Y31031D01*
X45022Y31154D01*
X44704Y31196D01*
X44386Y31154D01*
X44090Y31031D01*
X43836Y30836D01*
X43641Y30582D01*
X43518Y30286D01*
X43498Y30135D01*
X43370D01*
X43350Y30286D01*
X43227Y30582D01*
X43032Y30836D01*
X42778Y31031D01*
X42682Y31071D01*
Y31750D01*
X42643Y31948D01*
X42530Y32116D01*
X42022Y32624D01*
X41854Y32737D01*
X41656Y32776D01*
X37299D01*
X35316Y34759D01*
Y37885D01*
X37299Y39868D01*
X39407D01*
X39605Y39907D01*
X39774Y40020D01*
X46609Y46855D01*
X46726Y46806D01*
Y44665D01*
X46111Y44049D01*
X45969Y44108D01*
X45720Y44141D01*
X45471Y44108D01*
X45240Y44012D01*
X45041Y43859D01*
X44888Y43660D01*
X44792Y43429D01*
X44759Y43180D01*
X44792Y42931D01*
X44888Y42700D01*
X45041Y42501D01*
X45240Y42348D01*
X45471Y42252D01*
X45720Y42219D01*
X45969Y42252D01*
X46200Y42348D01*
X46399Y42501D01*
X46552Y42700D01*
X46648Y42931D01*
X46677Y43150D01*
X47610Y44084D01*
X47723Y44252D01*
X47762Y44450D01*
Y51347D01*
X53364Y56950D01*
X58337D01*
X58386Y56832D01*
X53242Y51688D01*
X52988Y51883D01*
X52668Y52015D01*
X52324Y52061D01*
X51980Y52015D01*
X51660Y51883D01*
X51384Y51672D01*
X51173Y51396D01*
X51040Y51076D01*
X50995Y50732D01*
X51040Y50388D01*
X51173Y50067D01*
X51384Y49792D01*
X51660Y49581D01*
X51980Y49448D01*
X52324Y49403D01*
X52668Y49448D01*
X52988Y49581D01*
X53264Y49792D01*
X53475Y50067D01*
X53608Y50388D01*
X53641Y50640D01*
X53694Y50675D01*
X59270Y56251D01*
X77166D01*
X77214Y56134D01*
X75072Y53991D01*
X74959Y53823D01*
X74920Y53625D01*
Y52008D01*
X74894Y51997D01*
X74668Y51824D01*
X74495Y51598D01*
X74386Y51336D01*
X74349Y51054D01*
X74386Y50772D01*
X74495Y50510D01*
X74668Y50284D01*
X74894Y50111D01*
X75156Y50002D01*
X75438Y49965D01*
X75720Y50002D01*
X75982Y50111D01*
X76076Y50183D01*
X76190Y50127D01*
Y46993D01*
X72278Y43080D01*
X72165Y42912D01*
X72126Y42714D01*
Y39326D01*
X72030Y39286D01*
X71776Y39091D01*
X71581Y38837D01*
X71458Y38541D01*
X71438Y38390D01*
X71310D01*
X71290Y38541D01*
X71167Y38837D01*
X70972Y39091D01*
X70718Y39286D01*
X70572Y39347D01*
X70470Y39499D01*
X70468Y39501D01*
X70476Y39628D01*
X70663Y39771D01*
X70874Y40046D01*
X71007Y40367D01*
X71052Y40711D01*
X71007Y41055D01*
X70874Y41375D01*
X70663Y41650D01*
X70387Y41861D01*
X70067Y41994D01*
X69723Y42039D01*
X69379Y41994D01*
X69059Y41861D01*
X68783Y41650D01*
X68572Y41375D01*
X68439Y41055D01*
X68394Y40711D01*
X68439Y40367D01*
X68572Y40046D01*
X68783Y39771D01*
X69059Y39560D01*
X69208Y39498D01*
X69244Y39315D01*
X69340Y39172D01*
X69236Y39091D01*
X69041Y38837D01*
X68918Y38541D01*
X68876Y38223D01*
Y37723D01*
X68918Y37405D01*
X69041Y37109D01*
X69236Y36855D01*
X69490Y36660D01*
X69586Y36620D01*
Y33810D01*
X67045Y31269D01*
X66933Y31101D01*
X66894Y30903D01*
Y30464D01*
X66767Y30455D01*
X66754Y30553D01*
X66627Y30858D01*
X66426Y31120D01*
X66164Y31321D01*
X65913Y31426D01*
Y30226D01*
Y29027D01*
X66164Y29131D01*
X66426Y29332D01*
X66627Y29594D01*
X66754Y29899D01*
X66767Y29997D01*
X66894Y29988D01*
Y26923D01*
X66910Y26843D01*
X66803Y26729D01*
X66802Y26729D01*
X66458Y26684D01*
X66138Y26551D01*
X65862Y26340D01*
X65651Y26064D01*
X65518Y25744D01*
X65473Y25400D01*
X65518Y25056D01*
X65651Y24736D01*
X65862Y24460D01*
X66138Y24249D01*
X66458Y24116D01*
X66802Y24071D01*
X67146Y24116D01*
X67466Y24249D01*
X67742Y24460D01*
X67953Y24736D01*
X68086Y25056D01*
X68118Y25304D01*
X68252Y25350D01*
X71872Y21730D01*
Y18484D01*
X71726Y18423D01*
X71450Y18212D01*
X71239Y17936D01*
X71106Y17616D01*
X71061Y17272D01*
X71106Y16928D01*
X71239Y16608D01*
X71450Y16332D01*
X71726Y16121D01*
X71872Y16060D01*
Y13970D01*
X71911Y13772D01*
X72024Y13604D01*
X72532Y13096D01*
X72700Y12983D01*
X72898Y12944D01*
X73465D01*
X73525Y12798D01*
X73736Y12522D01*
X74012Y12311D01*
X74332Y12178D01*
X74676Y12133D01*
X75020Y12178D01*
X75340Y12311D01*
X75616Y12522D01*
X75827Y12798D01*
X75960Y13118D01*
X76005Y13462D01*
X75960Y13806D01*
X75827Y14126D01*
X75616Y14402D01*
X75340Y14613D01*
X75020Y14746D01*
X74676Y14791D01*
X74332Y14746D01*
X74012Y14613D01*
X73736Y14402D01*
X73525Y14126D01*
X73465Y13980D01*
X73113D01*
X72908Y14185D01*
Y16060D01*
X73054Y16121D01*
X73330Y16332D01*
X73541Y16608D01*
X73674Y16928D01*
X73719Y17272D01*
X73674Y17616D01*
X73541Y17936D01*
X73330Y18212D01*
X73054Y18423D01*
X72908Y18484D01*
Y21945D01*
X72908Y21945D01*
X72869Y22143D01*
X72756Y22311D01*
X71318Y23749D01*
X71367Y23866D01*
X75731D01*
X76444Y23153D01*
Y21598D01*
X76373Y21544D01*
X76241Y21371D01*
X76171Y21202D01*
X76068Y21189D01*
X76036Y21195D01*
X75977Y21339D01*
X75854Y21498D01*
X75695Y21621D01*
X75692Y21622D01*
Y20320D01*
Y19018D01*
X75695Y19019D01*
X75854Y19142D01*
X75977Y19301D01*
X76036Y19445D01*
X76068Y19451D01*
X76171Y19438D01*
X76241Y19269D01*
X76373Y19096D01*
X76546Y18964D01*
X76746Y18881D01*
X76962Y18852D01*
X77177Y18881D01*
X77378Y18964D01*
X77551Y19096D01*
X77683Y19269D01*
X77719Y19355D01*
X77856D01*
X77892Y19269D01*
X78024Y19096D01*
X78197Y18964D01*
X78397Y18881D01*
X78613Y18852D01*
X78828Y18881D01*
X79029Y18964D01*
X79202Y19096D01*
X79334Y19269D01*
X79391Y19406D01*
X79518Y19380D01*
Y9105D01*
X78933Y8520D01*
X78821Y8352D01*
X78782Y8154D01*
Y5938D01*
X78563Y5848D01*
X78258Y5614D01*
X78024Y5309D01*
X77877Y4953D01*
X77826Y4572D01*
X77877Y4191D01*
X78024Y3835D01*
X78258Y3530D01*
X78563Y3296D01*
X78918Y3149D01*
X79300Y3099D01*
X79681Y3149D01*
X80036Y3296D01*
X80341Y3530D01*
X80575Y3835D01*
X80722Y4191D01*
X80773Y4572D01*
X80722Y4953D01*
X80575Y5309D01*
X80341Y5614D01*
X80036Y5848D01*
X79818Y5938D01*
Y7939D01*
X80402Y8524D01*
X80514Y8692D01*
X80554Y8890D01*
Y23088D01*
X80554Y23088D01*
X80514Y23286D01*
X80402Y23454D01*
X75956Y27901D01*
Y29161D01*
X76052Y29235D01*
X76247Y29489D01*
X76370Y29785D01*
X76390Y29935D01*
X76518D01*
X76538Y29785D01*
X76661Y29489D01*
X76856Y29235D01*
X77110Y29040D01*
X77406Y28917D01*
X77724Y28875D01*
X78042Y28917D01*
X78338Y29040D01*
X78592Y29235D01*
X78787Y29489D01*
X78910Y29785D01*
X78952Y30103D01*
Y30603D01*
X78910Y30921D01*
X78787Y31217D01*
X78592Y31471D01*
X78338Y31666D01*
X78242Y31706D01*
Y33406D01*
X79563Y34728D01*
X79676Y34896D01*
X79715Y35094D01*
Y37121D01*
X79769Y37139D01*
X79842Y37153D01*
X80108Y36949D01*
X80428Y36816D01*
X80772Y36771D01*
X81116Y36816D01*
X81436Y36949D01*
X81712Y37160D01*
X81923Y37436D01*
X82056Y37756D01*
X82101Y38100D01*
X82056Y38444D01*
X81923Y38764D01*
X81712Y39040D01*
X81436Y39251D01*
X81116Y39384D01*
X80772Y39429D01*
X80428Y39384D01*
X80108Y39251D01*
X79842Y39047D01*
X79769Y39061D01*
X79715Y39079D01*
Y39401D01*
X80122Y39808D01*
X80235Y39976D01*
X80274Y40174D01*
Y49530D01*
X80235Y49728D01*
X80122Y49896D01*
X79455Y50564D01*
X79516Y50710D01*
X79561Y51054D01*
X79516Y51398D01*
X79383Y51718D01*
X79225Y51924D01*
X79288Y52051D01*
X79567D01*
X83089Y48529D01*
X83083Y48488D01*
X82942Y48409D01*
X82893Y48429D01*
X82677Y48458D01*
X81407D01*
X81191Y48429D01*
X80991Y48346D01*
X80818Y48214D01*
X80686Y48041D01*
X80603Y47840D01*
X80574Y47625D01*
X80603Y47410D01*
X80686Y47209D01*
X80818Y47036D01*
X80991Y46904D01*
X81077Y46868D01*
Y46731D01*
X80991Y46695D01*
X80818Y46563D01*
X80686Y46390D01*
X80603Y46189D01*
X80574Y45974D01*
X80603Y45758D01*
X80686Y45558D01*
X80818Y45385D01*
X80991Y45253D01*
X81077Y45217D01*
Y45080D01*
X80991Y45044D01*
X80818Y44912D01*
X80686Y44739D01*
X80603Y44539D01*
X80574Y44323D01*
X80603Y44107D01*
X80686Y43907D01*
X80818Y43734D01*
X80991Y43602D01*
X81191Y43519D01*
X81407Y43490D01*
X82677D01*
X82893Y43519D01*
X83093Y43602D01*
X83266Y43734D01*
X83320Y43805D01*
X83376D01*
X83574Y43844D01*
X83742Y43957D01*
X84059Y44274D01*
X84172Y44442D01*
X84211Y44640D01*
Y48658D01*
X84172Y48856D01*
X84059Y49024D01*
X80148Y52935D01*
X79980Y53048D01*
X79781Y53087D01*
X77343D01*
X77145Y53048D01*
X76977Y52935D01*
X76342Y52300D01*
X76229Y52132D01*
X76201Y51989D01*
X76072Y51929D01*
X75982Y51997D01*
X75956Y52008D01*
Y53410D01*
X78098Y55553D01*
X97159D01*
X104818Y47894D01*
X104986Y47781D01*
X105184Y47742D01*
X111545D01*
X114572Y44715D01*
Y39375D01*
X114357Y39310D01*
X114027Y39133D01*
X113736Y38895D01*
X113498Y38605D01*
X113322Y38274D01*
X113213Y37915D01*
X113176Y37541D01*
X113213Y37168D01*
X113322Y36809D01*
X113498Y36478D01*
X113736Y36188D01*
X114027Y35950D01*
X114357Y35773D01*
X114717Y35664D01*
X115090Y35627D01*
X115463Y35664D01*
X115823Y35773D01*
X116154Y35950D01*
X116444Y36188D01*
X116682Y36478D01*
X116859Y36809D01*
X116957Y37133D01*
X117084Y37115D01*
Y34505D01*
X114724Y32144D01*
X114612Y31976D01*
X114572Y31778D01*
Y13975D01*
X114357Y13910D01*
X114027Y13733D01*
X113736Y13495D01*
X113498Y13205D01*
X113322Y12874D01*
X113213Y12515D01*
X113176Y12141D01*
X113213Y11768D01*
X113322Y11409D01*
X113498Y11078D01*
X113736Y10788D01*
X114027Y10550D01*
X114357Y10373D01*
X114717Y10264D01*
X115090Y10227D01*
X115463Y10264D01*
X115823Y10373D01*
X116154Y10550D01*
X116444Y10788D01*
X116682Y11078D01*
X116859Y11409D01*
X116967Y11768D01*
X117004Y12141D01*
X116967Y12515D01*
X116859Y12874D01*
X116682Y13205D01*
X116444Y13495D01*
X116154Y13733D01*
X115823Y13910D01*
X115608Y13975D01*
Y31563D01*
X117907Y33862D01*
X118034Y33810D01*
X118034Y330D01*
X330D01*
Y72060D01*
X118034D01*
X118034Y43914D01*
D02*
G37*
G36*
X52364Y70729D02*
X52095Y70618D01*
X51790Y70384D01*
X51556Y70079D01*
X51409Y69723D01*
X51359Y69342D01*
X51409Y68961D01*
X51500Y68742D01*
X47640Y64882D01*
X47527Y64714D01*
X47488Y64516D01*
Y53526D01*
X46889Y52927D01*
X46771Y52976D01*
Y54915D01*
X46222D01*
Y67079D01*
X47152Y68010D01*
X47371Y67919D01*
X47752Y67869D01*
X48133Y67919D01*
X48489Y68066D01*
X48794Y68300D01*
X49028Y68605D01*
X49175Y68961D01*
X49225Y69342D01*
X49175Y69723D01*
X49028Y70079D01*
X48794Y70384D01*
X48489Y70618D01*
X48220Y70729D01*
X48245Y70856D01*
X52339D01*
X52364Y70729D01*
D02*
G37*
G36*
X77568Y49903D02*
X77888Y49770D01*
X78232Y49725D01*
X78576Y49770D01*
X78722Y49831D01*
X79238Y49315D01*
Y41943D01*
X79111Y41880D01*
X78896Y42045D01*
X78576Y42178D01*
X78232Y42223D01*
X77888Y42178D01*
X77568Y42045D01*
X77292Y41834D01*
X77081Y41558D01*
X76948Y41238D01*
X76903Y40894D01*
X76948Y40550D01*
X77081Y40230D01*
X77292Y39954D01*
X77568Y39743D01*
X77888Y39610D01*
X78232Y39565D01*
X78552Y39607D01*
X78613Y39576D01*
X78679Y39516D01*
Y39175D01*
X78552Y39122D01*
X78338Y39286D01*
X78042Y39409D01*
X77724Y39451D01*
X77406Y39409D01*
X77110Y39286D01*
X76856Y39091D01*
X76661Y38837D01*
X76538Y38541D01*
X76518Y38390D01*
X76390D01*
X76370Y38541D01*
X76247Y38837D01*
X76052Y39091D01*
X75852Y39245D01*
X75917Y39341D01*
X75956Y39539D01*
Y39682D01*
X76102Y39743D01*
X76378Y39954D01*
X76589Y40230D01*
X76722Y40550D01*
X76767Y40894D01*
X76722Y41238D01*
X76589Y41558D01*
X76378Y41834D01*
X76102Y42045D01*
X75782Y42178D01*
X75438Y42223D01*
X75094Y42178D01*
X74774Y42045D01*
X74498Y41834D01*
X74287Y41558D01*
X74154Y41238D01*
X74109Y40894D01*
X74154Y40550D01*
X74287Y40230D01*
X74498Y39954D01*
X74749Y39762D01*
X74775Y39720D01*
X74784Y39601D01*
X74705Y39483D01*
X74675Y39330D01*
X74570Y39286D01*
X74316Y39091D01*
X74121Y38837D01*
X73998Y38541D01*
X73978Y38390D01*
X73850D01*
X73830Y38541D01*
X73707Y38837D01*
X73512Y39091D01*
X73258Y39286D01*
X73162Y39326D01*
Y42499D01*
X77074Y46412D01*
X77187Y46580D01*
X77226Y46778D01*
Y50005D01*
X77353Y50068D01*
X77568Y49903D01*
D02*
G37*
G36*
X117084Y43219D02*
Y37968D01*
X116957Y37949D01*
X116859Y38274D01*
X116682Y38605D01*
X116444Y38895D01*
X116154Y39133D01*
X115823Y39310D01*
X115608Y39375D01*
Y44530D01*
X115725Y44578D01*
X117084Y43219D01*
D02*
G37*
G36*
X73998Y37405D02*
X74121Y37109D01*
X74316Y36855D01*
X74570Y36660D01*
X74866Y36537D01*
X75184Y36495D01*
X75502Y36537D01*
X75798Y36660D01*
X76052Y36855D01*
X76247Y37109D01*
X76370Y37405D01*
X76390Y37556D01*
X76518D01*
X76538Y37405D01*
X76661Y37109D01*
X76856Y36855D01*
X77110Y36660D01*
X77406Y36537D01*
X77724Y36495D01*
X78042Y36537D01*
X78338Y36660D01*
X78552Y36824D01*
X78679Y36771D01*
Y35309D01*
X77358Y33987D01*
X77245Y33819D01*
X77206Y33621D01*
Y31706D01*
X77110Y31666D01*
X76856Y31471D01*
X76661Y31217D01*
X76538Y30921D01*
X76518Y30771D01*
X76390D01*
X76370Y30921D01*
X76247Y31217D01*
X76052Y31471D01*
X75798Y31666D01*
X75502Y31789D01*
X75184Y31831D01*
X74866Y31789D01*
X74570Y31666D01*
X74316Y31471D01*
X74121Y31217D01*
X73998Y30921D01*
X73978Y30771D01*
X73850D01*
X73830Y30921D01*
X73707Y31217D01*
X73512Y31471D01*
X73258Y31666D01*
X72962Y31789D01*
X72644Y31831D01*
X72326Y31789D01*
X72030Y31666D01*
X71776Y31471D01*
X71581Y31217D01*
X71458Y30921D01*
X71416Y30603D01*
Y30103D01*
X71458Y29785D01*
X71581Y29489D01*
X71776Y29235D01*
X71995Y29067D01*
X71911Y28942D01*
X71872Y28744D01*
Y28644D01*
X71726Y28583D01*
X71450Y28372D01*
X71239Y28096D01*
X71106Y27776D01*
X71061Y27432D01*
X71106Y27088D01*
X71239Y26768D01*
X71450Y26492D01*
X71726Y26281D01*
X72046Y26148D01*
X72390Y26103D01*
X72734Y26148D01*
X73054Y26281D01*
X73330Y26492D01*
X73541Y26768D01*
X73587Y26879D01*
X73719Y26895D01*
X75594Y25019D01*
X75546Y24902D01*
X71153D01*
X70114Y25941D01*
Y26220D01*
X70260Y26281D01*
X70536Y26492D01*
X70747Y26768D01*
X70880Y27088D01*
X70925Y27432D01*
X70880Y27776D01*
X70747Y28096D01*
X70536Y28372D01*
X70260Y28583D01*
X69940Y28716D01*
X69596Y28761D01*
X69252Y28716D01*
X68932Y28583D01*
X68656Y28372D01*
X68445Y28096D01*
X68312Y27776D01*
X68267Y27432D01*
X68312Y27088D01*
X68421Y26826D01*
X68313Y26754D01*
X67930Y27138D01*
Y30688D01*
X68833Y31592D01*
X68950Y31543D01*
Y30734D01*
X69723D01*
Y31757D01*
X69164D01*
X69115Y31874D01*
X70470Y33229D01*
X70583Y33397D01*
X70622Y33595D01*
Y36620D01*
X70718Y36660D01*
X70972Y36855D01*
X71167Y37109D01*
X71290Y37405D01*
X71310Y37556D01*
X71438D01*
X71458Y37405D01*
X71581Y37109D01*
X71776Y36855D01*
X72030Y36660D01*
X72326Y36537D01*
X72644Y36495D01*
X72962Y36537D01*
X73258Y36660D01*
X73512Y36855D01*
X73707Y37109D01*
X73830Y37405D01*
X73850Y37556D01*
X73978D01*
X73998Y37405D01*
D02*
G37*
G36*
Y29785D02*
X74121Y29489D01*
X74316Y29235D01*
X74570Y29040D01*
X74866Y28917D01*
X74920Y28910D01*
Y27686D01*
X74959Y27488D01*
X75072Y27320D01*
X79518Y22874D01*
Y21260D01*
X79391Y21234D01*
X79334Y21371D01*
X79202Y21544D01*
X79131Y21598D01*
Y22733D01*
X79092Y22931D01*
X78979Y23099D01*
X74280Y27798D01*
X74112Y27911D01*
X73914Y27950D01*
X73602D01*
X73541Y28096D01*
X73330Y28372D01*
X73102Y28546D01*
X73055Y28590D01*
X73066Y28715D01*
X73123Y28800D01*
X73162Y28998D01*
Y29000D01*
X73258Y29040D01*
X73512Y29235D01*
X73707Y29489D01*
X73830Y29785D01*
X73850Y29935D01*
X73978D01*
X73998Y29785D01*
D02*
G37*
%LPC*%
G36*
X104453Y69977D02*
Y68549D01*
X105880D01*
X105781Y68877D01*
X105610Y69197D01*
X105380Y69477D01*
X105100Y69707D01*
X104780Y69878D01*
X104453Y69977D01*
D02*
G37*
G36*
X103691Y69977D02*
X103363Y69878D01*
X103044Y69707D01*
X102763Y69477D01*
X102533Y69197D01*
X102362Y68877D01*
X102263Y68549D01*
X103691D01*
Y69977D01*
D02*
G37*
G36*
X111178Y71764D02*
X110805Y71727D01*
X110446Y71618D01*
X110115Y71442D01*
X109825Y71204D01*
X109587Y70913D01*
X109410Y70583D01*
X109301Y70223D01*
X109264Y69850D01*
X109301Y69477D01*
X109410Y69117D01*
X109587Y68786D01*
X109825Y68496D01*
X110115Y68258D01*
X110446Y68081D01*
X110805Y67973D01*
X111178Y67936D01*
X111552Y67973D01*
X111911Y68081D01*
X112242Y68258D01*
X112532Y68496D01*
X112770Y68786D01*
X112947Y69117D01*
X113056Y69477D01*
X113093Y69850D01*
X113056Y70223D01*
X112947Y70583D01*
X112770Y70913D01*
X112532Y71204D01*
X112242Y71442D01*
X111911Y71618D01*
X111552Y71727D01*
X111178Y71764D01*
D02*
G37*
G36*
X94742Y70815D02*
X94361Y70765D01*
X94005Y70618D01*
X93700Y70384D01*
X93466Y70079D01*
X93319Y69723D01*
X93269Y69342D01*
X93319Y68961D01*
X93466Y68605D01*
X93700Y68300D01*
X94005Y68066D01*
X94361Y67919D01*
X94742Y67869D01*
X95123Y67919D01*
X95479Y68066D01*
X95784Y68300D01*
X96018Y68605D01*
X96165Y68961D01*
X96215Y69342D01*
X96165Y69723D01*
X96018Y70079D01*
X95784Y70384D01*
X95479Y70618D01*
X95123Y70765D01*
X94742Y70815D01*
D02*
G37*
G36*
X89662D02*
X89281Y70765D01*
X88925Y70618D01*
X88620Y70384D01*
X88386Y70079D01*
X88239Y69723D01*
X88189Y69342D01*
X88239Y68961D01*
X88386Y68605D01*
X88620Y68300D01*
X88925Y68066D01*
X89281Y67919D01*
X89662Y67869D01*
X90043Y67919D01*
X90399Y68066D01*
X90704Y68300D01*
X90938Y68605D01*
X91085Y68961D01*
X91135Y69342D01*
X91085Y69723D01*
X90938Y70079D01*
X90704Y70384D01*
X90399Y70618D01*
X90043Y70765D01*
X89662Y70815D01*
D02*
G37*
G36*
X84191D02*
X83809Y70765D01*
X83454Y70618D01*
X83149Y70384D01*
X82915Y70079D01*
X82768Y69723D01*
X82717Y69342D01*
X82768Y68961D01*
X82915Y68605D01*
X83149Y68300D01*
X83454Y68066D01*
X83809Y67919D01*
X84191Y67869D01*
X84572Y67919D01*
X84927Y68066D01*
X85232Y68300D01*
X85466Y68605D01*
X85613Y68961D01*
X85664Y69342D01*
X85613Y69723D01*
X85466Y70079D01*
X85232Y70384D01*
X84927Y70618D01*
X84572Y70765D01*
X84191Y70815D01*
D02*
G37*
G36*
X74031D02*
X73649Y70765D01*
X73294Y70618D01*
X72989Y70384D01*
X72755Y70079D01*
X72608Y69723D01*
X72557Y69342D01*
X72608Y68961D01*
X72755Y68605D01*
X72989Y68300D01*
X73294Y68066D01*
X73649Y67919D01*
X74031Y67869D01*
X74412Y67919D01*
X74767Y68066D01*
X75072Y68300D01*
X75306Y68605D01*
X75453Y68961D01*
X75504Y69342D01*
X75453Y69723D01*
X75306Y70079D01*
X75072Y70384D01*
X74767Y70618D01*
X74412Y70765D01*
X74031Y70815D01*
D02*
G37*
G36*
X68528D02*
X68147Y70765D01*
X67792Y70618D01*
X67487Y70384D01*
X67253Y70079D01*
X67106Y69723D01*
X67055Y69342D01*
X67106Y68961D01*
X67253Y68605D01*
X67487Y68300D01*
X67792Y68066D01*
X68147Y67919D01*
X68528Y67869D01*
X68910Y67919D01*
X69265Y68066D01*
X69570Y68300D01*
X69804Y68605D01*
X69951Y68961D01*
X70002Y69342D01*
X69951Y69723D01*
X69804Y70079D01*
X69570Y70384D01*
X69265Y70618D01*
X68910Y70765D01*
X68528Y70815D01*
D02*
G37*
G36*
X63448D02*
X63067Y70765D01*
X62712Y70618D01*
X62407Y70384D01*
X62173Y70079D01*
X62026Y69723D01*
X61975Y69342D01*
X62026Y68961D01*
X62173Y68605D01*
X62407Y68300D01*
X62712Y68066D01*
X63067Y67919D01*
X63448Y67869D01*
X63830Y67919D01*
X64185Y68066D01*
X64490Y68300D01*
X64724Y68605D01*
X64871Y68961D01*
X64922Y69342D01*
X64871Y69723D01*
X64724Y70079D01*
X64490Y70384D01*
X64185Y70618D01*
X63830Y70765D01*
X63448Y70815D01*
D02*
G37*
G36*
X103691Y67787D02*
X102263D01*
X102362Y67460D01*
X102533Y67140D01*
X102763Y66860D01*
X103044Y66630D01*
X103363Y66459D01*
X103691Y66360D01*
Y67787D01*
D02*
G37*
G36*
X105880D02*
X104453D01*
Y66360D01*
X104780Y66459D01*
X105100Y66630D01*
X105380Y66860D01*
X105610Y67140D01*
X105781Y67460D01*
X105880Y67787D01*
D02*
G37*
G36*
X115090Y65973D02*
X114717Y65936D01*
X114358Y65827D01*
X114027Y65650D01*
X113737Y65412D01*
X113498Y65122D01*
X113322Y64791D01*
X113213Y64432D01*
X113176Y64059D01*
X113213Y63685D01*
X113322Y63326D01*
X113498Y62995D01*
X113737Y62705D01*
X114027Y62467D01*
X114358Y62290D01*
X114717Y62181D01*
X115090Y62145D01*
X115464Y62181D01*
X115823Y62290D01*
X116154Y62467D01*
X116444Y62705D01*
X116682Y62995D01*
X116859Y63326D01*
X116967Y63685D01*
X117004Y64059D01*
X116967Y64432D01*
X116859Y64791D01*
X116682Y65122D01*
X116444Y65412D01*
X116154Y65650D01*
X115823Y65827D01*
X115464Y65936D01*
X115090Y65973D01*
D02*
G37*
G36*
X108740Y67003D02*
X108192Y66960D01*
X107657Y66832D01*
X107150Y66621D01*
X106681Y66334D01*
X106263Y65977D01*
X105906Y65559D01*
X105619Y65090D01*
X105408Y64583D01*
X105280Y64048D01*
X105237Y63500D01*
X105280Y62952D01*
X105408Y62417D01*
X105619Y61910D01*
X105906Y61441D01*
X106263Y61023D01*
X106681Y60666D01*
X107150Y60379D01*
X107657Y60168D01*
X108192Y60040D01*
X108740Y59997D01*
X109288Y60040D01*
X109823Y60168D01*
X110331Y60379D01*
X110799Y60666D01*
X111217Y61023D01*
X111574Y61441D01*
X111862Y61910D01*
X112072Y62417D01*
X112200Y62952D01*
X112243Y63500D01*
X112200Y64048D01*
X112072Y64583D01*
X111862Y65090D01*
X111574Y65559D01*
X111217Y65977D01*
X110799Y66334D01*
X110331Y66621D01*
X109823Y66832D01*
X109288Y66960D01*
X108740Y67003D01*
D02*
G37*
G36*
X102390Y62976D02*
X102017Y62939D01*
X101658Y62830D01*
X101327Y62653D01*
X101037Y62415D01*
X100798Y62125D01*
X100622Y61794D01*
X100513Y61435D01*
X100476Y61062D01*
X100513Y60688D01*
X100622Y60329D01*
X100798Y59998D01*
X101037Y59708D01*
X101327Y59470D01*
X101658Y59293D01*
X102017Y59184D01*
X102390Y59147D01*
X102764Y59184D01*
X103123Y59293D01*
X103454Y59470D01*
X103744Y59708D01*
X103982Y59998D01*
X104159Y60329D01*
X104268Y60688D01*
X104304Y61062D01*
X104268Y61435D01*
X104159Y61794D01*
X103982Y62125D01*
X103744Y62415D01*
X103454Y62653D01*
X103123Y62830D01*
X102764Y62939D01*
X102390Y62976D01*
D02*
G37*
G36*
X108181Y59064D02*
X107808Y59027D01*
X107449Y58918D01*
X107118Y58742D01*
X106828Y58504D01*
X106590Y58213D01*
X106413Y57883D01*
X106304Y57523D01*
X106267Y57150D01*
X106304Y56777D01*
X106413Y56417D01*
X106590Y56086D01*
X106828Y55796D01*
X107118Y55558D01*
X107449Y55381D01*
X107808Y55273D01*
X108181Y55236D01*
X108555Y55273D01*
X108914Y55381D01*
X109245Y55558D01*
X109535Y55796D01*
X109773Y56086D01*
X109950Y56417D01*
X110059Y56777D01*
X110095Y57150D01*
X110059Y57523D01*
X109950Y57883D01*
X109773Y58213D01*
X109535Y58504D01*
X109245Y58742D01*
X108914Y58918D01*
X108555Y59027D01*
X108181Y59064D01*
D02*
G37*
G36*
X43323Y54777D02*
X43198Y54725D01*
X42988Y54564D01*
X42827Y54354D01*
X42775Y54229D01*
X43323D01*
Y54777D01*
D02*
G37*
G36*
Y53467D02*
X42775D01*
X42827Y53342D01*
X42988Y53132D01*
X43198Y52971D01*
X43323Y52919D01*
Y53467D01*
D02*
G37*
G36*
X95446Y55060D02*
X95102Y55015D01*
X94781Y54882D01*
X94506Y54671D01*
X94295Y54395D01*
X94162Y54075D01*
X94117Y53731D01*
X94162Y53387D01*
X94295Y53067D01*
X94506Y52791D01*
X94781Y52580D01*
X95102Y52447D01*
X95446Y52402D01*
X95789Y52447D01*
X96110Y52580D01*
X96385Y52791D01*
X96596Y53067D01*
X96729Y53387D01*
X96774Y53731D01*
X96729Y54075D01*
X96596Y54395D01*
X96385Y54671D01*
X96110Y54882D01*
X95789Y55015D01*
X95446Y55060D01*
D02*
G37*
G36*
X92456Y54923D02*
X92112Y54878D01*
X91792Y54745D01*
X91516Y54534D01*
X91305Y54258D01*
X91172Y53938D01*
X91127Y53594D01*
X91172Y53250D01*
X91305Y52930D01*
X91516Y52654D01*
X91792Y52443D01*
X92112Y52310D01*
X92456Y52265D01*
X92800Y52310D01*
X93120Y52443D01*
X93396Y52654D01*
X93607Y52930D01*
X93740Y53250D01*
X93785Y53594D01*
X93740Y53938D01*
X93607Y54258D01*
X93396Y54534D01*
X93120Y54745D01*
X92800Y54878D01*
X92456Y54923D01*
D02*
G37*
G36*
X39116Y54161D02*
X38772Y54116D01*
X38452Y53983D01*
X38176Y53772D01*
X37965Y53496D01*
X37832Y53176D01*
X37787Y52832D01*
X37832Y52488D01*
X37965Y52168D01*
X38176Y51892D01*
X38452Y51681D01*
X38772Y51548D01*
X39116Y51503D01*
X39460Y51548D01*
X39780Y51681D01*
X40056Y51892D01*
X40267Y52168D01*
X40400Y52488D01*
X40445Y52832D01*
X40400Y53176D01*
X40267Y53496D01*
X40056Y53772D01*
X39780Y53983D01*
X39460Y54116D01*
X39116Y54161D01*
D02*
G37*
G36*
X36322D02*
X35978Y54116D01*
X35658Y53983D01*
X35382Y53772D01*
X35171Y53496D01*
X35038Y53176D01*
X34993Y52832D01*
X35038Y52488D01*
X35171Y52168D01*
X35382Y51892D01*
X35658Y51681D01*
X35978Y51548D01*
X36322Y51503D01*
X36666Y51548D01*
X36986Y51681D01*
X37262Y51892D01*
X37473Y52168D01*
X37606Y52488D01*
X37651Y52832D01*
X37606Y53176D01*
X37473Y53496D01*
X37262Y53772D01*
X36986Y53983D01*
X36666Y54116D01*
X36322Y54161D01*
D02*
G37*
G36*
X69723Y52199D02*
X69379Y52154D01*
X69059Y52021D01*
X68783Y51810D01*
X68572Y51535D01*
X68439Y51215D01*
X68394Y50871D01*
X68439Y50527D01*
X68572Y50206D01*
X68783Y49931D01*
X69059Y49720D01*
X69379Y49587D01*
X69723Y49542D01*
X70067Y49587D01*
X70387Y49720D01*
X70663Y49931D01*
X70874Y50206D01*
X71007Y50527D01*
X71052Y50871D01*
X71007Y51215D01*
X70874Y51535D01*
X70663Y51810D01*
X70387Y52021D01*
X70067Y52154D01*
X69723Y52199D01*
D02*
G37*
G36*
X101600Y50237D02*
X101351Y50204D01*
X101120Y50108D01*
X100921Y49955D01*
X100768Y49756D01*
X100672Y49525D01*
X100639Y49276D01*
X100666Y49074D01*
X97932Y46340D01*
X97819Y46172D01*
X97780Y45974D01*
Y38315D01*
X97067Y37602D01*
X90608D01*
X90180Y38030D01*
Y38666D01*
X90326Y38727D01*
X90602Y38938D01*
X90813Y39214D01*
X90946Y39534D01*
X90991Y39878D01*
X90946Y40222D01*
X90813Y40542D01*
X90602Y40818D01*
X90326Y41029D01*
X90006Y41162D01*
X89662Y41207D01*
X89318Y41162D01*
X88998Y41029D01*
X88783Y40864D01*
X88656Y40927D01*
Y41433D01*
X91021Y43798D01*
X91166Y43773D01*
X91171Y43768D01*
X91127Y43434D01*
X91172Y43090D01*
X91305Y42770D01*
X91516Y42494D01*
X91792Y42283D01*
X91938Y42222D01*
Y41090D01*
X91792Y41029D01*
X91516Y40818D01*
X91305Y40542D01*
X91172Y40222D01*
X91127Y39878D01*
X91172Y39534D01*
X91305Y39214D01*
X91516Y38938D01*
X91792Y38727D01*
X92112Y38594D01*
X92456Y38549D01*
X92800Y38594D01*
X93120Y38727D01*
X93396Y38938D01*
X93607Y39214D01*
X93740Y39534D01*
X93785Y39878D01*
X93740Y40222D01*
X93607Y40542D01*
X93396Y40818D01*
X93120Y41029D01*
X92974Y41090D01*
Y42222D01*
X93120Y42283D01*
X93396Y42494D01*
X93607Y42770D01*
X93740Y43090D01*
X93785Y43434D01*
X93740Y43778D01*
X93607Y44098D01*
X93396Y44374D01*
X93120Y44585D01*
X92800Y44718D01*
X92456Y44763D01*
X92122Y44719D01*
X92117Y44724D01*
X92092Y44869D01*
X92315Y45092D01*
X93192D01*
X94223Y44061D01*
X94162Y43915D01*
X94117Y43571D01*
X94162Y43227D01*
X94295Y42907D01*
X94506Y42631D01*
X94781Y42420D01*
X95102Y42287D01*
X95446Y42242D01*
X95789Y42287D01*
X96110Y42420D01*
X96385Y42631D01*
X96596Y42907D01*
X96729Y43227D01*
X96774Y43571D01*
X96729Y43915D01*
X96596Y44235D01*
X96385Y44511D01*
X96110Y44722D01*
X95789Y44855D01*
X95446Y44900D01*
X95102Y44855D01*
X94955Y44794D01*
X93773Y45976D01*
X93605Y46088D01*
X93407Y46128D01*
X92100D01*
X91902Y46088D01*
X91734Y45976D01*
X87772Y42013D01*
X87659Y41845D01*
X87620Y41647D01*
Y40927D01*
X87493Y40864D01*
X87278Y41029D01*
X86958Y41162D01*
X86614Y41207D01*
X86270Y41162D01*
X85950Y41029D01*
X85674Y40818D01*
X85463Y40542D01*
X85330Y40222D01*
X85285Y39878D01*
X85330Y39534D01*
X85463Y39214D01*
X85674Y38938D01*
X85950Y38727D01*
X86270Y38594D01*
X86614Y38549D01*
X86958Y38594D01*
X87278Y38727D01*
X87493Y38892D01*
X87620Y38829D01*
Y31457D01*
X87104Y30941D01*
X86958Y31002D01*
X86614Y31047D01*
X86270Y31002D01*
X85950Y30869D01*
X85674Y30658D01*
X85463Y30382D01*
X85330Y30062D01*
X85285Y29718D01*
X85330Y29374D01*
X85463Y29054D01*
X85674Y28778D01*
X85950Y28567D01*
X86270Y28434D01*
X86614Y28389D01*
X86958Y28434D01*
X87278Y28567D01*
X87554Y28778D01*
X87765Y29054D01*
X87898Y29374D01*
X87943Y29718D01*
X87898Y30062D01*
X87837Y30208D01*
X88504Y30876D01*
X88617Y31044D01*
X88656Y31242D01*
Y38829D01*
X88783Y38892D01*
X88998Y38727D01*
X89144Y38666D01*
Y37815D01*
X89183Y37617D01*
X89296Y37449D01*
X90027Y36718D01*
X90195Y36605D01*
X90393Y36566D01*
X97282D01*
X97480Y36605D01*
X97648Y36718D01*
X98664Y37734D01*
X98777Y37902D01*
X98816Y38100D01*
Y45759D01*
X101398Y48342D01*
X101600Y48315D01*
X101849Y48348D01*
X102080Y48444D01*
X102279Y48597D01*
X102432Y48796D01*
X102528Y49027D01*
X102561Y49276D01*
X102528Y49525D01*
X102432Y49756D01*
X102279Y49955D01*
X102080Y50108D01*
X101849Y50204D01*
X101600Y50237D01*
D02*
G37*
G36*
X6524Y48319D02*
X6180Y48274D01*
X5860Y48141D01*
X5584Y47930D01*
X5428Y47727D01*
X5301Y47770D01*
Y48307D01*
X2666D01*
Y45672D01*
X3327D01*
X3352Y45545D01*
X3352Y45545D01*
X3090Y45344D01*
X2889Y45082D01*
X2784Y44831D01*
X3984D01*
Y44069D01*
X2784D01*
X2889Y43818D01*
X3090Y43556D01*
X3352Y43355D01*
X3607Y43249D01*
Y43111D01*
X3352Y43005D01*
X3090Y42804D01*
X2889Y42542D01*
X2784Y42291D01*
X3984D01*
Y41529D01*
X2784D01*
X2889Y41278D01*
X3090Y41016D01*
X3352Y40815D01*
X3607Y40709D01*
Y40571D01*
X3352Y40465D01*
X3090Y40264D01*
X2889Y40002D01*
X2784Y39751D01*
X3984D01*
Y38989D01*
X2784D01*
X2889Y38738D01*
X3090Y38476D01*
X3352Y38275D01*
X3524Y38203D01*
Y38066D01*
X3320Y37981D01*
X3044Y37770D01*
X2833Y37494D01*
X2700Y37174D01*
X2655Y36830D01*
X2700Y36486D01*
X2833Y36166D01*
X3044Y35890D01*
X3320Y35679D01*
X3454Y35623D01*
Y35496D01*
X3320Y35441D01*
X3044Y35230D01*
X2833Y34954D01*
X2700Y34634D01*
X2655Y34290D01*
X2700Y33946D01*
X2833Y33626D01*
X3044Y33350D01*
X3320Y33139D01*
X3454Y33083D01*
Y32956D01*
X3320Y32901D01*
X3044Y32690D01*
X2833Y32414D01*
X2700Y32094D01*
X2655Y31750D01*
X2700Y31406D01*
X2833Y31086D01*
X3044Y30810D01*
X3320Y30599D01*
X3454Y30543D01*
Y30416D01*
X3320Y30361D01*
X3044Y30150D01*
X2833Y29874D01*
X2700Y29554D01*
X2655Y29210D01*
X2700Y28866D01*
X2833Y28546D01*
X3044Y28270D01*
X3320Y28059D01*
X3640Y27926D01*
X3984Y27881D01*
X4328Y27926D01*
X4648Y28059D01*
X4924Y28270D01*
X5135Y28546D01*
X5190Y28680D01*
X5317D01*
X5373Y28546D01*
X5584Y28270D01*
X5860Y28059D01*
X6180Y27926D01*
X6524Y27881D01*
X6868Y27926D01*
X7188Y28059D01*
X7464Y28270D01*
X7675Y28546D01*
X7808Y28866D01*
X7853Y29210D01*
X7808Y29554D01*
X7675Y29874D01*
X7464Y30150D01*
X7188Y30361D01*
X7054Y30416D01*
Y30543D01*
X7188Y30599D01*
X7464Y30810D01*
X7675Y31086D01*
X7808Y31406D01*
X7853Y31750D01*
X7808Y32094D01*
X7675Y32414D01*
X7464Y32690D01*
X7188Y32901D01*
X7054Y32956D01*
Y33083D01*
X7188Y33139D01*
X7464Y33350D01*
X7675Y33626D01*
X7808Y33946D01*
X7853Y34290D01*
X7808Y34634D01*
X7675Y34954D01*
X7464Y35230D01*
X7188Y35441D01*
X7054Y35496D01*
Y35623D01*
X7188Y35679D01*
X7464Y35890D01*
X7675Y36166D01*
X7808Y36486D01*
X7853Y36830D01*
X7808Y37174D01*
X7675Y37494D01*
X7464Y37770D01*
X7188Y37981D01*
X6984Y38066D01*
Y38203D01*
X7156Y38275D01*
X7418Y38476D01*
X7619Y38738D01*
X7723Y38989D01*
X6524D01*
Y39751D01*
X7723D01*
X7619Y40002D01*
X7418Y40264D01*
X7156Y40465D01*
X6901Y40571D01*
Y40709D01*
X7156Y40815D01*
X7418Y41016D01*
X7619Y41278D01*
X7723Y41529D01*
X6524D01*
Y42291D01*
X7723D01*
X7619Y42542D01*
X7418Y42804D01*
X7156Y43005D01*
X6901Y43111D01*
Y43249D01*
X7156Y43355D01*
X7418Y43556D01*
X7619Y43818D01*
X7723Y44069D01*
X6524D01*
Y44831D01*
X7723D01*
X7619Y45082D01*
X7418Y45344D01*
X7156Y45545D01*
X6984Y45617D01*
Y45754D01*
X7188Y45839D01*
X7464Y46050D01*
X7675Y46326D01*
X7808Y46646D01*
X7853Y46990D01*
X7808Y47334D01*
X7675Y47654D01*
X7464Y47930D01*
X7188Y48141D01*
X6868Y48274D01*
X6524Y48319D01*
D02*
G37*
G36*
X18321Y44914D02*
X18042Y44878D01*
X17782Y44770D01*
X17559Y44599D01*
X17452Y44459D01*
X17325Y44502D01*
Y44842D01*
X16702D01*
Y43588D01*
Y42334D01*
X17325D01*
Y42673D01*
X17452Y42716D01*
X17559Y42576D01*
X17782Y42405D01*
X18042Y42298D01*
X18321Y42261D01*
X18599Y42298D01*
X18859Y42405D01*
X19082Y42576D01*
X19253Y42799D01*
X19361Y43059D01*
X19397Y43338D01*
Y43838D01*
X19361Y44116D01*
X19253Y44376D01*
X19082Y44599D01*
X18859Y44770D01*
X18599Y44878D01*
X18321Y44914D01*
D02*
G37*
G36*
X15940Y44842D02*
X15317D01*
Y43969D01*
X15940D01*
Y44842D01*
D02*
G37*
G36*
X33401Y43363D02*
Y42545D01*
X34220D01*
X34115Y42796D01*
X33914Y43058D01*
X33652Y43259D01*
X33401Y43363D01*
D02*
G37*
G36*
X32639Y43364D02*
X32388Y43259D01*
X32126Y43058D01*
X31925Y42796D01*
X31820Y42545D01*
X32639D01*
Y43364D01*
D02*
G37*
G36*
X108181Y46364D02*
X107808Y46327D01*
X107449Y46219D01*
X107118Y46042D01*
X106828Y45804D01*
X106590Y45514D01*
X106413Y45183D01*
X106304Y44824D01*
X106267Y44450D01*
X106304Y44077D01*
X106413Y43718D01*
X106590Y43387D01*
X106828Y43096D01*
X107118Y42858D01*
X107449Y42682D01*
X107808Y42573D01*
X108181Y42536D01*
X108555Y42573D01*
X108914Y42682D01*
X109245Y42858D01*
X109535Y43096D01*
X109773Y43387D01*
X109950Y43718D01*
X110059Y44077D01*
X110095Y44450D01*
X110059Y44824D01*
X109950Y45183D01*
X109773Y45514D01*
X109535Y45804D01*
X109245Y46042D01*
X108914Y46219D01*
X108555Y46327D01*
X108181Y46364D01*
D02*
G37*
G36*
X15940Y43207D02*
X15317D01*
Y42334D01*
X15940D01*
Y43207D01*
D02*
G37*
G36*
X49530Y52129D02*
X49186Y52084D01*
X48866Y51951D01*
X48590Y51740D01*
X48379Y51464D01*
X48246Y51144D01*
X48201Y50800D01*
X48246Y50456D01*
X48379Y50136D01*
X48590Y49860D01*
X48866Y49649D01*
X49012Y49588D01*
Y43688D01*
X49051Y43490D01*
X49164Y43322D01*
X49735Y42750D01*
X49903Y42638D01*
X50102Y42598D01*
X50102Y42598D01*
X55819D01*
X57210Y41207D01*
X57162Y41090D01*
X53536D01*
X53475Y41236D01*
X53264Y41512D01*
X52988Y41723D01*
X52668Y41855D01*
X52324Y41901D01*
X51980Y41855D01*
X51660Y41723D01*
X51384Y41512D01*
X51173Y41236D01*
X51040Y40916D01*
X50995Y40572D01*
X51040Y40228D01*
X51173Y39907D01*
X51378Y39641D01*
X51366Y39580D01*
X51344Y39514D01*
X50424D01*
X50383Y39634D01*
X50470Y39700D01*
X50681Y39976D01*
X50814Y40296D01*
X50859Y40640D01*
X50814Y40984D01*
X50681Y41304D01*
X50470Y41580D01*
X50194Y41791D01*
X49874Y41924D01*
X49530Y41969D01*
X49186Y41924D01*
X48866Y41791D01*
X48590Y41580D01*
X48379Y41304D01*
X48246Y40984D01*
X48201Y40640D01*
X48246Y40296D01*
X48379Y39976D01*
X48590Y39700D01*
X48677Y39634D01*
X48636Y39514D01*
X40386D01*
X40188Y39475D01*
X40020Y39362D01*
X39529Y38872D01*
X39479Y38797D01*
X39306Y38774D01*
X39010Y38651D01*
X38756Y38456D01*
X38561Y38202D01*
X38438Y37906D01*
X38418Y37756D01*
X38290D01*
X38270Y37906D01*
X38147Y38202D01*
X37952Y38456D01*
X37698Y38651D01*
X37402Y38774D01*
X37084Y38816D01*
X36766Y38774D01*
X36470Y38651D01*
X36216Y38456D01*
X36021Y38202D01*
X35898Y37906D01*
X35856Y37588D01*
Y37088D01*
X35898Y36770D01*
X36021Y36474D01*
X36216Y36220D01*
X36470Y36025D01*
X36766Y35902D01*
X37084Y35860D01*
X37402Y35902D01*
X37698Y36025D01*
X37952Y36220D01*
X38147Y36474D01*
X38270Y36770D01*
X38290Y36921D01*
X38418D01*
X38438Y36770D01*
X38561Y36474D01*
X38756Y36220D01*
X39010Y36025D01*
X39306Y35902D01*
X39624Y35860D01*
X39942Y35902D01*
X40238Y36025D01*
X40492Y36220D01*
X40687Y36474D01*
X40810Y36770D01*
X40830Y36921D01*
X40958D01*
X40978Y36770D01*
X41101Y36474D01*
X41296Y36220D01*
X41550Y36025D01*
X41846Y35902D01*
X42164Y35860D01*
X42482Y35902D01*
X42778Y36025D01*
X43032Y36220D01*
X43227Y36474D01*
X43350Y36770D01*
X43370Y36921D01*
X43498D01*
X43518Y36770D01*
X43641Y36474D01*
X43836Y36220D01*
X44090Y36025D01*
X44386Y35902D01*
X44704Y35860D01*
X45022Y35902D01*
X45318Y36025D01*
X45572Y36220D01*
X45767Y36474D01*
X45890Y36770D01*
X45932Y37088D01*
Y37588D01*
X45890Y37906D01*
X45767Y38202D01*
X45653Y38351D01*
X45716Y38478D01*
X46312D01*
X46375Y38351D01*
X46236Y38170D01*
X46120Y37889D01*
X46097Y37719D01*
X48391D01*
X48368Y37889D01*
X48252Y38170D01*
X48113Y38351D01*
X48176Y38478D01*
X48772D01*
X48835Y38351D01*
X48721Y38202D01*
X48598Y37906D01*
X48556Y37588D01*
Y37088D01*
X48598Y36770D01*
X48721Y36474D01*
X48916Y36220D01*
X49170Y36025D01*
X49466Y35902D01*
X49784Y35860D01*
X50102Y35902D01*
X50398Y36025D01*
X50652Y36220D01*
X50847Y36474D01*
X50970Y36770D01*
X50990Y36921D01*
X51118D01*
X51138Y36770D01*
X51261Y36474D01*
X51456Y36220D01*
X51710Y36025D01*
X52006Y35902D01*
X52324Y35860D01*
X52642Y35902D01*
X52938Y36025D01*
X53192Y36220D01*
X53387Y36474D01*
X53510Y36770D01*
X53552Y37088D01*
Y37588D01*
X53510Y37906D01*
X53387Y38202D01*
X53273Y38351D01*
X53336Y38478D01*
X57453D01*
X57775Y38156D01*
Y21847D01*
X56808Y20880D01*
X53301D01*
X49540Y24641D01*
Y24950D01*
X49686Y25011D01*
X49962Y25222D01*
X50173Y25498D01*
X50306Y25818D01*
X50351Y26162D01*
X50306Y26506D01*
X50173Y26826D01*
X49962Y27102D01*
X49686Y27313D01*
X49366Y27446D01*
X49022Y27491D01*
X48678Y27446D01*
X48358Y27313D01*
X48082Y27102D01*
X47871Y26826D01*
X47738Y26506D01*
X47693Y26162D01*
X47738Y25818D01*
X47871Y25498D01*
X48082Y25222D01*
X48358Y25011D01*
X48504Y24950D01*
Y24426D01*
X48543Y24228D01*
X48656Y24060D01*
X52582Y20134D01*
X52533Y20016D01*
X44390D01*
X44192Y19977D01*
X44024Y19865D01*
X41130Y16971D01*
X40984Y17032D01*
X40640Y17077D01*
X40296Y17032D01*
X39976Y16899D01*
X39700Y16688D01*
X39489Y16412D01*
X39356Y16092D01*
X39311Y15748D01*
X39356Y15404D01*
X39489Y15084D01*
X39700Y14808D01*
X39976Y14597D01*
X40296Y14464D01*
X40640Y14419D01*
X40984Y14464D01*
X41304Y14597D01*
X41580Y14808D01*
X41791Y15084D01*
X41924Y15404D01*
X41969Y15748D01*
X41924Y16092D01*
X41863Y16238D01*
X44605Y18980D01*
X57147D01*
X57345Y19020D01*
X57513Y19132D01*
X59675Y21294D01*
X59788Y21462D01*
X59827Y21660D01*
Y21995D01*
X59941Y22052D01*
X59972Y22028D01*
X60203Y21932D01*
X60452Y21899D01*
X60701Y21932D01*
X60932Y22028D01*
X61131Y22181D01*
X61284Y22380D01*
X61380Y22611D01*
X61413Y22860D01*
X61380Y23109D01*
X61284Y23340D01*
X61131Y23539D01*
X60970Y23663D01*
Y38698D01*
X60970Y38698D01*
X60931Y38896D01*
X60818Y39064D01*
X60818Y39064D01*
X56400Y43483D01*
X56232Y43595D01*
X56034Y43634D01*
X50316D01*
X50048Y43903D01*
Y49588D01*
X50194Y49649D01*
X50470Y49860D01*
X50681Y50136D01*
X50814Y50456D01*
X50859Y50800D01*
X50814Y51144D01*
X50681Y51464D01*
X50470Y51740D01*
X50194Y51951D01*
X49874Y52084D01*
X49530Y52129D01*
D02*
G37*
G36*
X34220Y41783D02*
X33401D01*
Y40965D01*
X33652Y41069D01*
X33914Y41270D01*
X34115Y41532D01*
X34220Y41783D01*
D02*
G37*
G36*
X32639D02*
X31820D01*
X31925Y41532D01*
X32126Y41270D01*
X32388Y41069D01*
X32639Y40964D01*
Y41783D01*
D02*
G37*
G36*
X84201Y41077D02*
Y40259D01*
X85020D01*
X84915Y40510D01*
X84714Y40772D01*
X84452Y40973D01*
X84201Y41077D01*
D02*
G37*
G36*
X83439Y41078D02*
X83188Y40973D01*
X82926Y40772D01*
X82725Y40510D01*
X82620Y40259D01*
X83439D01*
Y41078D01*
D02*
G37*
G36*
X85020Y39497D02*
X84201D01*
Y38679D01*
X84452Y38783D01*
X84714Y38984D01*
X84915Y39246D01*
X85020Y39497D01*
D02*
G37*
G36*
X83439D02*
X82620D01*
X82725Y39246D01*
X82926Y38984D01*
X83188Y38783D01*
X83439Y38678D01*
Y39497D01*
D02*
G37*
G36*
X102390Y42453D02*
X102017Y42416D01*
X101658Y42307D01*
X101327Y42130D01*
X101036Y41892D01*
X100798Y41602D01*
X100622Y41271D01*
X100513Y40912D01*
X100476Y40538D01*
X100513Y40165D01*
X100622Y39806D01*
X100798Y39475D01*
X101036Y39185D01*
X101327Y38947D01*
X101658Y38770D01*
X102017Y38661D01*
X102390Y38624D01*
X102763Y38661D01*
X103123Y38770D01*
X103454Y38947D01*
X103744Y39185D01*
X103982Y39475D01*
X104159Y39806D01*
X104267Y40165D01*
X104304Y40538D01*
X104267Y40912D01*
X104159Y41271D01*
X103982Y41602D01*
X103744Y41892D01*
X103454Y42130D01*
X103123Y42307D01*
X102763Y42416D01*
X102390Y42453D01*
D02*
G37*
G36*
X95250Y41207D02*
X94906Y41162D01*
X94586Y41029D01*
X94310Y40818D01*
X94099Y40542D01*
X93966Y40222D01*
X93921Y39878D01*
X93966Y39534D01*
X94099Y39214D01*
X94310Y38938D01*
X94586Y38727D01*
X94906Y38594D01*
X95250Y38549D01*
X95594Y38594D01*
X95914Y38727D01*
X96190Y38938D01*
X96401Y39214D01*
X96534Y39534D01*
X96579Y39878D01*
X96534Y40222D01*
X96401Y40542D01*
X96190Y40818D01*
X95914Y41029D01*
X95594Y41162D01*
X95250Y41207D01*
D02*
G37*
G36*
X22352Y40699D02*
X22008Y40654D01*
X21688Y40521D01*
X21412Y40310D01*
X21201Y40034D01*
X21068Y39714D01*
X21023Y39370D01*
X21068Y39026D01*
X21201Y38706D01*
X21412Y38430D01*
X21688Y38219D01*
X22008Y38086D01*
X22352Y38041D01*
X22696Y38086D01*
X23016Y38219D01*
X23292Y38430D01*
X23503Y38706D01*
X23636Y39026D01*
X23681Y39370D01*
X23636Y39714D01*
X23503Y40034D01*
X23292Y40310D01*
X23016Y40521D01*
X22696Y40654D01*
X22352Y40699D01*
D02*
G37*
G36*
X12192D02*
X11848Y40654D01*
X11528Y40521D01*
X11252Y40310D01*
X11041Y40034D01*
X10908Y39714D01*
X10863Y39370D01*
X10908Y39026D01*
X11041Y38706D01*
X11252Y38430D01*
X11528Y38219D01*
X11848Y38086D01*
X12192Y38041D01*
X12536Y38086D01*
X12856Y38219D01*
X13132Y38430D01*
X13343Y38706D01*
X13476Y39026D01*
X13521Y39370D01*
X13476Y39714D01*
X13343Y40034D01*
X13132Y40310D01*
X12856Y40521D01*
X12536Y40654D01*
X12192Y40699D01*
D02*
G37*
G36*
X65532Y39175D02*
X65188Y39130D01*
X64868Y38997D01*
X64592Y38786D01*
X64381Y38510D01*
X64248Y38190D01*
X64203Y37846D01*
X64248Y37502D01*
X64381Y37182D01*
X64592Y36906D01*
X64868Y36695D01*
X65188Y36562D01*
X65532Y36517D01*
X65876Y36562D01*
X66196Y36695D01*
X66472Y36906D01*
X66683Y37182D01*
X66816Y37502D01*
X66861Y37846D01*
X66816Y38190D01*
X66683Y38510D01*
X66472Y38786D01*
X66196Y38997D01*
X65876Y39130D01*
X65532Y39175D01*
D02*
G37*
G36*
X48391Y36957D02*
X47625D01*
Y35997D01*
X47826Y36080D01*
X48067Y36265D01*
X48252Y36506D01*
X48368Y36787D01*
X48391Y36957D01*
D02*
G37*
G36*
X46863D02*
X46097D01*
X46120Y36787D01*
X46236Y36506D01*
X46421Y36265D01*
X46662Y36080D01*
X46863Y35997D01*
Y36957D01*
D02*
G37*
G36*
X12192Y37651D02*
X11848Y37606D01*
X11528Y37473D01*
X11252Y37262D01*
X11041Y36986D01*
X10908Y36666D01*
X10863Y36322D01*
X10908Y35978D01*
X11041Y35658D01*
X11252Y35382D01*
X11528Y35171D01*
X11848Y35038D01*
X12192Y34993D01*
X12536Y35038D01*
X12856Y35171D01*
X13132Y35382D01*
X13343Y35658D01*
X13476Y35978D01*
X13521Y36322D01*
X13476Y36666D01*
X13343Y36986D01*
X13132Y37262D01*
X12856Y37473D01*
X12536Y37606D01*
X12192Y37651D01*
D02*
G37*
G36*
X108740Y41603D02*
X108192Y41560D01*
X107657Y41432D01*
X107150Y41222D01*
X106681Y40934D01*
X106263Y40577D01*
X105906Y40159D01*
X105619Y39691D01*
X105408Y39183D01*
X105280Y38648D01*
X105237Y38100D01*
X105280Y37552D01*
X105408Y37017D01*
X105619Y36510D01*
X105906Y36041D01*
X106263Y35623D01*
X106681Y35266D01*
X107150Y34979D01*
X107657Y34768D01*
X108192Y34640D01*
X108740Y34597D01*
X109288Y34640D01*
X109823Y34768D01*
X110331Y34979D01*
X110799Y35266D01*
X111217Y35623D01*
X111574Y36041D01*
X111862Y36510D01*
X112072Y37017D01*
X112200Y37552D01*
X112243Y38100D01*
X112200Y38648D01*
X112072Y39183D01*
X111862Y39691D01*
X111574Y40159D01*
X111217Y40577D01*
X110799Y40934D01*
X110331Y41222D01*
X109823Y41432D01*
X109288Y41560D01*
X108740Y41603D01*
D02*
G37*
G36*
X104453Y35240D02*
Y33813D01*
X105880D01*
X105781Y34140D01*
X105610Y34460D01*
X105380Y34740D01*
X105100Y34970D01*
X104780Y35141D01*
X104453Y35240D01*
D02*
G37*
G36*
X103691D02*
X103363Y35141D01*
X103043Y34970D01*
X102763Y34740D01*
X102533Y34460D01*
X102362Y34140D01*
X102263Y33813D01*
X103691D01*
Y35240D01*
D02*
G37*
G36*
X15891Y33183D02*
X15766Y33131D01*
X15556Y32970D01*
X15395Y32760D01*
X15294Y32516D01*
X15277Y32385D01*
X15891D01*
Y33183D01*
D02*
G37*
G36*
X22352Y37651D02*
X22008Y37606D01*
X21688Y37473D01*
X21412Y37262D01*
X21201Y36986D01*
X21068Y36666D01*
X21023Y36322D01*
X21068Y35978D01*
X21199Y35663D01*
X18867Y33331D01*
X18832D01*
X18781Y33321D01*
X17205D01*
Y32897D01*
X17078Y32854D01*
X16988Y32970D01*
X16778Y33131D01*
X16653Y33183D01*
Y32004D01*
Y30825D01*
X16778Y30877D01*
X16988Y31038D01*
X17078Y31154D01*
X17205Y31111D01*
Y30687D01*
X19340D01*
Y32375D01*
X19448Y32447D01*
X22035Y35035D01*
X22308Y34999D01*
X24212Y33095D01*
X24185Y32893D01*
X24218Y32644D01*
X24314Y32413D01*
X24467Y32214D01*
X24666Y32061D01*
X24897Y31965D01*
X25146Y31932D01*
X25395Y31965D01*
X25626Y32061D01*
X25825Y32214D01*
X25978Y32413D01*
X26074Y32644D01*
X26107Y32893D01*
X26074Y33142D01*
X25978Y33373D01*
X25825Y33572D01*
X25626Y33725D01*
X25395Y33821D01*
X25146Y33854D01*
X24944Y33827D01*
X23334Y35438D01*
X23503Y35658D01*
X23636Y35978D01*
X23681Y36322D01*
X23636Y36666D01*
X23503Y36986D01*
X23292Y37262D01*
X23016Y37473D01*
X22696Y37606D01*
X22352Y37651D01*
D02*
G37*
G36*
X105880Y33051D02*
X104453D01*
Y31623D01*
X104780Y31722D01*
X105100Y31893D01*
X105380Y32123D01*
X105610Y32403D01*
X105781Y32723D01*
X105880Y33051D01*
D02*
G37*
G36*
X103691D02*
X102263D01*
X102362Y32723D01*
X102533Y32403D01*
X102763Y32123D01*
X103043Y31893D01*
X103363Y31722D01*
X103691Y31623D01*
Y33051D01*
D02*
G37*
G36*
X81153Y31680D02*
Y30861D01*
X81972D01*
X81867Y31112D01*
X81666Y31374D01*
X81404Y31575D01*
X81153Y31680D01*
D02*
G37*
G36*
X80391Y31680D02*
X80140Y31575D01*
X79878Y31374D01*
X79677Y31112D01*
X79572Y30861D01*
X80391D01*
Y31680D01*
D02*
G37*
G36*
X15891Y31623D02*
X15277D01*
X15294Y31492D01*
X15395Y31248D01*
X15556Y31038D01*
X15766Y30877D01*
X15891Y30825D01*
Y31623D01*
D02*
G37*
G36*
X65151Y31426D02*
X64900Y31321D01*
X64638Y31120D01*
X64437Y30858D01*
X64332Y30607D01*
X65151D01*
Y31426D01*
D02*
G37*
G36*
X52324Y31196D02*
X52006Y31154D01*
X51710Y31031D01*
X51456Y30836D01*
X51261Y30582D01*
X51138Y30286D01*
X51118Y30135D01*
X50990D01*
X50970Y30286D01*
X50847Y30582D01*
X50652Y30836D01*
X50398Y31031D01*
X50102Y31154D01*
X49784Y31196D01*
X49466Y31154D01*
X49170Y31031D01*
X48916Y30836D01*
X48721Y30582D01*
X48598Y30286D01*
X48556Y29968D01*
Y29468D01*
X48585Y29251D01*
X48496Y29162D01*
X48376Y29222D01*
X48391Y29337D01*
X46097D01*
X46120Y29167D01*
X46236Y28886D01*
X46421Y28645D01*
X46662Y28460D01*
X46943Y28344D01*
X47244Y28304D01*
X47490Y28336D01*
X47550Y28216D01*
X46718Y27385D01*
X46572Y27446D01*
X46228Y27491D01*
X45884Y27446D01*
X45564Y27313D01*
X45288Y27102D01*
X45077Y26826D01*
X44944Y26506D01*
X44908Y26228D01*
X44780D01*
X44776Y26252D01*
X44644Y26572D01*
X44433Y26848D01*
X44157Y27059D01*
X43837Y27192D01*
X43493Y27237D01*
X43149Y27192D01*
X42828Y27059D01*
X42553Y26848D01*
X42342Y26572D01*
X42209Y26252D01*
X42164Y25908D01*
X42209Y25564D01*
X42342Y25244D01*
X42553Y24968D01*
X42828Y24757D01*
X43149Y24624D01*
X43493Y24579D01*
X43837Y24624D01*
X44157Y24757D01*
X44433Y24968D01*
X44644Y25244D01*
X44776Y25564D01*
X44813Y25842D01*
X44941D01*
X44944Y25818D01*
X45077Y25498D01*
X45288Y25222D01*
X45564Y25011D01*
X45884Y24878D01*
X46228Y24833D01*
X46572Y24878D01*
X46892Y25011D01*
X47168Y25222D01*
X47379Y25498D01*
X47512Y25818D01*
X47557Y26162D01*
X47512Y26506D01*
X47451Y26652D01*
X49139Y28341D01*
X49266Y28288D01*
Y28194D01*
X49305Y27996D01*
X49418Y27828D01*
X52466Y24780D01*
X52634Y24667D01*
X52832Y24628D01*
X53030Y24667D01*
X53198Y24780D01*
X53311Y24948D01*
X53350Y25146D01*
X53311Y25344D01*
X53198Y25512D01*
X50421Y28289D01*
X50448Y28443D01*
X50652Y28600D01*
X50847Y28854D01*
X50970Y29150D01*
X50990Y29301D01*
X51118D01*
X51138Y29150D01*
X51261Y28854D01*
X51456Y28600D01*
X51710Y28405D01*
X52006Y28282D01*
X52324Y28240D01*
X52642Y28282D01*
X52938Y28405D01*
X53192Y28600D01*
X53387Y28854D01*
X53510Y29150D01*
X53552Y29468D01*
Y29968D01*
X53510Y30286D01*
X53387Y30582D01*
X53192Y30836D01*
X52938Y31031D01*
X52642Y31154D01*
X52324Y31196D01*
D02*
G37*
G36*
X47625Y31059D02*
Y30099D01*
X48391D01*
X48368Y30269D01*
X48252Y30550D01*
X48067Y30791D01*
X47826Y30976D01*
X47625Y31059D01*
D02*
G37*
G36*
X46863D02*
X46662Y30976D01*
X46421Y30791D01*
X46236Y30550D01*
X46120Y30269D01*
X46097Y30099D01*
X46863D01*
Y31059D01*
D02*
G37*
G36*
X90043Y30918D02*
Y30099D01*
X90862D01*
X90757Y30350D01*
X90556Y30612D01*
X90294Y30813D01*
X90043Y30918D01*
D02*
G37*
G36*
X89281Y30917D02*
X89030Y30813D01*
X88768Y30612D01*
X88567Y30350D01*
X88462Y30099D01*
X89281D01*
Y30917D01*
D02*
G37*
G36*
X111178Y33664D02*
X110805Y33627D01*
X110446Y33519D01*
X110115Y33342D01*
X109825Y33104D01*
X109587Y32814D01*
X109410Y32483D01*
X109301Y32124D01*
X109264Y31750D01*
X109301Y31377D01*
X109410Y31018D01*
X109587Y30687D01*
X109825Y30396D01*
X110115Y30158D01*
X110446Y29982D01*
X110805Y29873D01*
X111178Y29836D01*
X111552Y29873D01*
X111911Y29982D01*
X112242Y30158D01*
X112532Y30396D01*
X112770Y30687D01*
X112947Y31018D01*
X113056Y31377D01*
X113093Y31750D01*
X113056Y32124D01*
X112947Y32483D01*
X112770Y32814D01*
X112532Y33104D01*
X112242Y33342D01*
X111911Y33519D01*
X111552Y33627D01*
X111178Y33664D01*
D02*
G37*
G36*
X80391Y30099D02*
X79573D01*
X79677Y29848D01*
X79878Y29586D01*
X80140Y29385D01*
X80391Y29281D01*
Y30099D01*
D02*
G37*
G36*
X81971D02*
X81153D01*
Y29280D01*
X81404Y29385D01*
X81666Y29586D01*
X81867Y29848D01*
X81971Y30099D01*
D02*
G37*
G36*
X65151Y29845D02*
X64332D01*
X64437Y29594D01*
X64638Y29332D01*
X64900Y29131D01*
X65151Y29026D01*
Y29845D01*
D02*
G37*
G36*
X89281Y29337D02*
X88463D01*
X88567Y29086D01*
X88768Y28824D01*
X89030Y28623D01*
X89281Y28518D01*
Y29337D01*
D02*
G37*
G36*
X90862D02*
X90043D01*
Y28518D01*
X90294Y28623D01*
X90556Y28824D01*
X90757Y29086D01*
X90862Y29337D01*
D02*
G37*
G36*
X62230Y40585D02*
X61981Y40552D01*
X61750Y40456D01*
X61551Y40303D01*
X61398Y40104D01*
X61302Y39873D01*
X61269Y39624D01*
X61302Y39375D01*
X61398Y39144D01*
X61551Y38945D01*
X61712Y38821D01*
Y13767D01*
X61652Y13688D01*
X61556Y13457D01*
X61523Y13208D01*
X61556Y12959D01*
X61652Y12728D01*
X61805Y12529D01*
X62004Y12376D01*
X62235Y12280D01*
X62484Y12247D01*
X62733Y12280D01*
X62964Y12376D01*
X63109Y12487D01*
X63236Y12424D01*
Y6116D01*
X63141Y6032D01*
X63044Y6045D01*
X62662Y5995D01*
X62307Y5848D01*
X62002Y5614D01*
X61768Y5309D01*
X61621Y4953D01*
X61570Y4572D01*
X61621Y4191D01*
X61768Y3835D01*
X62002Y3530D01*
X62307Y3296D01*
X62662Y3149D01*
X63044Y3099D01*
X63425Y3149D01*
X63780Y3296D01*
X64085Y3530D01*
X64319Y3835D01*
X64466Y4191D01*
X64517Y4572D01*
X64466Y4953D01*
X64319Y5309D01*
X64187Y5481D01*
X64233Y5549D01*
X64272Y5748D01*
X64272Y5748D01*
Y15806D01*
X64418Y15867D01*
X64694Y16078D01*
X64905Y16354D01*
X65038Y16674D01*
X65083Y17018D01*
X65038Y17362D01*
X64905Y17682D01*
X64694Y17958D01*
X64418Y18169D01*
X64098Y18302D01*
X63754Y18347D01*
X63410Y18302D01*
X63090Y18169D01*
X62875Y18004D01*
X62748Y18067D01*
Y26129D01*
X62875Y26192D01*
X63090Y26027D01*
X63410Y25894D01*
X63754Y25849D01*
X64098Y25894D01*
X64418Y26027D01*
X64694Y26238D01*
X64905Y26514D01*
X65038Y26834D01*
X65083Y27178D01*
X65038Y27522D01*
X64905Y27842D01*
X64694Y28118D01*
X64418Y28329D01*
X64098Y28462D01*
X63754Y28507D01*
X63410Y28462D01*
X63090Y28329D01*
X62875Y28164D01*
X62748Y28227D01*
Y38821D01*
X62909Y38945D01*
X63062Y39144D01*
X63158Y39375D01*
X63191Y39624D01*
X63158Y39873D01*
X63062Y40104D01*
X62909Y40303D01*
X62710Y40456D01*
X62479Y40552D01*
X62230Y40585D01*
D02*
G37*
G36*
X83820Y31047D02*
X83476Y31002D01*
X83156Y30869D01*
X82880Y30658D01*
X82669Y30382D01*
X82536Y30062D01*
X82491Y29718D01*
X82536Y29374D01*
X82669Y29054D01*
X82880Y28778D01*
X83156Y28567D01*
X83476Y28434D01*
X83820Y28389D01*
X84164Y28434D01*
X84251Y28471D01*
X84366Y28384D01*
Y25919D01*
X84295Y25864D01*
X84163Y25692D01*
X84127Y25606D01*
X83989D01*
X83954Y25692D01*
X83821Y25864D01*
X83649Y25997D01*
X83448Y26080D01*
X83233Y26108D01*
X83017Y26080D01*
X82816Y25997D01*
X82644Y25864D01*
X82512Y25692D01*
X82428Y25491D01*
X82400Y25276D01*
Y24006D01*
X82428Y23790D01*
X82512Y23589D01*
X82644Y23417D01*
X82816Y23285D01*
X83017Y23201D01*
X83233Y23173D01*
X83448Y23201D01*
X83649Y23285D01*
X83821Y23417D01*
X83954Y23589D01*
X83989Y23675D01*
X84127D01*
X84163Y23589D01*
X84295Y23417D01*
X84467Y23285D01*
X84668Y23201D01*
X84884Y23173D01*
X85099Y23201D01*
X85300Y23285D01*
X85472Y23417D01*
X85605Y23589D01*
X85640Y23675D01*
X85778D01*
X85814Y23589D01*
X85946Y23417D01*
X86118Y23285D01*
X86319Y23201D01*
X86535Y23173D01*
X86750Y23201D01*
X86951Y23285D01*
X87123Y23417D01*
X87256Y23589D01*
X87339Y23790D01*
X87367Y24006D01*
Y25276D01*
X87339Y25491D01*
X87256Y25692D01*
X87123Y25864D01*
X86951Y25997D01*
X86750Y26080D01*
X86535Y26108D01*
X86319Y26080D01*
X86118Y25997D01*
X85946Y25864D01*
X85814Y25692D01*
X85778Y25606D01*
X85640D01*
X85605Y25692D01*
X85472Y25864D01*
X85402Y25919D01*
Y28654D01*
X85362Y28853D01*
X85250Y29021D01*
X85043Y29228D01*
X85104Y29374D01*
X85149Y29718D01*
X85104Y30062D01*
X84971Y30382D01*
X84760Y30658D01*
X84484Y30869D01*
X84164Y31002D01*
X83820Y31047D01*
D02*
G37*
G36*
X95250D02*
X94906Y31002D01*
X94586Y30869D01*
X94310Y30658D01*
X94099Y30382D01*
X93966Y30062D01*
X93921Y29718D01*
X93966Y29374D01*
X94099Y29054D01*
X94310Y28778D01*
X94513Y28623D01*
X94530Y28461D01*
X93233Y27163D01*
X93120Y26995D01*
X93081Y26797D01*
Y25916D01*
X93010Y25862D01*
X92878Y25689D01*
X92842Y25603D01*
X92705D01*
X92669Y25689D01*
X92537Y25862D01*
X92466Y25916D01*
Y26274D01*
X92822Y26631D01*
X92935Y26799D01*
X92974Y26997D01*
Y28506D01*
X93120Y28567D01*
X93396Y28778D01*
X93607Y29054D01*
X93740Y29374D01*
X93785Y29718D01*
X93740Y30062D01*
X93607Y30382D01*
X93396Y30658D01*
X93120Y30869D01*
X92800Y31002D01*
X92456Y31047D01*
X92112Y31002D01*
X91792Y30869D01*
X91516Y30658D01*
X91305Y30382D01*
X91172Y30062D01*
X91127Y29718D01*
X91172Y29374D01*
X91305Y29054D01*
X91516Y28778D01*
X91792Y28567D01*
X91938Y28506D01*
Y27211D01*
X91582Y26855D01*
X91469Y26687D01*
X91430Y26489D01*
Y25916D01*
X91359Y25862D01*
X91227Y25689D01*
X91191Y25603D01*
X91054D01*
X91018Y25689D01*
X90886Y25862D01*
X90713Y25994D01*
X90512Y26077D01*
X90297Y26106D01*
X90081Y26077D01*
X89881Y25994D01*
X89708Y25862D01*
X89576Y25689D01*
X89493Y25489D01*
X89464Y25273D01*
Y24003D01*
X89493Y23788D01*
X89576Y23587D01*
X89708Y23414D01*
X89881Y23282D01*
X90081Y23199D01*
X90297Y23170D01*
X90512Y23199D01*
X90713Y23282D01*
X90886Y23414D01*
X91018Y23587D01*
X91054Y23673D01*
X91191D01*
X91227Y23587D01*
X91359Y23414D01*
X91532Y23282D01*
X91732Y23199D01*
X91948Y23170D01*
X92163Y23199D01*
X92364Y23282D01*
X92537Y23414D01*
X92669Y23587D01*
X92705Y23673D01*
X92842D01*
X92878Y23587D01*
X93010Y23414D01*
X93183Y23282D01*
X93383Y23199D01*
X93599Y23170D01*
X93814Y23199D01*
X94015Y23282D01*
X94188Y23414D01*
X94320Y23587D01*
X94403Y23788D01*
X94432Y24003D01*
Y25273D01*
X94403Y25489D01*
X94320Y25689D01*
X94188Y25862D01*
X94117Y25916D01*
Y26582D01*
X95538Y28003D01*
X95650Y28171D01*
X95690Y28370D01*
Y28474D01*
X95914Y28567D01*
X96190Y28778D01*
X96401Y29054D01*
X96534Y29374D01*
X96579Y29718D01*
X96534Y30062D01*
X96401Y30382D01*
X96190Y30658D01*
X95914Y30869D01*
X95594Y31002D01*
X95250Y31047D01*
D02*
G37*
G36*
X40640Y27237D02*
X40296Y27192D01*
X39976Y27059D01*
X39700Y26848D01*
X39489Y26572D01*
X39356Y26252D01*
X39311Y25908D01*
X39356Y25564D01*
X39489Y25244D01*
X39700Y24968D01*
X39976Y24757D01*
X40296Y24624D01*
X40640Y24579D01*
X40984Y24624D01*
X41304Y24757D01*
X41580Y24968D01*
X41791Y25244D01*
X41924Y25564D01*
X41969Y25908D01*
X41924Y26252D01*
X41791Y26572D01*
X41580Y26848D01*
X41304Y27059D01*
X40984Y27192D01*
X40640Y27237D01*
D02*
G37*
G36*
X37846D02*
X37502Y27192D01*
X37182Y27059D01*
X36906Y26848D01*
X36695Y26572D01*
X36562Y26252D01*
X36517Y25908D01*
X36562Y25564D01*
X36695Y25244D01*
X36906Y24968D01*
X37182Y24757D01*
X37502Y24624D01*
X37846Y24579D01*
X38190Y24624D01*
X38510Y24757D01*
X38786Y24968D01*
X38997Y25244D01*
X39130Y25564D01*
X39175Y25908D01*
X39130Y26252D01*
X38997Y26572D01*
X38786Y26848D01*
X38510Y27059D01*
X38190Y27192D01*
X37846Y27237D01*
D02*
G37*
G36*
X74930Y21622D02*
X74927Y21621D01*
X74768Y21498D01*
X74645Y21339D01*
X74569Y21154D01*
X74542Y20955D01*
Y20701D01*
X74930D01*
Y21622D01*
D02*
G37*
G36*
Y19939D02*
X74542D01*
Y19685D01*
X74569Y19486D01*
X74645Y19301D01*
X74768Y19142D01*
X74927Y19019D01*
X74930Y19018D01*
Y19939D01*
D02*
G37*
G36*
X69977Y18472D02*
Y17653D01*
X70796D01*
X70691Y17904D01*
X70490Y18166D01*
X70228Y18367D01*
X69977Y18472D01*
D02*
G37*
G36*
X69215Y18472D02*
X68964Y18367D01*
X68702Y18166D01*
X68501Y17904D01*
X68396Y17653D01*
X69215D01*
Y18472D01*
D02*
G37*
G36*
X75565Y18218D02*
Y17399D01*
X76383D01*
X76279Y17650D01*
X76078Y17912D01*
X75816Y18113D01*
X75565Y18218D01*
D02*
G37*
G36*
X74803D02*
X74552Y18113D01*
X74290Y17912D01*
X74089Y17650D01*
X73984Y17399D01*
X74803D01*
Y18218D01*
D02*
G37*
G36*
X108181Y20964D02*
X107808Y20927D01*
X107449Y20819D01*
X107118Y20642D01*
X106828Y20404D01*
X106590Y20114D01*
X106413Y19783D01*
X106304Y19423D01*
X106267Y19050D01*
X106304Y18677D01*
X106413Y18317D01*
X106590Y17987D01*
X106828Y17696D01*
X107118Y17458D01*
X107449Y17282D01*
X107808Y17173D01*
X108181Y17136D01*
X108555Y17173D01*
X108914Y17282D01*
X109245Y17458D01*
X109535Y17696D01*
X109773Y17987D01*
X109950Y18317D01*
X110059Y18677D01*
X110095Y19050D01*
X110059Y19423D01*
X109950Y19783D01*
X109773Y20114D01*
X109535Y20404D01*
X109245Y20642D01*
X108914Y20819D01*
X108555Y20927D01*
X108181Y20964D01*
D02*
G37*
G36*
X32258Y27237D02*
X31914Y27192D01*
X31594Y27059D01*
X31318Y26848D01*
X31107Y26572D01*
X30974Y26252D01*
X30929Y25908D01*
X30974Y25564D01*
X31107Y25244D01*
X31318Y24968D01*
X31594Y24757D01*
X31740Y24696D01*
Y18757D01*
X29954Y16971D01*
X29808Y17032D01*
X29464Y17077D01*
X29120Y17032D01*
X28800Y16899D01*
X28524Y16688D01*
X28313Y16412D01*
X28180Y16092D01*
X28135Y15748D01*
X28180Y15404D01*
X28313Y15084D01*
X28524Y14808D01*
X28800Y14597D01*
X29120Y14464D01*
X29464Y14419D01*
X29808Y14464D01*
X30128Y14597D01*
X30404Y14808D01*
X30615Y15084D01*
X30748Y15404D01*
X30793Y15748D01*
X30748Y16092D01*
X30687Y16238D01*
X32624Y18176D01*
X32737Y18344D01*
X32776Y18542D01*
Y24696D01*
X32922Y24757D01*
X33198Y24968D01*
X33409Y25244D01*
X33542Y25564D01*
X33587Y25908D01*
X33542Y26252D01*
X33409Y26572D01*
X33198Y26848D01*
X32922Y27059D01*
X32602Y27192D01*
X32258Y27237D01*
D02*
G37*
G36*
X66802Y19109D02*
X66458Y19064D01*
X66138Y18931D01*
X65862Y18720D01*
X65651Y18444D01*
X65518Y18124D01*
X65473Y17780D01*
X65518Y17436D01*
X65651Y17116D01*
X65862Y16840D01*
X66138Y16629D01*
X66458Y16496D01*
X66802Y16451D01*
X67146Y16496D01*
X67466Y16629D01*
X67742Y16840D01*
X67953Y17116D01*
X68086Y17436D01*
X68131Y17780D01*
X68086Y18124D01*
X67953Y18444D01*
X67742Y18720D01*
X67466Y18931D01*
X67146Y19064D01*
X66802Y19109D01*
D02*
G37*
G36*
X69215Y16891D02*
X68396D01*
X68501Y16640D01*
X68702Y16378D01*
X68964Y16177D01*
X69215Y16073D01*
Y16891D01*
D02*
G37*
G36*
X70796D02*
X69977D01*
Y16072D01*
X70228Y16177D01*
X70490Y16378D01*
X70691Y16640D01*
X70796Y16891D01*
D02*
G37*
G36*
X76383Y16637D02*
X75565D01*
Y15818D01*
X75816Y15923D01*
X76078Y16124D01*
X76279Y16386D01*
X76383Y16637D01*
D02*
G37*
G36*
X74803D02*
X73984D01*
X74089Y16386D01*
X74290Y16124D01*
X74552Y15923D01*
X74803Y15818D01*
Y16637D01*
D02*
G37*
G36*
X85344Y18347D02*
X85000Y18302D01*
X84680Y18169D01*
X84404Y17958D01*
X84193Y17682D01*
X84060Y17362D01*
X84015Y17018D01*
X84060Y16674D01*
X84193Y16354D01*
X84404Y16078D01*
X84680Y15867D01*
X85000Y15734D01*
X85344Y15689D01*
X85688Y15734D01*
X86008Y15867D01*
X86284Y16078D01*
X86495Y16354D01*
X86628Y16674D01*
X86673Y17018D01*
X86628Y17362D01*
X86495Y17682D01*
X86284Y17958D01*
X86008Y18169D01*
X85688Y18302D01*
X85344Y18347D01*
D02*
G37*
G36*
X35052Y27237D02*
X34708Y27192D01*
X34388Y27059D01*
X34112Y26848D01*
X33901Y26572D01*
X33768Y26252D01*
X33723Y25908D01*
X33768Y25564D01*
X33901Y25244D01*
X34112Y24968D01*
X34388Y24757D01*
X34534Y24696D01*
Y18542D01*
X34573Y18344D01*
X34686Y18176D01*
X36623Y16238D01*
X36562Y16092D01*
X36517Y15748D01*
X36562Y15404D01*
X36695Y15084D01*
X36906Y14808D01*
X37182Y14597D01*
X37502Y14464D01*
X37846Y14419D01*
X38190Y14464D01*
X38510Y14597D01*
X38786Y14808D01*
X38997Y15084D01*
X39130Y15404D01*
X39175Y15748D01*
X39130Y16092D01*
X38997Y16412D01*
X38786Y16688D01*
X38510Y16899D01*
X38190Y17032D01*
X37846Y17077D01*
X37502Y17032D01*
X37356Y16971D01*
X35570Y18757D01*
Y24696D01*
X35716Y24757D01*
X35992Y24968D01*
X36203Y25244D01*
X36336Y25564D01*
X36381Y25908D01*
X36336Y26252D01*
X36203Y26572D01*
X35992Y26848D01*
X35716Y27059D01*
X35396Y27192D01*
X35052Y27237D01*
D02*
G37*
G36*
Y17077D02*
X34708Y17032D01*
X34388Y16899D01*
X34112Y16688D01*
X33901Y16412D01*
X33768Y16092D01*
X33723Y15748D01*
X33768Y15404D01*
X33901Y15084D01*
X34112Y14808D01*
X34388Y14597D01*
X34708Y14464D01*
X35052Y14419D01*
X35396Y14464D01*
X35716Y14597D01*
X35992Y14808D01*
X36203Y15084D01*
X36336Y15404D01*
X36381Y15748D01*
X36336Y16092D01*
X36203Y16412D01*
X35992Y16688D01*
X35716Y16899D01*
X35396Y17032D01*
X35052Y17077D01*
D02*
G37*
G36*
X102390Y17053D02*
X102017Y17016D01*
X101657Y16907D01*
X101327Y16730D01*
X101036Y16492D01*
X100798Y16202D01*
X100622Y15871D01*
X100513Y15512D01*
X100476Y15138D01*
X100513Y14765D01*
X100622Y14406D01*
X100798Y14075D01*
X101036Y13785D01*
X101327Y13547D01*
X101657Y13370D01*
X102017Y13261D01*
X102390Y13224D01*
X102763Y13261D01*
X103123Y13370D01*
X103453Y13547D01*
X103744Y13785D01*
X103982Y14075D01*
X104159Y14406D01*
X104267Y14765D01*
X104304Y15138D01*
X104267Y15512D01*
X104159Y15871D01*
X103982Y16202D01*
X103744Y16492D01*
X103453Y16730D01*
X103123Y16907D01*
X102763Y17016D01*
X102390Y17053D01*
D02*
G37*
G36*
X49022Y17331D02*
X48678Y17286D01*
X48358Y17153D01*
X48082Y16942D01*
X47871Y16666D01*
X47738Y16346D01*
X47693Y16002D01*
X47738Y15658D01*
X47871Y15338D01*
X48082Y15062D01*
X48358Y14851D01*
X48504Y14790D01*
Y7926D01*
X48543Y7727D01*
X48656Y7559D01*
X51043Y5172D01*
X50953Y4953D01*
X50902Y4572D01*
X50953Y4191D01*
X51044Y3970D01*
X50936Y3898D01*
X49436Y5398D01*
X49425Y5454D01*
X49313Y5622D01*
X44011Y10924D01*
Y14536D01*
X44157Y14597D01*
X44433Y14808D01*
X44644Y15084D01*
X44776Y15404D01*
X44813Y15682D01*
X44941D01*
X44944Y15658D01*
X45077Y15338D01*
X45288Y15062D01*
X45564Y14851D01*
X45710Y14790D01*
Y12389D01*
X45471Y12358D01*
X45240Y12262D01*
X45041Y12109D01*
X44888Y11910D01*
X44792Y11679D01*
X44759Y11430D01*
X44792Y11181D01*
X44888Y10950D01*
X45041Y10751D01*
X45240Y10598D01*
X45471Y10502D01*
X45720Y10469D01*
X45969Y10502D01*
X46200Y10598D01*
X46399Y10751D01*
X46552Y10950D01*
X46648Y11181D01*
X46681Y11430D01*
X46651Y11657D01*
X46707Y11740D01*
X46746Y11938D01*
Y14790D01*
X46892Y14851D01*
X47168Y15062D01*
X47379Y15338D01*
X47512Y15658D01*
X47557Y16002D01*
X47512Y16346D01*
X47379Y16666D01*
X47168Y16942D01*
X46892Y17153D01*
X46572Y17286D01*
X46228Y17331D01*
X45884Y17286D01*
X45564Y17153D01*
X45288Y16942D01*
X45077Y16666D01*
X44944Y16346D01*
X44908Y16068D01*
X44780D01*
X44776Y16092D01*
X44644Y16412D01*
X44433Y16688D01*
X44157Y16899D01*
X43837Y17032D01*
X43493Y17077D01*
X43149Y17032D01*
X42828Y16899D01*
X42553Y16688D01*
X42342Y16412D01*
X42209Y16092D01*
X42164Y15748D01*
X42209Y15404D01*
X42342Y15084D01*
X42553Y14808D01*
X42828Y14597D01*
X42975Y14536D01*
Y10710D01*
X43014Y10511D01*
X43127Y10343D01*
X47306Y6164D01*
X47251Y6039D01*
X46914Y5995D01*
X46559Y5848D01*
X46254Y5614D01*
X46020Y5309D01*
X45929Y5090D01*
X36537D01*
X32776Y8851D01*
Y14536D01*
X32922Y14597D01*
X33198Y14808D01*
X33409Y15084D01*
X33542Y15404D01*
X33587Y15748D01*
X33542Y16092D01*
X33409Y16412D01*
X33198Y16688D01*
X32922Y16899D01*
X32602Y17032D01*
X32258Y17077D01*
X31914Y17032D01*
X31594Y16899D01*
X31318Y16688D01*
X31107Y16412D01*
X30974Y16092D01*
X30929Y15748D01*
X30974Y15404D01*
X31107Y15084D01*
X31318Y14808D01*
X31594Y14597D01*
X31740Y14536D01*
Y10679D01*
X31613Y10670D01*
X31584Y10894D01*
X31451Y11214D01*
X31240Y11490D01*
X30964Y11701D01*
X30644Y11834D01*
X30300Y11879D01*
X29956Y11834D01*
X29636Y11701D01*
X29360Y11490D01*
X29149Y11214D01*
X29016Y10894D01*
X28971Y10550D01*
X29016Y10206D01*
X29149Y9886D01*
X29360Y9610D01*
X29636Y9399D01*
X29903Y9288D01*
X29886Y9158D01*
X29882Y9158D01*
X29562Y9025D01*
X29286Y8814D01*
X29075Y8538D01*
X28942Y8218D01*
X28897Y7874D01*
X28942Y7530D01*
X29075Y7210D01*
X29286Y6934D01*
X29562Y6723D01*
X29882Y6590D01*
X30226Y6545D01*
X30570Y6590D01*
X30890Y6723D01*
X31166Y6934D01*
X31377Y7210D01*
X31510Y7530D01*
X31555Y7874D01*
X31510Y8218D01*
X31377Y8538D01*
X31166Y8814D01*
X30890Y9025D01*
X30623Y9136D01*
X30640Y9266D01*
X30644Y9266D01*
X30964Y9399D01*
X31240Y9610D01*
X31451Y9886D01*
X31584Y10206D01*
X31613Y10430D01*
X31740Y10422D01*
Y8636D01*
X31779Y8438D01*
X31892Y8270D01*
X35956Y4206D01*
X36124Y4093D01*
X36322Y4054D01*
X45929D01*
X46020Y3835D01*
X46254Y3530D01*
X46559Y3296D01*
X46914Y3149D01*
X47296Y3099D01*
X47677Y3149D01*
X48032Y3296D01*
X48337Y3530D01*
X48571Y3835D01*
X48718Y4191D01*
X48751Y4439D01*
X48885Y4484D01*
X51450Y1920D01*
X51618Y1807D01*
X51816Y1768D01*
X55678D01*
X55876Y1807D01*
X56044Y1920D01*
X57364Y3240D01*
X57582Y3149D01*
X57964Y3099D01*
X58345Y3149D01*
X58700Y3296D01*
X59005Y3530D01*
X59239Y3835D01*
X59386Y4191D01*
X59437Y4572D01*
X59386Y4953D01*
X59239Y5309D01*
X59005Y5614D01*
X58700Y5848D01*
X58345Y5995D01*
X57964Y6045D01*
X57582Y5995D01*
X57227Y5848D01*
X56922Y5614D01*
X56688Y5309D01*
X56541Y4953D01*
X56490Y4572D01*
X56541Y4191D01*
X56631Y3972D01*
X55463Y2804D01*
X52031D01*
X51702Y3133D01*
X51774Y3241D01*
X51994Y3149D01*
X52376Y3099D01*
X52757Y3149D01*
X53112Y3296D01*
X53417Y3530D01*
X53651Y3835D01*
X53798Y4191D01*
X53849Y4572D01*
X53798Y4953D01*
X53651Y5309D01*
X53417Y5614D01*
X53112Y5848D01*
X52757Y5995D01*
X52376Y6045D01*
X51994Y5995D01*
X51776Y5904D01*
X49540Y8140D01*
Y14790D01*
X49686Y14851D01*
X49962Y15062D01*
X50173Y15338D01*
X50306Y15658D01*
X50351Y16002D01*
X50306Y16346D01*
X50173Y16666D01*
X49962Y16942D01*
X49686Y17153D01*
X49366Y17286D01*
X49022Y17331D01*
D02*
G37*
G36*
X108740Y16203D02*
X108192Y16160D01*
X107657Y16032D01*
X107150Y15822D01*
X106681Y15534D01*
X106263Y15177D01*
X105906Y14759D01*
X105619Y14290D01*
X105408Y13783D01*
X105280Y13248D01*
X105237Y12700D01*
X105280Y12152D01*
X105408Y11617D01*
X105619Y11110D01*
X105906Y10641D01*
X106263Y10223D01*
X106681Y9866D01*
X107150Y9579D01*
X107657Y9368D01*
X108192Y9240D01*
X108740Y9197D01*
X109288Y9240D01*
X109823Y9368D01*
X110330Y9579D01*
X110799Y9866D01*
X111217Y10223D01*
X111574Y10641D01*
X111861Y11110D01*
X112072Y11617D01*
X112200Y12152D01*
X112243Y12700D01*
X112200Y13248D01*
X112072Y13783D01*
X111861Y14290D01*
X111574Y14759D01*
X111217Y15177D01*
X110799Y15534D01*
X110330Y15822D01*
X109823Y16032D01*
X109288Y16160D01*
X108740Y16203D01*
D02*
G37*
G36*
X104452Y9840D02*
Y8413D01*
X105880D01*
X105781Y8740D01*
X105610Y9060D01*
X105380Y9340D01*
X105100Y9570D01*
X104780Y9741D01*
X104452Y9840D01*
D02*
G37*
G36*
X103690D02*
X103363Y9741D01*
X103043Y9570D01*
X102763Y9340D01*
X102533Y9060D01*
X102362Y8740D01*
X102263Y8413D01*
X103690D01*
Y9840D01*
D02*
G37*
G36*
X105880Y7651D02*
X104452D01*
Y6223D01*
X104780Y6322D01*
X105100Y6493D01*
X105380Y6723D01*
X105610Y7003D01*
X105781Y7323D01*
X105880Y7651D01*
D02*
G37*
G36*
X103690D02*
X102263D01*
X102362Y7323D01*
X102533Y7003D01*
X102763Y6723D01*
X103043Y6493D01*
X103363Y6322D01*
X103690Y6223D01*
Y7651D01*
D02*
G37*
G36*
X111178Y8264D02*
X110805Y8227D01*
X110446Y8119D01*
X110115Y7942D01*
X109825Y7704D01*
X109587Y7414D01*
X109410Y7083D01*
X109301Y6723D01*
X109264Y6350D01*
X109301Y5977D01*
X109410Y5617D01*
X109587Y5287D01*
X109825Y4996D01*
X110115Y4758D01*
X110446Y4582D01*
X110805Y4473D01*
X111178Y4436D01*
X111552Y4473D01*
X111911Y4582D01*
X112242Y4758D01*
X112532Y4996D01*
X112770Y5287D01*
X112947Y5617D01*
X113056Y5977D01*
X113093Y6350D01*
X113056Y6723D01*
X112947Y7083D01*
X112770Y7414D01*
X112532Y7704D01*
X112242Y7942D01*
X111911Y8119D01*
X111552Y8227D01*
X111178Y8264D01*
D02*
G37*
G36*
X84380Y6045D02*
X83998Y5995D01*
X83643Y5848D01*
X83338Y5614D01*
X83104Y5309D01*
X82957Y4953D01*
X82906Y4572D01*
X82957Y4191D01*
X83104Y3835D01*
X83338Y3530D01*
X83643Y3296D01*
X83998Y3149D01*
X84380Y3099D01*
X84761Y3149D01*
X85116Y3296D01*
X85421Y3530D01*
X85655Y3835D01*
X85802Y4191D01*
X85853Y4572D01*
X85802Y4953D01*
X85655Y5309D01*
X85421Y5614D01*
X85116Y5848D01*
X84761Y5995D01*
X84380Y6045D01*
D02*
G37*
G36*
X67056Y14791D02*
X66712Y14746D01*
X66392Y14613D01*
X66116Y14402D01*
X65905Y14126D01*
X65772Y13806D01*
X65727Y13462D01*
X65772Y13118D01*
X65905Y12798D01*
X66116Y12522D01*
X66392Y12311D01*
X66712Y12178D01*
X67056Y12133D01*
X67400Y12178D01*
X67720Y12311D01*
X67996Y12522D01*
X68184Y12768D01*
X70827D01*
X73194Y10402D01*
Y5938D01*
X72975Y5848D01*
X72670Y5614D01*
X72436Y5309D01*
X72289Y4953D01*
X72238Y4572D01*
X72289Y4191D01*
X72436Y3835D01*
X72670Y3530D01*
X72975Y3296D01*
X73330Y3149D01*
X73712Y3099D01*
X74093Y3149D01*
X74448Y3296D01*
X74753Y3530D01*
X74987Y3835D01*
X75134Y4191D01*
X75185Y4572D01*
X75134Y4953D01*
X74987Y5309D01*
X74753Y5614D01*
X74448Y5848D01*
X74230Y5938D01*
Y10616D01*
X74230Y10616D01*
X74190Y10815D01*
X74078Y10983D01*
X71408Y13653D01*
X71240Y13765D01*
X71042Y13804D01*
X68340D01*
X68340Y13806D01*
X68207Y14126D01*
X67996Y14402D01*
X67720Y14613D01*
X67400Y14746D01*
X67056Y14791D01*
D02*
G37*
G36*
X68632Y6045D02*
X68250Y5995D01*
X67895Y5848D01*
X67590Y5614D01*
X67356Y5309D01*
X67209Y4953D01*
X67158Y4572D01*
X67209Y4191D01*
X67356Y3835D01*
X67590Y3530D01*
X67895Y3296D01*
X68250Y3149D01*
X68632Y3099D01*
X69013Y3149D01*
X69368Y3296D01*
X69673Y3530D01*
X69907Y3835D01*
X70054Y4191D01*
X70105Y4572D01*
X70054Y4953D01*
X69907Y5309D01*
X69673Y5614D01*
X69368Y5848D01*
X69013Y5995D01*
X68632Y6045D01*
D02*
G37*
%LPD*%
G36*
X57816Y39614D02*
X57753Y39497D01*
X57668Y39514D01*
X53304D01*
X53282Y39580D01*
X53270Y39641D01*
X53475Y39907D01*
X53536Y40054D01*
X57376D01*
X57816Y39614D01*
D02*
G37*
%LPC*%
G36*
X71258Y31757D02*
X70485D01*
Y30734D01*
X71258D01*
Y31757D01*
D02*
G37*
G36*
Y29972D02*
X70485D01*
Y28949D01*
X71258D01*
Y29972D01*
D02*
G37*
G36*
X69723D02*
X68950D01*
Y28949D01*
X69723D01*
Y29972D01*
D02*
G37*
%LPD*%
D14*
X157734Y-81042D02*
X158400D01*
X158067D01*
Y-82042D01*
X159234Y-81042D02*
X158900D01*
X158734Y-81209D01*
Y-81875D01*
X158900Y-82042D01*
X159234D01*
X159400Y-81875D01*
Y-81209D01*
X159234Y-81042D01*
X159733Y-82042D02*
Y-81042D01*
X160233D01*
X160400Y-81209D01*
Y-81542D01*
X160233Y-81709D01*
X159733D01*
X161733Y-81042D02*
Y-82042D01*
X162399D01*
X162732D02*
Y-81376D01*
X163066Y-81042D01*
X163399Y-81376D01*
Y-82042D01*
Y-81542D01*
X162732D01*
X163732Y-81042D02*
Y-81209D01*
X164065Y-81542D01*
X164399Y-81209D01*
Y-81042D01*
X164065Y-81542D02*
Y-82042D01*
X165398Y-81042D02*
X164732D01*
Y-82042D01*
X165398D01*
X164732Y-81542D02*
X165065D01*
X165731Y-82042D02*
Y-81042D01*
X166231D01*
X166398Y-81209D01*
Y-81542D01*
X166231Y-81709D01*
X165731D01*
X166065D02*
X166398Y-82042D01*
D22*
X86535Y24641D02*
D03*
X84884D02*
D03*
X83233D02*
D03*
X75311Y20320D02*
D03*
X76962D02*
D03*
X78613D02*
D03*
X90297Y24638D02*
D03*
X91948D02*
D03*
X93599D02*
D03*
D27*
X82042Y47625D02*
D03*
Y45974D02*
D03*
Y44323D02*
D03*
D30*
X45720Y11430D02*
X46228Y11938D01*
Y16002D01*
X32258Y8636D02*
X36322Y4572D01*
X55880Y71374D02*
X57912Y69342D01*
X36576Y71374D02*
X55880D01*
X45704Y53848D02*
Y67294D01*
X47752Y69342D01*
X48006Y53312D02*
Y64516D01*
X52832Y69342D01*
X98298Y38100D02*
Y45974D01*
X97282Y37084D02*
X98298Y38100D01*
X90393Y37084D02*
X97282D01*
X89662Y37815D02*
X90393Y37084D01*
X98298Y45974D02*
X101600Y49276D01*
X89662Y37815D02*
Y39878D01*
X53150Y57468D02*
X67236D01*
X47244Y51562D02*
X53150Y57468D01*
X67236D02*
X79111Y69342D01*
X33020Y67818D02*
X36576Y71374D01*
X33020Y49784D02*
Y67818D01*
X46546Y51851D02*
X48006Y53312D01*
X46546Y47524D02*
Y51851D01*
X39407Y40386D02*
X46546Y47524D01*
X47244Y44450D02*
Y51562D01*
X45974Y43180D02*
X47244Y44450D01*
X45720Y43180D02*
X45974D01*
X37084Y40386D02*
X39407D01*
X80036Y8890D02*
Y23088D01*
X79300Y4572D02*
Y8154D01*
X80036Y8890D01*
X55678Y2286D02*
X57964Y4572D01*
X51816Y2286D02*
X55678D01*
X48947Y5155D02*
Y5256D01*
Y5155D02*
X51816Y2286D01*
X43493Y10710D02*
Y15748D01*
Y10710D02*
X48947Y5256D01*
X40640Y15748D02*
X44390Y19498D01*
X79197Y35094D02*
Y39615D01*
X77724Y33621D02*
X79197Y35094D01*
X88138Y31242D02*
Y41647D01*
X77724Y30353D02*
Y33621D01*
X59309Y21660D02*
Y38853D01*
X57147Y19498D02*
X59309Y21660D01*
X57590Y40572D02*
X59309Y38853D01*
X60452Y22860D02*
Y38698D01*
X56034Y43116D02*
X60452Y38698D01*
X117602Y34290D02*
Y43434D01*
X111760Y49276D02*
X117602Y43434D01*
X105156Y49276D02*
X111760D01*
X105184Y48260D02*
X111760D01*
X97374Y56071D02*
X105184Y48260D01*
X77884Y56071D02*
X97374D01*
X75438Y53625D02*
X77884Y56071D01*
X59055Y56769D02*
X97663D01*
X105156Y49276D01*
X53328Y51042D02*
X59055Y56769D01*
X115090Y31778D02*
X117602Y34290D01*
X115090Y12141D02*
Y31778D01*
X115090Y37541D02*
Y44930D01*
X111760Y48260D02*
X115090Y44930D01*
X22352Y36084D02*
Y36322D01*
X19082Y32813D02*
X22352Y36084D01*
X18832Y32813D02*
X19082D01*
X18272Y32254D02*
X18832Y32813D01*
X18272Y32004D02*
Y32254D01*
X22352Y36322D02*
X22662Y36012D01*
Y35377D02*
Y36012D01*
Y35377D02*
X25146Y32893D01*
X48971Y28905D02*
X49784D01*
Y28194D02*
X52832Y25146D01*
X49784Y28194D02*
Y28905D01*
X93599Y24638D02*
Y26797D01*
X95172Y28370D01*
Y29640D02*
X95250Y29718D01*
X95172Y28370D02*
Y29640D01*
X50102Y43116D02*
X56034D01*
X49530Y43688D02*
X50102Y43116D01*
X49530Y43688D02*
Y50800D01*
X62230Y13462D02*
Y39624D01*
Y13462D02*
X62484Y13208D01*
X71042Y13286D02*
X73712Y10616D01*
Y4572D02*
Y10616D01*
X67232Y13286D02*
X71042D01*
X72898Y13462D02*
X74676D01*
X72390Y13970D02*
X72898Y13462D01*
X72390Y13970D02*
Y17272D01*
X67412Y26923D02*
X72390Y21945D01*
Y17272D02*
Y21945D01*
X92456Y26997D02*
Y29718D01*
X91948Y24638D02*
Y26489D01*
X92456Y26997D01*
X75438Y27686D02*
X80036Y23088D01*
X75438Y27686D02*
Y30099D01*
X75184Y30353D02*
X75438Y30099D01*
X78613Y20320D02*
Y22733D01*
X73914Y27432D02*
X78613Y22733D01*
X72390Y27432D02*
X73914D01*
X76962Y20320D02*
Y23368D01*
X70938Y24384D02*
X75946D01*
X76962Y23368D01*
X69596Y25727D02*
X70938Y24384D01*
X69596Y25727D02*
Y27432D01*
X67056Y13462D02*
X67232Y13286D01*
X72390Y28744D02*
X72644Y28998D01*
X72390Y27432D02*
Y28744D01*
X72644Y28998D02*
Y30353D01*
X36322Y40894D02*
Y42672D01*
X27229Y31801D02*
X36322Y40894D01*
X67412Y30903D02*
X70104Y33595D01*
X67412Y26923D02*
Y30903D01*
X63754Y5748D02*
Y17018D01*
X63044Y5037D02*
X63754Y5748D01*
X63044Y4572D02*
Y5037D01*
X49022Y7926D02*
Y16002D01*
Y7926D02*
X52376Y4572D01*
X36322D02*
X47296D01*
X32258Y8636D02*
Y15748D01*
X52324Y50732D02*
X52634Y51042D01*
X53328D01*
X75438Y51054D02*
Y53625D01*
X40386Y38996D02*
X57668D01*
X39624Y37338D02*
X39896Y37610D01*
Y38506D01*
X40386Y38996D01*
X57668D02*
X58293Y38371D01*
X34798Y38100D02*
X37084Y40386D01*
X34798Y34544D02*
Y38100D01*
X42164Y29718D02*
Y31750D01*
X41656Y32258D02*
X42164Y31750D01*
X37084Y32258D02*
X41656D01*
X34798Y34544D02*
X37084Y32258D01*
X44390Y19498D02*
X57147D01*
X35052Y18542D02*
Y25908D01*
Y18542D02*
X37846Y15748D01*
X32258Y18542D02*
Y25908D01*
X29464Y15748D02*
X32258Y18542D01*
X84884Y24641D02*
Y28654D01*
X83820Y29718D02*
X84884Y28654D01*
X52324Y40572D02*
X57590D01*
X49022Y24426D02*
Y26162D01*
Y24426D02*
X53086Y20362D01*
X57023D01*
X58293Y21632D01*
Y38371D01*
X70104Y33595D02*
Y37973D01*
X72644D02*
Y42714D01*
X76708Y46778D01*
Y51934D01*
X77343Y52569D01*
X79781D01*
X83693Y48658D01*
Y44640D02*
Y48658D01*
X83376Y44323D02*
X83693Y44640D01*
X82042Y44323D02*
X83376D01*
X49784Y28905D02*
Y29718D01*
X46228Y26162D02*
X48971Y28905D01*
X86614Y29718D02*
X88138Y31242D01*
Y41647D02*
X92100Y45610D01*
X93407D01*
X95446Y43571D01*
X27229Y28143D02*
X29464Y25908D01*
X27229Y28143D02*
Y31801D01*
X79197Y39615D02*
X79756Y40174D01*
Y49530D01*
X78232Y51054D02*
X79756Y49530D01*
X75438Y39539D02*
Y40894D01*
X75184Y39285D02*
X75438Y39539D01*
X75184Y37973D02*
Y39285D01*
X92456Y39878D02*
Y43434D01*
X69723Y39514D02*
Y40711D01*
Y39514D02*
X70104Y39133D01*
Y37973D02*
Y39133D01*
X75311Y18457D02*
Y20320D01*
X75184Y18330D02*
X75311Y18457D01*
X75184Y16510D02*
Y18330D01*
D31*
X102390Y15138D02*
D03*
X104072Y8032D02*
D03*
X111178Y6350D02*
D03*
X115090Y12141D02*
D03*
X108181Y19050D02*
D03*
X108181Y44450D02*
D03*
X115090Y37541D02*
D03*
X111178Y31750D02*
D03*
X104072Y33432D02*
D03*
X102390Y40538D02*
D03*
X115090Y64059D02*
D03*
X108181Y57150D02*
D03*
X102390Y61062D02*
D03*
X104072Y68168D02*
D03*
X111178Y69850D02*
D03*
D32*
X108740Y12700D02*
D03*
X108740Y38100D02*
D03*
X108740Y63500D02*
D03*
D33*
X83820Y29718D02*
D03*
Y39878D02*
D03*
X80772Y30480D02*
D03*
Y38100D02*
D03*
X66802Y25400D02*
D03*
Y17780D02*
D03*
X30300Y10550D02*
D03*
X30226Y7874D02*
D03*
X12192Y36322D02*
D03*
X22352D02*
D03*
X6524Y29210D02*
D03*
X3984D02*
D03*
X6524Y31750D02*
D03*
X3984D02*
D03*
X6524Y34290D02*
D03*
X3984D02*
D03*
X6524Y36830D02*
D03*
X3984D02*
D03*
X6524Y39370D02*
D03*
X3984D02*
D03*
X6524Y41910D02*
D03*
X3984D02*
D03*
X6524Y44450D02*
D03*
X3984D02*
D03*
X6524Y46990D02*
D03*
X67056Y13462D02*
D03*
X74676D02*
D03*
X49022Y26162D02*
D03*
Y16002D02*
D03*
X72390Y27432D02*
D03*
Y17272D02*
D03*
X69596D02*
D03*
Y27432D02*
D03*
X69723Y40711D02*
D03*
Y50871D02*
D03*
X86614Y29718D02*
D03*
Y39878D02*
D03*
X89662Y29718D02*
D03*
Y39878D02*
D03*
X95446Y53731D02*
D03*
Y43571D02*
D03*
X92456Y53594D02*
D03*
Y43434D02*
D03*
X36322Y42672D02*
D03*
Y52832D02*
D03*
X75438Y40894D02*
D03*
X78232D02*
D03*
Y51054D02*
D03*
X65532Y30226D02*
D03*
Y37846D02*
D03*
X37846Y15748D02*
D03*
Y25908D02*
D03*
X63754Y27178D02*
D03*
Y17018D02*
D03*
X52324Y50732D02*
D03*
Y40572D02*
D03*
X40640Y15748D02*
D03*
Y25908D02*
D03*
X49530Y40640D02*
D03*
Y50800D02*
D03*
X46228Y26162D02*
D03*
Y16002D02*
D03*
X33020Y42164D02*
D03*
Y49784D02*
D03*
X43493Y15748D02*
D03*
Y25908D02*
D03*
X35052Y15748D02*
D03*
Y25908D02*
D03*
X32258Y15748D02*
D03*
Y25908D02*
D03*
X29464Y15748D02*
D03*
Y25908D02*
D03*
X22352Y39370D02*
D03*
X12192D02*
D03*
X75184Y17018D02*
D03*
X85344D02*
D03*
X92456Y29718D02*
D03*
Y39878D02*
D03*
X95250Y29718D02*
D03*
Y39878D02*
D03*
X39116Y52832D02*
D03*
Y42672D02*
D03*
D34*
X94742Y69342D02*
D03*
X89662D02*
D03*
X74031D02*
D03*
X79111D02*
D03*
X84191D02*
D03*
X63448D02*
D03*
X68528D02*
D03*
X57912D02*
D03*
X52832D02*
D03*
X47752D02*
D03*
X84380Y4572D02*
D03*
X79300D02*
D03*
X52376D02*
D03*
X47296D02*
D03*
X63044D02*
D03*
X57964D02*
D03*
X68632D02*
D03*
X73712D02*
D03*
D35*
X52324Y37338D02*
D03*
X49784D02*
D03*
X37084D02*
D03*
X39624D02*
D03*
X42164D02*
D03*
X44704D02*
D03*
X47244D02*
D03*
X39624Y29718D02*
D03*
X42164D02*
D03*
X44704D02*
D03*
X47244D02*
D03*
X49784D02*
D03*
X52324D02*
D03*
X72644Y30353D02*
D03*
X75184D02*
D03*
X77724D02*
D03*
Y37973D02*
D03*
X75184D02*
D03*
X72644D02*
D03*
X70104D02*
D03*
D36*
X37084Y29718D02*
D03*
X70104Y30353D02*
D03*
D37*
X3984Y46990D02*
D03*
D38*
X43704Y53848D02*
D03*
D39*
X45704D02*
D03*
D40*
X75438Y51054D02*
D03*
D41*
X18272Y32004D02*
D03*
X16321Y43588D02*
D03*
D42*
X16272Y32004D02*
D03*
X18321Y43588D02*
D03*
D43*
X45720Y11430D02*
D03*
X101600Y49276D02*
D03*
X45720Y43180D02*
D03*
X60452Y22860D02*
D03*
X25146Y32893D02*
D03*
X62484Y13208D02*
D03*
X62230Y39624D02*
D03*
M02*
