G04*
G04 #@! TF.GenerationSoftware,Altium Limited,Altium Designer,20.0.2 (26)*
G04*
G04 Layer_Color=16711935*
%FSLAX43Y43*%
%MOMM*%
G71*
G01*
G75*
%ADD44C,0.013*%
D44*
X101000Y38100D02*
G03*
X101000Y38100I-1000J0D01*
G01*
X101488Y47625D02*
G03*
X101488Y47625I-3000J0D01*
G01*
Y28575D02*
G03*
X101488Y28575I-3000J0D01*
G01*
X101137Y66675D02*
G03*
X101137Y66675I-2650J0D01*
G01*
X101488Y9525D02*
G03*
X101488Y9525I-3000J0D01*
G01*
X69900Y48650D02*
G03*
X69900Y48650I-1500J0D01*
G01*
Y10550D02*
G03*
X69900Y10550I-1500J0D01*
G01*
X71900Y57150D02*
G03*
X71900Y57150I-3500J0D01*
G01*
Y19050D02*
G03*
X71900Y19050I-3500J0D01*
G01*
X31800Y48650D02*
G03*
X31800Y48650I-1500J0D01*
G01*
Y10550D02*
G03*
X31800Y10550I-1500J0D01*
G01*
X33800Y57150D02*
G03*
X33800Y57150I-3500J0D01*
G01*
Y19050D02*
G03*
X33800Y19050I-3500J0D01*
G01*
X113740Y63500D02*
G03*
X113740Y63500I-5000J0D01*
G01*
X113740Y12700D02*
G03*
X113740Y12700I-5000J0D01*
G01*
X113740Y38100D02*
G03*
X113740Y38100I-5000J0D01*
G01*
X3350Y66560D02*
G03*
X4950Y64960I1600J0D01*
G01*
X5050D02*
G03*
X6650Y66560I0J1600D01*
G01*
Y70360D02*
G03*
X5050Y71960I-1600J0D01*
G01*
X4950D02*
G03*
X3350Y70360I0J-1600D01*
G01*
X5050Y4000D02*
G03*
X6650Y5600I0J1600D01*
G01*
X3350D02*
G03*
X4950Y4000I1600J0D01*
G01*
X4950Y11000D02*
G03*
X3350Y9400I0J-1600D01*
G01*
X6650Y9400D02*
G03*
X5050Y11000I-1600J0D01*
G01*
X4950Y64960D02*
X5050D01*
X6650Y66560D02*
Y70360D01*
X4950Y71960D02*
X5050D01*
X3350Y66560D02*
Y70360D01*
X4950Y4000D02*
X5050D01*
X3350Y5600D02*
Y9400D01*
X4950Y11000D02*
X5050D01*
X6650Y5600D02*
Y9400D01*
M02*
