G04*
G04 #@! TF.GenerationSoftware,Altium Limited,Altium Designer,20.0.2 (26)*
G04*
G04 Layer_Color=3326705*
%FSLAX43Y43*%
%MOMM*%
G71*
G01*
G75*
%ADD13C,0.127*%
D13*
X102136Y20574D02*
G03*
X100866Y19304I0J-1270D01*
G01*
X116614D02*
G03*
X115344Y20574I-1270J0D01*
G01*
Y4826D02*
G03*
X116614Y6096I0J1270D01*
G01*
X104304Y5198D02*
G03*
X105202Y4826I898J898D01*
G01*
X100866Y9162D02*
G03*
X101238Y8264I1270J0D01*
G01*
X100866Y34562D02*
G03*
X101238Y33664I1270J0D01*
G01*
X104304Y30598D02*
G03*
X105202Y30226I898J898D01*
G01*
X115344D02*
G03*
X116614Y31496I0J1270D01*
G01*
Y44704D02*
G03*
X115344Y45974I-1270J0D01*
G01*
X102136D02*
G03*
X100866Y44704I0J-1270D01*
G01*
X105202Y71374D02*
G03*
X104304Y71002I0J-1270D01*
G01*
X101238Y67936D02*
G03*
X100866Y67038I898J-898D01*
G01*
Y56896D02*
G03*
X102136Y55626I1270J0D01*
G01*
X115344D02*
G03*
X116614Y56896I0J1270D01*
G01*
Y70104D02*
G03*
X115344Y71374I-1270J0D01*
G01*
X102136Y20574D02*
X115344D01*
X116614Y6096D02*
Y19304D01*
X105202Y4826D02*
X115344D01*
X101238Y8264D02*
X104304Y5198D01*
X100866Y9162D02*
Y19304D01*
X100866Y34562D02*
Y44704D01*
X101238Y33664D02*
X104304Y30598D01*
X105202Y30226D02*
X115344D01*
X116614Y31496D02*
Y44704D01*
X102136Y45974D02*
X115344D01*
X105202Y71374D02*
X115344D01*
X101238Y67936D02*
X104304Y71002D01*
X100866Y56896D02*
Y67038D01*
X102136Y55626D02*
X115344D01*
X116614Y56896D02*
Y70104D01*
M02*
