G04*
G04 #@! TF.GenerationSoftware,Altium Limited,Altium Designer,20.0.2 (26)*
G04*
G04 Layer_Color=2752767*
%FSLAX43Y43*%
%MOMM*%
G71*
G01*
G75*
%ADD47C,0.051*%
%ADD48C,0.068*%
D47*
X102187Y14935D02*
Y15342D01*
X102593D01*
Y14935D01*
X102187D01*
X103868Y7828D02*
Y8235D01*
X104275D01*
Y7828D01*
X103868D01*
X110975Y6147D02*
Y6553D01*
X111382D01*
Y6147D01*
X110975D01*
X114887Y11938D02*
Y12344D01*
X115293D01*
Y11938D01*
X114887D01*
X107978Y18847D02*
Y19253D01*
X108384D01*
Y18847D01*
X107978D01*
X107978Y44247D02*
Y44653D01*
X108384D01*
Y44247D01*
X107978D01*
X114887Y37338D02*
Y37744D01*
X115293D01*
Y37338D01*
X114887D01*
X110975Y31547D02*
Y31953D01*
X111382D01*
Y31547D01*
X110975D01*
X103868Y33228D02*
Y33635D01*
X104275D01*
Y33228D01*
X103868D01*
X102187Y40335D02*
Y40742D01*
X102593D01*
Y40335D01*
X102187D01*
X114887Y63856D02*
Y64262D01*
X115293D01*
Y63856D01*
X114887D01*
X107978Y56947D02*
Y57353D01*
X108384D01*
Y56947D01*
X107978D01*
X102187Y60858D02*
Y61265D01*
X102593D01*
Y60858D01*
X102187D01*
X103868Y67965D02*
Y68372D01*
X104275D01*
Y67965D01*
X103868D01*
X110975Y69647D02*
Y70053D01*
X111382D01*
Y69647D01*
X110975D01*
X83820Y29515D02*
X83617Y29921D01*
X84023D01*
X83820Y29515D01*
Y39675D02*
X83617Y40081D01*
X84023D01*
X83820Y39675D01*
X80772Y30277D02*
X80569Y30683D01*
X80975D01*
X80772Y30277D01*
Y37897D02*
X80569Y38303D01*
X80975D01*
X80772Y37897D01*
X66802Y25197D02*
X66599Y25603D01*
X67005D01*
X66802Y25197D01*
Y17577D02*
X66599Y17983D01*
X67005D01*
X66802Y17577D01*
X30300Y10347D02*
X30097Y10753D01*
X30503D01*
X30300Y10347D01*
X30226Y7671D02*
X30023Y8077D01*
X30429D01*
X30226Y7671D01*
X94742Y69139D02*
X94844Y69240D01*
X94945D01*
X94844Y69342D01*
X94945Y69444D01*
X94844D01*
X94742Y69545D01*
X94640Y69444D01*
X94539D01*
X94640Y69342D01*
X94539Y69240D01*
X94640D01*
X94742Y69139D01*
X89662D02*
X89764Y69240D01*
X89865D01*
X89764Y69342D01*
X89865Y69444D01*
X89764D01*
X89662Y69545D01*
X89560Y69444D01*
X89459D01*
X89560Y69342D01*
X89459Y69240D01*
X89560D01*
X89662Y69139D01*
X74031D02*
X74132Y69240D01*
X74234D01*
X74132Y69342D01*
X74234Y69444D01*
X74132D01*
X74031Y69545D01*
X73929Y69444D01*
X73827D01*
X73929Y69342D01*
X73827Y69240D01*
X73929D01*
X74031Y69139D01*
X79111D02*
X79212Y69240D01*
X79314D01*
X79212Y69342D01*
X79314Y69444D01*
X79212D01*
X79111Y69545D01*
X79009Y69444D01*
X78907D01*
X79009Y69342D01*
X78907Y69240D01*
X79009D01*
X79111Y69139D01*
X84191D02*
X84292Y69240D01*
X84394D01*
X84292Y69342D01*
X84394Y69444D01*
X84292D01*
X84191Y69545D01*
X84089Y69444D01*
X83987D01*
X84089Y69342D01*
X83987Y69240D01*
X84089D01*
X84191Y69139D01*
X63448D02*
X63550Y69240D01*
X63652D01*
X63550Y69342D01*
X63652Y69444D01*
X63550D01*
X63448Y69545D01*
X63347Y69444D01*
X63245D01*
X63347Y69342D01*
X63245Y69240D01*
X63347D01*
X63448Y69139D01*
X68528D02*
X68630Y69240D01*
X68732D01*
X68630Y69342D01*
X68732Y69444D01*
X68630D01*
X68528Y69545D01*
X68427Y69444D01*
X68325D01*
X68427Y69342D01*
X68325Y69240D01*
X68427D01*
X68528Y69139D01*
X57912D02*
X58014Y69240D01*
X58115D01*
X58014Y69342D01*
X58115Y69444D01*
X58014D01*
X57912Y69545D01*
X57810Y69444D01*
X57709D01*
X57810Y69342D01*
X57709Y69240D01*
X57810D01*
X57912Y69139D01*
X52832D02*
X52934Y69240D01*
X53035D01*
X52934Y69342D01*
X53035Y69444D01*
X52934D01*
X52832Y69545D01*
X52730Y69444D01*
X52629D01*
X52730Y69342D01*
X52629Y69240D01*
X52730D01*
X52832Y69139D01*
X47752D02*
X47854Y69240D01*
X47955D01*
X47854Y69342D01*
X47955Y69444D01*
X47854D01*
X47752Y69545D01*
X47650Y69444D01*
X47549D01*
X47650Y69342D01*
X47549Y69240D01*
X47650D01*
X47752Y69139D01*
X84380Y4369D02*
X84481Y4470D01*
X84583D01*
X84481Y4572D01*
X84583Y4674D01*
X84481D01*
X84380Y4775D01*
X84278Y4674D01*
X84176D01*
X84278Y4572D01*
X84176Y4470D01*
X84278D01*
X84380Y4369D01*
X79300D02*
X79401Y4470D01*
X79503D01*
X79401Y4572D01*
X79503Y4674D01*
X79401D01*
X79300Y4775D01*
X79198Y4674D01*
X79096D01*
X79198Y4572D01*
X79096Y4470D01*
X79198D01*
X79300Y4369D01*
X52376D02*
X52477Y4470D01*
X52579D01*
X52477Y4572D01*
X52579Y4674D01*
X52477D01*
X52376Y4775D01*
X52274Y4674D01*
X52172D01*
X52274Y4572D01*
X52172Y4470D01*
X52274D01*
X52376Y4369D01*
X47296D02*
X47397Y4470D01*
X47499D01*
X47397Y4572D01*
X47499Y4674D01*
X47397D01*
X47296Y4775D01*
X47194Y4674D01*
X47092D01*
X47194Y4572D01*
X47092Y4470D01*
X47194D01*
X47296Y4369D01*
X63044D02*
X63145Y4470D01*
X63247D01*
X63145Y4572D01*
X63247Y4674D01*
X63145D01*
X63044Y4775D01*
X62942Y4674D01*
X62840D01*
X62942Y4572D01*
X62840Y4470D01*
X62942D01*
X63044Y4369D01*
X57964D02*
X58065Y4470D01*
X58167D01*
X58065Y4572D01*
X58167Y4674D01*
X58065D01*
X57964Y4775D01*
X57862Y4674D01*
X57760D01*
X57862Y4572D01*
X57760Y4470D01*
X57862D01*
X57964Y4369D01*
X68632D02*
X68733Y4470D01*
X68835D01*
X68733Y4572D01*
X68835Y4674D01*
X68733D01*
X68632Y4775D01*
X68530Y4674D01*
X68428D01*
X68530Y4572D01*
X68428Y4470D01*
X68530D01*
X68632Y4369D01*
X73712D02*
X73813Y4470D01*
X73915D01*
X73813Y4572D01*
X73915Y4674D01*
X73813D01*
X73712Y4775D01*
X73610Y4674D01*
X73508D01*
X73610Y4572D01*
X73508Y4470D01*
X73610D01*
X73712Y4369D01*
X52324Y37135D02*
X52121Y37541D01*
X52527D01*
X52324Y37135D01*
X49784D02*
X49581Y37541D01*
X49987D01*
X49784Y37135D01*
X37084D02*
X36881Y37541D01*
X37287D01*
X37084Y37135D01*
X39624D02*
X39421Y37541D01*
X39827D01*
X39624Y37135D01*
X42164D02*
X41961Y37541D01*
X42367D01*
X42164Y37135D01*
X44704D02*
X44501Y37541D01*
X44907D01*
X44704Y37135D01*
X47244D02*
X47041Y37541D01*
X47447D01*
X47244Y37135D01*
X37084Y29515D02*
X36881Y29921D01*
X37287D01*
X37084Y29515D01*
X39624D02*
X39421Y29921D01*
X39827D01*
X39624Y29515D01*
X42164D02*
X41961Y29921D01*
X42367D01*
X42164Y29515D01*
X44704D02*
X44501Y29921D01*
X44907D01*
X44704Y29515D01*
X47244D02*
X47041Y29921D01*
X47447D01*
X47244Y29515D01*
X49784D02*
X49581Y29921D01*
X49987D01*
X49784Y29515D01*
X52324D02*
X52121Y29921D01*
X52527D01*
X52324Y29515D01*
X70104Y30150D02*
X69901Y30556D01*
X70307D01*
X70104Y30150D01*
X72644D02*
X72441Y30556D01*
X72847D01*
X72644Y30150D01*
X75184D02*
X74981Y30556D01*
X75387D01*
X75184Y30150D01*
X77724D02*
X77521Y30556D01*
X77927D01*
X77724Y30150D01*
Y37770D02*
X77521Y38176D01*
X77927D01*
X77724Y37770D01*
X75184D02*
X74981Y38176D01*
X75387D01*
X75184Y37770D01*
X72644D02*
X72441Y38176D01*
X72847D01*
X72644Y37770D01*
X70104D02*
X69901Y38176D01*
X70307D01*
X70104Y37770D01*
X12192Y36119D02*
X11989Y36525D01*
X12395D01*
X12192Y36119D01*
X22352D02*
X22149Y36525D01*
X22555D01*
X22352Y36119D01*
X86331Y24437D02*
X86433Y24641D01*
X86331Y24844D01*
X86535Y24742D01*
X86738Y24844D01*
X86636Y24641D01*
X86738Y24437D01*
X86535Y24539D01*
X86331Y24437D01*
X84680D02*
X84782Y24641D01*
X84680Y24844D01*
X84884Y24742D01*
X85087Y24844D01*
X84985Y24641D01*
X85087Y24437D01*
X84884Y24539D01*
X84680Y24437D01*
X83029D02*
X83131Y24641D01*
X83029Y24844D01*
X83233Y24742D01*
X83436Y24844D01*
X83334Y24641D01*
X83436Y24437D01*
X83233Y24539D01*
X83029Y24437D01*
X6524Y29007D02*
X6321Y29413D01*
X6727D01*
X6524Y29007D01*
X3984D02*
X3781Y29413D01*
X4187D01*
X3984Y29007D01*
X6524Y31547D02*
X6321Y31953D01*
X6727D01*
X6524Y31547D01*
X3984D02*
X3781Y31953D01*
X4187D01*
X3984Y31547D01*
X6524Y34087D02*
X6321Y34493D01*
X6727D01*
X6524Y34087D01*
X3984D02*
X3781Y34493D01*
X4187D01*
X3984Y34087D01*
X6524Y36627D02*
X6321Y37033D01*
X6727D01*
X6524Y36627D01*
X3984D02*
X3781Y37033D01*
X4187D01*
X3984Y36627D01*
X6524Y39167D02*
X6321Y39573D01*
X6727D01*
X6524Y39167D01*
X3984D02*
X3781Y39573D01*
X4187D01*
X3984Y39167D01*
X6524Y41707D02*
X6321Y42113D01*
X6727D01*
X6524Y41707D01*
X3984D02*
X3781Y42113D01*
X4187D01*
X3984Y41707D01*
X6524Y44247D02*
X6321Y44653D01*
X6727D01*
X6524Y44247D01*
X3984D02*
X3781Y44653D01*
X4187D01*
X3984Y44247D01*
X6524Y46787D02*
X6321Y47193D01*
X6727D01*
X6524Y46787D01*
X3984D02*
X3781Y47193D01*
X4187D01*
X3984Y46787D01*
X43602Y53746D02*
Y53645D01*
X43806D01*
Y53746D01*
X43907D01*
Y53950D01*
X43806D01*
Y54051D01*
X43602D01*
Y53950D01*
X43501D01*
Y53746D01*
X43602D01*
X45602D02*
Y53645D01*
X45806D01*
Y53746D01*
X45907D01*
Y53950D01*
X45806D01*
Y54051D01*
X45602D01*
Y53950D01*
X45501D01*
Y53746D01*
X45602D01*
X67056Y13259D02*
X66853Y13665D01*
X67259D01*
X67056Y13259D01*
X74676D02*
X74473Y13665D01*
X74879D01*
X74676Y13259D01*
X49022Y25959D02*
X48819Y26365D01*
X49225D01*
X49022Y25959D01*
Y15799D02*
X48819Y16205D01*
X49225D01*
X49022Y15799D01*
X72390Y27229D02*
X72187Y27635D01*
X72593D01*
X72390Y27229D01*
Y17069D02*
X72187Y17475D01*
X72593D01*
X72390Y17069D01*
X69596D02*
X69393Y17475D01*
X69799D01*
X69596Y17069D01*
Y27229D02*
X69393Y27635D01*
X69799D01*
X69596Y27229D01*
X69723Y40507D02*
X69520Y40914D01*
X69926D01*
X69723Y40507D01*
Y50667D02*
X69520Y51074D01*
X69926D01*
X69723Y50667D01*
X75108Y20117D02*
X75209Y20320D01*
X75108Y20523D01*
X75311Y20422D01*
X75514Y20523D01*
X75413Y20320D01*
X75514Y20117D01*
X75311Y20218D01*
X75108Y20117D01*
X76759D02*
X76860Y20320D01*
X76759Y20523D01*
X76962Y20422D01*
X77165Y20523D01*
X77064Y20320D01*
X77165Y20117D01*
X76962Y20218D01*
X76759Y20117D01*
X78410D02*
X78511Y20320D01*
X78410Y20523D01*
X78613Y20422D01*
X78816Y20523D01*
X78715Y20320D01*
X78816Y20117D01*
X78613Y20218D01*
X78410Y20117D01*
X86614Y29515D02*
X86411Y29921D01*
X86817D01*
X86614Y29515D01*
Y39675D02*
X86411Y40081D01*
X86817D01*
X86614Y39675D01*
X89662Y29515D02*
X89459Y29921D01*
X89865D01*
X89662Y29515D01*
Y39675D02*
X89459Y40081D01*
X89865D01*
X89662Y39675D01*
X95446Y53528D02*
X95242Y53934D01*
X95649D01*
X95446Y53528D01*
Y43368D02*
X95242Y43774D01*
X95649D01*
X95446Y43368D01*
X92456Y53391D02*
X92253Y53797D01*
X92659D01*
X92456Y53391D01*
Y43231D02*
X92253Y43637D01*
X92659D01*
X92456Y43231D01*
X36322Y42469D02*
X36119Y42875D01*
X36525D01*
X36322Y42469D01*
Y52629D02*
X36119Y53035D01*
X36525D01*
X36322Y52629D01*
X75235Y50851D02*
X75336D01*
X75438Y50952D01*
X75540Y50851D01*
X75641D01*
Y50952D01*
X75540Y51054D01*
X75641Y51156D01*
Y51257D01*
X75540D01*
X75438Y51156D01*
X75336Y51257D01*
X75235D01*
Y51156D01*
X75336Y51054D01*
X75235Y50952D01*
Y50851D01*
X75438Y40691D02*
X75235Y41097D01*
X75641D01*
X75438Y40691D01*
X78232D02*
X78029Y41097D01*
X78435D01*
X78232Y40691D01*
Y50851D02*
X78029Y51257D01*
X78435D01*
X78232Y50851D01*
X81839Y47422D02*
X81940Y47625D01*
X81839Y47828D01*
X82042Y47727D01*
X82245Y47828D01*
X82144Y47625D01*
X82245Y47422D01*
X82042Y47523D01*
X81839Y47422D01*
Y45771D02*
X81940Y45974D01*
X81839Y46177D01*
X82042Y46076D01*
X82245Y46177D01*
X82144Y45974D01*
X82245Y45771D01*
X82042Y45872D01*
X81839Y45771D01*
Y44120D02*
X81940Y44323D01*
X81839Y44526D01*
X82042Y44425D01*
X82245Y44526D01*
X82144Y44323D01*
X82245Y44120D01*
X82042Y44221D01*
X81839Y44120D01*
X65532Y30023D02*
X65329Y30429D01*
X65735D01*
X65532Y30023D01*
Y37643D02*
X65329Y38049D01*
X65735D01*
X65532Y37643D01*
X37846Y15545D02*
X37643Y15951D01*
X38049D01*
X37846Y15545D01*
Y25705D02*
X37643Y26111D01*
X38049D01*
X37846Y25705D01*
X63754Y26975D02*
X63551Y27381D01*
X63957D01*
X63754Y26975D01*
Y16815D02*
X63551Y17221D01*
X63957D01*
X63754Y16815D01*
X52324Y50529D02*
X52121Y50935D01*
X52527D01*
X52324Y50529D01*
Y40369D02*
X52121Y40775D01*
X52527D01*
X52324Y40369D01*
X40640Y15545D02*
X40437Y15951D01*
X40843D01*
X40640Y15545D01*
Y25705D02*
X40437Y26111D01*
X40843D01*
X40640Y25705D01*
X49530Y40437D02*
X49327Y40843D01*
X49733D01*
X49530Y40437D01*
Y50597D02*
X49327Y51003D01*
X49733D01*
X49530Y50597D01*
X46228Y25959D02*
X46025Y26365D01*
X46431D01*
X46228Y25959D01*
Y15799D02*
X46025Y16205D01*
X46431D01*
X46228Y15799D01*
X33020Y41961D02*
X32817Y42367D01*
X33223D01*
X33020Y41961D01*
Y49581D02*
X32817Y49987D01*
X33223D01*
X33020Y49581D01*
X43493Y15545D02*
X43290Y15951D01*
X43696D01*
X43493Y15545D01*
Y25705D02*
X43290Y26111D01*
X43696D01*
X43493Y25705D01*
X35052Y15545D02*
X34849Y15951D01*
X35255D01*
X35052Y15545D01*
Y25705D02*
X34849Y26111D01*
X35255D01*
X35052Y25705D01*
X32258Y15545D02*
X32055Y15951D01*
X32461D01*
X32258Y15545D01*
Y25705D02*
X32055Y26111D01*
X32461D01*
X32258Y25705D01*
X29464Y15545D02*
X29261Y15951D01*
X29667D01*
X29464Y15545D01*
Y25705D02*
X29261Y26111D01*
X29667D01*
X29464Y25705D01*
X18170Y31902D02*
Y31801D01*
X18374D01*
Y31902D01*
X18475D01*
Y32106D01*
X18374D01*
Y32207D01*
X18170D01*
Y32106D01*
X18069D01*
Y31902D01*
X18170D01*
X16170D02*
Y31801D01*
X16374D01*
Y31902D01*
X16475D01*
Y32106D01*
X16374D01*
Y32207D01*
X16170D01*
Y32106D01*
X16069D01*
Y31902D01*
X16170D01*
X18219Y43486D02*
Y43384D01*
X18422D01*
Y43486D01*
X18524D01*
Y43689D01*
X18422D01*
Y43791D01*
X18219D01*
Y43689D01*
X18117D01*
Y43486D01*
X18219D01*
X16219D02*
Y43384D01*
X16422D01*
Y43486D01*
X16524D01*
Y43689D01*
X16422D01*
Y43791D01*
X16219D01*
Y43689D01*
X16117D01*
Y43486D01*
X16219D01*
X22352Y39167D02*
X22149Y39573D01*
X22555D01*
X22352Y39167D01*
X12192D02*
X11989Y39573D01*
X12395D01*
X12192Y39167D01*
X75184Y16815D02*
X74981Y17221D01*
X75387D01*
X75184Y16815D01*
X85344D02*
X85141Y17221D01*
X85547D01*
X85344Y16815D01*
X90094Y24435D02*
X90195Y24638D01*
X90094Y24841D01*
X90297Y24740D01*
X90500Y24841D01*
X90399Y24638D01*
X90500Y24435D01*
X90297Y24536D01*
X90094Y24435D01*
X91745D02*
X91846Y24638D01*
X91745Y24841D01*
X91948Y24740D01*
X92151Y24841D01*
X92050Y24638D01*
X92151Y24435D01*
X91948Y24536D01*
X91745Y24435D01*
X93396D02*
X93497Y24638D01*
X93396Y24841D01*
X93599Y24740D01*
X93802Y24841D01*
X93701Y24638D01*
X93802Y24435D01*
X93599Y24536D01*
X93396Y24435D01*
X92456Y29515D02*
X92253Y29921D01*
X92659D01*
X92456Y29515D01*
Y39675D02*
X92253Y40081D01*
X92659D01*
X92456Y39675D01*
X95250Y29515D02*
X95047Y29921D01*
X95453D01*
X95250Y29515D01*
Y39675D02*
X95047Y40081D01*
X95453D01*
X95250Y39675D01*
X39116Y52629D02*
X38913Y53035D01*
X39319D01*
X39116Y52629D01*
Y42469D02*
X38913Y42875D01*
X39319D01*
X39116Y42469D01*
X45517Y11430D02*
X45720Y11633D01*
X45923Y11430D01*
X45720Y11227D01*
X45517Y11430D01*
X101397Y49276D02*
X101600Y49479D01*
X101803Y49276D01*
X101600Y49073D01*
X101397Y49276D01*
X45517Y43180D02*
X45720Y43383D01*
X45923Y43180D01*
X45720Y42977D01*
X45517Y43180D01*
X60249Y22860D02*
X60452Y23063D01*
X60655Y22860D01*
X60452Y22657D01*
X60249Y22860D01*
X24943Y32893D02*
X25146Y33096D01*
X25349Y32893D01*
X25146Y32690D01*
X24943Y32893D01*
X62281Y13208D02*
X62484Y13411D01*
X62687Y13208D01*
X62484Y13005D01*
X62281Y13208D01*
X62027Y39624D02*
X62230Y39827D01*
X62433Y39624D01*
X62230Y39421D01*
X62027Y39624D01*
D48*
X108943Y12700D02*
G03*
X108943Y12700I-203J0D01*
G01*
X108943Y38100D02*
G03*
X108943Y38100I-203J0D01*
G01*
X108943Y63500D02*
G03*
X108943Y63500I-203J0D01*
G01*
M02*
