G04 #@! TF.GenerationSoftware,KiCad,Pcbnew,(5.0.2-5)-5*
G04 #@! TF.CreationDate,2021-05-15T23:07:52+01:00*
G04 #@! TF.ProjectId,power_supply_kicad_project_20210515,706f7765-725f-4737-9570-706c795f6b69,rev?*
G04 #@! TF.SameCoordinates,Original*
G04 #@! TF.FileFunction,Soldermask,Bot*
G04 #@! TF.FilePolarity,Negative*
%FSLAX46Y46*%
G04 Gerber Fmt 4.6, Leading zero omitted, Abs format (unit mm)*
G04 Created by KiCad (PCBNEW (5.0.2-5)-5) date Saturday, 15 May 2021 at 23:07:52*
%MOMM*%
%LPD*%
G01*
G04 APERTURE LIST*
%ADD10C,0.100000*%
G04 APERTURE END LIST*
D10*
G36*
X149318121Y-162310240D02*
X149827870Y-162521385D01*
X149827871Y-162521386D01*
X150286634Y-162827921D01*
X150676779Y-163218066D01*
X150881136Y-163523908D01*
X150983315Y-163676830D01*
X151194460Y-164186579D01*
X151302100Y-164727724D01*
X151302100Y-165279476D01*
X151194460Y-165820621D01*
X150983315Y-166330370D01*
X150983314Y-166330371D01*
X150676779Y-166789134D01*
X150286634Y-167179279D01*
X149980792Y-167383636D01*
X149827870Y-167485815D01*
X149318121Y-167696960D01*
X148776976Y-167804600D01*
X148225224Y-167804600D01*
X147684079Y-167696960D01*
X147174330Y-167485815D01*
X147021408Y-167383636D01*
X146715566Y-167179279D01*
X146325421Y-166789134D01*
X146018886Y-166330371D01*
X146018885Y-166330370D01*
X145807740Y-165820621D01*
X145700100Y-165279476D01*
X145700100Y-164727724D01*
X145807740Y-164186579D01*
X146018885Y-163676830D01*
X146121064Y-163523908D01*
X146325421Y-163218066D01*
X146715566Y-162827921D01*
X147174329Y-162521386D01*
X147174330Y-162521385D01*
X147684079Y-162310240D01*
X148225224Y-162202600D01*
X148776976Y-162202600D01*
X149318121Y-162310240D01*
X149318121Y-162310240D01*
G37*
G36*
X149318121Y-122310240D02*
X149827870Y-122521385D01*
X149827871Y-122521386D01*
X150286634Y-122827921D01*
X150676779Y-123218066D01*
X150881136Y-123523908D01*
X150983315Y-123676830D01*
X151194460Y-124186579D01*
X151302100Y-124727724D01*
X151302100Y-125279476D01*
X151194460Y-125820621D01*
X150983315Y-126330370D01*
X150983314Y-126330371D01*
X150676779Y-126789134D01*
X150286634Y-127179279D01*
X149980792Y-127383636D01*
X149827870Y-127485815D01*
X149318121Y-127696960D01*
X148776976Y-127804600D01*
X148225224Y-127804600D01*
X147684079Y-127696960D01*
X147174330Y-127485815D01*
X147021408Y-127383636D01*
X146715566Y-127179279D01*
X146325421Y-126789134D01*
X146018886Y-126330371D01*
X146018885Y-126330370D01*
X145807740Y-125820621D01*
X145700100Y-125279476D01*
X145700100Y-124727724D01*
X145807740Y-124186579D01*
X146018885Y-123676830D01*
X146121064Y-123523908D01*
X146325421Y-123218066D01*
X146715566Y-122827921D01*
X147174329Y-122521386D01*
X147174330Y-122521385D01*
X147684079Y-122310240D01*
X148225224Y-122202600D01*
X148776976Y-122202600D01*
X149318121Y-122310240D01*
X149318121Y-122310240D01*
G37*
G36*
X149318121Y-82310240D02*
X149827870Y-82521385D01*
X149827871Y-82521386D01*
X150286634Y-82827921D01*
X150676779Y-83218066D01*
X150881136Y-83523908D01*
X150983315Y-83676830D01*
X151194460Y-84186579D01*
X151302100Y-84727724D01*
X151302100Y-85279476D01*
X151194460Y-85820621D01*
X150983315Y-86330370D01*
X150983314Y-86330371D01*
X150676779Y-86789134D01*
X150286634Y-87179279D01*
X149980792Y-87383636D01*
X149827870Y-87485815D01*
X149318121Y-87696960D01*
X148776976Y-87804600D01*
X148225224Y-87804600D01*
X147684079Y-87696960D01*
X147174330Y-87485815D01*
X147021408Y-87383636D01*
X146715566Y-87179279D01*
X146325421Y-86789134D01*
X146018886Y-86330371D01*
X146018885Y-86330370D01*
X145807740Y-85820621D01*
X145700100Y-85279476D01*
X145700100Y-84727724D01*
X145807740Y-84186579D01*
X146018885Y-83676830D01*
X146121064Y-83523908D01*
X146325421Y-83218066D01*
X146715566Y-82827921D01*
X147174329Y-82521386D01*
X147174330Y-82521385D01*
X147684079Y-82310240D01*
X148225224Y-82202600D01*
X148776976Y-82202600D01*
X149318121Y-82310240D01*
X149318121Y-82310240D01*
G37*
M02*
