G04 #@! TF.GenerationSoftware,KiCad,Pcbnew,(5.0.2-5)-5*
G04 #@! TF.CreationDate,2021-05-15T23:07:52+01:00*
G04 #@! TF.ProjectId,power_supply_kicad_project_20210515,706f7765-725f-4737-9570-706c795f6b69,rev?*
G04 #@! TF.SameCoordinates,Original*
G04 #@! TF.FileFunction,Profile,NP*
%FSLAX46Y46*%
G04 Gerber Fmt 4.6, Leading zero omitted, Abs format (unit mm)*
G04 Created by KiCad (PCBNEW (5.0.2-5)-5) date Saturday, 15 May 2021 at 23:07:52*
%MOMM*%
%LPD*%
G01*
G04 APERTURE LIST*
%ADD10C,0.200000*%
G04 APERTURE END LIST*
D10*
X151151100Y-165003600D02*
G75*
G03X151151100Y-165003600I-2650000J0D01*
G01*
X154501100Y-45003600D02*
G75*
G03X154501100Y-45003600I-6000000J0D01*
G01*
X161201100Y-165003600D02*
X161201100Y-45003600D01*
X135801100Y-45003600D02*
X135801100Y-165003600D01*
X161201100Y-125003600D02*
X161201100Y-85003600D01*
X135801100Y-85003600D02*
X135801100Y-125003600D01*
X141401100Y-201653600D02*
G75*
G02X139801100Y-200053600I0J1600000D01*
G01*
X139801100Y-199953600D02*
X139801100Y-200053600D01*
X139801100Y-199953600D02*
G75*
G02X141401100Y-198353600I1600000J0D01*
G01*
X145201100Y-198353600D02*
X141401100Y-198353600D01*
X145201100Y-198353600D02*
G75*
G02X146801100Y-199953600I0J-1600000D01*
G01*
X146801100Y-200053600D02*
X146801100Y-199953600D01*
X146801100Y-200053600D02*
G75*
G02X145201100Y-201653600I-1600000J0D01*
G01*
X141401100Y-201653600D02*
X145201100Y-201653600D01*
X141401100Y-11653600D02*
G75*
G02X139801100Y-10053600I0J1600000D01*
G01*
X139801100Y-9953600D02*
X139801100Y-10053600D01*
X139801100Y-9953600D02*
G75*
G02X141401100Y-8353600I1600000J0D01*
G01*
X145201100Y-8353600D02*
X141401100Y-8353600D01*
X145201100Y-8353600D02*
G75*
G02X146801100Y-9953600I0J-1600000D01*
G01*
X146801100Y-10053600D02*
X146801100Y-9953600D01*
X146801100Y-10053600D02*
G75*
G02X145201100Y-11653600I-1600000J0D01*
G01*
X141401100Y-11653600D02*
X145201100Y-11653600D01*
X135801100Y-205003600D02*
X135801100Y-5003600D01*
X161201100Y-205003600D02*
X135801100Y-205003600D01*
X161201100Y-5003600D02*
X161201100Y-205003600D01*
X135801100Y-5003600D02*
X161201100Y-5003600D01*
M02*
