G04 #@! TF.GenerationSoftware,KiCad,Pcbnew,(5.0.2-5)-5*
G04 #@! TF.CreationDate,2021-05-15T23:07:52+01:00*
G04 #@! TF.ProjectId,power_supply_kicad_project_20210515,706f7765-725f-4737-9570-706c795f6b69,rev?*
G04 #@! TF.SameCoordinates,Original*
G04 #@! TF.FileFunction,Legend,Top*
G04 #@! TF.FilePolarity,Positive*
%FSLAX46Y46*%
G04 Gerber Fmt 4.6, Leading zero omitted, Abs format (unit mm)*
G04 Created by KiCad (PCBNEW (5.0.2-5)-5) date Saturday, 15 May 2021 at 23:07:52*
%MOMM*%
%LPD*%
G01*
G04 APERTURE LIST*
%ADD10C,0.010000*%
G04 APERTURE END LIST*
D10*
G04 #@! TO.C,G\002A\002A\002A*
G36*
X149686579Y-31644891D02*
X150064763Y-32579275D01*
X150071433Y-31644891D01*
X150078103Y-30710506D01*
X150458858Y-30710506D01*
X150458858Y-33814732D01*
X150119468Y-33799696D01*
X149748873Y-32879814D01*
X149378277Y-31959932D01*
X149371607Y-32886170D01*
X149364938Y-33812408D01*
X148958757Y-33812408D01*
X148958757Y-30710506D01*
X149308395Y-30710506D01*
X149686579Y-31644891D01*
X149686579Y-31644891D01*
G37*
X149686579Y-31644891D02*
X150064763Y-32579275D01*
X150071433Y-31644891D01*
X150078103Y-30710506D01*
X150458858Y-30710506D01*
X150458858Y-33814732D01*
X150119468Y-33799696D01*
X149748873Y-32879814D01*
X149378277Y-31959932D01*
X149371607Y-32886170D01*
X149364938Y-33812408D01*
X148958757Y-33812408D01*
X148958757Y-30710506D01*
X149308395Y-30710506D01*
X149686579Y-31644891D01*
G36*
X147796817Y-30729289D02*
X147962236Y-30785235D01*
X148097841Y-30881193D01*
X148206715Y-31019206D01*
X148276021Y-31159724D01*
X148291408Y-31198981D01*
X148303901Y-31236491D01*
X148313801Y-31277807D01*
X148321409Y-31328485D01*
X148327027Y-31394078D01*
X148330957Y-31480140D01*
X148333501Y-31592228D01*
X148334959Y-31735894D01*
X148335633Y-31916693D01*
X148335825Y-32140180D01*
X148335835Y-32261457D01*
X148335765Y-32506911D01*
X148335355Y-32707067D01*
X148334302Y-32867482D01*
X148332306Y-32993710D01*
X148329065Y-33091304D01*
X148324277Y-33165819D01*
X148317641Y-33222810D01*
X148308855Y-33267831D01*
X148297618Y-33306437D01*
X148283628Y-33344182D01*
X148276021Y-33363191D01*
X148186158Y-33535902D01*
X148071984Y-33664991D01*
X147930388Y-33752520D01*
X147758262Y-33800546D01*
X147598497Y-33811912D01*
X147474466Y-33807870D01*
X147380368Y-33793266D01*
X147295749Y-33764379D01*
X147267967Y-33751812D01*
X147126897Y-33664242D01*
X147018493Y-33547895D01*
X146939267Y-33397433D01*
X146885732Y-33207519D01*
X146875619Y-33151194D01*
X146867424Y-33071995D01*
X146860768Y-32950754D01*
X146855654Y-32796239D01*
X146852081Y-32617219D01*
X146850052Y-32422461D01*
X146849567Y-32220734D01*
X146850628Y-32020806D01*
X146852868Y-31858149D01*
X147257561Y-31858149D01*
X147257936Y-32045165D01*
X147259580Y-32276021D01*
X147260068Y-32330477D01*
X147262352Y-32563197D01*
X147264709Y-32750665D01*
X147267494Y-32898476D01*
X147271061Y-33012229D01*
X147275765Y-33097520D01*
X147281959Y-33159947D01*
X147289998Y-33205106D01*
X147300236Y-33238594D01*
X147313028Y-33266010D01*
X147320073Y-33278474D01*
X147393602Y-33357193D01*
X147496496Y-33406128D01*
X147614937Y-33422348D01*
X147735108Y-33402922D01*
X147792109Y-33378613D01*
X147836201Y-33339561D01*
X147880412Y-33278214D01*
X147884270Y-33271364D01*
X147896045Y-33245922D01*
X147905574Y-33213560D01*
X147913092Y-33169012D01*
X147918830Y-33107015D01*
X147923024Y-33022303D01*
X147925905Y-32909610D01*
X147927707Y-32763673D01*
X147928664Y-32579227D01*
X147929008Y-32351006D01*
X147929028Y-32261457D01*
X147928840Y-32016966D01*
X147928120Y-31818060D01*
X147926634Y-31659474D01*
X147924151Y-31535943D01*
X147920435Y-31442203D01*
X147915254Y-31372988D01*
X147908375Y-31323034D01*
X147899564Y-31287075D01*
X147888587Y-31259847D01*
X147884270Y-31251550D01*
X147827735Y-31174814D01*
X147753261Y-31129836D01*
X147648222Y-31110307D01*
X147597365Y-31108243D01*
X147475184Y-31118861D01*
X147388794Y-31159540D01*
X147328652Y-31237306D01*
X147292517Y-31332678D01*
X147281321Y-31378163D01*
X147272524Y-31432771D01*
X147265938Y-31502286D01*
X147261374Y-31592497D01*
X147258645Y-31709189D01*
X147257561Y-31858149D01*
X146852868Y-31858149D01*
X146853236Y-31831446D01*
X146857392Y-31661421D01*
X146863097Y-31519500D01*
X146870353Y-31414452D01*
X146875375Y-31373235D01*
X146927161Y-31161955D01*
X147007771Y-30992321D01*
X147118210Y-30863415D01*
X147259481Y-30774318D01*
X147432589Y-30724109D01*
X147598497Y-30711313D01*
X147796817Y-30729289D01*
X147796817Y-30729289D01*
G37*
X147796817Y-30729289D02*
X147962236Y-30785235D01*
X148097841Y-30881193D01*
X148206715Y-31019206D01*
X148276021Y-31159724D01*
X148291408Y-31198981D01*
X148303901Y-31236491D01*
X148313801Y-31277807D01*
X148321409Y-31328485D01*
X148327027Y-31394078D01*
X148330957Y-31480140D01*
X148333501Y-31592228D01*
X148334959Y-31735894D01*
X148335633Y-31916693D01*
X148335825Y-32140180D01*
X148335835Y-32261457D01*
X148335765Y-32506911D01*
X148335355Y-32707067D01*
X148334302Y-32867482D01*
X148332306Y-32993710D01*
X148329065Y-33091304D01*
X148324277Y-33165819D01*
X148317641Y-33222810D01*
X148308855Y-33267831D01*
X148297618Y-33306437D01*
X148283628Y-33344182D01*
X148276021Y-33363191D01*
X148186158Y-33535902D01*
X148071984Y-33664991D01*
X147930388Y-33752520D01*
X147758262Y-33800546D01*
X147598497Y-33811912D01*
X147474466Y-33807870D01*
X147380368Y-33793266D01*
X147295749Y-33764379D01*
X147267967Y-33751812D01*
X147126897Y-33664242D01*
X147018493Y-33547895D01*
X146939267Y-33397433D01*
X146885732Y-33207519D01*
X146875619Y-33151194D01*
X146867424Y-33071995D01*
X146860768Y-32950754D01*
X146855654Y-32796239D01*
X146852081Y-32617219D01*
X146850052Y-32422461D01*
X146849567Y-32220734D01*
X146850628Y-32020806D01*
X146852868Y-31858149D01*
X147257561Y-31858149D01*
X147257936Y-32045165D01*
X147259580Y-32276021D01*
X147260068Y-32330477D01*
X147262352Y-32563197D01*
X147264709Y-32750665D01*
X147267494Y-32898476D01*
X147271061Y-33012229D01*
X147275765Y-33097520D01*
X147281959Y-33159947D01*
X147289998Y-33205106D01*
X147300236Y-33238594D01*
X147313028Y-33266010D01*
X147320073Y-33278474D01*
X147393602Y-33357193D01*
X147496496Y-33406128D01*
X147614937Y-33422348D01*
X147735108Y-33402922D01*
X147792109Y-33378613D01*
X147836201Y-33339561D01*
X147880412Y-33278214D01*
X147884270Y-33271364D01*
X147896045Y-33245922D01*
X147905574Y-33213560D01*
X147913092Y-33169012D01*
X147918830Y-33107015D01*
X147923024Y-33022303D01*
X147925905Y-32909610D01*
X147927707Y-32763673D01*
X147928664Y-32579227D01*
X147929008Y-32351006D01*
X147929028Y-32261457D01*
X147928840Y-32016966D01*
X147928120Y-31818060D01*
X147926634Y-31659474D01*
X147924151Y-31535943D01*
X147920435Y-31442203D01*
X147915254Y-31372988D01*
X147908375Y-31323034D01*
X147899564Y-31287075D01*
X147888587Y-31259847D01*
X147884270Y-31251550D01*
X147827735Y-31174814D01*
X147753261Y-31129836D01*
X147648222Y-31110307D01*
X147597365Y-31108243D01*
X147475184Y-31118861D01*
X147388794Y-31159540D01*
X147328652Y-31237306D01*
X147292517Y-31332678D01*
X147281321Y-31378163D01*
X147272524Y-31432771D01*
X147265938Y-31502286D01*
X147261374Y-31592497D01*
X147258645Y-31709189D01*
X147257561Y-31858149D01*
X146852868Y-31858149D01*
X146853236Y-31831446D01*
X146857392Y-31661421D01*
X146863097Y-31519500D01*
X146870353Y-31414452D01*
X146875375Y-31373235D01*
X146927161Y-31161955D01*
X147007771Y-30992321D01*
X147118210Y-30863415D01*
X147259481Y-30774318D01*
X147432589Y-30724109D01*
X147598497Y-30711313D01*
X147796817Y-30729289D01*
G36*
X151348747Y-56390186D02*
X150458858Y-56390186D01*
X150458858Y-57330927D01*
X151348747Y-57330927D01*
X151348747Y-57737734D01*
X150458858Y-57737734D01*
X150458858Y-59110707D01*
X150052051Y-59110707D01*
X150052051Y-55983379D01*
X151348747Y-55983379D01*
X151348747Y-56390186D01*
X151348747Y-56390186D01*
G37*
X151348747Y-56390186D02*
X150458858Y-56390186D01*
X150458858Y-57330927D01*
X151348747Y-57330927D01*
X151348747Y-57737734D01*
X150458858Y-57737734D01*
X150458858Y-59110707D01*
X150052051Y-59110707D01*
X150052051Y-55983379D01*
X151348747Y-55983379D01*
X151348747Y-56390186D01*
G36*
X149378277Y-56377473D02*
X148926976Y-56384416D01*
X148475674Y-56391359D01*
X148475674Y-57329754D01*
X148926976Y-57336697D01*
X149378277Y-57343640D01*
X149393107Y-57736552D01*
X148488387Y-57750446D01*
X148481615Y-58430577D01*
X148474844Y-59110707D01*
X148094293Y-59110707D01*
X148094293Y-55983379D01*
X149393129Y-55983379D01*
X149378277Y-56377473D01*
X149378277Y-56377473D01*
G37*
X149378277Y-56377473D02*
X148926976Y-56384416D01*
X148475674Y-56391359D01*
X148475674Y-57329754D01*
X148926976Y-57336697D01*
X149378277Y-57343640D01*
X149393107Y-57736552D01*
X148488387Y-57750446D01*
X148481615Y-58430577D01*
X148474844Y-59110707D01*
X148094293Y-59110707D01*
X148094293Y-55983379D01*
X149393129Y-55983379D01*
X149378277Y-56377473D01*
G36*
X146884454Y-56003541D02*
X147011493Y-56028983D01*
X147115542Y-56077836D01*
X147209702Y-56155377D01*
X147264380Y-56214909D01*
X147308154Y-56267731D01*
X147344267Y-56317957D01*
X147373456Y-56370935D01*
X147396455Y-56432009D01*
X147414000Y-56506528D01*
X147426827Y-56599837D01*
X147435672Y-56717283D01*
X147441271Y-56864211D01*
X147444359Y-57045969D01*
X147445671Y-57267904D01*
X147445945Y-57534330D01*
X147445742Y-57796317D01*
X147444719Y-58012946D01*
X147442248Y-58189709D01*
X147437706Y-58332099D01*
X147430467Y-58445607D01*
X147419906Y-58535726D01*
X147405397Y-58607949D01*
X147386317Y-58667766D01*
X147362038Y-58720672D01*
X147331937Y-58772158D01*
X147299403Y-58821743D01*
X147190050Y-58940607D01*
X147046999Y-59028093D01*
X146878770Y-59081170D01*
X146693883Y-59096805D01*
X146561715Y-59084289D01*
X146387913Y-59031066D01*
X146241317Y-58936045D01*
X146125070Y-58802224D01*
X146042315Y-58632601D01*
X146023232Y-58570549D01*
X146011936Y-58522940D01*
X146002923Y-58469330D01*
X145996013Y-58404062D01*
X145991029Y-58321481D01*
X145987793Y-58215930D01*
X145986127Y-58081753D01*
X145985852Y-57913296D01*
X145986790Y-57704901D01*
X145987997Y-57547890D01*
X146378077Y-57547890D01*
X146378270Y-57783100D01*
X146379034Y-57973128D01*
X146380647Y-58123642D01*
X146383388Y-58240311D01*
X146387533Y-58328801D01*
X146393361Y-58394782D01*
X146401150Y-58443921D01*
X146411177Y-58481887D01*
X146423722Y-58514347D01*
X146425680Y-58518742D01*
X146484759Y-58610104D01*
X146552807Y-58664953D01*
X146644641Y-58692135D01*
X146751728Y-58695643D01*
X146853279Y-58676987D01*
X146928490Y-58637687D01*
X146959859Y-58607578D01*
X146985413Y-58575167D01*
X147005744Y-58535188D01*
X147021440Y-58482377D01*
X147033091Y-58411470D01*
X147041287Y-58317202D01*
X147046619Y-58194307D01*
X147049675Y-58037523D01*
X147051046Y-57841583D01*
X147051320Y-57601223D01*
X147051292Y-57541503D01*
X147050962Y-57303737D01*
X147050118Y-57111222D01*
X147048485Y-56958362D01*
X147045788Y-56839557D01*
X147041753Y-56749211D01*
X147036103Y-56681724D01*
X147028563Y-56631499D01*
X147018859Y-56592938D01*
X147006714Y-56560442D01*
X147002603Y-56551146D01*
X146955275Y-56468306D01*
X146896989Y-56418885D01*
X146814286Y-56395383D01*
X146713708Y-56390186D01*
X146606502Y-56398699D01*
X146531180Y-56427011D01*
X146510473Y-56441435D01*
X146476986Y-56470572D01*
X146449651Y-56503590D01*
X146427848Y-56545668D01*
X146410958Y-56601985D01*
X146398361Y-56677720D01*
X146389437Y-56778053D01*
X146383566Y-56908162D01*
X146380129Y-57073227D01*
X146378507Y-57278427D01*
X146378078Y-57528941D01*
X146378077Y-57547890D01*
X145987997Y-57547890D01*
X145988591Y-57470767D01*
X145990778Y-57226901D01*
X145992944Y-57028384D01*
X145995433Y-56869716D01*
X145998587Y-56745396D01*
X146002749Y-56649924D01*
X146008263Y-56577799D01*
X146015471Y-56523520D01*
X146024717Y-56481587D01*
X146036345Y-56446500D01*
X146050696Y-56412759D01*
X146055205Y-56402899D01*
X146156568Y-56238201D01*
X146291225Y-56106896D01*
X146378077Y-56051141D01*
X146438269Y-56023750D01*
X146504483Y-56007031D01*
X146591361Y-55998641D01*
X146713546Y-55996238D01*
X146721320Y-55996233D01*
X146884454Y-56003541D01*
X146884454Y-56003541D01*
G37*
X146884454Y-56003541D02*
X147011493Y-56028983D01*
X147115542Y-56077836D01*
X147209702Y-56155377D01*
X147264380Y-56214909D01*
X147308154Y-56267731D01*
X147344267Y-56317957D01*
X147373456Y-56370935D01*
X147396455Y-56432009D01*
X147414000Y-56506528D01*
X147426827Y-56599837D01*
X147435672Y-56717283D01*
X147441271Y-56864211D01*
X147444359Y-57045969D01*
X147445671Y-57267904D01*
X147445945Y-57534330D01*
X147445742Y-57796317D01*
X147444719Y-58012946D01*
X147442248Y-58189709D01*
X147437706Y-58332099D01*
X147430467Y-58445607D01*
X147419906Y-58535726D01*
X147405397Y-58607949D01*
X147386317Y-58667766D01*
X147362038Y-58720672D01*
X147331937Y-58772158D01*
X147299403Y-58821743D01*
X147190050Y-58940607D01*
X147046999Y-59028093D01*
X146878770Y-59081170D01*
X146693883Y-59096805D01*
X146561715Y-59084289D01*
X146387913Y-59031066D01*
X146241317Y-58936045D01*
X146125070Y-58802224D01*
X146042315Y-58632601D01*
X146023232Y-58570549D01*
X146011936Y-58522940D01*
X146002923Y-58469330D01*
X145996013Y-58404062D01*
X145991029Y-58321481D01*
X145987793Y-58215930D01*
X145986127Y-58081753D01*
X145985852Y-57913296D01*
X145986790Y-57704901D01*
X145987997Y-57547890D01*
X146378077Y-57547890D01*
X146378270Y-57783100D01*
X146379034Y-57973128D01*
X146380647Y-58123642D01*
X146383388Y-58240311D01*
X146387533Y-58328801D01*
X146393361Y-58394782D01*
X146401150Y-58443921D01*
X146411177Y-58481887D01*
X146423722Y-58514347D01*
X146425680Y-58518742D01*
X146484759Y-58610104D01*
X146552807Y-58664953D01*
X146644641Y-58692135D01*
X146751728Y-58695643D01*
X146853279Y-58676987D01*
X146928490Y-58637687D01*
X146959859Y-58607578D01*
X146985413Y-58575167D01*
X147005744Y-58535188D01*
X147021440Y-58482377D01*
X147033091Y-58411470D01*
X147041287Y-58317202D01*
X147046619Y-58194307D01*
X147049675Y-58037523D01*
X147051046Y-57841583D01*
X147051320Y-57601223D01*
X147051292Y-57541503D01*
X147050962Y-57303737D01*
X147050118Y-57111222D01*
X147048485Y-56958362D01*
X147045788Y-56839557D01*
X147041753Y-56749211D01*
X147036103Y-56681724D01*
X147028563Y-56631499D01*
X147018859Y-56592938D01*
X147006714Y-56560442D01*
X147002603Y-56551146D01*
X146955275Y-56468306D01*
X146896989Y-56418885D01*
X146814286Y-56395383D01*
X146713708Y-56390186D01*
X146606502Y-56398699D01*
X146531180Y-56427011D01*
X146510473Y-56441435D01*
X146476986Y-56470572D01*
X146449651Y-56503590D01*
X146427848Y-56545668D01*
X146410958Y-56601985D01*
X146398361Y-56677720D01*
X146389437Y-56778053D01*
X146383566Y-56908162D01*
X146380129Y-57073227D01*
X146378507Y-57278427D01*
X146378078Y-57528941D01*
X146378077Y-57547890D01*
X145987997Y-57547890D01*
X145988591Y-57470767D01*
X145990778Y-57226901D01*
X145992944Y-57028384D01*
X145995433Y-56869716D01*
X145998587Y-56745396D01*
X146002749Y-56649924D01*
X146008263Y-56577799D01*
X146015471Y-56523520D01*
X146024717Y-56481587D01*
X146036345Y-56446500D01*
X146050696Y-56412759D01*
X146055205Y-56402899D01*
X146156568Y-56238201D01*
X146291225Y-56106896D01*
X146378077Y-56051141D01*
X146438269Y-56023750D01*
X146504483Y-56007031D01*
X146591361Y-55998641D01*
X146713546Y-55996238D01*
X146721320Y-55996233D01*
X146884454Y-56003541D01*
G36*
X146594193Y-75738935D02*
X147204403Y-75738935D01*
X147204403Y-76120316D01*
X146594193Y-76120316D01*
X146594193Y-76755952D01*
X146187386Y-76755952D01*
X146187386Y-76120316D01*
X145577176Y-76120316D01*
X145577176Y-75738935D01*
X146187386Y-75738935D01*
X146187386Y-75103299D01*
X146594193Y-75103299D01*
X146594193Y-75738935D01*
X146594193Y-75738935D01*
G37*
X146594193Y-75738935D02*
X147204403Y-75738935D01*
X147204403Y-76120316D01*
X146594193Y-76120316D01*
X146594193Y-76755952D01*
X146187386Y-76755952D01*
X146187386Y-76120316D01*
X145577176Y-76120316D01*
X145577176Y-75738935D01*
X146187386Y-75738935D01*
X146187386Y-75103299D01*
X146594193Y-75103299D01*
X146594193Y-75738935D01*
G36*
X151714057Y-74370611D02*
X151743054Y-74379243D01*
X151749238Y-74396260D01*
X151746424Y-74409395D01*
X151737971Y-74441706D01*
X151718238Y-74518884D01*
X151688350Y-74636485D01*
X151649431Y-74790062D01*
X151602606Y-74975169D01*
X151549000Y-75187360D01*
X151489737Y-75422187D01*
X151425943Y-75675206D01*
X151361851Y-75929626D01*
X151294785Y-76195825D01*
X151231174Y-76448047D01*
X151172143Y-76681851D01*
X151118818Y-76892793D01*
X151072322Y-77076432D01*
X151033780Y-77228325D01*
X151004317Y-77344031D01*
X150985058Y-77419107D01*
X150977224Y-77448795D01*
X150959545Y-77474571D01*
X150918239Y-77488271D01*
X150841450Y-77493094D01*
X150812302Y-77493289D01*
X150713088Y-77487818D01*
X150658190Y-77471910D01*
X150648970Y-77461507D01*
X150640941Y-77431741D01*
X150621849Y-77356958D01*
X150592781Y-77241519D01*
X150554824Y-77089785D01*
X150509063Y-76906117D01*
X150456586Y-76694876D01*
X150398479Y-76460424D01*
X150335827Y-76207121D01*
X150269719Y-75939329D01*
X150267326Y-75929626D01*
X150201118Y-75661367D01*
X150138343Y-75407414D01*
X150080086Y-75172132D01*
X150027433Y-74959886D01*
X149981469Y-74775040D01*
X149943279Y-74621960D01*
X149913949Y-74505010D01*
X149894564Y-74428556D01*
X149886210Y-74396961D01*
X149886131Y-74396722D01*
X149891835Y-74380380D01*
X149927892Y-74371561D01*
X150001709Y-74369314D01*
X150084238Y-74371297D01*
X150293592Y-74378675D01*
X150550573Y-75408404D01*
X150605646Y-75626791D01*
X150657397Y-75827604D01*
X150704486Y-76005971D01*
X150745577Y-76157021D01*
X150779331Y-76275883D01*
X150804410Y-76357685D01*
X150819475Y-76397556D01*
X150822952Y-76399996D01*
X150832396Y-76367678D01*
X150852856Y-76291528D01*
X150882915Y-76177020D01*
X150921153Y-76029629D01*
X150966153Y-75854829D01*
X151016497Y-75658095D01*
X151070767Y-75444902D01*
X151089702Y-75370266D01*
X151341052Y-74378675D01*
X151550353Y-74371257D01*
X151652929Y-74368554D01*
X151714057Y-74370611D01*
X151714057Y-74370611D01*
G37*
X151714057Y-74370611D02*
X151743054Y-74379243D01*
X151749238Y-74396260D01*
X151746424Y-74409395D01*
X151737971Y-74441706D01*
X151718238Y-74518884D01*
X151688350Y-74636485D01*
X151649431Y-74790062D01*
X151602606Y-74975169D01*
X151549000Y-75187360D01*
X151489737Y-75422187D01*
X151425943Y-75675206D01*
X151361851Y-75929626D01*
X151294785Y-76195825D01*
X151231174Y-76448047D01*
X151172143Y-76681851D01*
X151118818Y-76892793D01*
X151072322Y-77076432D01*
X151033780Y-77228325D01*
X151004317Y-77344031D01*
X150985058Y-77419107D01*
X150977224Y-77448795D01*
X150959545Y-77474571D01*
X150918239Y-77488271D01*
X150841450Y-77493094D01*
X150812302Y-77493289D01*
X150713088Y-77487818D01*
X150658190Y-77471910D01*
X150648970Y-77461507D01*
X150640941Y-77431741D01*
X150621849Y-77356958D01*
X150592781Y-77241519D01*
X150554824Y-77089785D01*
X150509063Y-76906117D01*
X150456586Y-76694876D01*
X150398479Y-76460424D01*
X150335827Y-76207121D01*
X150269719Y-75939329D01*
X150267326Y-75929626D01*
X150201118Y-75661367D01*
X150138343Y-75407414D01*
X150080086Y-75172132D01*
X150027433Y-74959886D01*
X149981469Y-74775040D01*
X149943279Y-74621960D01*
X149913949Y-74505010D01*
X149894564Y-74428556D01*
X149886210Y-74396961D01*
X149886131Y-74396722D01*
X149891835Y-74380380D01*
X149927892Y-74371561D01*
X150001709Y-74369314D01*
X150084238Y-74371297D01*
X150293592Y-74378675D01*
X150550573Y-75408404D01*
X150605646Y-75626791D01*
X150657397Y-75827604D01*
X150704486Y-76005971D01*
X150745577Y-76157021D01*
X150779331Y-76275883D01*
X150804410Y-76357685D01*
X150819475Y-76397556D01*
X150822952Y-76399996D01*
X150832396Y-76367678D01*
X150852856Y-76291528D01*
X150882915Y-76177020D01*
X150921153Y-76029629D01*
X150966153Y-75854829D01*
X151016497Y-75658095D01*
X151070767Y-75444902D01*
X151089702Y-75370266D01*
X151341052Y-74378675D01*
X151550353Y-74371257D01*
X151652929Y-74368554D01*
X151714057Y-74370611D01*
G36*
X149238437Y-74772769D02*
X148297696Y-74772769D01*
X148297696Y-75479872D01*
X148500703Y-75465958D01*
X148670378Y-75465345D01*
X148806872Y-75492302D01*
X148922100Y-75550908D01*
X149027979Y-75645241D01*
X149029538Y-75646929D01*
X149095255Y-75726071D01*
X149144929Y-75807730D01*
X149180606Y-75900466D01*
X149204334Y-76012840D01*
X149218158Y-76153410D01*
X149224125Y-76330736D01*
X149224775Y-76463559D01*
X149223766Y-76627184D01*
X149220913Y-76749796D01*
X149215243Y-76841229D01*
X149205781Y-76911314D01*
X149191552Y-76969883D01*
X149171582Y-77026768D01*
X149168084Y-77035632D01*
X149077899Y-77205393D01*
X148960366Y-77338565D01*
X148821263Y-77432313D01*
X148666369Y-77483798D01*
X148501461Y-77490184D01*
X148332320Y-77448634D01*
X148329228Y-77447412D01*
X148196111Y-77370649D01*
X148079739Y-77258852D01*
X147988755Y-77124244D01*
X147931807Y-76979047D01*
X147916563Y-76864010D01*
X147916315Y-76755952D01*
X148292037Y-76755952D01*
X148309449Y-76848766D01*
X148346118Y-76944023D01*
X148410482Y-77023553D01*
X148489717Y-77074574D01*
X148547915Y-77086482D01*
X148635431Y-77078231D01*
X148695518Y-77046116D01*
X148745425Y-76979098D01*
X148761341Y-76949863D01*
X148785211Y-76896233D01*
X148802056Y-76835149D01*
X148813544Y-76755456D01*
X148821347Y-76646003D01*
X148826548Y-76514410D01*
X148828398Y-76307284D01*
X148818104Y-76145528D01*
X148794016Y-76024756D01*
X148754481Y-75940583D01*
X148697851Y-75888622D01*
X148622473Y-75864487D01*
X148580805Y-75861518D01*
X148484158Y-75872588D01*
X148413201Y-75912860D01*
X148362953Y-75988327D01*
X148328431Y-76104981D01*
X148315507Y-76180653D01*
X148287570Y-76374570D01*
X147916315Y-76374570D01*
X147916315Y-74365962D01*
X149238437Y-74365962D01*
X149238437Y-74772769D01*
X149238437Y-74772769D01*
G37*
X149238437Y-74772769D02*
X148297696Y-74772769D01*
X148297696Y-75479872D01*
X148500703Y-75465958D01*
X148670378Y-75465345D01*
X148806872Y-75492302D01*
X148922100Y-75550908D01*
X149027979Y-75645241D01*
X149029538Y-75646929D01*
X149095255Y-75726071D01*
X149144929Y-75807730D01*
X149180606Y-75900466D01*
X149204334Y-76012840D01*
X149218158Y-76153410D01*
X149224125Y-76330736D01*
X149224775Y-76463559D01*
X149223766Y-76627184D01*
X149220913Y-76749796D01*
X149215243Y-76841229D01*
X149205781Y-76911314D01*
X149191552Y-76969883D01*
X149171582Y-77026768D01*
X149168084Y-77035632D01*
X149077899Y-77205393D01*
X148960366Y-77338565D01*
X148821263Y-77432313D01*
X148666369Y-77483798D01*
X148501461Y-77490184D01*
X148332320Y-77448634D01*
X148329228Y-77447412D01*
X148196111Y-77370649D01*
X148079739Y-77258852D01*
X147988755Y-77124244D01*
X147931807Y-76979047D01*
X147916563Y-76864010D01*
X147916315Y-76755952D01*
X148292037Y-76755952D01*
X148309449Y-76848766D01*
X148346118Y-76944023D01*
X148410482Y-77023553D01*
X148489717Y-77074574D01*
X148547915Y-77086482D01*
X148635431Y-77078231D01*
X148695518Y-77046116D01*
X148745425Y-76979098D01*
X148761341Y-76949863D01*
X148785211Y-76896233D01*
X148802056Y-76835149D01*
X148813544Y-76755456D01*
X148821347Y-76646003D01*
X148826548Y-76514410D01*
X148828398Y-76307284D01*
X148818104Y-76145528D01*
X148794016Y-76024756D01*
X148754481Y-75940583D01*
X148697851Y-75888622D01*
X148622473Y-75864487D01*
X148580805Y-75861518D01*
X148484158Y-75872588D01*
X148413201Y-75912860D01*
X148362953Y-75988327D01*
X148328431Y-76104981D01*
X148315507Y-76180653D01*
X148287570Y-76374570D01*
X147916315Y-76374570D01*
X147916315Y-74365962D01*
X149238437Y-74365962D01*
X149238437Y-74772769D01*
G36*
X145831430Y-115604437D02*
X146142892Y-115611576D01*
X146454353Y-115618715D01*
X146469205Y-116012809D01*
X145831430Y-116012809D01*
X145831430Y-116648444D01*
X145644977Y-116648444D01*
X145551970Y-116646282D01*
X145479912Y-116640581D01*
X145442936Y-116632518D01*
X145441574Y-116631494D01*
X145434949Y-116600804D01*
X145429538Y-116529919D01*
X145425907Y-116429489D01*
X145424623Y-116313676D01*
X145424623Y-116012809D01*
X144814413Y-116012809D01*
X144814413Y-115606002D01*
X145424623Y-115606002D01*
X145424623Y-114995792D01*
X145831430Y-114995792D01*
X145831430Y-115604437D01*
X145831430Y-115604437D01*
G37*
X145831430Y-115604437D02*
X146142892Y-115611576D01*
X146454353Y-115618715D01*
X146469205Y-116012809D01*
X145831430Y-116012809D01*
X145831430Y-116648444D01*
X145644977Y-116648444D01*
X145551970Y-116646282D01*
X145479912Y-116640581D01*
X145442936Y-116632518D01*
X145441574Y-116631494D01*
X145434949Y-116600804D01*
X145429538Y-116529919D01*
X145425907Y-116429489D01*
X145424623Y-116313676D01*
X145424623Y-116012809D01*
X144814413Y-116012809D01*
X144814413Y-115606002D01*
X145424623Y-115606002D01*
X145424623Y-114995792D01*
X145831430Y-114995792D01*
X145831430Y-115604437D01*
G36*
X152122599Y-115803049D02*
X152053846Y-116074593D01*
X151988922Y-116331529D01*
X151928889Y-116569621D01*
X151874809Y-116784633D01*
X151827743Y-116972328D01*
X151788754Y-117128471D01*
X151758904Y-117248825D01*
X151739253Y-117329156D01*
X151730865Y-117365225D01*
X151730632Y-117366713D01*
X151707737Y-117377240D01*
X151650815Y-117383456D01*
X151576505Y-117385380D01*
X151501445Y-117383029D01*
X151442276Y-117376422D01*
X151416029Y-117366373D01*
X151407936Y-117338864D01*
X151388757Y-117266297D01*
X151359583Y-117152985D01*
X151321501Y-117003242D01*
X151275600Y-116821381D01*
X151222969Y-116611717D01*
X151164696Y-116378562D01*
X151101871Y-116126230D01*
X151035581Y-115859036D01*
X151032650Y-115847204D01*
X150966077Y-115578553D01*
X150902866Y-115323850D01*
X150844121Y-115087507D01*
X150790941Y-114873937D01*
X150744429Y-114687553D01*
X150705684Y-114532767D01*
X150675810Y-114413991D01*
X150655906Y-114335640D01*
X150647074Y-114302124D01*
X150647001Y-114301887D01*
X150644264Y-114279703D01*
X150659405Y-114266822D01*
X150701675Y-114261443D01*
X150780325Y-114261769D01*
X150843088Y-114263749D01*
X151053441Y-114271167D01*
X151311612Y-115300897D01*
X151375021Y-115553159D01*
X151427480Y-115759937D01*
X151470162Y-115925129D01*
X151504242Y-116052636D01*
X151530891Y-116146358D01*
X151551284Y-116210194D01*
X151566593Y-116248044D01*
X151577992Y-116263807D01*
X151586653Y-116261385D01*
X151593751Y-116244675D01*
X151594625Y-116241638D01*
X151606347Y-116197382D01*
X151628984Y-116109837D01*
X151661002Y-115985013D01*
X151700864Y-115828925D01*
X151747036Y-115647585D01*
X151797982Y-115447006D01*
X151852168Y-115233200D01*
X151859132Y-115205688D01*
X152098797Y-114258727D01*
X152306430Y-114258590D01*
X152514062Y-114258454D01*
X152122599Y-115803049D01*
X152122599Y-115803049D01*
G37*
X152122599Y-115803049D02*
X152053846Y-116074593D01*
X151988922Y-116331529D01*
X151928889Y-116569621D01*
X151874809Y-116784633D01*
X151827743Y-116972328D01*
X151788754Y-117128471D01*
X151758904Y-117248825D01*
X151739253Y-117329156D01*
X151730865Y-117365225D01*
X151730632Y-117366713D01*
X151707737Y-117377240D01*
X151650815Y-117383456D01*
X151576505Y-117385380D01*
X151501445Y-117383029D01*
X151442276Y-117376422D01*
X151416029Y-117366373D01*
X151407936Y-117338864D01*
X151388757Y-117266297D01*
X151359583Y-117152985D01*
X151321501Y-117003242D01*
X151275600Y-116821381D01*
X151222969Y-116611717D01*
X151164696Y-116378562D01*
X151101871Y-116126230D01*
X151035581Y-115859036D01*
X151032650Y-115847204D01*
X150966077Y-115578553D01*
X150902866Y-115323850D01*
X150844121Y-115087507D01*
X150790941Y-114873937D01*
X150744429Y-114687553D01*
X150705684Y-114532767D01*
X150675810Y-114413991D01*
X150655906Y-114335640D01*
X150647074Y-114302124D01*
X150647001Y-114301887D01*
X150644264Y-114279703D01*
X150659405Y-114266822D01*
X150701675Y-114261443D01*
X150780325Y-114261769D01*
X150843088Y-114263749D01*
X151053441Y-114271167D01*
X151311612Y-115300897D01*
X151375021Y-115553159D01*
X151427480Y-115759937D01*
X151470162Y-115925129D01*
X151504242Y-116052636D01*
X151530891Y-116146358D01*
X151551284Y-116210194D01*
X151566593Y-116248044D01*
X151577992Y-116263807D01*
X151586653Y-116261385D01*
X151593751Y-116244675D01*
X151594625Y-116241638D01*
X151606347Y-116197382D01*
X151628984Y-116109837D01*
X151661002Y-115985013D01*
X151700864Y-115828925D01*
X151747036Y-115647585D01*
X151797982Y-115447006D01*
X151852168Y-115233200D01*
X151859132Y-115205688D01*
X152098797Y-114258727D01*
X152306430Y-114258590D01*
X152514062Y-114258454D01*
X152122599Y-115803049D01*
G36*
X149499908Y-114278896D02*
X149635631Y-114317925D01*
X149669482Y-114334731D01*
X149808555Y-114441274D01*
X149915529Y-114584930D01*
X149988626Y-114761989D01*
X150026064Y-114968741D01*
X150030844Y-115088115D01*
X150006747Y-115320080D01*
X149935198Y-115542195D01*
X149814504Y-115759705D01*
X149813740Y-115760841D01*
X149756411Y-115845776D01*
X149680187Y-115958424D01*
X149594775Y-116084454D01*
X149509881Y-116209532D01*
X149505343Y-116216212D01*
X149362773Y-116437372D01*
X149254524Y-116630299D01*
X149181745Y-116792793D01*
X149150478Y-116896342D01*
X149132695Y-116978975D01*
X150052051Y-116978975D01*
X150052051Y-117385782D01*
X149392490Y-117385782D01*
X149159097Y-117384774D01*
X148975720Y-117381731D01*
X148841561Y-117376618D01*
X148755825Y-117369405D01*
X148717716Y-117360058D01*
X148715925Y-117358268D01*
X148709275Y-117318406D01*
X148709520Y-117241195D01*
X148715630Y-117139515D01*
X148726577Y-117026247D01*
X148741329Y-116914269D01*
X148758859Y-116816464D01*
X148759454Y-116813710D01*
X148802024Y-116668006D01*
X148871204Y-116503344D01*
X148968966Y-116316174D01*
X149097280Y-116102947D01*
X149258120Y-115860116D01*
X149405877Y-115650022D01*
X149529422Y-115457173D01*
X149608209Y-115284475D01*
X149643164Y-115129741D01*
X149645244Y-115084781D01*
X149635075Y-114987883D01*
X149608508Y-114883786D01*
X149571458Y-114789340D01*
X149529835Y-114721395D01*
X149511756Y-114704349D01*
X149435956Y-114674364D01*
X149340617Y-114665621D01*
X149253466Y-114680608D01*
X149252289Y-114681055D01*
X149196796Y-114729138D01*
X149154819Y-114824496D01*
X149127012Y-114965208D01*
X149116932Y-115078592D01*
X149104142Y-115302907D01*
X148910679Y-115295545D01*
X148717216Y-115288184D01*
X148724365Y-115059355D01*
X148747800Y-114826695D01*
X148802426Y-114633965D01*
X148888412Y-114480802D01*
X149005930Y-114366841D01*
X149066475Y-114329654D01*
X149195806Y-114284596D01*
X149346791Y-114267731D01*
X149499908Y-114278896D01*
X149499908Y-114278896D01*
G37*
X149499908Y-114278896D02*
X149635631Y-114317925D01*
X149669482Y-114334731D01*
X149808555Y-114441274D01*
X149915529Y-114584930D01*
X149988626Y-114761989D01*
X150026064Y-114968741D01*
X150030844Y-115088115D01*
X150006747Y-115320080D01*
X149935198Y-115542195D01*
X149814504Y-115759705D01*
X149813740Y-115760841D01*
X149756411Y-115845776D01*
X149680187Y-115958424D01*
X149594775Y-116084454D01*
X149509881Y-116209532D01*
X149505343Y-116216212D01*
X149362773Y-116437372D01*
X149254524Y-116630299D01*
X149181745Y-116792793D01*
X149150478Y-116896342D01*
X149132695Y-116978975D01*
X150052051Y-116978975D01*
X150052051Y-117385782D01*
X149392490Y-117385782D01*
X149159097Y-117384774D01*
X148975720Y-117381731D01*
X148841561Y-117376618D01*
X148755825Y-117369405D01*
X148717716Y-117360058D01*
X148715925Y-117358268D01*
X148709275Y-117318406D01*
X148709520Y-117241195D01*
X148715630Y-117139515D01*
X148726577Y-117026247D01*
X148741329Y-116914269D01*
X148758859Y-116816464D01*
X148759454Y-116813710D01*
X148802024Y-116668006D01*
X148871204Y-116503344D01*
X148968966Y-116316174D01*
X149097280Y-116102947D01*
X149258120Y-115860116D01*
X149405877Y-115650022D01*
X149529422Y-115457173D01*
X149608209Y-115284475D01*
X149643164Y-115129741D01*
X149645244Y-115084781D01*
X149635075Y-114987883D01*
X149608508Y-114883786D01*
X149571458Y-114789340D01*
X149529835Y-114721395D01*
X149511756Y-114704349D01*
X149435956Y-114674364D01*
X149340617Y-114665621D01*
X149253466Y-114680608D01*
X149252289Y-114681055D01*
X149196796Y-114729138D01*
X149154819Y-114824496D01*
X149127012Y-114965208D01*
X149116932Y-115078592D01*
X149104142Y-115302907D01*
X148910679Y-115295545D01*
X148717216Y-115288184D01*
X148724365Y-115059355D01*
X148747800Y-114826695D01*
X148802426Y-114633965D01*
X148888412Y-114480802D01*
X149005930Y-114366841D01*
X149066475Y-114329654D01*
X149195806Y-114284596D01*
X149346791Y-114267731D01*
X149499908Y-114278896D01*
G36*
X148043442Y-117385782D02*
X147636635Y-117385782D01*
X147636635Y-114988162D01*
X147556739Y-115100035D01*
X147510796Y-115164044D01*
X147478074Y-115209032D01*
X147468370Y-115221882D01*
X147446421Y-115211642D01*
X147396047Y-115175479D01*
X147327304Y-115120710D01*
X147313081Y-115108875D01*
X147241513Y-115049095D01*
X147186575Y-115003519D01*
X147158555Y-114980678D01*
X147157215Y-114979675D01*
X147168079Y-114957955D01*
X147203842Y-114901625D01*
X147259952Y-114817526D01*
X147331859Y-114712503D01*
X147398757Y-114616510D01*
X147649348Y-114259565D01*
X147846395Y-114259010D01*
X148043442Y-114258454D01*
X148043442Y-117385782D01*
X148043442Y-117385782D01*
G37*
X148043442Y-117385782D02*
X147636635Y-117385782D01*
X147636635Y-114988162D01*
X147556739Y-115100035D01*
X147510796Y-115164044D01*
X147478074Y-115209032D01*
X147468370Y-115221882D01*
X147446421Y-115211642D01*
X147396047Y-115175479D01*
X147327304Y-115120710D01*
X147313081Y-115108875D01*
X147241513Y-115049095D01*
X147186575Y-115003519D01*
X147158555Y-114980678D01*
X147157215Y-114979675D01*
X147168079Y-114957955D01*
X147203842Y-114901625D01*
X147259952Y-114817526D01*
X147331859Y-114712503D01*
X147398757Y-114616510D01*
X147649348Y-114259565D01*
X147846395Y-114259010D01*
X148043442Y-114258454D01*
X148043442Y-117385782D01*
G36*
X146289088Y-155854450D02*
X144992391Y-155854450D01*
X144992391Y-155447644D01*
X146289088Y-155447644D01*
X146289088Y-155854450D01*
X146289088Y-155854450D01*
G37*
X146289088Y-155854450D02*
X144992391Y-155854450D01*
X144992391Y-155447644D01*
X146289088Y-155447644D01*
X146289088Y-155854450D01*
G36*
X152323833Y-154168976D02*
X152314545Y-154205933D01*
X152294055Y-154287696D01*
X152263495Y-154409735D01*
X152223999Y-154567525D01*
X152176698Y-154756538D01*
X152122728Y-154972246D01*
X152063219Y-155210123D01*
X151999306Y-155465640D01*
X151933858Y-155727323D01*
X151561881Y-157214711D01*
X151404463Y-157222280D01*
X151322430Y-157225106D01*
X151265145Y-157224944D01*
X151246117Y-157222280D01*
X151239947Y-157196960D01*
X151222466Y-157126496D01*
X151194718Y-157015069D01*
X151157748Y-156866863D01*
X151112600Y-156686059D01*
X151060319Y-156476840D01*
X151001948Y-156243388D01*
X150938533Y-155989886D01*
X150871119Y-155720516D01*
X150855319Y-155657403D01*
X150465450Y-154100096D01*
X150879274Y-154100096D01*
X151132631Y-155117113D01*
X151187497Y-155335807D01*
X151239058Y-155538376D01*
X151285950Y-155719669D01*
X151326806Y-155874535D01*
X151360259Y-155997823D01*
X151384944Y-156084381D01*
X151399493Y-156129059D01*
X151402395Y-156134130D01*
X151411886Y-156110303D01*
X151432158Y-156042265D01*
X151461837Y-155935183D01*
X151499550Y-155794222D01*
X151543922Y-155624548D01*
X151593578Y-155431328D01*
X151647144Y-155219727D01*
X151671264Y-155123469D01*
X151923726Y-154112809D01*
X152341830Y-154098015D01*
X152323833Y-154168976D01*
X152323833Y-154168976D01*
G37*
X152323833Y-154168976D02*
X152314545Y-154205933D01*
X152294055Y-154287696D01*
X152263495Y-154409735D01*
X152223999Y-154567525D01*
X152176698Y-154756538D01*
X152122728Y-154972246D01*
X152063219Y-155210123D01*
X151999306Y-155465640D01*
X151933858Y-155727323D01*
X151561881Y-157214711D01*
X151404463Y-157222280D01*
X151322430Y-157225106D01*
X151265145Y-157224944D01*
X151246117Y-157222280D01*
X151239947Y-157196960D01*
X151222466Y-157126496D01*
X151194718Y-157015069D01*
X151157748Y-156866863D01*
X151112600Y-156686059D01*
X151060319Y-156476840D01*
X151001948Y-156243388D01*
X150938533Y-155989886D01*
X150871119Y-155720516D01*
X150855319Y-155657403D01*
X150465450Y-154100096D01*
X150879274Y-154100096D01*
X151132631Y-155117113D01*
X151187497Y-155335807D01*
X151239058Y-155538376D01*
X151285950Y-155719669D01*
X151326806Y-155874535D01*
X151360259Y-155997823D01*
X151384944Y-156084381D01*
X151399493Y-156129059D01*
X151402395Y-156134130D01*
X151411886Y-156110303D01*
X151432158Y-156042265D01*
X151461837Y-155935183D01*
X151499550Y-155794222D01*
X151543922Y-155624548D01*
X151593578Y-155431328D01*
X151647144Y-155219727D01*
X151671264Y-155123469D01*
X151923726Y-154112809D01*
X152341830Y-154098015D01*
X152323833Y-154168976D01*
G36*
X149355599Y-154124646D02*
X149484596Y-154172640D01*
X149619662Y-154269495D01*
X149727088Y-154402362D01*
X149805164Y-154563510D01*
X149852180Y-154745207D01*
X149866427Y-154939722D01*
X149846193Y-155139323D01*
X149789770Y-155336281D01*
X149758160Y-155409505D01*
X149722349Y-155474695D01*
X149663570Y-155570516D01*
X149588608Y-155686366D01*
X149504254Y-155811642D01*
X149458352Y-155877815D01*
X149312260Y-156091580D01*
X149196808Y-156273321D01*
X149108693Y-156428878D01*
X149044612Y-156564092D01*
X149001262Y-156684801D01*
X149000576Y-156687133D01*
X148961498Y-156820617D01*
X149874073Y-156820617D01*
X149874073Y-157227423D01*
X148551951Y-157227423D01*
X148551951Y-157025271D01*
X148555637Y-156906008D01*
X148565315Y-156785805D01*
X148578909Y-156690223D01*
X148579278Y-156688385D01*
X148616906Y-156561479D01*
X148682930Y-156403370D01*
X148773188Y-156221917D01*
X148883522Y-156024979D01*
X149009770Y-155820417D01*
X149144126Y-155621254D01*
X149255195Y-155460692D01*
X149338308Y-155331910D01*
X149397223Y-155226939D01*
X149435697Y-155137810D01*
X149457487Y-155056552D01*
X149466352Y-154975198D01*
X149467124Y-154936185D01*
X149452943Y-154784247D01*
X149413201Y-154659647D01*
X149351479Y-154568419D01*
X149271356Y-154516600D01*
X149212496Y-154506903D01*
X149121203Y-154518398D01*
X149052802Y-154556636D01*
X149003660Y-154627247D01*
X148970141Y-154735863D01*
X148948610Y-154888114D01*
X148945771Y-154920066D01*
X148927318Y-155142538D01*
X148551951Y-155142538D01*
X148551951Y-154934447D01*
X148564238Y-154724787D01*
X148602896Y-154551468D01*
X148670620Y-154405829D01*
X148748715Y-154302114D01*
X148830910Y-154220818D01*
X148910474Y-154169441D01*
X149003467Y-154135230D01*
X149182540Y-154106712D01*
X149355599Y-154124646D01*
X149355599Y-154124646D01*
G37*
X149355599Y-154124646D02*
X149484596Y-154172640D01*
X149619662Y-154269495D01*
X149727088Y-154402362D01*
X149805164Y-154563510D01*
X149852180Y-154745207D01*
X149866427Y-154939722D01*
X149846193Y-155139323D01*
X149789770Y-155336281D01*
X149758160Y-155409505D01*
X149722349Y-155474695D01*
X149663570Y-155570516D01*
X149588608Y-155686366D01*
X149504254Y-155811642D01*
X149458352Y-155877815D01*
X149312260Y-156091580D01*
X149196808Y-156273321D01*
X149108693Y-156428878D01*
X149044612Y-156564092D01*
X149001262Y-156684801D01*
X149000576Y-156687133D01*
X148961498Y-156820617D01*
X149874073Y-156820617D01*
X149874073Y-157227423D01*
X148551951Y-157227423D01*
X148551951Y-157025271D01*
X148555637Y-156906008D01*
X148565315Y-156785805D01*
X148578909Y-156690223D01*
X148579278Y-156688385D01*
X148616906Y-156561479D01*
X148682930Y-156403370D01*
X148773188Y-156221917D01*
X148883522Y-156024979D01*
X149009770Y-155820417D01*
X149144126Y-155621254D01*
X149255195Y-155460692D01*
X149338308Y-155331910D01*
X149397223Y-155226939D01*
X149435697Y-155137810D01*
X149457487Y-155056552D01*
X149466352Y-154975198D01*
X149467124Y-154936185D01*
X149452943Y-154784247D01*
X149413201Y-154659647D01*
X149351479Y-154568419D01*
X149271356Y-154516600D01*
X149212496Y-154506903D01*
X149121203Y-154518398D01*
X149052802Y-154556636D01*
X149003660Y-154627247D01*
X148970141Y-154735863D01*
X148948610Y-154888114D01*
X148945771Y-154920066D01*
X148927318Y-155142538D01*
X148551951Y-155142538D01*
X148551951Y-154934447D01*
X148564238Y-154724787D01*
X148602896Y-154551468D01*
X148670620Y-154405829D01*
X148748715Y-154302114D01*
X148830910Y-154220818D01*
X148910474Y-154169441D01*
X149003467Y-154135230D01*
X149182540Y-154106712D01*
X149355599Y-154124646D01*
G36*
X147865464Y-157227423D02*
X147458657Y-157227423D01*
X147457852Y-156038785D01*
X147457831Y-155758871D01*
X147457856Y-155526132D01*
X147457442Y-155336893D01*
X147456102Y-155187481D01*
X147453349Y-155074222D01*
X147448698Y-154993442D01*
X147441662Y-154941468D01*
X147431755Y-154914625D01*
X147418490Y-154909241D01*
X147401382Y-154921641D01*
X147379944Y-154948151D01*
X147353689Y-154985098D01*
X147323858Y-155026500D01*
X147302925Y-155049825D01*
X147280029Y-155054323D01*
X147244903Y-155035824D01*
X147187276Y-154990156D01*
X147144077Y-154953491D01*
X147074720Y-154891268D01*
X147023884Y-154839999D01*
X147001342Y-154809643D01*
X147001000Y-154807718D01*
X147015049Y-154780059D01*
X147053913Y-154718570D01*
X147112665Y-154630665D01*
X147186378Y-154523761D01*
X147243857Y-154442138D01*
X147486714Y-154100096D01*
X147865464Y-154100096D01*
X147865464Y-157227423D01*
X147865464Y-157227423D01*
G37*
X147865464Y-157227423D02*
X147458657Y-157227423D01*
X147457852Y-156038785D01*
X147457831Y-155758871D01*
X147457856Y-155526132D01*
X147457442Y-155336893D01*
X147456102Y-155187481D01*
X147453349Y-155074222D01*
X147448698Y-154993442D01*
X147441662Y-154941468D01*
X147431755Y-154914625D01*
X147418490Y-154909241D01*
X147401382Y-154921641D01*
X147379944Y-154948151D01*
X147353689Y-154985098D01*
X147323858Y-155026500D01*
X147302925Y-155049825D01*
X147280029Y-155054323D01*
X147244903Y-155035824D01*
X147187276Y-154990156D01*
X147144077Y-154953491D01*
X147074720Y-154891268D01*
X147023884Y-154839999D01*
X147001342Y-154809643D01*
X147001000Y-154807718D01*
X147015049Y-154780059D01*
X147053913Y-154718570D01*
X147112665Y-154630665D01*
X147186378Y-154523761D01*
X147243857Y-154442138D01*
X147486714Y-154100096D01*
X147865464Y-154100096D01*
X147865464Y-157227423D01*
G36*
X158388711Y-192606319D02*
X158545996Y-192654588D01*
X158672678Y-192743330D01*
X158768508Y-192872288D01*
X158833235Y-193041208D01*
X158866609Y-193249832D01*
X158868707Y-193281159D01*
X158881727Y-193509505D01*
X158544143Y-193509505D01*
X158544143Y-193396342D01*
X158534053Y-193246341D01*
X158505812Y-193117291D01*
X158462465Y-193019870D01*
X158424241Y-192975798D01*
X158334153Y-192933417D01*
X158228367Y-192924556D01*
X158127588Y-192948851D01*
X158074941Y-192981928D01*
X158040929Y-193020116D01*
X158013801Y-193072124D01*
X157992984Y-193143158D01*
X157977908Y-193238424D01*
X157967998Y-193363129D01*
X157962685Y-193522478D01*
X157961396Y-193721680D01*
X157963558Y-193965939D01*
X157963932Y-193992394D01*
X157967314Y-194196611D01*
X157971127Y-194356413D01*
X157975842Y-194478232D01*
X157981932Y-194568503D01*
X157989868Y-194633661D01*
X158000121Y-194680140D01*
X158013164Y-194714373D01*
X158017474Y-194722816D01*
X158075766Y-194802565D01*
X158151149Y-194844647D01*
X158258017Y-194857052D01*
X158259363Y-194857053D01*
X158368223Y-194836043D01*
X158450730Y-194772692D01*
X158507176Y-194666520D01*
X158537849Y-194517044D01*
X158544143Y-194385431D01*
X158544143Y-194272268D01*
X158881727Y-194272268D01*
X158868575Y-194502930D01*
X158839991Y-194714841D01*
X158780417Y-194886609D01*
X158689409Y-195018746D01*
X158566524Y-195111763D01*
X158411319Y-195166170D01*
X158279652Y-195181709D01*
X158156563Y-195181263D01*
X158063710Y-195166179D01*
X157997496Y-195141353D01*
X157859233Y-195050235D01*
X157748885Y-194924846D01*
X157688947Y-194808902D01*
X157675356Y-194765366D01*
X157664469Y-194711033D01*
X157655866Y-194639517D01*
X157649124Y-194544430D01*
X157643821Y-194419384D01*
X157639536Y-194257992D01*
X157635847Y-194053867D01*
X157634896Y-193990383D01*
X157632611Y-193747757D01*
X157633170Y-193537597D01*
X157636480Y-193364341D01*
X157642451Y-193232424D01*
X157650992Y-193146281D01*
X157652295Y-193138632D01*
X157705484Y-192949070D01*
X157788234Y-192800734D01*
X157901082Y-192693097D01*
X158044563Y-192625633D01*
X158201075Y-192598778D01*
X158388711Y-192606319D01*
X158388711Y-192606319D01*
G37*
X158388711Y-192606319D02*
X158545996Y-192654588D01*
X158672678Y-192743330D01*
X158768508Y-192872288D01*
X158833235Y-193041208D01*
X158866609Y-193249832D01*
X158868707Y-193281159D01*
X158881727Y-193509505D01*
X158544143Y-193509505D01*
X158544143Y-193396342D01*
X158534053Y-193246341D01*
X158505812Y-193117291D01*
X158462465Y-193019870D01*
X158424241Y-192975798D01*
X158334153Y-192933417D01*
X158228367Y-192924556D01*
X158127588Y-192948851D01*
X158074941Y-192981928D01*
X158040929Y-193020116D01*
X158013801Y-193072124D01*
X157992984Y-193143158D01*
X157977908Y-193238424D01*
X157967998Y-193363129D01*
X157962685Y-193522478D01*
X157961396Y-193721680D01*
X157963558Y-193965939D01*
X157963932Y-193992394D01*
X157967314Y-194196611D01*
X157971127Y-194356413D01*
X157975842Y-194478232D01*
X157981932Y-194568503D01*
X157989868Y-194633661D01*
X158000121Y-194680140D01*
X158013164Y-194714373D01*
X158017474Y-194722816D01*
X158075766Y-194802565D01*
X158151149Y-194844647D01*
X158258017Y-194857052D01*
X158259363Y-194857053D01*
X158368223Y-194836043D01*
X158450730Y-194772692D01*
X158507176Y-194666520D01*
X158537849Y-194517044D01*
X158544143Y-194385431D01*
X158544143Y-194272268D01*
X158881727Y-194272268D01*
X158868575Y-194502930D01*
X158839991Y-194714841D01*
X158780417Y-194886609D01*
X158689409Y-195018746D01*
X158566524Y-195111763D01*
X158411319Y-195166170D01*
X158279652Y-195181709D01*
X158156563Y-195181263D01*
X158063710Y-195166179D01*
X157997496Y-195141353D01*
X157859233Y-195050235D01*
X157748885Y-194924846D01*
X157688947Y-194808902D01*
X157675356Y-194765366D01*
X157664469Y-194711033D01*
X157655866Y-194639517D01*
X157649124Y-194544430D01*
X157643821Y-194419384D01*
X157639536Y-194257992D01*
X157635847Y-194053867D01*
X157634896Y-193990383D01*
X157632611Y-193747757D01*
X157633170Y-193537597D01*
X157636480Y-193364341D01*
X157642451Y-193232424D01*
X157650992Y-193146281D01*
X157652295Y-193138632D01*
X157705484Y-192949070D01*
X157788234Y-192800734D01*
X157901082Y-192693097D01*
X158044563Y-192625633D01*
X158201075Y-192598778D01*
X158388711Y-192606319D01*
G36*
X156967766Y-195187584D02*
X156637236Y-195187584D01*
X156637236Y-192594190D01*
X156967766Y-192594190D01*
X156967766Y-195187584D01*
X156967766Y-195187584D01*
G37*
X156967766Y-195187584D02*
X156637236Y-195187584D01*
X156637236Y-192594190D01*
X156967766Y-192594190D01*
X156967766Y-195187584D01*
G36*
X154378335Y-192599333D02*
X154534849Y-192606903D01*
X154790047Y-193502481D01*
X154848312Y-193705927D01*
X154902366Y-193892704D01*
X154950618Y-194057467D01*
X154991479Y-194194868D01*
X155023358Y-194299563D01*
X155044665Y-194366207D01*
X155053810Y-194389452D01*
X155053894Y-194389411D01*
X155062049Y-194364566D01*
X155082236Y-194297462D01*
X155112541Y-194194742D01*
X155151049Y-194063049D01*
X155195846Y-193909024D01*
X155245018Y-193739311D01*
X155296652Y-193560551D01*
X155348832Y-193379388D01*
X155399646Y-193202464D01*
X155447178Y-193036422D01*
X155489514Y-192887903D01*
X155524742Y-192763551D01*
X155550945Y-192670008D01*
X155566211Y-192613917D01*
X155569368Y-192600562D01*
X155592476Y-192597201D01*
X155652538Y-192594892D01*
X155721921Y-192594190D01*
X155874473Y-192594190D01*
X155874473Y-195187584D01*
X155543943Y-195187584D01*
X155543169Y-194583730D01*
X155542145Y-194417215D01*
X155539678Y-194271420D01*
X155536009Y-194152751D01*
X155531378Y-194067618D01*
X155526026Y-194022427D01*
X155521967Y-194018014D01*
X155509358Y-194052581D01*
X155485172Y-194128656D01*
X155451651Y-194238807D01*
X155411041Y-194375606D01*
X155365583Y-194531621D01*
X155339305Y-194623007D01*
X155177072Y-195189862D01*
X155049046Y-195182367D01*
X154921020Y-195174871D01*
X154755754Y-194602799D01*
X154590489Y-194030727D01*
X154583655Y-194609155D01*
X154576822Y-195187584D01*
X154221821Y-195187584D01*
X154221821Y-192591764D01*
X154378335Y-192599333D01*
X154378335Y-192599333D01*
G37*
X154378335Y-192599333D02*
X154534849Y-192606903D01*
X154790047Y-193502481D01*
X154848312Y-193705927D01*
X154902366Y-193892704D01*
X154950618Y-194057467D01*
X154991479Y-194194868D01*
X155023358Y-194299563D01*
X155044665Y-194366207D01*
X155053810Y-194389452D01*
X155053894Y-194389411D01*
X155062049Y-194364566D01*
X155082236Y-194297462D01*
X155112541Y-194194742D01*
X155151049Y-194063049D01*
X155195846Y-193909024D01*
X155245018Y-193739311D01*
X155296652Y-193560551D01*
X155348832Y-193379388D01*
X155399646Y-193202464D01*
X155447178Y-193036422D01*
X155489514Y-192887903D01*
X155524742Y-192763551D01*
X155550945Y-192670008D01*
X155566211Y-192613917D01*
X155569368Y-192600562D01*
X155592476Y-192597201D01*
X155652538Y-192594892D01*
X155721921Y-192594190D01*
X155874473Y-192594190D01*
X155874473Y-195187584D01*
X155543943Y-195187584D01*
X155543169Y-194583730D01*
X155542145Y-194417215D01*
X155539678Y-194271420D01*
X155536009Y-194152751D01*
X155531378Y-194067618D01*
X155526026Y-194022427D01*
X155521967Y-194018014D01*
X155509358Y-194052581D01*
X155485172Y-194128656D01*
X155451651Y-194238807D01*
X155411041Y-194375606D01*
X155365583Y-194531621D01*
X155339305Y-194623007D01*
X155177072Y-195189862D01*
X155049046Y-195182367D01*
X154921020Y-195174871D01*
X154755754Y-194602799D01*
X154590489Y-194030727D01*
X154583655Y-194609155D01*
X154576822Y-195187584D01*
X154221821Y-195187584D01*
X154221821Y-192591764D01*
X154378335Y-192599333D01*
G36*
X153097216Y-192595907D02*
X153139440Y-192607020D01*
X153161510Y-192636925D01*
X153177353Y-192689535D01*
X153188201Y-192733400D01*
X153209262Y-192821403D01*
X153239266Y-192948144D01*
X153276946Y-193108224D01*
X153321033Y-193296242D01*
X153370258Y-193506799D01*
X153423351Y-193734495D01*
X153471565Y-193941738D01*
X153526474Y-194177717D01*
X153578190Y-194399410D01*
X153625512Y-194601713D01*
X153667240Y-194779523D01*
X153702175Y-194927734D01*
X153729116Y-195041244D01*
X153746864Y-195114947D01*
X153754003Y-195143089D01*
X153755670Y-195166466D01*
X153736303Y-195179906D01*
X153686124Y-195186060D01*
X153595358Y-195187581D01*
X153590005Y-195187584D01*
X153412421Y-195187584D01*
X153383971Y-195054100D01*
X153364457Y-194965111D01*
X153338162Y-194848546D01*
X153310038Y-194726309D01*
X153303469Y-194698144D01*
X153251418Y-194475672D01*
X152799957Y-194475672D01*
X152775497Y-194571017D01*
X152759560Y-194636842D01*
X152736565Y-194736437D01*
X152710160Y-194853863D01*
X152694038Y-194926973D01*
X152637039Y-195187584D01*
X152460543Y-195187584D01*
X152363148Y-195184966D01*
X152309947Y-195176288D01*
X152294510Y-195160312D01*
X152295505Y-195155802D01*
X152303268Y-195125480D01*
X152321245Y-195050388D01*
X152348320Y-194935328D01*
X152383374Y-194785103D01*
X152425293Y-194604515D01*
X152472959Y-194398366D01*
X152525255Y-194171459D01*
X152535685Y-194126072D01*
X152892646Y-194126072D01*
X152921355Y-194136628D01*
X152981444Y-194143077D01*
X153053576Y-194144991D01*
X153118413Y-194141945D01*
X153156618Y-194133512D01*
X153158681Y-194131937D01*
X153157842Y-194104431D01*
X153147374Y-194039682D01*
X153129895Y-193949800D01*
X153108022Y-193846895D01*
X153084372Y-193743080D01*
X153061563Y-193650464D01*
X153042211Y-193581158D01*
X153035159Y-193560356D01*
X153024253Y-193568287D01*
X153005133Y-193617820D01*
X152980452Y-193700881D01*
X152952863Y-193809395D01*
X152951627Y-193814611D01*
X152925440Y-193930459D01*
X152905583Y-194027990D01*
X152894035Y-194096751D01*
X152892646Y-194126072D01*
X152535685Y-194126072D01*
X152581066Y-193928596D01*
X152596974Y-193859246D01*
X152886986Y-192594473D01*
X153019489Y-192594331D01*
X153097216Y-192595907D01*
X153097216Y-192595907D01*
G37*
X153097216Y-192595907D02*
X153139440Y-192607020D01*
X153161510Y-192636925D01*
X153177353Y-192689535D01*
X153188201Y-192733400D01*
X153209262Y-192821403D01*
X153239266Y-192948144D01*
X153276946Y-193108224D01*
X153321033Y-193296242D01*
X153370258Y-193506799D01*
X153423351Y-193734495D01*
X153471565Y-193941738D01*
X153526474Y-194177717D01*
X153578190Y-194399410D01*
X153625512Y-194601713D01*
X153667240Y-194779523D01*
X153702175Y-194927734D01*
X153729116Y-195041244D01*
X153746864Y-195114947D01*
X153754003Y-195143089D01*
X153755670Y-195166466D01*
X153736303Y-195179906D01*
X153686124Y-195186060D01*
X153595358Y-195187581D01*
X153590005Y-195187584D01*
X153412421Y-195187584D01*
X153383971Y-195054100D01*
X153364457Y-194965111D01*
X153338162Y-194848546D01*
X153310038Y-194726309D01*
X153303469Y-194698144D01*
X153251418Y-194475672D01*
X152799957Y-194475672D01*
X152775497Y-194571017D01*
X152759560Y-194636842D01*
X152736565Y-194736437D01*
X152710160Y-194853863D01*
X152694038Y-194926973D01*
X152637039Y-195187584D01*
X152460543Y-195187584D01*
X152363148Y-195184966D01*
X152309947Y-195176288D01*
X152294510Y-195160312D01*
X152295505Y-195155802D01*
X152303268Y-195125480D01*
X152321245Y-195050388D01*
X152348320Y-194935328D01*
X152383374Y-194785103D01*
X152425293Y-194604515D01*
X152472959Y-194398366D01*
X152525255Y-194171459D01*
X152535685Y-194126072D01*
X152892646Y-194126072D01*
X152921355Y-194136628D01*
X152981444Y-194143077D01*
X153053576Y-194144991D01*
X153118413Y-194141945D01*
X153156618Y-194133512D01*
X153158681Y-194131937D01*
X153157842Y-194104431D01*
X153147374Y-194039682D01*
X153129895Y-193949800D01*
X153108022Y-193846895D01*
X153084372Y-193743080D01*
X153061563Y-193650464D01*
X153042211Y-193581158D01*
X153035159Y-193560356D01*
X153024253Y-193568287D01*
X153005133Y-193617820D01*
X152980452Y-193700881D01*
X152952863Y-193809395D01*
X152951627Y-193814611D01*
X152925440Y-193930459D01*
X152905583Y-194027990D01*
X152894035Y-194096751D01*
X152892646Y-194126072D01*
X152535685Y-194126072D01*
X152581066Y-193928596D01*
X152596974Y-193859246D01*
X152886986Y-192594473D01*
X153019489Y-192594331D01*
X153097216Y-192595907D01*
G36*
X151628427Y-195187584D02*
X151355328Y-195187584D01*
X151040576Y-194407537D01*
X150725825Y-193627490D01*
X150712377Y-195187584D01*
X150382581Y-195187584D01*
X150382581Y-192594190D01*
X150528777Y-192594686D01*
X150674974Y-192595183D01*
X151285184Y-194113865D01*
X151291913Y-193354027D01*
X151298642Y-192594190D01*
X151628427Y-192594190D01*
X151628427Y-195187584D01*
X151628427Y-195187584D01*
G37*
X151628427Y-195187584D02*
X151355328Y-195187584D01*
X151040576Y-194407537D01*
X150725825Y-193627490D01*
X150712377Y-195187584D01*
X150382581Y-195187584D01*
X150382581Y-192594190D01*
X150528777Y-192594686D01*
X150674974Y-192595183D01*
X151285184Y-194113865D01*
X151291913Y-193354027D01*
X151298642Y-192594190D01*
X151628427Y-192594190D01*
X151628427Y-195187584D01*
G36*
X149818366Y-192596671D02*
X149874743Y-192604454D01*
X149893572Y-192618991D01*
X149892474Y-192625972D01*
X149877350Y-192655619D01*
X149840717Y-192723823D01*
X149785790Y-192824706D01*
X149715785Y-192952391D01*
X149633918Y-193100999D01*
X149543402Y-193264652D01*
X149521085Y-193304907D01*
X149162161Y-193952061D01*
X149162161Y-195187584D01*
X148831630Y-195187584D01*
X148831630Y-193916194D01*
X148489912Y-193299384D01*
X148399796Y-193136246D01*
X148317359Y-192986102D01*
X148245963Y-192855148D01*
X148188970Y-192749580D01*
X148149742Y-192675593D01*
X148131641Y-192639384D01*
X148131236Y-192638382D01*
X148127600Y-192615682D01*
X148144644Y-192602448D01*
X148191788Y-192596264D01*
X148278452Y-192594714D01*
X148301333Y-192594747D01*
X148488387Y-192595305D01*
X148742641Y-193064465D01*
X148828417Y-193221652D01*
X148893955Y-193338552D01*
X148942488Y-193419990D01*
X148977249Y-193470787D01*
X149001471Y-193495768D01*
X149018387Y-193499756D01*
X149028706Y-193491241D01*
X149050599Y-193456307D01*
X149092451Y-193384507D01*
X149149847Y-193283601D01*
X149218375Y-193161353D01*
X149293619Y-193025524D01*
X149295673Y-193021794D01*
X149530830Y-192594730D01*
X149717884Y-192594460D01*
X149818366Y-192596671D01*
X149818366Y-192596671D01*
G37*
X149818366Y-192596671D02*
X149874743Y-192604454D01*
X149893572Y-192618991D01*
X149892474Y-192625972D01*
X149877350Y-192655619D01*
X149840717Y-192723823D01*
X149785790Y-192824706D01*
X149715785Y-192952391D01*
X149633918Y-193100999D01*
X149543402Y-193264652D01*
X149521085Y-193304907D01*
X149162161Y-193952061D01*
X149162161Y-195187584D01*
X148831630Y-195187584D01*
X148831630Y-193916194D01*
X148489912Y-193299384D01*
X148399796Y-193136246D01*
X148317359Y-192986102D01*
X148245963Y-192855148D01*
X148188970Y-192749580D01*
X148149742Y-192675593D01*
X148131641Y-192639384D01*
X148131236Y-192638382D01*
X148127600Y-192615682D01*
X148144644Y-192602448D01*
X148191788Y-192596264D01*
X148278452Y-192594714D01*
X148301333Y-192594747D01*
X148488387Y-192595305D01*
X148742641Y-193064465D01*
X148828417Y-193221652D01*
X148893955Y-193338552D01*
X148942488Y-193419990D01*
X148977249Y-193470787D01*
X149001471Y-193495768D01*
X149018387Y-193499756D01*
X149028706Y-193491241D01*
X149050599Y-193456307D01*
X149092451Y-193384507D01*
X149149847Y-193283601D01*
X149218375Y-193161353D01*
X149293619Y-193025524D01*
X149295673Y-193021794D01*
X149530830Y-192594730D01*
X149717884Y-192594460D01*
X149818366Y-192596671D01*
G36*
X146928012Y-192596879D02*
X147065016Y-192606351D01*
X147170944Y-192624709D01*
X147255577Y-192654058D01*
X147328694Y-192696504D01*
X147368976Y-192727372D01*
X147433669Y-192788927D01*
X147486570Y-192860156D01*
X147528612Y-192946235D01*
X147560728Y-193052341D01*
X147583851Y-193183649D01*
X147598915Y-193345335D01*
X147606853Y-193542575D01*
X147608598Y-193780546D01*
X147605544Y-194039427D01*
X147601653Y-194237651D01*
X147597550Y-194392469D01*
X147592578Y-194511323D01*
X147586084Y-194601657D01*
X147577413Y-194670911D01*
X147565909Y-194726530D01*
X147550918Y-194775956D01*
X147537575Y-194811944D01*
X147458483Y-194955370D01*
X147348110Y-195070054D01*
X147216173Y-195146522D01*
X147182577Y-195158076D01*
X147119482Y-195169348D01*
X147019008Y-195178634D01*
X146894614Y-195185015D01*
X146759761Y-195187571D01*
X146750152Y-195187584D01*
X146416215Y-195187584D01*
X146416215Y-192924721D01*
X146746745Y-192924721D01*
X146746745Y-194857053D01*
X146906353Y-194857053D01*
X147037272Y-194847352D01*
X147121196Y-194818247D01*
X147125155Y-194815592D01*
X147160706Y-194787429D01*
X147189158Y-194754314D01*
X147211294Y-194710605D01*
X147227895Y-194650657D01*
X147239744Y-194568826D01*
X147247621Y-194459468D01*
X147252310Y-194316939D01*
X147254591Y-194135595D01*
X147255247Y-193909792D01*
X147255254Y-193876477D01*
X147254729Y-193643415D01*
X147252598Y-193455771D01*
X147248023Y-193308118D01*
X147240168Y-193195028D01*
X147228197Y-193111075D01*
X147211272Y-193050832D01*
X147188556Y-193008871D01*
X147159214Y-192979765D01*
X147122409Y-192958087D01*
X147112992Y-192953669D01*
X147052598Y-192937689D01*
X146964313Y-192927175D01*
X146898102Y-192924721D01*
X146746745Y-192924721D01*
X146416215Y-192924721D01*
X146416215Y-192594190D01*
X146750152Y-192594190D01*
X146928012Y-192596879D01*
X146928012Y-192596879D01*
G37*
X146928012Y-192596879D02*
X147065016Y-192606351D01*
X147170944Y-192624709D01*
X147255577Y-192654058D01*
X147328694Y-192696504D01*
X147368976Y-192727372D01*
X147433669Y-192788927D01*
X147486570Y-192860156D01*
X147528612Y-192946235D01*
X147560728Y-193052341D01*
X147583851Y-193183649D01*
X147598915Y-193345335D01*
X147606853Y-193542575D01*
X147608598Y-193780546D01*
X147605544Y-194039427D01*
X147601653Y-194237651D01*
X147597550Y-194392469D01*
X147592578Y-194511323D01*
X147586084Y-194601657D01*
X147577413Y-194670911D01*
X147565909Y-194726530D01*
X147550918Y-194775956D01*
X147537575Y-194811944D01*
X147458483Y-194955370D01*
X147348110Y-195070054D01*
X147216173Y-195146522D01*
X147182577Y-195158076D01*
X147119482Y-195169348D01*
X147019008Y-195178634D01*
X146894614Y-195185015D01*
X146759761Y-195187571D01*
X146750152Y-195187584D01*
X146416215Y-195187584D01*
X146416215Y-192924721D01*
X146746745Y-192924721D01*
X146746745Y-194857053D01*
X146906353Y-194857053D01*
X147037272Y-194847352D01*
X147121196Y-194818247D01*
X147125155Y-194815592D01*
X147160706Y-194787429D01*
X147189158Y-194754314D01*
X147211294Y-194710605D01*
X147227895Y-194650657D01*
X147239744Y-194568826D01*
X147247621Y-194459468D01*
X147252310Y-194316939D01*
X147254591Y-194135595D01*
X147255247Y-193909792D01*
X147255254Y-193876477D01*
X147254729Y-193643415D01*
X147252598Y-193455771D01*
X147248023Y-193308118D01*
X147240168Y-193195028D01*
X147228197Y-193111075D01*
X147211272Y-193050832D01*
X147188556Y-193008871D01*
X147159214Y-192979765D01*
X147122409Y-192958087D01*
X147112992Y-192953669D01*
X147052598Y-192937689D01*
X146964313Y-192927175D01*
X146898102Y-192924721D01*
X146746745Y-192924721D01*
X146416215Y-192924721D01*
X146416215Y-192594190D01*
X146750152Y-192594190D01*
X146928012Y-192596879D01*
G36*
X144675960Y-193483975D02*
X144734093Y-193687220D01*
X144788278Y-193874153D01*
X144836885Y-194039339D01*
X144878283Y-194177340D01*
X144910841Y-194282719D01*
X144932927Y-194350039D01*
X144942910Y-194373864D01*
X144942927Y-194373865D01*
X144952846Y-194350316D01*
X144974876Y-194283243D01*
X145007385Y-194178081D01*
X145048741Y-194040266D01*
X145097315Y-193875232D01*
X145151476Y-193688415D01*
X145209591Y-193485250D01*
X145209894Y-193484185D01*
X145462761Y-192594400D01*
X145608958Y-192594295D01*
X145755154Y-192594190D01*
X145755154Y-195187584D01*
X145424623Y-195187584D01*
X145420983Y-193979876D01*
X145299012Y-194399395D01*
X145253850Y-194554381D01*
X145208943Y-194707875D01*
X145168179Y-194846631D01*
X145135444Y-194957403D01*
X145121778Y-195003249D01*
X145066514Y-195187584D01*
X144816383Y-195187584D01*
X144779069Y-195061934D01*
X144760286Y-194997550D01*
X144730613Y-194894482D01*
X144692986Y-194762981D01*
X144650336Y-194613299D01*
X144606463Y-194458737D01*
X144471170Y-193981189D01*
X144464353Y-194584386D01*
X144457537Y-195187584D01*
X144127927Y-195187584D01*
X144127927Y-192594190D01*
X144423092Y-192594190D01*
X144675960Y-193483975D01*
X144675960Y-193483975D01*
G37*
X144675960Y-193483975D02*
X144734093Y-193687220D01*
X144788278Y-193874153D01*
X144836885Y-194039339D01*
X144878283Y-194177340D01*
X144910841Y-194282719D01*
X144932927Y-194350039D01*
X144942910Y-194373864D01*
X144942927Y-194373865D01*
X144952846Y-194350316D01*
X144974876Y-194283243D01*
X145007385Y-194178081D01*
X145048741Y-194040266D01*
X145097315Y-193875232D01*
X145151476Y-193688415D01*
X145209591Y-193485250D01*
X145209894Y-193484185D01*
X145462761Y-192594400D01*
X145608958Y-192594295D01*
X145755154Y-192594190D01*
X145755154Y-195187584D01*
X145424623Y-195187584D01*
X145420983Y-193979876D01*
X145299012Y-194399395D01*
X145253850Y-194554381D01*
X145208943Y-194707875D01*
X145168179Y-194846631D01*
X145135444Y-194957403D01*
X145121778Y-195003249D01*
X145066514Y-195187584D01*
X144816383Y-195187584D01*
X144779069Y-195061934D01*
X144760286Y-194997550D01*
X144730613Y-194894482D01*
X144692986Y-194762981D01*
X144650336Y-194613299D01*
X144606463Y-194458737D01*
X144471170Y-193981189D01*
X144464353Y-194584386D01*
X144457537Y-195187584D01*
X144127927Y-195187584D01*
X144127927Y-192594190D01*
X144423092Y-192594190D01*
X144675960Y-193483975D01*
G36*
X143347508Y-193871818D02*
X143405036Y-194118909D01*
X143458897Y-194351033D01*
X143508009Y-194563480D01*
X143551294Y-194751537D01*
X143587669Y-194910494D01*
X143616055Y-195035637D01*
X143635371Y-195122257D01*
X143644537Y-195165641D01*
X143645150Y-195169676D01*
X143621806Y-195178803D01*
X143560854Y-195183385D01*
X143475413Y-195182447D01*
X143474088Y-195182389D01*
X143303332Y-195174871D01*
X143226190Y-194831628D01*
X143149048Y-194488384D01*
X142918265Y-194481132D01*
X142687483Y-194473880D01*
X142630284Y-194735386D01*
X142603552Y-194856019D01*
X142578026Y-194968463D01*
X142557342Y-195056826D01*
X142548625Y-195092238D01*
X142524165Y-195187584D01*
X142359880Y-195187584D01*
X142264453Y-195183486D01*
X142208160Y-195171947D01*
X142195594Y-195159731D01*
X142201092Y-195131393D01*
X142216708Y-195059263D01*
X142241128Y-194949100D01*
X142273039Y-194806661D01*
X142311125Y-194637704D01*
X142354072Y-194447986D01*
X142400566Y-194243265D01*
X142431227Y-194108623D01*
X142780379Y-194108623D01*
X142794404Y-194130743D01*
X142842265Y-194142167D01*
X142922975Y-194145141D01*
X143003559Y-194143706D01*
X143044391Y-194136134D01*
X143056557Y-194117521D01*
X143052312Y-194087934D01*
X143041124Y-194039131D01*
X143021881Y-193954680D01*
X142997758Y-193848526D01*
X142982651Y-193781933D01*
X142958149Y-193678901D01*
X142936896Y-193598777D01*
X142921668Y-193551514D01*
X142916111Y-193543276D01*
X142905691Y-193571534D01*
X142887424Y-193636987D01*
X142864308Y-193727152D01*
X142839340Y-193829542D01*
X142815518Y-193931672D01*
X142795840Y-194021058D01*
X142783302Y-194085214D01*
X142780379Y-194108623D01*
X142431227Y-194108623D01*
X142449292Y-194029300D01*
X142498937Y-193811847D01*
X142548185Y-193596664D01*
X142595723Y-193389509D01*
X142640235Y-193196140D01*
X142680408Y-193022314D01*
X142714928Y-192873789D01*
X142742479Y-192756323D01*
X142761747Y-192675674D01*
X142771103Y-192638685D01*
X142790361Y-192611332D01*
X142836027Y-192597747D01*
X142916683Y-192594190D01*
X143049560Y-192594190D01*
X143347508Y-193871818D01*
X143347508Y-193871818D01*
G37*
X143347508Y-193871818D02*
X143405036Y-194118909D01*
X143458897Y-194351033D01*
X143508009Y-194563480D01*
X143551294Y-194751537D01*
X143587669Y-194910494D01*
X143616055Y-195035637D01*
X143635371Y-195122257D01*
X143644537Y-195165641D01*
X143645150Y-195169676D01*
X143621806Y-195178803D01*
X143560854Y-195183385D01*
X143475413Y-195182447D01*
X143474088Y-195182389D01*
X143303332Y-195174871D01*
X143226190Y-194831628D01*
X143149048Y-194488384D01*
X142918265Y-194481132D01*
X142687483Y-194473880D01*
X142630284Y-194735386D01*
X142603552Y-194856019D01*
X142578026Y-194968463D01*
X142557342Y-195056826D01*
X142548625Y-195092238D01*
X142524165Y-195187584D01*
X142359880Y-195187584D01*
X142264453Y-195183486D01*
X142208160Y-195171947D01*
X142195594Y-195159731D01*
X142201092Y-195131393D01*
X142216708Y-195059263D01*
X142241128Y-194949100D01*
X142273039Y-194806661D01*
X142311125Y-194637704D01*
X142354072Y-194447986D01*
X142400566Y-194243265D01*
X142431227Y-194108623D01*
X142780379Y-194108623D01*
X142794404Y-194130743D01*
X142842265Y-194142167D01*
X142922975Y-194145141D01*
X143003559Y-194143706D01*
X143044391Y-194136134D01*
X143056557Y-194117521D01*
X143052312Y-194087934D01*
X143041124Y-194039131D01*
X143021881Y-193954680D01*
X142997758Y-193848526D01*
X142982651Y-193781933D01*
X142958149Y-193678901D01*
X142936896Y-193598777D01*
X142921668Y-193551514D01*
X142916111Y-193543276D01*
X142905691Y-193571534D01*
X142887424Y-193636987D01*
X142864308Y-193727152D01*
X142839340Y-193829542D01*
X142815518Y-193931672D01*
X142795840Y-194021058D01*
X142783302Y-194085214D01*
X142780379Y-194108623D01*
X142431227Y-194108623D01*
X142449292Y-194029300D01*
X142498937Y-193811847D01*
X142548185Y-193596664D01*
X142595723Y-193389509D01*
X142640235Y-193196140D01*
X142680408Y-193022314D01*
X142714928Y-192873789D01*
X142742479Y-192756323D01*
X142761747Y-192675674D01*
X142771103Y-192638685D01*
X142790361Y-192611332D01*
X142836027Y-192597747D01*
X142916683Y-192594190D01*
X143049560Y-192594190D01*
X143347508Y-193871818D01*
G36*
X140938808Y-192600061D02*
X141104696Y-192619928D01*
X141235346Y-192657175D01*
X141338006Y-192715183D01*
X141419921Y-192797337D01*
X141488338Y-192907017D01*
X141513774Y-192959852D01*
X141530177Y-192997569D01*
X141543213Y-193034299D01*
X141553268Y-193076153D01*
X141560729Y-193129242D01*
X141565983Y-193199677D01*
X141569416Y-193293568D01*
X141571414Y-193417026D01*
X141572365Y-193576163D01*
X141572654Y-193777088D01*
X141572671Y-193890887D01*
X141572578Y-194113955D01*
X141572034Y-194292303D01*
X141570639Y-194432058D01*
X141567995Y-194539352D01*
X141563704Y-194620312D01*
X141557368Y-194681070D01*
X141548587Y-194727754D01*
X141536965Y-194766495D01*
X141522101Y-194803420D01*
X141511857Y-194826377D01*
X141429569Y-194960264D01*
X141319315Y-195070399D01*
X141193777Y-195144937D01*
X141156751Y-195158076D01*
X141093656Y-195169348D01*
X140993182Y-195178634D01*
X140868788Y-195185015D01*
X140733935Y-195187571D01*
X140724326Y-195187584D01*
X140390389Y-195187584D01*
X140390389Y-192924721D01*
X140720920Y-192924721D01*
X140720920Y-194857053D01*
X140872276Y-194857053D01*
X140966457Y-194852210D01*
X141048800Y-194839738D01*
X141087167Y-194828105D01*
X141125598Y-194807488D01*
X141156447Y-194780767D01*
X141180539Y-194742540D01*
X141198699Y-194687410D01*
X141211752Y-194609976D01*
X141220523Y-194504841D01*
X141225837Y-194366603D01*
X141228519Y-194189866D01*
X141229394Y-193969228D01*
X141229428Y-193897195D01*
X141228375Y-193650054D01*
X141225269Y-193443665D01*
X141220191Y-193280359D01*
X141213220Y-193162465D01*
X141204438Y-193092315D01*
X141201246Y-193080295D01*
X141151583Y-193001072D01*
X141065884Y-192950514D01*
X140940664Y-192926960D01*
X140874735Y-192924721D01*
X140720920Y-192924721D01*
X140390389Y-192924721D01*
X140390389Y-192594190D01*
X140730436Y-192594190D01*
X140938808Y-192600061D01*
X140938808Y-192600061D01*
G37*
X140938808Y-192600061D02*
X141104696Y-192619928D01*
X141235346Y-192657175D01*
X141338006Y-192715183D01*
X141419921Y-192797337D01*
X141488338Y-192907017D01*
X141513774Y-192959852D01*
X141530177Y-192997569D01*
X141543213Y-193034299D01*
X141553268Y-193076153D01*
X141560729Y-193129242D01*
X141565983Y-193199677D01*
X141569416Y-193293568D01*
X141571414Y-193417026D01*
X141572365Y-193576163D01*
X141572654Y-193777088D01*
X141572671Y-193890887D01*
X141572578Y-194113955D01*
X141572034Y-194292303D01*
X141570639Y-194432058D01*
X141567995Y-194539352D01*
X141563704Y-194620312D01*
X141557368Y-194681070D01*
X141548587Y-194727754D01*
X141536965Y-194766495D01*
X141522101Y-194803420D01*
X141511857Y-194826377D01*
X141429569Y-194960264D01*
X141319315Y-195070399D01*
X141193777Y-195144937D01*
X141156751Y-195158076D01*
X141093656Y-195169348D01*
X140993182Y-195178634D01*
X140868788Y-195185015D01*
X140733935Y-195187571D01*
X140724326Y-195187584D01*
X140390389Y-195187584D01*
X140390389Y-192924721D01*
X140720920Y-192924721D01*
X140720920Y-194857053D01*
X140872276Y-194857053D01*
X140966457Y-194852210D01*
X141048800Y-194839738D01*
X141087167Y-194828105D01*
X141125598Y-194807488D01*
X141156447Y-194780767D01*
X141180539Y-194742540D01*
X141198699Y-194687410D01*
X141211752Y-194609976D01*
X141220523Y-194504841D01*
X141225837Y-194366603D01*
X141228519Y-194189866D01*
X141229394Y-193969228D01*
X141229428Y-193897195D01*
X141228375Y-193650054D01*
X141225269Y-193443665D01*
X141220191Y-193280359D01*
X141213220Y-193162465D01*
X141204438Y-193092315D01*
X141201246Y-193080295D01*
X141151583Y-193001072D01*
X141065884Y-192950514D01*
X140940664Y-192926960D01*
X140874735Y-192924721D01*
X140720920Y-192924721D01*
X140390389Y-192924721D01*
X140390389Y-192594190D01*
X140730436Y-192594190D01*
X140938808Y-192600061D01*
G36*
X139269046Y-192598051D02*
X139313816Y-192612118D01*
X139332224Y-192638685D01*
X139340580Y-192672129D01*
X139359188Y-192749844D01*
X139386808Y-192866565D01*
X139422206Y-193017026D01*
X139464143Y-193195961D01*
X139511383Y-193398105D01*
X139562688Y-193618194D01*
X139599513Y-193776472D01*
X139654052Y-194011045D01*
X139706294Y-194235679D01*
X139754843Y-194444370D01*
X139798300Y-194631114D01*
X139835269Y-194789907D01*
X139864352Y-194914745D01*
X139884151Y-194999624D01*
X139890947Y-195028675D01*
X139928222Y-195187584D01*
X139581747Y-195187584D01*
X139513425Y-194888835D01*
X139485473Y-194766654D01*
X139460619Y-194658107D01*
X139441660Y-194575394D01*
X139431678Y-194531964D01*
X139422690Y-194504572D01*
X139404319Y-194487936D01*
X139366246Y-194479905D01*
X139298152Y-194478328D01*
X139189719Y-194481053D01*
X139187808Y-194481113D01*
X138957366Y-194488384D01*
X138879761Y-194837984D01*
X138802157Y-195187584D01*
X138627141Y-195187584D01*
X138535438Y-195186577D01*
X138484414Y-195181264D01*
X138463904Y-195168201D01*
X138463746Y-195143945D01*
X138466366Y-195133128D01*
X138474746Y-195098203D01*
X138493379Y-195018684D01*
X138521116Y-194899534D01*
X138556806Y-194745717D01*
X138599299Y-194562196D01*
X138647445Y-194353932D01*
X138700095Y-194125889D01*
X138701368Y-194120366D01*
X139046928Y-194120366D01*
X139060881Y-194137447D01*
X139104863Y-194144073D01*
X139179716Y-194145141D01*
X139266401Y-194141498D01*
X139311133Y-194129138D01*
X139322521Y-194108923D01*
X139316744Y-194064922D01*
X139301559Y-193986519D01*
X139280188Y-193887647D01*
X139255851Y-193782236D01*
X139231770Y-193684220D01*
X139211166Y-193607530D01*
X139197260Y-193566098D01*
X139196826Y-193565253D01*
X139184367Y-193573920D01*
X139164826Y-193623862D01*
X139141126Y-193706496D01*
X139123142Y-193781369D01*
X139097689Y-193893918D01*
X139074890Y-193992902D01*
X139057977Y-194064376D01*
X139052084Y-194087934D01*
X139046928Y-194120366D01*
X138701368Y-194120366D01*
X138756098Y-193883029D01*
X138766836Y-193836432D01*
X139053066Y-192594190D01*
X139186080Y-192594190D01*
X139269046Y-192598051D01*
X139269046Y-192598051D01*
G37*
X139269046Y-192598051D02*
X139313816Y-192612118D01*
X139332224Y-192638685D01*
X139340580Y-192672129D01*
X139359188Y-192749844D01*
X139386808Y-192866565D01*
X139422206Y-193017026D01*
X139464143Y-193195961D01*
X139511383Y-193398105D01*
X139562688Y-193618194D01*
X139599513Y-193776472D01*
X139654052Y-194011045D01*
X139706294Y-194235679D01*
X139754843Y-194444370D01*
X139798300Y-194631114D01*
X139835269Y-194789907D01*
X139864352Y-194914745D01*
X139884151Y-194999624D01*
X139890947Y-195028675D01*
X139928222Y-195187584D01*
X139581747Y-195187584D01*
X139513425Y-194888835D01*
X139485473Y-194766654D01*
X139460619Y-194658107D01*
X139441660Y-194575394D01*
X139431678Y-194531964D01*
X139422690Y-194504572D01*
X139404319Y-194487936D01*
X139366246Y-194479905D01*
X139298152Y-194478328D01*
X139189719Y-194481053D01*
X139187808Y-194481113D01*
X138957366Y-194488384D01*
X138879761Y-194837984D01*
X138802157Y-195187584D01*
X138627141Y-195187584D01*
X138535438Y-195186577D01*
X138484414Y-195181264D01*
X138463904Y-195168201D01*
X138463746Y-195143945D01*
X138466366Y-195133128D01*
X138474746Y-195098203D01*
X138493379Y-195018684D01*
X138521116Y-194899534D01*
X138556806Y-194745717D01*
X138599299Y-194562196D01*
X138647445Y-194353932D01*
X138700095Y-194125889D01*
X138701368Y-194120366D01*
X139046928Y-194120366D01*
X139060881Y-194137447D01*
X139104863Y-194144073D01*
X139179716Y-194145141D01*
X139266401Y-194141498D01*
X139311133Y-194129138D01*
X139322521Y-194108923D01*
X139316744Y-194064922D01*
X139301559Y-193986519D01*
X139280188Y-193887647D01*
X139255851Y-193782236D01*
X139231770Y-193684220D01*
X139211166Y-193607530D01*
X139197260Y-193566098D01*
X139196826Y-193565253D01*
X139184367Y-193573920D01*
X139164826Y-193623862D01*
X139141126Y-193706496D01*
X139123142Y-193781369D01*
X139097689Y-193893918D01*
X139074890Y-193992902D01*
X139057977Y-194064376D01*
X139052084Y-194087934D01*
X139046928Y-194120366D01*
X138701368Y-194120366D01*
X138756098Y-193883029D01*
X138766836Y-193836432D01*
X139053066Y-192594190D01*
X139186080Y-192594190D01*
X139269046Y-192598051D01*
G04 #@! TD*
M02*
