%TF.GenerationSoftware,KiCad,Pcbnew,(5.1.7)-1*%
%TF.CreationDate,2020-11-12T11:31:24+03:00*%
%TF.ProjectId,stomp adapter,73746f6d-7020-4616-9461-707465722e6b,rev?*%
%TF.SameCoordinates,Original*%
%TF.FileFunction,Legend,Top*%
%TF.FilePolarity,Positive*%
%FSLAX46Y46*%
G04 Gerber Fmt 4.6, Leading zero omitted, Abs format (unit mm)*
G04 Created by KiCad (PCBNEW (5.1.7)-1) date 2020-11-12 11:31:24*
%MOMM*%
%LPD*%
G01*
G04 APERTURE LIST*
%ADD10C,0.150000*%
%ADD11C,0.120000*%
G04 APERTURE END LIST*
D10*
X52826666Y-104200000D02*
X53360000Y-104200000D01*
X53093333Y-104466666D02*
X53093333Y-103933333D01*
X54060000Y-104466666D02*
X53660000Y-104466666D01*
X53860000Y-104466666D02*
X53860000Y-103766666D01*
X53793333Y-103866666D01*
X53726666Y-103933333D01*
X53660000Y-103966666D01*
X54326666Y-103833333D02*
X54360000Y-103800000D01*
X54426666Y-103766666D01*
X54593333Y-103766666D01*
X54660000Y-103800000D01*
X54693333Y-103833333D01*
X54726666Y-103900000D01*
X54726666Y-103966666D01*
X54693333Y-104066666D01*
X54293333Y-104466666D01*
X54726666Y-104466666D01*
X54926666Y-103766666D02*
X55160000Y-104466666D01*
X55393333Y-103766666D01*
X42146666Y-103990000D02*
X42680000Y-103990000D01*
X43380000Y-104256666D02*
X42980000Y-104256666D01*
X43180000Y-104256666D02*
X43180000Y-103556666D01*
X43113333Y-103656666D01*
X43046666Y-103723333D01*
X42980000Y-103756666D01*
X43646666Y-103623333D02*
X43680000Y-103590000D01*
X43746666Y-103556666D01*
X43913333Y-103556666D01*
X43980000Y-103590000D01*
X44013333Y-103623333D01*
X44046666Y-103690000D01*
X44046666Y-103756666D01*
X44013333Y-103856666D01*
X43613333Y-104256666D01*
X44046666Y-104256666D01*
X44246666Y-103556666D02*
X44480000Y-104256666D01*
X44713333Y-103556666D01*
D11*
%TO.C,C17*%
X32705225Y-104295000D02*
X32705225Y-104795000D01*
X32455225Y-104545000D02*
X32955225Y-104545000D01*
X37861000Y-105736000D02*
X37861000Y-106304000D01*
X37821000Y-105502000D02*
X37821000Y-106538000D01*
X37781000Y-105343000D02*
X37781000Y-106697000D01*
X37741000Y-105215000D02*
X37741000Y-106825000D01*
X37701000Y-105105000D02*
X37701000Y-106935000D01*
X37661000Y-105009000D02*
X37661000Y-107031000D01*
X37621000Y-104922000D02*
X37621000Y-107118000D01*
X37581000Y-104842000D02*
X37581000Y-107198000D01*
X37541000Y-107060000D02*
X37541000Y-107271000D01*
X37541000Y-104769000D02*
X37541000Y-104980000D01*
X37501000Y-107060000D02*
X37501000Y-107339000D01*
X37501000Y-104701000D02*
X37501000Y-104980000D01*
X37461000Y-107060000D02*
X37461000Y-107403000D01*
X37461000Y-104637000D02*
X37461000Y-104980000D01*
X37421000Y-107060000D02*
X37421000Y-107463000D01*
X37421000Y-104577000D02*
X37421000Y-104980000D01*
X37381000Y-107060000D02*
X37381000Y-107520000D01*
X37381000Y-104520000D02*
X37381000Y-104980000D01*
X37341000Y-107060000D02*
X37341000Y-107574000D01*
X37341000Y-104466000D02*
X37341000Y-104980000D01*
X37301000Y-107060000D02*
X37301000Y-107625000D01*
X37301000Y-104415000D02*
X37301000Y-104980000D01*
X37261000Y-107060000D02*
X37261000Y-107673000D01*
X37261000Y-104367000D02*
X37261000Y-104980000D01*
X37221000Y-107060000D02*
X37221000Y-107719000D01*
X37221000Y-104321000D02*
X37221000Y-104980000D01*
X37181000Y-107060000D02*
X37181000Y-107763000D01*
X37181000Y-104277000D02*
X37181000Y-104980000D01*
X37141000Y-107060000D02*
X37141000Y-107805000D01*
X37141000Y-104235000D02*
X37141000Y-104980000D01*
X37101000Y-107060000D02*
X37101000Y-107846000D01*
X37101000Y-104194000D02*
X37101000Y-104980000D01*
X37061000Y-107060000D02*
X37061000Y-107884000D01*
X37061000Y-104156000D02*
X37061000Y-104980000D01*
X37021000Y-107060000D02*
X37021000Y-107921000D01*
X37021000Y-104119000D02*
X37021000Y-104980000D01*
X36981000Y-107060000D02*
X36981000Y-107957000D01*
X36981000Y-104083000D02*
X36981000Y-104980000D01*
X36941000Y-107060000D02*
X36941000Y-107991000D01*
X36941000Y-104049000D02*
X36941000Y-104980000D01*
X36901000Y-107060000D02*
X36901000Y-108024000D01*
X36901000Y-104016000D02*
X36901000Y-104980000D01*
X36861000Y-107060000D02*
X36861000Y-108055000D01*
X36861000Y-103985000D02*
X36861000Y-104980000D01*
X36821000Y-107060000D02*
X36821000Y-108085000D01*
X36821000Y-103955000D02*
X36821000Y-104980000D01*
X36781000Y-107060000D02*
X36781000Y-108115000D01*
X36781000Y-103925000D02*
X36781000Y-104980000D01*
X36741000Y-107060000D02*
X36741000Y-108142000D01*
X36741000Y-103898000D02*
X36741000Y-104980000D01*
X36701000Y-107060000D02*
X36701000Y-108169000D01*
X36701000Y-103871000D02*
X36701000Y-104980000D01*
X36661000Y-107060000D02*
X36661000Y-108195000D01*
X36661000Y-103845000D02*
X36661000Y-104980000D01*
X36621000Y-107060000D02*
X36621000Y-108220000D01*
X36621000Y-103820000D02*
X36621000Y-104980000D01*
X36581000Y-107060000D02*
X36581000Y-108244000D01*
X36581000Y-103796000D02*
X36581000Y-104980000D01*
X36541000Y-107060000D02*
X36541000Y-108267000D01*
X36541000Y-103773000D02*
X36541000Y-104980000D01*
X36501000Y-107060000D02*
X36501000Y-108288000D01*
X36501000Y-103752000D02*
X36501000Y-104980000D01*
X36461000Y-107060000D02*
X36461000Y-108310000D01*
X36461000Y-103730000D02*
X36461000Y-104980000D01*
X36421000Y-107060000D02*
X36421000Y-108330000D01*
X36421000Y-103710000D02*
X36421000Y-104980000D01*
X36381000Y-107060000D02*
X36381000Y-108349000D01*
X36381000Y-103691000D02*
X36381000Y-104980000D01*
X36341000Y-107060000D02*
X36341000Y-108368000D01*
X36341000Y-103672000D02*
X36341000Y-104980000D01*
X36301000Y-107060000D02*
X36301000Y-108385000D01*
X36301000Y-103655000D02*
X36301000Y-104980000D01*
X36261000Y-107060000D02*
X36261000Y-108402000D01*
X36261000Y-103638000D02*
X36261000Y-104980000D01*
X36221000Y-107060000D02*
X36221000Y-108418000D01*
X36221000Y-103622000D02*
X36221000Y-104980000D01*
X36181000Y-107060000D02*
X36181000Y-108434000D01*
X36181000Y-103606000D02*
X36181000Y-104980000D01*
X36141000Y-107060000D02*
X36141000Y-108448000D01*
X36141000Y-103592000D02*
X36141000Y-104980000D01*
X36101000Y-107060000D02*
X36101000Y-108462000D01*
X36101000Y-103578000D02*
X36101000Y-104980000D01*
X36061000Y-107060000D02*
X36061000Y-108475000D01*
X36061000Y-103565000D02*
X36061000Y-104980000D01*
X36021000Y-107060000D02*
X36021000Y-108488000D01*
X36021000Y-103552000D02*
X36021000Y-104980000D01*
X35981000Y-107060000D02*
X35981000Y-108500000D01*
X35981000Y-103540000D02*
X35981000Y-104980000D01*
X35940000Y-107060000D02*
X35940000Y-108511000D01*
X35940000Y-103529000D02*
X35940000Y-104980000D01*
X35900000Y-107060000D02*
X35900000Y-108521000D01*
X35900000Y-103519000D02*
X35900000Y-104980000D01*
X35860000Y-107060000D02*
X35860000Y-108531000D01*
X35860000Y-103509000D02*
X35860000Y-104980000D01*
X35820000Y-107060000D02*
X35820000Y-108540000D01*
X35820000Y-103500000D02*
X35820000Y-104980000D01*
X35780000Y-107060000D02*
X35780000Y-108548000D01*
X35780000Y-103492000D02*
X35780000Y-104980000D01*
X35740000Y-107060000D02*
X35740000Y-108556000D01*
X35740000Y-103484000D02*
X35740000Y-104980000D01*
X35700000Y-107060000D02*
X35700000Y-108563000D01*
X35700000Y-103477000D02*
X35700000Y-104980000D01*
X35660000Y-107060000D02*
X35660000Y-108570000D01*
X35660000Y-103470000D02*
X35660000Y-104980000D01*
X35620000Y-107060000D02*
X35620000Y-108576000D01*
X35620000Y-103464000D02*
X35620000Y-104980000D01*
X35580000Y-107060000D02*
X35580000Y-108581000D01*
X35580000Y-103459000D02*
X35580000Y-104980000D01*
X35540000Y-107060000D02*
X35540000Y-108585000D01*
X35540000Y-103455000D02*
X35540000Y-104980000D01*
X35500000Y-107060000D02*
X35500000Y-108589000D01*
X35500000Y-103451000D02*
X35500000Y-104980000D01*
X35460000Y-103447000D02*
X35460000Y-108593000D01*
X35420000Y-103444000D02*
X35420000Y-108596000D01*
X35380000Y-103442000D02*
X35380000Y-108598000D01*
X35340000Y-103441000D02*
X35340000Y-108599000D01*
X35300000Y-103440000D02*
X35300000Y-108600000D01*
X35260000Y-103440000D02*
X35260000Y-108600000D01*
X37880000Y-106020000D02*
G75*
G03*
X37880000Y-106020000I-2620000J0D01*
G01*
%TO.C,C4*%
X42605225Y-50265000D02*
X42605225Y-50765000D01*
X42355225Y-50515000D02*
X42855225Y-50515000D01*
X47761000Y-51706000D02*
X47761000Y-52274000D01*
X47721000Y-51472000D02*
X47721000Y-52508000D01*
X47681000Y-51313000D02*
X47681000Y-52667000D01*
X47641000Y-51185000D02*
X47641000Y-52795000D01*
X47601000Y-51075000D02*
X47601000Y-52905000D01*
X47561000Y-50979000D02*
X47561000Y-53001000D01*
X47521000Y-50892000D02*
X47521000Y-53088000D01*
X47481000Y-50812000D02*
X47481000Y-53168000D01*
X47441000Y-53030000D02*
X47441000Y-53241000D01*
X47441000Y-50739000D02*
X47441000Y-50950000D01*
X47401000Y-53030000D02*
X47401000Y-53309000D01*
X47401000Y-50671000D02*
X47401000Y-50950000D01*
X47361000Y-53030000D02*
X47361000Y-53373000D01*
X47361000Y-50607000D02*
X47361000Y-50950000D01*
X47321000Y-53030000D02*
X47321000Y-53433000D01*
X47321000Y-50547000D02*
X47321000Y-50950000D01*
X47281000Y-53030000D02*
X47281000Y-53490000D01*
X47281000Y-50490000D02*
X47281000Y-50950000D01*
X47241000Y-53030000D02*
X47241000Y-53544000D01*
X47241000Y-50436000D02*
X47241000Y-50950000D01*
X47201000Y-53030000D02*
X47201000Y-53595000D01*
X47201000Y-50385000D02*
X47201000Y-50950000D01*
X47161000Y-53030000D02*
X47161000Y-53643000D01*
X47161000Y-50337000D02*
X47161000Y-50950000D01*
X47121000Y-53030000D02*
X47121000Y-53689000D01*
X47121000Y-50291000D02*
X47121000Y-50950000D01*
X47081000Y-53030000D02*
X47081000Y-53733000D01*
X47081000Y-50247000D02*
X47081000Y-50950000D01*
X47041000Y-53030000D02*
X47041000Y-53775000D01*
X47041000Y-50205000D02*
X47041000Y-50950000D01*
X47001000Y-53030000D02*
X47001000Y-53816000D01*
X47001000Y-50164000D02*
X47001000Y-50950000D01*
X46961000Y-53030000D02*
X46961000Y-53854000D01*
X46961000Y-50126000D02*
X46961000Y-50950000D01*
X46921000Y-53030000D02*
X46921000Y-53891000D01*
X46921000Y-50089000D02*
X46921000Y-50950000D01*
X46881000Y-53030000D02*
X46881000Y-53927000D01*
X46881000Y-50053000D02*
X46881000Y-50950000D01*
X46841000Y-53030000D02*
X46841000Y-53961000D01*
X46841000Y-50019000D02*
X46841000Y-50950000D01*
X46801000Y-53030000D02*
X46801000Y-53994000D01*
X46801000Y-49986000D02*
X46801000Y-50950000D01*
X46761000Y-53030000D02*
X46761000Y-54025000D01*
X46761000Y-49955000D02*
X46761000Y-50950000D01*
X46721000Y-53030000D02*
X46721000Y-54055000D01*
X46721000Y-49925000D02*
X46721000Y-50950000D01*
X46681000Y-53030000D02*
X46681000Y-54085000D01*
X46681000Y-49895000D02*
X46681000Y-50950000D01*
X46641000Y-53030000D02*
X46641000Y-54112000D01*
X46641000Y-49868000D02*
X46641000Y-50950000D01*
X46601000Y-53030000D02*
X46601000Y-54139000D01*
X46601000Y-49841000D02*
X46601000Y-50950000D01*
X46561000Y-53030000D02*
X46561000Y-54165000D01*
X46561000Y-49815000D02*
X46561000Y-50950000D01*
X46521000Y-53030000D02*
X46521000Y-54190000D01*
X46521000Y-49790000D02*
X46521000Y-50950000D01*
X46481000Y-53030000D02*
X46481000Y-54214000D01*
X46481000Y-49766000D02*
X46481000Y-50950000D01*
X46441000Y-53030000D02*
X46441000Y-54237000D01*
X46441000Y-49743000D02*
X46441000Y-50950000D01*
X46401000Y-53030000D02*
X46401000Y-54258000D01*
X46401000Y-49722000D02*
X46401000Y-50950000D01*
X46361000Y-53030000D02*
X46361000Y-54280000D01*
X46361000Y-49700000D02*
X46361000Y-50950000D01*
X46321000Y-53030000D02*
X46321000Y-54300000D01*
X46321000Y-49680000D02*
X46321000Y-50950000D01*
X46281000Y-53030000D02*
X46281000Y-54319000D01*
X46281000Y-49661000D02*
X46281000Y-50950000D01*
X46241000Y-53030000D02*
X46241000Y-54338000D01*
X46241000Y-49642000D02*
X46241000Y-50950000D01*
X46201000Y-53030000D02*
X46201000Y-54355000D01*
X46201000Y-49625000D02*
X46201000Y-50950000D01*
X46161000Y-53030000D02*
X46161000Y-54372000D01*
X46161000Y-49608000D02*
X46161000Y-50950000D01*
X46121000Y-53030000D02*
X46121000Y-54388000D01*
X46121000Y-49592000D02*
X46121000Y-50950000D01*
X46081000Y-53030000D02*
X46081000Y-54404000D01*
X46081000Y-49576000D02*
X46081000Y-50950000D01*
X46041000Y-53030000D02*
X46041000Y-54418000D01*
X46041000Y-49562000D02*
X46041000Y-50950000D01*
X46001000Y-53030000D02*
X46001000Y-54432000D01*
X46001000Y-49548000D02*
X46001000Y-50950000D01*
X45961000Y-53030000D02*
X45961000Y-54445000D01*
X45961000Y-49535000D02*
X45961000Y-50950000D01*
X45921000Y-53030000D02*
X45921000Y-54458000D01*
X45921000Y-49522000D02*
X45921000Y-50950000D01*
X45881000Y-53030000D02*
X45881000Y-54470000D01*
X45881000Y-49510000D02*
X45881000Y-50950000D01*
X45840000Y-53030000D02*
X45840000Y-54481000D01*
X45840000Y-49499000D02*
X45840000Y-50950000D01*
X45800000Y-53030000D02*
X45800000Y-54491000D01*
X45800000Y-49489000D02*
X45800000Y-50950000D01*
X45760000Y-53030000D02*
X45760000Y-54501000D01*
X45760000Y-49479000D02*
X45760000Y-50950000D01*
X45720000Y-53030000D02*
X45720000Y-54510000D01*
X45720000Y-49470000D02*
X45720000Y-50950000D01*
X45680000Y-53030000D02*
X45680000Y-54518000D01*
X45680000Y-49462000D02*
X45680000Y-50950000D01*
X45640000Y-53030000D02*
X45640000Y-54526000D01*
X45640000Y-49454000D02*
X45640000Y-50950000D01*
X45600000Y-53030000D02*
X45600000Y-54533000D01*
X45600000Y-49447000D02*
X45600000Y-50950000D01*
X45560000Y-53030000D02*
X45560000Y-54540000D01*
X45560000Y-49440000D02*
X45560000Y-50950000D01*
X45520000Y-53030000D02*
X45520000Y-54546000D01*
X45520000Y-49434000D02*
X45520000Y-50950000D01*
X45480000Y-53030000D02*
X45480000Y-54551000D01*
X45480000Y-49429000D02*
X45480000Y-50950000D01*
X45440000Y-53030000D02*
X45440000Y-54555000D01*
X45440000Y-49425000D02*
X45440000Y-50950000D01*
X45400000Y-53030000D02*
X45400000Y-54559000D01*
X45400000Y-49421000D02*
X45400000Y-50950000D01*
X45360000Y-49417000D02*
X45360000Y-54563000D01*
X45320000Y-49414000D02*
X45320000Y-54566000D01*
X45280000Y-49412000D02*
X45280000Y-54568000D01*
X45240000Y-49411000D02*
X45240000Y-54569000D01*
X45200000Y-49410000D02*
X45200000Y-54570000D01*
X45160000Y-49410000D02*
X45160000Y-54570000D01*
X47780000Y-51990000D02*
G75*
G03*
X47780000Y-51990000I-2620000J0D01*
G01*
%TO.C,C7*%
X56635000Y-97505225D02*
X56135000Y-97505225D01*
X56385000Y-97255225D02*
X56385000Y-97755225D01*
X55194000Y-102661000D02*
X54626000Y-102661000D01*
X55428000Y-102621000D02*
X54392000Y-102621000D01*
X55587000Y-102581000D02*
X54233000Y-102581000D01*
X55715000Y-102541000D02*
X54105000Y-102541000D01*
X55825000Y-102501000D02*
X53995000Y-102501000D01*
X55921000Y-102461000D02*
X53899000Y-102461000D01*
X56008000Y-102421000D02*
X53812000Y-102421000D01*
X56088000Y-102381000D02*
X53732000Y-102381000D01*
X53870000Y-102341000D02*
X53659000Y-102341000D01*
X56161000Y-102341000D02*
X55950000Y-102341000D01*
X53870000Y-102301000D02*
X53591000Y-102301000D01*
X56229000Y-102301000D02*
X55950000Y-102301000D01*
X53870000Y-102261000D02*
X53527000Y-102261000D01*
X56293000Y-102261000D02*
X55950000Y-102261000D01*
X53870000Y-102221000D02*
X53467000Y-102221000D01*
X56353000Y-102221000D02*
X55950000Y-102221000D01*
X53870000Y-102181000D02*
X53410000Y-102181000D01*
X56410000Y-102181000D02*
X55950000Y-102181000D01*
X53870000Y-102141000D02*
X53356000Y-102141000D01*
X56464000Y-102141000D02*
X55950000Y-102141000D01*
X53870000Y-102101000D02*
X53305000Y-102101000D01*
X56515000Y-102101000D02*
X55950000Y-102101000D01*
X53870000Y-102061000D02*
X53257000Y-102061000D01*
X56563000Y-102061000D02*
X55950000Y-102061000D01*
X53870000Y-102021000D02*
X53211000Y-102021000D01*
X56609000Y-102021000D02*
X55950000Y-102021000D01*
X53870000Y-101981000D02*
X53167000Y-101981000D01*
X56653000Y-101981000D02*
X55950000Y-101981000D01*
X53870000Y-101941000D02*
X53125000Y-101941000D01*
X56695000Y-101941000D02*
X55950000Y-101941000D01*
X53870000Y-101901000D02*
X53084000Y-101901000D01*
X56736000Y-101901000D02*
X55950000Y-101901000D01*
X53870000Y-101861000D02*
X53046000Y-101861000D01*
X56774000Y-101861000D02*
X55950000Y-101861000D01*
X53870000Y-101821000D02*
X53009000Y-101821000D01*
X56811000Y-101821000D02*
X55950000Y-101821000D01*
X53870000Y-101781000D02*
X52973000Y-101781000D01*
X56847000Y-101781000D02*
X55950000Y-101781000D01*
X53870000Y-101741000D02*
X52939000Y-101741000D01*
X56881000Y-101741000D02*
X55950000Y-101741000D01*
X53870000Y-101701000D02*
X52906000Y-101701000D01*
X56914000Y-101701000D02*
X55950000Y-101701000D01*
X53870000Y-101661000D02*
X52875000Y-101661000D01*
X56945000Y-101661000D02*
X55950000Y-101661000D01*
X53870000Y-101621000D02*
X52845000Y-101621000D01*
X56975000Y-101621000D02*
X55950000Y-101621000D01*
X53870000Y-101581000D02*
X52815000Y-101581000D01*
X57005000Y-101581000D02*
X55950000Y-101581000D01*
X53870000Y-101541000D02*
X52788000Y-101541000D01*
X57032000Y-101541000D02*
X55950000Y-101541000D01*
X53870000Y-101501000D02*
X52761000Y-101501000D01*
X57059000Y-101501000D02*
X55950000Y-101501000D01*
X53870000Y-101461000D02*
X52735000Y-101461000D01*
X57085000Y-101461000D02*
X55950000Y-101461000D01*
X53870000Y-101421000D02*
X52710000Y-101421000D01*
X57110000Y-101421000D02*
X55950000Y-101421000D01*
X53870000Y-101381000D02*
X52686000Y-101381000D01*
X57134000Y-101381000D02*
X55950000Y-101381000D01*
X53870000Y-101341000D02*
X52663000Y-101341000D01*
X57157000Y-101341000D02*
X55950000Y-101341000D01*
X53870000Y-101301000D02*
X52642000Y-101301000D01*
X57178000Y-101301000D02*
X55950000Y-101301000D01*
X53870000Y-101261000D02*
X52620000Y-101261000D01*
X57200000Y-101261000D02*
X55950000Y-101261000D01*
X53870000Y-101221000D02*
X52600000Y-101221000D01*
X57220000Y-101221000D02*
X55950000Y-101221000D01*
X53870000Y-101181000D02*
X52581000Y-101181000D01*
X57239000Y-101181000D02*
X55950000Y-101181000D01*
X53870000Y-101141000D02*
X52562000Y-101141000D01*
X57258000Y-101141000D02*
X55950000Y-101141000D01*
X53870000Y-101101000D02*
X52545000Y-101101000D01*
X57275000Y-101101000D02*
X55950000Y-101101000D01*
X53870000Y-101061000D02*
X52528000Y-101061000D01*
X57292000Y-101061000D02*
X55950000Y-101061000D01*
X53870000Y-101021000D02*
X52512000Y-101021000D01*
X57308000Y-101021000D02*
X55950000Y-101021000D01*
X53870000Y-100981000D02*
X52496000Y-100981000D01*
X57324000Y-100981000D02*
X55950000Y-100981000D01*
X53870000Y-100941000D02*
X52482000Y-100941000D01*
X57338000Y-100941000D02*
X55950000Y-100941000D01*
X53870000Y-100901000D02*
X52468000Y-100901000D01*
X57352000Y-100901000D02*
X55950000Y-100901000D01*
X53870000Y-100861000D02*
X52455000Y-100861000D01*
X57365000Y-100861000D02*
X55950000Y-100861000D01*
X53870000Y-100821000D02*
X52442000Y-100821000D01*
X57378000Y-100821000D02*
X55950000Y-100821000D01*
X53870000Y-100781000D02*
X52430000Y-100781000D01*
X57390000Y-100781000D02*
X55950000Y-100781000D01*
X53870000Y-100740000D02*
X52419000Y-100740000D01*
X57401000Y-100740000D02*
X55950000Y-100740000D01*
X53870000Y-100700000D02*
X52409000Y-100700000D01*
X57411000Y-100700000D02*
X55950000Y-100700000D01*
X53870000Y-100660000D02*
X52399000Y-100660000D01*
X57421000Y-100660000D02*
X55950000Y-100660000D01*
X53870000Y-100620000D02*
X52390000Y-100620000D01*
X57430000Y-100620000D02*
X55950000Y-100620000D01*
X53870000Y-100580000D02*
X52382000Y-100580000D01*
X57438000Y-100580000D02*
X55950000Y-100580000D01*
X53870000Y-100540000D02*
X52374000Y-100540000D01*
X57446000Y-100540000D02*
X55950000Y-100540000D01*
X53870000Y-100500000D02*
X52367000Y-100500000D01*
X57453000Y-100500000D02*
X55950000Y-100500000D01*
X53870000Y-100460000D02*
X52360000Y-100460000D01*
X57460000Y-100460000D02*
X55950000Y-100460000D01*
X53870000Y-100420000D02*
X52354000Y-100420000D01*
X57466000Y-100420000D02*
X55950000Y-100420000D01*
X53870000Y-100380000D02*
X52349000Y-100380000D01*
X57471000Y-100380000D02*
X55950000Y-100380000D01*
X53870000Y-100340000D02*
X52345000Y-100340000D01*
X57475000Y-100340000D02*
X55950000Y-100340000D01*
X53870000Y-100300000D02*
X52341000Y-100300000D01*
X57479000Y-100300000D02*
X55950000Y-100300000D01*
X57483000Y-100260000D02*
X52337000Y-100260000D01*
X57486000Y-100220000D02*
X52334000Y-100220000D01*
X57488000Y-100180000D02*
X52332000Y-100180000D01*
X57489000Y-100140000D02*
X52331000Y-100140000D01*
X57490000Y-100100000D02*
X52330000Y-100100000D01*
X57490000Y-100060000D02*
X52330000Y-100060000D01*
X57530000Y-100060000D02*
G75*
G03*
X57530000Y-100060000I-2620000J0D01*
G01*
%TO.C,C5*%
X52610000Y-33640000D02*
G75*
G03*
X52610000Y-33640000I-2620000J0D01*
G01*
X47410000Y-33640000D02*
X52570000Y-33640000D01*
X47410000Y-33600000D02*
X52570000Y-33600000D01*
X47411000Y-33560000D02*
X52569000Y-33560000D01*
X47412000Y-33520000D02*
X52568000Y-33520000D01*
X47414000Y-33480000D02*
X52566000Y-33480000D01*
X47417000Y-33440000D02*
X52563000Y-33440000D01*
X47421000Y-33400000D02*
X48950000Y-33400000D01*
X51030000Y-33400000D02*
X52559000Y-33400000D01*
X47425000Y-33360000D02*
X48950000Y-33360000D01*
X51030000Y-33360000D02*
X52555000Y-33360000D01*
X47429000Y-33320000D02*
X48950000Y-33320000D01*
X51030000Y-33320000D02*
X52551000Y-33320000D01*
X47434000Y-33280000D02*
X48950000Y-33280000D01*
X51030000Y-33280000D02*
X52546000Y-33280000D01*
X47440000Y-33240000D02*
X48950000Y-33240000D01*
X51030000Y-33240000D02*
X52540000Y-33240000D01*
X47447000Y-33200000D02*
X48950000Y-33200000D01*
X51030000Y-33200000D02*
X52533000Y-33200000D01*
X47454000Y-33160000D02*
X48950000Y-33160000D01*
X51030000Y-33160000D02*
X52526000Y-33160000D01*
X47462000Y-33120000D02*
X48950000Y-33120000D01*
X51030000Y-33120000D02*
X52518000Y-33120000D01*
X47470000Y-33080000D02*
X48950000Y-33080000D01*
X51030000Y-33080000D02*
X52510000Y-33080000D01*
X47479000Y-33040000D02*
X48950000Y-33040000D01*
X51030000Y-33040000D02*
X52501000Y-33040000D01*
X47489000Y-33000000D02*
X48950000Y-33000000D01*
X51030000Y-33000000D02*
X52491000Y-33000000D01*
X47499000Y-32960000D02*
X48950000Y-32960000D01*
X51030000Y-32960000D02*
X52481000Y-32960000D01*
X47510000Y-32919000D02*
X48950000Y-32919000D01*
X51030000Y-32919000D02*
X52470000Y-32919000D01*
X47522000Y-32879000D02*
X48950000Y-32879000D01*
X51030000Y-32879000D02*
X52458000Y-32879000D01*
X47535000Y-32839000D02*
X48950000Y-32839000D01*
X51030000Y-32839000D02*
X52445000Y-32839000D01*
X47548000Y-32799000D02*
X48950000Y-32799000D01*
X51030000Y-32799000D02*
X52432000Y-32799000D01*
X47562000Y-32759000D02*
X48950000Y-32759000D01*
X51030000Y-32759000D02*
X52418000Y-32759000D01*
X47576000Y-32719000D02*
X48950000Y-32719000D01*
X51030000Y-32719000D02*
X52404000Y-32719000D01*
X47592000Y-32679000D02*
X48950000Y-32679000D01*
X51030000Y-32679000D02*
X52388000Y-32679000D01*
X47608000Y-32639000D02*
X48950000Y-32639000D01*
X51030000Y-32639000D02*
X52372000Y-32639000D01*
X47625000Y-32599000D02*
X48950000Y-32599000D01*
X51030000Y-32599000D02*
X52355000Y-32599000D01*
X47642000Y-32559000D02*
X48950000Y-32559000D01*
X51030000Y-32559000D02*
X52338000Y-32559000D01*
X47661000Y-32519000D02*
X48950000Y-32519000D01*
X51030000Y-32519000D02*
X52319000Y-32519000D01*
X47680000Y-32479000D02*
X48950000Y-32479000D01*
X51030000Y-32479000D02*
X52300000Y-32479000D01*
X47700000Y-32439000D02*
X48950000Y-32439000D01*
X51030000Y-32439000D02*
X52280000Y-32439000D01*
X47722000Y-32399000D02*
X48950000Y-32399000D01*
X51030000Y-32399000D02*
X52258000Y-32399000D01*
X47743000Y-32359000D02*
X48950000Y-32359000D01*
X51030000Y-32359000D02*
X52237000Y-32359000D01*
X47766000Y-32319000D02*
X48950000Y-32319000D01*
X51030000Y-32319000D02*
X52214000Y-32319000D01*
X47790000Y-32279000D02*
X48950000Y-32279000D01*
X51030000Y-32279000D02*
X52190000Y-32279000D01*
X47815000Y-32239000D02*
X48950000Y-32239000D01*
X51030000Y-32239000D02*
X52165000Y-32239000D01*
X47841000Y-32199000D02*
X48950000Y-32199000D01*
X51030000Y-32199000D02*
X52139000Y-32199000D01*
X47868000Y-32159000D02*
X48950000Y-32159000D01*
X51030000Y-32159000D02*
X52112000Y-32159000D01*
X47895000Y-32119000D02*
X48950000Y-32119000D01*
X51030000Y-32119000D02*
X52085000Y-32119000D01*
X47925000Y-32079000D02*
X48950000Y-32079000D01*
X51030000Y-32079000D02*
X52055000Y-32079000D01*
X47955000Y-32039000D02*
X48950000Y-32039000D01*
X51030000Y-32039000D02*
X52025000Y-32039000D01*
X47986000Y-31999000D02*
X48950000Y-31999000D01*
X51030000Y-31999000D02*
X51994000Y-31999000D01*
X48019000Y-31959000D02*
X48950000Y-31959000D01*
X51030000Y-31959000D02*
X51961000Y-31959000D01*
X48053000Y-31919000D02*
X48950000Y-31919000D01*
X51030000Y-31919000D02*
X51927000Y-31919000D01*
X48089000Y-31879000D02*
X48950000Y-31879000D01*
X51030000Y-31879000D02*
X51891000Y-31879000D01*
X48126000Y-31839000D02*
X48950000Y-31839000D01*
X51030000Y-31839000D02*
X51854000Y-31839000D01*
X48164000Y-31799000D02*
X48950000Y-31799000D01*
X51030000Y-31799000D02*
X51816000Y-31799000D01*
X48205000Y-31759000D02*
X48950000Y-31759000D01*
X51030000Y-31759000D02*
X51775000Y-31759000D01*
X48247000Y-31719000D02*
X48950000Y-31719000D01*
X51030000Y-31719000D02*
X51733000Y-31719000D01*
X48291000Y-31679000D02*
X48950000Y-31679000D01*
X51030000Y-31679000D02*
X51689000Y-31679000D01*
X48337000Y-31639000D02*
X48950000Y-31639000D01*
X51030000Y-31639000D02*
X51643000Y-31639000D01*
X48385000Y-31599000D02*
X48950000Y-31599000D01*
X51030000Y-31599000D02*
X51595000Y-31599000D01*
X48436000Y-31559000D02*
X48950000Y-31559000D01*
X51030000Y-31559000D02*
X51544000Y-31559000D01*
X48490000Y-31519000D02*
X48950000Y-31519000D01*
X51030000Y-31519000D02*
X51490000Y-31519000D01*
X48547000Y-31479000D02*
X48950000Y-31479000D01*
X51030000Y-31479000D02*
X51433000Y-31479000D01*
X48607000Y-31439000D02*
X48950000Y-31439000D01*
X51030000Y-31439000D02*
X51373000Y-31439000D01*
X48671000Y-31399000D02*
X48950000Y-31399000D01*
X51030000Y-31399000D02*
X51309000Y-31399000D01*
X48739000Y-31359000D02*
X48950000Y-31359000D01*
X51030000Y-31359000D02*
X51241000Y-31359000D01*
X48812000Y-31319000D02*
X51168000Y-31319000D01*
X48892000Y-31279000D02*
X51088000Y-31279000D01*
X48979000Y-31239000D02*
X51001000Y-31239000D01*
X49075000Y-31199000D02*
X50905000Y-31199000D01*
X49185000Y-31159000D02*
X50795000Y-31159000D01*
X49313000Y-31119000D02*
X50667000Y-31119000D01*
X49472000Y-31079000D02*
X50508000Y-31079000D01*
X49706000Y-31039000D02*
X50274000Y-31039000D01*
X48515000Y-36444775D02*
X48515000Y-35944775D01*
X48265000Y-36194775D02*
X48765000Y-36194775D01*
%TO.C,C1*%
X46770000Y-80890000D02*
G75*
G03*
X46770000Y-80890000I-2620000J0D01*
G01*
X44150000Y-83470000D02*
X44150000Y-78310000D01*
X44110000Y-83470000D02*
X44110000Y-78310000D01*
X44070000Y-83469000D02*
X44070000Y-78311000D01*
X44030000Y-83468000D02*
X44030000Y-78312000D01*
X43990000Y-83466000D02*
X43990000Y-78314000D01*
X43950000Y-83463000D02*
X43950000Y-78317000D01*
X43910000Y-83459000D02*
X43910000Y-81930000D01*
X43910000Y-79850000D02*
X43910000Y-78321000D01*
X43870000Y-83455000D02*
X43870000Y-81930000D01*
X43870000Y-79850000D02*
X43870000Y-78325000D01*
X43830000Y-83451000D02*
X43830000Y-81930000D01*
X43830000Y-79850000D02*
X43830000Y-78329000D01*
X43790000Y-83446000D02*
X43790000Y-81930000D01*
X43790000Y-79850000D02*
X43790000Y-78334000D01*
X43750000Y-83440000D02*
X43750000Y-81930000D01*
X43750000Y-79850000D02*
X43750000Y-78340000D01*
X43710000Y-83433000D02*
X43710000Y-81930000D01*
X43710000Y-79850000D02*
X43710000Y-78347000D01*
X43670000Y-83426000D02*
X43670000Y-81930000D01*
X43670000Y-79850000D02*
X43670000Y-78354000D01*
X43630000Y-83418000D02*
X43630000Y-81930000D01*
X43630000Y-79850000D02*
X43630000Y-78362000D01*
X43590000Y-83410000D02*
X43590000Y-81930000D01*
X43590000Y-79850000D02*
X43590000Y-78370000D01*
X43550000Y-83401000D02*
X43550000Y-81930000D01*
X43550000Y-79850000D02*
X43550000Y-78379000D01*
X43510000Y-83391000D02*
X43510000Y-81930000D01*
X43510000Y-79850000D02*
X43510000Y-78389000D01*
X43470000Y-83381000D02*
X43470000Y-81930000D01*
X43470000Y-79850000D02*
X43470000Y-78399000D01*
X43429000Y-83370000D02*
X43429000Y-81930000D01*
X43429000Y-79850000D02*
X43429000Y-78410000D01*
X43389000Y-83358000D02*
X43389000Y-81930000D01*
X43389000Y-79850000D02*
X43389000Y-78422000D01*
X43349000Y-83345000D02*
X43349000Y-81930000D01*
X43349000Y-79850000D02*
X43349000Y-78435000D01*
X43309000Y-83332000D02*
X43309000Y-81930000D01*
X43309000Y-79850000D02*
X43309000Y-78448000D01*
X43269000Y-83318000D02*
X43269000Y-81930000D01*
X43269000Y-79850000D02*
X43269000Y-78462000D01*
X43229000Y-83304000D02*
X43229000Y-81930000D01*
X43229000Y-79850000D02*
X43229000Y-78476000D01*
X43189000Y-83288000D02*
X43189000Y-81930000D01*
X43189000Y-79850000D02*
X43189000Y-78492000D01*
X43149000Y-83272000D02*
X43149000Y-81930000D01*
X43149000Y-79850000D02*
X43149000Y-78508000D01*
X43109000Y-83255000D02*
X43109000Y-81930000D01*
X43109000Y-79850000D02*
X43109000Y-78525000D01*
X43069000Y-83238000D02*
X43069000Y-81930000D01*
X43069000Y-79850000D02*
X43069000Y-78542000D01*
X43029000Y-83219000D02*
X43029000Y-81930000D01*
X43029000Y-79850000D02*
X43029000Y-78561000D01*
X42989000Y-83200000D02*
X42989000Y-81930000D01*
X42989000Y-79850000D02*
X42989000Y-78580000D01*
X42949000Y-83180000D02*
X42949000Y-81930000D01*
X42949000Y-79850000D02*
X42949000Y-78600000D01*
X42909000Y-83158000D02*
X42909000Y-81930000D01*
X42909000Y-79850000D02*
X42909000Y-78622000D01*
X42869000Y-83137000D02*
X42869000Y-81930000D01*
X42869000Y-79850000D02*
X42869000Y-78643000D01*
X42829000Y-83114000D02*
X42829000Y-81930000D01*
X42829000Y-79850000D02*
X42829000Y-78666000D01*
X42789000Y-83090000D02*
X42789000Y-81930000D01*
X42789000Y-79850000D02*
X42789000Y-78690000D01*
X42749000Y-83065000D02*
X42749000Y-81930000D01*
X42749000Y-79850000D02*
X42749000Y-78715000D01*
X42709000Y-83039000D02*
X42709000Y-81930000D01*
X42709000Y-79850000D02*
X42709000Y-78741000D01*
X42669000Y-83012000D02*
X42669000Y-81930000D01*
X42669000Y-79850000D02*
X42669000Y-78768000D01*
X42629000Y-82985000D02*
X42629000Y-81930000D01*
X42629000Y-79850000D02*
X42629000Y-78795000D01*
X42589000Y-82955000D02*
X42589000Y-81930000D01*
X42589000Y-79850000D02*
X42589000Y-78825000D01*
X42549000Y-82925000D02*
X42549000Y-81930000D01*
X42549000Y-79850000D02*
X42549000Y-78855000D01*
X42509000Y-82894000D02*
X42509000Y-81930000D01*
X42509000Y-79850000D02*
X42509000Y-78886000D01*
X42469000Y-82861000D02*
X42469000Y-81930000D01*
X42469000Y-79850000D02*
X42469000Y-78919000D01*
X42429000Y-82827000D02*
X42429000Y-81930000D01*
X42429000Y-79850000D02*
X42429000Y-78953000D01*
X42389000Y-82791000D02*
X42389000Y-81930000D01*
X42389000Y-79850000D02*
X42389000Y-78989000D01*
X42349000Y-82754000D02*
X42349000Y-81930000D01*
X42349000Y-79850000D02*
X42349000Y-79026000D01*
X42309000Y-82716000D02*
X42309000Y-81930000D01*
X42309000Y-79850000D02*
X42309000Y-79064000D01*
X42269000Y-82675000D02*
X42269000Y-81930000D01*
X42269000Y-79850000D02*
X42269000Y-79105000D01*
X42229000Y-82633000D02*
X42229000Y-81930000D01*
X42229000Y-79850000D02*
X42229000Y-79147000D01*
X42189000Y-82589000D02*
X42189000Y-81930000D01*
X42189000Y-79850000D02*
X42189000Y-79191000D01*
X42149000Y-82543000D02*
X42149000Y-81930000D01*
X42149000Y-79850000D02*
X42149000Y-79237000D01*
X42109000Y-82495000D02*
X42109000Y-81930000D01*
X42109000Y-79850000D02*
X42109000Y-79285000D01*
X42069000Y-82444000D02*
X42069000Y-81930000D01*
X42069000Y-79850000D02*
X42069000Y-79336000D01*
X42029000Y-82390000D02*
X42029000Y-81930000D01*
X42029000Y-79850000D02*
X42029000Y-79390000D01*
X41989000Y-82333000D02*
X41989000Y-81930000D01*
X41989000Y-79850000D02*
X41989000Y-79447000D01*
X41949000Y-82273000D02*
X41949000Y-81930000D01*
X41949000Y-79850000D02*
X41949000Y-79507000D01*
X41909000Y-82209000D02*
X41909000Y-81930000D01*
X41909000Y-79850000D02*
X41909000Y-79571000D01*
X41869000Y-82141000D02*
X41869000Y-81930000D01*
X41869000Y-79850000D02*
X41869000Y-79639000D01*
X41829000Y-82068000D02*
X41829000Y-79712000D01*
X41789000Y-81988000D02*
X41789000Y-79792000D01*
X41749000Y-81901000D02*
X41749000Y-79879000D01*
X41709000Y-81805000D02*
X41709000Y-79975000D01*
X41669000Y-81695000D02*
X41669000Y-80085000D01*
X41629000Y-81567000D02*
X41629000Y-80213000D01*
X41589000Y-81408000D02*
X41589000Y-80372000D01*
X41549000Y-81174000D02*
X41549000Y-80606000D01*
X46954775Y-82365000D02*
X46454775Y-82365000D01*
X46704775Y-82615000D02*
X46704775Y-82115000D01*
%TO.C,C20*%
X72970000Y-107200000D02*
G75*
G03*
X72970000Y-107200000I-2620000J0D01*
G01*
X70350000Y-104620000D02*
X70350000Y-109780000D01*
X70390000Y-104620000D02*
X70390000Y-109780000D01*
X70430000Y-104621000D02*
X70430000Y-109779000D01*
X70470000Y-104622000D02*
X70470000Y-109778000D01*
X70510000Y-104624000D02*
X70510000Y-109776000D01*
X70550000Y-104627000D02*
X70550000Y-109773000D01*
X70590000Y-104631000D02*
X70590000Y-106160000D01*
X70590000Y-108240000D02*
X70590000Y-109769000D01*
X70630000Y-104635000D02*
X70630000Y-106160000D01*
X70630000Y-108240000D02*
X70630000Y-109765000D01*
X70670000Y-104639000D02*
X70670000Y-106160000D01*
X70670000Y-108240000D02*
X70670000Y-109761000D01*
X70710000Y-104644000D02*
X70710000Y-106160000D01*
X70710000Y-108240000D02*
X70710000Y-109756000D01*
X70750000Y-104650000D02*
X70750000Y-106160000D01*
X70750000Y-108240000D02*
X70750000Y-109750000D01*
X70790000Y-104657000D02*
X70790000Y-106160000D01*
X70790000Y-108240000D02*
X70790000Y-109743000D01*
X70830000Y-104664000D02*
X70830000Y-106160000D01*
X70830000Y-108240000D02*
X70830000Y-109736000D01*
X70870000Y-104672000D02*
X70870000Y-106160000D01*
X70870000Y-108240000D02*
X70870000Y-109728000D01*
X70910000Y-104680000D02*
X70910000Y-106160000D01*
X70910000Y-108240000D02*
X70910000Y-109720000D01*
X70950000Y-104689000D02*
X70950000Y-106160000D01*
X70950000Y-108240000D02*
X70950000Y-109711000D01*
X70990000Y-104699000D02*
X70990000Y-106160000D01*
X70990000Y-108240000D02*
X70990000Y-109701000D01*
X71030000Y-104709000D02*
X71030000Y-106160000D01*
X71030000Y-108240000D02*
X71030000Y-109691000D01*
X71071000Y-104720000D02*
X71071000Y-106160000D01*
X71071000Y-108240000D02*
X71071000Y-109680000D01*
X71111000Y-104732000D02*
X71111000Y-106160000D01*
X71111000Y-108240000D02*
X71111000Y-109668000D01*
X71151000Y-104745000D02*
X71151000Y-106160000D01*
X71151000Y-108240000D02*
X71151000Y-109655000D01*
X71191000Y-104758000D02*
X71191000Y-106160000D01*
X71191000Y-108240000D02*
X71191000Y-109642000D01*
X71231000Y-104772000D02*
X71231000Y-106160000D01*
X71231000Y-108240000D02*
X71231000Y-109628000D01*
X71271000Y-104786000D02*
X71271000Y-106160000D01*
X71271000Y-108240000D02*
X71271000Y-109614000D01*
X71311000Y-104802000D02*
X71311000Y-106160000D01*
X71311000Y-108240000D02*
X71311000Y-109598000D01*
X71351000Y-104818000D02*
X71351000Y-106160000D01*
X71351000Y-108240000D02*
X71351000Y-109582000D01*
X71391000Y-104835000D02*
X71391000Y-106160000D01*
X71391000Y-108240000D02*
X71391000Y-109565000D01*
X71431000Y-104852000D02*
X71431000Y-106160000D01*
X71431000Y-108240000D02*
X71431000Y-109548000D01*
X71471000Y-104871000D02*
X71471000Y-106160000D01*
X71471000Y-108240000D02*
X71471000Y-109529000D01*
X71511000Y-104890000D02*
X71511000Y-106160000D01*
X71511000Y-108240000D02*
X71511000Y-109510000D01*
X71551000Y-104910000D02*
X71551000Y-106160000D01*
X71551000Y-108240000D02*
X71551000Y-109490000D01*
X71591000Y-104932000D02*
X71591000Y-106160000D01*
X71591000Y-108240000D02*
X71591000Y-109468000D01*
X71631000Y-104953000D02*
X71631000Y-106160000D01*
X71631000Y-108240000D02*
X71631000Y-109447000D01*
X71671000Y-104976000D02*
X71671000Y-106160000D01*
X71671000Y-108240000D02*
X71671000Y-109424000D01*
X71711000Y-105000000D02*
X71711000Y-106160000D01*
X71711000Y-108240000D02*
X71711000Y-109400000D01*
X71751000Y-105025000D02*
X71751000Y-106160000D01*
X71751000Y-108240000D02*
X71751000Y-109375000D01*
X71791000Y-105051000D02*
X71791000Y-106160000D01*
X71791000Y-108240000D02*
X71791000Y-109349000D01*
X71831000Y-105078000D02*
X71831000Y-106160000D01*
X71831000Y-108240000D02*
X71831000Y-109322000D01*
X71871000Y-105105000D02*
X71871000Y-106160000D01*
X71871000Y-108240000D02*
X71871000Y-109295000D01*
X71911000Y-105135000D02*
X71911000Y-106160000D01*
X71911000Y-108240000D02*
X71911000Y-109265000D01*
X71951000Y-105165000D02*
X71951000Y-106160000D01*
X71951000Y-108240000D02*
X71951000Y-109235000D01*
X71991000Y-105196000D02*
X71991000Y-106160000D01*
X71991000Y-108240000D02*
X71991000Y-109204000D01*
X72031000Y-105229000D02*
X72031000Y-106160000D01*
X72031000Y-108240000D02*
X72031000Y-109171000D01*
X72071000Y-105263000D02*
X72071000Y-106160000D01*
X72071000Y-108240000D02*
X72071000Y-109137000D01*
X72111000Y-105299000D02*
X72111000Y-106160000D01*
X72111000Y-108240000D02*
X72111000Y-109101000D01*
X72151000Y-105336000D02*
X72151000Y-106160000D01*
X72151000Y-108240000D02*
X72151000Y-109064000D01*
X72191000Y-105374000D02*
X72191000Y-106160000D01*
X72191000Y-108240000D02*
X72191000Y-109026000D01*
X72231000Y-105415000D02*
X72231000Y-106160000D01*
X72231000Y-108240000D02*
X72231000Y-108985000D01*
X72271000Y-105457000D02*
X72271000Y-106160000D01*
X72271000Y-108240000D02*
X72271000Y-108943000D01*
X72311000Y-105501000D02*
X72311000Y-106160000D01*
X72311000Y-108240000D02*
X72311000Y-108899000D01*
X72351000Y-105547000D02*
X72351000Y-106160000D01*
X72351000Y-108240000D02*
X72351000Y-108853000D01*
X72391000Y-105595000D02*
X72391000Y-106160000D01*
X72391000Y-108240000D02*
X72391000Y-108805000D01*
X72431000Y-105646000D02*
X72431000Y-106160000D01*
X72431000Y-108240000D02*
X72431000Y-108754000D01*
X72471000Y-105700000D02*
X72471000Y-106160000D01*
X72471000Y-108240000D02*
X72471000Y-108700000D01*
X72511000Y-105757000D02*
X72511000Y-106160000D01*
X72511000Y-108240000D02*
X72511000Y-108643000D01*
X72551000Y-105817000D02*
X72551000Y-106160000D01*
X72551000Y-108240000D02*
X72551000Y-108583000D01*
X72591000Y-105881000D02*
X72591000Y-106160000D01*
X72591000Y-108240000D02*
X72591000Y-108519000D01*
X72631000Y-105949000D02*
X72631000Y-106160000D01*
X72631000Y-108240000D02*
X72631000Y-108451000D01*
X72671000Y-106022000D02*
X72671000Y-108378000D01*
X72711000Y-106102000D02*
X72711000Y-108298000D01*
X72751000Y-106189000D02*
X72751000Y-108211000D01*
X72791000Y-106285000D02*
X72791000Y-108115000D01*
X72831000Y-106395000D02*
X72831000Y-108005000D01*
X72871000Y-106523000D02*
X72871000Y-107877000D01*
X72911000Y-106682000D02*
X72911000Y-107718000D01*
X72951000Y-106916000D02*
X72951000Y-107484000D01*
X67545225Y-105725000D02*
X68045225Y-105725000D01*
X67795225Y-105475000D02*
X67795225Y-105975000D01*
%TO.C,C3*%
X64110000Y-52150000D02*
G75*
G03*
X64110000Y-52150000I-2620000J0D01*
G01*
X61490000Y-49570000D02*
X61490000Y-54730000D01*
X61530000Y-49570000D02*
X61530000Y-54730000D01*
X61570000Y-49571000D02*
X61570000Y-54729000D01*
X61610000Y-49572000D02*
X61610000Y-54728000D01*
X61650000Y-49574000D02*
X61650000Y-54726000D01*
X61690000Y-49577000D02*
X61690000Y-54723000D01*
X61730000Y-49581000D02*
X61730000Y-51110000D01*
X61730000Y-53190000D02*
X61730000Y-54719000D01*
X61770000Y-49585000D02*
X61770000Y-51110000D01*
X61770000Y-53190000D02*
X61770000Y-54715000D01*
X61810000Y-49589000D02*
X61810000Y-51110000D01*
X61810000Y-53190000D02*
X61810000Y-54711000D01*
X61850000Y-49594000D02*
X61850000Y-51110000D01*
X61850000Y-53190000D02*
X61850000Y-54706000D01*
X61890000Y-49600000D02*
X61890000Y-51110000D01*
X61890000Y-53190000D02*
X61890000Y-54700000D01*
X61930000Y-49607000D02*
X61930000Y-51110000D01*
X61930000Y-53190000D02*
X61930000Y-54693000D01*
X61970000Y-49614000D02*
X61970000Y-51110000D01*
X61970000Y-53190000D02*
X61970000Y-54686000D01*
X62010000Y-49622000D02*
X62010000Y-51110000D01*
X62010000Y-53190000D02*
X62010000Y-54678000D01*
X62050000Y-49630000D02*
X62050000Y-51110000D01*
X62050000Y-53190000D02*
X62050000Y-54670000D01*
X62090000Y-49639000D02*
X62090000Y-51110000D01*
X62090000Y-53190000D02*
X62090000Y-54661000D01*
X62130000Y-49649000D02*
X62130000Y-51110000D01*
X62130000Y-53190000D02*
X62130000Y-54651000D01*
X62170000Y-49659000D02*
X62170000Y-51110000D01*
X62170000Y-53190000D02*
X62170000Y-54641000D01*
X62211000Y-49670000D02*
X62211000Y-51110000D01*
X62211000Y-53190000D02*
X62211000Y-54630000D01*
X62251000Y-49682000D02*
X62251000Y-51110000D01*
X62251000Y-53190000D02*
X62251000Y-54618000D01*
X62291000Y-49695000D02*
X62291000Y-51110000D01*
X62291000Y-53190000D02*
X62291000Y-54605000D01*
X62331000Y-49708000D02*
X62331000Y-51110000D01*
X62331000Y-53190000D02*
X62331000Y-54592000D01*
X62371000Y-49722000D02*
X62371000Y-51110000D01*
X62371000Y-53190000D02*
X62371000Y-54578000D01*
X62411000Y-49736000D02*
X62411000Y-51110000D01*
X62411000Y-53190000D02*
X62411000Y-54564000D01*
X62451000Y-49752000D02*
X62451000Y-51110000D01*
X62451000Y-53190000D02*
X62451000Y-54548000D01*
X62491000Y-49768000D02*
X62491000Y-51110000D01*
X62491000Y-53190000D02*
X62491000Y-54532000D01*
X62531000Y-49785000D02*
X62531000Y-51110000D01*
X62531000Y-53190000D02*
X62531000Y-54515000D01*
X62571000Y-49802000D02*
X62571000Y-51110000D01*
X62571000Y-53190000D02*
X62571000Y-54498000D01*
X62611000Y-49821000D02*
X62611000Y-51110000D01*
X62611000Y-53190000D02*
X62611000Y-54479000D01*
X62651000Y-49840000D02*
X62651000Y-51110000D01*
X62651000Y-53190000D02*
X62651000Y-54460000D01*
X62691000Y-49860000D02*
X62691000Y-51110000D01*
X62691000Y-53190000D02*
X62691000Y-54440000D01*
X62731000Y-49882000D02*
X62731000Y-51110000D01*
X62731000Y-53190000D02*
X62731000Y-54418000D01*
X62771000Y-49903000D02*
X62771000Y-51110000D01*
X62771000Y-53190000D02*
X62771000Y-54397000D01*
X62811000Y-49926000D02*
X62811000Y-51110000D01*
X62811000Y-53190000D02*
X62811000Y-54374000D01*
X62851000Y-49950000D02*
X62851000Y-51110000D01*
X62851000Y-53190000D02*
X62851000Y-54350000D01*
X62891000Y-49975000D02*
X62891000Y-51110000D01*
X62891000Y-53190000D02*
X62891000Y-54325000D01*
X62931000Y-50001000D02*
X62931000Y-51110000D01*
X62931000Y-53190000D02*
X62931000Y-54299000D01*
X62971000Y-50028000D02*
X62971000Y-51110000D01*
X62971000Y-53190000D02*
X62971000Y-54272000D01*
X63011000Y-50055000D02*
X63011000Y-51110000D01*
X63011000Y-53190000D02*
X63011000Y-54245000D01*
X63051000Y-50085000D02*
X63051000Y-51110000D01*
X63051000Y-53190000D02*
X63051000Y-54215000D01*
X63091000Y-50115000D02*
X63091000Y-51110000D01*
X63091000Y-53190000D02*
X63091000Y-54185000D01*
X63131000Y-50146000D02*
X63131000Y-51110000D01*
X63131000Y-53190000D02*
X63131000Y-54154000D01*
X63171000Y-50179000D02*
X63171000Y-51110000D01*
X63171000Y-53190000D02*
X63171000Y-54121000D01*
X63211000Y-50213000D02*
X63211000Y-51110000D01*
X63211000Y-53190000D02*
X63211000Y-54087000D01*
X63251000Y-50249000D02*
X63251000Y-51110000D01*
X63251000Y-53190000D02*
X63251000Y-54051000D01*
X63291000Y-50286000D02*
X63291000Y-51110000D01*
X63291000Y-53190000D02*
X63291000Y-54014000D01*
X63331000Y-50324000D02*
X63331000Y-51110000D01*
X63331000Y-53190000D02*
X63331000Y-53976000D01*
X63371000Y-50365000D02*
X63371000Y-51110000D01*
X63371000Y-53190000D02*
X63371000Y-53935000D01*
X63411000Y-50407000D02*
X63411000Y-51110000D01*
X63411000Y-53190000D02*
X63411000Y-53893000D01*
X63451000Y-50451000D02*
X63451000Y-51110000D01*
X63451000Y-53190000D02*
X63451000Y-53849000D01*
X63491000Y-50497000D02*
X63491000Y-51110000D01*
X63491000Y-53190000D02*
X63491000Y-53803000D01*
X63531000Y-50545000D02*
X63531000Y-51110000D01*
X63531000Y-53190000D02*
X63531000Y-53755000D01*
X63571000Y-50596000D02*
X63571000Y-51110000D01*
X63571000Y-53190000D02*
X63571000Y-53704000D01*
X63611000Y-50650000D02*
X63611000Y-51110000D01*
X63611000Y-53190000D02*
X63611000Y-53650000D01*
X63651000Y-50707000D02*
X63651000Y-51110000D01*
X63651000Y-53190000D02*
X63651000Y-53593000D01*
X63691000Y-50767000D02*
X63691000Y-51110000D01*
X63691000Y-53190000D02*
X63691000Y-53533000D01*
X63731000Y-50831000D02*
X63731000Y-51110000D01*
X63731000Y-53190000D02*
X63731000Y-53469000D01*
X63771000Y-50899000D02*
X63771000Y-51110000D01*
X63771000Y-53190000D02*
X63771000Y-53401000D01*
X63811000Y-50972000D02*
X63811000Y-53328000D01*
X63851000Y-51052000D02*
X63851000Y-53248000D01*
X63891000Y-51139000D02*
X63891000Y-53161000D01*
X63931000Y-51235000D02*
X63931000Y-53065000D01*
X63971000Y-51345000D02*
X63971000Y-52955000D01*
X64011000Y-51473000D02*
X64011000Y-52827000D01*
X64051000Y-51632000D02*
X64051000Y-52668000D01*
X64091000Y-51866000D02*
X64091000Y-52434000D01*
X58685225Y-50675000D02*
X59185225Y-50675000D01*
X58935225Y-50425000D02*
X58935225Y-50925000D01*
%TO.C,C8*%
X58240000Y-33530000D02*
G75*
G03*
X58240000Y-33530000I-2620000J0D01*
G01*
X53040000Y-33530000D02*
X58200000Y-33530000D01*
X53040000Y-33490000D02*
X58200000Y-33490000D01*
X53041000Y-33450000D02*
X58199000Y-33450000D01*
X53042000Y-33410000D02*
X58198000Y-33410000D01*
X53044000Y-33370000D02*
X58196000Y-33370000D01*
X53047000Y-33330000D02*
X58193000Y-33330000D01*
X53051000Y-33290000D02*
X54580000Y-33290000D01*
X56660000Y-33290000D02*
X58189000Y-33290000D01*
X53055000Y-33250000D02*
X54580000Y-33250000D01*
X56660000Y-33250000D02*
X58185000Y-33250000D01*
X53059000Y-33210000D02*
X54580000Y-33210000D01*
X56660000Y-33210000D02*
X58181000Y-33210000D01*
X53064000Y-33170000D02*
X54580000Y-33170000D01*
X56660000Y-33170000D02*
X58176000Y-33170000D01*
X53070000Y-33130000D02*
X54580000Y-33130000D01*
X56660000Y-33130000D02*
X58170000Y-33130000D01*
X53077000Y-33090000D02*
X54580000Y-33090000D01*
X56660000Y-33090000D02*
X58163000Y-33090000D01*
X53084000Y-33050000D02*
X54580000Y-33050000D01*
X56660000Y-33050000D02*
X58156000Y-33050000D01*
X53092000Y-33010000D02*
X54580000Y-33010000D01*
X56660000Y-33010000D02*
X58148000Y-33010000D01*
X53100000Y-32970000D02*
X54580000Y-32970000D01*
X56660000Y-32970000D02*
X58140000Y-32970000D01*
X53109000Y-32930000D02*
X54580000Y-32930000D01*
X56660000Y-32930000D02*
X58131000Y-32930000D01*
X53119000Y-32890000D02*
X54580000Y-32890000D01*
X56660000Y-32890000D02*
X58121000Y-32890000D01*
X53129000Y-32850000D02*
X54580000Y-32850000D01*
X56660000Y-32850000D02*
X58111000Y-32850000D01*
X53140000Y-32809000D02*
X54580000Y-32809000D01*
X56660000Y-32809000D02*
X58100000Y-32809000D01*
X53152000Y-32769000D02*
X54580000Y-32769000D01*
X56660000Y-32769000D02*
X58088000Y-32769000D01*
X53165000Y-32729000D02*
X54580000Y-32729000D01*
X56660000Y-32729000D02*
X58075000Y-32729000D01*
X53178000Y-32689000D02*
X54580000Y-32689000D01*
X56660000Y-32689000D02*
X58062000Y-32689000D01*
X53192000Y-32649000D02*
X54580000Y-32649000D01*
X56660000Y-32649000D02*
X58048000Y-32649000D01*
X53206000Y-32609000D02*
X54580000Y-32609000D01*
X56660000Y-32609000D02*
X58034000Y-32609000D01*
X53222000Y-32569000D02*
X54580000Y-32569000D01*
X56660000Y-32569000D02*
X58018000Y-32569000D01*
X53238000Y-32529000D02*
X54580000Y-32529000D01*
X56660000Y-32529000D02*
X58002000Y-32529000D01*
X53255000Y-32489000D02*
X54580000Y-32489000D01*
X56660000Y-32489000D02*
X57985000Y-32489000D01*
X53272000Y-32449000D02*
X54580000Y-32449000D01*
X56660000Y-32449000D02*
X57968000Y-32449000D01*
X53291000Y-32409000D02*
X54580000Y-32409000D01*
X56660000Y-32409000D02*
X57949000Y-32409000D01*
X53310000Y-32369000D02*
X54580000Y-32369000D01*
X56660000Y-32369000D02*
X57930000Y-32369000D01*
X53330000Y-32329000D02*
X54580000Y-32329000D01*
X56660000Y-32329000D02*
X57910000Y-32329000D01*
X53352000Y-32289000D02*
X54580000Y-32289000D01*
X56660000Y-32289000D02*
X57888000Y-32289000D01*
X53373000Y-32249000D02*
X54580000Y-32249000D01*
X56660000Y-32249000D02*
X57867000Y-32249000D01*
X53396000Y-32209000D02*
X54580000Y-32209000D01*
X56660000Y-32209000D02*
X57844000Y-32209000D01*
X53420000Y-32169000D02*
X54580000Y-32169000D01*
X56660000Y-32169000D02*
X57820000Y-32169000D01*
X53445000Y-32129000D02*
X54580000Y-32129000D01*
X56660000Y-32129000D02*
X57795000Y-32129000D01*
X53471000Y-32089000D02*
X54580000Y-32089000D01*
X56660000Y-32089000D02*
X57769000Y-32089000D01*
X53498000Y-32049000D02*
X54580000Y-32049000D01*
X56660000Y-32049000D02*
X57742000Y-32049000D01*
X53525000Y-32009000D02*
X54580000Y-32009000D01*
X56660000Y-32009000D02*
X57715000Y-32009000D01*
X53555000Y-31969000D02*
X54580000Y-31969000D01*
X56660000Y-31969000D02*
X57685000Y-31969000D01*
X53585000Y-31929000D02*
X54580000Y-31929000D01*
X56660000Y-31929000D02*
X57655000Y-31929000D01*
X53616000Y-31889000D02*
X54580000Y-31889000D01*
X56660000Y-31889000D02*
X57624000Y-31889000D01*
X53649000Y-31849000D02*
X54580000Y-31849000D01*
X56660000Y-31849000D02*
X57591000Y-31849000D01*
X53683000Y-31809000D02*
X54580000Y-31809000D01*
X56660000Y-31809000D02*
X57557000Y-31809000D01*
X53719000Y-31769000D02*
X54580000Y-31769000D01*
X56660000Y-31769000D02*
X57521000Y-31769000D01*
X53756000Y-31729000D02*
X54580000Y-31729000D01*
X56660000Y-31729000D02*
X57484000Y-31729000D01*
X53794000Y-31689000D02*
X54580000Y-31689000D01*
X56660000Y-31689000D02*
X57446000Y-31689000D01*
X53835000Y-31649000D02*
X54580000Y-31649000D01*
X56660000Y-31649000D02*
X57405000Y-31649000D01*
X53877000Y-31609000D02*
X54580000Y-31609000D01*
X56660000Y-31609000D02*
X57363000Y-31609000D01*
X53921000Y-31569000D02*
X54580000Y-31569000D01*
X56660000Y-31569000D02*
X57319000Y-31569000D01*
X53967000Y-31529000D02*
X54580000Y-31529000D01*
X56660000Y-31529000D02*
X57273000Y-31529000D01*
X54015000Y-31489000D02*
X54580000Y-31489000D01*
X56660000Y-31489000D02*
X57225000Y-31489000D01*
X54066000Y-31449000D02*
X54580000Y-31449000D01*
X56660000Y-31449000D02*
X57174000Y-31449000D01*
X54120000Y-31409000D02*
X54580000Y-31409000D01*
X56660000Y-31409000D02*
X57120000Y-31409000D01*
X54177000Y-31369000D02*
X54580000Y-31369000D01*
X56660000Y-31369000D02*
X57063000Y-31369000D01*
X54237000Y-31329000D02*
X54580000Y-31329000D01*
X56660000Y-31329000D02*
X57003000Y-31329000D01*
X54301000Y-31289000D02*
X54580000Y-31289000D01*
X56660000Y-31289000D02*
X56939000Y-31289000D01*
X54369000Y-31249000D02*
X54580000Y-31249000D01*
X56660000Y-31249000D02*
X56871000Y-31249000D01*
X54442000Y-31209000D02*
X56798000Y-31209000D01*
X54522000Y-31169000D02*
X56718000Y-31169000D01*
X54609000Y-31129000D02*
X56631000Y-31129000D01*
X54705000Y-31089000D02*
X56535000Y-31089000D01*
X54815000Y-31049000D02*
X56425000Y-31049000D01*
X54943000Y-31009000D02*
X56297000Y-31009000D01*
X55102000Y-30969000D02*
X56138000Y-30969000D01*
X55336000Y-30929000D02*
X55904000Y-30929000D01*
X54145000Y-36334775D02*
X54145000Y-35834775D01*
X53895000Y-36084775D02*
X54395000Y-36084775D01*
%TO.C,C6*%
X51880000Y-100140000D02*
G75*
G03*
X51880000Y-100140000I-2620000J0D01*
G01*
X51840000Y-100140000D02*
X46680000Y-100140000D01*
X51840000Y-100180000D02*
X46680000Y-100180000D01*
X51839000Y-100220000D02*
X46681000Y-100220000D01*
X51838000Y-100260000D02*
X46682000Y-100260000D01*
X51836000Y-100300000D02*
X46684000Y-100300000D01*
X51833000Y-100340000D02*
X46687000Y-100340000D01*
X51829000Y-100380000D02*
X50300000Y-100380000D01*
X48220000Y-100380000D02*
X46691000Y-100380000D01*
X51825000Y-100420000D02*
X50300000Y-100420000D01*
X48220000Y-100420000D02*
X46695000Y-100420000D01*
X51821000Y-100460000D02*
X50300000Y-100460000D01*
X48220000Y-100460000D02*
X46699000Y-100460000D01*
X51816000Y-100500000D02*
X50300000Y-100500000D01*
X48220000Y-100500000D02*
X46704000Y-100500000D01*
X51810000Y-100540000D02*
X50300000Y-100540000D01*
X48220000Y-100540000D02*
X46710000Y-100540000D01*
X51803000Y-100580000D02*
X50300000Y-100580000D01*
X48220000Y-100580000D02*
X46717000Y-100580000D01*
X51796000Y-100620000D02*
X50300000Y-100620000D01*
X48220000Y-100620000D02*
X46724000Y-100620000D01*
X51788000Y-100660000D02*
X50300000Y-100660000D01*
X48220000Y-100660000D02*
X46732000Y-100660000D01*
X51780000Y-100700000D02*
X50300000Y-100700000D01*
X48220000Y-100700000D02*
X46740000Y-100700000D01*
X51771000Y-100740000D02*
X50300000Y-100740000D01*
X48220000Y-100740000D02*
X46749000Y-100740000D01*
X51761000Y-100780000D02*
X50300000Y-100780000D01*
X48220000Y-100780000D02*
X46759000Y-100780000D01*
X51751000Y-100820000D02*
X50300000Y-100820000D01*
X48220000Y-100820000D02*
X46769000Y-100820000D01*
X51740000Y-100861000D02*
X50300000Y-100861000D01*
X48220000Y-100861000D02*
X46780000Y-100861000D01*
X51728000Y-100901000D02*
X50300000Y-100901000D01*
X48220000Y-100901000D02*
X46792000Y-100901000D01*
X51715000Y-100941000D02*
X50300000Y-100941000D01*
X48220000Y-100941000D02*
X46805000Y-100941000D01*
X51702000Y-100981000D02*
X50300000Y-100981000D01*
X48220000Y-100981000D02*
X46818000Y-100981000D01*
X51688000Y-101021000D02*
X50300000Y-101021000D01*
X48220000Y-101021000D02*
X46832000Y-101021000D01*
X51674000Y-101061000D02*
X50300000Y-101061000D01*
X48220000Y-101061000D02*
X46846000Y-101061000D01*
X51658000Y-101101000D02*
X50300000Y-101101000D01*
X48220000Y-101101000D02*
X46862000Y-101101000D01*
X51642000Y-101141000D02*
X50300000Y-101141000D01*
X48220000Y-101141000D02*
X46878000Y-101141000D01*
X51625000Y-101181000D02*
X50300000Y-101181000D01*
X48220000Y-101181000D02*
X46895000Y-101181000D01*
X51608000Y-101221000D02*
X50300000Y-101221000D01*
X48220000Y-101221000D02*
X46912000Y-101221000D01*
X51589000Y-101261000D02*
X50300000Y-101261000D01*
X48220000Y-101261000D02*
X46931000Y-101261000D01*
X51570000Y-101301000D02*
X50300000Y-101301000D01*
X48220000Y-101301000D02*
X46950000Y-101301000D01*
X51550000Y-101341000D02*
X50300000Y-101341000D01*
X48220000Y-101341000D02*
X46970000Y-101341000D01*
X51528000Y-101381000D02*
X50300000Y-101381000D01*
X48220000Y-101381000D02*
X46992000Y-101381000D01*
X51507000Y-101421000D02*
X50300000Y-101421000D01*
X48220000Y-101421000D02*
X47013000Y-101421000D01*
X51484000Y-101461000D02*
X50300000Y-101461000D01*
X48220000Y-101461000D02*
X47036000Y-101461000D01*
X51460000Y-101501000D02*
X50300000Y-101501000D01*
X48220000Y-101501000D02*
X47060000Y-101501000D01*
X51435000Y-101541000D02*
X50300000Y-101541000D01*
X48220000Y-101541000D02*
X47085000Y-101541000D01*
X51409000Y-101581000D02*
X50300000Y-101581000D01*
X48220000Y-101581000D02*
X47111000Y-101581000D01*
X51382000Y-101621000D02*
X50300000Y-101621000D01*
X48220000Y-101621000D02*
X47138000Y-101621000D01*
X51355000Y-101661000D02*
X50300000Y-101661000D01*
X48220000Y-101661000D02*
X47165000Y-101661000D01*
X51325000Y-101701000D02*
X50300000Y-101701000D01*
X48220000Y-101701000D02*
X47195000Y-101701000D01*
X51295000Y-101741000D02*
X50300000Y-101741000D01*
X48220000Y-101741000D02*
X47225000Y-101741000D01*
X51264000Y-101781000D02*
X50300000Y-101781000D01*
X48220000Y-101781000D02*
X47256000Y-101781000D01*
X51231000Y-101821000D02*
X50300000Y-101821000D01*
X48220000Y-101821000D02*
X47289000Y-101821000D01*
X51197000Y-101861000D02*
X50300000Y-101861000D01*
X48220000Y-101861000D02*
X47323000Y-101861000D01*
X51161000Y-101901000D02*
X50300000Y-101901000D01*
X48220000Y-101901000D02*
X47359000Y-101901000D01*
X51124000Y-101941000D02*
X50300000Y-101941000D01*
X48220000Y-101941000D02*
X47396000Y-101941000D01*
X51086000Y-101981000D02*
X50300000Y-101981000D01*
X48220000Y-101981000D02*
X47434000Y-101981000D01*
X51045000Y-102021000D02*
X50300000Y-102021000D01*
X48220000Y-102021000D02*
X47475000Y-102021000D01*
X51003000Y-102061000D02*
X50300000Y-102061000D01*
X48220000Y-102061000D02*
X47517000Y-102061000D01*
X50959000Y-102101000D02*
X50300000Y-102101000D01*
X48220000Y-102101000D02*
X47561000Y-102101000D01*
X50913000Y-102141000D02*
X50300000Y-102141000D01*
X48220000Y-102141000D02*
X47607000Y-102141000D01*
X50865000Y-102181000D02*
X50300000Y-102181000D01*
X48220000Y-102181000D02*
X47655000Y-102181000D01*
X50814000Y-102221000D02*
X50300000Y-102221000D01*
X48220000Y-102221000D02*
X47706000Y-102221000D01*
X50760000Y-102261000D02*
X50300000Y-102261000D01*
X48220000Y-102261000D02*
X47760000Y-102261000D01*
X50703000Y-102301000D02*
X50300000Y-102301000D01*
X48220000Y-102301000D02*
X47817000Y-102301000D01*
X50643000Y-102341000D02*
X50300000Y-102341000D01*
X48220000Y-102341000D02*
X47877000Y-102341000D01*
X50579000Y-102381000D02*
X50300000Y-102381000D01*
X48220000Y-102381000D02*
X47941000Y-102381000D01*
X50511000Y-102421000D02*
X50300000Y-102421000D01*
X48220000Y-102421000D02*
X48009000Y-102421000D01*
X50438000Y-102461000D02*
X48082000Y-102461000D01*
X50358000Y-102501000D02*
X48162000Y-102501000D01*
X50271000Y-102541000D02*
X48249000Y-102541000D01*
X50175000Y-102581000D02*
X48345000Y-102581000D01*
X50065000Y-102621000D02*
X48455000Y-102621000D01*
X49937000Y-102661000D02*
X48583000Y-102661000D01*
X49778000Y-102701000D02*
X48742000Y-102701000D01*
X49544000Y-102741000D02*
X48976000Y-102741000D01*
X50735000Y-97335225D02*
X50735000Y-97835225D01*
X50985000Y-97585225D02*
X50485000Y-97585225D01*
%TO.C,C2*%
X62750000Y-80780000D02*
G75*
G03*
X62750000Y-80780000I-2620000J0D01*
G01*
X60130000Y-78200000D02*
X60130000Y-83360000D01*
X60170000Y-78200000D02*
X60170000Y-83360000D01*
X60210000Y-78201000D02*
X60210000Y-83359000D01*
X60250000Y-78202000D02*
X60250000Y-83358000D01*
X60290000Y-78204000D02*
X60290000Y-83356000D01*
X60330000Y-78207000D02*
X60330000Y-83353000D01*
X60370000Y-78211000D02*
X60370000Y-79740000D01*
X60370000Y-81820000D02*
X60370000Y-83349000D01*
X60410000Y-78215000D02*
X60410000Y-79740000D01*
X60410000Y-81820000D02*
X60410000Y-83345000D01*
X60450000Y-78219000D02*
X60450000Y-79740000D01*
X60450000Y-81820000D02*
X60450000Y-83341000D01*
X60490000Y-78224000D02*
X60490000Y-79740000D01*
X60490000Y-81820000D02*
X60490000Y-83336000D01*
X60530000Y-78230000D02*
X60530000Y-79740000D01*
X60530000Y-81820000D02*
X60530000Y-83330000D01*
X60570000Y-78237000D02*
X60570000Y-79740000D01*
X60570000Y-81820000D02*
X60570000Y-83323000D01*
X60610000Y-78244000D02*
X60610000Y-79740000D01*
X60610000Y-81820000D02*
X60610000Y-83316000D01*
X60650000Y-78252000D02*
X60650000Y-79740000D01*
X60650000Y-81820000D02*
X60650000Y-83308000D01*
X60690000Y-78260000D02*
X60690000Y-79740000D01*
X60690000Y-81820000D02*
X60690000Y-83300000D01*
X60730000Y-78269000D02*
X60730000Y-79740000D01*
X60730000Y-81820000D02*
X60730000Y-83291000D01*
X60770000Y-78279000D02*
X60770000Y-79740000D01*
X60770000Y-81820000D02*
X60770000Y-83281000D01*
X60810000Y-78289000D02*
X60810000Y-79740000D01*
X60810000Y-81820000D02*
X60810000Y-83271000D01*
X60851000Y-78300000D02*
X60851000Y-79740000D01*
X60851000Y-81820000D02*
X60851000Y-83260000D01*
X60891000Y-78312000D02*
X60891000Y-79740000D01*
X60891000Y-81820000D02*
X60891000Y-83248000D01*
X60931000Y-78325000D02*
X60931000Y-79740000D01*
X60931000Y-81820000D02*
X60931000Y-83235000D01*
X60971000Y-78338000D02*
X60971000Y-79740000D01*
X60971000Y-81820000D02*
X60971000Y-83222000D01*
X61011000Y-78352000D02*
X61011000Y-79740000D01*
X61011000Y-81820000D02*
X61011000Y-83208000D01*
X61051000Y-78366000D02*
X61051000Y-79740000D01*
X61051000Y-81820000D02*
X61051000Y-83194000D01*
X61091000Y-78382000D02*
X61091000Y-79740000D01*
X61091000Y-81820000D02*
X61091000Y-83178000D01*
X61131000Y-78398000D02*
X61131000Y-79740000D01*
X61131000Y-81820000D02*
X61131000Y-83162000D01*
X61171000Y-78415000D02*
X61171000Y-79740000D01*
X61171000Y-81820000D02*
X61171000Y-83145000D01*
X61211000Y-78432000D02*
X61211000Y-79740000D01*
X61211000Y-81820000D02*
X61211000Y-83128000D01*
X61251000Y-78451000D02*
X61251000Y-79740000D01*
X61251000Y-81820000D02*
X61251000Y-83109000D01*
X61291000Y-78470000D02*
X61291000Y-79740000D01*
X61291000Y-81820000D02*
X61291000Y-83090000D01*
X61331000Y-78490000D02*
X61331000Y-79740000D01*
X61331000Y-81820000D02*
X61331000Y-83070000D01*
X61371000Y-78512000D02*
X61371000Y-79740000D01*
X61371000Y-81820000D02*
X61371000Y-83048000D01*
X61411000Y-78533000D02*
X61411000Y-79740000D01*
X61411000Y-81820000D02*
X61411000Y-83027000D01*
X61451000Y-78556000D02*
X61451000Y-79740000D01*
X61451000Y-81820000D02*
X61451000Y-83004000D01*
X61491000Y-78580000D02*
X61491000Y-79740000D01*
X61491000Y-81820000D02*
X61491000Y-82980000D01*
X61531000Y-78605000D02*
X61531000Y-79740000D01*
X61531000Y-81820000D02*
X61531000Y-82955000D01*
X61571000Y-78631000D02*
X61571000Y-79740000D01*
X61571000Y-81820000D02*
X61571000Y-82929000D01*
X61611000Y-78658000D02*
X61611000Y-79740000D01*
X61611000Y-81820000D02*
X61611000Y-82902000D01*
X61651000Y-78685000D02*
X61651000Y-79740000D01*
X61651000Y-81820000D02*
X61651000Y-82875000D01*
X61691000Y-78715000D02*
X61691000Y-79740000D01*
X61691000Y-81820000D02*
X61691000Y-82845000D01*
X61731000Y-78745000D02*
X61731000Y-79740000D01*
X61731000Y-81820000D02*
X61731000Y-82815000D01*
X61771000Y-78776000D02*
X61771000Y-79740000D01*
X61771000Y-81820000D02*
X61771000Y-82784000D01*
X61811000Y-78809000D02*
X61811000Y-79740000D01*
X61811000Y-81820000D02*
X61811000Y-82751000D01*
X61851000Y-78843000D02*
X61851000Y-79740000D01*
X61851000Y-81820000D02*
X61851000Y-82717000D01*
X61891000Y-78879000D02*
X61891000Y-79740000D01*
X61891000Y-81820000D02*
X61891000Y-82681000D01*
X61931000Y-78916000D02*
X61931000Y-79740000D01*
X61931000Y-81820000D02*
X61931000Y-82644000D01*
X61971000Y-78954000D02*
X61971000Y-79740000D01*
X61971000Y-81820000D02*
X61971000Y-82606000D01*
X62011000Y-78995000D02*
X62011000Y-79740000D01*
X62011000Y-81820000D02*
X62011000Y-82565000D01*
X62051000Y-79037000D02*
X62051000Y-79740000D01*
X62051000Y-81820000D02*
X62051000Y-82523000D01*
X62091000Y-79081000D02*
X62091000Y-79740000D01*
X62091000Y-81820000D02*
X62091000Y-82479000D01*
X62131000Y-79127000D02*
X62131000Y-79740000D01*
X62131000Y-81820000D02*
X62131000Y-82433000D01*
X62171000Y-79175000D02*
X62171000Y-79740000D01*
X62171000Y-81820000D02*
X62171000Y-82385000D01*
X62211000Y-79226000D02*
X62211000Y-79740000D01*
X62211000Y-81820000D02*
X62211000Y-82334000D01*
X62251000Y-79280000D02*
X62251000Y-79740000D01*
X62251000Y-81820000D02*
X62251000Y-82280000D01*
X62291000Y-79337000D02*
X62291000Y-79740000D01*
X62291000Y-81820000D02*
X62291000Y-82223000D01*
X62331000Y-79397000D02*
X62331000Y-79740000D01*
X62331000Y-81820000D02*
X62331000Y-82163000D01*
X62371000Y-79461000D02*
X62371000Y-79740000D01*
X62371000Y-81820000D02*
X62371000Y-82099000D01*
X62411000Y-79529000D02*
X62411000Y-79740000D01*
X62411000Y-81820000D02*
X62411000Y-82031000D01*
X62451000Y-79602000D02*
X62451000Y-81958000D01*
X62491000Y-79682000D02*
X62491000Y-81878000D01*
X62531000Y-79769000D02*
X62531000Y-81791000D01*
X62571000Y-79865000D02*
X62571000Y-81695000D01*
X62611000Y-79975000D02*
X62611000Y-81585000D01*
X62651000Y-80103000D02*
X62651000Y-81457000D01*
X62691000Y-80262000D02*
X62691000Y-81298000D01*
X62731000Y-80496000D02*
X62731000Y-81064000D01*
X57325225Y-79305000D02*
X57825225Y-79305000D01*
X57575225Y-79055000D02*
X57575225Y-79555000D01*
%TO.C,J13*%
X36610000Y-37790000D02*
G75*
G03*
X36610000Y-37790000I-1680000J0D01*
G01*
X36610000Y-42790000D02*
G75*
G03*
X36610000Y-42790000I-1680000J0D01*
G01*
X36610000Y-47790000D02*
G75*
G03*
X36610000Y-47790000I-1680000J0D01*
G01*
X36610000Y-52790000D02*
G75*
G03*
X36610000Y-52790000I-1680000J0D01*
G01*
X36610000Y-57790000D02*
G75*
G03*
X36610000Y-57790000I-1680000J0D01*
G01*
X36610000Y-62790000D02*
G75*
G03*
X36610000Y-62790000I-1680000J0D01*
G01*
X30830000Y-30230000D02*
X30830000Y-65350000D01*
X32330000Y-30230000D02*
X32330000Y-65350000D01*
X37231000Y-30230000D02*
X37231000Y-65350000D01*
X40191000Y-30230000D02*
X40191000Y-65350000D01*
X30270000Y-30230000D02*
X30270000Y-65350000D01*
X40191000Y-30230000D02*
X30270000Y-30230000D01*
X40191000Y-65350000D02*
X30270000Y-65350000D01*
X35999000Y-39065000D02*
X35953000Y-39018000D01*
X33691000Y-36756000D02*
X33656000Y-36721000D01*
X36205000Y-38860000D02*
X36169000Y-38825000D01*
X33907000Y-36563000D02*
X33861000Y-36516000D01*
X35999000Y-44065000D02*
X35953000Y-44018000D01*
X33691000Y-41756000D02*
X33656000Y-41721000D01*
X36205000Y-43860000D02*
X36169000Y-43825000D01*
X33907000Y-41563000D02*
X33861000Y-41516000D01*
X35999000Y-49065000D02*
X35953000Y-49018000D01*
X33691000Y-46756000D02*
X33656000Y-46721000D01*
X36205000Y-48860000D02*
X36169000Y-48825000D01*
X33907000Y-46563000D02*
X33861000Y-46516000D01*
X35999000Y-54065000D02*
X35953000Y-54018000D01*
X33691000Y-51756000D02*
X33656000Y-51721000D01*
X36205000Y-53860000D02*
X36169000Y-53825000D01*
X33907000Y-51563000D02*
X33861000Y-51516000D01*
X35999000Y-59065000D02*
X35953000Y-59018000D01*
X33691000Y-56756000D02*
X33656000Y-56721000D01*
X36205000Y-58860000D02*
X36169000Y-58825000D01*
X33907000Y-56563000D02*
X33861000Y-56516000D01*
X35999000Y-64065000D02*
X35953000Y-64018000D01*
X33691000Y-61756000D02*
X33656000Y-61721000D01*
X36205000Y-63860000D02*
X36169000Y-63825000D01*
X33907000Y-61563000D02*
X33861000Y-61516000D01*
X30770000Y-29990000D02*
X30030000Y-29990000D01*
X30030000Y-29990000D02*
X30030000Y-30490000D01*
X33249747Y-32818805D02*
G75*
G02*
X33395000Y-32106000I1680253J28805D01*
G01*
X34246958Y-31254574D02*
G75*
G02*
X35614000Y-31255000I683042J-1535426D01*
G01*
X36465426Y-32106958D02*
G75*
G02*
X36465000Y-33474000I-1535426J-683042D01*
G01*
X35613042Y-34325426D02*
G75*
G02*
X34246000Y-34325000I-683042J1535426D01*
G01*
X33395244Y-33473318D02*
G75*
G02*
X33250000Y-32790000I1534756J683318D01*
G01*
%TO.C,J14*%
X30030000Y-67320000D02*
X30030000Y-67820000D01*
X30770000Y-67320000D02*
X30030000Y-67320000D01*
X33907000Y-98893000D02*
X33861000Y-98846000D01*
X36205000Y-101190000D02*
X36169000Y-101155000D01*
X33691000Y-99086000D02*
X33656000Y-99051000D01*
X35999000Y-101395000D02*
X35953000Y-101348000D01*
X33907000Y-93893000D02*
X33861000Y-93846000D01*
X36205000Y-96190000D02*
X36169000Y-96155000D01*
X33691000Y-94086000D02*
X33656000Y-94051000D01*
X35999000Y-96395000D02*
X35953000Y-96348000D01*
X33907000Y-88893000D02*
X33861000Y-88846000D01*
X36205000Y-91190000D02*
X36169000Y-91155000D01*
X33691000Y-89086000D02*
X33656000Y-89051000D01*
X35999000Y-91395000D02*
X35953000Y-91348000D01*
X33907000Y-83893000D02*
X33861000Y-83846000D01*
X36205000Y-86190000D02*
X36169000Y-86155000D01*
X33691000Y-84086000D02*
X33656000Y-84051000D01*
X35999000Y-86395000D02*
X35953000Y-86348000D01*
X33907000Y-78893000D02*
X33861000Y-78846000D01*
X36205000Y-81190000D02*
X36169000Y-81155000D01*
X33691000Y-79086000D02*
X33656000Y-79051000D01*
X35999000Y-81395000D02*
X35953000Y-81348000D01*
X33907000Y-73893000D02*
X33861000Y-73846000D01*
X36205000Y-76190000D02*
X36169000Y-76155000D01*
X33691000Y-74086000D02*
X33656000Y-74051000D01*
X35999000Y-76395000D02*
X35953000Y-76348000D01*
X40191000Y-102680000D02*
X30270000Y-102680000D01*
X40191000Y-67560000D02*
X30270000Y-67560000D01*
X30270000Y-67560000D02*
X30270000Y-102680000D01*
X40191000Y-67560000D02*
X40191000Y-102680000D01*
X37231000Y-67560000D02*
X37231000Y-102680000D01*
X32330000Y-67560000D02*
X32330000Y-102680000D01*
X30830000Y-67560000D02*
X30830000Y-102680000D01*
X36610000Y-100120000D02*
G75*
G03*
X36610000Y-100120000I-1680000J0D01*
G01*
X36610000Y-95120000D02*
G75*
G03*
X36610000Y-95120000I-1680000J0D01*
G01*
X36610000Y-90120000D02*
G75*
G03*
X36610000Y-90120000I-1680000J0D01*
G01*
X36610000Y-85120000D02*
G75*
G03*
X36610000Y-85120000I-1680000J0D01*
G01*
X36610000Y-80120000D02*
G75*
G03*
X36610000Y-80120000I-1680000J0D01*
G01*
X36610000Y-75120000D02*
G75*
G03*
X36610000Y-75120000I-1680000J0D01*
G01*
X33395244Y-70803318D02*
G75*
G02*
X33250000Y-70120000I1534756J683318D01*
G01*
X35613042Y-71655426D02*
G75*
G02*
X34246000Y-71655000I-683042J1535426D01*
G01*
X36465426Y-69436958D02*
G75*
G02*
X36465000Y-70804000I-1535426J-683042D01*
G01*
X34246958Y-68584574D02*
G75*
G02*
X35614000Y-68585000I683042J-1535426D01*
G01*
X33249747Y-70148805D02*
G75*
G02*
X33395000Y-69436000I1680253J28805D01*
G01*
%TO.C,J15*%
X71800000Y-95230000D02*
G75*
G03*
X71800000Y-95230000I-1680000J0D01*
G01*
X71800000Y-90230000D02*
G75*
G03*
X71800000Y-90230000I-1680000J0D01*
G01*
X71800000Y-85230000D02*
G75*
G03*
X71800000Y-85230000I-1680000J0D01*
G01*
X71800000Y-80230000D02*
G75*
G03*
X71800000Y-80230000I-1680000J0D01*
G01*
X71800000Y-75230000D02*
G75*
G03*
X71800000Y-75230000I-1680000J0D01*
G01*
X71800000Y-70230000D02*
G75*
G03*
X71800000Y-70230000I-1680000J0D01*
G01*
X74220000Y-102790000D02*
X74220000Y-67670000D01*
X72720000Y-102790000D02*
X72720000Y-67670000D01*
X67819000Y-102790000D02*
X67819000Y-67670000D01*
X64859000Y-102790000D02*
X64859000Y-67670000D01*
X74780000Y-102790000D02*
X74780000Y-67670000D01*
X64859000Y-102790000D02*
X74780000Y-102790000D01*
X64859000Y-67670000D02*
X74780000Y-67670000D01*
X69051000Y-93955000D02*
X69097000Y-94002000D01*
X71359000Y-96264000D02*
X71394000Y-96299000D01*
X68845000Y-94160000D02*
X68881000Y-94195000D01*
X71143000Y-96457000D02*
X71189000Y-96504000D01*
X69051000Y-88955000D02*
X69097000Y-89002000D01*
X71359000Y-91264000D02*
X71394000Y-91299000D01*
X68845000Y-89160000D02*
X68881000Y-89195000D01*
X71143000Y-91457000D02*
X71189000Y-91504000D01*
X69051000Y-83955000D02*
X69097000Y-84002000D01*
X71359000Y-86264000D02*
X71394000Y-86299000D01*
X68845000Y-84160000D02*
X68881000Y-84195000D01*
X71143000Y-86457000D02*
X71189000Y-86504000D01*
X69051000Y-78955000D02*
X69097000Y-79002000D01*
X71359000Y-81264000D02*
X71394000Y-81299000D01*
X68845000Y-79160000D02*
X68881000Y-79195000D01*
X71143000Y-81457000D02*
X71189000Y-81504000D01*
X69051000Y-73955000D02*
X69097000Y-74002000D01*
X71359000Y-76264000D02*
X71394000Y-76299000D01*
X68845000Y-74160000D02*
X68881000Y-74195000D01*
X71143000Y-76457000D02*
X71189000Y-76504000D01*
X69051000Y-68955000D02*
X69097000Y-69002000D01*
X71359000Y-71264000D02*
X71394000Y-71299000D01*
X68845000Y-69160000D02*
X68881000Y-69195000D01*
X71143000Y-71457000D02*
X71189000Y-71504000D01*
X74280000Y-103030000D02*
X75020000Y-103030000D01*
X75020000Y-103030000D02*
X75020000Y-102530000D01*
X71800253Y-100201195D02*
G75*
G02*
X71655000Y-100914000I-1680253J-28805D01*
G01*
X70803042Y-101765426D02*
G75*
G02*
X69436000Y-101765000I-683042J1535426D01*
G01*
X68584574Y-100913042D02*
G75*
G02*
X68585000Y-99546000I1535426J683042D01*
G01*
X69436958Y-98694574D02*
G75*
G02*
X70804000Y-98695000I683042J-1535426D01*
G01*
X71654756Y-99546682D02*
G75*
G02*
X71800000Y-100230000I-1534756J-683318D01*
G01*
%TO.C,J16*%
X75020000Y-65590000D02*
X75020000Y-65090000D01*
X74280000Y-65590000D02*
X75020000Y-65590000D01*
X71143000Y-34017000D02*
X71189000Y-34064000D01*
X68845000Y-31720000D02*
X68881000Y-31755000D01*
X71359000Y-33824000D02*
X71394000Y-33859000D01*
X69051000Y-31515000D02*
X69097000Y-31562000D01*
X71143000Y-39017000D02*
X71189000Y-39064000D01*
X68845000Y-36720000D02*
X68881000Y-36755000D01*
X71359000Y-38824000D02*
X71394000Y-38859000D01*
X69051000Y-36515000D02*
X69097000Y-36562000D01*
X71143000Y-44017000D02*
X71189000Y-44064000D01*
X68845000Y-41720000D02*
X68881000Y-41755000D01*
X71359000Y-43824000D02*
X71394000Y-43859000D01*
X69051000Y-41515000D02*
X69097000Y-41562000D01*
X71143000Y-49017000D02*
X71189000Y-49064000D01*
X68845000Y-46720000D02*
X68881000Y-46755000D01*
X71359000Y-48824000D02*
X71394000Y-48859000D01*
X69051000Y-46515000D02*
X69097000Y-46562000D01*
X71143000Y-54017000D02*
X71189000Y-54064000D01*
X68845000Y-51720000D02*
X68881000Y-51755000D01*
X71359000Y-53824000D02*
X71394000Y-53859000D01*
X69051000Y-51515000D02*
X69097000Y-51562000D01*
X71143000Y-59017000D02*
X71189000Y-59064000D01*
X68845000Y-56720000D02*
X68881000Y-56755000D01*
X71359000Y-58824000D02*
X71394000Y-58859000D01*
X69051000Y-56515000D02*
X69097000Y-56562000D01*
X64859000Y-30230000D02*
X74780000Y-30230000D01*
X64859000Y-65350000D02*
X74780000Y-65350000D01*
X74780000Y-65350000D02*
X74780000Y-30230000D01*
X64859000Y-65350000D02*
X64859000Y-30230000D01*
X67819000Y-65350000D02*
X67819000Y-30230000D01*
X72720000Y-65350000D02*
X72720000Y-30230000D01*
X74220000Y-65350000D02*
X74220000Y-30230000D01*
X71800000Y-32790000D02*
G75*
G03*
X71800000Y-32790000I-1680000J0D01*
G01*
X71800000Y-37790000D02*
G75*
G03*
X71800000Y-37790000I-1680000J0D01*
G01*
X71800000Y-42790000D02*
G75*
G03*
X71800000Y-42790000I-1680000J0D01*
G01*
X71800000Y-47790000D02*
G75*
G03*
X71800000Y-47790000I-1680000J0D01*
G01*
X71800000Y-52790000D02*
G75*
G03*
X71800000Y-52790000I-1680000J0D01*
G01*
X71800000Y-57790000D02*
G75*
G03*
X71800000Y-57790000I-1680000J0D01*
G01*
X71654756Y-62106682D02*
G75*
G02*
X71800000Y-62790000I-1534756J-683318D01*
G01*
X69436958Y-61254574D02*
G75*
G02*
X70804000Y-61255000I683042J-1535426D01*
G01*
X68584574Y-63473042D02*
G75*
G02*
X68585000Y-62106000I1535426J683042D01*
G01*
X70803042Y-64325426D02*
G75*
G02*
X69436000Y-64325000I-683042J1535426D01*
G01*
X71800253Y-62761195D02*
G75*
G02*
X71655000Y-63474000I-1680253J-28805D01*
G01*
%TO.C,C9*%
X50600000Y-72880000D02*
X50600000Y-78120000D01*
X47860000Y-72880000D02*
X47860000Y-78120000D01*
X50600000Y-72880000D02*
X50285000Y-72880000D01*
X48175000Y-72880000D02*
X47860000Y-72880000D01*
X50600000Y-78120000D02*
X50285000Y-78120000D01*
X48175000Y-78120000D02*
X47860000Y-78120000D01*
%TO.C,C10*%
X56410000Y-72790000D02*
X56410000Y-78030000D01*
X53670000Y-72790000D02*
X53670000Y-78030000D01*
X56410000Y-72790000D02*
X56095000Y-72790000D01*
X53985000Y-72790000D02*
X53670000Y-72790000D01*
X56410000Y-78030000D02*
X56095000Y-78030000D01*
X53985000Y-78030000D02*
X53670000Y-78030000D01*
%TO.C,C11*%
X54190000Y-60320000D02*
X54190000Y-55080000D01*
X56930000Y-60320000D02*
X56930000Y-55080000D01*
X54190000Y-60320000D02*
X54505000Y-60320000D01*
X56615000Y-60320000D02*
X56930000Y-60320000D01*
X54190000Y-55080000D02*
X54505000Y-55080000D01*
X56615000Y-55080000D02*
X56930000Y-55080000D01*
%TO.C,C12*%
X50565000Y-55100000D02*
X50880000Y-55100000D01*
X48140000Y-55100000D02*
X48455000Y-55100000D01*
X50565000Y-60340000D02*
X50880000Y-60340000D01*
X48140000Y-60340000D02*
X48455000Y-60340000D01*
X50880000Y-60340000D02*
X50880000Y-55100000D01*
X48140000Y-60340000D02*
X48140000Y-55100000D01*
%TO.C,C13*%
X46770000Y-74555000D02*
X46770000Y-74870000D01*
X46770000Y-72130000D02*
X46770000Y-72445000D01*
X41530000Y-74555000D02*
X41530000Y-74870000D01*
X41530000Y-72130000D02*
X41530000Y-72445000D01*
X41530000Y-74870000D02*
X46770000Y-74870000D01*
X41530000Y-72130000D02*
X46770000Y-72130000D01*
%TO.C,C14*%
X57380000Y-72215000D02*
X57380000Y-71900000D01*
X57380000Y-74640000D02*
X57380000Y-74325000D01*
X62620000Y-72215000D02*
X62620000Y-71900000D01*
X62620000Y-74640000D02*
X62620000Y-74325000D01*
X62620000Y-71900000D02*
X57380000Y-71900000D01*
X62620000Y-74640000D02*
X57380000Y-74640000D01*
%TO.C,C15*%
X58020000Y-58705000D02*
X58020000Y-58390000D01*
X58020000Y-61130000D02*
X58020000Y-60815000D01*
X63260000Y-58705000D02*
X63260000Y-58390000D01*
X63260000Y-61130000D02*
X63260000Y-60815000D01*
X63260000Y-58390000D02*
X58020000Y-58390000D01*
X63260000Y-61130000D02*
X58020000Y-61130000D01*
%TO.C,C16*%
X46910000Y-61105000D02*
X46910000Y-61420000D01*
X46910000Y-58680000D02*
X46910000Y-58995000D01*
X41670000Y-61105000D02*
X41670000Y-61420000D01*
X41670000Y-58680000D02*
X41670000Y-58995000D01*
X41670000Y-61420000D02*
X46910000Y-61420000D01*
X41670000Y-58680000D02*
X46910000Y-58680000D01*
%TO.C,C18*%
X54360000Y-47440000D02*
X54360000Y-52680000D01*
X51620000Y-47440000D02*
X51620000Y-52680000D01*
X54360000Y-47440000D02*
X54045000Y-47440000D01*
X51935000Y-47440000D02*
X51620000Y-47440000D01*
X54360000Y-52680000D02*
X54045000Y-52680000D01*
X51935000Y-52680000D02*
X51620000Y-52680000D01*
%TO.C,C19*%
X53920000Y-55110000D02*
X53920000Y-60350000D01*
X51180000Y-55110000D02*
X51180000Y-60350000D01*
X53920000Y-55110000D02*
X53605000Y-55110000D01*
X51495000Y-55110000D02*
X51180000Y-55110000D01*
X53920000Y-60350000D02*
X53605000Y-60350000D01*
X51495000Y-60350000D02*
X51180000Y-60350000D01*
%TO.C,C21*%
X50885000Y-85610000D02*
X50570000Y-85610000D01*
X53310000Y-85610000D02*
X52995000Y-85610000D01*
X50885000Y-80370000D02*
X50570000Y-80370000D01*
X53310000Y-80370000D02*
X52995000Y-80370000D01*
X50570000Y-80370000D02*
X50570000Y-85610000D01*
X53310000Y-80370000D02*
X53310000Y-85610000D01*
%TO.C,C22*%
X53570000Y-72860000D02*
X53570000Y-78100000D01*
X50830000Y-72860000D02*
X50830000Y-78100000D01*
X53570000Y-72860000D02*
X53255000Y-72860000D01*
X51145000Y-72860000D02*
X50830000Y-72860000D01*
X53570000Y-78100000D02*
X53255000Y-78100000D01*
X51145000Y-78100000D02*
X50830000Y-78100000D01*
%TO.C,P1*%
X44350000Y-115130000D02*
X43850000Y-114130000D01*
X43350000Y-115130000D02*
X44350000Y-115130000D01*
X43850000Y-114130000D02*
X43350000Y-115130000D01*
X54790000Y-112430000D02*
X54790000Y-113740000D01*
X54790000Y-112430000D02*
X54790000Y-112430000D01*
X65540000Y-112430000D02*
X54790000Y-112430000D01*
X65540000Y-105930000D02*
X65540000Y-112430000D01*
X39940000Y-105930000D02*
X65540000Y-105930000D01*
X39940000Y-112430000D02*
X39940000Y-105930000D01*
X50690000Y-112430000D02*
X39940000Y-112430000D01*
X50690000Y-113740000D02*
X50690000Y-112430000D01*
X66840000Y-113740000D02*
X38640000Y-113740000D01*
X66840000Y-104620000D02*
X66840000Y-113740000D01*
X38640000Y-104620000D02*
X66840000Y-104620000D01*
X38640000Y-113740000D02*
X38640000Y-104620000D01*
%TO.C,R1*%
X44040000Y-32850000D02*
G75*
G03*
X44040000Y-32850000I-1370000J0D01*
G01*
X42670000Y-34220000D02*
X42670000Y-34290000D01*
%TO.C,R2*%
X43580000Y-100710000D02*
G75*
G03*
X43580000Y-100710000I-1370000J0D01*
G01*
X42210000Y-99340000D02*
X42210000Y-99270000D01*
%TO.C,R3*%
X63420000Y-100570000D02*
G75*
G03*
X63420000Y-100570000I-1370000J0D01*
G01*
X62050000Y-99200000D02*
X62050000Y-99130000D01*
%TO.C,R4*%
X62890000Y-34290000D02*
X62890000Y-34360000D01*
X64260000Y-32920000D02*
G75*
G03*
X64260000Y-32920000I-1370000J0D01*
G01*
%TO.C,R5*%
X45790000Y-33560000D02*
X45790000Y-33490000D01*
X47160000Y-34930000D02*
G75*
G03*
X47160000Y-34930000I-1370000J0D01*
G01*
%TO.C,R6*%
X45240000Y-99990000D02*
X45240000Y-100060000D01*
X46610000Y-98620000D02*
G75*
G03*
X46610000Y-98620000I-1370000J0D01*
G01*
%TO.C,R7*%
X59030000Y-99880000D02*
X59030000Y-99950000D01*
X60400000Y-98510000D02*
G75*
G03*
X60400000Y-98510000I-1370000J0D01*
G01*
%TO.C,R8*%
X61240000Y-35010000D02*
G75*
G03*
X61240000Y-35010000I-1370000J0D01*
G01*
X59870000Y-33640000D02*
X59870000Y-33570000D01*
%TO.C,R9*%
X49900000Y-80880000D02*
G75*
G03*
X49900000Y-80880000I-1370000J0D01*
G01*
X48530000Y-82250000D02*
X48530000Y-82320000D01*
%TO.C,R10*%
X57150000Y-80850000D02*
G75*
G03*
X57150000Y-80850000I-1370000J0D01*
G01*
X55780000Y-82220000D02*
X55780000Y-82290000D01*
%TO.C,R11*%
X58500000Y-52190000D02*
G75*
G03*
X58500000Y-52190000I-1370000J0D01*
G01*
X57130000Y-50820000D02*
X57130000Y-50750000D01*
%TO.C,R12*%
X49520000Y-50950000D02*
X49520000Y-50880000D01*
X50890000Y-52320000D02*
G75*
G03*
X50890000Y-52320000I-1370000J0D01*
G01*
%TO.C,R13*%
X44610000Y-76630000D02*
X44540000Y-76630000D01*
X47350000Y-76630000D02*
G75*
G03*
X47350000Y-76630000I-1370000J0D01*
G01*
%TO.C,R14*%
X59350000Y-76390000D02*
X59420000Y-76390000D01*
X59350000Y-76390000D02*
G75*
G03*
X59350000Y-76390000I-1370000J0D01*
G01*
%TO.C,R15*%
X59980000Y-56710000D02*
X60050000Y-56710000D01*
X59980000Y-56710000D02*
G75*
G03*
X59980000Y-56710000I-1370000J0D01*
G01*
%TO.C,R16*%
X47700000Y-56970000D02*
G75*
G03*
X47700000Y-56970000I-1370000J0D01*
G01*
X44960000Y-56970000D02*
X44890000Y-56970000D01*
%TO.C,R17*%
X50110000Y-40460000D02*
G75*
G03*
X50110000Y-40460000I-1370000J0D01*
G01*
X48740000Y-39090000D02*
X48740000Y-39020000D01*
%TO.C,R18*%
X48360000Y-94530000D02*
X48360000Y-94600000D01*
X49730000Y-93160000D02*
G75*
G03*
X49730000Y-93160000I-1370000J0D01*
G01*
%TO.C,R19*%
X57370000Y-93160000D02*
G75*
G03*
X57370000Y-93160000I-1370000J0D01*
G01*
X56000000Y-94530000D02*
X56000000Y-94600000D01*
%TO.C,R20*%
X56760000Y-39080000D02*
X56760000Y-39010000D01*
X58130000Y-40450000D02*
G75*
G03*
X58130000Y-40450000I-1370000J0D01*
G01*
%TO.C,R21*%
X45710000Y-39080000D02*
X45710000Y-39010000D01*
X47080000Y-40450000D02*
G75*
G03*
X47080000Y-40450000I-1370000J0D01*
G01*
%TO.C,R22*%
X46650000Y-93160000D02*
G75*
G03*
X46650000Y-93160000I-1370000J0D01*
G01*
X45280000Y-94530000D02*
X45280000Y-94600000D01*
%TO.C,R23*%
X59040000Y-94530000D02*
X59040000Y-94600000D01*
X60410000Y-93160000D02*
G75*
G03*
X60410000Y-93160000I-1370000J0D01*
G01*
%TO.C,R24*%
X61180000Y-40460000D02*
G75*
G03*
X61180000Y-40460000I-1370000J0D01*
G01*
X59810000Y-39090000D02*
X59810000Y-39020000D01*
%TO.C,R25*%
X44030000Y-40440000D02*
G75*
G03*
X44030000Y-40440000I-1370000J0D01*
G01*
X42660000Y-39070000D02*
X42660000Y-39000000D01*
%TO.C,R26*%
X43600000Y-93150000D02*
G75*
G03*
X43600000Y-93150000I-1370000J0D01*
G01*
X42230000Y-94520000D02*
X42230000Y-94590000D01*
%TO.C,R27*%
X62090000Y-94530000D02*
X62090000Y-94600000D01*
X63460000Y-93160000D02*
G75*
G03*
X63460000Y-93160000I-1370000J0D01*
G01*
%TO.C,R28*%
X62860000Y-39090000D02*
X62860000Y-39020000D01*
X64230000Y-40460000D02*
G75*
G03*
X64230000Y-40460000I-1370000J0D01*
G01*
%TO.C,R29*%
X35830000Y-111060000D02*
G75*
G03*
X35830000Y-111060000I-1370000J0D01*
G01*
X35830000Y-111060000D02*
X35900000Y-111060000D01*
%TO.C,R30*%
X69740000Y-111560000D02*
X69670000Y-111560000D01*
X72480000Y-111560000D02*
G75*
G03*
X72480000Y-111560000I-1370000J0D01*
G01*
%TO.C,U1*%
X43990000Y-63850000D02*
X43990000Y-65500000D01*
X61890000Y-63850000D02*
X43990000Y-63850000D01*
X61890000Y-69150000D02*
X61890000Y-63850000D01*
X43990000Y-69150000D02*
X61890000Y-69150000D01*
X43990000Y-67500000D02*
X43990000Y-69150000D01*
X43990000Y-65500000D02*
G75*
G02*
X43990000Y-67500000I0J-1000000D01*
G01*
%TO.C,C17*%
D10*
X32280000Y-107080000D02*
X32313333Y-107113333D01*
X32346666Y-107213333D01*
X32346666Y-107280000D01*
X32313333Y-107380000D01*
X32246666Y-107446666D01*
X32180000Y-107480000D01*
X32046666Y-107513333D01*
X31946666Y-107513333D01*
X31813333Y-107480000D01*
X31746666Y-107446666D01*
X31680000Y-107380000D01*
X31646666Y-107280000D01*
X31646666Y-107213333D01*
X31680000Y-107113333D01*
X31713333Y-107080000D01*
X32346666Y-106413333D02*
X32346666Y-106813333D01*
X32346666Y-106613333D02*
X31646666Y-106613333D01*
X31746666Y-106680000D01*
X31813333Y-106746666D01*
X31846666Y-106813333D01*
X31646666Y-106180000D02*
X31646666Y-105713333D01*
X32346666Y-106013333D01*
%TO.C,C4*%
X46443333Y-49240000D02*
X46410000Y-49273333D01*
X46310000Y-49306666D01*
X46243333Y-49306666D01*
X46143333Y-49273333D01*
X46076666Y-49206666D01*
X46043333Y-49140000D01*
X46010000Y-49006666D01*
X46010000Y-48906666D01*
X46043333Y-48773333D01*
X46076666Y-48706666D01*
X46143333Y-48640000D01*
X46243333Y-48606666D01*
X46310000Y-48606666D01*
X46410000Y-48640000D01*
X46443333Y-48673333D01*
X47043333Y-48840000D02*
X47043333Y-49306666D01*
X46876666Y-48573333D02*
X46710000Y-49073333D01*
X47143333Y-49073333D01*
%TO.C,C7*%
X55693333Y-103550000D02*
X55660000Y-103583333D01*
X55560000Y-103616666D01*
X55493333Y-103616666D01*
X55393333Y-103583333D01*
X55326666Y-103516666D01*
X55293333Y-103450000D01*
X55260000Y-103316666D01*
X55260000Y-103216666D01*
X55293333Y-103083333D01*
X55326666Y-103016666D01*
X55393333Y-102950000D01*
X55493333Y-102916666D01*
X55560000Y-102916666D01*
X55660000Y-102950000D01*
X55693333Y-102983333D01*
X55926666Y-102916666D02*
X56393333Y-102916666D01*
X56093333Y-103616666D01*
%TO.C,C5*%
X52470000Y-31016666D02*
X52503333Y-31050000D01*
X52536666Y-31150000D01*
X52536666Y-31216666D01*
X52503333Y-31316666D01*
X52436666Y-31383333D01*
X52370000Y-31416666D01*
X52236666Y-31450000D01*
X52136666Y-31450000D01*
X52003333Y-31416666D01*
X51936666Y-31383333D01*
X51870000Y-31316666D01*
X51836666Y-31216666D01*
X51836666Y-31150000D01*
X51870000Y-31050000D01*
X51903333Y-31016666D01*
X51836666Y-30383333D02*
X51836666Y-30716666D01*
X52170000Y-30750000D01*
X52136666Y-30716666D01*
X52103333Y-30650000D01*
X52103333Y-30483333D01*
X52136666Y-30416666D01*
X52170000Y-30383333D01*
X52236666Y-30350000D01*
X52403333Y-30350000D01*
X52470000Y-30383333D01*
X52503333Y-30416666D01*
X52536666Y-30483333D01*
X52536666Y-30650000D01*
X52503333Y-30716666D01*
X52470000Y-30750000D01*
%TO.C,C1*%
X42303333Y-84300000D02*
X42270000Y-84333333D01*
X42170000Y-84366666D01*
X42103333Y-84366666D01*
X42003333Y-84333333D01*
X41936666Y-84266666D01*
X41903333Y-84200000D01*
X41870000Y-84066666D01*
X41870000Y-83966666D01*
X41903333Y-83833333D01*
X41936666Y-83766666D01*
X42003333Y-83700000D01*
X42103333Y-83666666D01*
X42170000Y-83666666D01*
X42270000Y-83700000D01*
X42303333Y-83733333D01*
X42970000Y-84366666D02*
X42570000Y-84366666D01*
X42770000Y-84366666D02*
X42770000Y-83666666D01*
X42703333Y-83766666D01*
X42636666Y-83833333D01*
X42570000Y-83866666D01*
%TO.C,C20*%
X74010000Y-107570000D02*
X74043333Y-107603333D01*
X74076666Y-107703333D01*
X74076666Y-107770000D01*
X74043333Y-107870000D01*
X73976666Y-107936666D01*
X73910000Y-107970000D01*
X73776666Y-108003333D01*
X73676666Y-108003333D01*
X73543333Y-107970000D01*
X73476666Y-107936666D01*
X73410000Y-107870000D01*
X73376666Y-107770000D01*
X73376666Y-107703333D01*
X73410000Y-107603333D01*
X73443333Y-107570000D01*
X73443333Y-107303333D02*
X73410000Y-107270000D01*
X73376666Y-107203333D01*
X73376666Y-107036666D01*
X73410000Y-106970000D01*
X73443333Y-106936666D01*
X73510000Y-106903333D01*
X73576666Y-106903333D01*
X73676666Y-106936666D01*
X74076666Y-107336666D01*
X74076666Y-106903333D01*
X73376666Y-106470000D02*
X73376666Y-106403333D01*
X73410000Y-106336666D01*
X73443333Y-106303333D01*
X73510000Y-106270000D01*
X73643333Y-106236666D01*
X73810000Y-106236666D01*
X73943333Y-106270000D01*
X74010000Y-106303333D01*
X74043333Y-106336666D01*
X74076666Y-106403333D01*
X74076666Y-106470000D01*
X74043333Y-106536666D01*
X74010000Y-106570000D01*
X73943333Y-106603333D01*
X73810000Y-106636666D01*
X73643333Y-106636666D01*
X73510000Y-106603333D01*
X73443333Y-106570000D01*
X73410000Y-106536666D01*
X73376666Y-106470000D01*
%TO.C,C3*%
X62893333Y-49390000D02*
X62860000Y-49423333D01*
X62760000Y-49456666D01*
X62693333Y-49456666D01*
X62593333Y-49423333D01*
X62526666Y-49356666D01*
X62493333Y-49290000D01*
X62460000Y-49156666D01*
X62460000Y-49056666D01*
X62493333Y-48923333D01*
X62526666Y-48856666D01*
X62593333Y-48790000D01*
X62693333Y-48756666D01*
X62760000Y-48756666D01*
X62860000Y-48790000D01*
X62893333Y-48823333D01*
X63126666Y-48756666D02*
X63560000Y-48756666D01*
X63326666Y-49023333D01*
X63426666Y-49023333D01*
X63493333Y-49056666D01*
X63526666Y-49090000D01*
X63560000Y-49156666D01*
X63560000Y-49323333D01*
X63526666Y-49390000D01*
X63493333Y-49423333D01*
X63426666Y-49456666D01*
X63226666Y-49456666D01*
X63160000Y-49423333D01*
X63126666Y-49390000D01*
%TO.C,C8*%
X58080000Y-30946666D02*
X58113333Y-30980000D01*
X58146666Y-31080000D01*
X58146666Y-31146666D01*
X58113333Y-31246666D01*
X58046666Y-31313333D01*
X57980000Y-31346666D01*
X57846666Y-31380000D01*
X57746666Y-31380000D01*
X57613333Y-31346666D01*
X57546666Y-31313333D01*
X57480000Y-31246666D01*
X57446666Y-31146666D01*
X57446666Y-31080000D01*
X57480000Y-30980000D01*
X57513333Y-30946666D01*
X57746666Y-30546666D02*
X57713333Y-30613333D01*
X57680000Y-30646666D01*
X57613333Y-30680000D01*
X57580000Y-30680000D01*
X57513333Y-30646666D01*
X57480000Y-30613333D01*
X57446666Y-30546666D01*
X57446666Y-30413333D01*
X57480000Y-30346666D01*
X57513333Y-30313333D01*
X57580000Y-30280000D01*
X57613333Y-30280000D01*
X57680000Y-30313333D01*
X57713333Y-30346666D01*
X57746666Y-30413333D01*
X57746666Y-30546666D01*
X57780000Y-30613333D01*
X57813333Y-30646666D01*
X57880000Y-30680000D01*
X58013333Y-30680000D01*
X58080000Y-30646666D01*
X58113333Y-30613333D01*
X58146666Y-30546666D01*
X58146666Y-30413333D01*
X58113333Y-30346666D01*
X58080000Y-30313333D01*
X58013333Y-30280000D01*
X57880000Y-30280000D01*
X57813333Y-30313333D01*
X57780000Y-30346666D01*
X57746666Y-30413333D01*
%TO.C,C6*%
X48863333Y-103790000D02*
X48830000Y-103823333D01*
X48730000Y-103856666D01*
X48663333Y-103856666D01*
X48563333Y-103823333D01*
X48496666Y-103756666D01*
X48463333Y-103690000D01*
X48430000Y-103556666D01*
X48430000Y-103456666D01*
X48463333Y-103323333D01*
X48496666Y-103256666D01*
X48563333Y-103190000D01*
X48663333Y-103156666D01*
X48730000Y-103156666D01*
X48830000Y-103190000D01*
X48863333Y-103223333D01*
X49463333Y-103156666D02*
X49330000Y-103156666D01*
X49263333Y-103190000D01*
X49230000Y-103223333D01*
X49163333Y-103323333D01*
X49130000Y-103456666D01*
X49130000Y-103723333D01*
X49163333Y-103790000D01*
X49196666Y-103823333D01*
X49263333Y-103856666D01*
X49396666Y-103856666D01*
X49463333Y-103823333D01*
X49496666Y-103790000D01*
X49530000Y-103723333D01*
X49530000Y-103556666D01*
X49496666Y-103490000D01*
X49463333Y-103456666D01*
X49396666Y-103423333D01*
X49263333Y-103423333D01*
X49196666Y-103456666D01*
X49163333Y-103490000D01*
X49130000Y-103556666D01*
%TO.C,C2*%
X58703333Y-84420000D02*
X58670000Y-84453333D01*
X58570000Y-84486666D01*
X58503333Y-84486666D01*
X58403333Y-84453333D01*
X58336666Y-84386666D01*
X58303333Y-84320000D01*
X58270000Y-84186666D01*
X58270000Y-84086666D01*
X58303333Y-83953333D01*
X58336666Y-83886666D01*
X58403333Y-83820000D01*
X58503333Y-83786666D01*
X58570000Y-83786666D01*
X58670000Y-83820000D01*
X58703333Y-83853333D01*
X58970000Y-83853333D02*
X59003333Y-83820000D01*
X59070000Y-83786666D01*
X59236666Y-83786666D01*
X59303333Y-83820000D01*
X59336666Y-83853333D01*
X59370000Y-83920000D01*
X59370000Y-83986666D01*
X59336666Y-84086666D01*
X58936666Y-84486666D01*
X59370000Y-84486666D01*
%TO.C,J13*%
X40806666Y-48356666D02*
X41306666Y-48356666D01*
X41406666Y-48390000D01*
X41473333Y-48456666D01*
X41506666Y-48556666D01*
X41506666Y-48623333D01*
X41506666Y-47656666D02*
X41506666Y-48056666D01*
X41506666Y-47856666D02*
X40806666Y-47856666D01*
X40906666Y-47923333D01*
X40973333Y-47990000D01*
X41006666Y-48056666D01*
X40806666Y-47423333D02*
X40806666Y-46990000D01*
X41073333Y-47223333D01*
X41073333Y-47123333D01*
X41106666Y-47056666D01*
X41140000Y-47023333D01*
X41206666Y-46990000D01*
X41373333Y-46990000D01*
X41440000Y-47023333D01*
X41473333Y-47056666D01*
X41506666Y-47123333D01*
X41506666Y-47323333D01*
X41473333Y-47390000D01*
X41440000Y-47423333D01*
%TO.C,J14*%
X40806666Y-85686666D02*
X41306666Y-85686666D01*
X41406666Y-85720000D01*
X41473333Y-85786666D01*
X41506666Y-85886666D01*
X41506666Y-85953333D01*
X41506666Y-84986666D02*
X41506666Y-85386666D01*
X41506666Y-85186666D02*
X40806666Y-85186666D01*
X40906666Y-85253333D01*
X40973333Y-85320000D01*
X41006666Y-85386666D01*
X41040000Y-84386666D02*
X41506666Y-84386666D01*
X40773333Y-84553333D02*
X41273333Y-84720000D01*
X41273333Y-84286666D01*
%TO.C,J15*%
X63476666Y-85796666D02*
X63976666Y-85796666D01*
X64076666Y-85830000D01*
X64143333Y-85896666D01*
X64176666Y-85996666D01*
X64176666Y-86063333D01*
X64176666Y-85096666D02*
X64176666Y-85496666D01*
X64176666Y-85296666D02*
X63476666Y-85296666D01*
X63576666Y-85363333D01*
X63643333Y-85430000D01*
X63676666Y-85496666D01*
X63476666Y-84463333D02*
X63476666Y-84796666D01*
X63810000Y-84830000D01*
X63776666Y-84796666D01*
X63743333Y-84730000D01*
X63743333Y-84563333D01*
X63776666Y-84496666D01*
X63810000Y-84463333D01*
X63876666Y-84430000D01*
X64043333Y-84430000D01*
X64110000Y-84463333D01*
X64143333Y-84496666D01*
X64176666Y-84563333D01*
X64176666Y-84730000D01*
X64143333Y-84796666D01*
X64110000Y-84830000D01*
%TO.C,J16*%
X63896666Y-48786666D02*
X64396666Y-48786666D01*
X64496666Y-48820000D01*
X64563333Y-48886666D01*
X64596666Y-48986666D01*
X64596666Y-49053333D01*
X64596666Y-48086666D02*
X64596666Y-48486666D01*
X64596666Y-48286666D02*
X63896666Y-48286666D01*
X63996666Y-48353333D01*
X64063333Y-48420000D01*
X64096666Y-48486666D01*
X63896666Y-47486666D02*
X63896666Y-47620000D01*
X63930000Y-47686666D01*
X63963333Y-47720000D01*
X64063333Y-47786666D01*
X64196666Y-47820000D01*
X64463333Y-47820000D01*
X64530000Y-47786666D01*
X64563333Y-47753333D01*
X64596666Y-47686666D01*
X64596666Y-47553333D01*
X64563333Y-47486666D01*
X64530000Y-47453333D01*
X64463333Y-47420000D01*
X64296666Y-47420000D01*
X64230000Y-47453333D01*
X64196666Y-47486666D01*
X64163333Y-47553333D01*
X64163333Y-47686666D01*
X64196666Y-47753333D01*
X64230000Y-47786666D01*
X64296666Y-47820000D01*
%TO.C,C9*%
X49520000Y-75846666D02*
X49553333Y-75880000D01*
X49586666Y-75980000D01*
X49586666Y-76046666D01*
X49553333Y-76146666D01*
X49486666Y-76213333D01*
X49420000Y-76246666D01*
X49286666Y-76280000D01*
X49186666Y-76280000D01*
X49053333Y-76246666D01*
X48986666Y-76213333D01*
X48920000Y-76146666D01*
X48886666Y-76046666D01*
X48886666Y-75980000D01*
X48920000Y-75880000D01*
X48953333Y-75846666D01*
X49586666Y-75513333D02*
X49586666Y-75380000D01*
X49553333Y-75313333D01*
X49520000Y-75280000D01*
X49420000Y-75213333D01*
X49286666Y-75180000D01*
X49020000Y-75180000D01*
X48953333Y-75213333D01*
X48920000Y-75246666D01*
X48886666Y-75313333D01*
X48886666Y-75446666D01*
X48920000Y-75513333D01*
X48953333Y-75546666D01*
X49020000Y-75580000D01*
X49186666Y-75580000D01*
X49253333Y-75546666D01*
X49286666Y-75513333D01*
X49320000Y-75446666D01*
X49320000Y-75313333D01*
X49286666Y-75246666D01*
X49253333Y-75213333D01*
X49186666Y-75180000D01*
%TO.C,C10*%
X55280000Y-75970000D02*
X55313333Y-76003333D01*
X55346666Y-76103333D01*
X55346666Y-76170000D01*
X55313333Y-76270000D01*
X55246666Y-76336666D01*
X55180000Y-76370000D01*
X55046666Y-76403333D01*
X54946666Y-76403333D01*
X54813333Y-76370000D01*
X54746666Y-76336666D01*
X54680000Y-76270000D01*
X54646666Y-76170000D01*
X54646666Y-76103333D01*
X54680000Y-76003333D01*
X54713333Y-75970000D01*
X55346666Y-75303333D02*
X55346666Y-75703333D01*
X55346666Y-75503333D02*
X54646666Y-75503333D01*
X54746666Y-75570000D01*
X54813333Y-75636666D01*
X54846666Y-75703333D01*
X54646666Y-74870000D02*
X54646666Y-74803333D01*
X54680000Y-74736666D01*
X54713333Y-74703333D01*
X54780000Y-74670000D01*
X54913333Y-74636666D01*
X55080000Y-74636666D01*
X55213333Y-74670000D01*
X55280000Y-74703333D01*
X55313333Y-74736666D01*
X55346666Y-74803333D01*
X55346666Y-74870000D01*
X55313333Y-74936666D01*
X55280000Y-74970000D01*
X55213333Y-75003333D01*
X55080000Y-75036666D01*
X54913333Y-75036666D01*
X54780000Y-75003333D01*
X54713333Y-74970000D01*
X54680000Y-74936666D01*
X54646666Y-74870000D01*
%TO.C,C11*%
X55890000Y-58020000D02*
X55923333Y-58053333D01*
X55956666Y-58153333D01*
X55956666Y-58220000D01*
X55923333Y-58320000D01*
X55856666Y-58386666D01*
X55790000Y-58420000D01*
X55656666Y-58453333D01*
X55556666Y-58453333D01*
X55423333Y-58420000D01*
X55356666Y-58386666D01*
X55290000Y-58320000D01*
X55256666Y-58220000D01*
X55256666Y-58153333D01*
X55290000Y-58053333D01*
X55323333Y-58020000D01*
X55956666Y-57353333D02*
X55956666Y-57753333D01*
X55956666Y-57553333D02*
X55256666Y-57553333D01*
X55356666Y-57620000D01*
X55423333Y-57686666D01*
X55456666Y-57753333D01*
X55956666Y-56686666D02*
X55956666Y-57086666D01*
X55956666Y-56886666D02*
X55256666Y-56886666D01*
X55356666Y-56953333D01*
X55423333Y-57020000D01*
X55456666Y-57086666D01*
%TO.C,C12*%
X49660000Y-58070000D02*
X49693333Y-58103333D01*
X49726666Y-58203333D01*
X49726666Y-58270000D01*
X49693333Y-58370000D01*
X49626666Y-58436666D01*
X49560000Y-58470000D01*
X49426666Y-58503333D01*
X49326666Y-58503333D01*
X49193333Y-58470000D01*
X49126666Y-58436666D01*
X49060000Y-58370000D01*
X49026666Y-58270000D01*
X49026666Y-58203333D01*
X49060000Y-58103333D01*
X49093333Y-58070000D01*
X49726666Y-57403333D02*
X49726666Y-57803333D01*
X49726666Y-57603333D02*
X49026666Y-57603333D01*
X49126666Y-57670000D01*
X49193333Y-57736666D01*
X49226666Y-57803333D01*
X49093333Y-57136666D02*
X49060000Y-57103333D01*
X49026666Y-57036666D01*
X49026666Y-56870000D01*
X49060000Y-56803333D01*
X49093333Y-56770000D01*
X49160000Y-56736666D01*
X49226666Y-56736666D01*
X49326666Y-56770000D01*
X49726666Y-57170000D01*
X49726666Y-56736666D01*
%TO.C,C13*%
X43880000Y-73680000D02*
X43846666Y-73713333D01*
X43746666Y-73746666D01*
X43680000Y-73746666D01*
X43580000Y-73713333D01*
X43513333Y-73646666D01*
X43480000Y-73580000D01*
X43446666Y-73446666D01*
X43446666Y-73346666D01*
X43480000Y-73213333D01*
X43513333Y-73146666D01*
X43580000Y-73080000D01*
X43680000Y-73046666D01*
X43746666Y-73046666D01*
X43846666Y-73080000D01*
X43880000Y-73113333D01*
X44546666Y-73746666D02*
X44146666Y-73746666D01*
X44346666Y-73746666D02*
X44346666Y-73046666D01*
X44280000Y-73146666D01*
X44213333Y-73213333D01*
X44146666Y-73246666D01*
X44780000Y-73046666D02*
X45213333Y-73046666D01*
X44980000Y-73313333D01*
X45080000Y-73313333D01*
X45146666Y-73346666D01*
X45180000Y-73380000D01*
X45213333Y-73446666D01*
X45213333Y-73613333D01*
X45180000Y-73680000D01*
X45146666Y-73713333D01*
X45080000Y-73746666D01*
X44880000Y-73746666D01*
X44813333Y-73713333D01*
X44780000Y-73680000D01*
%TO.C,C14*%
X60010000Y-73030000D02*
X59976666Y-73063333D01*
X59876666Y-73096666D01*
X59810000Y-73096666D01*
X59710000Y-73063333D01*
X59643333Y-72996666D01*
X59610000Y-72930000D01*
X59576666Y-72796666D01*
X59576666Y-72696666D01*
X59610000Y-72563333D01*
X59643333Y-72496666D01*
X59710000Y-72430000D01*
X59810000Y-72396666D01*
X59876666Y-72396666D01*
X59976666Y-72430000D01*
X60010000Y-72463333D01*
X60676666Y-73096666D02*
X60276666Y-73096666D01*
X60476666Y-73096666D02*
X60476666Y-72396666D01*
X60410000Y-72496666D01*
X60343333Y-72563333D01*
X60276666Y-72596666D01*
X61276666Y-72630000D02*
X61276666Y-73096666D01*
X61110000Y-72363333D02*
X60943333Y-72863333D01*
X61376666Y-72863333D01*
%TO.C,C15*%
X60190000Y-59990000D02*
X60156666Y-60023333D01*
X60056666Y-60056666D01*
X59990000Y-60056666D01*
X59890000Y-60023333D01*
X59823333Y-59956666D01*
X59790000Y-59890000D01*
X59756666Y-59756666D01*
X59756666Y-59656666D01*
X59790000Y-59523333D01*
X59823333Y-59456666D01*
X59890000Y-59390000D01*
X59990000Y-59356666D01*
X60056666Y-59356666D01*
X60156666Y-59390000D01*
X60190000Y-59423333D01*
X60856666Y-60056666D02*
X60456666Y-60056666D01*
X60656666Y-60056666D02*
X60656666Y-59356666D01*
X60590000Y-59456666D01*
X60523333Y-59523333D01*
X60456666Y-59556666D01*
X61490000Y-59356666D02*
X61156666Y-59356666D01*
X61123333Y-59690000D01*
X61156666Y-59656666D01*
X61223333Y-59623333D01*
X61390000Y-59623333D01*
X61456666Y-59656666D01*
X61490000Y-59690000D01*
X61523333Y-59756666D01*
X61523333Y-59923333D01*
X61490000Y-59990000D01*
X61456666Y-60023333D01*
X61390000Y-60056666D01*
X61223333Y-60056666D01*
X61156666Y-60023333D01*
X61123333Y-59990000D01*
%TO.C,C16*%
X44030000Y-60110000D02*
X43996666Y-60143333D01*
X43896666Y-60176666D01*
X43830000Y-60176666D01*
X43730000Y-60143333D01*
X43663333Y-60076666D01*
X43630000Y-60010000D01*
X43596666Y-59876666D01*
X43596666Y-59776666D01*
X43630000Y-59643333D01*
X43663333Y-59576666D01*
X43730000Y-59510000D01*
X43830000Y-59476666D01*
X43896666Y-59476666D01*
X43996666Y-59510000D01*
X44030000Y-59543333D01*
X44696666Y-60176666D02*
X44296666Y-60176666D01*
X44496666Y-60176666D02*
X44496666Y-59476666D01*
X44430000Y-59576666D01*
X44363333Y-59643333D01*
X44296666Y-59676666D01*
X45296666Y-59476666D02*
X45163333Y-59476666D01*
X45096666Y-59510000D01*
X45063333Y-59543333D01*
X44996666Y-59643333D01*
X44963333Y-59776666D01*
X44963333Y-60043333D01*
X44996666Y-60110000D01*
X45030000Y-60143333D01*
X45096666Y-60176666D01*
X45230000Y-60176666D01*
X45296666Y-60143333D01*
X45330000Y-60110000D01*
X45363333Y-60043333D01*
X45363333Y-59876666D01*
X45330000Y-59810000D01*
X45296666Y-59776666D01*
X45230000Y-59743333D01*
X45096666Y-59743333D01*
X45030000Y-59776666D01*
X44996666Y-59810000D01*
X44963333Y-59876666D01*
%TO.C,C18*%
X53440000Y-51020000D02*
X53473333Y-51053333D01*
X53506666Y-51153333D01*
X53506666Y-51220000D01*
X53473333Y-51320000D01*
X53406666Y-51386666D01*
X53340000Y-51420000D01*
X53206666Y-51453333D01*
X53106666Y-51453333D01*
X52973333Y-51420000D01*
X52906666Y-51386666D01*
X52840000Y-51320000D01*
X52806666Y-51220000D01*
X52806666Y-51153333D01*
X52840000Y-51053333D01*
X52873333Y-51020000D01*
X53506666Y-50353333D02*
X53506666Y-50753333D01*
X53506666Y-50553333D02*
X52806666Y-50553333D01*
X52906666Y-50620000D01*
X52973333Y-50686666D01*
X53006666Y-50753333D01*
X53106666Y-49953333D02*
X53073333Y-50020000D01*
X53040000Y-50053333D01*
X52973333Y-50086666D01*
X52940000Y-50086666D01*
X52873333Y-50053333D01*
X52840000Y-50020000D01*
X52806666Y-49953333D01*
X52806666Y-49820000D01*
X52840000Y-49753333D01*
X52873333Y-49720000D01*
X52940000Y-49686666D01*
X52973333Y-49686666D01*
X53040000Y-49720000D01*
X53073333Y-49753333D01*
X53106666Y-49820000D01*
X53106666Y-49953333D01*
X53140000Y-50020000D01*
X53173333Y-50053333D01*
X53240000Y-50086666D01*
X53373333Y-50086666D01*
X53440000Y-50053333D01*
X53473333Y-50020000D01*
X53506666Y-49953333D01*
X53506666Y-49820000D01*
X53473333Y-49753333D01*
X53440000Y-49720000D01*
X53373333Y-49686666D01*
X53240000Y-49686666D01*
X53173333Y-49720000D01*
X53140000Y-49753333D01*
X53106666Y-49820000D01*
%TO.C,C19*%
X52830000Y-58290000D02*
X52863333Y-58323333D01*
X52896666Y-58423333D01*
X52896666Y-58490000D01*
X52863333Y-58590000D01*
X52796666Y-58656666D01*
X52730000Y-58690000D01*
X52596666Y-58723333D01*
X52496666Y-58723333D01*
X52363333Y-58690000D01*
X52296666Y-58656666D01*
X52230000Y-58590000D01*
X52196666Y-58490000D01*
X52196666Y-58423333D01*
X52230000Y-58323333D01*
X52263333Y-58290000D01*
X52896666Y-57623333D02*
X52896666Y-58023333D01*
X52896666Y-57823333D02*
X52196666Y-57823333D01*
X52296666Y-57890000D01*
X52363333Y-57956666D01*
X52396666Y-58023333D01*
X52896666Y-57290000D02*
X52896666Y-57156666D01*
X52863333Y-57090000D01*
X52830000Y-57056666D01*
X52730000Y-56990000D01*
X52596666Y-56956666D01*
X52330000Y-56956666D01*
X52263333Y-56990000D01*
X52230000Y-57023333D01*
X52196666Y-57090000D01*
X52196666Y-57223333D01*
X52230000Y-57290000D01*
X52263333Y-57323333D01*
X52330000Y-57356666D01*
X52496666Y-57356666D01*
X52563333Y-57323333D01*
X52596666Y-57290000D01*
X52630000Y-57223333D01*
X52630000Y-57090000D01*
X52596666Y-57023333D01*
X52563333Y-56990000D01*
X52496666Y-56956666D01*
%TO.C,C21*%
X52250000Y-83570000D02*
X52283333Y-83603333D01*
X52316666Y-83703333D01*
X52316666Y-83770000D01*
X52283333Y-83870000D01*
X52216666Y-83936666D01*
X52150000Y-83970000D01*
X52016666Y-84003333D01*
X51916666Y-84003333D01*
X51783333Y-83970000D01*
X51716666Y-83936666D01*
X51650000Y-83870000D01*
X51616666Y-83770000D01*
X51616666Y-83703333D01*
X51650000Y-83603333D01*
X51683333Y-83570000D01*
X51683333Y-83303333D02*
X51650000Y-83270000D01*
X51616666Y-83203333D01*
X51616666Y-83036666D01*
X51650000Y-82970000D01*
X51683333Y-82936666D01*
X51750000Y-82903333D01*
X51816666Y-82903333D01*
X51916666Y-82936666D01*
X52316666Y-83336666D01*
X52316666Y-82903333D01*
X52316666Y-82236666D02*
X52316666Y-82636666D01*
X52316666Y-82436666D02*
X51616666Y-82436666D01*
X51716666Y-82503333D01*
X51783333Y-82570000D01*
X51816666Y-82636666D01*
%TO.C,C22*%
X52590000Y-76120000D02*
X52623333Y-76153333D01*
X52656666Y-76253333D01*
X52656666Y-76320000D01*
X52623333Y-76420000D01*
X52556666Y-76486666D01*
X52490000Y-76520000D01*
X52356666Y-76553333D01*
X52256666Y-76553333D01*
X52123333Y-76520000D01*
X52056666Y-76486666D01*
X51990000Y-76420000D01*
X51956666Y-76320000D01*
X51956666Y-76253333D01*
X51990000Y-76153333D01*
X52023333Y-76120000D01*
X52023333Y-75853333D02*
X51990000Y-75820000D01*
X51956666Y-75753333D01*
X51956666Y-75586666D01*
X51990000Y-75520000D01*
X52023333Y-75486666D01*
X52090000Y-75453333D01*
X52156666Y-75453333D01*
X52256666Y-75486666D01*
X52656666Y-75886666D01*
X52656666Y-75453333D01*
X52023333Y-75186666D02*
X51990000Y-75153333D01*
X51956666Y-75086666D01*
X51956666Y-74920000D01*
X51990000Y-74853333D01*
X52023333Y-74820000D01*
X52090000Y-74786666D01*
X52156666Y-74786666D01*
X52256666Y-74820000D01*
X52656666Y-75220000D01*
X52656666Y-74786666D01*
%TO.C,P1*%
X62633333Y-104416666D02*
X62633333Y-103716666D01*
X62900000Y-103716666D01*
X62966666Y-103750000D01*
X63000000Y-103783333D01*
X63033333Y-103850000D01*
X63033333Y-103950000D01*
X63000000Y-104016666D01*
X62966666Y-104050000D01*
X62900000Y-104083333D01*
X62633333Y-104083333D01*
X63700000Y-104416666D02*
X63300000Y-104416666D01*
X63500000Y-104416666D02*
X63500000Y-103716666D01*
X63433333Y-103816666D01*
X63366666Y-103883333D01*
X63300000Y-103916666D01*
%TO.C,R1*%
X42613333Y-30896666D02*
X42380000Y-30563333D01*
X42213333Y-30896666D02*
X42213333Y-30196666D01*
X42480000Y-30196666D01*
X42546666Y-30230000D01*
X42580000Y-30263333D01*
X42613333Y-30330000D01*
X42613333Y-30430000D01*
X42580000Y-30496666D01*
X42546666Y-30530000D01*
X42480000Y-30563333D01*
X42213333Y-30563333D01*
X43280000Y-30896666D02*
X42880000Y-30896666D01*
X43080000Y-30896666D02*
X43080000Y-30196666D01*
X43013333Y-30296666D01*
X42946666Y-30363333D01*
X42880000Y-30396666D01*
%TO.C,R2*%
X42123333Y-103186666D02*
X41890000Y-102853333D01*
X41723333Y-103186666D02*
X41723333Y-102486666D01*
X41990000Y-102486666D01*
X42056666Y-102520000D01*
X42090000Y-102553333D01*
X42123333Y-102620000D01*
X42123333Y-102720000D01*
X42090000Y-102786666D01*
X42056666Y-102820000D01*
X41990000Y-102853333D01*
X41723333Y-102853333D01*
X42390000Y-102553333D02*
X42423333Y-102520000D01*
X42490000Y-102486666D01*
X42656666Y-102486666D01*
X42723333Y-102520000D01*
X42756666Y-102553333D01*
X42790000Y-102620000D01*
X42790000Y-102686666D01*
X42756666Y-102786666D01*
X42356666Y-103186666D01*
X42790000Y-103186666D01*
%TO.C,R3*%
X61413333Y-103056666D02*
X61180000Y-102723333D01*
X61013333Y-103056666D02*
X61013333Y-102356666D01*
X61280000Y-102356666D01*
X61346666Y-102390000D01*
X61380000Y-102423333D01*
X61413333Y-102490000D01*
X61413333Y-102590000D01*
X61380000Y-102656666D01*
X61346666Y-102690000D01*
X61280000Y-102723333D01*
X61013333Y-102723333D01*
X61646666Y-102356666D02*
X62080000Y-102356666D01*
X61846666Y-102623333D01*
X61946666Y-102623333D01*
X62013333Y-102656666D01*
X62046666Y-102690000D01*
X62080000Y-102756666D01*
X62080000Y-102923333D01*
X62046666Y-102990000D01*
X62013333Y-103023333D01*
X61946666Y-103056666D01*
X61746666Y-103056666D01*
X61680000Y-103023333D01*
X61646666Y-102990000D01*
%TO.C,R4*%
X62903333Y-31086666D02*
X62670000Y-30753333D01*
X62503333Y-31086666D02*
X62503333Y-30386666D01*
X62770000Y-30386666D01*
X62836666Y-30420000D01*
X62870000Y-30453333D01*
X62903333Y-30520000D01*
X62903333Y-30620000D01*
X62870000Y-30686666D01*
X62836666Y-30720000D01*
X62770000Y-30753333D01*
X62503333Y-30753333D01*
X63503333Y-30620000D02*
X63503333Y-31086666D01*
X63336666Y-30353333D02*
X63170000Y-30853333D01*
X63603333Y-30853333D01*
%TO.C,R5*%
X45543333Y-30976666D02*
X45310000Y-30643333D01*
X45143333Y-30976666D02*
X45143333Y-30276666D01*
X45410000Y-30276666D01*
X45476666Y-30310000D01*
X45510000Y-30343333D01*
X45543333Y-30410000D01*
X45543333Y-30510000D01*
X45510000Y-30576666D01*
X45476666Y-30610000D01*
X45410000Y-30643333D01*
X45143333Y-30643333D01*
X46176666Y-30276666D02*
X45843333Y-30276666D01*
X45810000Y-30610000D01*
X45843333Y-30576666D01*
X45910000Y-30543333D01*
X46076666Y-30543333D01*
X46143333Y-30576666D01*
X46176666Y-30610000D01*
X46210000Y-30676666D01*
X46210000Y-30843333D01*
X46176666Y-30910000D01*
X46143333Y-30943333D01*
X46076666Y-30976666D01*
X45910000Y-30976666D01*
X45843333Y-30943333D01*
X45810000Y-30910000D01*
%TO.C,R6*%
X45173333Y-103296666D02*
X44940000Y-102963333D01*
X44773333Y-103296666D02*
X44773333Y-102596666D01*
X45040000Y-102596666D01*
X45106666Y-102630000D01*
X45140000Y-102663333D01*
X45173333Y-102730000D01*
X45173333Y-102830000D01*
X45140000Y-102896666D01*
X45106666Y-102930000D01*
X45040000Y-102963333D01*
X44773333Y-102963333D01*
X45773333Y-102596666D02*
X45640000Y-102596666D01*
X45573333Y-102630000D01*
X45540000Y-102663333D01*
X45473333Y-102763333D01*
X45440000Y-102896666D01*
X45440000Y-103163333D01*
X45473333Y-103230000D01*
X45506666Y-103263333D01*
X45573333Y-103296666D01*
X45706666Y-103296666D01*
X45773333Y-103263333D01*
X45806666Y-103230000D01*
X45840000Y-103163333D01*
X45840000Y-102996666D01*
X45806666Y-102930000D01*
X45773333Y-102896666D01*
X45706666Y-102863333D01*
X45573333Y-102863333D01*
X45506666Y-102896666D01*
X45473333Y-102930000D01*
X45440000Y-102996666D01*
%TO.C,R7*%
X58823333Y-103026666D02*
X58590000Y-102693333D01*
X58423333Y-103026666D02*
X58423333Y-102326666D01*
X58690000Y-102326666D01*
X58756666Y-102360000D01*
X58790000Y-102393333D01*
X58823333Y-102460000D01*
X58823333Y-102560000D01*
X58790000Y-102626666D01*
X58756666Y-102660000D01*
X58690000Y-102693333D01*
X58423333Y-102693333D01*
X59056666Y-102326666D02*
X59523333Y-102326666D01*
X59223333Y-103026666D01*
%TO.C,R8*%
X59963333Y-31196666D02*
X59730000Y-30863333D01*
X59563333Y-31196666D02*
X59563333Y-30496666D01*
X59830000Y-30496666D01*
X59896666Y-30530000D01*
X59930000Y-30563333D01*
X59963333Y-30630000D01*
X59963333Y-30730000D01*
X59930000Y-30796666D01*
X59896666Y-30830000D01*
X59830000Y-30863333D01*
X59563333Y-30863333D01*
X60363333Y-30796666D02*
X60296666Y-30763333D01*
X60263333Y-30730000D01*
X60230000Y-30663333D01*
X60230000Y-30630000D01*
X60263333Y-30563333D01*
X60296666Y-30530000D01*
X60363333Y-30496666D01*
X60496666Y-30496666D01*
X60563333Y-30530000D01*
X60596666Y-30563333D01*
X60630000Y-30630000D01*
X60630000Y-30663333D01*
X60596666Y-30730000D01*
X60563333Y-30763333D01*
X60496666Y-30796666D01*
X60363333Y-30796666D01*
X60296666Y-30830000D01*
X60263333Y-30863333D01*
X60230000Y-30930000D01*
X60230000Y-31063333D01*
X60263333Y-31130000D01*
X60296666Y-31163333D01*
X60363333Y-31196666D01*
X60496666Y-31196666D01*
X60563333Y-31163333D01*
X60596666Y-31130000D01*
X60630000Y-31063333D01*
X60630000Y-30930000D01*
X60596666Y-30863333D01*
X60563333Y-30830000D01*
X60496666Y-30796666D01*
%TO.C,R9*%
X48513333Y-85526666D02*
X48280000Y-85193333D01*
X48113333Y-85526666D02*
X48113333Y-84826666D01*
X48380000Y-84826666D01*
X48446666Y-84860000D01*
X48480000Y-84893333D01*
X48513333Y-84960000D01*
X48513333Y-85060000D01*
X48480000Y-85126666D01*
X48446666Y-85160000D01*
X48380000Y-85193333D01*
X48113333Y-85193333D01*
X48846666Y-85526666D02*
X48980000Y-85526666D01*
X49046666Y-85493333D01*
X49080000Y-85460000D01*
X49146666Y-85360000D01*
X49180000Y-85226666D01*
X49180000Y-84960000D01*
X49146666Y-84893333D01*
X49113333Y-84860000D01*
X49046666Y-84826666D01*
X48913333Y-84826666D01*
X48846666Y-84860000D01*
X48813333Y-84893333D01*
X48780000Y-84960000D01*
X48780000Y-85126666D01*
X48813333Y-85193333D01*
X48846666Y-85226666D01*
X48913333Y-85260000D01*
X49046666Y-85260000D01*
X49113333Y-85226666D01*
X49146666Y-85193333D01*
X49180000Y-85126666D01*
%TO.C,R10*%
X55370000Y-85196666D02*
X55136666Y-84863333D01*
X54970000Y-85196666D02*
X54970000Y-84496666D01*
X55236666Y-84496666D01*
X55303333Y-84530000D01*
X55336666Y-84563333D01*
X55370000Y-84630000D01*
X55370000Y-84730000D01*
X55336666Y-84796666D01*
X55303333Y-84830000D01*
X55236666Y-84863333D01*
X54970000Y-84863333D01*
X56036666Y-85196666D02*
X55636666Y-85196666D01*
X55836666Y-85196666D02*
X55836666Y-84496666D01*
X55770000Y-84596666D01*
X55703333Y-84663333D01*
X55636666Y-84696666D01*
X56470000Y-84496666D02*
X56536666Y-84496666D01*
X56603333Y-84530000D01*
X56636666Y-84563333D01*
X56670000Y-84630000D01*
X56703333Y-84763333D01*
X56703333Y-84930000D01*
X56670000Y-85063333D01*
X56636666Y-85130000D01*
X56603333Y-85163333D01*
X56536666Y-85196666D01*
X56470000Y-85196666D01*
X56403333Y-85163333D01*
X56370000Y-85130000D01*
X56336666Y-85063333D01*
X56303333Y-84930000D01*
X56303333Y-84763333D01*
X56336666Y-84630000D01*
X56370000Y-84563333D01*
X56403333Y-84530000D01*
X56470000Y-84496666D01*
%TO.C,R11*%
X56670000Y-48286666D02*
X56436666Y-47953333D01*
X56270000Y-48286666D02*
X56270000Y-47586666D01*
X56536666Y-47586666D01*
X56603333Y-47620000D01*
X56636666Y-47653333D01*
X56670000Y-47720000D01*
X56670000Y-47820000D01*
X56636666Y-47886666D01*
X56603333Y-47920000D01*
X56536666Y-47953333D01*
X56270000Y-47953333D01*
X57336666Y-48286666D02*
X56936666Y-48286666D01*
X57136666Y-48286666D02*
X57136666Y-47586666D01*
X57070000Y-47686666D01*
X57003333Y-47753333D01*
X56936666Y-47786666D01*
X58003333Y-48286666D02*
X57603333Y-48286666D01*
X57803333Y-48286666D02*
X57803333Y-47586666D01*
X57736666Y-47686666D01*
X57670000Y-47753333D01*
X57603333Y-47786666D01*
%TO.C,R12*%
X49570000Y-48486666D02*
X49336666Y-48153333D01*
X49170000Y-48486666D02*
X49170000Y-47786666D01*
X49436666Y-47786666D01*
X49503333Y-47820000D01*
X49536666Y-47853333D01*
X49570000Y-47920000D01*
X49570000Y-48020000D01*
X49536666Y-48086666D01*
X49503333Y-48120000D01*
X49436666Y-48153333D01*
X49170000Y-48153333D01*
X50236666Y-48486666D02*
X49836666Y-48486666D01*
X50036666Y-48486666D02*
X50036666Y-47786666D01*
X49970000Y-47886666D01*
X49903333Y-47953333D01*
X49836666Y-47986666D01*
X50503333Y-47853333D02*
X50536666Y-47820000D01*
X50603333Y-47786666D01*
X50770000Y-47786666D01*
X50836666Y-47820000D01*
X50870000Y-47853333D01*
X50903333Y-47920000D01*
X50903333Y-47986666D01*
X50870000Y-48086666D01*
X50470000Y-48486666D01*
X50903333Y-48486666D01*
%TO.C,R13*%
X42166666Y-77220000D02*
X41833333Y-77453333D01*
X42166666Y-77620000D02*
X41466666Y-77620000D01*
X41466666Y-77353333D01*
X41500000Y-77286666D01*
X41533333Y-77253333D01*
X41600000Y-77220000D01*
X41700000Y-77220000D01*
X41766666Y-77253333D01*
X41800000Y-77286666D01*
X41833333Y-77353333D01*
X41833333Y-77620000D01*
X42166666Y-76553333D02*
X42166666Y-76953333D01*
X42166666Y-76753333D02*
X41466666Y-76753333D01*
X41566666Y-76820000D01*
X41633333Y-76886666D01*
X41666666Y-76953333D01*
X41466666Y-76320000D02*
X41466666Y-75886666D01*
X41733333Y-76120000D01*
X41733333Y-76020000D01*
X41766666Y-75953333D01*
X41800000Y-75920000D01*
X41866666Y-75886666D01*
X42033333Y-75886666D01*
X42100000Y-75920000D01*
X42133333Y-75953333D01*
X42166666Y-76020000D01*
X42166666Y-76220000D01*
X42133333Y-76286666D01*
X42100000Y-76320000D01*
%TO.C,R14*%
X62426666Y-77040000D02*
X62093333Y-77273333D01*
X62426666Y-77440000D02*
X61726666Y-77440000D01*
X61726666Y-77173333D01*
X61760000Y-77106666D01*
X61793333Y-77073333D01*
X61860000Y-77040000D01*
X61960000Y-77040000D01*
X62026666Y-77073333D01*
X62060000Y-77106666D01*
X62093333Y-77173333D01*
X62093333Y-77440000D01*
X62426666Y-76373333D02*
X62426666Y-76773333D01*
X62426666Y-76573333D02*
X61726666Y-76573333D01*
X61826666Y-76640000D01*
X61893333Y-76706666D01*
X61926666Y-76773333D01*
X61960000Y-75773333D02*
X62426666Y-75773333D01*
X61693333Y-75940000D02*
X62193333Y-76106666D01*
X62193333Y-75673333D01*
%TO.C,R15*%
X63216666Y-57070000D02*
X62883333Y-57303333D01*
X63216666Y-57470000D02*
X62516666Y-57470000D01*
X62516666Y-57203333D01*
X62550000Y-57136666D01*
X62583333Y-57103333D01*
X62650000Y-57070000D01*
X62750000Y-57070000D01*
X62816666Y-57103333D01*
X62850000Y-57136666D01*
X62883333Y-57203333D01*
X62883333Y-57470000D01*
X63216666Y-56403333D02*
X63216666Y-56803333D01*
X63216666Y-56603333D02*
X62516666Y-56603333D01*
X62616666Y-56670000D01*
X62683333Y-56736666D01*
X62716666Y-56803333D01*
X62516666Y-55770000D02*
X62516666Y-56103333D01*
X62850000Y-56136666D01*
X62816666Y-56103333D01*
X62783333Y-56036666D01*
X62783333Y-55870000D01*
X62816666Y-55803333D01*
X62850000Y-55770000D01*
X62916666Y-55736666D01*
X63083333Y-55736666D01*
X63150000Y-55770000D01*
X63183333Y-55803333D01*
X63216666Y-55870000D01*
X63216666Y-56036666D01*
X63183333Y-56103333D01*
X63150000Y-56136666D01*
%TO.C,R16*%
X42496666Y-57470000D02*
X42163333Y-57703333D01*
X42496666Y-57870000D02*
X41796666Y-57870000D01*
X41796666Y-57603333D01*
X41830000Y-57536666D01*
X41863333Y-57503333D01*
X41930000Y-57470000D01*
X42030000Y-57470000D01*
X42096666Y-57503333D01*
X42130000Y-57536666D01*
X42163333Y-57603333D01*
X42163333Y-57870000D01*
X42496666Y-56803333D02*
X42496666Y-57203333D01*
X42496666Y-57003333D02*
X41796666Y-57003333D01*
X41896666Y-57070000D01*
X41963333Y-57136666D01*
X41996666Y-57203333D01*
X41796666Y-56203333D02*
X41796666Y-56336666D01*
X41830000Y-56403333D01*
X41863333Y-56436666D01*
X41963333Y-56503333D01*
X42096666Y-56536666D01*
X42363333Y-56536666D01*
X42430000Y-56503333D01*
X42463333Y-56470000D01*
X42496666Y-56403333D01*
X42496666Y-56270000D01*
X42463333Y-56203333D01*
X42430000Y-56170000D01*
X42363333Y-56136666D01*
X42196666Y-56136666D01*
X42130000Y-56170000D01*
X42096666Y-56203333D01*
X42063333Y-56270000D01*
X42063333Y-56403333D01*
X42096666Y-56470000D01*
X42130000Y-56503333D01*
X42196666Y-56536666D01*
%TO.C,R17*%
X48390000Y-42876666D02*
X48156666Y-42543333D01*
X47990000Y-42876666D02*
X47990000Y-42176666D01*
X48256666Y-42176666D01*
X48323333Y-42210000D01*
X48356666Y-42243333D01*
X48390000Y-42310000D01*
X48390000Y-42410000D01*
X48356666Y-42476666D01*
X48323333Y-42510000D01*
X48256666Y-42543333D01*
X47990000Y-42543333D01*
X49056666Y-42876666D02*
X48656666Y-42876666D01*
X48856666Y-42876666D02*
X48856666Y-42176666D01*
X48790000Y-42276666D01*
X48723333Y-42343333D01*
X48656666Y-42376666D01*
X49290000Y-42176666D02*
X49756666Y-42176666D01*
X49456666Y-42876666D01*
%TO.C,R18*%
X47980000Y-91276666D02*
X47746666Y-90943333D01*
X47580000Y-91276666D02*
X47580000Y-90576666D01*
X47846666Y-90576666D01*
X47913333Y-90610000D01*
X47946666Y-90643333D01*
X47980000Y-90710000D01*
X47980000Y-90810000D01*
X47946666Y-90876666D01*
X47913333Y-90910000D01*
X47846666Y-90943333D01*
X47580000Y-90943333D01*
X48646666Y-91276666D02*
X48246666Y-91276666D01*
X48446666Y-91276666D02*
X48446666Y-90576666D01*
X48380000Y-90676666D01*
X48313333Y-90743333D01*
X48246666Y-90776666D01*
X49046666Y-90876666D02*
X48980000Y-90843333D01*
X48946666Y-90810000D01*
X48913333Y-90743333D01*
X48913333Y-90710000D01*
X48946666Y-90643333D01*
X48980000Y-90610000D01*
X49046666Y-90576666D01*
X49180000Y-90576666D01*
X49246666Y-90610000D01*
X49280000Y-90643333D01*
X49313333Y-90710000D01*
X49313333Y-90743333D01*
X49280000Y-90810000D01*
X49246666Y-90843333D01*
X49180000Y-90876666D01*
X49046666Y-90876666D01*
X48980000Y-90910000D01*
X48946666Y-90943333D01*
X48913333Y-91010000D01*
X48913333Y-91143333D01*
X48946666Y-91210000D01*
X48980000Y-91243333D01*
X49046666Y-91276666D01*
X49180000Y-91276666D01*
X49246666Y-91243333D01*
X49280000Y-91210000D01*
X49313333Y-91143333D01*
X49313333Y-91010000D01*
X49280000Y-90943333D01*
X49246666Y-90910000D01*
X49180000Y-90876666D01*
%TO.C,R19*%
X55700000Y-91326666D02*
X55466666Y-90993333D01*
X55300000Y-91326666D02*
X55300000Y-90626666D01*
X55566666Y-90626666D01*
X55633333Y-90660000D01*
X55666666Y-90693333D01*
X55700000Y-90760000D01*
X55700000Y-90860000D01*
X55666666Y-90926666D01*
X55633333Y-90960000D01*
X55566666Y-90993333D01*
X55300000Y-90993333D01*
X56366666Y-91326666D02*
X55966666Y-91326666D01*
X56166666Y-91326666D02*
X56166666Y-90626666D01*
X56100000Y-90726666D01*
X56033333Y-90793333D01*
X55966666Y-90826666D01*
X56700000Y-91326666D02*
X56833333Y-91326666D01*
X56900000Y-91293333D01*
X56933333Y-91260000D01*
X57000000Y-91160000D01*
X57033333Y-91026666D01*
X57033333Y-90760000D01*
X57000000Y-90693333D01*
X56966666Y-90660000D01*
X56900000Y-90626666D01*
X56766666Y-90626666D01*
X56700000Y-90660000D01*
X56666666Y-90693333D01*
X56633333Y-90760000D01*
X56633333Y-90926666D01*
X56666666Y-90993333D01*
X56700000Y-91026666D01*
X56766666Y-91060000D01*
X56900000Y-91060000D01*
X56966666Y-91026666D01*
X57000000Y-90993333D01*
X57033333Y-90926666D01*
%TO.C,R20*%
X56460000Y-43036666D02*
X56226666Y-42703333D01*
X56060000Y-43036666D02*
X56060000Y-42336666D01*
X56326666Y-42336666D01*
X56393333Y-42370000D01*
X56426666Y-42403333D01*
X56460000Y-42470000D01*
X56460000Y-42570000D01*
X56426666Y-42636666D01*
X56393333Y-42670000D01*
X56326666Y-42703333D01*
X56060000Y-42703333D01*
X56726666Y-42403333D02*
X56760000Y-42370000D01*
X56826666Y-42336666D01*
X56993333Y-42336666D01*
X57060000Y-42370000D01*
X57093333Y-42403333D01*
X57126666Y-42470000D01*
X57126666Y-42536666D01*
X57093333Y-42636666D01*
X56693333Y-43036666D01*
X57126666Y-43036666D01*
X57560000Y-42336666D02*
X57626666Y-42336666D01*
X57693333Y-42370000D01*
X57726666Y-42403333D01*
X57760000Y-42470000D01*
X57793333Y-42603333D01*
X57793333Y-42770000D01*
X57760000Y-42903333D01*
X57726666Y-42970000D01*
X57693333Y-43003333D01*
X57626666Y-43036666D01*
X57560000Y-43036666D01*
X57493333Y-43003333D01*
X57460000Y-42970000D01*
X57426666Y-42903333D01*
X57393333Y-42770000D01*
X57393333Y-42603333D01*
X57426666Y-42470000D01*
X57460000Y-42403333D01*
X57493333Y-42370000D01*
X57560000Y-42336666D01*
%TO.C,R21*%
X45490000Y-42916666D02*
X45256666Y-42583333D01*
X45090000Y-42916666D02*
X45090000Y-42216666D01*
X45356666Y-42216666D01*
X45423333Y-42250000D01*
X45456666Y-42283333D01*
X45490000Y-42350000D01*
X45490000Y-42450000D01*
X45456666Y-42516666D01*
X45423333Y-42550000D01*
X45356666Y-42583333D01*
X45090000Y-42583333D01*
X45756666Y-42283333D02*
X45790000Y-42250000D01*
X45856666Y-42216666D01*
X46023333Y-42216666D01*
X46090000Y-42250000D01*
X46123333Y-42283333D01*
X46156666Y-42350000D01*
X46156666Y-42416666D01*
X46123333Y-42516666D01*
X45723333Y-42916666D01*
X46156666Y-42916666D01*
X46823333Y-42916666D02*
X46423333Y-42916666D01*
X46623333Y-42916666D02*
X46623333Y-42216666D01*
X46556666Y-42316666D01*
X46490000Y-42383333D01*
X46423333Y-42416666D01*
%TO.C,R22*%
X44960000Y-91256666D02*
X44726666Y-90923333D01*
X44560000Y-91256666D02*
X44560000Y-90556666D01*
X44826666Y-90556666D01*
X44893333Y-90590000D01*
X44926666Y-90623333D01*
X44960000Y-90690000D01*
X44960000Y-90790000D01*
X44926666Y-90856666D01*
X44893333Y-90890000D01*
X44826666Y-90923333D01*
X44560000Y-90923333D01*
X45226666Y-90623333D02*
X45260000Y-90590000D01*
X45326666Y-90556666D01*
X45493333Y-90556666D01*
X45560000Y-90590000D01*
X45593333Y-90623333D01*
X45626666Y-90690000D01*
X45626666Y-90756666D01*
X45593333Y-90856666D01*
X45193333Y-91256666D01*
X45626666Y-91256666D01*
X45893333Y-90623333D02*
X45926666Y-90590000D01*
X45993333Y-90556666D01*
X46160000Y-90556666D01*
X46226666Y-90590000D01*
X46260000Y-90623333D01*
X46293333Y-90690000D01*
X46293333Y-90756666D01*
X46260000Y-90856666D01*
X45860000Y-91256666D01*
X46293333Y-91256666D01*
%TO.C,R23*%
X58710000Y-91356666D02*
X58476666Y-91023333D01*
X58310000Y-91356666D02*
X58310000Y-90656666D01*
X58576666Y-90656666D01*
X58643333Y-90690000D01*
X58676666Y-90723333D01*
X58710000Y-90790000D01*
X58710000Y-90890000D01*
X58676666Y-90956666D01*
X58643333Y-90990000D01*
X58576666Y-91023333D01*
X58310000Y-91023333D01*
X58976666Y-90723333D02*
X59010000Y-90690000D01*
X59076666Y-90656666D01*
X59243333Y-90656666D01*
X59310000Y-90690000D01*
X59343333Y-90723333D01*
X59376666Y-90790000D01*
X59376666Y-90856666D01*
X59343333Y-90956666D01*
X58943333Y-91356666D01*
X59376666Y-91356666D01*
X59610000Y-90656666D02*
X60043333Y-90656666D01*
X59810000Y-90923333D01*
X59910000Y-90923333D01*
X59976666Y-90956666D01*
X60010000Y-90990000D01*
X60043333Y-91056666D01*
X60043333Y-91223333D01*
X60010000Y-91290000D01*
X59976666Y-91323333D01*
X59910000Y-91356666D01*
X59710000Y-91356666D01*
X59643333Y-91323333D01*
X59610000Y-91290000D01*
%TO.C,R24*%
X59280000Y-43016666D02*
X59046666Y-42683333D01*
X58880000Y-43016666D02*
X58880000Y-42316666D01*
X59146666Y-42316666D01*
X59213333Y-42350000D01*
X59246666Y-42383333D01*
X59280000Y-42450000D01*
X59280000Y-42550000D01*
X59246666Y-42616666D01*
X59213333Y-42650000D01*
X59146666Y-42683333D01*
X58880000Y-42683333D01*
X59546666Y-42383333D02*
X59580000Y-42350000D01*
X59646666Y-42316666D01*
X59813333Y-42316666D01*
X59880000Y-42350000D01*
X59913333Y-42383333D01*
X59946666Y-42450000D01*
X59946666Y-42516666D01*
X59913333Y-42616666D01*
X59513333Y-43016666D01*
X59946666Y-43016666D01*
X60546666Y-42550000D02*
X60546666Y-43016666D01*
X60380000Y-42283333D02*
X60213333Y-42783333D01*
X60646666Y-42783333D01*
%TO.C,R25*%
X42510000Y-42936666D02*
X42276666Y-42603333D01*
X42110000Y-42936666D02*
X42110000Y-42236666D01*
X42376666Y-42236666D01*
X42443333Y-42270000D01*
X42476666Y-42303333D01*
X42510000Y-42370000D01*
X42510000Y-42470000D01*
X42476666Y-42536666D01*
X42443333Y-42570000D01*
X42376666Y-42603333D01*
X42110000Y-42603333D01*
X42776666Y-42303333D02*
X42810000Y-42270000D01*
X42876666Y-42236666D01*
X43043333Y-42236666D01*
X43110000Y-42270000D01*
X43143333Y-42303333D01*
X43176666Y-42370000D01*
X43176666Y-42436666D01*
X43143333Y-42536666D01*
X42743333Y-42936666D01*
X43176666Y-42936666D01*
X43810000Y-42236666D02*
X43476666Y-42236666D01*
X43443333Y-42570000D01*
X43476666Y-42536666D01*
X43543333Y-42503333D01*
X43710000Y-42503333D01*
X43776666Y-42536666D01*
X43810000Y-42570000D01*
X43843333Y-42636666D01*
X43843333Y-42803333D01*
X43810000Y-42870000D01*
X43776666Y-42903333D01*
X43710000Y-42936666D01*
X43543333Y-42936666D01*
X43476666Y-42903333D01*
X43443333Y-42870000D01*
%TO.C,R26*%
X41810000Y-91236666D02*
X41576666Y-90903333D01*
X41410000Y-91236666D02*
X41410000Y-90536666D01*
X41676666Y-90536666D01*
X41743333Y-90570000D01*
X41776666Y-90603333D01*
X41810000Y-90670000D01*
X41810000Y-90770000D01*
X41776666Y-90836666D01*
X41743333Y-90870000D01*
X41676666Y-90903333D01*
X41410000Y-90903333D01*
X42076666Y-90603333D02*
X42110000Y-90570000D01*
X42176666Y-90536666D01*
X42343333Y-90536666D01*
X42410000Y-90570000D01*
X42443333Y-90603333D01*
X42476666Y-90670000D01*
X42476666Y-90736666D01*
X42443333Y-90836666D01*
X42043333Y-91236666D01*
X42476666Y-91236666D01*
X43076666Y-90536666D02*
X42943333Y-90536666D01*
X42876666Y-90570000D01*
X42843333Y-90603333D01*
X42776666Y-90703333D01*
X42743333Y-90836666D01*
X42743333Y-91103333D01*
X42776666Y-91170000D01*
X42810000Y-91203333D01*
X42876666Y-91236666D01*
X43010000Y-91236666D01*
X43076666Y-91203333D01*
X43110000Y-91170000D01*
X43143333Y-91103333D01*
X43143333Y-90936666D01*
X43110000Y-90870000D01*
X43076666Y-90836666D01*
X43010000Y-90803333D01*
X42876666Y-90803333D01*
X42810000Y-90836666D01*
X42776666Y-90870000D01*
X42743333Y-90936666D01*
%TO.C,R27*%
X61530000Y-91356666D02*
X61296666Y-91023333D01*
X61130000Y-91356666D02*
X61130000Y-90656666D01*
X61396666Y-90656666D01*
X61463333Y-90690000D01*
X61496666Y-90723333D01*
X61530000Y-90790000D01*
X61530000Y-90890000D01*
X61496666Y-90956666D01*
X61463333Y-90990000D01*
X61396666Y-91023333D01*
X61130000Y-91023333D01*
X61796666Y-90723333D02*
X61830000Y-90690000D01*
X61896666Y-90656666D01*
X62063333Y-90656666D01*
X62130000Y-90690000D01*
X62163333Y-90723333D01*
X62196666Y-90790000D01*
X62196666Y-90856666D01*
X62163333Y-90956666D01*
X61763333Y-91356666D01*
X62196666Y-91356666D01*
X62430000Y-90656666D02*
X62896666Y-90656666D01*
X62596666Y-91356666D01*
%TO.C,R28*%
X62120000Y-42976666D02*
X61886666Y-42643333D01*
X61720000Y-42976666D02*
X61720000Y-42276666D01*
X61986666Y-42276666D01*
X62053333Y-42310000D01*
X62086666Y-42343333D01*
X62120000Y-42410000D01*
X62120000Y-42510000D01*
X62086666Y-42576666D01*
X62053333Y-42610000D01*
X61986666Y-42643333D01*
X61720000Y-42643333D01*
X62386666Y-42343333D02*
X62420000Y-42310000D01*
X62486666Y-42276666D01*
X62653333Y-42276666D01*
X62720000Y-42310000D01*
X62753333Y-42343333D01*
X62786666Y-42410000D01*
X62786666Y-42476666D01*
X62753333Y-42576666D01*
X62353333Y-42976666D01*
X62786666Y-42976666D01*
X63186666Y-42576666D02*
X63120000Y-42543333D01*
X63086666Y-42510000D01*
X63053333Y-42443333D01*
X63053333Y-42410000D01*
X63086666Y-42343333D01*
X63120000Y-42310000D01*
X63186666Y-42276666D01*
X63320000Y-42276666D01*
X63386666Y-42310000D01*
X63420000Y-42343333D01*
X63453333Y-42410000D01*
X63453333Y-42443333D01*
X63420000Y-42510000D01*
X63386666Y-42543333D01*
X63320000Y-42576666D01*
X63186666Y-42576666D01*
X63120000Y-42610000D01*
X63086666Y-42643333D01*
X63053333Y-42710000D01*
X63053333Y-42843333D01*
X63086666Y-42910000D01*
X63120000Y-42943333D01*
X63186666Y-42976666D01*
X63320000Y-42976666D01*
X63386666Y-42943333D01*
X63420000Y-42910000D01*
X63453333Y-42843333D01*
X63453333Y-42710000D01*
X63420000Y-42643333D01*
X63386666Y-42610000D01*
X63320000Y-42576666D01*
%TO.C,R29*%
X32736666Y-111480000D02*
X32403333Y-111713333D01*
X32736666Y-111880000D02*
X32036666Y-111880000D01*
X32036666Y-111613333D01*
X32070000Y-111546666D01*
X32103333Y-111513333D01*
X32170000Y-111480000D01*
X32270000Y-111480000D01*
X32336666Y-111513333D01*
X32370000Y-111546666D01*
X32403333Y-111613333D01*
X32403333Y-111880000D01*
X32103333Y-111213333D02*
X32070000Y-111180000D01*
X32036666Y-111113333D01*
X32036666Y-110946666D01*
X32070000Y-110880000D01*
X32103333Y-110846666D01*
X32170000Y-110813333D01*
X32236666Y-110813333D01*
X32336666Y-110846666D01*
X32736666Y-111246666D01*
X32736666Y-110813333D01*
X32736666Y-110480000D02*
X32736666Y-110346666D01*
X32703333Y-110280000D01*
X32670000Y-110246666D01*
X32570000Y-110180000D01*
X32436666Y-110146666D01*
X32170000Y-110146666D01*
X32103333Y-110180000D01*
X32070000Y-110213333D01*
X32036666Y-110280000D01*
X32036666Y-110413333D01*
X32070000Y-110480000D01*
X32103333Y-110513333D01*
X32170000Y-110546666D01*
X32336666Y-110546666D01*
X32403333Y-110513333D01*
X32436666Y-110480000D01*
X32470000Y-110413333D01*
X32470000Y-110280000D01*
X32436666Y-110213333D01*
X32403333Y-110180000D01*
X32336666Y-110146666D01*
%TO.C,R30*%
X73340000Y-111726666D02*
X73106666Y-111393333D01*
X72940000Y-111726666D02*
X72940000Y-111026666D01*
X73206666Y-111026666D01*
X73273333Y-111060000D01*
X73306666Y-111093333D01*
X73340000Y-111160000D01*
X73340000Y-111260000D01*
X73306666Y-111326666D01*
X73273333Y-111360000D01*
X73206666Y-111393333D01*
X72940000Y-111393333D01*
X73573333Y-111026666D02*
X74006666Y-111026666D01*
X73773333Y-111293333D01*
X73873333Y-111293333D01*
X73940000Y-111326666D01*
X73973333Y-111360000D01*
X74006666Y-111426666D01*
X74006666Y-111593333D01*
X73973333Y-111660000D01*
X73940000Y-111693333D01*
X73873333Y-111726666D01*
X73673333Y-111726666D01*
X73606666Y-111693333D01*
X73573333Y-111660000D01*
X74440000Y-111026666D02*
X74506666Y-111026666D01*
X74573333Y-111060000D01*
X74606666Y-111093333D01*
X74640000Y-111160000D01*
X74673333Y-111293333D01*
X74673333Y-111460000D01*
X74640000Y-111593333D01*
X74606666Y-111660000D01*
X74573333Y-111693333D01*
X74506666Y-111726666D01*
X74440000Y-111726666D01*
X74373333Y-111693333D01*
X74340000Y-111660000D01*
X74306666Y-111593333D01*
X74273333Y-111460000D01*
X74273333Y-111293333D01*
X74306666Y-111160000D01*
X74340000Y-111093333D01*
X74373333Y-111060000D01*
X74440000Y-111026666D01*
%TO.C,U1*%
X42606666Y-67033333D02*
X43173333Y-67033333D01*
X43240000Y-67000000D01*
X43273333Y-66966666D01*
X43306666Y-66900000D01*
X43306666Y-66766666D01*
X43273333Y-66700000D01*
X43240000Y-66666666D01*
X43173333Y-66633333D01*
X42606666Y-66633333D01*
X43306666Y-65933333D02*
X43306666Y-66333333D01*
X43306666Y-66133333D02*
X42606666Y-66133333D01*
X42706666Y-66200000D01*
X42773333Y-66266666D01*
X42806666Y-66333333D01*
%TD*%
M02*
