%TF.GenerationSoftware,KiCad,Pcbnew,(5.1.7)-1*%
%TF.CreationDate,2020-11-12T11:31:24+03:00*%
%TF.ProjectId,stomp adapter,73746f6d-7020-4616-9461-707465722e6b,rev?*%
%TF.SameCoordinates,Original*%
%TF.FileFunction,Legend,Bot*%
%TF.FilePolarity,Positive*%
%FSLAX46Y46*%
G04 Gerber Fmt 4.6, Leading zero omitted, Abs format (unit mm)*
G04 Created by KiCad (PCBNEW (5.1.7)-1) date 2020-11-12 11:31:24*
%MOMM*%
%LPD*%
G01*
G04 APERTURE LIST*
%ADD10C,0.750000*%
G04 APERTURE END LIST*
D10*
X66790000Y-42137142D02*
X66790000Y-43565714D01*
X67647142Y-41851428D02*
X64647142Y-42851428D01*
X67647142Y-43851428D01*
X67647142Y-46137142D02*
X64647142Y-46137142D01*
X67504285Y-46137142D02*
X67647142Y-45851428D01*
X67647142Y-45280000D01*
X67504285Y-44994285D01*
X67361428Y-44851428D01*
X67075714Y-44708571D01*
X66218571Y-44708571D01*
X65932857Y-44851428D01*
X65790000Y-44994285D01*
X65647142Y-45280000D01*
X65647142Y-45851428D01*
X65790000Y-46137142D01*
X67647142Y-48851428D02*
X66075714Y-48851428D01*
X65790000Y-48708571D01*
X65647142Y-48422857D01*
X65647142Y-47851428D01*
X65790000Y-47565714D01*
X67504285Y-48851428D02*
X67647142Y-48565714D01*
X67647142Y-47851428D01*
X67504285Y-47565714D01*
X67218571Y-47422857D01*
X66932857Y-47422857D01*
X66647142Y-47565714D01*
X66504285Y-47851428D01*
X66504285Y-48565714D01*
X66361428Y-48851428D01*
X67647142Y-50280000D02*
X65647142Y-50280000D01*
X65932857Y-50280000D02*
X65790000Y-50422857D01*
X65647142Y-50708571D01*
X65647142Y-51137142D01*
X65790000Y-51422857D01*
X66075714Y-51565714D01*
X67647142Y-51565714D01*
X66075714Y-51565714D02*
X65790000Y-51708571D01*
X65647142Y-51994285D01*
X65647142Y-52422857D01*
X65790000Y-52708571D01*
X66075714Y-52851428D01*
X67647142Y-52851428D01*
X67647142Y-54280000D02*
X64647142Y-54280000D01*
X64647142Y-54994285D01*
X64790000Y-55422857D01*
X65075714Y-55708571D01*
X65361428Y-55851428D01*
X65932857Y-55994285D01*
X66361428Y-55994285D01*
X66932857Y-55851428D01*
X67218571Y-55708571D01*
X67504285Y-55422857D01*
X67647142Y-54994285D01*
X67647142Y-54280000D01*
X65647142Y-56994285D02*
X67647142Y-57708571D01*
X65647142Y-58422857D02*
X67647142Y-57708571D01*
X68361428Y-57422857D01*
X68504285Y-57280000D01*
X68647142Y-56994285D01*
X65647142Y-59565714D02*
X67647142Y-59565714D01*
X65932857Y-59565714D02*
X65790000Y-59708571D01*
X65647142Y-59994285D01*
X65647142Y-60422857D01*
X65790000Y-60708571D01*
X66075714Y-60851428D01*
X67647142Y-60851428D01*
X67647142Y-63565714D02*
X66075714Y-63565714D01*
X65790000Y-63422857D01*
X65647142Y-63137142D01*
X65647142Y-62565714D01*
X65790000Y-62280000D01*
X67504285Y-63565714D02*
X67647142Y-63280000D01*
X67647142Y-62565714D01*
X67504285Y-62280000D01*
X67218571Y-62137142D01*
X66932857Y-62137142D01*
X66647142Y-62280000D01*
X66504285Y-62565714D01*
X66504285Y-63280000D01*
X66361428Y-63565714D01*
X67647142Y-64994285D02*
X65647142Y-64994285D01*
X65932857Y-64994285D02*
X65790000Y-65137142D01*
X65647142Y-65422857D01*
X65647142Y-65851428D01*
X65790000Y-66137142D01*
X66075714Y-66280000D01*
X67647142Y-66280000D01*
X66075714Y-66280000D02*
X65790000Y-66422857D01*
X65647142Y-66708571D01*
X65647142Y-67137142D01*
X65790000Y-67422857D01*
X66075714Y-67565714D01*
X67647142Y-67565714D01*
X67647142Y-68994285D02*
X65647142Y-68994285D01*
X64647142Y-68994285D02*
X64790000Y-68851428D01*
X64932857Y-68994285D01*
X64790000Y-69137142D01*
X64647142Y-68994285D01*
X64932857Y-68994285D01*
X67504285Y-71708571D02*
X67647142Y-71422857D01*
X67647142Y-70851428D01*
X67504285Y-70565714D01*
X67361428Y-70422857D01*
X67075714Y-70280000D01*
X66218571Y-70280000D01*
X65932857Y-70422857D01*
X65790000Y-70565714D01*
X65647142Y-70851428D01*
X65647142Y-71422857D01*
X65790000Y-71708571D01*
X67504285Y-75137142D02*
X67647142Y-75565714D01*
X67647142Y-76280000D01*
X67504285Y-76565714D01*
X67361428Y-76708571D01*
X67075714Y-76851428D01*
X66790000Y-76851428D01*
X66504285Y-76708571D01*
X66361428Y-76565714D01*
X66218571Y-76280000D01*
X66075714Y-75708571D01*
X65932857Y-75422857D01*
X65790000Y-75280000D01*
X65504285Y-75137142D01*
X65218571Y-75137142D01*
X64932857Y-75280000D01*
X64790000Y-75422857D01*
X64647142Y-75708571D01*
X64647142Y-76422857D01*
X64790000Y-76851428D01*
X66790000Y-77994285D02*
X66790000Y-79422857D01*
X67647142Y-77708571D02*
X64647142Y-78708571D01*
X67647142Y-79708571D01*
X66504285Y-80708571D02*
X66504285Y-82994285D01*
X64647142Y-84994285D02*
X64647142Y-85280000D01*
X64790000Y-85565714D01*
X64932857Y-85708571D01*
X65218571Y-85851428D01*
X65790000Y-85994285D01*
X66504285Y-85994285D01*
X67075714Y-85851428D01*
X67361428Y-85708571D01*
X67504285Y-85565714D01*
X67647142Y-85280000D01*
X67647142Y-84994285D01*
X67504285Y-84708571D01*
X67361428Y-84565714D01*
X67075714Y-84422857D01*
X66504285Y-84280000D01*
X65790000Y-84280000D01*
X65218571Y-84422857D01*
X64932857Y-84565714D01*
X64790000Y-84708571D01*
X64647142Y-84994285D01*
X64647142Y-87851428D02*
X64647142Y-88137142D01*
X64790000Y-88422857D01*
X64932857Y-88565714D01*
X65218571Y-88708571D01*
X65790000Y-88851428D01*
X66504285Y-88851428D01*
X67075714Y-88708571D01*
X67361428Y-88565714D01*
X67504285Y-88422857D01*
X67647142Y-88137142D01*
X67647142Y-87851428D01*
X67504285Y-87565714D01*
X67361428Y-87422857D01*
X67075714Y-87280000D01*
X66504285Y-87137142D01*
X65790000Y-87137142D01*
X65218571Y-87280000D01*
X64932857Y-87422857D01*
X64790000Y-87565714D01*
X64647142Y-87851428D01*
X67647142Y-91708571D02*
X67647142Y-89994285D01*
X67647142Y-90851428D02*
X64647142Y-90851428D01*
X65075714Y-90565714D01*
X65361428Y-90280000D01*
X65504285Y-89994285D01*
X65647142Y-94994285D02*
X67647142Y-95708571D01*
X65647142Y-96422857D01*
X64647142Y-98137142D02*
X64647142Y-98422857D01*
X64790000Y-98708571D01*
X64932857Y-98851428D01*
X65218571Y-98994285D01*
X65790000Y-99137142D01*
X66504285Y-99137142D01*
X67075714Y-98994285D01*
X67361428Y-98851428D01*
X67504285Y-98708571D01*
X67647142Y-98422857D01*
X67647142Y-98137142D01*
X67504285Y-97851428D01*
X67361428Y-97708571D01*
X67075714Y-97565714D01*
X66504285Y-97422857D01*
X65790000Y-97422857D01*
X65218571Y-97565714D01*
X64932857Y-97708571D01*
X64790000Y-97851428D01*
X64647142Y-98137142D01*
X67361428Y-100422857D02*
X67504285Y-100565714D01*
X67647142Y-100422857D01*
X67504285Y-100280000D01*
X67361428Y-100422857D01*
X67647142Y-100422857D01*
X67647142Y-103422857D02*
X67647142Y-101708571D01*
X67647142Y-102565714D02*
X64647142Y-102565714D01*
X65075714Y-102280000D01*
X65361428Y-101994285D01*
X65504285Y-101708571D01*
M02*
