M48
;Layer_Color=9474304
;FILE_FORMAT=4:3
METRIC,LZ
;TYPE=PLATED
T1F00S00C0.300
T2F00S00C0.711
T3F00S00C1.016
T4F00S00C1.143
T5F00S00C1.200
T6F00S00C1.524
T7F00S00C2.159
;TYPE=NON_PLATED
T8F00S00C6.350
%
T01
X0057467Y0053658
X0063818Y004953
X0070168Y0050165
X0077152Y0065723
X007493Y0075565
X0049847Y007112
X0047777Y0065298
X0049847Y0061595
X0020638Y0061912
X0032702Y0093293
X003429Y0092075
X0035877Y009742
X0036195Y0106363
X0049213Y0115253
X007112Y011303
X007493Y0087312
X0082232Y0082868
T02
X006985Y008091
X0076518Y0079058
X0028712Y0097336
T03
X005207Y0079005
X004445
Y0081545
Y0084085
Y0086625
Y0089165
Y0091705
Y0094245
X005207
Y0091705
Y0089165
Y0086625
Y0084085
Y0081545
X005588Y0127583
Y0130123
Y0132663
Y0135203
Y0137743
Y0140283
Y0142823
Y0145363
X004826
Y0142823
Y0140283
Y0137743
Y0135203
Y0132663
Y0130123
Y0127583
X001778Y0158432
X001524
X00127
X000508Y0157798
Y0155258
Y0160337
T04
X005191Y0154622
Y0157163
X005445
Y0154622
X005699
Y0157163
X004937
X004683
X004429
X004175
X003921
Y0154622
X004175
X004429
X004683
X004937
T05
X0057467Y0072972
X0060642Y0072973
X0063817
X0066992
X0039052Y0081545
Y008472
Y0087895
Y009107
Y0094245
X0028892
Y009107
Y0087895
Y008472
Y0081545
X0019685Y0093928
X0012065
X004445Y0103135
Y010631
X005461
Y0103135
X005969Y0101865
X0062865
X006604
Y0091705
X0062865
X005969
X0060642Y0083133
X0063817
X0066992
X0057467Y0083132
X006477Y0119063
X007239
Y0129223
X007239Y0133298
X0073025Y0136473
Y0139648
Y0142823
Y014568
Y0148538
X0062865
Y014568
Y0142823
Y0139648
Y0136473
X006477Y0133298
X006477Y0129223
X0080327Y0133297
Y0140917
X0042862Y013933
Y0136473
Y0133615
Y0130758
X004318Y01279
Y0125043
X003302
Y01279
X0032702Y0130758
Y0133615
Y0136473
Y013933
Y0142505
Y0145363
Y014822
X0042862
Y0145363
Y0142505
X0028575Y015748
X0026035Y016002
X0023495Y015748
X002667Y01279
Y0124725
X0028257Y012155
X0018097
X001905Y0124725
Y01279
T06
X0091123Y0072973
Y0078053
X0004762Y0077787
Y0072707
Y0082867
Y0088582
Y0093662
Y0098743
X0091123Y0098831
Y0093751
Y0088671
Y0083133
X0092393Y0121603
Y0126683
Y0131762
X0003175Y0133668
Y0128588
Y0123508
T07
X0004388Y0011043
X0008299Y0016834
X0004388Y0036443
X0011297Y0029534
X0017088Y0033445
X0015406Y0040552
X0029788Y0036443
X0036697Y0029534
X0042488Y0033445
X0040806Y0040552
Y0015152
X0033699Y0016834
X0029788Y0011043
X0036697Y0004134
X0042488Y0008045
X0017088
X0015406Y0015152
X0011297Y0004134
X0062097
X0067888Y0008045
X0066206Y0015152
X0059099Y0016834
X0055188Y0011043
X0062097Y0029534
X0067888Y0033445
X0066206Y0040552
X0055188Y0036443
X0080588
X0087497Y0029534
X0084499Y0016834
X0080588Y0011043
X0087497Y0004134
X0093288Y0008045
X0091606Y0015152
X0093288Y0033445
X0091606Y0040552
X0093345Y0058845
X0091664Y0065952
X0084557Y0067634
X0080645Y0061843
X0087554Y0054934
X0084499Y0042234
X0059099
X0062097Y0054934
X0067888Y0058845
X0066206Y0065952
X0059099Y0067634
X0055188Y0061843
X0042488Y0058845
X0040806Y0065952
X0033699Y0067634
X0029788Y0061843
X0036697Y0054934
X0033699Y0042234
X0008299
T08
X0010738Y0010484
X0036138
Y0035884
X0010738
X0061538
Y0010484
X0086938
Y0035884
X0086995Y0061284
X0061538
X0036138
M30
